<svg xmlns="http://www.w3.org/2000/svg" xmlns:xlink="http://www.w3.org/1999/xlink">
	<rect x="0" y="0" width="10" height="10" fill="rgba(255, 255, 255, 0.0)" />
	<rect x="10" y="0" width="10" height="10" fill="rgba(255, 255, 255, 0.0)" />
	<rect x="20" y="0" width="10" height="10" fill="rgba(255, 255, 255, 0.0)" />
	<rect x="30" y="0" width="10" height="10" fill="rgba(255, 255, 255, 0.0)" />
	<rect x="40" y="0" width="10" height="10" fill="rgba(255, 255, 255, 0.0)" />
	<rect x="50" y="0" width="10" height="10" fill="rgba(255, 255, 255, 0.0)" />
	<rect x="60" y="0" width="10" height="10" fill="rgba(255, 255, 255, 0.0)" />
	<rect x="70" y="0" width="10" height="10" fill="rgba(255, 255, 255, 0.0)" />
	<rect x="80" y="0" width="10" height="10" fill="rgba(255, 255, 255, 0.0)" />
	<rect x="90" y="0" width="10" height="10" fill="rgba(255, 255, 255, 0.0)" />
	<rect x="100" y="0" width="10" height="10" fill="rgba(255, 255, 255, 0.0)" />
	<rect x="110" y="0" width="10" height="10" fill="rgba(255, 255, 255, 0.0)" />
	<rect x="120" y="0" width="10" height="10" fill="rgba(255, 255, 255, 0.0)" />
	<rect x="130" y="0" width="10" height="10" fill="rgba(255, 255, 255, 0.0)" />
	<rect x="140" y="0" width="10" height="10" fill="rgba(255, 255, 255, 0.0)" />
	<rect x="150" y="0" width="10" height="10" fill="rgba(255, 255, 255, 0.0)" />
	<rect x="0" y="10" width="10" height="10" fill="rgba(255, 255, 255, 0.0)" />
	<rect x="10" y="10" width="10" height="10" fill="rgba(255, 255, 255, 0.0)" />
	<rect x="20" y="10" width="10" height="10" fill="rgba(255, 255, 255, 0.0)" />
	<rect x="30" y="10" width="10" height="10" fill="rgba(255, 255, 255, 0.0)" />
	<rect x="40" y="10" width="10" height="10" fill="rgba(255, 255, 255, 0.0)" />
	<rect x="50" y="10" width="10" height="10" fill="rgba(255, 255, 255, 0.0)" />
	<rect x="60" y="10" width="10" height="10" fill="rgba(255, 255, 255, 0.0)" />
	<rect x="70" y="10" width="10" height="10" fill="rgba(255, 255, 255, 0.0)" />
	<rect x="80" y="10" width="10" height="10" fill="rgba(255, 255, 255, 0.0)" />
	<rect x="90" y="10" width="10" height="10" fill="rgba(255, 255, 255, 0.0)" />
	<rect x="100" y="10" width="10" height="10" fill="rgba(255, 255, 255, 0.0)" />
	<rect x="110" y="10" width="10" height="10" fill="rgba(255, 255, 255, 0.0)" />
	<rect x="120" y="10" width="10" height="10" fill="rgba(255, 255, 255, 0.0)" />
	<rect x="130" y="10" width="10" height="10" fill="rgba(255, 255, 255, 0.0)" />
	<rect x="140" y="10" width="10" height="10" fill="rgba(255, 255, 255, 0.0)" />
	<rect x="150" y="10" width="10" height="10" fill="rgba(255, 255, 255, 0.0)" />
	<rect x="0" y="20" width="10" height="10" fill="rgba(255, 255, 255, 0.0)" />
	<rect x="10" y="20" width="10" height="10" fill="rgba(255, 255, 255, 0.0)" />
	<rect x="20" y="20" width="10" height="10" fill="rgba(255, 255, 255, 0.0)" />
	<rect x="30" y="20" width="10" height="10" fill="rgba(255, 255, 255, 0.0)" />
	<rect x="40" y="20" width="10" height="10" fill="rgba(255, 255, 255, 0.0)" />
	<rect x="50" y="20" width="10" height="10" fill="rgba(255, 255, 255, 0.0)" />
	<rect x="60" y="20" width="10" height="10" fill="rgba(255, 255, 255, 0.0)" />
	<rect x="70" y="20" width="10" height="10" fill="rgba(58, 105, 15, 1.0)" />
	<rect x="80" y="20" width="10" height="10" fill="rgba(59, 105, 15, 0.0)" />
	<rect x="90" y="20" width="10" height="10" fill="rgba(255, 255, 255, 0.0)" />
	<rect x="100" y="20" width="10" height="10" fill="rgba(255, 255, 255, 0.0)" />
	<rect x="110" y="20" width="10" height="10" fill="rgba(255, 255, 255, 0.0)" />
	<rect x="120" y="20" width="10" height="10" fill="rgba(255, 255, 255, 0.0)" />
	<rect x="130" y="20" width="10" height="10" fill="rgba(255, 255, 255, 0.0)" />
	<rect x="140" y="20" width="10" height="10" fill="rgba(255, 255, 255, 0.0)" />
	<rect x="150" y="20" width="10" height="10" fill="rgba(255, 255, 255, 0.0)" />
	<rect x="0" y="30" width="10" height="10" fill="rgba(255, 255, 255, 0.0)" />
	<rect x="10" y="30" width="10" height="10" fill="rgba(255, 255, 255, 0.0)" />
	<rect x="20" y="30" width="10" height="10" fill="rgba(255, 255, 255, 0.0)" />
	<rect x="30" y="30" width="10" height="10" fill="rgba(255, 255, 255, 0.0)" />
	<rect x="40" y="30" width="10" height="10" fill="rgba(255, 255, 255, 0.0)" />
	<rect x="50" y="30" width="10" height="10" fill="rgba(255, 255, 255, 0.0)" />
	<rect x="60" y="30" width="10" height="10" fill="rgba(255, 255, 255, 0.0)" />
	<rect x="70" y="30" width="10" height="10" fill="rgba(78, 148, 13, 1.0)" />
	<rect x="80" y="30" width="10" height="10" fill="rgba(59, 106, 16, 0.0)" />
	<rect x="90" y="30" width="10" height="10" fill="rgba(255, 255, 255, 0.0)" />
	<rect x="100" y="30" width="10" height="10" fill="rgba(255, 255, 255, 0.0)" />
	<rect x="110" y="30" width="10" height="10" fill="rgba(255, 255, 255, 0.0)" />
	<rect x="120" y="30" width="10" height="10" fill="rgba(255, 255, 255, 0.0)" />
	<rect x="130" y="30" width="10" height="10" fill="rgba(255, 255, 255, 0.0)" />
	<rect x="140" y="30" width="10" height="10" fill="rgba(255, 255, 255, 0.0)" />
	<rect x="150" y="30" width="10" height="10" fill="rgba(255, 255, 255, 0.0)" />
	<rect x="0" y="40" width="10" height="10" fill="rgba(255, 255, 255, 0.0)" />
	<rect x="10" y="40" width="10" height="10" fill="rgba(255, 255, 255, 0.0)" />
	<rect x="20" y="40" width="10" height="10" fill="rgba(255, 255, 255, 0.0)" />
	<rect x="30" y="40" width="10" height="10" fill="rgba(255, 255, 255, 0.0)" />
	<rect x="40" y="40" width="10" height="10" fill="rgba(255, 255, 255, 0.0)" />
	<rect x="50" y="40" width="10" height="10" fill="rgba(255, 255, 255, 0.0)" />
	<rect x="60" y="40" width="10" height="10" fill="rgba(255, 255, 255, 0.0)" />
	<rect x="70" y="40" width="10" height="10" fill="rgba(105, 165, 53, 1.0)" />
	<rect x="80" y="40" width="10" height="10" fill="rgba(59, 106, 16, 1.0)" />
	<rect x="90" y="40" width="10" height="10" fill="rgba(59, 105, 15, 0.0)" />
	<rect x="100" y="40" width="10" height="10" fill="rgba(255, 255, 255, 0.0)" />
	<rect x="110" y="40" width="10" height="10" fill="rgba(255, 255, 255, 0.0)" />
	<rect x="120" y="40" width="10" height="10" fill="rgba(255, 255, 255, 0.0)" />
	<rect x="130" y="40" width="10" height="10" fill="rgba(255, 255, 255, 0.0)" />
	<rect x="140" y="40" width="10" height="10" fill="rgba(255, 255, 255, 0.0)" />
	<rect x="150" y="40" width="10" height="10" fill="rgba(255, 255, 255, 0.0)" />
	<rect x="0" y="50" width="10" height="10" fill="rgba(255, 255, 255, 0.0)" />
	<rect x="10" y="50" width="10" height="10" fill="rgba(255, 255, 255, 0.0)" />
	<rect x="20" y="50" width="10" height="10" fill="rgba(255, 255, 255, 0.0)" />
	<rect x="30" y="50" width="10" height="10" fill="rgba(255, 255, 255, 0.0)" />
	<rect x="40" y="50" width="10" height="10" fill="rgba(255, 255, 255, 0.0)" />
	<rect x="50" y="50" width="10" height="10" fill="rgba(255, 255, 255, 0.0)" />
	<rect x="60" y="50" width="10" height="10" fill="rgba(255, 255, 255, 0.0)" />
	<rect x="70" y="50" width="10" height="10" fill="rgba(151, 143, 84, 1.0)" />
	<rect x="80" y="50" width="10" height="10" fill="rgba(78, 148, 13, 1.0)" />
	<rect x="90" y="50" width="10" height="10" fill="rgba(78, 148, 13, 0.0)" />
	<rect x="100" y="50" width="10" height="10" fill="rgba(255, 255, 255, 0.0)" />
	<rect x="110" y="50" width="10" height="10" fill="rgba(255, 255, 255, 0.0)" />
	<rect x="120" y="50" width="10" height="10" fill="rgba(255, 255, 255, 0.0)" />
	<rect x="130" y="50" width="10" height="10" fill="rgba(255, 255, 255, 0.0)" />
	<rect x="140" y="50" width="10" height="10" fill="rgba(255, 255, 255, 0.0)" />
	<rect x="150" y="50" width="10" height="10" fill="rgba(255, 255, 255, 0.0)" />
	<rect x="0" y="60" width="10" height="10" fill="rgba(255, 255, 255, 0.0)" />
	<rect x="10" y="60" width="10" height="10" fill="rgba(255, 255, 255, 0.0)" />
	<rect x="20" y="60" width="10" height="10" fill="rgba(255, 255, 255, 0.0)" />
	<rect x="30" y="60" width="10" height="10" fill="rgba(255, 255, 255, 0.0)" />
	<rect x="40" y="60" width="10" height="10" fill="rgba(255, 255, 255, 0.0)" />
	<rect x="50" y="60" width="10" height="10" fill="rgba(255, 255, 255, 0.0)" />
	<rect x="60" y="60" width="10" height="10" fill="rgba(59, 105, 15, 1.0)" />
	<rect x="70" y="60" width="10" height="10" fill="rgba(86, 63, 31, 1.0)" />
	<rect x="80" y="60" width="10" height="10" fill="rgba(69, 41, 16, 1.0)" />
	<rect x="90" y="60" width="10" height="10" fill="rgba(58, 105, 15, 1.0)" />
	<rect x="100" y="60" width="10" height="10" fill="rgba(58, 105, 15, 0.0)" />
	<rect x="110" y="60" width="10" height="10" fill="rgba(255, 255, 255, 0.0)" />
	<rect x="120" y="60" width="10" height="10" fill="rgba(255, 255, 255, 0.0)" />
	<rect x="130" y="60" width="10" height="10" fill="rgba(255, 255, 255, 0.0)" />
	<rect x="140" y="60" width="10" height="10" fill="rgba(255, 255, 255, 0.0)" />
	<rect x="150" y="60" width="10" height="10" fill="rgba(255, 255, 255, 0.0)" />
	<rect x="0" y="70" width="10" height="10" fill="rgba(255, 255, 255, 0.0)" />
	<rect x="10" y="70" width="10" height="10" fill="rgba(255, 255, 255, 0.0)" />
	<rect x="20" y="70" width="10" height="10" fill="rgba(255, 255, 255, 0.0)" />
	<rect x="30" y="70" width="10" height="10" fill="rgba(255, 255, 255, 0.0)" />
	<rect x="40" y="70" width="10" height="10" fill="rgba(255, 255, 255, 0.0)" />
	<rect x="50" y="70" width="10" height="10" fill="rgba(255, 255, 255, 0.0)" />
	<rect x="60" y="70" width="10" height="10" fill="rgba(78, 148, 13, 1.0)" />
	<rect x="70" y="70" width="10" height="10" fill="rgba(69, 41, 16, 1.0)" />
	<rect x="80" y="70" width="10" height="10" fill="rgba(151, 143, 84, 1.0)" />
	<rect x="90" y="70" width="10" height="10" fill="rgba(58, 105, 15, 1.0)" />
	<rect x="100" y="70" width="10" height="10" fill="rgba(58, 105, 15, 0.0)" />
	<rect x="110" y="70" width="10" height="10" fill="rgba(255, 255, 255, 0.0)" />
	<rect x="120" y="70" width="10" height="10" fill="rgba(255, 255, 255, 0.0)" />
	<rect x="130" y="70" width="10" height="10" fill="rgba(255, 255, 255, 0.0)" />
	<rect x="140" y="70" width="10" height="10" fill="rgba(255, 255, 255, 0.0)" />
	<rect x="150" y="70" width="10" height="10" fill="rgba(255, 255, 255, 0.0)" />
	<rect x="0" y="80" width="10" height="10" fill="rgba(255, 255, 255, 0.0)" />
	<rect x="10" y="80" width="10" height="10" fill="rgba(255, 255, 255, 0.0)" />
	<rect x="20" y="80" width="10" height="10" fill="rgba(255, 255, 255, 0.0)" />
	<rect x="30" y="80" width="10" height="10" fill="rgba(255, 255, 255, 0.0)" />
	<rect x="40" y="80" width="10" height="10" fill="rgba(255, 255, 255, 0.0)" />
	<rect x="50" y="80" width="10" height="10" fill="rgba(255, 255, 255, 0.0)" />
	<rect x="60" y="80" width="10" height="10" fill="rgba(59, 106, 16, 1.0)" />
	<rect x="70" y="80" width="10" height="10" fill="rgba(152, 144, 85, 1.0)" />
	<rect x="80" y="80" width="10" height="10" fill="rgba(101, 92, 30, 1.0)" />
	<rect x="90" y="80" width="10" height="10" fill="rgba(54, 34, 15, 1.0)" />
	<rect x="100" y="80" width="10" height="10" fill="rgba(58, 105, 15, 0.0)" />
	<rect x="110" y="80" width="10" height="10" fill="rgba(255, 255, 255, 0.0)" />
	<rect x="120" y="80" width="10" height="10" fill="rgba(255, 255, 255, 0.0)" />
	<rect x="130" y="80" width="10" height="10" fill="rgba(255, 255, 255, 0.0)" />
	<rect x="140" y="80" width="10" height="10" fill="rgba(255, 255, 255, 0.0)" />
	<rect x="150" y="80" width="10" height="10" fill="rgba(255, 255, 255, 0.0)" />
	<rect x="0" y="90" width="10" height="10" fill="rgba(255, 255, 255, 0.0)" />
	<rect x="10" y="90" width="10" height="10" fill="rgba(255, 255, 255, 0.0)" />
	<rect x="20" y="90" width="10" height="10" fill="rgba(255, 255, 255, 0.0)" />
	<rect x="30" y="90" width="10" height="10" fill="rgba(255, 255, 255, 0.0)" />
	<rect x="40" y="90" width="10" height="10" fill="rgba(255, 255, 255, 0.0)" />
	<rect x="50" y="90" width="10" height="10" fill="rgba(255, 255, 255, 0.0)" />
	<rect x="60" y="90" width="10" height="10" fill="rgba(101, 92, 30, 1.0)" />
	<rect x="70" y="90" width="10" height="10" fill="rgba(101, 92, 30, 1.0)" />
	<rect x="80" y="90" width="10" height="10" fill="rgba(86, 63, 31, 1.0)" />
	<rect x="90" y="90" width="10" height="10" fill="rgba(55, 34, 16, 1.0)" />
	<rect x="100" y="90" width="10" height="10" fill="rgba(255, 255, 255, 0.0)" />
	<rect x="110" y="90" width="10" height="10" fill="rgba(255, 255, 255, 0.0)" />
	<rect x="120" y="90" width="10" height="10" fill="rgba(255, 255, 255, 0.0)" />
	<rect x="130" y="90" width="10" height="10" fill="rgba(255, 255, 255, 0.0)" />
	<rect x="140" y="90" width="10" height="10" fill="rgba(255, 255, 255, 0.0)" />
	<rect x="150" y="90" width="10" height="10" fill="rgba(255, 255, 255, 0.0)" />
	<rect x="0" y="100" width="10" height="10" fill="rgba(255, 255, 255, 0.0)" />
	<rect x="10" y="100" width="10" height="10" fill="rgba(255, 255, 255, 0.0)" />
	<rect x="20" y="100" width="10" height="10" fill="rgba(255, 255, 255, 0.0)" />
	<rect x="30" y="100" width="10" height="10" fill="rgba(255, 255, 255, 0.0)" />
	<rect x="40" y="100" width="10" height="10" fill="rgba(255, 255, 255, 0.0)" />
	<rect x="50" y="100" width="10" height="10" fill="rgba(255, 255, 255, 0.0)" />
	<rect x="60" y="100" width="10" height="10" fill="rgba(54, 34, 15, 1.0)" />
	<rect x="70" y="100" width="10" height="10" fill="rgba(87, 63, 31, 1.0)" />
	<rect x="80" y="100" width="10" height="10" fill="rgba(87, 63, 31, 1.0)" />
	<rect x="90" y="100" width="10" height="10" fill="rgba(125, 117, 59, 1.0)" />
	<rect x="100" y="100" width="10" height="10" fill="rgba(255, 255, 255, 0.0)" />
	<rect x="110" y="100" width="10" height="10" fill="rgba(255, 255, 255, 0.0)" />
	<rect x="120" y="100" width="10" height="10" fill="rgba(255, 255, 255, 0.0)" />
	<rect x="130" y="100" width="10" height="10" fill="rgba(255, 255, 255, 0.0)" />
	<rect x="140" y="100" width="10" height="10" fill="rgba(255, 255, 255, 0.0)" />
	<rect x="150" y="100" width="10" height="10" fill="rgba(255, 255, 255, 0.0)" />
	<rect x="0" y="110" width="10" height="10" fill="rgba(255, 255, 255, 0.0)" />
	<rect x="10" y="110" width="10" height="10" fill="rgba(255, 255, 255, 0.0)" />
	<rect x="20" y="110" width="10" height="10" fill="rgba(255, 255, 255, 0.0)" />
	<rect x="30" y="110" width="10" height="10" fill="rgba(255, 255, 255, 0.0)" />
	<rect x="40" y="110" width="10" height="10" fill="rgba(255, 255, 255, 0.0)" />
	<rect x="50" y="110" width="10" height="10" fill="rgba(101, 92, 30, 1.0)" />
	<rect x="60" y="110" width="10" height="10" fill="rgba(151, 143, 84, 1.0)" />
	<rect x="70" y="110" width="10" height="10" fill="rgba(71, 43, 16, 1.0)" />
	<rect x="80" y="110" width="10" height="10" fill="rgba(151, 144, 85, 1.0)" />
	<rect x="90" y="110" width="10" height="10" fill="rgba(101, 92, 30, 1.0)" />
	<rect x="100" y="110" width="10" height="10" fill="rgba(255, 255, 255, 0.0)" />
	<rect x="110" y="110" width="10" height="10" fill="rgba(255, 255, 255, 0.0)" />
	<rect x="120" y="110" width="10" height="10" fill="rgba(255, 255, 255, 0.0)" />
	<rect x="130" y="110" width="10" height="10" fill="rgba(255, 255, 255, 0.0)" />
	<rect x="140" y="110" width="10" height="10" fill="rgba(255, 255, 255, 0.0)" />
	<rect x="150" y="110" width="10" height="10" fill="rgba(255, 255, 255, 0.0)" />
	<rect x="0" y="120" width="10" height="10" fill="rgba(255, 255, 255, 0.0)" />
	<rect x="10" y="120" width="10" height="10" fill="rgba(255, 255, 255, 0.0)" />
	<rect x="20" y="120" width="10" height="10" fill="rgba(255, 255, 255, 0.0)" />
	<rect x="30" y="120" width="10" height="10" fill="rgba(255, 255, 255, 0.0)" />
	<rect x="40" y="120" width="10" height="10" fill="rgba(255, 255, 255, 0.0)" />
	<rect x="50" y="120" width="10" height="10" fill="rgba(101, 92, 30, 1.0)" />
	<rect x="60" y="120" width="10" height="10" fill="rgba(101, 92, 30, 1.0)" />
	<rect x="70" y="120" width="10" height="10" fill="rgba(151, 143, 84, 1.0)" />
	<rect x="80" y="120" width="10" height="10" fill="rgba(86, 63, 31, 1.0)" />
	<rect x="90" y="120" width="10" height="10" fill="rgba(54, 34, 15, 1.0)" />
	<rect x="100" y="120" width="10" height="10" fill="rgba(151, 143, 84, 1.0)" />
	<rect x="110" y="120" width="10" height="10" fill="rgba(255, 255, 255, 0.0)" />
	<rect x="120" y="120" width="10" height="10" fill="rgba(255, 255, 255, 0.0)" />
	<rect x="130" y="120" width="10" height="10" fill="rgba(255, 255, 255, 0.0)" />
	<rect x="140" y="120" width="10" height="10" fill="rgba(255, 255, 255, 0.0)" />
	<rect x="150" y="120" width="10" height="10" fill="rgba(255, 255, 255, 0.0)" />
	<rect x="0" y="130" width="10" height="10" fill="rgba(255, 255, 255, 0.0)" />
	<rect x="10" y="130" width="10" height="10" fill="rgba(255, 255, 255, 0.0)" />
	<rect x="20" y="130" width="10" height="10" fill="rgba(255, 255, 255, 0.0)" />
	<rect x="30" y="130" width="10" height="10" fill="rgba(255, 255, 255, 0.0)" />
	<rect x="40" y="130" width="10" height="10" fill="rgba(255, 255, 255, 0.0)" />
	<rect x="50" y="130" width="10" height="10" fill="rgba(55, 35, 16, 1.0)" />
	<rect x="60" y="130" width="10" height="10" fill="rgba(87, 64, 31, 1.0)" />
	<rect x="70" y="130" width="10" height="10" fill="rgba(101, 92, 30, 1.0)" />
	<rect x="80" y="130" width="10" height="10" fill="rgba(124, 116, 58, 1.0)" />
	<rect x="90" y="130" width="10" height="10" fill="rgba(151, 144, 85, 1.0)" />
	<rect x="100" y="130" width="10" height="10" fill="rgba(87, 63, 31, 1.0)" />
	<rect x="110" y="130" width="10" height="10" fill="rgba(255, 255, 255, 0.0)" />
	<rect x="120" y="130" width="10" height="10" fill="rgba(255, 255, 255, 0.0)" />
	<rect x="130" y="130" width="10" height="10" fill="rgba(255, 255, 255, 0.0)" />
	<rect x="140" y="130" width="10" height="10" fill="rgba(255, 255, 255, 0.0)" />
	<rect x="150" y="130" width="10" height="10" fill="rgba(255, 255, 255, 0.0)" />
	<rect x="0" y="140" width="10" height="10" fill="rgba(255, 255, 255, 0.0)" />
	<rect x="10" y="140" width="10" height="10" fill="rgba(255, 255, 255, 0.0)" />
	<rect x="20" y="140" width="10" height="10" fill="rgba(255, 255, 255, 0.0)" />
	<rect x="30" y="140" width="10" height="10" fill="rgba(255, 255, 255, 0.0)" />
	<rect x="40" y="140" width="10" height="10" fill="rgba(255, 255, 255, 0.0)" />
	<rect x="50" y="140" width="10" height="10" fill="rgba(54, 34, 15, 1.0)" />
	<rect x="60" y="140" width="10" height="10" fill="rgba(87, 63, 31, 1.0)" />
	<rect x="70" y="140" width="10" height="10" fill="rgba(87, 64, 31, 1.0)" />
	<rect x="80" y="140" width="10" height="10" fill="rgba(151, 143, 84, 1.0)" />
	<rect x="90" y="140" width="10" height="10" fill="rgba(87, 63, 31, 1.0)" />
	<rect x="100" y="140" width="10" height="10" fill="rgba(54, 34, 15, 1.0)" />
	<rect x="110" y="140" width="10" height="10" fill="rgba(255, 255, 255, 0.0)" />
	<rect x="120" y="140" width="10" height="10" fill="rgba(255, 255, 255, 0.0)" />
	<rect x="130" y="140" width="10" height="10" fill="rgba(255, 255, 255, 0.0)" />
	<rect x="140" y="140" width="10" height="10" fill="rgba(255, 255, 255, 0.0)" />
	<rect x="150" y="140" width="10" height="10" fill="rgba(255, 255, 255, 0.0)" />
	<rect x="0" y="150" width="10" height="10" fill="rgba(255, 255, 255, 0.0)" />
	<rect x="10" y="150" width="10" height="10" fill="rgba(255, 255, 255, 0.0)" />
	<rect x="20" y="150" width="10" height="10" fill="rgba(255, 255, 255, 0.0)" />
	<rect x="30" y="150" width="10" height="10" fill="rgba(255, 255, 255, 0.0)" />
	<rect x="40" y="150" width="10" height="10" fill="rgba(255, 255, 255, 0.0)" />
	<rect x="50" y="150" width="10" height="10" fill="rgba(54, 34, 15, 1.0)" />
	<rect x="60" y="150" width="10" height="10" fill="rgba(87, 63, 31, 1.0)" />
	<rect x="70" y="150" width="10" height="10" fill="rgba(151, 143, 84, 1.0)" />
	<rect x="80" y="150" width="10" height="10" fill="rgba(87, 64, 31, 1.0)" />
	<rect x="90" y="150" width="10" height="10" fill="rgba(87, 63, 31, 1.0)" />
	<rect x="100" y="150" width="10" height="10" fill="rgba(55, 35, 16, 1.0)" />
	<rect x="110" y="150" width="10" height="10" fill="rgba(255, 255, 255, 0.0)" />
	<rect x="120" y="150" width="10" height="10" fill="rgba(255, 255, 255, 0.0)" />
	<rect x="130" y="150" width="10" height="10" fill="rgba(255, 255, 255, 0.0)" />
	<rect x="140" y="150" width="10" height="10" fill="rgba(255, 255, 255, 0.0)" />
	<rect x="150" y="150" width="10" height="10" fill="rgba(255, 255, 255, 0.0)" />
</svg>