<svg xmlns="http://www.w3.org/2000/svg" xmlns:xlink="http://www.w3.org/1999/xlink">
	<rect x="0" y="0" width="10" height="10" fill="rgba(18, 21, 25, 1.0)" />
	<rect x="10" y="0" width="10" height="10" fill="rgba(35, 35, 40, 1.0)" />
	<rect x="20" y="0" width="10" height="10" fill="rgba(35, 37, 40, 1.0)" />
	<rect x="30" y="0" width="10" height="10" fill="rgba(41, 41, 45, 1.0)" />
	<rect x="40" y="0" width="10" height="10" fill="rgba(30, 31, 35, 1.0)" />
	<rect x="50" y="0" width="10" height="10" fill="rgba(27, 28, 33, 1.0)" />
	<rect x="60" y="0" width="10" height="10" fill="rgba(19, 22, 28, 1.0)" />
	<rect x="70" y="0" width="10" height="10" fill="rgba(21, 22, 28, 1.0)" />
	<rect x="80" y="0" width="10" height="10" fill="rgba(30, 31, 35, 1.0)" />
	<rect x="90" y="0" width="10" height="10" fill="rgba(27, 28, 33, 1.0)" />
	<rect x="100" y="0" width="10" height="10" fill="rgba(19, 21, 27, 1.0)" />
	<rect x="110" y="0" width="10" height="10" fill="rgba(18, 18, 25, 1.0)" />
	<rect x="120" y="0" width="10" height="10" fill="rgba(44, 44, 48, 1.0)" />
	<rect x="130" y="0" width="10" height="10" fill="rgba(30, 31, 37, 1.0)" />
	<rect x="140" y="0" width="10" height="10" fill="rgba(18, 21, 25, 1.0)" />
	<rect x="150" y="0" width="10" height="10" fill="rgba(19, 22, 27, 1.0)" />
	<rect x="0" y="10" width="10" height="10" fill="rgba(18, 19, 27, 1.0)" />
	<rect x="10" y="10" width="10" height="10" fill="rgba(21, 22, 28, 1.0)" />
	<rect x="20" y="10" width="10" height="10" fill="rgba(25, 27, 31, 1.0)" />
	<rect x="30" y="10" width="10" height="10" fill="rgba(33, 34, 37, 1.0)" />
	<rect x="40" y="10" width="10" height="10" fill="rgba(16, 19, 24, 1.0)" />
	<rect x="50" y="10" width="10" height="10" fill="rgba(25, 25, 31, 1.0)" />
	<rect x="60" y="10" width="10" height="10" fill="rgba(24, 25, 30, 1.0)" />
	<rect x="70" y="10" width="10" height="10" fill="rgba(30, 31, 35, 1.0)" />
	<rect x="80" y="10" width="10" height="10" fill="rgba(34, 35, 38, 1.0)" />
	<rect x="90" y="10" width="10" height="10" fill="rgba(55, 55, 59, 1.0)" />
	<rect x="100" y="10" width="10" height="10" fill="rgba(18, 21, 28, 1.0)" />
	<rect x="110" y="10" width="10" height="10" fill="rgba(25, 27, 31, 1.0)" />
	<rect x="120" y="10" width="10" height="10" fill="rgba(18, 19, 27, 1.0)" />
	<rect x="130" y="10" width="10" height="10" fill="rgba(24, 25, 31, 1.0)" />
	<rect x="140" y="10" width="10" height="10" fill="rgba(21, 22, 30, 1.0)" />
	<rect x="150" y="10" width="10" height="10" fill="rgba(61, 61, 66, 1.0)" />
	<rect x="0" y="20" width="10" height="10" fill="rgba(45, 45, 50, 1.0)" />
	<rect x="10" y="20" width="10" height="10" fill="rgba(43, 43, 47, 1.0)" />
	<rect x="20" y="20" width="10" height="10" fill="rgba(18, 21, 28, 1.0)" />
	<rect x="30" y="20" width="10" height="10" fill="rgba(31, 33, 37, 1.0)" />
	<rect x="40" y="20" width="10" height="10" fill="rgba(38, 38, 43, 1.0)" />
	<rect x="50" y="20" width="10" height="10" fill="rgba(21, 22, 28, 1.0)" />
	<rect x="60" y="20" width="10" height="10" fill="rgba(16, 18, 25, 1.0)" />
	<rect x="70" y="20" width="10" height="10" fill="rgba(30, 30, 35, 1.0)" />
	<rect x="80" y="20" width="10" height="10" fill="rgba(16, 18, 25, 1.0)" />
	<rect x="90" y="20" width="10" height="10" fill="rgba(19, 21, 27, 1.0)" />
	<rect x="100" y="20" width="10" height="10" fill="rgba(35, 35, 40, 1.0)" />
	<rect x="110" y="20" width="10" height="10" fill="rgba(24, 25, 31, 1.0)" />
	<rect x="120" y="20" width="10" height="10" fill="rgba(22, 24, 30, 1.0)" />
	<rect x="130" y="20" width="10" height="10" fill="rgba(19, 21, 27, 1.0)" />
	<rect x="140" y="20" width="10" height="10" fill="rgba(28, 28, 34, 1.0)" />
	<rect x="150" y="20" width="10" height="10" fill="rgba(61, 61, 66, 1.0)" />
	<rect x="0" y="30" width="10" height="10" fill="rgba(15, 18, 24, 1.0)" />
	<rect x="10" y="30" width="10" height="10" fill="rgba(34, 34, 38, 1.0)" />
	<rect x="20" y="30" width="10" height="10" fill="rgba(19, 22, 27, 1.0)" />
	<rect x="30" y="30" width="10" height="10" fill="rgba(18, 19, 27, 1.0)" />
	<rect x="40" y="30" width="10" height="10" fill="rgba(15, 16, 24, 1.0)" />
	<rect x="50" y="30" width="10" height="10" fill="rgba(35, 35, 40, 1.0)" />
	<rect x="60" y="30" width="10" height="10" fill="rgba(24, 24, 28, 1.0)" />
	<rect x="70" y="30" width="10" height="10" fill="rgba(16, 18, 25, 1.0)" />
	<rect x="80" y="30" width="10" height="10" fill="rgba(19, 19, 25, 1.0)" />
	<rect x="90" y="30" width="10" height="10" fill="rgba(24, 25, 30, 1.0)" />
	<rect x="100" y="30" width="10" height="10" fill="rgba(18, 21, 27, 1.0)" />
	<rect x="110" y="30" width="10" height="10" fill="rgba(19, 19, 27, 1.0)" />
	<rect x="120" y="30" width="10" height="10" fill="rgba(24, 25, 31, 1.0)" />
	<rect x="130" y="30" width="10" height="10" fill="rgba(22, 24, 30, 1.0)" />
	<rect x="140" y="30" width="10" height="10" fill="rgba(15, 18, 24, 1.0)" />
	<rect x="150" y="30" width="10" height="10" fill="rgba(31, 31, 35, 1.0)" />
	<rect x="0" y="40" width="10" height="10" fill="rgba(21, 22, 30, 1.0)" />
	<rect x="10" y="40" width="10" height="10" fill="rgba(24, 25, 30, 1.0)" />
	<rect x="20" y="40" width="10" height="10" fill="rgba(22, 24, 30, 1.0)" />
	<rect x="30" y="40" width="10" height="10" fill="rgba(25, 25, 31, 1.0)" />
	<rect x="40" y="40" width="10" height="10" fill="rgba(18, 21, 27, 1.0)" />
	<rect x="50" y="40" width="10" height="10" fill="rgba(28, 30, 34, 1.0)" />
	<rect x="60" y="40" width="10" height="10" fill="rgba(35, 37, 40, 1.0)" />
	<rect x="70" y="40" width="10" height="10" fill="rgba(35, 37, 40, 1.0)" />
	<rect x="80" y="40" width="10" height="10" fill="rgba(21, 24, 28, 1.0)" />
	<rect x="90" y="40" width="10" height="10" fill="rgba(15, 16, 24, 1.0)" />
	<rect x="100" y="40" width="10" height="10" fill="rgba(28, 28, 34, 1.0)" />
	<rect x="110" y="40" width="10" height="10" fill="rgba(31, 33, 37, 1.0)" />
	<rect x="120" y="40" width="10" height="10" fill="rgba(27, 28, 33, 1.0)" />
	<rect x="130" y="40" width="10" height="10" fill="rgba(19, 21, 25, 1.0)" />
	<rect x="140" y="40" width="10" height="10" fill="rgba(18, 21, 27, 1.0)" />
	<rect x="150" y="40" width="10" height="10" fill="rgba(22, 24, 30, 1.0)" />
	<rect x="0" y="50" width="10" height="10" fill="rgba(27, 28, 33, 1.0)" />
	<rect x="10" y="50" width="10" height="10" fill="rgba(16, 18, 24, 1.0)" />
	<rect x="20" y="50" width="10" height="10" fill="rgba(21, 24, 27, 1.0)" />
	<rect x="30" y="50" width="10" height="10" fill="rgba(35, 37, 41, 1.0)" />
	<rect x="40" y="50" width="10" height="10" fill="rgba(45, 45, 50, 1.0)" />
	<rect x="50" y="50" width="10" height="10" fill="rgba(19, 22, 27, 1.0)" />
	<rect x="60" y="50" width="10" height="10" fill="rgba(19, 22, 28, 1.0)" />
	<rect x="70" y="50" width="10" height="10" fill="rgba(28, 30, 34, 1.0)" />
	<rect x="80" y="50" width="10" height="10" fill="rgba(24, 25, 30, 1.0)" />
	<rect x="90" y="50" width="10" height="10" fill="rgba(16, 19, 25, 1.0)" />
	<rect x="100" y="50" width="10" height="10" fill="rgba(28, 30, 34, 1.0)" />
	<rect x="110" y="50" width="10" height="10" fill="rgba(34, 34, 38, 1.0)" />
	<rect x="120" y="50" width="10" height="10" fill="rgba(18, 19, 25, 1.0)" />
	<rect x="130" y="50" width="10" height="10" fill="rgba(37, 37, 41, 1.0)" />
	<rect x="140" y="50" width="10" height="10" fill="rgba(25, 27, 31, 1.0)" />
	<rect x="150" y="50" width="10" height="10" fill="rgba(25, 27, 31, 1.0)" />
	<rect x="0" y="60" width="10" height="10" fill="rgba(22, 22, 28, 1.0)" />
	<rect x="10" y="60" width="10" height="10" fill="rgba(22, 24, 31, 1.0)" />
	<rect x="20" y="60" width="10" height="10" fill="rgba(19, 22, 27, 1.0)" />
	<rect x="30" y="60" width="10" height="10" fill="rgba(21, 22, 28, 1.0)" />
	<rect x="40" y="60" width="10" height="10" fill="rgba(33, 33, 37, 1.0)" />
	<rect x="50" y="60" width="10" height="10" fill="rgba(22, 25, 31, 1.0)" />
	<rect x="60" y="60" width="10" height="10" fill="rgba(25, 27, 31, 1.0)" />
	<rect x="70" y="60" width="10" height="10" fill="rgba(18, 19, 25, 1.0)" />
	<rect x="80" y="60" width="10" height="10" fill="rgba(27, 27, 31, 1.0)" />
	<rect x="90" y="60" width="10" height="10" fill="rgba(30, 30, 35, 1.0)" />
	<rect x="100" y="60" width="10" height="10" fill="rgba(18, 21, 27, 1.0)" />
	<rect x="110" y="60" width="10" height="10" fill="rgba(16, 19, 25, 1.0)" />
	<rect x="120" y="60" width="10" height="10" fill="rgba(25, 27, 31, 1.0)" />
	<rect x="130" y="60" width="10" height="10" fill="rgba(33, 34, 37, 1.0)" />
	<rect x="140" y="60" width="10" height="10" fill="rgba(22, 24, 30, 1.0)" />
	<rect x="150" y="60" width="10" height="10" fill="rgba(16, 18, 25, 1.0)" />
	<rect x="0" y="70" width="10" height="10" fill="rgba(16, 18, 24, 1.0)" />
	<rect x="10" y="70" width="10" height="10" fill="rgba(40, 40, 44, 1.0)" />
	<rect x="20" y="70" width="10" height="10" fill="rgba(25, 27, 31, 1.0)" />
	<rect x="30" y="70" width="10" height="10" fill="rgba(22, 24, 30, 1.0)" />
	<rect x="40" y="70" width="10" height="10" fill="rgba(28, 30, 34, 1.0)" />
	<rect x="50" y="70" width="10" height="10" fill="rgba(34, 35, 38, 1.0)" />
	<rect x="60" y="70" width="10" height="10" fill="rgba(22, 24, 31, 1.0)" />
	<rect x="70" y="70" width="10" height="10" fill="rgba(19, 22, 30, 1.0)" />
	<rect x="80" y="70" width="10" height="10" fill="rgba(30, 30, 35, 1.0)" />
	<rect x="90" y="70" width="10" height="10" fill="rgba(16, 18, 25, 1.0)" />
	<rect x="100" y="70" width="10" height="10" fill="rgba(16, 18, 25, 1.0)" />
	<rect x="110" y="70" width="10" height="10" fill="rgba(33, 33, 37, 1.0)" />
	<rect x="120" y="70" width="10" height="10" fill="rgba(30, 30, 35, 1.0)" />
	<rect x="130" y="70" width="10" height="10" fill="rgba(24, 25, 31, 1.0)" />
	<rect x="140" y="70" width="10" height="10" fill="rgba(21, 22, 30, 1.0)" />
	<rect x="150" y="70" width="10" height="10" fill="rgba(18, 21, 27, 1.0)" />
	<rect x="0" y="80" width="10" height="10" fill="rgba(18, 19, 27, 1.0)" />
	<rect x="10" y="80" width="10" height="10" fill="rgba(37, 37, 41, 1.0)" />
	<rect x="20" y="80" width="10" height="10" fill="rgba(35, 35, 40, 1.0)" />
	<rect x="30" y="80" width="10" height="10" fill="rgba(38, 38, 43, 1.0)" />
	<rect x="40" y="80" width="10" height="10" fill="rgba(22, 25, 31, 1.0)" />
	<rect x="50" y="80" width="10" height="10" fill="rgba(28, 30, 34, 1.0)" />
	<rect x="60" y="80" width="10" height="10" fill="rgba(30, 31, 35, 1.0)" />
	<rect x="70" y="80" width="10" height="10" fill="rgba(19, 21, 28, 1.0)" />
	<rect x="80" y="80" width="10" height="10" fill="rgba(28, 30, 34, 1.0)" />
	<rect x="90" y="80" width="10" height="10" fill="rgba(21, 22, 30, 1.0)" />
	<rect x="100" y="80" width="10" height="10" fill="rgba(18, 21, 25, 1.0)" />
	<rect x="110" y="80" width="10" height="10" fill="rgba(33, 33, 37, 1.0)" />
	<rect x="120" y="80" width="10" height="10" fill="rgba(31, 33, 37, 1.0)" />
	<rect x="130" y="80" width="10" height="10" fill="rgba(25, 27, 31, 1.0)" />
	<rect x="140" y="80" width="10" height="10" fill="rgba(16, 18, 24, 1.0)" />
	<rect x="150" y="80" width="10" height="10" fill="rgba(43, 43, 47, 1.0)" />
	<rect x="0" y="90" width="10" height="10" fill="rgba(21, 21, 27, 1.0)" />
	<rect x="10" y="90" width="10" height="10" fill="rgba(28, 30, 34, 1.0)" />
	<rect x="20" y="90" width="10" height="10" fill="rgba(28, 30, 34, 1.0)" />
	<rect x="30" y="90" width="10" height="10" fill="rgba(16, 19, 27, 1.0)" />
	<rect x="40" y="90" width="10" height="10" fill="rgba(19, 21, 27, 1.0)" />
	<rect x="50" y="90" width="10" height="10" fill="rgba(16, 18, 25, 1.0)" />
	<rect x="60" y="90" width="10" height="10" fill="rgba(15, 16, 24, 1.0)" />
	<rect x="70" y="90" width="10" height="10" fill="rgba(22, 24, 28, 1.0)" />
	<rect x="80" y="90" width="10" height="10" fill="rgba(22, 24, 30, 1.0)" />
	<rect x="90" y="90" width="10" height="10" fill="rgba(15, 18, 24, 1.0)" />
	<rect x="100" y="90" width="10" height="10" fill="rgba(16, 18, 25, 1.0)" />
	<rect x="110" y="90" width="10" height="10" fill="rgba(21, 22, 28, 1.0)" />
	<rect x="120" y="90" width="10" height="10" fill="rgba(34, 34, 38, 1.0)" />
	<rect x="130" y="90" width="10" height="10" fill="rgba(35, 37, 40, 1.0)" />
	<rect x="140" y="90" width="10" height="10" fill="rgba(27, 27, 31, 1.0)" />
	<rect x="150" y="90" width="10" height="10" fill="rgba(38, 38, 43, 1.0)" />
	<rect x="0" y="100" width="10" height="10" fill="rgba(18, 19, 27, 1.0)" />
	<rect x="10" y="100" width="10" height="10" fill="rgba(25, 27, 31, 1.0)" />
	<rect x="20" y="100" width="10" height="10" fill="rgba(18, 18, 24, 1.0)" />
	<rect x="30" y="100" width="10" height="10" fill="rgba(21, 21, 28, 1.0)" />
	<rect x="40" y="100" width="10" height="10" fill="rgba(18, 19, 25, 1.0)" />
	<rect x="50" y="100" width="10" height="10" fill="rgba(18, 19, 25, 1.0)" />
	<rect x="60" y="100" width="10" height="10" fill="rgba(19, 22, 27, 1.0)" />
	<rect x="70" y="100" width="10" height="10" fill="rgba(37, 37, 41, 1.0)" />
	<rect x="80" y="100" width="10" height="10" fill="rgba(19, 22, 27, 1.0)" />
	<rect x="90" y="100" width="10" height="10" fill="rgba(18, 19, 25, 1.0)" />
	<rect x="100" y="100" width="10" height="10" fill="rgba(30, 31, 35, 1.0)" />
	<rect x="110" y="100" width="10" height="10" fill="rgba(21, 22, 28, 1.0)" />
	<rect x="120" y="100" width="10" height="10" fill="rgba(18, 21, 27, 1.0)" />
	<rect x="130" y="100" width="10" height="10" fill="rgba(18, 21, 27, 1.0)" />
	<rect x="140" y="100" width="10" height="10" fill="rgba(21, 24, 28, 1.0)" />
	<rect x="150" y="100" width="10" height="10" fill="rgba(28, 30, 34, 1.0)" />
	<rect x="0" y="110" width="10" height="10" fill="rgba(25, 27, 31, 1.0)" />
	<rect x="10" y="110" width="10" height="10" fill="rgba(30, 31, 35, 1.0)" />
	<rect x="20" y="110" width="10" height="10" fill="rgba(18, 21, 25, 1.0)" />
	<rect x="30" y="110" width="10" height="10" fill="rgba(25, 27, 31, 1.0)" />
	<rect x="40" y="110" width="10" height="10" fill="rgba(21, 22, 30, 1.0)" />
	<rect x="50" y="110" width="10" height="10" fill="rgba(19, 22, 27, 1.0)" />
	<rect x="60" y="110" width="10" height="10" fill="rgba(21, 24, 28, 1.0)" />
	<rect x="70" y="110" width="10" height="10" fill="rgba(18, 21, 27, 1.0)" />
	<rect x="80" y="110" width="10" height="10" fill="rgba(34, 34, 38, 1.0)" />
	<rect x="90" y="110" width="10" height="10" fill="rgba(35, 35, 40, 1.0)" />
	<rect x="100" y="110" width="10" height="10" fill="rgba(34, 35, 40, 1.0)" />
	<rect x="110" y="110" width="10" height="10" fill="rgba(31, 33, 37, 1.0)" />
	<rect x="120" y="110" width="10" height="10" fill="rgba(31, 33, 37, 1.0)" />
	<rect x="130" y="110" width="10" height="10" fill="rgba(27, 28, 33, 1.0)" />
	<rect x="140" y="110" width="10" height="10" fill="rgba(28, 28, 34, 1.0)" />
	<rect x="150" y="110" width="10" height="10" fill="rgba(14, 16, 21, 1.0)" />
	<rect x="0" y="120" width="10" height="10" fill="rgba(21, 24, 28, 1.0)" />
	<rect x="10" y="120" width="10" height="10" fill="rgba(22, 24, 30, 1.0)" />
	<rect x="20" y="120" width="10" height="10" fill="rgba(31, 31, 37, 1.0)" />
	<rect x="30" y="120" width="10" height="10" fill="rgba(19, 21, 27, 1.0)" />
	<rect x="40" y="120" width="10" height="10" fill="rgba(35, 35, 40, 1.0)" />
	<rect x="50" y="120" width="10" height="10" fill="rgba(18, 21, 25, 1.0)" />
	<rect x="60" y="120" width="10" height="10" fill="rgba(59, 59, 65, 1.0)" />
	<rect x="70" y="120" width="10" height="10" fill="rgba(34, 34, 38, 1.0)" />
	<rect x="80" y="120" width="10" height="10" fill="rgba(21, 22, 28, 1.0)" />
	<rect x="90" y="120" width="10" height="10" fill="rgba(22, 25, 30, 1.0)" />
	<rect x="100" y="120" width="10" height="10" fill="rgba(30, 31, 35, 1.0)" />
	<rect x="110" y="120" width="10" height="10" fill="rgba(18, 21, 27, 1.0)" />
	<rect x="120" y="120" width="10" height="10" fill="rgba(28, 30, 34, 1.0)" />
	<rect x="130" y="120" width="10" height="10" fill="rgba(25, 27, 31, 1.0)" />
	<rect x="140" y="120" width="10" height="10" fill="rgba(21, 24, 27, 1.0)" />
	<rect x="150" y="120" width="10" height="10" fill="rgba(16, 19, 25, 1.0)" />
	<rect x="0" y="130" width="10" height="10" fill="rgba(27, 28, 33, 1.0)" />
	<rect x="10" y="130" width="10" height="10" fill="rgba(30, 31, 35, 1.0)" />
	<rect x="20" y="130" width="10" height="10" fill="rgba(37, 37, 41, 1.0)" />
	<rect x="30" y="130" width="10" height="10" fill="rgba(34, 34, 38, 1.0)" />
	<rect x="40" y="130" width="10" height="10" fill="rgba(52, 52, 58, 1.0)" />
	<rect x="50" y="130" width="10" height="10" fill="rgba(33, 33, 37, 1.0)" />
	<rect x="60" y="130" width="10" height="10" fill="rgba(24, 25, 30, 1.0)" />
	<rect x="70" y="130" width="10" height="10" fill="rgba(38, 38, 43, 1.0)" />
	<rect x="80" y="130" width="10" height="10" fill="rgba(37, 37, 41, 1.0)" />
	<rect x="90" y="130" width="10" height="10" fill="rgba(24, 25, 31, 1.0)" />
	<rect x="100" y="130" width="10" height="10" fill="rgba(27, 28, 33, 1.0)" />
	<rect x="110" y="130" width="10" height="10" fill="rgba(34, 35, 38, 1.0)" />
	<rect x="120" y="130" width="10" height="10" fill="rgba(19, 22, 28, 1.0)" />
	<rect x="130" y="130" width="10" height="10" fill="rgba(18, 21, 27, 1.0)" />
	<rect x="140" y="130" width="10" height="10" fill="rgba(27, 28, 33, 1.0)" />
	<rect x="150" y="130" width="10" height="10" fill="rgba(16, 19, 27, 1.0)" />
	<rect x="0" y="140" width="10" height="10" fill="rgba(16, 19, 25, 1.0)" />
	<rect x="10" y="140" width="10" height="10" fill="rgba(18, 18, 25, 1.0)" />
	<rect x="20" y="140" width="10" height="10" fill="rgba(15, 16, 24, 1.0)" />
	<rect x="30" y="140" width="10" height="10" fill="rgba(24, 24, 30, 1.0)" />
	<rect x="40" y="140" width="10" height="10" fill="rgba(19, 22, 28, 1.0)" />
	<rect x="50" y="140" width="10" height="10" fill="rgba(30, 30, 35, 1.0)" />
	<rect x="60" y="140" width="10" height="10" fill="rgba(28, 30, 34, 1.0)" />
	<rect x="70" y="140" width="10" height="10" fill="rgba(28, 30, 34, 1.0)" />
	<rect x="80" y="140" width="10" height="10" fill="rgba(34, 35, 38, 1.0)" />
	<rect x="90" y="140" width="10" height="10" fill="rgba(38, 40, 44, 1.0)" />
	<rect x="100" y="140" width="10" height="10" fill="rgba(19, 19, 25, 1.0)" />
	<rect x="110" y="140" width="10" height="10" fill="rgba(24, 25, 30, 1.0)" />
	<rect x="120" y="140" width="10" height="10" fill="rgba(19, 22, 28, 1.0)" />
	<rect x="130" y="140" width="10" height="10" fill="rgba(18, 19, 25, 1.0)" />
	<rect x="140" y="140" width="10" height="10" fill="rgba(25, 27, 31, 1.0)" />
	<rect x="150" y="140" width="10" height="10" fill="rgba(33, 34, 37, 1.0)" />
	<rect x="0" y="150" width="10" height="10" fill="rgba(28, 30, 34, 1.0)" />
	<rect x="10" y="150" width="10" height="10" fill="rgba(16, 19, 25, 1.0)" />
	<rect x="20" y="150" width="10" height="10" fill="rgba(22, 24, 30, 1.0)" />
	<rect x="30" y="150" width="10" height="10" fill="rgba(15, 18, 22, 1.0)" />
	<rect x="40" y="150" width="10" height="10" fill="rgba(27, 28, 34, 1.0)" />
	<rect x="50" y="150" width="10" height="10" fill="rgba(31, 33, 37, 1.0)" />
	<rect x="60" y="150" width="10" height="10" fill="rgba(18, 21, 25, 1.0)" />
	<rect x="70" y="150" width="10" height="10" fill="rgba(19, 22, 27, 1.0)" />
	<rect x="80" y="150" width="10" height="10" fill="rgba(16, 18, 25, 1.0)" />
	<rect x="90" y="150" width="10" height="10" fill="rgba(28, 30, 34, 1.0)" />
	<rect x="100" y="150" width="10" height="10" fill="rgba(27, 28, 33, 1.0)" />
	<rect x="110" y="150" width="10" height="10" fill="rgba(30, 30, 34, 1.0)" />
	<rect x="120" y="150" width="10" height="10" fill="rgba(18, 19, 27, 1.0)" />
	<rect x="130" y="150" width="10" height="10" fill="rgba(18, 18, 25, 1.0)" />
	<rect x="140" y="150" width="10" height="10" fill="rgba(24, 25, 30, 1.0)" />
	<rect x="150" y="150" width="10" height="10" fill="rgba(19, 21, 25, 1.0)" />
</svg>