<svg xmlns="http://www.w3.org/2000/svg" xmlns:xlink="http://www.w3.org/1999/xlink">
	<rect x="0" y="0" width="10" height="10" fill="rgba(63, 65, 154, 1.0)" />
	<rect x="10" y="0" width="10" height="10" fill="rgba(77, 81, 175, 1.0)" />
	<rect x="20" y="0" width="10" height="10" fill="rgba(80, 83, 178, 1.0)" />
	<rect x="30" y="0" width="10" height="10" fill="rgba(77, 81, 175, 1.0)" />
	<rect x="40" y="0" width="10" height="10" fill="rgba(76, 80, 176, 1.0)" />
	<rect x="50" y="0" width="10" height="10" fill="rgba(74, 78, 171, 1.0)" />
	<rect x="60" y="0" width="10" height="10" fill="rgba(67, 70, 163, 1.0)" />
	<rect x="70" y="0" width="10" height="10" fill="rgba(69, 72, 165, 1.0)" />
	<rect x="80" y="0" width="10" height="10" fill="rgba(65, 67, 162, 1.0)" />
	<rect x="90" y="0" width="10" height="10" fill="rgba(65, 67, 161, 1.0)" />
	<rect x="100" y="0" width="10" height="10" fill="rgba(74, 78, 171, 1.0)" />
	<rect x="110" y="0" width="10" height="10" fill="rgba(66, 70, 164, 1.0)" />
	<rect x="120" y="0" width="10" height="10" fill="rgba(78, 83, 178, 1.0)" />
	<rect x="130" y="0" width="10" height="10" fill="rgba(85, 90, 191, 1.0)" />
	<rect x="140" y="0" width="10" height="10" fill="rgba(62, 65, 154, 1.0)" />
	<rect x="150" y="0" width="10" height="10" fill="rgba(66, 69, 161, 1.0)" />
	<rect x="0" y="10" width="10" height="10" fill="rgba(65, 67, 162, 1.0)" />
	<rect x="10" y="10" width="10" height="10" fill="rgba(73, 77, 170, 1.0)" />
	<rect x="20" y="10" width="10" height="10" fill="rgba(77, 80, 175, 1.0)" />
	<rect x="30" y="10" width="10" height="10" fill="rgba(66, 69, 164, 1.0)" />
	<rect x="40" y="10" width="10" height="10" fill="rgba(66, 69, 157, 1.0)" />
	<rect x="50" y="10" width="10" height="10" fill="rgba(65, 66, 158, 1.0)" />
	<rect x="60" y="10" width="10" height="10" fill="rgba(62, 65, 155, 1.0)" />
	<rect x="70" y="10" width="10" height="10" fill="rgba(70, 73, 165, 1.0)" />
	<rect x="80" y="10" width="10" height="10" fill="rgba(74, 77, 174, 1.0)" />
	<rect x="90" y="10" width="10" height="10" fill="rgba(73, 76, 171, 1.0)" />
	<rect x="100" y="10" width="10" height="10" fill="rgba(86, 90, 195, 1.0)" />
	<rect x="110" y="10" width="10" height="10" fill="rgba(65, 67, 161, 1.0)" />
	<rect x="120" y="10" width="10" height="10" fill="rgba(66, 70, 164, 1.0)" />
	<rect x="130" y="10" width="10" height="10" fill="rgba(73, 77, 169, 1.0)" />
	<rect x="140" y="10" width="10" height="10" fill="rgba(78, 82, 177, 1.0)" />
	<rect x="150" y="10" width="10" height="10" fill="rgba(65, 66, 163, 1.0)" />
	<rect x="0" y="20" width="10" height="10" fill="rgba(70, 73, 167, 1.0)" />
	<rect x="10" y="20" width="10" height="10" fill="rgba(80, 85, 182, 1.0)" />
	<rect x="20" y="20" width="10" height="10" fill="rgba(70, 73, 172, 1.0)" />
	<rect x="30" y="20" width="10" height="10" fill="rgba(65, 66, 158, 1.0)" />
	<rect x="40" y="20" width="10" height="10" fill="rgba(65, 67, 159, 1.0)" />
	<rect x="50" y="20" width="10" height="10" fill="rgba(63, 66, 156, 1.0)" />
	<rect x="60" y="20" width="10" height="10" fill="rgba(80, 85, 179, 1.0)" />
	<rect x="70" y="20" width="10" height="10" fill="rgba(69, 72, 165, 1.0)" />
	<rect x="80" y="20" width="10" height="10" fill="rgba(67, 72, 164, 1.0)" />
	<rect x="90" y="20" width="10" height="10" fill="rgba(73, 76, 170, 1.0)" />
	<rect x="100" y="20" width="10" height="10" fill="rgba(77, 81, 178, 1.0)" />
	<rect x="110" y="20" width="10" height="10" fill="rgba(69, 72, 167, 1.0)" />
	<rect x="120" y="20" width="10" height="10" fill="rgba(66, 69, 161, 1.0)" />
	<rect x="130" y="20" width="10" height="10" fill="rgba(72, 74, 166, 1.0)" />
	<rect x="140" y="20" width="10" height="10" fill="rgba(65, 66, 158, 1.0)" />
	<rect x="150" y="20" width="10" height="10" fill="rgba(69, 72, 170, 1.0)" />
	<rect x="0" y="30" width="10" height="10" fill="rgba(70, 73, 164, 1.0)" />
	<rect x="10" y="30" width="10" height="10" fill="rgba(70, 73, 166, 1.0)" />
	<rect x="20" y="30" width="10" height="10" fill="rgba(73, 77, 169, 1.0)" />
	<rect x="30" y="30" width="10" height="10" fill="rgba(66, 70, 163, 1.0)" />
	<rect x="40" y="30" width="10" height="10" fill="rgba(63, 65, 155, 1.0)" />
	<rect x="50" y="30" width="10" height="10" fill="rgba(66, 69, 164, 1.0)" />
	<rect x="60" y="30" width="10" height="10" fill="rgba(73, 76, 167, 1.0)" />
	<rect x="70" y="30" width="10" height="10" fill="rgba(70, 73, 167, 1.0)" />
	<rect x="80" y="30" width="10" height="10" fill="rgba(61, 62, 147, 1.0)" />
	<rect x="90" y="30" width="10" height="10" fill="rgba(69, 72, 165, 1.0)" />
	<rect x="100" y="30" width="10" height="10" fill="rgba(74, 78, 170, 1.0)" />
	<rect x="110" y="30" width="10" height="10" fill="rgba(69, 73, 167, 1.0)" />
	<rect x="120" y="30" width="10" height="10" fill="rgba(77, 80, 176, 1.0)" />
	<rect x="130" y="30" width="10" height="10" fill="rgba(72, 74, 170, 1.0)" />
	<rect x="140" y="30" width="10" height="10" fill="rgba(67, 70, 164, 1.0)" />
	<rect x="150" y="30" width="10" height="10" fill="rgba(72, 76, 163, 1.0)" />
	<rect x="0" y="40" width="10" height="10" fill="rgba(67, 70, 165, 1.0)" />
	<rect x="10" y="40" width="10" height="10" fill="rgba(72, 74, 167, 1.0)" />
	<rect x="20" y="40" width="10" height="10" fill="rgba(66, 69, 164, 1.0)" />
	<rect x="30" y="40" width="10" height="10" fill="rgba(69, 70, 164, 1.0)" />
	<rect x="40" y="40" width="10" height="10" fill="rgba(67, 70, 166, 1.0)" />
	<rect x="50" y="40" width="10" height="10" fill="rgba(66, 69, 164, 1.0)" />
	<rect x="60" y="40" width="10" height="10" fill="rgba(70, 73, 168, 1.0)" />
	<rect x="70" y="40" width="10" height="10" fill="rgba(69, 72, 168, 1.0)" />
	<rect x="80" y="40" width="10" height="10" fill="rgba(74, 78, 170, 1.0)" />
	<rect x="90" y="40" width="10" height="10" fill="rgba(62, 63, 154, 1.0)" />
	<rect x="100" y="40" width="10" height="10" fill="rgba(63, 66, 157, 1.0)" />
	<rect x="110" y="40" width="10" height="10" fill="rgba(70, 74, 169, 1.0)" />
	<rect x="120" y="40" width="10" height="10" fill="rgba(69, 70, 163, 1.0)" />
	<rect x="130" y="40" width="10" height="10" fill="rgba(63, 66, 154, 1.0)" />
	<rect x="140" y="40" width="10" height="10" fill="rgba(82, 87, 185, 1.0)" />
	<rect x="150" y="40" width="10" height="10" fill="rgba(74, 77, 168, 1.0)" />
	<rect x="0" y="50" width="10" height="10" fill="rgba(67, 70, 159, 1.0)" />
	<rect x="10" y="50" width="10" height="10" fill="rgba(65, 67, 162, 1.0)" />
	<rect x="20" y="50" width="10" height="10" fill="rgba(67, 70, 162, 1.0)" />
	<rect x="30" y="50" width="10" height="10" fill="rgba(72, 74, 180, 1.0)" />
	<rect x="40" y="50" width="10" height="10" fill="rgba(73, 76, 168, 1.0)" />
	<rect x="50" y="50" width="10" height="10" fill="rgba(73, 76, 171, 1.0)" />
	<rect x="60" y="50" width="10" height="10" fill="rgba(65, 69, 163, 1.0)" />
	<rect x="70" y="50" width="10" height="10" fill="rgba(65, 66, 162, 1.0)" />
	<rect x="80" y="50" width="10" height="10" fill="rgba(66, 67, 159, 1.0)" />
	<rect x="90" y="50" width="10" height="10" fill="rgba(80, 85, 184, 1.0)" />
	<rect x="100" y="50" width="10" height="10" fill="rgba(76, 78, 171, 1.0)" />
	<rect x="110" y="50" width="10" height="10" fill="rgba(63, 65, 154, 1.0)" />
	<rect x="120" y="50" width="10" height="10" fill="rgba(62, 63, 155, 1.0)" />
	<rect x="130" y="50" width="10" height="10" fill="rgba(72, 74, 166, 1.0)" />
	<rect x="140" y="50" width="10" height="10" fill="rgba(81, 86, 180, 1.0)" />
	<rect x="150" y="50" width="10" height="10" fill="rgba(61, 62, 152, 1.0)" />
	<rect x="0" y="60" width="10" height="10" fill="rgba(70, 73, 161, 1.0)" />
	<rect x="10" y="60" width="10" height="10" fill="rgba(80, 83, 180, 1.0)" />
	<rect x="20" y="60" width="10" height="10" fill="rgba(69, 70, 161, 1.0)" />
	<rect x="30" y="60" width="10" height="10" fill="rgba(80, 85, 179, 1.0)" />
	<rect x="40" y="60" width="10" height="10" fill="rgba(61, 63, 152, 1.0)" />
	<rect x="50" y="60" width="10" height="10" fill="rgba(66, 67, 163, 1.0)" />
	<rect x="60" y="60" width="10" height="10" fill="rgba(67, 69, 162, 1.0)" />
	<rect x="70" y="60" width="10" height="10" fill="rgba(74, 77, 169, 1.0)" />
	<rect x="80" y="60" width="10" height="10" fill="rgba(72, 74, 168, 1.0)" />
	<rect x="90" y="60" width="10" height="10" fill="rgba(66, 67, 161, 1.0)" />
	<rect x="100" y="60" width="10" height="10" fill="rgba(77, 80, 177, 1.0)" />
	<rect x="110" y="60" width="10" height="10" fill="rgba(89, 96, 197, 1.0)" />
	<rect x="120" y="60" width="10" height="10" fill="rgba(74, 77, 170, 1.0)" />
	<rect x="130" y="60" width="10" height="10" fill="rgba(74, 77, 172, 1.0)" />
	<rect x="140" y="60" width="10" height="10" fill="rgba(69, 72, 165, 1.0)" />
	<rect x="150" y="60" width="10" height="10" fill="rgba(69, 72, 165, 1.0)" />
	<rect x="0" y="70" width="10" height="10" fill="rgba(72, 74, 167, 1.0)" />
	<rect x="10" y="70" width="10" height="10" fill="rgba(73, 77, 169, 1.0)" />
	<rect x="20" y="70" width="10" height="10" fill="rgba(76, 80, 177, 1.0)" />
	<rect x="30" y="70" width="10" height="10" fill="rgba(66, 69, 161, 1.0)" />
	<rect x="40" y="70" width="10" height="10" fill="rgba(66, 69, 163, 1.0)" />
	<rect x="50" y="70" width="10" height="10" fill="rgba(63, 65, 157, 1.0)" />
	<rect x="60" y="70" width="10" height="10" fill="rgba(69, 72, 166, 1.0)" />
	<rect x="70" y="70" width="10" height="10" fill="rgba(73, 77, 177, 1.0)" />
	<rect x="80" y="70" width="10" height="10" fill="rgba(70, 73, 167, 1.0)" />
	<rect x="90" y="70" width="10" height="10" fill="rgba(62, 65, 156, 1.0)" />
	<rect x="100" y="70" width="10" height="10" fill="rgba(66, 67, 161, 1.0)" />
	<rect x="110" y="70" width="10" height="10" fill="rgba(66, 69, 161, 1.0)" />
	<rect x="120" y="70" width="10" height="10" fill="rgba(70, 73, 167, 1.0)" />
	<rect x="130" y="70" width="10" height="10" fill="rgba(80, 83, 180, 1.0)" />
	<rect x="140" y="70" width="10" height="10" fill="rgba(83, 89, 189, 1.0)" />
	<rect x="150" y="70" width="10" height="10" fill="rgba(76, 78, 175, 1.0)" />
	<rect x="0" y="80" width="10" height="10" fill="rgba(72, 74, 168, 1.0)" />
	<rect x="10" y="80" width="10" height="10" fill="rgba(65, 67, 162, 1.0)" />
	<rect x="20" y="80" width="10" height="10" fill="rgba(77, 81, 179, 1.0)" />
	<rect x="30" y="80" width="10" height="10" fill="rgba(76, 77, 174, 1.0)" />
	<rect x="40" y="80" width="10" height="10" fill="rgba(81, 87, 183, 1.0)" />
	<rect x="50" y="80" width="10" height="10" fill="rgba(66, 69, 162, 1.0)" />
	<rect x="60" y="80" width="10" height="10" fill="rgba(72, 74, 171, 1.0)" />
	<rect x="70" y="80" width="10" height="10" fill="rgba(69, 72, 166, 1.0)" />
	<rect x="80" y="80" width="10" height="10" fill="rgba(62, 65, 156, 1.0)" />
	<rect x="90" y="80" width="10" height="10" fill="rgba(72, 74, 177, 1.0)" />
	<rect x="100" y="80" width="10" height="10" fill="rgba(65, 69, 156, 1.0)" />
	<rect x="110" y="80" width="10" height="10" fill="rgba(66, 69, 162, 1.0)" />
	<rect x="120" y="80" width="10" height="10" fill="rgba(69, 70, 163, 1.0)" />
	<rect x="130" y="80" width="10" height="10" fill="rgba(72, 74, 168, 1.0)" />
	<rect x="140" y="80" width="10" height="10" fill="rgba(66, 69, 163, 1.0)" />
	<rect x="150" y="80" width="10" height="10" fill="rgba(69, 72, 165, 1.0)" />
	<rect x="0" y="90" width="10" height="10" fill="rgba(58, 61, 149, 1.0)" />
	<rect x="10" y="90" width="10" height="10" fill="rgba(80, 83, 177, 1.0)" />
	<rect x="20" y="90" width="10" height="10" fill="rgba(67, 70, 165, 1.0)" />
	<rect x="30" y="90" width="10" height="10" fill="rgba(74, 78, 171, 1.0)" />
	<rect x="40" y="90" width="10" height="10" fill="rgba(81, 87, 180, 1.0)" />
	<rect x="50" y="90" width="10" height="10" fill="rgba(81, 86, 180, 1.0)" />
	<rect x="60" y="90" width="10" height="10" fill="rgba(63, 65, 157, 1.0)" />
	<rect x="70" y="90" width="10" height="10" fill="rgba(73, 76, 169, 1.0)" />
	<rect x="80" y="90" width="10" height="10" fill="rgba(76, 80, 172, 1.0)" />
	<rect x="90" y="90" width="10" height="10" fill="rgba(66, 69, 162, 1.0)" />
	<rect x="100" y="90" width="10" height="10" fill="rgba(74, 77, 170, 1.0)" />
	<rect x="110" y="90" width="10" height="10" fill="rgba(70, 73, 170, 1.0)" />
	<rect x="120" y="90" width="10" height="10" fill="rgba(74, 78, 171, 1.0)" />
	<rect x="130" y="90" width="10" height="10" fill="rgba(73, 76, 171, 1.0)" />
	<rect x="140" y="90" width="10" height="10" fill="rgba(65, 67, 159, 1.0)" />
	<rect x="150" y="90" width="10" height="10" fill="rgba(73, 76, 172, 1.0)" />
	<rect x="0" y="100" width="10" height="10" fill="rgba(73, 76, 169, 1.0)" />
	<rect x="10" y="100" width="10" height="10" fill="rgba(73, 76, 169, 1.0)" />
	<rect x="20" y="100" width="10" height="10" fill="rgba(55, 57, 140, 1.0)" />
	<rect x="30" y="100" width="10" height="10" fill="rgba(69, 72, 167, 1.0)" />
	<rect x="40" y="100" width="10" height="10" fill="rgba(74, 80, 169, 1.0)" />
	<rect x="50" y="100" width="10" height="10" fill="rgba(69, 72, 169, 1.0)" />
	<rect x="60" y="100" width="10" height="10" fill="rgba(72, 73, 166, 1.0)" />
	<rect x="70" y="100" width="10" height="10" fill="rgba(63, 66, 161, 1.0)" />
	<rect x="80" y="100" width="10" height="10" fill="rgba(78, 82, 180, 1.0)" />
	<rect x="90" y="100" width="10" height="10" fill="rgba(72, 76, 172, 1.0)" />
	<rect x="100" y="100" width="10" height="10" fill="rgba(73, 74, 170, 1.0)" />
	<rect x="110" y="100" width="10" height="10" fill="rgba(65, 67, 161, 1.0)" />
	<rect x="120" y="100" width="10" height="10" fill="rgba(66, 69, 162, 1.0)" />
	<rect x="130" y="100" width="10" height="10" fill="rgba(74, 78, 181, 1.0)" />
	<rect x="140" y="100" width="10" height="10" fill="rgba(70, 74, 167, 1.0)" />
	<rect x="150" y="100" width="10" height="10" fill="rgba(66, 69, 162, 1.0)" />
	<rect x="0" y="110" width="10" height="10" fill="rgba(62, 65, 155, 1.0)" />
	<rect x="10" y="110" width="10" height="10" fill="rgba(67, 70, 165, 1.0)" />
	<rect x="20" y="110" width="10" height="10" fill="rgba(82, 89, 184, 1.0)" />
	<rect x="30" y="110" width="10" height="10" fill="rgba(69, 72, 162, 1.0)" />
	<rect x="40" y="110" width="10" height="10" fill="rgba(66, 69, 162, 1.0)" />
	<rect x="50" y="110" width="10" height="10" fill="rgba(66, 69, 161, 1.0)" />
	<rect x="60" y="110" width="10" height="10" fill="rgba(67, 70, 164, 1.0)" />
	<rect x="70" y="110" width="10" height="10" fill="rgba(72, 74, 168, 1.0)" />
	<rect x="80" y="110" width="10" height="10" fill="rgba(67, 72, 164, 1.0)" />
	<rect x="90" y="110" width="10" height="10" fill="rgba(69, 73, 166, 1.0)" />
	<rect x="100" y="110" width="10" height="10" fill="rgba(66, 69, 161, 1.0)" />
	<rect x="110" y="110" width="10" height="10" fill="rgba(76, 80, 180, 1.0)" />
	<rect x="120" y="110" width="10" height="10" fill="rgba(73, 74, 167, 1.0)" />
	<rect x="130" y="110" width="10" height="10" fill="rgba(74, 78, 170, 1.0)" />
	<rect x="140" y="110" width="10" height="10" fill="rgba(69, 72, 163, 1.0)" />
	<rect x="150" y="110" width="10" height="10" fill="rgba(61, 63, 149, 1.0)" />
	<rect x="0" y="120" width="10" height="10" fill="rgba(76, 80, 177, 1.0)" />
	<rect x="10" y="120" width="10" height="10" fill="rgba(74, 77, 170, 1.0)" />
	<rect x="20" y="120" width="10" height="10" fill="rgba(74, 77, 170, 1.0)" />
	<rect x="30" y="120" width="10" height="10" fill="rgba(67, 70, 167, 1.0)" />
	<rect x="40" y="120" width="10" height="10" fill="rgba(63, 66, 161, 1.0)" />
	<rect x="50" y="120" width="10" height="10" fill="rgba(66, 67, 159, 1.0)" />
	<rect x="60" y="120" width="10" height="10" fill="rgba(70, 73, 168, 1.0)" />
	<rect x="70" y="120" width="10" height="10" fill="rgba(67, 72, 158, 1.0)" />
	<rect x="80" y="120" width="10" height="10" fill="rgba(72, 74, 165, 1.0)" />
	<rect x="90" y="120" width="10" height="10" fill="rgba(78, 85, 178, 1.0)" />
	<rect x="100" y="120" width="10" height="10" fill="rgba(69, 72, 164, 1.0)" />
	<rect x="110" y="120" width="10" height="10" fill="rgba(69, 72, 163, 1.0)" />
	<rect x="120" y="120" width="10" height="10" fill="rgba(80, 83, 178, 1.0)" />
	<rect x="130" y="120" width="10" height="10" fill="rgba(66, 70, 165, 1.0)" />
	<rect x="140" y="120" width="10" height="10" fill="rgba(66, 69, 159, 1.0)" />
	<rect x="150" y="120" width="10" height="10" fill="rgba(67, 70, 163, 1.0)" />
	<rect x="0" y="130" width="10" height="10" fill="rgba(76, 78, 172, 1.0)" />
	<rect x="10" y="130" width="10" height="10" fill="rgba(67, 72, 167, 1.0)" />
	<rect x="20" y="130" width="10" height="10" fill="rgba(73, 76, 167, 1.0)" />
	<rect x="30" y="130" width="10" height="10" fill="rgba(59, 62, 147, 1.0)" />
	<rect x="40" y="130" width="10" height="10" fill="rgba(63, 65, 157, 1.0)" />
	<rect x="50" y="130" width="10" height="10" fill="rgba(70, 73, 165, 1.0)" />
	<rect x="60" y="130" width="10" height="10" fill="rgba(63, 65, 155, 1.0)" />
	<rect x="70" y="130" width="10" height="10" fill="rgba(72, 74, 174, 1.0)" />
	<rect x="80" y="130" width="10" height="10" fill="rgba(69, 70, 166, 1.0)" />
	<rect x="90" y="130" width="10" height="10" fill="rgba(72, 76, 174, 1.0)" />
	<rect x="100" y="130" width="10" height="10" fill="rgba(73, 77, 171, 1.0)" />
	<rect x="110" y="130" width="10" height="10" fill="rgba(69, 73, 166, 1.0)" />
	<rect x="120" y="130" width="10" height="10" fill="rgba(72, 74, 169, 1.0)" />
	<rect x="130" y="130" width="10" height="10" fill="rgba(63, 66, 157, 1.0)" />
	<rect x="140" y="130" width="10" height="10" fill="rgba(78, 83, 180, 1.0)" />
	<rect x="150" y="130" width="10" height="10" fill="rgba(70, 72, 165, 1.0)" />
	<rect x="0" y="140" width="10" height="10" fill="rgba(82, 89, 184, 1.0)" />
	<rect x="10" y="140" width="10" height="10" fill="rgba(77, 81, 175, 1.0)" />
	<rect x="20" y="140" width="10" height="10" fill="rgba(77, 81, 174, 1.0)" />
	<rect x="30" y="140" width="10" height="10" fill="rgba(67, 70, 161, 1.0)" />
	<rect x="40" y="140" width="10" height="10" fill="rgba(66, 67, 163, 1.0)" />
	<rect x="50" y="140" width="10" height="10" fill="rgba(74, 78, 170, 1.0)" />
	<rect x="60" y="140" width="10" height="10" fill="rgba(69, 73, 166, 1.0)" />
	<rect x="70" y="140" width="10" height="10" fill="rgba(73, 77, 170, 1.0)" />
	<rect x="80" y="140" width="10" height="10" fill="rgba(66, 69, 158, 1.0)" />
	<rect x="90" y="140" width="10" height="10" fill="rgba(74, 77, 171, 1.0)" />
	<rect x="100" y="140" width="10" height="10" fill="rgba(70, 74, 162, 1.0)" />
	<rect x="110" y="140" width="10" height="10" fill="rgba(66, 67, 159, 1.0)" />
	<rect x="120" y="140" width="10" height="10" fill="rgba(73, 77, 171, 1.0)" />
	<rect x="130" y="140" width="10" height="10" fill="rgba(62, 65, 156, 1.0)" />
	<rect x="140" y="140" width="10" height="10" fill="rgba(76, 81, 171, 1.0)" />
	<rect x="150" y="140" width="10" height="10" fill="rgba(77, 81, 175, 1.0)" />
	<rect x="0" y="150" width="10" height="10" fill="rgba(73, 77, 169, 1.0)" />
	<rect x="10" y="150" width="10" height="10" fill="rgba(70, 73, 168, 1.0)" />
	<rect x="20" y="150" width="10" height="10" fill="rgba(65, 66, 157, 1.0)" />
	<rect x="30" y="150" width="10" height="10" fill="rgba(73, 77, 165, 1.0)" />
	<rect x="40" y="150" width="10" height="10" fill="rgba(83, 87, 189, 1.0)" />
	<rect x="50" y="150" width="10" height="10" fill="rgba(70, 73, 167, 1.0)" />
	<rect x="60" y="150" width="10" height="10" fill="rgba(63, 65, 154, 1.0)" />
	<rect x="70" y="150" width="10" height="10" fill="rgba(74, 77, 176, 1.0)" />
	<rect x="80" y="150" width="10" height="10" fill="rgba(67, 70, 163, 1.0)" />
	<rect x="90" y="150" width="10" height="10" fill="rgba(72, 74, 171, 1.0)" />
	<rect x="100" y="150" width="10" height="10" fill="rgba(73, 74, 167, 1.0)" />
	<rect x="110" y="150" width="10" height="10" fill="rgba(65, 66, 161, 1.0)" />
	<rect x="120" y="150" width="10" height="10" fill="rgba(67, 70, 164, 1.0)" />
	<rect x="130" y="150" width="10" height="10" fill="rgba(65, 67, 161, 1.0)" />
	<rect x="140" y="150" width="10" height="10" fill="rgba(69, 70, 163, 1.0)" />
	<rect x="150" y="150" width="10" height="10" fill="rgba(66, 67, 158, 1.0)" />
</svg>