<svg xmlns="http://www.w3.org/2000/svg" xmlns:xlink="http://www.w3.org/1999/xlink">
	<rect x="0" y="0" width="10" height="10" fill="rgba(113, 77, 47, 1.0)" />
	<rect x="10" y="0" width="10" height="10" fill="rgba(122, 81, 52, 1.0)" />
	<rect x="20" y="0" width="10" height="10" fill="rgba(131, 89, 57, 1.0)" />
	<rect x="30" y="0" width="10" height="10" fill="rgba(121, 81, 50, 1.0)" />
	<rect x="40" y="0" width="10" height="10" fill="rgba(125, 83, 54, 1.0)" />
	<rect x="50" y="0" width="10" height="10" fill="rgba(119, 80, 50, 1.0)" />
	<rect x="60" y="0" width="10" height="10" fill="rgba(126, 85, 54, 1.0)" />
	<rect x="70" y="0" width="10" height="10" fill="rgba(127, 86, 55, 1.0)" />
	<rect x="80" y="0" width="10" height="10" fill="rgba(139, 96, 62, 1.0)" />
	<rect x="90" y="0" width="10" height="10" fill="rgba(124, 82, 52, 1.0)" />
	<rect x="100" y="0" width="10" height="10" fill="rgba(120, 81, 51, 1.0)" />
	<rect x="110" y="0" width="10" height="10" fill="rgba(121, 81, 51, 1.0)" />
	<rect x="120" y="0" width="10" height="10" fill="rgba(146, 101, 67, 1.0)" />
	<rect x="130" y="0" width="10" height="10" fill="rgba(124, 83, 51, 1.0)" />
	<rect x="140" y="0" width="10" height="10" fill="rgba(108, 73, 45, 1.0)" />
	<rect x="150" y="0" width="10" height="10" fill="rgba(114, 78, 47, 1.0)" />
	<rect x="0" y="10" width="10" height="10" fill="rgba(144, 99, 65, 1.0)" />
	<rect x="10" y="10" width="10" height="10" fill="rgba(113, 77, 47, 1.0)" />
	<rect x="20" y="10" width="10" height="10" fill="rgba(118, 80, 50, 1.0)" />
	<rect x="30" y="10" width="10" height="10" fill="rgba(130, 86, 55, 1.0)" />
	<rect x="40" y="10" width="10" height="10" fill="rgba(114, 78, 50, 1.0)" />
	<rect x="50" y="10" width="10" height="10" fill="rgba(119, 81, 51, 1.0)" />
	<rect x="60" y="10" width="10" height="10" fill="rgba(125, 83, 54, 1.0)" />
	<rect x="70" y="10" width="10" height="10" fill="rgba(113, 76, 47, 1.0)" />
	<rect x="80" y="10" width="10" height="10" fill="rgba(124, 82, 51, 1.0)" />
	<rect x="90" y="10" width="10" height="10" fill="rgba(122, 82, 51, 1.0)" />
	<rect x="100" y="10" width="10" height="10" fill="rgba(158, 110, 73, 1.0)" />
	<rect x="110" y="10" width="10" height="10" fill="rgba(140, 96, 62, 1.0)" />
	<rect x="120" y="10" width="10" height="10" fill="rgba(124, 82, 52, 1.0)" />
	<rect x="130" y="10" width="10" height="10" fill="rgba(139, 95, 63, 1.0)" />
	<rect x="140" y="10" width="10" height="10" fill="rgba(119, 80, 50, 1.0)" />
	<rect x="150" y="10" width="10" height="10" fill="rgba(136, 93, 58, 1.0)" />
	<rect x="0" y="20" width="10" height="10" fill="rgba(115, 78, 48, 1.0)" />
	<rect x="10" y="20" width="10" height="10" fill="rgba(130, 86, 54, 1.0)" />
	<rect x="20" y="20" width="10" height="10" fill="rgba(134, 90, 58, 1.0)" />
	<rect x="30" y="20" width="10" height="10" fill="rgba(116, 78, 48, 1.0)" />
	<rect x="40" y="20" width="10" height="10" fill="rgba(114, 76, 47, 1.0)" />
	<rect x="50" y="20" width="10" height="10" fill="rgba(116, 78, 48, 1.0)" />
	<rect x="60" y="20" width="10" height="10" fill="rgba(119, 81, 50, 1.0)" />
	<rect x="70" y="20" width="10" height="10" fill="rgba(116, 78, 48, 1.0)" />
	<rect x="80" y="20" width="10" height="10" fill="rgba(137, 93, 61, 1.0)" />
	<rect x="90" y="20" width="10" height="10" fill="rgba(118, 80, 50, 1.0)" />
	<rect x="100" y="20" width="10" height="10" fill="rgba(137, 93, 59, 1.0)" />
	<rect x="110" y="20" width="10" height="10" fill="rgba(138, 94, 59, 1.0)" />
	<rect x="120" y="20" width="10" height="10" fill="rgba(134, 91, 59, 1.0)" />
	<rect x="130" y="20" width="10" height="10" fill="rgba(136, 91, 61, 1.0)" />
	<rect x="140" y="20" width="10" height="10" fill="rgba(116, 78, 48, 1.0)" />
	<rect x="150" y="20" width="10" height="10" fill="rgba(138, 94, 59, 1.0)" />
	<rect x="0" y="30" width="10" height="10" fill="rgba(137, 93, 61, 1.0)" />
	<rect x="10" y="30" width="10" height="10" fill="rgba(120, 81, 51, 1.0)" />
	<rect x="20" y="30" width="10" height="10" fill="rgba(130, 87, 57, 1.0)" />
	<rect x="30" y="30" width="10" height="10" fill="rgba(128, 86, 54, 1.0)" />
	<rect x="40" y="30" width="10" height="10" fill="rgba(116, 80, 50, 1.0)" />
	<rect x="50" y="30" width="10" height="10" fill="rgba(121, 81, 50, 1.0)" />
	<rect x="60" y="30" width="10" height="10" fill="rgba(115, 78, 48, 1.0)" />
	<rect x="70" y="30" width="10" height="10" fill="rgba(120, 81, 50, 1.0)" />
	<rect x="80" y="30" width="10" height="10" fill="rgba(113, 78, 50, 1.0)" />
	<rect x="90" y="30" width="10" height="10" fill="rgba(124, 83, 54, 1.0)" />
	<rect x="100" y="30" width="10" height="10" fill="rgba(121, 81, 51, 1.0)" />
	<rect x="110" y="30" width="10" height="10" fill="rgba(120, 81, 51, 1.0)" />
	<rect x="120" y="30" width="10" height="10" fill="rgba(131, 89, 57, 1.0)" />
	<rect x="130" y="30" width="10" height="10" fill="rgba(127, 85, 54, 1.0)" />
	<rect x="140" y="30" width="10" height="10" fill="rgba(120, 81, 50, 1.0)" />
	<rect x="150" y="30" width="10" height="10" fill="rgba(111, 77, 48, 1.0)" />
	<rect x="0" y="40" width="10" height="10" fill="rgba(121, 81, 51, 1.0)" />
	<rect x="10" y="40" width="10" height="10" fill="rgba(115, 77, 47, 1.0)" />
	<rect x="20" y="40" width="10" height="10" fill="rgba(132, 87, 57, 1.0)" />
	<rect x="30" y="40" width="10" height="10" fill="rgba(119, 80, 50, 1.0)" />
	<rect x="40" y="40" width="10" height="10" fill="rgba(139, 95, 61, 1.0)" />
	<rect x="50" y="40" width="10" height="10" fill="rgba(138, 95, 59, 1.0)" />
	<rect x="60" y="40" width="10" height="10" fill="rgba(122, 82, 51, 1.0)" />
	<rect x="70" y="40" width="10" height="10" fill="rgba(132, 89, 57, 1.0)" />
	<rect x="80" y="40" width="10" height="10" fill="rgba(132, 89, 58, 1.0)" />
	<rect x="90" y="40" width="10" height="10" fill="rgba(116, 80, 50, 1.0)" />
	<rect x="100" y="40" width="10" height="10" fill="rgba(125, 83, 54, 1.0)" />
	<rect x="110" y="40" width="10" height="10" fill="rgba(133, 90, 58, 1.0)" />
	<rect x="120" y="40" width="10" height="10" fill="rgba(126, 83, 54, 1.0)" />
	<rect x="130" y="40" width="10" height="10" fill="rgba(110, 74, 47, 1.0)" />
	<rect x="140" y="40" width="10" height="10" fill="rgba(127, 86, 54, 1.0)" />
	<rect x="150" y="40" width="10" height="10" fill="rgba(113, 77, 47, 1.0)" />
	<rect x="0" y="50" width="10" height="10" fill="rgba(120, 81, 51, 1.0)" />
	<rect x="10" y="50" width="10" height="10" fill="rgba(140, 96, 63, 1.0)" />
	<rect x="20" y="50" width="10" height="10" fill="rgba(111, 76, 47, 1.0)" />
	<rect x="30" y="50" width="10" height="10" fill="rgba(148, 101, 65, 1.0)" />
	<rect x="40" y="50" width="10" height="10" fill="rgba(131, 89, 58, 1.0)" />
	<rect x="50" y="50" width="10" height="10" fill="rgba(145, 100, 65, 1.0)" />
	<rect x="60" y="50" width="10" height="10" fill="rgba(126, 83, 52, 1.0)" />
	<rect x="70" y="50" width="10" height="10" fill="rgba(121, 81, 51, 1.0)" />
	<rect x="80" y="50" width="10" height="10" fill="rgba(115, 77, 47, 1.0)" />
	<rect x="90" y="50" width="10" height="10" fill="rgba(128, 86, 54, 1.0)" />
	<rect x="100" y="50" width="10" height="10" fill="rgba(132, 89, 58, 1.0)" />
	<rect x="110" y="50" width="10" height="10" fill="rgba(127, 87, 57, 1.0)" />
	<rect x="120" y="50" width="10" height="10" fill="rgba(156, 114, 77, 1.0)" />
	<rect x="130" y="50" width="10" height="10" fill="rgba(134, 91, 61, 1.0)" />
	<rect x="140" y="50" width="10" height="10" fill="rgba(128, 86, 55, 1.0)" />
	<rect x="150" y="50" width="10" height="10" fill="rgba(108, 73, 44, 1.0)" />
	<rect x="0" y="60" width="10" height="10" fill="rgba(121, 83, 54, 1.0)" />
	<rect x="10" y="60" width="10" height="10" fill="rgba(125, 83, 52, 1.0)" />
	<rect x="20" y="60" width="10" height="10" fill="rgba(120, 81, 51, 1.0)" />
	<rect x="30" y="60" width="10" height="10" fill="rgba(142, 99, 65, 1.0)" />
	<rect x="40" y="60" width="10" height="10" fill="rgba(116, 78, 50, 1.0)" />
	<rect x="50" y="60" width="10" height="10" fill="rgba(118, 80, 50, 1.0)" />
	<rect x="60" y="60" width="10" height="10" fill="rgba(122, 81, 52, 1.0)" />
	<rect x="70" y="60" width="10" height="10" fill="rgba(120, 81, 51, 1.0)" />
	<rect x="80" y="60" width="10" height="10" fill="rgba(124, 82, 52, 1.0)" />
	<rect x="90" y="60" width="10" height="10" fill="rgba(119, 81, 50, 1.0)" />
	<rect x="100" y="60" width="10" height="10" fill="rgba(122, 82, 51, 1.0)" />
	<rect x="110" y="60" width="10" height="10" fill="rgba(128, 87, 54, 1.0)" />
	<rect x="120" y="60" width="10" height="10" fill="rgba(119, 81, 50, 1.0)" />
	<rect x="130" y="60" width="10" height="10" fill="rgba(122, 82, 51, 1.0)" />
	<rect x="140" y="60" width="10" height="10" fill="rgba(136, 91, 59, 1.0)" />
	<rect x="150" y="60" width="10" height="10" fill="rgba(115, 78, 47, 1.0)" />
	<rect x="0" y="70" width="10" height="10" fill="rgba(136, 93, 61, 1.0)" />
	<rect x="10" y="70" width="10" height="10" fill="rgba(124, 82, 52, 1.0)" />
	<rect x="20" y="70" width="10" height="10" fill="rgba(128, 86, 55, 1.0)" />
	<rect x="30" y="70" width="10" height="10" fill="rgba(126, 83, 54, 1.0)" />
	<rect x="40" y="70" width="10" height="10" fill="rgba(127, 85, 55, 1.0)" />
	<rect x="50" y="70" width="10" height="10" fill="rgba(124, 82, 52, 1.0)" />
	<rect x="60" y="70" width="10" height="10" fill="rgba(139, 96, 61, 1.0)" />
	<rect x="70" y="70" width="10" height="10" fill="rgba(141, 98, 62, 1.0)" />
	<rect x="80" y="70" width="10" height="10" fill="rgba(121, 82, 51, 1.0)" />
	<rect x="90" y="70" width="10" height="10" fill="rgba(115, 77, 48, 1.0)" />
	<rect x="100" y="70" width="10" height="10" fill="rgba(158, 116, 78, 1.0)" />
	<rect x="110" y="70" width="10" height="10" fill="rgba(119, 81, 50, 1.0)" />
	<rect x="120" y="70" width="10" height="10" fill="rgba(147, 101, 67, 1.0)" />
	<rect x="130" y="70" width="10" height="10" fill="rgba(130, 87, 57, 1.0)" />
	<rect x="140" y="70" width="10" height="10" fill="rgba(141, 96, 62, 1.0)" />
	<rect x="150" y="70" width="10" height="10" fill="rgba(122, 82, 51, 1.0)" />
	<rect x="0" y="80" width="10" height="10" fill="rgba(127, 86, 55, 1.0)" />
	<rect x="10" y="80" width="10" height="10" fill="rgba(126, 85, 54, 1.0)" />
	<rect x="20" y="80" width="10" height="10" fill="rgba(131, 87, 55, 1.0)" />
	<rect x="30" y="80" width="10" height="10" fill="rgba(124, 82, 51, 1.0)" />
	<rect x="40" y="80" width="10" height="10" fill="rgba(125, 83, 52, 1.0)" />
	<rect x="50" y="80" width="10" height="10" fill="rgba(126, 85, 54, 1.0)" />
	<rect x="60" y="80" width="10" height="10" fill="rgba(121, 81, 51, 1.0)" />
	<rect x="70" y="80" width="10" height="10" fill="rgba(126, 83, 54, 1.0)" />
	<rect x="80" y="80" width="10" height="10" fill="rgba(119, 80, 50, 1.0)" />
	<rect x="90" y="80" width="10" height="10" fill="rgba(132, 89, 55, 1.0)" />
	<rect x="100" y="80" width="10" height="10" fill="rgba(111, 76, 48, 1.0)" />
	<rect x="110" y="80" width="10" height="10" fill="rgba(119, 81, 50, 1.0)" />
	<rect x="120" y="80" width="10" height="10" fill="rgba(132, 89, 58, 1.0)" />
	<rect x="130" y="80" width="10" height="10" fill="rgba(138, 94, 62, 1.0)" />
	<rect x="140" y="80" width="10" height="10" fill="rgba(137, 93, 61, 1.0)" />
	<rect x="150" y="80" width="10" height="10" fill="rgba(134, 91, 59, 1.0)" />
	<rect x="0" y="90" width="10" height="10" fill="rgba(111, 76, 48, 1.0)" />
	<rect x="10" y="90" width="10" height="10" fill="rgba(124, 82, 52, 1.0)" />
	<rect x="20" y="90" width="10" height="10" fill="rgba(122, 81, 51, 1.0)" />
	<rect x="30" y="90" width="10" height="10" fill="rgba(113, 77, 47, 1.0)" />
	<rect x="40" y="90" width="10" height="10" fill="rgba(119, 81, 50, 1.0)" />
	<rect x="50" y="90" width="10" height="10" fill="rgba(140, 95, 62, 1.0)" />
	<rect x="60" y="90" width="10" height="10" fill="rgba(114, 76, 47, 1.0)" />
	<rect x="70" y="90" width="10" height="10" fill="rgba(119, 81, 51, 1.0)" />
	<rect x="80" y="90" width="10" height="10" fill="rgba(124, 82, 52, 1.0)" />
	<rect x="90" y="90" width="10" height="10" fill="rgba(126, 85, 54, 1.0)" />
	<rect x="100" y="90" width="10" height="10" fill="rgba(118, 80, 50, 1.0)" />
	<rect x="110" y="90" width="10" height="10" fill="rgba(119, 81, 50, 1.0)" />
	<rect x="120" y="90" width="10" height="10" fill="rgba(118, 80, 50, 1.0)" />
	<rect x="130" y="90" width="10" height="10" fill="rgba(145, 100, 66, 1.0)" />
	<rect x="140" y="90" width="10" height="10" fill="rgba(119, 81, 50, 1.0)" />
	<rect x="150" y="90" width="10" height="10" fill="rgba(130, 87, 55, 1.0)" />
	<rect x="0" y="100" width="10" height="10" fill="rgba(121, 82, 51, 1.0)" />
	<rect x="10" y="100" width="10" height="10" fill="rgba(122, 81, 51, 1.0)" />
	<rect x="20" y="100" width="10" height="10" fill="rgba(100, 67, 40, 1.0)" />
	<rect x="30" y="100" width="10" height="10" fill="rgba(128, 86, 55, 1.0)" />
	<rect x="40" y="100" width="10" height="10" fill="rgba(125, 85, 55, 1.0)" />
	<rect x="50" y="100" width="10" height="10" fill="rgba(132, 87, 55, 1.0)" />
	<rect x="60" y="100" width="10" height="10" fill="rgba(115, 78, 47, 1.0)" />
	<rect x="70" y="100" width="10" height="10" fill="rgba(116, 78, 48, 1.0)" />
	<rect x="80" y="100" width="10" height="10" fill="rgba(121, 81, 50, 1.0)" />
	<rect x="90" y="100" width="10" height="10" fill="rgba(125, 83, 52, 1.0)" />
	<rect x="100" y="100" width="10" height="10" fill="rgba(133, 89, 58, 1.0)" />
	<rect x="110" y="100" width="10" height="10" fill="rgba(119, 81, 50, 1.0)" />
	<rect x="120" y="100" width="10" height="10" fill="rgba(130, 87, 57, 1.0)" />
	<rect x="130" y="100" width="10" height="10" fill="rgba(128, 85, 52, 1.0)" />
	<rect x="140" y="100" width="10" height="10" fill="rgba(127, 86, 55, 1.0)" />
	<rect x="150" y="100" width="10" height="10" fill="rgba(127, 85, 55, 1.0)" />
	<rect x="0" y="110" width="10" height="10" fill="rgba(130, 87, 58, 1.0)" />
	<rect x="10" y="110" width="10" height="10" fill="rgba(138, 94, 61, 1.0)" />
	<rect x="20" y="110" width="10" height="10" fill="rgba(125, 83, 54, 1.0)" />
	<rect x="30" y="110" width="10" height="10" fill="rgba(116, 80, 50, 1.0)" />
	<rect x="40" y="110" width="10" height="10" fill="rgba(114, 76, 47, 1.0)" />
	<rect x="50" y="110" width="10" height="10" fill="rgba(140, 96, 63, 1.0)" />
	<rect x="60" y="110" width="10" height="10" fill="rgba(119, 81, 50, 1.0)" />
	<rect x="70" y="110" width="10" height="10" fill="rgba(114, 77, 47, 1.0)" />
	<rect x="80" y="110" width="10" height="10" fill="rgba(118, 81, 50, 1.0)" />
	<rect x="90" y="110" width="10" height="10" fill="rgba(141, 98, 63, 1.0)" />
	<rect x="100" y="110" width="10" height="10" fill="rgba(130, 87, 57, 1.0)" />
	<rect x="110" y="110" width="10" height="10" fill="rgba(144, 99, 63, 1.0)" />
	<rect x="120" y="110" width="10" height="10" fill="rgba(121, 82, 52, 1.0)" />
	<rect x="130" y="110" width="10" height="10" fill="rgba(115, 77, 48, 1.0)" />
	<rect x="140" y="110" width="10" height="10" fill="rgba(111, 74, 45, 1.0)" />
	<rect x="150" y="110" width="10" height="10" fill="rgba(115, 80, 50, 1.0)" />
	<rect x="0" y="120" width="10" height="10" fill="rgba(132, 89, 57, 1.0)" />
	<rect x="10" y="120" width="10" height="10" fill="rgba(114, 77, 47, 1.0)" />
	<rect x="20" y="120" width="10" height="10" fill="rgba(121, 82, 52, 1.0)" />
	<rect x="30" y="120" width="10" height="10" fill="rgba(131, 87, 55, 1.0)" />
	<rect x="40" y="120" width="10" height="10" fill="rgba(120, 81, 50, 1.0)" />
	<rect x="50" y="120" width="10" height="10" fill="rgba(137, 93, 61, 1.0)" />
	<rect x="60" y="120" width="10" height="10" fill="rgba(130, 87, 57, 1.0)" />
	<rect x="70" y="120" width="10" height="10" fill="rgba(118, 81, 50, 1.0)" />
	<rect x="80" y="120" width="10" height="10" fill="rgba(120, 81, 52, 1.0)" />
	<rect x="90" y="120" width="10" height="10" fill="rgba(125, 83, 52, 1.0)" />
	<rect x="100" y="120" width="10" height="10" fill="rgba(116, 78, 48, 1.0)" />
	<rect x="110" y="120" width="10" height="10" fill="rgba(121, 82, 52, 1.0)" />
	<rect x="120" y="120" width="10" height="10" fill="rgba(127, 86, 55, 1.0)" />
	<rect x="130" y="120" width="10" height="10" fill="rgba(126, 83, 54, 1.0)" />
	<rect x="140" y="120" width="10" height="10" fill="rgba(131, 89, 59, 1.0)" />
	<rect x="150" y="120" width="10" height="10" fill="rgba(121, 81, 51, 1.0)" />
	<rect x="0" y="130" width="10" height="10" fill="rgba(137, 93, 61, 1.0)" />
	<rect x="10" y="130" width="10" height="10" fill="rgba(124, 83, 52, 1.0)" />
	<rect x="20" y="130" width="10" height="10" fill="rgba(124, 82, 52, 1.0)" />
	<rect x="30" y="130" width="10" height="10" fill="rgba(118, 81, 52, 1.0)" />
	<rect x="40" y="130" width="10" height="10" fill="rgba(118, 81, 50, 1.0)" />
	<rect x="50" y="130" width="10" height="10" fill="rgba(116, 80, 50, 1.0)" />
	<rect x="60" y="130" width="10" height="10" fill="rgba(121, 82, 52, 1.0)" />
	<rect x="70" y="130" width="10" height="10" fill="rgba(128, 85, 54, 1.0)" />
	<rect x="80" y="130" width="10" height="10" fill="rgba(136, 93, 58, 1.0)" />
	<rect x="90" y="130" width="10" height="10" fill="rgba(134, 90, 58, 1.0)" />
	<rect x="100" y="130" width="10" height="10" fill="rgba(128, 86, 55, 1.0)" />
	<rect x="110" y="130" width="10" height="10" fill="rgba(133, 90, 58, 1.0)" />
	<rect x="120" y="130" width="10" height="10" fill="rgba(118, 80, 48, 1.0)" />
	<rect x="130" y="130" width="10" height="10" fill="rgba(121, 81, 51, 1.0)" />
	<rect x="140" y="130" width="10" height="10" fill="rgba(126, 85, 52, 1.0)" />
	<rect x="150" y="130" width="10" height="10" fill="rgba(128, 86, 57, 1.0)" />
	<rect x="0" y="140" width="10" height="10" fill="rgba(134, 91, 58, 1.0)" />
	<rect x="10" y="140" width="10" height="10" fill="rgba(124, 82, 52, 1.0)" />
	<rect x="20" y="140" width="10" height="10" fill="rgba(124, 82, 52, 1.0)" />
	<rect x="30" y="140" width="10" height="10" fill="rgba(134, 91, 61, 1.0)" />
	<rect x="40" y="140" width="10" height="10" fill="rgba(124, 82, 52, 1.0)" />
	<rect x="50" y="140" width="10" height="10" fill="rgba(115, 78, 47, 1.0)" />
	<rect x="60" y="140" width="10" height="10" fill="rgba(120, 81, 50, 1.0)" />
	<rect x="70" y="140" width="10" height="10" fill="rgba(130, 87, 55, 1.0)" />
	<rect x="80" y="140" width="10" height="10" fill="rgba(140, 96, 65, 1.0)" />
	<rect x="90" y="140" width="10" height="10" fill="rgba(125, 85, 54, 1.0)" />
	<rect x="100" y="140" width="10" height="10" fill="rgba(108, 74, 45, 1.0)" />
	<rect x="110" y="140" width="10" height="10" fill="rgba(130, 87, 57, 1.0)" />
	<rect x="120" y="140" width="10" height="10" fill="rgba(119, 81, 50, 1.0)" />
	<rect x="130" y="140" width="10" height="10" fill="rgba(124, 82, 54, 1.0)" />
	<rect x="140" y="140" width="10" height="10" fill="rgba(114, 78, 48, 1.0)" />
	<rect x="150" y="140" width="10" height="10" fill="rgba(148, 104, 67, 1.0)" />
	<rect x="0" y="150" width="10" height="10" fill="rgba(127, 86, 55, 1.0)" />
	<rect x="10" y="150" width="10" height="10" fill="rgba(139, 95, 61, 1.0)" />
	<rect x="20" y="150" width="10" height="10" fill="rgba(124, 83, 54, 1.0)" />
	<rect x="30" y="150" width="10" height="10" fill="rgba(132, 90, 59, 1.0)" />
	<rect x="40" y="150" width="10" height="10" fill="rgba(142, 96, 61, 1.0)" />
	<rect x="50" y="150" width="10" height="10" fill="rgba(140, 96, 63, 1.0)" />
	<rect x="60" y="150" width="10" height="10" fill="rgba(131, 89, 58, 1.0)" />
	<rect x="70" y="150" width="10" height="10" fill="rgba(140, 96, 62, 1.0)" />
	<rect x="80" y="150" width="10" height="10" fill="rgba(115, 78, 48, 1.0)" />
	<rect x="90" y="150" width="10" height="10" fill="rgba(122, 81, 50, 1.0)" />
	<rect x="100" y="150" width="10" height="10" fill="rgba(125, 83, 54, 1.0)" />
	<rect x="110" y="150" width="10" height="10" fill="rgba(118, 80, 48, 1.0)" />
	<rect x="120" y="150" width="10" height="10" fill="rgba(130, 86, 54, 1.0)" />
	<rect x="130" y="150" width="10" height="10" fill="rgba(131, 87, 57, 1.0)" />
	<rect x="140" y="150" width="10" height="10" fill="rgba(118, 80, 50, 1.0)" />
	<rect x="150" y="150" width="10" height="10" fill="rgba(118, 80, 51, 1.0)" />
</svg>