<svg xmlns="http://www.w3.org/2000/svg" xmlns:xlink="http://www.w3.org/1999/xlink">
	<rect x="0" y="0" width="10" height="10" fill="rgba(79, 50, 24, 1.0)" />
	<rect x="10" y="0" width="10" height="10" fill="rgba(73, 47, 23, 1.0)" />
	<rect x="20" y="0" width="10" height="10" fill="rgba(79, 50, 24, 1.0)" />
	<rect x="30" y="0" width="10" height="10" fill="rgba(83, 56, 26, 1.0)" />
	<rect x="40" y="0" width="10" height="10" fill="rgba(83, 56, 26, 1.0)" />
	<rect x="50" y="0" width="10" height="10" fill="rgba(83, 56, 26, 1.0)" />
	<rect x="60" y="0" width="10" height="10" fill="rgba(83, 56, 26, 1.0)" />
	<rect x="70" y="0" width="10" height="10" fill="rgba(83, 56, 26, 1.0)" />
	<rect x="80" y="0" width="10" height="10" fill="rgba(79, 50, 24, 1.0)" />
	<rect x="90" y="0" width="10" height="10" fill="rgba(83, 56, 26, 1.0)" />
	<rect x="100" y="0" width="10" height="10" fill="rgba(83, 56, 26, 1.0)" />
	<rect x="110" y="0" width="10" height="10" fill="rgba(83, 56, 26, 1.0)" />
	<rect x="120" y="0" width="10" height="10" fill="rgba(83, 56, 26, 1.0)" />
	<rect x="130" y="0" width="10" height="10" fill="rgba(83, 56, 26, 1.0)" />
	<rect x="140" y="0" width="10" height="10" fill="rgba(79, 50, 24, 1.0)" />
	<rect x="150" y="0" width="10" height="10" fill="rgba(58, 36, 17, 1.0)" />
	<rect x="0" y="10" width="10" height="10" fill="rgba(79, 50, 24, 1.0)" />
	<rect x="10" y="10" width="10" height="10" fill="rgba(79, 50, 24, 1.0)" />
	<rect x="20" y="10" width="10" height="10" fill="rgba(73, 47, 23, 1.0)" />
	<rect x="30" y="10" width="10" height="10" fill="rgba(58, 36, 17, 1.0)" />
	<rect x="40" y="10" width="10" height="10" fill="rgba(58, 36, 17, 1.0)" />
	<rect x="50" y="10" width="10" height="10" fill="rgba(62, 41, 18, 1.0)" />
	<rect x="60" y="10" width="10" height="10" fill="rgba(73, 47, 23, 1.0)" />
	<rect x="70" y="10" width="10" height="10" fill="rgba(79, 50, 24, 1.0)" />
	<rect x="80" y="10" width="10" height="10" fill="rgba(79, 50, 24, 1.0)" />
	<rect x="90" y="10" width="10" height="10" fill="rgba(79, 50, 24, 1.0)" />
	<rect x="100" y="10" width="10" height="10" fill="rgba(73, 47, 23, 1.0)" />
	<rect x="110" y="10" width="10" height="10" fill="rgba(73, 47, 23, 1.0)" />
	<rect x="120" y="10" width="10" height="10" fill="rgba(79, 50, 24, 1.0)" />
	<rect x="130" y="10" width="10" height="10" fill="rgba(79, 50, 24, 1.0)" />
	<rect x="140" y="10" width="10" height="10" fill="rgba(62, 41, 18, 1.0)" />
	<rect x="150" y="10" width="10" height="10" fill="rgba(62, 41, 18, 1.0)" />
	<rect x="0" y="20" width="10" height="10" fill="rgba(73, 47, 23, 1.0)" />
	<rect x="10" y="20" width="10" height="10" fill="rgba(62, 41, 18, 1.0)" />
	<rect x="20" y="20" width="10" height="10" fill="rgba(197, 197, 197, 1.0)" />
	<rect x="30" y="20" width="10" height="10" fill="rgba(197, 197, 197, 1.0)" />
	<rect x="40" y="20" width="10" height="10" fill="rgba(171, 172, 171, 1.0)" />
	<rect x="50" y="20" width="10" height="10" fill="rgba(156, 156, 156, 1.0)" />
	<rect x="60" y="20" width="10" height="10" fill="rgba(79, 50, 24, 1.0)" />
	<rect x="70" y="20" width="10" height="10" fill="rgba(62, 41, 18, 1.0)" />
	<rect x="80" y="20" width="10" height="10" fill="rgba(62, 41, 18, 1.0)" />
	<rect x="90" y="20" width="10" height="10" fill="rgba(62, 41, 18, 1.0)" />
	<rect x="100" y="20" width="10" height="10" fill="rgba(83, 56, 26, 1.0)" />
	<rect x="110" y="20" width="10" height="10" fill="rgba(188, 161, 96, 1.0)" />
	<rect x="120" y="20" width="10" height="10" fill="rgba(188, 161, 96, 1.0)" />
	<rect x="130" y="20" width="10" height="10" fill="rgba(188, 161, 96, 1.0)" />
	<rect x="140" y="20" width="10" height="10" fill="rgba(133, 110, 54, 1.0)" />
	<rect x="150" y="20" width="10" height="10" fill="rgba(58, 36, 17, 1.0)" />
	<rect x="0" y="30" width="10" height="10" fill="rgba(58, 36, 17, 1.0)" />
	<rect x="10" y="30" width="10" height="10" fill="rgba(48, 30, 14, 1.0)" />
	<rect x="20" y="30" width="10" height="10" fill="rgba(197, 197, 197, 1.0)" />
	<rect x="30" y="30" width="10" height="10" fill="rgba(75, 43, 24, 1.0)" />
	<rect x="40" y="30" width="10" height="10" fill="rgba(190, 38, 51, 1.0)" />
	<rect x="50" y="30" width="10" height="10" fill="rgba(114, 121, 110, 1.0)" />
	<rect x="60" y="30" width="10" height="10" fill="rgba(41, 26, 12, 1.0)" />
	<rect x="70" y="30" width="10" height="10" fill="rgba(41, 26, 12, 1.0)" />
	<rect x="80" y="30" width="10" height="10" fill="rgba(83, 56, 26, 1.0)" />
	<rect x="90" y="30" width="10" height="10" fill="rgba(188, 161, 96, 1.0)" />
	<rect x="100" y="30" width="10" height="10" fill="rgba(188, 161, 96, 1.0)" />
	<rect x="110" y="30" width="10" height="10" fill="rgba(249, 232, 191, 1.0)" />
	<rect x="120" y="30" width="10" height="10" fill="rgba(252, 252, 242, 1.0)" />
	<rect x="130" y="30" width="10" height="10" fill="rgba(249, 232, 191, 1.0)" />
	<rect x="140" y="30" width="10" height="10" fill="rgba(188, 161, 96, 1.0)" />
	<rect x="150" y="30" width="10" height="10" fill="rgba(41, 26, 12, 1.0)" />
	<rect x="0" y="40" width="10" height="10" fill="rgba(79, 50, 24, 1.0)" />
	<rect x="10" y="40" width="10" height="10" fill="rgba(58, 36, 17, 1.0)" />
	<rect x="20" y="40" width="10" height="10" fill="rgba(171, 172, 171, 1.0)" />
	<rect x="30" y="40" width="10" height="10" fill="rgba(190, 38, 51, 1.0)" />
	<rect x="40" y="40" width="10" height="10" fill="rgba(56, 33, 22, 1.0)" />
	<rect x="50" y="40" width="10" height="10" fill="rgba(156, 156, 156, 1.0)" />
	<rect x="60" y="40" width="10" height="10" fill="rgba(83, 56, 26, 1.0)" />
	<rect x="70" y="40" width="10" height="10" fill="rgba(62, 41, 18, 1.0)" />
	<rect x="80" y="40" width="10" height="10" fill="rgba(188, 161, 96, 1.0)" />
	<rect x="90" y="40" width="10" height="10" fill="rgba(249, 232, 191, 1.0)" />
	<rect x="100" y="40" width="10" height="10" fill="rgba(252, 252, 242, 1.0)" />
	<rect x="110" y="40" width="10" height="10" fill="rgba(252, 252, 242, 1.0)" />
	<rect x="120" y="40" width="10" height="10" fill="rgba(190, 38, 51, 1.0)" />
	<rect x="130" y="40" width="10" height="10" fill="rgba(252, 252, 242, 1.0)" />
	<rect x="140" y="40" width="10" height="10" fill="rgba(133, 110, 54, 1.0)" />
	<rect x="150" y="40" width="10" height="10" fill="rgba(79, 50, 24, 1.0)" />
	<rect x="0" y="50" width="10" height="10" fill="rgba(73, 47, 23, 1.0)" />
	<rect x="10" y="50" width="10" height="10" fill="rgba(79, 50, 24, 1.0)" />
	<rect x="20" y="50" width="10" height="10" fill="rgba(104, 104, 104, 1.0)" />
	<rect x="30" y="50" width="10" height="10" fill="rgba(156, 156, 156, 1.0)" />
	<rect x="40" y="50" width="10" height="10" fill="rgba(114, 121, 110, 1.0)" />
	<rect x="50" y="50" width="10" height="10" fill="rgba(104, 104, 104, 1.0)" />
	<rect x="60" y="50" width="10" height="10" fill="rgba(62, 41, 18, 1.0)" />
	<rect x="70" y="50" width="10" height="10" fill="rgba(58, 36, 17, 1.0)" />
	<rect x="80" y="50" width="10" height="10" fill="rgba(188, 161, 96, 1.0)" />
	<rect x="90" y="50" width="10" height="10" fill="rgba(249, 232, 191, 1.0)" />
	<rect x="100" y="50" width="10" height="10" fill="rgba(188, 161, 96, 1.0)" />
	<rect x="110" y="50" width="10" height="10" fill="rgba(252, 252, 242, 1.0)" />
	<rect x="120" y="50" width="10" height="10" fill="rgba(252, 252, 242, 1.0)" />
	<rect x="130" y="50" width="10" height="10" fill="rgba(249, 232, 191, 1.0)" />
	<rect x="140" y="50" width="10" height="10" fill="rgba(133, 110, 54, 1.0)" />
	<rect x="150" y="50" width="10" height="10" fill="rgba(73, 47, 23, 1.0)" />
	<rect x="0" y="60" width="10" height="10" fill="rgba(62, 41, 18, 1.0)" />
	<rect x="10" y="60" width="10" height="10" fill="rgba(62, 41, 18, 1.0)" />
	<rect x="20" y="60" width="10" height="10" fill="rgba(73, 47, 23, 1.0)" />
	<rect x="30" y="60" width="10" height="10" fill="rgba(79, 50, 24, 1.0)" />
	<rect x="40" y="60" width="10" height="10" fill="rgba(73, 47, 23, 1.0)" />
	<rect x="50" y="60" width="10" height="10" fill="rgba(73, 47, 23, 1.0)" />
	<rect x="60" y="60" width="10" height="10" fill="rgba(73, 47, 23, 1.0)" />
	<rect x="70" y="60" width="10" height="10" fill="rgba(58, 36, 17, 1.0)" />
	<rect x="80" y="60" width="10" height="10" fill="rgba(188, 161, 96, 1.0)" />
	<rect x="90" y="60" width="10" height="10" fill="rgba(252, 252, 242, 1.0)" />
	<rect x="100" y="60" width="10" height="10" fill="rgba(252, 252, 242, 1.0)" />
	<rect x="110" y="60" width="10" height="10" fill="rgba(252, 252, 242, 1.0)" />
	<rect x="120" y="60" width="10" height="10" fill="rgba(252, 252, 242, 1.0)" />
	<rect x="130" y="60" width="10" height="10" fill="rgba(252, 252, 242, 1.0)" />
	<rect x="140" y="60" width="10" height="10" fill="rgba(133, 110, 54, 1.0)" />
	<rect x="150" y="60" width="10" height="10" fill="rgba(62, 41, 18, 1.0)" />
	<rect x="0" y="70" width="10" height="10" fill="rgba(41, 26, 12, 1.0)" />
	<rect x="10" y="70" width="10" height="10" fill="rgba(41, 26, 12, 1.0)" />
	<rect x="20" y="70" width="10" height="10" fill="rgba(48, 30, 14, 1.0)" />
	<rect x="30" y="70" width="10" height="10" fill="rgba(48, 30, 14, 1.0)" />
	<rect x="40" y="70" width="10" height="10" fill="rgba(58, 36, 17, 1.0)" />
	<rect x="50" y="70" width="10" height="10" fill="rgba(48, 30, 14, 1.0)" />
	<rect x="60" y="70" width="10" height="10" fill="rgba(41, 26, 12, 1.0)" />
	<rect x="70" y="70" width="10" height="10" fill="rgba(41, 26, 12, 1.0)" />
	<rect x="80" y="70" width="10" height="10" fill="rgba(188, 161, 96, 1.0)" />
	<rect x="90" y="70" width="10" height="10" fill="rgba(252, 252, 242, 1.0)" />
	<rect x="100" y="70" width="10" height="10" fill="rgba(188, 161, 96, 1.0)" />
	<rect x="110" y="70" width="10" height="10" fill="rgba(252, 252, 242, 1.0)" />
	<rect x="120" y="70" width="10" height="10" fill="rgba(249, 232, 191, 1.0)" />
	<rect x="130" y="70" width="10" height="10" fill="rgba(252, 252, 242, 1.0)" />
	<rect x="140" y="70" width="10" height="10" fill="rgba(133, 110, 54, 1.0)" />
	<rect x="150" y="70" width="10" height="10" fill="rgba(41, 26, 12, 1.0)" />
	<rect x="0" y="80" width="10" height="10" fill="rgba(79, 50, 24, 1.0)" />
	<rect x="10" y="80" width="10" height="10" fill="rgba(83, 56, 26, 1.0)" />
	<rect x="20" y="80" width="10" height="10" fill="rgba(83, 56, 26, 1.0)" />
	<rect x="30" y="80" width="10" height="10" fill="rgba(79, 50, 24, 1.0)" />
	<rect x="40" y="80" width="10" height="10" fill="rgba(73, 47, 23, 1.0)" />
	<rect x="50" y="80" width="10" height="10" fill="rgba(73, 47, 23, 1.0)" />
	<rect x="60" y="80" width="10" height="10" fill="rgba(83, 56, 26, 1.0)" />
	<rect x="70" y="80" width="10" height="10" fill="rgba(83, 56, 26, 1.0)" />
	<rect x="80" y="80" width="10" height="10" fill="rgba(188, 161, 96, 1.0)" />
	<rect x="90" y="80" width="10" height="10" fill="rgba(252, 252, 242, 1.0)" />
	<rect x="100" y="80" width="10" height="10" fill="rgba(249, 232, 191, 1.0)" />
	<rect x="110" y="80" width="10" height="10" fill="rgba(252, 252, 242, 1.0)" />
	<rect x="120" y="80" width="10" height="10" fill="rgba(133, 110, 54, 1.0)" />
	<rect x="130" y="80" width="10" height="10" fill="rgba(249, 232, 191, 1.0)" />
	<rect x="140" y="80" width="10" height="10" fill="rgba(133, 110, 54, 1.0)" />
	<rect x="150" y="80" width="10" height="10" fill="rgba(62, 41, 18, 1.0)" />
	<rect x="0" y="90" width="10" height="10" fill="rgba(79, 50, 24, 1.0)" />
	<rect x="10" y="90" width="10" height="10" fill="rgba(73, 47, 23, 1.0)" />
	<rect x="20" y="90" width="10" height="10" fill="rgba(79, 50, 24, 1.0)" />
	<rect x="30" y="90" width="10" height="10" fill="rgba(79, 50, 24, 1.0)" />
	<rect x="40" y="90" width="10" height="10" fill="rgba(79, 50, 24, 1.0)" />
	<rect x="50" y="90" width="10" height="10" fill="rgba(79, 50, 24, 1.0)" />
	<rect x="60" y="90" width="10" height="10" fill="rgba(73, 47, 23, 1.0)" />
	<rect x="70" y="90" width="10" height="10" fill="rgba(62, 41, 18, 1.0)" />
	<rect x="80" y="90" width="10" height="10" fill="rgba(188, 161, 96, 1.0)" />
	<rect x="90" y="90" width="10" height="10" fill="rgba(249, 232, 191, 1.0)" />
	<rect x="100" y="90" width="10" height="10" fill="rgba(249, 232, 191, 1.0)" />
	<rect x="110" y="90" width="10" height="10" fill="rgba(249, 232, 191, 1.0)" />
	<rect x="120" y="90" width="10" height="10" fill="rgba(249, 232, 191, 1.0)" />
	<rect x="130" y="90" width="10" height="10" fill="rgba(249, 232, 191, 1.0)" />
	<rect x="140" y="90" width="10" height="10" fill="rgba(133, 110, 54, 1.0)" />
	<rect x="150" y="90" width="10" height="10" fill="rgba(58, 36, 17, 1.0)" />
	<rect x="0" y="100" width="10" height="10" fill="rgba(48, 30, 14, 1.0)" />
	<rect x="10" y="100" width="10" height="10" fill="rgba(48, 30, 14, 1.0)" />
	<rect x="20" y="100" width="10" height="10" fill="rgba(48, 30, 14, 1.0)" />
	<rect x="30" y="100" width="10" height="10" fill="rgba(41, 26, 12, 1.0)" />
	<rect x="40" y="100" width="10" height="10" fill="rgba(48, 30, 14, 1.0)" />
	<rect x="50" y="100" width="10" height="10" fill="rgba(48, 30, 14, 1.0)" />
	<rect x="60" y="100" width="10" height="10" fill="rgba(62, 41, 18, 1.0)" />
	<rect x="70" y="100" width="10" height="10" fill="rgba(62, 41, 18, 1.0)" />
	<rect x="80" y="100" width="10" height="10" fill="rgba(188, 161, 96, 1.0)" />
	<rect x="90" y="100" width="10" height="10" fill="rgba(249, 232, 191, 1.0)" />
	<rect x="100" y="100" width="10" height="10" fill="rgba(249, 232, 191, 1.0)" />
	<rect x="110" y="100" width="10" height="10" fill="rgba(249, 232, 191, 1.0)" />
	<rect x="120" y="100" width="10" height="10" fill="rgba(188, 161, 96, 1.0)" />
	<rect x="130" y="100" width="10" height="10" fill="rgba(133, 110, 54, 1.0)" />
	<rect x="140" y="100" width="10" height="10" fill="rgba(83, 56, 26, 1.0)" />
	<rect x="150" y="100" width="10" height="10" fill="rgba(62, 41, 18, 1.0)" />
	<rect x="0" y="110" width="10" height="10" fill="rgba(54, 54, 216, 1.0)" />
	<rect x="10" y="110" width="10" height="10" fill="rgba(0, 104, 0, 1.0)" />
	<rect x="20" y="110" width="10" height="10" fill="rgba(0, 85, 0, 1.0)" />
	<rect x="30" y="110" width="10" height="10" fill="rgba(63, 63, 250, 1.0)" />
	<rect x="40" y="110" width="10" height="10" fill="rgba(44, 44, 176, 1.0)" />
	<rect x="50" y="110" width="10" height="10" fill="rgba(48, 30, 14, 1.0)" />
	<rect x="60" y="110" width="10" height="10" fill="rgba(41, 26, 12, 1.0)" />
	<rect x="70" y="110" width="10" height="10" fill="rgba(41, 26, 12, 1.0)" />
	<rect x="80" y="110" width="10" height="10" fill="rgba(83, 56, 26, 1.0)" />
	<rect x="90" y="110" width="10" height="10" fill="rgba(133, 110, 54, 1.0)" />
	<rect x="100" y="110" width="10" height="10" fill="rgba(133, 110, 54, 1.0)" />
	<rect x="110" y="110" width="10" height="10" fill="rgba(133, 110, 54, 1.0)" />
	<rect x="120" y="110" width="10" height="10" fill="rgba(83, 56, 26, 1.0)" />
	<rect x="130" y="110" width="10" height="10" fill="rgba(48, 30, 14, 1.0)" />
	<rect x="140" y="110" width="10" height="10" fill="rgba(41, 26, 12, 1.0)" />
	<rect x="150" y="110" width="10" height="10" fill="rgba(41, 26, 12, 1.0)" />
	<rect x="0" y="120" width="10" height="10" fill="rgba(44, 44, 176, 1.0)" />
	<rect x="10" y="120" width="10" height="10" fill="rgba(0, 104, 0, 1.0)" />
	<rect x="20" y="120" width="10" height="10" fill="rgba(107, 150, 47, 1.0)" />
	<rect x="30" y="120" width="10" height="10" fill="rgba(87, 123, 38, 1.0)" />
	<rect x="40" y="120" width="10" height="10" fill="rgba(63, 63, 250, 1.0)" />
	<rect x="50" y="120" width="10" height="10" fill="rgba(41, 26, 12, 1.0)" />
	<rect x="60" y="120" width="10" height="10" fill="rgba(79, 50, 24, 1.0)" />
	<rect x="70" y="120" width="10" height="10" fill="rgba(62, 41, 18, 1.0)" />
	<rect x="80" y="120" width="10" height="10" fill="rgba(83, 56, 26, 1.0)" />
	<rect x="90" y="120" width="10" height="10" fill="rgba(83, 56, 26, 1.0)" />
	<rect x="100" y="120" width="10" height="10" fill="rgba(73, 47, 23, 1.0)" />
	<rect x="110" y="120" width="10" height="10" fill="rgba(62, 41, 18, 1.0)" />
	<rect x="120" y="120" width="10" height="10" fill="rgba(73, 47, 23, 1.0)" />
	<rect x="130" y="120" width="10" height="10" fill="rgba(79, 50, 24, 1.0)" />
	<rect x="140" y="120" width="10" height="10" fill="rgba(83, 56, 26, 1.0)" />
	<rect x="150" y="120" width="10" height="10" fill="rgba(83, 56, 26, 1.0)" />
	<rect x="0" y="130" width="10" height="10" fill="rgba(54, 54, 216, 1.0)" />
	<rect x="10" y="130" width="10" height="10" fill="rgba(63, 63, 250, 1.0)" />
	<rect x="20" y="130" width="10" height="10" fill="rgba(87, 123, 38, 1.0)" />
	<rect x="30" y="130" width="10" height="10" fill="rgba(124, 175, 55, 1.0)" />
	<rect x="40" y="130" width="10" height="10" fill="rgba(87, 123, 38, 1.0)" />
	<rect x="50" y="130" width="10" height="10" fill="rgba(41, 26, 12, 1.0)" />
	<rect x="60" y="130" width="10" height="10" fill="rgba(73, 47, 23, 1.0)" />
	<rect x="70" y="130" width="10" height="10" fill="rgba(62, 41, 18, 1.0)" />
	<rect x="80" y="130" width="10" height="10" fill="rgba(62, 41, 18, 1.0)" />
	<rect x="90" y="130" width="10" height="10" fill="rgba(79, 50, 24, 1.0)" />
	<rect x="100" y="130" width="10" height="10" fill="rgba(79, 50, 24, 1.0)" />
	<rect x="110" y="130" width="10" height="10" fill="rgba(73, 47, 23, 1.0)" />
	<rect x="120" y="130" width="10" height="10" fill="rgba(79, 50, 24, 1.0)" />
	<rect x="130" y="130" width="10" height="10" fill="rgba(73, 47, 23, 1.0)" />
	<rect x="140" y="130" width="10" height="10" fill="rgba(73, 47, 23, 1.0)" />
	<rect x="150" y="130" width="10" height="10" fill="rgba(73, 47, 23, 1.0)" />
	<rect x="0" y="140" width="10" height="10" fill="rgba(63, 63, 250, 1.0)" />
	<rect x="10" y="140" width="10" height="10" fill="rgba(63, 63, 250, 1.0)" />
	<rect x="20" y="140" width="10" height="10" fill="rgba(63, 63, 250, 1.0)" />
	<rect x="30" y="140" width="10" height="10" fill="rgba(0, 104, 0, 1.0)" />
	<rect x="40" y="140" width="10" height="10" fill="rgba(0, 85, 0, 1.0)" />
	<rect x="50" y="140" width="10" height="10" fill="rgba(48, 30, 14, 1.0)" />
	<rect x="60" y="140" width="10" height="10" fill="rgba(62, 41, 18, 1.0)" />
	<rect x="70" y="140" width="10" height="10" fill="rgba(58, 36, 17, 1.0)" />
	<rect x="80" y="140" width="10" height="10" fill="rgba(79, 50, 24, 1.0)" />
	<rect x="90" y="140" width="10" height="10" fill="rgba(79, 50, 24, 1.0)" />
	<rect x="100" y="140" width="10" height="10" fill="rgba(73, 47, 23, 1.0)" />
	<rect x="110" y="140" width="10" height="10" fill="rgba(62, 41, 18, 1.0)" />
	<rect x="120" y="140" width="10" height="10" fill="rgba(62, 41, 18, 1.0)" />
	<rect x="130" y="140" width="10" height="10" fill="rgba(62, 41, 18, 1.0)" />
	<rect x="140" y="140" width="10" height="10" fill="rgba(62, 41, 18, 1.0)" />
	<rect x="150" y="140" width="10" height="10" fill="rgba(62, 41, 18, 1.0)" />
	<rect x="0" y="150" width="10" height="10" fill="rgba(0, 85, 0, 1.0)" />
	<rect x="10" y="150" width="10" height="10" fill="rgba(0, 85, 0, 1.0)" />
	<rect x="20" y="150" width="10" height="10" fill="rgba(63, 63, 250, 1.0)" />
	<rect x="30" y="150" width="10" height="10" fill="rgba(63, 63, 250, 1.0)" />
	<rect x="40" y="150" width="10" height="10" fill="rgba(0, 104, 0, 1.0)" />
	<rect x="50" y="150" width="10" height="10" fill="rgba(48, 30, 14, 1.0)" />
	<rect x="60" y="150" width="10" height="10" fill="rgba(58, 36, 17, 1.0)" />
	<rect x="70" y="150" width="10" height="10" fill="rgba(58, 36, 17, 1.0)" />
	<rect x="80" y="150" width="10" height="10" fill="rgba(58, 36, 17, 1.0)" />
	<rect x="90" y="150" width="10" height="10" fill="rgba(48, 30, 14, 1.0)" />
	<rect x="100" y="150" width="10" height="10" fill="rgba(41, 26, 12, 1.0)" />
	<rect x="110" y="150" width="10" height="10" fill="rgba(48, 30, 14, 1.0)" />
	<rect x="120" y="150" width="10" height="10" fill="rgba(41, 26, 12, 1.0)" />
	<rect x="130" y="150" width="10" height="10" fill="rgba(41, 26, 12, 1.0)" />
	<rect x="140" y="150" width="10" height="10" fill="rgba(41, 26, 12, 1.0)" />
	<rect x="150" y="150" width="10" height="10" fill="rgba(41, 26, 12, 1.0)" />
</svg>