<svg xmlns="http://www.w3.org/2000/svg" xmlns:xlink="http://www.w3.org/1999/xlink">
	<rect x="0" y="0" width="10" height="10" fill="rgba(185, 133, 92, 1.0)" />
	<rect x="10" y="0" width="10" height="10" fill="rgba(150, 108, 74, 1.0)" />
	<rect x="20" y="0" width="10" height="10" fill="rgba(148, 106, 73, 1.0)" />
	<rect x="30" y="0" width="10" height="10" fill="rgba(121, 85, 58, 1.0)" />
	<rect x="40" y="0" width="10" height="10" fill="rgba(121, 85, 58, 1.0)" />
	<rect x="50" y="0" width="10" height="10" fill="rgba(185, 133, 92, 1.0)" />
	<rect x="60" y="0" width="10" height="10" fill="rgba(82, 59, 40, 1.0)" />
	<rect x="70" y="0" width="10" height="10" fill="rgba(150, 108, 74, 1.0)" />
	<rect x="80" y="0" width="10" height="10" fill="rgba(92, 65, 44, 1.0)" />
	<rect x="90" y="0" width="10" height="10" fill="rgba(121, 85, 58, 1.0)" />
	<rect x="100" y="0" width="10" height="10" fill="rgba(48, 33, 22, 1.0)" />
	<rect x="110" y="0" width="10" height="10" fill="rgba(121, 85, 58, 1.0)" />
	<rect x="120" y="0" width="10" height="10" fill="rgba(66, 46, 31, 1.0)" />
	<rect x="130" y="0" width="10" height="10" fill="rgba(185, 133, 92, 1.0)" />
	<rect x="140" y="0" width="10" height="10" fill="rgba(102, 72, 48, 1.0)" />
	<rect x="150" y="0" width="10" height="10" fill="rgba(185, 133, 92, 1.0)" />
	<rect x="0" y="10" width="10" height="10" fill="rgba(121, 85, 58, 1.0)" />
	<rect x="10" y="10" width="10" height="10" fill="rgba(150, 108, 74, 1.0)" />
	<rect x="20" y="10" width="10" height="10" fill="rgba(83, 57, 38, 1.0)" />
	<rect x="30" y="10" width="10" height="10" fill="rgba(111, 78, 53, 1.0)" />
	<rect x="40" y="10" width="10" height="10" fill="rgba(121, 85, 58, 1.0)" />
	<rect x="50" y="10" width="10" height="10" fill="rgba(135, 97, 66, 1.0)" />
	<rect x="60" y="10" width="10" height="10" fill="rgba(103, 103, 103, 1.0)" />
	<rect x="70" y="10" width="10" height="10" fill="rgba(89, 61, 41, 1.0)" />
	<rect x="80" y="10" width="10" height="10" fill="rgba(121, 85, 58, 1.0)" />
	<rect x="90" y="10" width="10" height="10" fill="rgba(185, 133, 92, 1.0)" />
	<rect x="100" y="10" width="10" height="10" fill="rgba(82, 59, 40, 1.0)" />
	<rect x="110" y="10" width="10" height="10" fill="rgba(121, 85, 58, 1.0)" />
	<rect x="120" y="10" width="10" height="10" fill="rgba(163, 117, 81, 1.0)" />
	<rect x="130" y="10" width="10" height="10" fill="rgba(150, 108, 74, 1.0)" />
	<rect x="140" y="10" width="10" height="10" fill="rgba(89, 61, 41, 1.0)" />
	<rect x="150" y="10" width="10" height="10" fill="rgba(89, 61, 41, 1.0)" />
	<rect x="0" y="20" width="10" height="10" fill="rgba(185, 133, 92, 1.0)" />
	<rect x="10" y="20" width="10" height="10" fill="rgba(79, 55, 37, 1.0)" />
	<rect x="20" y="20" width="10" height="10" fill="rgba(121, 85, 58, 1.0)" />
	<rect x="30" y="20" width="10" height="10" fill="rgba(68, 46, 31, 1.0)" />
	<rect x="40" y="20" width="10" height="10" fill="rgba(149, 107, 74, 1.0)" />
	<rect x="50" y="20" width="10" height="10" fill="rgba(92, 65, 44, 1.0)" />
	<rect x="60" y="20" width="10" height="10" fill="rgba(66, 46, 31, 1.0)" />
	<rect x="70" y="20" width="10" height="10" fill="rgba(121, 85, 58, 1.0)" />
	<rect x="80" y="20" width="10" height="10" fill="rgba(100, 72, 50, 1.0)" />
	<rect x="90" y="20" width="10" height="10" fill="rgba(66, 46, 31, 1.0)" />
	<rect x="100" y="20" width="10" height="10" fill="rgba(92, 65, 44, 1.0)" />
	<rect x="110" y="20" width="10" height="10" fill="rgba(121, 85, 58, 1.0)" />
	<rect x="120" y="20" width="10" height="10" fill="rgba(83, 57, 38, 1.0)" />
	<rect x="130" y="20" width="10" height="10" fill="rgba(88, 60, 40, 1.0)" />
	<rect x="140" y="20" width="10" height="10" fill="rgba(185, 133, 92, 1.0)" />
	<rect x="150" y="20" width="10" height="10" fill="rgba(121, 85, 58, 1.0)" />
	<rect x="0" y="30" width="10" height="10" fill="rgba(150, 108, 74, 1.0)" />
	<rect x="10" y="30" width="10" height="10" fill="rgba(103, 103, 103, 1.0)" />
	<rect x="20" y="30" width="10" height="10" fill="rgba(185, 133, 92, 1.0)" />
	<rect x="30" y="30" width="10" height="10" fill="rgba(84, 59, 40, 1.0)" />
	<rect x="40" y="30" width="10" height="10" fill="rgba(150, 108, 74, 1.0)" />
	<rect x="50" y="30" width="10" height="10" fill="rgba(89, 61, 41, 1.0)" />
	<rect x="60" y="30" width="10" height="10" fill="rgba(94, 66, 45, 1.0)" />
	<rect x="70" y="30" width="10" height="10" fill="rgba(152, 109, 75, 1.0)" />
	<rect x="80" y="30" width="10" height="10" fill="rgba(121, 87, 59, 1.0)" />
	<rect x="90" y="30" width="10" height="10" fill="rgba(114, 82, 56, 1.0)" />
	<rect x="100" y="30" width="10" height="10" fill="rgba(121, 85, 58, 1.0)" />
	<rect x="110" y="30" width="10" height="10" fill="rgba(150, 108, 74, 1.0)" />
	<rect x="120" y="30" width="10" height="10" fill="rgba(121, 85, 58, 1.0)" />
	<rect x="130" y="30" width="10" height="10" fill="rgba(100, 72, 50, 1.0)" />
	<rect x="140" y="30" width="10" height="10" fill="rgba(150, 108, 74, 1.0)" />
	<rect x="150" y="30" width="10" height="10" fill="rgba(121, 85, 58, 1.0)" />
	<rect x="0" y="40" width="10" height="10" fill="rgba(147, 106, 72, 1.0)" />
	<rect x="10" y="40" width="10" height="10" fill="rgba(78, 55, 37, 1.0)" />
	<rect x="20" y="40" width="10" height="10" fill="rgba(134, 97, 66, 1.0)" />
	<rect x="30" y="40" width="10" height="10" fill="rgba(144, 104, 71, 1.0)" />
	<rect x="40" y="40" width="10" height="10" fill="rgba(85, 58, 39, 1.0)" />
	<rect x="50" y="40" width="10" height="10" fill="rgba(150, 108, 74, 1.0)" />
	<rect x="60" y="40" width="10" height="10" fill="rgba(95, 66, 45, 1.0)" />
	<rect x="70" y="40" width="10" height="10" fill="rgba(121, 85, 58, 1.0)" />
	<rect x="80" y="40" width="10" height="10" fill="rgba(150, 108, 74, 1.0)" />
	<rect x="90" y="40" width="10" height="10" fill="rgba(74, 51, 34, 1.0)" />
	<rect x="100" y="40" width="10" height="10" fill="rgba(111, 78, 53, 1.0)" />
	<rect x="110" y="40" width="10" height="10" fill="rgba(108, 108, 108, 1.0)" />
	<rect x="120" y="40" width="10" height="10" fill="rgba(121, 85, 58, 1.0)" />
	<rect x="130" y="40" width="10" height="10" fill="rgba(144, 104, 71, 1.0)" />
	<rect x="140" y="40" width="10" height="10" fill="rgba(60, 41, 27, 1.0)" />
	<rect x="150" y="40" width="10" height="10" fill="rgba(121, 85, 58, 1.0)" />
	<rect x="0" y="50" width="10" height="10" fill="rgba(120, 84, 57, 1.0)" />
	<rect x="10" y="50" width="10" height="10" fill="rgba(69, 47, 32, 1.0)" />
	<rect x="20" y="50" width="10" height="10" fill="rgba(150, 108, 74, 1.0)" />
	<rect x="30" y="50" width="10" height="10" fill="rgba(150, 108, 74, 1.0)" />
	<rect x="40" y="50" width="10" height="10" fill="rgba(121, 85, 58, 1.0)" />
	<rect x="50" y="50" width="10" height="10" fill="rgba(150, 108, 74, 1.0)" />
	<rect x="60" y="50" width="10" height="10" fill="rgba(59, 41, 27, 1.0)" />
	<rect x="70" y="50" width="10" height="10" fill="rgba(89, 61, 41, 1.0)" />
	<rect x="80" y="50" width="10" height="10" fill="rgba(89, 61, 41, 1.0)" />
	<rect x="90" y="50" width="10" height="10" fill="rgba(116, 81, 55, 1.0)" />
	<rect x="100" y="50" width="10" height="10" fill="rgba(120, 84, 57, 1.0)" />
	<rect x="110" y="50" width="10" height="10" fill="rgba(121, 85, 58, 1.0)" />
	<rect x="120" y="50" width="10" height="10" fill="rgba(92, 65, 44, 1.0)" />
	<rect x="130" y="50" width="10" height="10" fill="rgba(121, 85, 58, 1.0)" />
	<rect x="140" y="50" width="10" height="10" fill="rgba(111, 78, 53, 1.0)" />
	<rect x="150" y="50" width="10" height="10" fill="rgba(100, 72, 50, 1.0)" />
	<rect x="0" y="60" width="10" height="10" fill="rgba(185, 133, 92, 1.0)" />
	<rect x="10" y="60" width="10" height="10" fill="rgba(121, 85, 58, 1.0)" />
	<rect x="20" y="60" width="10" height="10" fill="rgba(121, 85, 58, 1.0)" />
	<rect x="30" y="60" width="10" height="10" fill="rgba(121, 85, 58, 1.0)" />
	<rect x="40" y="60" width="10" height="10" fill="rgba(84, 84, 84, 1.0)" />
	<rect x="50" y="60" width="10" height="10" fill="rgba(118, 83, 56, 1.0)" />
	<rect x="60" y="60" width="10" height="10" fill="rgba(120, 84, 57, 1.0)" />
	<rect x="70" y="60" width="10" height="10" fill="rgba(185, 133, 92, 1.0)" />
	<rect x="80" y="60" width="10" height="10" fill="rgba(185, 133, 92, 1.0)" />
	<rect x="90" y="60" width="10" height="10" fill="rgba(120, 84, 57, 1.0)" />
	<rect x="100" y="60" width="10" height="10" fill="rgba(139, 100, 69, 1.0)" />
	<rect x="110" y="60" width="10" height="10" fill="rgba(182, 131, 90, 1.0)" />
	<rect x="120" y="60" width="10" height="10" fill="rgba(110, 77, 52, 1.0)" />
	<rect x="130" y="60" width="10" height="10" fill="rgba(150, 108, 74, 1.0)" />
	<rect x="140" y="60" width="10" height="10" fill="rgba(121, 85, 58, 1.0)" />
	<rect x="150" y="60" width="10" height="10" fill="rgba(114, 82, 56, 1.0)" />
	<rect x="0" y="70" width="10" height="10" fill="rgba(101, 71, 48, 1.0)" />
	<rect x="10" y="70" width="10" height="10" fill="rgba(121, 85, 58, 1.0)" />
	<rect x="20" y="70" width="10" height="10" fill="rgba(185, 133, 92, 1.0)" />
	<rect x="30" y="70" width="10" height="10" fill="rgba(100, 72, 50, 1.0)" />
	<rect x="40" y="70" width="10" height="10" fill="rgba(114, 82, 56, 1.0)" />
	<rect x="50" y="70" width="10" height="10" fill="rgba(136, 98, 67, 1.0)" />
	<rect x="60" y="70" width="10" height="10" fill="rgba(113, 79, 54, 1.0)" />
	<rect x="70" y="70" width="10" height="10" fill="rgba(66, 46, 31, 1.0)" />
	<rect x="80" y="70" width="10" height="10" fill="rgba(150, 108, 74, 1.0)" />
	<rect x="90" y="70" width="10" height="10" fill="rgba(87, 60, 40, 1.0)" />
	<rect x="100" y="70" width="10" height="10" fill="rgba(126, 91, 62, 1.0)" />
	<rect x="110" y="70" width="10" height="10" fill="rgba(120, 84, 57, 1.0)" />
	<rect x="120" y="70" width="10" height="10" fill="rgba(121, 85, 58, 1.0)" />
	<rect x="130" y="70" width="10" height="10" fill="rgba(121, 85, 58, 1.0)" />
	<rect x="140" y="70" width="10" height="10" fill="rgba(150, 108, 74, 1.0)" />
	<rect x="150" y="70" width="10" height="10" fill="rgba(150, 108, 74, 1.0)" />
	<rect x="0" y="80" width="10" height="10" fill="rgba(130, 94, 64, 1.0)" />
	<rect x="10" y="80" width="10" height="10" fill="rgba(119, 83, 57, 1.0)" />
	<rect x="20" y="80" width="10" height="10" fill="rgba(82, 57, 39, 1.0)" />
	<rect x="30" y="80" width="10" height="10" fill="rgba(114, 82, 56, 1.0)" />
	<rect x="40" y="80" width="10" height="10" fill="rgba(121, 85, 58, 1.0)" />
	<rect x="50" y="80" width="10" height="10" fill="rgba(112, 80, 55, 1.0)" />
	<rect x="60" y="80" width="10" height="10" fill="rgba(121, 85, 58, 1.0)" />
	<rect x="70" y="80" width="10" height="10" fill="rgba(68, 46, 31, 1.0)" />
	<rect x="80" y="80" width="10" height="10" fill="rgba(97, 68, 46, 1.0)" />
	<rect x="90" y="80" width="10" height="10" fill="rgba(125, 90, 61, 1.0)" />
	<rect x="100" y="80" width="10" height="10" fill="rgba(150, 108, 74, 1.0)" />
	<rect x="110" y="80" width="10" height="10" fill="rgba(99, 69, 47, 1.0)" />
	<rect x="120" y="80" width="10" height="10" fill="rgba(121, 85, 58, 1.0)" />
	<rect x="130" y="80" width="10" height="10" fill="rgba(121, 85, 58, 1.0)" />
	<rect x="140" y="80" width="10" height="10" fill="rgba(89, 61, 41, 1.0)" />
	<rect x="150" y="80" width="10" height="10" fill="rgba(66, 46, 31, 1.0)" />
	<rect x="0" y="90" width="10" height="10" fill="rgba(121, 85, 58, 1.0)" />
	<rect x="10" y="90" width="10" height="10" fill="rgba(150, 108, 74, 1.0)" />
	<rect x="20" y="90" width="10" height="10" fill="rgba(69, 48, 32, 1.0)" />
	<rect x="30" y="90" width="10" height="10" fill="rgba(121, 85, 58, 1.0)" />
	<rect x="40" y="90" width="10" height="10" fill="rgba(66, 46, 31, 1.0)" />
	<rect x="50" y="90" width="10" height="10" fill="rgba(87, 60, 40, 1.0)" />
	<rect x="60" y="90" width="10" height="10" fill="rgba(89, 61, 41, 1.0)" />
	<rect x="70" y="90" width="10" height="10" fill="rgba(121, 85, 58, 1.0)" />
	<rect x="80" y="90" width="10" height="10" fill="rgba(121, 85, 58, 1.0)" />
	<rect x="90" y="90" width="10" height="10" fill="rgba(121, 85, 58, 1.0)" />
	<rect x="100" y="90" width="10" height="10" fill="rgba(121, 85, 58, 1.0)" />
	<rect x="110" y="90" width="10" height="10" fill="rgba(168, 120, 83, 1.0)" />
	<rect x="120" y="90" width="10" height="10" fill="rgba(184, 132, 91, 1.0)" />
	<rect x="130" y="90" width="10" height="10" fill="rgba(185, 133, 92, 1.0)" />
	<rect x="140" y="90" width="10" height="10" fill="rgba(66, 46, 31, 1.0)" />
	<rect x="150" y="90" width="10" height="10" fill="rgba(114, 82, 56, 1.0)" />
	<rect x="0" y="100" width="10" height="10" fill="rgba(66, 46, 31, 1.0)" />
	<rect x="10" y="100" width="10" height="10" fill="rgba(150, 108, 74, 1.0)" />
	<rect x="20" y="100" width="10" height="10" fill="rgba(120, 84, 57, 1.0)" />
	<rect x="30" y="100" width="10" height="10" fill="rgba(185, 133, 92, 1.0)" />
	<rect x="40" y="100" width="10" height="10" fill="rgba(174, 125, 86, 1.0)" />
	<rect x="50" y="100" width="10" height="10" fill="rgba(86, 60, 41, 1.0)" />
	<rect x="60" y="100" width="10" height="10" fill="rgba(185, 133, 92, 1.0)" />
	<rect x="70" y="100" width="10" height="10" fill="rgba(150, 108, 74, 1.0)" />
	<rect x="80" y="100" width="10" height="10" fill="rgba(71, 49, 33, 1.0)" />
	<rect x="90" y="100" width="10" height="10" fill="rgba(139, 100, 69, 1.0)" />
	<rect x="100" y="100" width="10" height="10" fill="rgba(185, 133, 92, 1.0)" />
	<rect x="110" y="100" width="10" height="10" fill="rgba(150, 108, 74, 1.0)" />
	<rect x="120" y="100" width="10" height="10" fill="rgba(114, 82, 56, 1.0)" />
	<rect x="130" y="100" width="10" height="10" fill="rgba(82, 59, 40, 1.0)" />
	<rect x="140" y="100" width="10" height="10" fill="rgba(103, 103, 103, 1.0)" />
	<rect x="150" y="100" width="10" height="10" fill="rgba(121, 85, 58, 1.0)" />
	<rect x="0" y="110" width="10" height="10" fill="rgba(126, 91, 62, 1.0)" />
	<rect x="10" y="110" width="10" height="10" fill="rgba(121, 85, 58, 1.0)" />
	<rect x="20" y="110" width="10" height="10" fill="rgba(121, 85, 58, 1.0)" />
	<rect x="30" y="110" width="10" height="10" fill="rgba(150, 108, 74, 1.0)" />
	<rect x="40" y="110" width="10" height="10" fill="rgba(150, 108, 74, 1.0)" />
	<rect x="50" y="110" width="10" height="10" fill="rgba(161, 116, 80, 1.0)" />
	<rect x="60" y="110" width="10" height="10" fill="rgba(101, 71, 48, 1.0)" />
	<rect x="70" y="110" width="10" height="10" fill="rgba(94, 67, 46, 1.0)" />
	<rect x="80" y="110" width="10" height="10" fill="rgba(99, 99, 99, 1.0)" />
	<rect x="90" y="110" width="10" height="10" fill="rgba(150, 108, 74, 1.0)" />
	<rect x="100" y="110" width="10" height="10" fill="rgba(126, 90, 62, 1.0)" />
	<rect x="110" y="110" width="10" height="10" fill="rgba(68, 46, 31, 1.0)" />
	<rect x="120" y="110" width="10" height="10" fill="rgba(89, 61, 41, 1.0)" />
	<rect x="130" y="110" width="10" height="10" fill="rgba(94, 67, 46, 1.0)" />
	<rect x="140" y="110" width="10" height="10" fill="rgba(121, 85, 58, 1.0)" />
	<rect x="150" y="110" width="10" height="10" fill="rgba(89, 61, 41, 1.0)" />
	<rect x="0" y="120" width="10" height="10" fill="rgba(121, 85, 58, 1.0)" />
	<rect x="10" y="120" width="10" height="10" fill="rgba(74, 51, 34, 1.0)" />
	<rect x="20" y="120" width="10" height="10" fill="rgba(150, 108, 74, 1.0)" />
	<rect x="30" y="120" width="10" height="10" fill="rgba(121, 85, 58, 1.0)" />
	<rect x="40" y="120" width="10" height="10" fill="rgba(112, 80, 55, 1.0)" />
	<rect x="50" y="120" width="10" height="10" fill="rgba(128, 92, 63, 1.0)" />
	<rect x="60" y="120" width="10" height="10" fill="rgba(185, 133, 92, 1.0)" />
	<rect x="70" y="120" width="10" height="10" fill="rgba(115, 81, 55, 1.0)" />
	<rect x="80" y="120" width="10" height="10" fill="rgba(82, 57, 39, 1.0)" />
	<rect x="90" y="120" width="10" height="10" fill="rgba(121, 85, 58, 1.0)" />
	<rect x="100" y="120" width="10" height="10" fill="rgba(101, 71, 48, 1.0)" />
	<rect x="110" y="120" width="10" height="10" fill="rgba(120, 84, 57, 1.0)" />
	<rect x="120" y="120" width="10" height="10" fill="rgba(121, 85, 58, 1.0)" />
	<rect x="130" y="120" width="10" height="10" fill="rgba(97, 68, 46, 1.0)" />
	<rect x="140" y="120" width="10" height="10" fill="rgba(184, 132, 91, 1.0)" />
	<rect x="150" y="120" width="10" height="10" fill="rgba(152, 109, 75, 1.0)" />
	<rect x="0" y="130" width="10" height="10" fill="rgba(121, 85, 58, 1.0)" />
	<rect x="10" y="130" width="10" height="10" fill="rgba(114, 82, 56, 1.0)" />
	<rect x="20" y="130" width="10" height="10" fill="rgba(72, 50, 34, 1.0)" />
	<rect x="30" y="130" width="10" height="10" fill="rgba(101, 71, 48, 1.0)" />
	<rect x="40" y="130" width="10" height="10" fill="rgba(90, 68, 52, 1.0)" />
	<rect x="50" y="130" width="10" height="10" fill="rgba(121, 85, 58, 1.0)" />
	<rect x="60" y="130" width="10" height="10" fill="rgba(150, 108, 74, 1.0)" />
	<rect x="70" y="130" width="10" height="10" fill="rgba(150, 108, 74, 1.0)" />
	<rect x="80" y="130" width="10" height="10" fill="rgba(92, 65, 44, 1.0)" />
	<rect x="90" y="130" width="10" height="10" fill="rgba(55, 38, 25, 1.0)" />
	<rect x="100" y="130" width="10" height="10" fill="rgba(175, 125, 87, 1.0)" />
	<rect x="110" y="130" width="10" height="10" fill="rgba(74, 51, 34, 1.0)" />
	<rect x="120" y="130" width="10" height="10" fill="rgba(121, 85, 58, 1.0)" />
	<rect x="130" y="130" width="10" height="10" fill="rgba(185, 133, 92, 1.0)" />
	<rect x="140" y="130" width="10" height="10" fill="rgba(114, 82, 56, 1.0)" />
	<rect x="150" y="130" width="10" height="10" fill="rgba(114, 82, 56, 1.0)" />
	<rect x="0" y="140" width="10" height="10" fill="rgba(150, 108, 74, 1.0)" />
	<rect x="10" y="140" width="10" height="10" fill="rgba(121, 85, 58, 1.0)" />
	<rect x="20" y="140" width="10" height="10" fill="rgba(76, 52, 35, 1.0)" />
	<rect x="30" y="140" width="10" height="10" fill="rgba(185, 133, 92, 1.0)" />
	<rect x="40" y="140" width="10" height="10" fill="rgba(95, 66, 45, 1.0)" />
	<rect x="50" y="140" width="10" height="10" fill="rgba(48, 33, 22, 1.0)" />
	<rect x="60" y="140" width="10" height="10" fill="rgba(121, 85, 58, 1.0)" />
	<rect x="70" y="140" width="10" height="10" fill="rgba(89, 61, 41, 1.0)" />
	<rect x="80" y="140" width="10" height="10" fill="rgba(100, 72, 50, 1.0)" />
	<rect x="90" y="140" width="10" height="10" fill="rgba(162, 117, 80, 1.0)" />
	<rect x="100" y="140" width="10" height="10" fill="rgba(121, 85, 58, 1.0)" />
	<rect x="110" y="140" width="10" height="10" fill="rgba(137, 99, 67, 1.0)" />
	<rect x="120" y="140" width="10" height="10" fill="rgba(66, 46, 31, 1.0)" />
	<rect x="130" y="140" width="10" height="10" fill="rgba(66, 46, 31, 1.0)" />
	<rect x="140" y="140" width="10" height="10" fill="rgba(150, 108, 74, 1.0)" />
	<rect x="150" y="140" width="10" height="10" fill="rgba(150, 108, 74, 1.0)" />
	<rect x="0" y="150" width="10" height="10" fill="rgba(150, 108, 74, 1.0)" />
	<rect x="10" y="150" width="10" height="10" fill="rgba(121, 85, 58, 1.0)" />
	<rect x="20" y="150" width="10" height="10" fill="rgba(110, 79, 55, 1.0)" />
	<rect x="30" y="150" width="10" height="10" fill="rgba(150, 108, 74, 1.0)" />
	<rect x="40" y="150" width="10" height="10" fill="rgba(117, 84, 57, 1.0)" />
	<rect x="50" y="150" width="10" height="10" fill="rgba(92, 65, 44, 1.0)" />
	<rect x="60" y="150" width="10" height="10" fill="rgba(135, 135, 135, 1.0)" />
	<rect x="70" y="150" width="10" height="10" fill="rgba(121, 85, 58, 1.0)" />
	<rect x="80" y="150" width="10" height="10" fill="rgba(82, 59, 40, 1.0)" />
	<rect x="90" y="150" width="10" height="10" fill="rgba(150, 108, 74, 1.0)" />
	<rect x="100" y="150" width="10" height="10" fill="rgba(121, 85, 58, 1.0)" />
	<rect x="110" y="150" width="10" height="10" fill="rgba(121, 85, 58, 1.0)" />
	<rect x="120" y="150" width="10" height="10" fill="rgba(114, 82, 56, 1.0)" />
	<rect x="130" y="150" width="10" height="10" fill="rgba(114, 82, 56, 1.0)" />
	<rect x="140" y="150" width="10" height="10" fill="rgba(66, 46, 31, 1.0)" />
	<rect x="150" y="150" width="10" height="10" fill="rgba(89, 61, 41, 1.0)" />
</svg>