<svg xmlns="http://www.w3.org/2000/svg" xmlns:xlink="http://www.w3.org/1999/xlink">
	<rect x="0" y="0" width="10" height="10" fill="rgba(86, 90, 91, 1.0)" />
	<rect x="10" y="0" width="10" height="10" fill="rgba(85, 89, 90, 1.0)" />
	<rect x="20" y="0" width="10" height="10" fill="rgba(85, 89, 90, 1.0)" />
	<rect x="30" y="0" width="10" height="10" fill="rgba(85, 89, 90, 1.0)" />
	<rect x="40" y="0" width="10" height="10" fill="rgba(86, 89, 91, 1.0)" />
	<rect x="50" y="0" width="10" height="10" fill="rgba(87, 92, 92, 1.0)" />
	<rect x="60" y="0" width="10" height="10" fill="rgba(90, 95, 94, 1.0)" />
	<rect x="70" y="0" width="10" height="10" fill="rgba(89, 93, 93, 1.0)" />
	<rect x="80" y="0" width="10" height="10" fill="rgba(85, 90, 90, 1.0)" />
	<rect x="90" y="0" width="10" height="10" fill="rgba(90, 95, 93, 1.0)" />
	<rect x="100" y="0" width="10" height="10" fill="rgba(89, 94, 93, 1.0)" />
	<rect x="110" y="0" width="10" height="10" fill="rgba(86, 90, 90, 1.0)" />
	<rect x="120" y="0" width="10" height="10" fill="rgba(83, 87, 87, 1.0)" />
	<rect x="130" y="0" width="10" height="10" fill="rgba(83, 87, 87, 1.0)" />
	<rect x="140" y="0" width="10" height="10" fill="rgba(84, 88, 88, 1.0)" />
	<rect x="150" y="0" width="10" height="10" fill="rgba(86, 90, 90, 1.0)" />
	<rect x="0" y="10" width="10" height="10" fill="rgba(86, 90, 91, 1.0)" />
	<rect x="10" y="10" width="10" height="10" fill="rgba(86, 90, 90, 1.0)" />
	<rect x="20" y="10" width="10" height="10" fill="rgba(90, 94, 94, 1.0)" />
	<rect x="30" y="10" width="10" height="10" fill="rgba(91, 95, 95, 1.0)" />
	<rect x="40" y="10" width="10" height="10" fill="rgba(91, 92, 95, 1.0)" />
	<rect x="50" y="10" width="10" height="10" fill="rgba(87, 92, 96, 1.0)" />
	<rect x="60" y="10" width="10" height="10" fill="rgba(85, 91, 90, 1.0)" />
	<rect x="70" y="10" width="10" height="10" fill="rgba(86, 90, 90, 1.0)" />
	<rect x="80" y="10" width="10" height="10" fill="rgba(86, 91, 90, 1.0)" />
	<rect x="90" y="10" width="10" height="10" fill="rgba(87, 92, 91, 1.0)" />
	<rect x="100" y="10" width="10" height="10" fill="rgba(89, 95, 93, 1.0)" />
	<rect x="110" y="10" width="10" height="10" fill="rgba(88, 93, 92, 1.0)" />
	<rect x="120" y="10" width="10" height="10" fill="rgba(84, 88, 89, 1.0)" />
	<rect x="130" y="10" width="10" height="10" fill="rgba(86, 90, 90, 1.0)" />
	<rect x="140" y="10" width="10" height="10" fill="rgba(86, 90, 90, 1.0)" />
	<rect x="150" y="10" width="10" height="10" fill="rgba(85, 89, 90, 1.0)" />
	<rect x="0" y="20" width="10" height="10" fill="rgba(86, 91, 92, 1.0)" />
	<rect x="10" y="20" width="10" height="10" fill="rgba(82, 90, 90, 1.0)" />
	<rect x="20" y="20" width="10" height="10" fill="rgba(85, 91, 90, 1.0)" />
	<rect x="30" y="20" width="10" height="10" fill="rgba(86, 90, 90, 1.0)" />
	<rect x="40" y="20" width="10" height="10" fill="rgba(85, 88, 88, 1.0)" />
	<rect x="50" y="20" width="10" height="10" fill="rgba(83, 88, 88, 1.0)" />
	<rect x="60" y="20" width="10" height="10" fill="rgba(85, 88, 88, 1.0)" />
	<rect x="70" y="20" width="10" height="10" fill="rgba(86, 90, 90, 1.0)" />
	<rect x="80" y="20" width="10" height="10" fill="rgba(89, 92, 92, 1.0)" />
	<rect x="90" y="20" width="10" height="10" fill="rgba(86, 92, 92, 1.0)" />
	<rect x="100" y="20" width="10" height="10" fill="rgba(86, 92, 92, 1.0)" />
	<rect x="110" y="20" width="10" height="10" fill="rgba(86, 92, 92, 1.0)" />
	<rect x="120" y="20" width="10" height="10" fill="rgba(86, 91, 92, 1.0)" />
	<rect x="130" y="20" width="10" height="10" fill="rgba(88, 95, 92, 1.0)" />
	<rect x="140" y="20" width="10" height="10" fill="rgba(88, 92, 90, 1.0)" />
	<rect x="150" y="20" width="10" height="10" fill="rgba(87, 92, 88, 1.0)" />
	<rect x="0" y="30" width="10" height="10" fill="rgba(88, 92, 92, 1.0)" />
	<rect x="10" y="30" width="10" height="10" fill="rgba(89, 94, 93, 1.0)" />
	<rect x="20" y="30" width="10" height="10" fill="rgba(87, 92, 92, 1.0)" />
	<rect x="30" y="30" width="10" height="10" fill="rgba(86, 89, 89, 1.0)" />
	<rect x="40" y="30" width="10" height="10" fill="rgba(83, 88, 88, 1.0)" />
	<rect x="50" y="30" width="10" height="10" fill="rgba(83, 87, 88, 1.0)" />
	<rect x="60" y="30" width="10" height="10" fill="rgba(85, 89, 90, 1.0)" />
	<rect x="70" y="30" width="10" height="10" fill="rgba(90, 91, 91, 1.0)" />
	<rect x="80" y="30" width="10" height="10" fill="rgba(86, 91, 91, 1.0)" />
	<rect x="90" y="30" width="10" height="10" fill="rgba(86, 90, 91, 1.0)" />
	<rect x="100" y="30" width="10" height="10" fill="rgba(86, 90, 91, 1.0)" />
	<rect x="110" y="30" width="10" height="10" fill="rgba(86, 92, 91, 1.0)" />
	<rect x="120" y="30" width="10" height="10" fill="rgba(86, 91, 91, 1.0)" />
	<rect x="130" y="30" width="10" height="10" fill="rgba(86, 91, 91, 1.0)" />
	<rect x="140" y="30" width="10" height="10" fill="rgba(86, 90, 89, 1.0)" />
	<rect x="150" y="30" width="10" height="10" fill="rgba(86, 90, 88, 1.0)" />
	<rect x="0" y="40" width="10" height="10" fill="rgba(87, 92, 92, 1.0)" />
	<rect x="10" y="40" width="10" height="10" fill="rgba(91, 94, 93, 1.0)" />
	<rect x="20" y="40" width="10" height="10" fill="rgba(89, 93, 93, 1.0)" />
	<rect x="30" y="40" width="10" height="10" fill="rgba(89, 92, 92, 1.0)" />
	<rect x="40" y="40" width="10" height="10" fill="rgba(88, 92, 92, 1.0)" />
	<rect x="50" y="40" width="10" height="10" fill="rgba(82, 87, 87, 1.0)" />
	<rect x="60" y="40" width="10" height="10" fill="rgba(84, 88, 88, 1.0)" />
	<rect x="70" y="40" width="10" height="10" fill="rgba(85, 88, 88, 1.0)" />
	<rect x="80" y="40" width="10" height="10" fill="rgba(85, 88, 90, 1.0)" />
	<rect x="90" y="40" width="10" height="10" fill="rgba(85, 89, 90, 1.0)" />
	<rect x="100" y="40" width="10" height="10" fill="rgba(91, 95, 94, 1.0)" />
	<rect x="110" y="40" width="10" height="10" fill="rgba(91, 95, 94, 1.0)" />
	<rect x="120" y="40" width="10" height="10" fill="rgba(87, 91, 91, 1.0)" />
	<rect x="130" y="40" width="10" height="10" fill="rgba(86, 90, 91, 1.0)" />
	<rect x="140" y="40" width="10" height="10" fill="rgba(87, 92, 92, 1.0)" />
	<rect x="150" y="40" width="10" height="10" fill="rgba(86, 90, 90, 1.0)" />
	<rect x="0" y="50" width="10" height="10" fill="rgba(91, 94, 93, 1.0)" />
	<rect x="10" y="50" width="10" height="10" fill="rgba(87, 92, 92, 1.0)" />
	<rect x="20" y="50" width="10" height="10" fill="rgba(88, 92, 92, 1.0)" />
	<rect x="30" y="50" width="10" height="10" fill="rgba(86, 91, 92, 1.0)" />
	<rect x="40" y="50" width="10" height="10" fill="rgba(85, 89, 89, 1.0)" />
	<rect x="50" y="50" width="10" height="10" fill="rgba(87, 91, 91, 1.0)" />
	<rect x="60" y="50" width="10" height="10" fill="rgba(87, 91, 91, 1.0)" />
	<rect x="70" y="50" width="10" height="10" fill="rgba(86, 91, 91, 1.0)" />
	<rect x="80" y="50" width="10" height="10" fill="rgba(86, 91, 91, 1.0)" />
	<rect x="90" y="50" width="10" height="10" fill="rgba(86, 91, 91, 1.0)" />
	<rect x="100" y="50" width="10" height="10" fill="rgba(87, 92, 92, 1.0)" />
	<rect x="110" y="50" width="10" height="10" fill="rgba(88, 92, 92, 1.0)" />
	<rect x="120" y="50" width="10" height="10" fill="rgba(88, 92, 92, 1.0)" />
	<rect x="130" y="50" width="10" height="10" fill="rgba(87, 92, 92, 1.0)" />
	<rect x="140" y="50" width="10" height="10" fill="rgba(86, 90, 91, 1.0)" />
	<rect x="150" y="50" width="10" height="10" fill="rgba(91, 94, 93, 1.0)" />
	<rect x="0" y="60" width="10" height="10" fill="rgba(89, 92, 92, 1.0)" />
	<rect x="10" y="60" width="10" height="10" fill="rgba(88, 93, 92, 1.0)" />
	<rect x="20" y="60" width="10" height="10" fill="rgba(87, 92, 92, 1.0)" />
	<rect x="30" y="60" width="10" height="10" fill="rgba(86, 91, 92, 1.0)" />
	<rect x="40" y="60" width="10" height="10" fill="rgba(86, 90, 90, 1.0)" />
	<rect x="50" y="60" width="10" height="10" fill="rgba(85, 89, 90, 1.0)" />
	<rect x="60" y="60" width="10" height="10" fill="rgba(86, 90, 91, 1.0)" />
	<rect x="70" y="60" width="10" height="10" fill="rgba(91, 91, 93, 1.0)" />
	<rect x="80" y="60" width="10" height="10" fill="rgba(86, 89, 89, 1.0)" />
	<rect x="90" y="60" width="10" height="10" fill="rgba(85, 89, 90, 1.0)" />
	<rect x="100" y="60" width="10" height="10" fill="rgba(86, 90, 91, 1.0)" />
	<rect x="110" y="60" width="10" height="10" fill="rgba(88, 92, 91, 1.0)" />
	<rect x="120" y="60" width="10" height="10" fill="rgba(89, 94, 93, 1.0)" />
	<rect x="130" y="60" width="10" height="10" fill="rgba(89, 93, 92, 1.0)" />
	<rect x="140" y="60" width="10" height="10" fill="rgba(88, 92, 92, 1.0)" />
	<rect x="150" y="60" width="10" height="10" fill="rgba(85, 89, 89, 1.0)" />
	<rect x="0" y="70" width="10" height="10" fill="rgba(88, 92, 93, 1.0)" />
	<rect x="10" y="70" width="10" height="10" fill="rgba(86, 90, 90, 1.0)" />
	<rect x="20" y="70" width="10" height="10" fill="rgba(86, 90, 90, 1.0)" />
	<rect x="30" y="70" width="10" height="10" fill="rgba(85, 89, 90, 1.0)" />
	<rect x="40" y="70" width="10" height="10" fill="rgba(89, 92, 92, 1.0)" />
	<rect x="50" y="70" width="10" height="10" fill="rgba(89, 92, 92, 1.0)" />
	<rect x="60" y="70" width="10" height="10" fill="rgba(85, 89, 90, 1.0)" />
	<rect x="70" y="70" width="10" height="10" fill="rgba(89, 93, 92, 1.0)" />
	<rect x="80" y="70" width="10" height="10" fill="rgba(90, 93, 93, 1.0)" />
	<rect x="90" y="70" width="10" height="10" fill="rgba(86, 91, 91, 1.0)" />
	<rect x="100" y="70" width="10" height="10" fill="rgba(86, 90, 91, 1.0)" />
	<rect x="110" y="70" width="10" height="10" fill="rgba(86, 91, 91, 1.0)" />
	<rect x="120" y="70" width="10" height="10" fill="rgba(86, 91, 91, 1.0)" />
	<rect x="130" y="70" width="10" height="10" fill="rgba(87, 92, 92, 1.0)" />
	<rect x="140" y="70" width="10" height="10" fill="rgba(88, 92, 92, 1.0)" />
	<rect x="150" y="70" width="10" height="10" fill="rgba(88, 92, 92, 1.0)" />
	<rect x="0" y="80" width="10" height="10" fill="rgba(88, 92, 93, 1.0)" />
	<rect x="10" y="80" width="10" height="10" fill="rgba(89, 93, 93, 1.0)" />
	<rect x="20" y="80" width="10" height="10" fill="rgba(87, 93, 92, 1.0)" />
	<rect x="30" y="80" width="10" height="10" fill="rgba(83, 87, 88, 1.0)" />
	<rect x="40" y="80" width="10" height="10" fill="rgba(85, 90, 90, 1.0)" />
	<rect x="50" y="80" width="10" height="10" fill="rgba(85, 88, 88, 1.0)" />
	<rect x="60" y="80" width="10" height="10" fill="rgba(85, 90, 90, 1.0)" />
	<rect x="70" y="80" width="10" height="10" fill="rgba(85, 90, 90, 1.0)" />
	<rect x="80" y="80" width="10" height="10" fill="rgba(86, 90, 91, 1.0)" />
	<rect x="90" y="80" width="10" height="10" fill="rgba(87, 92, 92, 1.0)" />
	<rect x="100" y="80" width="10" height="10" fill="rgba(90, 93, 93, 1.0)" />
	<rect x="110" y="80" width="10" height="10" fill="rgba(89, 94, 92, 1.0)" />
	<rect x="120" y="80" width="10" height="10" fill="rgba(90, 93, 93, 1.0)" />
	<rect x="130" y="80" width="10" height="10" fill="rgba(90, 94, 94, 1.0)" />
	<rect x="140" y="80" width="10" height="10" fill="rgba(91, 95, 96, 1.0)" />
	<rect x="150" y="80" width="10" height="10" fill="rgba(86, 91, 91, 1.0)" />
	<rect x="0" y="90" width="10" height="10" fill="rgba(88, 92, 92, 1.0)" />
	<rect x="10" y="90" width="10" height="10" fill="rgba(86, 91, 91, 1.0)" />
	<rect x="20" y="90" width="10" height="10" fill="rgba(85, 90, 90, 1.0)" />
	<rect x="30" y="90" width="10" height="10" fill="rgba(85, 88, 88, 1.0)" />
	<rect x="40" y="90" width="10" height="10" fill="rgba(85, 88, 88, 1.0)" />
	<rect x="50" y="90" width="10" height="10" fill="rgba(85, 89, 90, 1.0)" />
	<rect x="60" y="90" width="10" height="10" fill="rgba(85, 90, 90, 1.0)" />
	<rect x="70" y="90" width="10" height="10" fill="rgba(85, 89, 90, 1.0)" />
	<rect x="80" y="90" width="10" height="10" fill="rgba(86, 91, 91, 1.0)" />
	<rect x="90" y="90" width="10" height="10" fill="rgba(86, 91, 90, 1.0)" />
	<rect x="100" y="90" width="10" height="10" fill="rgba(85, 90, 90, 1.0)" />
	<rect x="110" y="90" width="10" height="10" fill="rgba(85, 90, 90, 1.0)" />
	<rect x="120" y="90" width="10" height="10" fill="rgba(86, 92, 92, 1.0)" />
	<rect x="130" y="90" width="10" height="10" fill="rgba(86, 92, 92, 1.0)" />
	<rect x="140" y="90" width="10" height="10" fill="rgba(91, 96, 94, 1.0)" />
	<rect x="150" y="90" width="10" height="10" fill="rgba(89, 94, 95, 1.0)" />
	<rect x="0" y="100" width="10" height="10" fill="rgba(86, 90, 89, 1.0)" />
	<rect x="10" y="100" width="10" height="10" fill="rgba(87, 91, 91, 1.0)" />
	<rect x="20" y="100" width="10" height="10" fill="rgba(86, 91, 92, 1.0)" />
	<rect x="30" y="100" width="10" height="10" fill="rgba(85, 88, 88, 1.0)" />
	<rect x="40" y="100" width="10" height="10" fill="rgba(85, 88, 90, 1.0)" />
	<rect x="50" y="100" width="10" height="10" fill="rgba(91, 95, 94, 1.0)" />
	<rect x="60" y="100" width="10" height="10" fill="rgba(93, 95, 95, 1.0)" />
	<rect x="70" y="100" width="10" height="10" fill="rgba(85, 88, 87, 1.0)" />
	<rect x="80" y="100" width="10" height="10" fill="rgba(86, 92, 92, 1.0)" />
	<rect x="90" y="100" width="10" height="10" fill="rgba(88, 92, 92, 1.0)" />
	<rect x="100" y="100" width="10" height="10" fill="rgba(91, 95, 93, 1.0)" />
	<rect x="110" y="100" width="10" height="10" fill="rgba(90, 94, 94, 1.0)" />
	<rect x="120" y="100" width="10" height="10" fill="rgba(87, 91, 91, 1.0)" />
	<rect x="130" y="100" width="10" height="10" fill="rgba(86, 92, 90, 1.0)" />
	<rect x="140" y="100" width="10" height="10" fill="rgba(86, 90, 90, 1.0)" />
	<rect x="150" y="100" width="10" height="10" fill="rgba(85, 89, 90, 1.0)" />
	<rect x="0" y="110" width="10" height="10" fill="rgba(85, 88, 90, 1.0)" />
	<rect x="10" y="110" width="10" height="10" fill="rgba(86, 90, 90, 1.0)" />
	<rect x="20" y="110" width="10" height="10" fill="rgba(87, 91, 91, 1.0)" />
	<rect x="30" y="110" width="10" height="10" fill="rgba(85, 90, 90, 1.0)" />
	<rect x="40" y="110" width="10" height="10" fill="rgba(85, 89, 90, 1.0)" />
	<rect x="50" y="110" width="10" height="10" fill="rgba(87, 91, 91, 1.0)" />
	<rect x="60" y="110" width="10" height="10" fill="rgba(86, 92, 92, 1.0)" />
	<rect x="70" y="110" width="10" height="10" fill="rgba(86, 90, 92, 1.0)" />
	<rect x="80" y="110" width="10" height="10" fill="rgba(90, 93, 93, 1.0)" />
	<rect x="90" y="110" width="10" height="10" fill="rgba(91, 95, 93, 1.0)" />
	<rect x="100" y="110" width="10" height="10" fill="rgba(88, 92, 92, 1.0)" />
	<rect x="110" y="110" width="10" height="10" fill="rgba(88, 92, 92, 1.0)" />
	<rect x="120" y="110" width="10" height="10" fill="rgba(88, 92, 92, 1.0)" />
	<rect x="130" y="110" width="10" height="10" fill="rgba(89, 94, 92, 1.0)" />
	<rect x="140" y="110" width="10" height="10" fill="rgba(89, 93, 93, 1.0)" />
	<rect x="150" y="110" width="10" height="10" fill="rgba(86, 91, 91, 1.0)" />
	<rect x="0" y="120" width="10" height="10" fill="rgba(85, 88, 90, 1.0)" />
	<rect x="10" y="120" width="10" height="10" fill="rgba(85, 90, 90, 1.0)" />
	<rect x="20" y="120" width="10" height="10" fill="rgba(86, 90, 91, 1.0)" />
	<rect x="30" y="120" width="10" height="10" fill="rgba(86, 90, 90, 1.0)" />
	<rect x="40" y="120" width="10" height="10" fill="rgba(86, 91, 90, 1.0)" />
	<rect x="50" y="120" width="10" height="10" fill="rgba(86, 89, 89, 1.0)" />
	<rect x="60" y="120" width="10" height="10" fill="rgba(85, 89, 90, 1.0)" />
	<rect x="70" y="120" width="10" height="10" fill="rgba(85, 90, 90, 1.0)" />
	<rect x="80" y="120" width="10" height="10" fill="rgba(91, 96, 96, 1.0)" />
	<rect x="90" y="120" width="10" height="10" fill="rgba(93, 92, 92, 1.0)" />
	<rect x="100" y="120" width="10" height="10" fill="rgba(86, 90, 90, 1.0)" />
	<rect x="110" y="120" width="10" height="10" fill="rgba(84, 88, 89, 1.0)" />
	<rect x="120" y="120" width="10" height="10" fill="rgba(85, 89, 89, 1.0)" />
	<rect x="130" y="120" width="10" height="10" fill="rgba(86, 92, 90, 1.0)" />
	<rect x="140" y="120" width="10" height="10" fill="rgba(86, 91, 91, 1.0)" />
	<rect x="150" y="120" width="10" height="10" fill="rgba(87, 92, 92, 1.0)" />
	<rect x="0" y="130" width="10" height="10" fill="rgba(86, 92, 92, 1.0)" />
	<rect x="10" y="130" width="10" height="10" fill="rgba(87, 92, 92, 1.0)" />
	<rect x="20" y="130" width="10" height="10" fill="rgba(87, 92, 92, 1.0)" />
	<rect x="30" y="130" width="10" height="10" fill="rgba(89, 94, 93, 1.0)" />
	<rect x="40" y="130" width="10" height="10" fill="rgba(86, 92, 92, 1.0)" />
	<rect x="50" y="130" width="10" height="10" fill="rgba(88, 96, 95, 1.0)" />
	<rect x="60" y="130" width="10" height="10" fill="rgba(86, 90, 89, 1.0)" />
	<rect x="70" y="130" width="10" height="10" fill="rgba(85, 88, 88, 1.0)" />
	<rect x="80" y="130" width="10" height="10" fill="rgba(86, 90, 90, 1.0)" />
	<rect x="90" y="130" width="10" height="10" fill="rgba(86, 89, 89, 1.0)" />
	<rect x="100" y="130" width="10" height="10" fill="rgba(82, 89, 86, 1.0)" />
	<rect x="110" y="130" width="10" height="10" fill="rgba(85, 89, 90, 1.0)" />
	<rect x="120" y="130" width="10" height="10" fill="rgba(86, 89, 89, 1.0)" />
	<rect x="130" y="130" width="10" height="10" fill="rgba(87, 91, 91, 1.0)" />
	<rect x="140" y="130" width="10" height="10" fill="rgba(89, 96, 92, 1.0)" />
	<rect x="150" y="130" width="10" height="10" fill="rgba(91, 94, 93, 1.0)" />
	<rect x="0" y="140" width="10" height="10" fill="rgba(86, 91, 91, 1.0)" />
	<rect x="10" y="140" width="10" height="10" fill="rgba(86, 92, 92, 1.0)" />
	<rect x="20" y="140" width="10" height="10" fill="rgba(86, 91, 92, 1.0)" />
	<rect x="30" y="140" width="10" height="10" fill="rgba(87, 86, 86, 1.0)" />
	<rect x="40" y="140" width="10" height="10" fill="rgba(83, 87, 87, 1.0)" />
	<rect x="50" y="140" width="10" height="10" fill="rgba(86, 90, 91, 1.0)" />
	<rect x="60" y="140" width="10" height="10" fill="rgba(86, 89, 89, 1.0)" />
	<rect x="70" y="140" width="10" height="10" fill="rgba(85, 89, 90, 1.0)" />
	<rect x="80" y="140" width="10" height="10" fill="rgba(86, 90, 91, 1.0)" />
	<rect x="90" y="140" width="10" height="10" fill="rgba(86, 91, 92, 1.0)" />
	<rect x="100" y="140" width="10" height="10" fill="rgba(88, 92, 92, 1.0)" />
	<rect x="110" y="140" width="10" height="10" fill="rgba(88, 92, 92, 1.0)" />
	<rect x="120" y="140" width="10" height="10" fill="rgba(86, 90, 90, 1.0)" />
	<rect x="130" y="140" width="10" height="10" fill="rgba(85, 90, 88, 1.0)" />
	<rect x="140" y="140" width="10" height="10" fill="rgba(86, 89, 89, 1.0)" />
	<rect x="150" y="140" width="10" height="10" fill="rgba(89, 92, 92, 1.0)" />
	<rect x="0" y="150" width="10" height="10" fill="rgba(86, 91, 92, 1.0)" />
	<rect x="10" y="150" width="10" height="10" fill="rgba(86, 92, 92, 1.0)" />
	<rect x="20" y="150" width="10" height="10" fill="rgba(86, 92, 92, 1.0)" />
	<rect x="30" y="150" width="10" height="10" fill="rgba(86, 92, 92, 1.0)" />
	<rect x="40" y="150" width="10" height="10" fill="rgba(86, 92, 92, 1.0)" />
	<rect x="50" y="150" width="10" height="10" fill="rgba(88, 92, 92, 1.0)" />
	<rect x="60" y="150" width="10" height="10" fill="rgba(91, 94, 93, 1.0)" />
	<rect x="70" y="150" width="10" height="10" fill="rgba(87, 92, 92, 1.0)" />
	<rect x="80" y="150" width="10" height="10" fill="rgba(86, 92, 92, 1.0)" />
	<rect x="90" y="150" width="10" height="10" fill="rgba(87, 92, 92, 1.0)" />
	<rect x="100" y="150" width="10" height="10" fill="rgba(87, 92, 92, 1.0)" />
	<rect x="110" y="150" width="10" height="10" fill="rgba(86, 89, 89, 1.0)" />
	<rect x="120" y="150" width="10" height="10" fill="rgba(85, 88, 88, 1.0)" />
	<rect x="130" y="150" width="10" height="10" fill="rgba(84, 88, 88, 1.0)" />
	<rect x="140" y="150" width="10" height="10" fill="rgba(86, 90, 90, 1.0)" />
	<rect x="150" y="150" width="10" height="10" fill="rgba(86, 92, 92, 1.0)" />
</svg>