<svg xmlns="http://www.w3.org/2000/svg" xmlns:xlink="http://www.w3.org/1999/xlink">
	<rect x="0" y="0" width="10" height="10" fill="rgba(35, 132, 146, 1.0)" />
	<rect x="10" y="0" width="10" height="10" fill="rgba(37, 152, 158, 1.0)" />
	<rect x="20" y="0" width="10" height="10" fill="rgba(37, 147, 157, 1.0)" />
	<rect x="30" y="0" width="10" height="10" fill="rgba(37, 139, 153, 1.0)" />
	<rect x="40" y="0" width="10" height="10" fill="rgba(37, 151, 159, 1.0)" />
	<rect x="50" y="0" width="10" height="10" fill="rgba(37, 154, 158, 1.0)" />
	<rect x="60" y="0" width="10" height="10" fill="rgba(35, 144, 153, 1.0)" />
	<rect x="70" y="0" width="10" height="10" fill="rgba(37, 139, 152, 1.0)" />
	<rect x="80" y="0" width="10" height="10" fill="rgba(37, 140, 154, 1.0)" />
	<rect x="90" y="0" width="10" height="10" fill="rgba(37, 140, 154, 1.0)" />
	<rect x="100" y="0" width="10" height="10" fill="rgba(37, 146, 155, 1.0)" />
	<rect x="110" y="0" width="10" height="10" fill="rgba(37, 155, 162, 1.0)" />
	<rect x="120" y="0" width="10" height="10" fill="rgba(37, 147, 156, 1.0)" />
	<rect x="130" y="0" width="10" height="10" fill="rgba(40, 164, 170, 1.0)" />
	<rect x="140" y="0" width="10" height="10" fill="rgba(35, 139, 149, 1.0)" />
	<rect x="150" y="0" width="10" height="10" fill="rgba(37, 139, 152, 1.0)" />
	<rect x="0" y="10" width="10" height="10" fill="rgba(37, 140, 154, 1.0)" />
	<rect x="10" y="10" width="10" height="10" fill="rgba(37, 141, 154, 1.0)" />
	<rect x="20" y="10" width="10" height="10" fill="rgba(37, 163, 165, 1.0)" />
	<rect x="30" y="10" width="10" height="10" fill="rgba(38, 159, 165, 1.0)" />
	<rect x="40" y="10" width="10" height="10" fill="rgba(34, 132, 144, 1.0)" />
	<rect x="50" y="10" width="10" height="10" fill="rgba(35, 146, 153, 1.0)" />
	<rect x="60" y="10" width="10" height="10" fill="rgba(35, 137, 149, 1.0)" />
	<rect x="70" y="10" width="10" height="10" fill="rgba(35, 136, 149, 1.0)" />
	<rect x="80" y="10" width="10" height="10" fill="rgba(37, 146, 159, 1.0)" />
	<rect x="90" y="10" width="10" height="10" fill="rgba(38, 162, 167, 1.0)" />
	<rect x="100" y="10" width="10" height="10" fill="rgba(40, 154, 170, 1.0)" />
	<rect x="110" y="10" width="10" height="10" fill="rgba(37, 147, 156, 1.0)" />
	<rect x="120" y="10" width="10" height="10" fill="rgba(37, 162, 164, 1.0)" />
	<rect x="130" y="10" width="10" height="10" fill="rgba(37, 141, 154, 1.0)" />
	<rect x="140" y="10" width="10" height="10" fill="rgba(37, 148, 157, 1.0)" />
	<rect x="150" y="10" width="10" height="10" fill="rgba(48, 208, 208, 1.0)" />
	<rect x="0" y="20" width="10" height="10" fill="rgba(37, 144, 156, 1.0)" />
	<rect x="10" y="20" width="10" height="10" fill="rgba(40, 180, 179, 1.0)" />
	<rect x="20" y="20" width="10" height="10" fill="rgba(40, 163, 169, 1.0)" />
	<rect x="30" y="20" width="10" height="10" fill="rgba(35, 151, 156, 1.0)" />
	<rect x="40" y="20" width="10" height="10" fill="rgba(37, 139, 153, 1.0)" />
	<rect x="50" y="20" width="10" height="10" fill="rgba(35, 137, 152, 1.0)" />
	<rect x="60" y="20" width="10" height="10" fill="rgba(37, 145, 155, 1.0)" />
	<rect x="70" y="20" width="10" height="10" fill="rgba(37, 141, 154, 1.0)" />
	<rect x="80" y="20" width="10" height="10" fill="rgba(37, 141, 154, 1.0)" />
	<rect x="90" y="20" width="10" height="10" fill="rgba(37, 141, 154, 1.0)" />
	<rect x="100" y="20" width="10" height="10" fill="rgba(37, 142, 156, 1.0)" />
	<rect x="110" y="20" width="10" height="10" fill="rgba(37, 147, 158, 1.0)" />
	<rect x="120" y="20" width="10" height="10" fill="rgba(37, 157, 161, 1.0)" />
	<rect x="130" y="20" width="10" height="10" fill="rgba(35, 137, 149, 1.0)" />
	<rect x="140" y="20" width="10" height="10" fill="rgba(35, 136, 149, 1.0)" />
	<rect x="150" y="20" width="10" height="10" fill="rgba(38, 161, 168, 1.0)" />
	<rect x="0" y="30" width="10" height="10" fill="rgba(35, 146, 153, 1.0)" />
	<rect x="10" y="30" width="10" height="10" fill="rgba(35, 137, 151, 1.0)" />
	<rect x="20" y="30" width="10" height="10" fill="rgba(37, 140, 153, 1.0)" />
	<rect x="30" y="30" width="10" height="10" fill="rgba(37, 140, 154, 1.0)" />
	<rect x="40" y="30" width="10" height="10" fill="rgba(35, 140, 152, 1.0)" />
	<rect x="50" y="30" width="10" height="10" fill="rgba(37, 153, 159, 1.0)" />
	<rect x="60" y="30" width="10" height="10" fill="rgba(35, 137, 151, 1.0)" />
	<rect x="70" y="30" width="10" height="10" fill="rgba(37, 140, 154, 1.0)" />
	<rect x="80" y="30" width="10" height="10" fill="rgba(31, 124, 136, 1.0)" />
	<rect x="90" y="30" width="10" height="10" fill="rgba(35, 146, 153, 1.0)" />
	<rect x="100" y="30" width="10" height="10" fill="rgba(37, 149, 157, 1.0)" />
	<rect x="110" y="30" width="10" height="10" fill="rgba(37, 151, 158, 1.0)" />
	<rect x="120" y="30" width="10" height="10" fill="rgba(37, 145, 158, 1.0)" />
	<rect x="130" y="30" width="10" height="10" fill="rgba(37, 142, 156, 1.0)" />
	<rect x="140" y="30" width="10" height="10" fill="rgba(37, 142, 154, 1.0)" />
	<rect x="150" y="30" width="10" height="10" fill="rgba(34, 131, 144, 1.0)" />
	<rect x="0" y="40" width="10" height="10" fill="rgba(37, 145, 156, 1.0)" />
	<rect x="10" y="40" width="10" height="10" fill="rgba(35, 152, 158, 1.0)" />
	<rect x="20" y="40" width="10" height="10" fill="rgba(37, 142, 158, 1.0)" />
	<rect x="30" y="40" width="10" height="10" fill="rgba(35, 146, 153, 1.0)" />
	<rect x="40" y="40" width="10" height="10" fill="rgba(38, 154, 163, 1.0)" />
	<rect x="50" y="40" width="10" height="10" fill="rgba(37, 142, 158, 1.0)" />
	<rect x="60" y="40" width="10" height="10" fill="rgba(37, 152, 161, 1.0)" />
	<rect x="70" y="40" width="10" height="10" fill="rgba(38, 165, 168, 1.0)" />
	<rect x="80" y="40" width="10" height="10" fill="rgba(35, 138, 151, 1.0)" />
	<rect x="90" y="40" width="10" height="10" fill="rgba(35, 134, 148, 1.0)" />
	<rect x="100" y="40" width="10" height="10" fill="rgba(35, 154, 158, 1.0)" />
	<rect x="110" y="40" width="10" height="10" fill="rgba(37, 149, 159, 1.0)" />
	<rect x="120" y="40" width="10" height="10" fill="rgba(37, 157, 161, 1.0)" />
	<rect x="130" y="40" width="10" height="10" fill="rgba(35, 139, 147, 1.0)" />
	<rect x="140" y="40" width="10" height="10" fill="rgba(38, 153, 163, 1.0)" />
	<rect x="150" y="40" width="10" height="10" fill="rgba(35, 136, 148, 1.0)" />
	<rect x="0" y="50" width="10" height="10" fill="rgba(35, 136, 149, 1.0)" />
	<rect x="10" y="50" width="10" height="10" fill="rgba(37, 163, 164, 1.0)" />
	<rect x="20" y="50" width="10" height="10" fill="rgba(35, 141, 152, 1.0)" />
	<rect x="30" y="50" width="10" height="10" fill="rgba(41, 158, 172, 1.0)" />
	<rect x="40" y="50" width="10" height="10" fill="rgba(35, 138, 151, 1.0)" />
	<rect x="50" y="50" width="10" height="10" fill="rgba(37, 148, 159, 1.0)" />
	<rect x="60" y="50" width="10" height="10" fill="rgba(37, 140, 154, 1.0)" />
	<rect x="70" y="50" width="10" height="10" fill="rgba(37, 146, 156, 1.0)" />
	<rect x="80" y="50" width="10" height="10" fill="rgba(35, 144, 153, 1.0)" />
	<rect x="90" y="50" width="10" height="10" fill="rgba(38, 165, 169, 1.0)" />
	<rect x="100" y="50" width="10" height="10" fill="rgba(37, 148, 157, 1.0)" />
	<rect x="110" y="50" width="10" height="10" fill="rgba(35, 136, 147, 1.0)" />
	<rect x="120" y="50" width="10" height="10" fill="rgba(35, 148, 154, 1.0)" />
	<rect x="130" y="50" width="10" height="10" fill="rgba(35, 136, 149, 1.0)" />
	<rect x="140" y="50" width="10" height="10" fill="rgba(37, 157, 161, 1.0)" />
	<rect x="150" y="50" width="10" height="10" fill="rgba(35, 147, 152, 1.0)" />
	<rect x="0" y="60" width="10" height="10" fill="rgba(33, 128, 141, 1.0)" />
	<rect x="10" y="60" width="10" height="10" fill="rgba(37, 138, 153, 1.0)" />
	<rect x="20" y="60" width="10" height="10" fill="rgba(37, 158, 159, 1.0)" />
	<rect x="30" y="60" width="10" height="10" fill="rgba(37, 140, 154, 1.0)" />
	<rect x="40" y="60" width="10" height="10" fill="rgba(34, 131, 144, 1.0)" />
	<rect x="50" y="60" width="10" height="10" fill="rgba(37, 142, 155, 1.0)" />
	<rect x="60" y="60" width="10" height="10" fill="rgba(37, 142, 154, 1.0)" />
	<rect x="70" y="60" width="10" height="10" fill="rgba(35, 147, 154, 1.0)" />
	<rect x="80" y="60" width="10" height="10" fill="rgba(35, 146, 154, 1.0)" />
	<rect x="90" y="60" width="10" height="10" fill="rgba(35, 148, 154, 1.0)" />
	<rect x="100" y="60" width="10" height="10" fill="rgba(38, 153, 162, 1.0)" />
	<rect x="110" y="60" width="10" height="10" fill="rgba(40, 154, 168, 1.0)" />
	<rect x="120" y="60" width="10" height="10" fill="rgba(37, 145, 155, 1.0)" />
	<rect x="130" y="60" width="10" height="10" fill="rgba(37, 152, 159, 1.0)" />
	<rect x="140" y="60" width="10" height="10" fill="rgba(37, 145, 156, 1.0)" />
	<rect x="150" y="60" width="10" height="10" fill="rgba(37, 151, 156, 1.0)" />
	<rect x="0" y="70" width="10" height="10" fill="rgba(37, 139, 153, 1.0)" />
	<rect x="10" y="70" width="10" height="10" fill="rgba(35, 153, 157, 1.0)" />
	<rect x="20" y="70" width="10" height="10" fill="rgba(38, 154, 162, 1.0)" />
	<rect x="30" y="70" width="10" height="10" fill="rgba(37, 144, 154, 1.0)" />
	<rect x="40" y="70" width="10" height="10" fill="rgba(37, 146, 155, 1.0)" />
	<rect x="50" y="70" width="10" height="10" fill="rgba(35, 153, 156, 1.0)" />
	<rect x="60" y="70" width="10" height="10" fill="rgba(37, 148, 158, 1.0)" />
	<rect x="70" y="70" width="10" height="10" fill="rgba(40, 166, 170, 1.0)" />
	<rect x="80" y="70" width="10" height="10" fill="rgba(37, 149, 157, 1.0)" />
	<rect x="90" y="70" width="10" height="10" fill="rgba(35, 142, 153, 1.0)" />
	<rect x="100" y="70" width="10" height="10" fill="rgba(35, 155, 159, 1.0)" />
	<rect x="110" y="70" width="10" height="10" fill="rgba(45, 199, 199, 1.0)" />
	<rect x="120" y="70" width="10" height="10" fill="rgba(37, 153, 159, 1.0)" />
	<rect x="130" y="70" width="10" height="10" fill="rgba(37, 141, 154, 1.0)" />
	<rect x="140" y="70" width="10" height="10" fill="rgba(38, 166, 171, 1.0)" />
	<rect x="150" y="70" width="10" height="10" fill="rgba(38, 161, 166, 1.0)" />
	<rect x="0" y="80" width="10" height="10" fill="rgba(37, 144, 155, 1.0)" />
	<rect x="10" y="80" width="10" height="10" fill="rgba(37, 153, 159, 1.0)" />
	<rect x="20" y="80" width="10" height="10" fill="rgba(38, 152, 163, 1.0)" />
	<rect x="30" y="80" width="10" height="10" fill="rgba(38, 157, 164, 1.0)" />
	<rect x="40" y="80" width="10" height="10" fill="rgba(37, 147, 156, 1.0)" />
	<rect x="50" y="80" width="10" height="10" fill="rgba(35, 137, 149, 1.0)" />
	<rect x="60" y="80" width="10" height="10" fill="rgba(37, 152, 161, 1.0)" />
	<rect x="70" y="80" width="10" height="10" fill="rgba(37, 156, 162, 1.0)" />
	<rect x="80" y="80" width="10" height="10" fill="rgba(35, 145, 154, 1.0)" />
	<rect x="90" y="80" width="10" height="10" fill="rgba(40, 152, 168, 1.0)" />
	<rect x="100" y="80" width="10" height="10" fill="rgba(35, 148, 152, 1.0)" />
	<rect x="110" y="80" width="10" height="10" fill="rgba(37, 155, 159, 1.0)" />
	<rect x="120" y="80" width="10" height="10" fill="rgba(35, 144, 153, 1.0)" />
	<rect x="130" y="80" width="10" height="10" fill="rgba(37, 140, 154, 1.0)" />
	<rect x="140" y="80" width="10" height="10" fill="rgba(37, 152, 159, 1.0)" />
	<rect x="150" y="80" width="10" height="10" fill="rgba(37, 141, 154, 1.0)" />
	<rect x="0" y="90" width="10" height="10" fill="rgba(34, 130, 142, 1.0)" />
	<rect x="10" y="90" width="10" height="10" fill="rgba(37, 145, 154, 1.0)" />
	<rect x="20" y="90" width="10" height="10" fill="rgba(38, 155, 162, 1.0)" />
	<rect x="30" y="90" width="10" height="10" fill="rgba(37, 136, 152, 1.0)" />
	<rect x="40" y="90" width="10" height="10" fill="rgba(37, 147, 156, 1.0)" />
	<rect x="50" y="90" width="10" height="10" fill="rgba(37, 144, 155, 1.0)" />
	<rect x="60" y="90" width="10" height="10" fill="rgba(35, 154, 157, 1.0)" />
	<rect x="70" y="90" width="10" height="10" fill="rgba(35, 151, 156, 1.0)" />
	<rect x="80" y="90" width="10" height="10" fill="rgba(37, 151, 157, 1.0)" />
	<rect x="90" y="90" width="10" height="10" fill="rgba(37, 157, 161, 1.0)" />
	<rect x="100" y="90" width="10" height="10" fill="rgba(37, 140, 154, 1.0)" />
	<rect x="110" y="90" width="10" height="10" fill="rgba(37, 142, 158, 1.0)" />
	<rect x="120" y="90" width="10" height="10" fill="rgba(37, 140, 154, 1.0)" />
	<rect x="130" y="90" width="10" height="10" fill="rgba(37, 149, 158, 1.0)" />
	<rect x="140" y="90" width="10" height="10" fill="rgba(37, 154, 158, 1.0)" />
	<rect x="150" y="90" width="10" height="10" fill="rgba(38, 163, 167, 1.0)" />
	<rect x="0" y="100" width="10" height="10" fill="rgba(37, 153, 159, 1.0)" />
	<rect x="10" y="100" width="10" height="10" fill="rgba(37, 148, 158, 1.0)" />
	<rect x="20" y="100" width="10" height="10" fill="rgba(31, 124, 134, 1.0)" />
	<rect x="30" y="100" width="10" height="10" fill="rgba(37, 152, 161, 1.0)" />
	<rect x="40" y="100" width="10" height="10" fill="rgba(35, 138, 148, 1.0)" />
	<rect x="50" y="100" width="10" height="10" fill="rgba(37, 146, 159, 1.0)" />
	<rect x="60" y="100" width="10" height="10" fill="rgba(37, 137, 152, 1.0)" />
	<rect x="70" y="100" width="10" height="10" fill="rgba(37, 141, 154, 1.0)" />
	<rect x="80" y="100" width="10" height="10" fill="rgba(38, 163, 168, 1.0)" />
	<rect x="90" y="100" width="10" height="10" fill="rgba(38, 154, 163, 1.0)" />
	<rect x="100" y="100" width="10" height="10" fill="rgba(37, 147, 158, 1.0)" />
	<rect x="110" y="100" width="10" height="10" fill="rgba(35, 139, 152, 1.0)" />
	<rect x="120" y="100" width="10" height="10" fill="rgba(37, 144, 154, 1.0)" />
	<rect x="130" y="100" width="10" height="10" fill="rgba(40, 169, 177, 1.0)" />
	<rect x="140" y="100" width="10" height="10" fill="rgba(35, 141, 153, 1.0)" />
	<rect x="150" y="100" width="10" height="10" fill="rgba(38, 165, 166, 1.0)" />
	<rect x="0" y="110" width="10" height="10" fill="rgba(35, 155, 158, 1.0)" />
	<rect x="10" y="110" width="10" height="10" fill="rgba(37, 147, 158, 1.0)" />
	<rect x="20" y="110" width="10" height="10" fill="rgba(37, 145, 157, 1.0)" />
	<rect x="30" y="110" width="10" height="10" fill="rgba(35, 138, 149, 1.0)" />
	<rect x="40" y="110" width="10" height="10" fill="rgba(38, 163, 165, 1.0)" />
	<rect x="50" y="110" width="10" height="10" fill="rgba(47, 200, 200, 1.0)" />
	<rect x="60" y="110" width="10" height="10" fill="rgba(37, 144, 155, 1.0)" />
	<rect x="70" y="110" width="10" height="10" fill="rgba(37, 139, 153, 1.0)" />
	<rect x="80" y="110" width="10" height="10" fill="rgba(37, 141, 154, 1.0)" />
	<rect x="90" y="110" width="10" height="10" fill="rgba(37, 144, 155, 1.0)" />
	<rect x="100" y="110" width="10" height="10" fill="rgba(37, 159, 162, 1.0)" />
	<rect x="110" y="110" width="10" height="10" fill="rgba(40, 163, 170, 1.0)" />
	<rect x="120" y="110" width="10" height="10" fill="rgba(37, 162, 162, 1.0)" />
	<rect x="130" y="110" width="10" height="10" fill="rgba(35, 138, 151, 1.0)" />
	<rect x="140" y="110" width="10" height="10" fill="rgba(41, 186, 185, 1.0)" />
	<rect x="150" y="110" width="10" height="10" fill="rgba(33, 132, 144, 1.0)" />
	<rect x="0" y="120" width="10" height="10" fill="rgba(37, 148, 161, 1.0)" />
	<rect x="10" y="120" width="10" height="10" fill="rgba(37, 141, 154, 1.0)" />
	<rect x="20" y="120" width="10" height="10" fill="rgba(35, 136, 149, 1.0)" />
	<rect x="30" y="120" width="10" height="10" fill="rgba(38, 152, 163, 1.0)" />
	<rect x="40" y="120" width="10" height="10" fill="rgba(37, 147, 156, 1.0)" />
	<rect x="50" y="120" width="10" height="10" fill="rgba(35, 144, 153, 1.0)" />
	<rect x="60" y="120" width="10" height="10" fill="rgba(37, 140, 154, 1.0)" />
	<rect x="70" y="120" width="10" height="10" fill="rgba(33, 128, 141, 1.0)" />
	<rect x="80" y="120" width="10" height="10" fill="rgba(35, 136, 147, 1.0)" />
	<rect x="90" y="120" width="10" height="10" fill="rgba(37, 145, 155, 1.0)" />
	<rect x="100" y="120" width="10" height="10" fill="rgba(37, 166, 166, 1.0)" />
	<rect x="110" y="120" width="10" height="10" fill="rgba(37, 158, 159, 1.0)" />
	<rect x="120" y="120" width="10" height="10" fill="rgba(37, 156, 163, 1.0)" />
	<rect x="130" y="120" width="10" height="10" fill="rgba(38, 155, 163, 1.0)" />
	<rect x="140" y="120" width="10" height="10" fill="rgba(35, 133, 147, 1.0)" />
	<rect x="150" y="120" width="10" height="10" fill="rgba(35, 137, 152, 1.0)" />
	<rect x="0" y="130" width="10" height="10" fill="rgba(37, 140, 154, 1.0)" />
	<rect x="10" y="130" width="10" height="10" fill="rgba(37, 142, 156, 1.0)" />
	<rect x="20" y="130" width="10" height="10" fill="rgba(35, 147, 153, 1.0)" />
	<rect x="30" y="130" width="10" height="10" fill="rgba(34, 152, 152, 1.0)" />
	<rect x="40" y="130" width="10" height="10" fill="rgba(35, 142, 153, 1.0)" />
	<rect x="50" y="130" width="10" height="10" fill="rgba(35, 149, 155, 1.0)" />
	<rect x="60" y="130" width="10" height="10" fill="rgba(35, 140, 152, 1.0)" />
	<rect x="70" y="130" width="10" height="10" fill="rgba(38, 162, 169, 1.0)" />
	<rect x="80" y="130" width="10" height="10" fill="rgba(38, 170, 170, 1.0)" />
	<rect x="90" y="130" width="10" height="10" fill="rgba(38, 169, 172, 1.0)" />
	<rect x="100" y="130" width="10" height="10" fill="rgba(37, 142, 156, 1.0)" />
	<rect x="110" y="130" width="10" height="10" fill="rgba(37, 154, 161, 1.0)" />
	<rect x="120" y="130" width="10" height="10" fill="rgba(37, 145, 156, 1.0)" />
	<rect x="130" y="130" width="10" height="10" fill="rgba(37, 163, 164, 1.0)" />
	<rect x="140" y="130" width="10" height="10" fill="rgba(38, 164, 167, 1.0)" />
	<rect x="150" y="130" width="10" height="10" fill="rgba(37, 140, 153, 1.0)" />
	<rect x="0" y="140" width="10" height="10" fill="rgba(38, 164, 166, 1.0)" />
	<rect x="10" y="140" width="10" height="10" fill="rgba(37, 138, 153, 1.0)" />
	<rect x="20" y="140" width="10" height="10" fill="rgba(35, 138, 152, 1.0)" />
	<rect x="30" y="140" width="10" height="10" fill="rgba(35, 140, 152, 1.0)" />
	<rect x="40" y="140" width="10" height="10" fill="rgba(37, 140, 154, 1.0)" />
	<rect x="50" y="140" width="10" height="10" fill="rgba(35, 156, 161, 1.0)" />
	<rect x="60" y="140" width="10" height="10" fill="rgba(37, 154, 158, 1.0)" />
	<rect x="70" y="140" width="10" height="10" fill="rgba(37, 148, 158, 1.0)" />
	<rect x="80" y="140" width="10" height="10" fill="rgba(35, 139, 149, 1.0)" />
	<rect x="90" y="140" width="10" height="10" fill="rgba(37, 140, 154, 1.0)" />
	<rect x="100" y="140" width="10" height="10" fill="rgba(34, 138, 145, 1.0)" />
	<rect x="110" y="140" width="10" height="10" fill="rgba(35, 141, 153, 1.0)" />
	<rect x="120" y="140" width="10" height="10" fill="rgba(37, 146, 157, 1.0)" />
	<rect x="130" y="140" width="10" height="10" fill="rgba(35, 136, 148, 1.0)" />
	<rect x="140" y="140" width="10" height="10" fill="rgba(35, 153, 156, 1.0)" />
	<rect x="150" y="140" width="10" height="10" fill="rgba(37, 144, 155, 1.0)" />
	<rect x="0" y="150" width="10" height="10" fill="rgba(35, 146, 154, 1.0)" />
	<rect x="10" y="150" width="10" height="10" fill="rgba(37, 141, 155, 1.0)" />
	<rect x="20" y="150" width="10" height="10" fill="rgba(35, 151, 156, 1.0)" />
	<rect x="30" y="150" width="10" height="10" fill="rgba(35, 140, 148, 1.0)" />
	<rect x="40" y="150" width="10" height="10" fill="rgba(41, 180, 181, 1.0)" />
	<rect x="50" y="150" width="10" height="10" fill="rgba(38, 164, 165, 1.0)" />
	<rect x="60" y="150" width="10" height="10" fill="rgba(34, 130, 145, 1.0)" />
	<rect x="70" y="150" width="10" height="10" fill="rgba(38, 153, 163, 1.0)" />
	<rect x="80" y="150" width="10" height="10" fill="rgba(37, 153, 159, 1.0)" />
	<rect x="90" y="150" width="10" height="10" fill="rgba(38, 158, 166, 1.0)" />
	<rect x="100" y="150" width="10" height="10" fill="rgba(35, 156, 159, 1.0)" />
	<rect x="110" y="150" width="10" height="10" fill="rgba(37, 144, 155, 1.0)" />
	<rect x="120" y="150" width="10" height="10" fill="rgba(37, 146, 156, 1.0)" />
	<rect x="130" y="150" width="10" height="10" fill="rgba(37, 155, 161, 1.0)" />
	<rect x="140" y="150" width="10" height="10" fill="rgba(35, 138, 152, 1.0)" />
	<rect x="150" y="150" width="10" height="10" fill="rgba(35, 146, 152, 1.0)" />
</svg>