<svg xmlns="http://www.w3.org/2000/svg" xmlns:xlink="http://www.w3.org/1999/xlink">
	<rect x="0" y="0" width="10" height="10" fill="rgba(0, 255, 255, 1.0)" />
	<rect x="10" y="0" width="10" height="10" fill="rgba(0, 255, 255, 1.0)" />
	<rect x="20" y="0" width="10" height="10" fill="rgba(0, 255, 255, 1.0)" />
	<rect x="30" y="0" width="10" height="10" fill="rgba(0, 255, 255, 1.0)" />
	<rect x="40" y="0" width="10" height="10" fill="rgba(0, 255, 255, 1.0)" />
	<rect x="50" y="0" width="10" height="10" fill="rgba(0, 255, 255, 1.0)" />
	<rect x="60" y="0" width="10" height="10" fill="rgba(0, 255, 255, 1.0)" />
	<rect x="70" y="0" width="10" height="10" fill="rgba(0, 255, 255, 1.0)" />
	<rect x="80" y="0" width="10" height="10" fill="rgba(0, 255, 255, 1.0)" />
	<rect x="90" y="0" width="10" height="10" fill="rgba(0, 255, 255, 1.0)" />
	<rect x="100" y="0" width="10" height="10" fill="rgba(0, 255, 255, 1.0)" />
	<rect x="110" y="0" width="10" height="10" fill="rgba(0, 255, 255, 1.0)" />
	<rect x="120" y="0" width="10" height="10" fill="rgba(0, 255, 255, 1.0)" />
	<rect x="130" y="0" width="10" height="10" fill="rgba(0, 255, 255, 1.0)" />
	<rect x="140" y="0" width="10" height="10" fill="rgba(0, 255, 255, 1.0)" />
	<rect x="150" y="0" width="10" height="10" fill="rgba(0, 255, 255, 1.0)" />
	<rect x="0" y="10" width="10" height="10" fill="rgba(0, 0, 0, 1.0)" />
	<rect x="10" y="10" width="10" height="10" fill="rgba(17, 253, 255, 1.0)" />
	<rect x="20" y="10" width="10" height="10" fill="rgba(0, 0, 0, 1.0)" />
	<rect x="30" y="10" width="10" height="10" fill="rgba(19, 255, 255, 1.0)" />
	<rect x="40" y="10" width="10" height="10" fill="rgba(0, 0, 0, 1.0)" />
	<rect x="50" y="10" width="10" height="10" fill="rgba(23, 255, 255, 1.0)" />
	<rect x="60" y="10" width="10" height="10" fill="rgba(0, 0, 0, 1.0)" />
	<rect x="70" y="10" width="10" height="10" fill="rgba(28, 255, 255, 1.0)" />
	<rect x="80" y="10" width="10" height="10" fill="rgba(0, 0, 0, 1.0)" />
	<rect x="90" y="10" width="10" height="10" fill="rgba(36, 255, 255, 1.0)" />
	<rect x="100" y="10" width="10" height="10" fill="rgba(0, 0, 0, 1.0)" />
	<rect x="110" y="10" width="10" height="10" fill="rgba(51, 255, 255, 1.0)" />
	<rect x="120" y="10" width="10" height="10" fill="rgba(0, 0, 0, 1.0)" />
	<rect x="130" y="10" width="10" height="10" fill="rgba(85, 255, 255, 1.0)" />
	<rect x="140" y="10" width="10" height="10" fill="rgba(0, 0, 0, 1.0)" />
	<rect x="150" y="10" width="10" height="10" fill="rgba(255, 255, 255, 1.0)" />
	<rect x="0" y="20" width="10" height="10" fill="rgba(32, 223, 255, 1.0)" />
	<rect x="10" y="20" width="10" height="10" fill="rgba(34, 236, 255, 1.0)" />
	<rect x="20" y="20" width="10" height="10" fill="rgba(36, 253, 255, 1.0)" />
	<rect x="30" y="20" width="10" height="10" fill="rgba(39, 255, 255, 1.0)" />
	<rect x="40" y="20" width="10" height="10" fill="rgba(42, 255, 255, 1.0)" />
	<rect x="50" y="20" width="10" height="10" fill="rgba(46, 255, 255, 1.0)" />
	<rect x="60" y="20" width="10" height="10" fill="rgba(51, 255, 255, 1.0)" />
	<rect x="70" y="20" width="10" height="10" fill="rgba(56, 255, 255, 1.0)" />
	<rect x="80" y="20" width="10" height="10" fill="rgba(63, 255, 255, 1.0)" />
	<rect x="90" y="20" width="10" height="10" fill="rgba(72, 255, 255, 1.0)" />
	<rect x="100" y="20" width="10" height="10" fill="rgba(85, 255, 255, 1.0)" />
	<rect x="110" y="20" width="10" height="10" fill="rgba(102, 255, 255, 1.0)" />
	<rect x="120" y="20" width="10" height="10" fill="rgba(127, 255, 255, 1.0)" />
	<rect x="130" y="20" width="10" height="10" fill="rgba(170, 255, 255, 1.0)" />
	<rect x="140" y="20" width="10" height="10" fill="rgba(255, 255, 255, 1.0)" />
	<rect x="150" y="20" width="10" height="10" fill="rgba(255, 255, 237, 1.0)" />
	<rect x="0" y="30" width="10" height="10" fill="rgba(0, 0, 0, 1.0)" />
	<rect x="10" y="30" width="10" height="10" fill="rgba(51, 219, 255, 1.0)" />
	<rect x="20" y="30" width="10" height="10" fill="rgba(0, 0, 0, 1.0)" />
	<rect x="30" y="30" width="10" height="10" fill="rgba(58, 253, 255, 1.0)" />
	<rect x="40" y="30" width="10" height="10" fill="rgba(0, 0, 0, 1.0)" />
	<rect x="50" y="30" width="10" height="10" fill="rgba(69, 255, 255, 1.0)" />
	<rect x="60" y="30" width="10" height="10" fill="rgba(0, 0, 0, 1.0)" />
	<rect x="70" y="30" width="10" height="10" fill="rgba(85, 255, 255, 1.0)" />
	<rect x="80" y="30" width="10" height="10" fill="rgba(0, 0, 0, 1.0)" />
	<rect x="90" y="30" width="10" height="10" fill="rgba(109, 255, 255, 1.0)" />
	<rect x="100" y="30" width="10" height="10" fill="rgba(0, 0, 0, 1.0)" />
	<rect x="110" y="30" width="10" height="10" fill="rgba(153, 255, 255, 1.0)" />
	<rect x="120" y="30" width="10" height="10" fill="rgba(0, 0, 0, 1.0)" />
	<rect x="130" y="30" width="10" height="10" fill="rgba(255, 255, 255, 1.0)" />
	<rect x="140" y="30" width="10" height="10" fill="rgba(0, 0, 0, 1.0)" />
	<rect x="150" y="30" width="10" height="10" fill="rgba(255, 255, 220, 1.0)" />
	<rect x="0" y="40" width="10" height="10" fill="rgba(64, 191, 255, 1.0)" />
	<rect x="10" y="40" width="10" height="10" fill="rgba(68, 202, 255, 1.0)" />
	<rect x="20" y="40" width="10" height="10" fill="rgba(72, 217, 255, 1.0)" />
	<rect x="30" y="40" width="10" height="10" fill="rgba(78, 234, 255, 1.0)" />
	<rect x="40" y="40" width="10" height="10" fill="rgba(85, 253, 255, 1.0)" />
	<rect x="50" y="40" width="10" height="10" fill="rgba(92, 255, 255, 1.0)" />
	<rect x="60" y="40" width="10" height="10" fill="rgba(102, 255, 255, 1.0)" />
	<rect x="70" y="40" width="10" height="10" fill="rgba(113, 255, 255, 1.0)" />
	<rect x="80" y="40" width="10" height="10" fill="rgba(127, 255, 255, 1.0)" />
	<rect x="90" y="40" width="10" height="10" fill="rgba(145, 255, 255, 1.0)" />
	<rect x="100" y="40" width="10" height="10" fill="rgba(170, 255, 255, 1.0)" />
	<rect x="110" y="40" width="10" height="10" fill="rgba(204, 255, 255, 1.0)" />
	<rect x="120" y="40" width="10" height="10" fill="rgba(255, 255, 255, 1.0)" />
	<rect x="130" y="40" width="10" height="10" fill="rgba(255, 255, 235, 1.0)" />
	<rect x="140" y="40" width="10" height="10" fill="rgba(255, 255, 218, 1.0)" />
	<rect x="150" y="40" width="10" height="10" fill="rgba(255, 255, 203, 1.0)" />
	<rect x="0" y="50" width="10" height="10" fill="rgba(0, 0, 0, 1.0)" />
	<rect x="10" y="50" width="10" height="10" fill="rgba(85, 185, 255, 1.0)" />
	<rect x="20" y="50" width="10" height="10" fill="rgba(0, 0, 0, 1.0)" />
	<rect x="30" y="50" width="10" height="10" fill="rgba(98, 214, 255, 1.0)" />
	<rect x="40" y="50" width="10" height="10" fill="rgba(0, 0, 0, 1.0)" />
	<rect x="50" y="50" width="10" height="10" fill="rgba(115, 253, 255, 1.0)" />
	<rect x="60" y="50" width="10" height="10" fill="rgba(0, 0, 0, 1.0)" />
	<rect x="70" y="50" width="10" height="10" fill="rgba(141, 255, 255, 1.0)" />
	<rect x="80" y="50" width="10" height="10" fill="rgba(0, 0, 0, 1.0)" />
	<rect x="90" y="50" width="10" height="10" fill="rgba(182, 255, 255, 1.0)" />
	<rect x="100" y="50" width="10" height="10" fill="rgba(0, 0, 0, 1.0)" />
	<rect x="110" y="50" width="10" height="10" fill="rgba(255, 255, 255, 1.0)" />
	<rect x="120" y="50" width="10" height="10" fill="rgba(0, 0, 0, 1.0)" />
	<rect x="130" y="50" width="10" height="10" fill="rgba(255, 255, 215, 1.0)" />
	<rect x="140" y="50" width="10" height="10" fill="rgba(0, 0, 0, 1.0)" />
	<rect x="150" y="50" width="10" height="10" fill="rgba(255, 255, 186, 1.0)" />
	<rect x="0" y="60" width="10" height="10" fill="rgba(96, 159, 255, 1.0)" />
	<rect x="10" y="60" width="10" height="10" fill="rgba(102, 168, 255, 1.0)" />
	<rect x="20" y="60" width="10" height="10" fill="rgba(109, 181, 255, 1.0)" />
	<rect x="30" y="60" width="10" height="10" fill="rgba(117, 194, 255, 1.0)" />
	<rect x="40" y="60" width="10" height="10" fill="rgba(127, 211, 255, 1.0)" />
	<rect x="50" y="60" width="10" height="10" fill="rgba(139, 230, 255, 1.0)" />
	<rect x="60" y="60" width="10" height="10" fill="rgba(153, 253, 255, 1.0)" />
	<rect x="70" y="60" width="10" height="10" fill="rgba(170, 255, 255, 1.0)" />
	<rect x="80" y="60" width="10" height="10" fill="rgba(191, 255, 255, 1.0)" />
	<rect x="90" y="60" width="10" height="10" fill="rgba(218, 255, 255, 1.0)" />
	<rect x="100" y="60" width="10" height="10" fill="rgba(255, 255, 255, 1.0)" />
	<rect x="110" y="60" width="10" height="10" fill="rgba(255, 255, 231, 1.0)" />
	<rect x="120" y="60" width="10" height="10" fill="rgba(255, 255, 212, 1.0)" />
	<rect x="130" y="60" width="10" height="10" fill="rgba(255, 255, 195, 1.0)" />
	<rect x="140" y="60" width="10" height="10" fill="rgba(255, 255, 181, 1.0)" />
	<rect x="150" y="60" width="10" height="10" fill="rgba(255, 255, 169, 1.0)" />
	<rect x="0" y="70" width="10" height="10" fill="rgba(0, 0, 0, 1.0)" />
	<rect x="10" y="70" width="10" height="10" fill="rgba(119, 151, 255, 1.0)" />
	<rect x="20" y="70" width="10" height="10" fill="rgba(0, 0, 0, 1.0)" />
	<rect x="30" y="70" width="10" height="10" fill="rgba(137, 175, 255, 1.0)" />
	<rect x="40" y="70" width="10" height="10" fill="rgba(0, 0, 0, 1.0)" />
	<rect x="50" y="70" width="10" height="10" fill="rgba(162, 207, 255, 1.0)" />
	<rect x="60" y="70" width="10" height="10" fill="rgba(0, 0, 0, 1.0)" />
	<rect x="70" y="70" width="10" height="10" fill="rgba(198, 253, 255, 1.0)" />
	<rect x="80" y="70" width="10" height="10" fill="rgba(0, 0, 0, 1.0)" />
	<rect x="90" y="70" width="10" height="10" fill="rgba(255, 255, 255, 1.0)" />
	<rect x="100" y="70" width="10" height="10" fill="rgba(0, 0, 0, 1.0)" />
	<rect x="110" y="70" width="10" height="10" fill="rgba(255, 255, 208, 1.0)" />
	<rect x="120" y="70" width="10" height="10" fill="rgba(0, 0, 0, 1.0)" />
	<rect x="130" y="70" width="10" height="10" fill="rgba(255, 255, 176, 1.0)" />
	<rect x="140" y="70" width="10" height="10" fill="rgba(0, 0, 0, 1.0)" />
	<rect x="150" y="70" width="10" height="10" fill="rgba(255, 255, 152, 1.0)" />
	<rect x="0" y="80" width="10" height="10" fill="rgba(128, 127, 255, 1.0)" />
	<rect x="10" y="80" width="10" height="10" fill="rgba(136, 134, 255, 1.0)" />
	<rect x="20" y="80" width="10" height="10" fill="rgba(145, 144, 255, 1.0)" />
	<rect x="30" y="80" width="10" height="10" fill="rgba(156, 155, 255, 1.0)" />
	<rect x="40" y="80" width="10" height="10" fill="rgba(170, 168, 255, 1.0)" />
	<rect x="50" y="80" width="10" height="10" fill="rgba(185, 184, 255, 1.0)" />
	<rect x="60" y="80" width="10" height="10" fill="rgba(204, 202, 255, 1.0)" />
	<rect x="70" y="80" width="10" height="10" fill="rgba(226, 224, 255, 1.0)" />
	<rect x="80" y="80" width="10" height="10" fill="rgba(255, 253, 255, 1.0)" />
	<rect x="90" y="80" width="10" height="10" fill="rgba(255, 255, 226, 1.0)" />
	<rect x="100" y="80" width="10" height="10" fill="rgba(255, 255, 203, 1.0)" />
	<rect x="110" y="80" width="10" height="10" fill="rgba(255, 255, 185, 1.0)" />
	<rect x="120" y="80" width="10" height="10" fill="rgba(255, 255, 169, 1.0)" />
	<rect x="130" y="80" width="10" height="10" fill="rgba(255, 255, 156, 1.0)" />
	<rect x="140" y="80" width="10" height="10" fill="rgba(255, 255, 145, 1.0)" />
	<rect x="150" y="80" width="10" height="10" fill="rgba(255, 255, 135, 1.0)" />
	<rect x="0" y="90" width="10" height="10" fill="rgba(0, 0, 0, 1.0)" />
	<rect x="10" y="90" width="10" height="10" fill="rgba(153, 117, 255, 1.0)" />
	<rect x="20" y="90" width="10" height="10" fill="rgba(0, 0, 0, 1.0)" />
	<rect x="30" y="90" width="10" height="10" fill="rgba(176, 136, 255, 1.0)" />
	<rect x="40" y="90" width="10" height="10" fill="rgba(0, 0, 0, 1.0)" />
	<rect x="50" y="90" width="10" height="10" fill="rgba(208, 160, 255, 1.0)" />
	<rect x="60" y="90" width="10" height="10" fill="rgba(0, 0, 0, 1.0)" />
	<rect x="70" y="90" width="10" height="10" fill="rgba(255, 196, 255, 1.0)" />
	<rect x="80" y="90" width="10" height="10" fill="rgba(0, 0, 0, 1.0)" />
	<rect x="90" y="90" width="10" height="10" fill="rgba(255, 252, 197, 1.0)" />
	<rect x="100" y="90" width="10" height="10" fill="rgba(0, 0, 0, 1.0)" />
	<rect x="110" y="90" width="10" height="10" fill="rgba(255, 255, 161, 1.0)" />
	<rect x="120" y="90" width="10" height="10" fill="rgba(0, 0, 0, 1.0)" />
	<rect x="130" y="90" width="10" height="10" fill="rgba(255, 255, 136, 1.0)" />
	<rect x="140" y="90" width="10" height="10" fill="rgba(0, 0, 0, 1.0)" />
	<rect x="150" y="90" width="10" height="10" fill="rgba(255, 255, 118, 1.0)" />
	<rect x="0" y="100" width="10" height="10" fill="rgba(160, 95, 255, 1.0)" />
	<rect x="10" y="100" width="10" height="10" fill="rgba(170, 100, 255, 1.0)" />
	<rect x="20" y="100" width="10" height="10" fill="rgba(182, 108, 255, 1.0)" />
	<rect x="30" y="100" width="10" height="10" fill="rgba(196, 116, 255, 1.0)" />
	<rect x="40" y="100" width="10" height="10" fill="rgba(212, 126, 255, 1.0)" />
	<rect x="50" y="100" width="10" height="10" fill="rgba(231, 137, 255, 1.0)" />
	<rect x="60" y="100" width="10" height="10" fill="rgba(255, 151, 255, 1.0)" />
	<rect x="70" y="100" width="10" height="10" fill="rgba(255, 168, 218, 1.0)" />
	<rect x="80" y="100" width="10" height="10" fill="rgba(255, 189, 190, 1.0)" />
	<rect x="90" y="100" width="10" height="10" fill="rgba(255, 216, 169, 1.0)" />
	<rect x="100" y="100" width="10" height="10" fill="rgba(255, 252, 152, 1.0)" />
	<rect x="110" y="100" width="10" height="10" fill="rgba(255, 255, 138, 1.0)" />
	<rect x="120" y="100" width="10" height="10" fill="rgba(255, 255, 126, 1.0)" />
	<rect x="130" y="100" width="10" height="10" fill="rgba(255, 255, 117, 1.0)" />
	<rect x="140" y="100" width="10" height="10" fill="rgba(255, 255, 108, 1.0)" />
	<rect x="150" y="100" width="10" height="10" fill="rgba(255, 255, 101, 1.0)" />
	<rect x="0" y="110" width="10" height="10" fill="rgba(0, 0, 0, 1.0)" />
	<rect x="10" y="110" width="10" height="10" fill="rgba(187, 83, 255, 1.0)" />
	<rect x="20" y="110" width="10" height="10" fill="rgba(0, 0, 0, 1.0)" />
	<rect x="30" y="110" width="10" height="10" fill="rgba(215, 96, 255, 1.0)" />
	<rect x="40" y="110" width="10" height="10" fill="rgba(0, 0, 0, 1.0)" />
	<rect x="50" y="110" width="10" height="10" fill="rgba(255, 114, 255, 1.0)" />
	<rect x="60" y="110" width="10" height="10" fill="rgba(0, 0, 0, 1.0)" />
	<rect x="70" y="110" width="10" height="10" fill="rgba(255, 139, 181, 1.0)" />
	<rect x="80" y="110" width="10" height="10" fill="rgba(0, 0, 0, 1.0)" />
	<rect x="90" y="110" width="10" height="10" fill="rgba(255, 179, 140, 1.0)" />
	<rect x="100" y="110" width="10" height="10" fill="rgba(0, 0, 0, 1.0)" />
	<rect x="110" y="110" width="10" height="10" fill="rgba(255, 251, 115, 1.0)" />
	<rect x="120" y="110" width="10" height="10" fill="rgba(0, 0, 0, 1.0)" />
	<rect x="130" y="110" width="10" height="10" fill="rgba(255, 255, 97, 1.0)" />
	<rect x="140" y="110" width="10" height="10" fill="rgba(0, 0, 0, 1.0)" />
	<rect x="150" y="110" width="10" height="10" fill="rgba(255, 255, 84, 1.0)" />
	<rect x="0" y="120" width="10" height="10" fill="rgba(192, 63, 255, 1.0)" />
	<rect x="10" y="120" width="10" height="10" fill="rgba(204, 66, 255, 1.0)" />
	<rect x="20" y="120" width="10" height="10" fill="rgba(218, 71, 255, 1.0)" />
	<rect x="30" y="120" width="10" height="10" fill="rgba(235, 77, 255, 1.0)" />
	<rect x="40" y="120" width="10" height="10" fill="rgba(255, 83, 255, 1.0)" />
	<rect x="50" y="120" width="10" height="10" fill="rgba(255, 91, 203, 1.0)" />
	<rect x="60" y="120" width="10" height="10" fill="rgba(255, 100, 169, 1.0)" />
	<rect x="70" y="120" width="10" height="10" fill="rgba(255, 111, 144, 1.0)" />
	<rect x="80" y="120" width="10" height="10" fill="rgba(255, 125, 126, 1.0)" />
	<rect x="90" y="120" width="10" height="10" fill="rgba(255, 143, 112, 1.0)" />
	<rect x="100" y="120" width="10" height="10" fill="rgba(255, 167, 101, 1.0)" />
	<rect x="110" y="120" width="10" height="10" fill="rgba(255, 200, 91, 1.0)" />
	<rect x="120" y="120" width="10" height="10" fill="rgba(255, 251, 84, 1.0)" />
	<rect x="130" y="120" width="10" height="10" fill="rgba(255, 255, 77, 1.0)" />
	<rect x="140" y="120" width="10" height="10" fill="rgba(255, 255, 72, 1.0)" />
	<rect x="150" y="120" width="10" height="10" fill="rgba(255, 255, 67, 1.0)" />
	<rect x="0" y="130" width="10" height="10" fill="rgba(0, 0, 0, 1.0)" />
	<rect x="10" y="130" width="10" height="10" fill="rgba(221, 49, 255, 1.0)" />
	<rect x="20" y="130" width="10" height="10" fill="rgba(0, 0, 0, 1.0)" />
	<rect x="30" y="130" width="10" height="10" fill="rgba(255, 57, 255, 1.0)" />
	<rect x="40" y="130" width="10" height="10" fill="rgba(0, 0, 0, 1.0)" />
	<rect x="50" y="130" width="10" height="10" fill="rgba(255, 68, 151, 1.0)" />
	<rect x="60" y="130" width="10" height="10" fill="rgba(0, 0, 0, 1.0)" />
	<rect x="70" y="130" width="10" height="10" fill="rgba(255, 83, 107, 1.0)" />
	<rect x="80" y="130" width="10" height="10" fill="rgba(0, 0, 0, 1.0)" />
	<rect x="90" y="130" width="10" height="10" fill="rgba(255, 107, 83, 1.0)" />
	<rect x="100" y="130" width="10" height="10" fill="rgba(0, 0, 0, 1.0)" />
	<rect x="110" y="130" width="10" height="10" fill="rgba(255, 149, 68, 1.0)" />
	<rect x="120" y="130" width="10" height="10" fill="rgba(0, 0, 0, 1.0)" />
	<rect x="130" y="130" width="10" height="10" fill="rgba(255, 249, 57, 1.0)" />
	<rect x="140" y="130" width="10" height="10" fill="rgba(0, 0, 0, 1.0)" />
	<rect x="150" y="130" width="10" height="10" fill="rgba(255, 255, 50, 1.0)" />
	<rect x="0" y="140" width="10" height="10" fill="rgba(224, 31, 255, 1.0)" />
	<rect x="10" y="140" width="10" height="10" fill="rgba(238, 32, 255, 1.0)" />
	<rect x="20" y="140" width="10" height="10" fill="rgba(255, 35, 255, 1.0)" />
	<rect x="30" y="140" width="10" height="10" fill="rgba(255, 38, 168, 1.0)" />
	<rect x="40" y="140" width="10" height="10" fill="rgba(255, 41, 125, 1.0)" />
	<rect x="50" y="140" width="10" height="10" fill="rgba(255, 44, 100, 1.0)" />
	<rect x="60" y="140" width="10" height="10" fill="rgba(255, 49, 83, 1.0)" />
	<rect x="70" y="140" width="10" height="10" fill="rgba(255, 54, 71, 1.0)" />
	<rect x="80" y="140" width="10" height="10" fill="rgba(255, 61, 62, 1.0)" />
	<rect x="90" y="140" width="10" height="10" fill="rgba(255, 70, 55, 1.0)" />
	<rect x="100" y="140" width="10" height="10" fill="rgba(255, 82, 49, 1.0)" />
	<rect x="110" y="140" width="10" height="10" fill="rgba(255, 98, 45, 1.0)" />
	<rect x="120" y="140" width="10" height="10" fill="rgba(255, 123, 41, 1.0)" />
	<rect x="130" y="140" width="10" height="10" fill="rgba(255, 164, 38, 1.0)" />
	<rect x="140" y="140" width="10" height="10" fill="rgba(255, 247, 35, 1.0)" />
	<rect x="150" y="140" width="10" height="10" fill="rgba(255, 255, 33, 1.0)" />
	<rect x="0" y="150" width="10" height="10" fill="rgba(0, 0, 0, 1.0)" />
	<rect x="10" y="150" width="10" height="10" fill="rgba(255, 15, 255, 1.0)" />
	<rect x="20" y="150" width="10" height="10" fill="rgba(0, 0, 0, 1.0)" />
	<rect x="30" y="150" width="10" height="10" fill="rgba(255, 18, 81, 1.0)" />
	<rect x="40" y="150" width="10" height="10" fill="rgba(0, 0, 0, 1.0)" />
	<rect x="50" y="150" width="10" height="10" fill="rgba(255, 21, 48, 1.0)" />
	<rect x="60" y="150" width="10" height="10" fill="rgba(0, 0, 0, 1.0)" />
	<rect x="70" y="150" width="10" height="10" fill="rgba(255, 26, 34, 1.0)" />
	<rect x="80" y="150" width="10" height="10" fill="rgba(0, 0, 0, 1.0)" />
	<rect x="90" y="150" width="10" height="10" fill="rgba(255, 34, 26, 1.0)" />
	<rect x="100" y="150" width="10" height="10" fill="rgba(0, 0, 0, 1.0)" />
	<rect x="110" y="150" width="10" height="10" fill="rgba(255, 47, 21, 1.0)" />
	<rect x="120" y="150" width="10" height="10" fill="rgba(0, 0, 0, 1.0)" />
	<rect x="130" y="150" width="10" height="10" fill="rgba(255, 79, 18, 1.0)" />
	<rect x="140" y="150" width="10" height="10" fill="rgba(0, 0, 0, 1.0)" />
	<rect x="150" y="150" width="10" height="10" fill="rgba(255, 239, 16, 1.0)" />
</svg>