<svg xmlns="http://www.w3.org/2000/svg" xmlns:xlink="http://www.w3.org/1999/xlink">
	<rect x="0" y="0" width="10" height="10" fill="rgba(148, 148, 148, 1.0)" />
	<rect x="10" y="0" width="10" height="10" fill="rgba(195, 195, 195, 1.0)" />
	<rect x="20" y="0" width="10" height="10" fill="rgba(147, 147, 147, 1.0)" />
	<rect x="30" y="0" width="10" height="10" fill="rgba(134, 134, 134, 1.0)" />
	<rect x="40" y="0" width="10" height="10" fill="rgba(134, 134, 134, 1.0)" />
	<rect x="50" y="0" width="10" height="10" fill="rgba(143, 143, 143, 1.0)" />
	<rect x="60" y="0" width="10" height="10" fill="rgba(127, 127, 127, 1.0)" />
	<rect x="70" y="0" width="10" height="10" fill="rgba(140, 140, 140, 1.0)" />
	<rect x="80" y="0" width="10" height="10" fill="rgba(158, 158, 158, 1.0)" />
	<rect x="90" y="0" width="10" height="10" fill="rgba(150, 150, 150, 1.0)" />
	<rect x="100" y="0" width="10" height="10" fill="rgba(138, 138, 138, 1.0)" />
	<rect x="110" y="0" width="10" height="10" fill="rgba(135, 135, 135, 1.0)" />
	<rect x="120" y="0" width="10" height="10" fill="rgba(137, 137, 137, 1.0)" />
	<rect x="130" y="0" width="10" height="10" fill="rgba(167, 167, 167, 1.0)" />
	<rect x="140" y="0" width="10" height="10" fill="rgba(112, 112, 112, 1.0)" />
	<rect x="150" y="0" width="10" height="10" fill="rgba(141, 141, 141, 1.0)" />
	<rect x="0" y="10" width="10" height="10" fill="rgba(149, 149, 149, 1.0)" />
	<rect x="10" y="10" width="10" height="10" fill="rgba(140, 140, 140, 1.0)" />
	<rect x="20" y="10" width="10" height="10" fill="rgba(160, 160, 160, 1.0)" />
	<rect x="30" y="10" width="10" height="10" fill="rgba(151, 151, 151, 1.0)" />
	<rect x="40" y="10" width="10" height="10" fill="rgba(153, 153, 153, 1.0)" />
	<rect x="50" y="10" width="10" height="10" fill="rgba(128, 128, 128, 1.0)" />
	<rect x="60" y="10" width="10" height="10" fill="rgba(153, 153, 153, 1.0)" />
	<rect x="70" y="10" width="10" height="10" fill="rgba(130, 130, 130, 1.0)" />
	<rect x="80" y="10" width="10" height="10" fill="rgba(127, 127, 127, 1.0)" />
	<rect x="90" y="10" width="10" height="10" fill="rgba(169, 169, 169, 1.0)" />
	<rect x="100" y="10" width="10" height="10" fill="rgba(166, 166, 166, 1.0)" />
	<rect x="110" y="10" width="10" height="10" fill="rgba(147, 147, 147, 1.0)" />
	<rect x="120" y="10" width="10" height="10" fill="rgba(195, 195, 195, 1.0)" />
	<rect x="130" y="10" width="10" height="10" fill="rgba(140, 140, 140, 1.0)" />
	<rect x="140" y="10" width="10" height="10" fill="rgba(135, 135, 135, 1.0)" />
	<rect x="150" y="10" width="10" height="10" fill="rgba(139, 139, 139, 1.0)" />
	<rect x="0" y="20" width="10" height="10" fill="rgba(163, 163, 163, 1.0)" />
	<rect x="10" y="20" width="10" height="10" fill="rgba(141, 141, 141, 1.0)" />
	<rect x="20" y="20" width="10" height="10" fill="rgba(125, 125, 125, 1.0)" />
	<rect x="30" y="20" width="10" height="10" fill="rgba(132, 132, 132, 1.0)" />
	<rect x="40" y="20" width="10" height="10" fill="rgba(137, 137, 137, 1.0)" />
	<rect x="50" y="20" width="10" height="10" fill="rgba(136, 136, 136, 1.0)" />
	<rect x="60" y="20" width="10" height="10" fill="rgba(144, 144, 144, 1.0)" />
	<rect x="70" y="20" width="10" height="10" fill="rgba(144, 144, 144, 1.0)" />
	<rect x="80" y="20" width="10" height="10" fill="rgba(148, 148, 148, 1.0)" />
	<rect x="90" y="20" width="10" height="10" fill="rgba(159, 159, 159, 1.0)" />
	<rect x="100" y="20" width="10" height="10" fill="rgba(168, 168, 168, 1.0)" />
	<rect x="110" y="20" width="10" height="10" fill="rgba(173, 173, 173, 1.0)" />
	<rect x="120" y="20" width="10" height="10" fill="rgba(135, 135, 135, 1.0)" />
	<rect x="130" y="20" width="10" height="10" fill="rgba(119, 119, 119, 1.0)" />
	<rect x="140" y="20" width="10" height="10" fill="rgba(128, 128, 128, 1.0)" />
	<rect x="150" y="20" width="10" height="10" fill="rgba(182, 182, 182, 1.0)" />
	<rect x="0" y="30" width="10" height="10" fill="rgba(118, 118, 118, 1.0)" />
	<rect x="10" y="30" width="10" height="10" fill="rgba(133, 133, 133, 1.0)" />
	<rect x="20" y="30" width="10" height="10" fill="rgba(138, 138, 138, 1.0)" />
	<rect x="30" y="30" width="10" height="10" fill="rgba(151, 151, 151, 1.0)" />
	<rect x="40" y="30" width="10" height="10" fill="rgba(145, 145, 145, 1.0)" />
	<rect x="50" y="30" width="10" height="10" fill="rgba(153, 153, 153, 1.0)" />
	<rect x="60" y="30" width="10" height="10" fill="rgba(125, 125, 125, 1.0)" />
	<rect x="70" y="30" width="10" height="10" fill="rgba(146, 146, 146, 1.0)" />
	<rect x="80" y="30" width="10" height="10" fill="rgba(127, 127, 127, 1.0)" />
	<rect x="90" y="30" width="10" height="10" fill="rgba(131, 131, 131, 1.0)" />
	<rect x="100" y="30" width="10" height="10" fill="rgba(141, 141, 141, 1.0)" />
	<rect x="110" y="30" width="10" height="10" fill="rgba(151, 151, 151, 1.0)" />
	<rect x="120" y="30" width="10" height="10" fill="rgba(143, 143, 143, 1.0)" />
	<rect x="130" y="30" width="10" height="10" fill="rgba(139, 139, 139, 1.0)" />
	<rect x="140" y="30" width="10" height="10" fill="rgba(167, 167, 167, 1.0)" />
	<rect x="150" y="30" width="10" height="10" fill="rgba(125, 125, 125, 1.0)" />
	<rect x="0" y="40" width="10" height="10" fill="rgba(162, 162, 162, 1.0)" />
	<rect x="10" y="40" width="10" height="10" fill="rgba(131, 131, 131, 1.0)" />
	<rect x="20" y="40" width="10" height="10" fill="rgba(173, 173, 173, 1.0)" />
	<rect x="30" y="40" width="10" height="10" fill="rgba(131, 131, 131, 1.0)" />
	<rect x="40" y="40" width="10" height="10" fill="rgba(172, 172, 172, 1.0)" />
	<rect x="50" y="40" width="10" height="10" fill="rgba(174, 174, 174, 1.0)" />
	<rect x="60" y="40" width="10" height="10" fill="rgba(136, 136, 136, 1.0)" />
	<rect x="70" y="40" width="10" height="10" fill="rgba(172, 172, 172, 1.0)" />
	<rect x="80" y="40" width="10" height="10" fill="rgba(186, 186, 186, 1.0)" />
	<rect x="90" y="40" width="10" height="10" fill="rgba(117, 117, 117, 1.0)" />
	<rect x="100" y="40" width="10" height="10" fill="rgba(128, 128, 128, 1.0)" />
	<rect x="110" y="40" width="10" height="10" fill="rgba(167, 167, 167, 1.0)" />
	<rect x="120" y="40" width="10" height="10" fill="rgba(171, 171, 171, 1.0)" />
	<rect x="130" y="40" width="10" height="10" fill="rgba(126, 126, 126, 1.0)" />
	<rect x="140" y="40" width="10" height="10" fill="rgba(136, 136, 136, 1.0)" />
	<rect x="150" y="40" width="10" height="10" fill="rgba(141, 141, 141, 1.0)" />
	<rect x="0" y="50" width="10" height="10" fill="rgba(153, 153, 153, 1.0)" />
	<rect x="10" y="50" width="10" height="10" fill="rgba(152, 152, 152, 1.0)" />
	<rect x="20" y="50" width="10" height="10" fill="rgba(120, 120, 120, 1.0)" />
	<rect x="30" y="50" width="10" height="10" fill="rgba(166, 166, 166, 1.0)" />
	<rect x="40" y="50" width="10" height="10" fill="rgba(129, 129, 129, 1.0)" />
	<rect x="50" y="50" width="10" height="10" fill="rgba(150, 150, 150, 1.0)" />
	<rect x="60" y="50" width="10" height="10" fill="rgba(149, 149, 149, 1.0)" />
	<rect x="70" y="50" width="10" height="10" fill="rgba(155, 155, 155, 1.0)" />
	<rect x="80" y="50" width="10" height="10" fill="rgba(135, 135, 135, 1.0)" />
	<rect x="90" y="50" width="10" height="10" fill="rgba(149, 149, 149, 1.0)" />
	<rect x="100" y="50" width="10" height="10" fill="rgba(136, 136, 136, 1.0)" />
	<rect x="110" y="50" width="10" height="10" fill="rgba(131, 131, 131, 1.0)" />
	<rect x="120" y="50" width="10" height="10" fill="rgba(120, 120, 120, 1.0)" />
	<rect x="130" y="50" width="10" height="10" fill="rgba(136, 136, 136, 1.0)" />
	<rect x="140" y="50" width="10" height="10" fill="rgba(142, 142, 142, 1.0)" />
	<rect x="150" y="50" width="10" height="10" fill="rgba(148, 148, 148, 1.0)" />
	<rect x="0" y="60" width="10" height="10" fill="rgba(126, 126, 126, 1.0)" />
	<rect x="10" y="60" width="10" height="10" fill="rgba(156, 156, 156, 1.0)" />
	<rect x="20" y="60" width="10" height="10" fill="rgba(165, 165, 165, 1.0)" />
	<rect x="30" y="60" width="10" height="10" fill="rgba(144, 144, 144, 1.0)" />
	<rect x="40" y="60" width="10" height="10" fill="rgba(146, 146, 146, 1.0)" />
	<rect x="50" y="60" width="10" height="10" fill="rgba(131, 131, 131, 1.0)" />
	<rect x="60" y="60" width="10" height="10" fill="rgba(138, 138, 138, 1.0)" />
	<rect x="70" y="60" width="10" height="10" fill="rgba(127, 127, 127, 1.0)" />
	<rect x="80" y="60" width="10" height="10" fill="rgba(132, 132, 132, 1.0)" />
	<rect x="90" y="60" width="10" height="10" fill="rgba(135, 135, 135, 1.0)" />
	<rect x="100" y="60" width="10" height="10" fill="rgba(181, 181, 181, 1.0)" />
	<rect x="110" y="60" width="10" height="10" fill="rgba(172, 172, 172, 1.0)" />
	<rect x="120" y="60" width="10" height="10" fill="rgba(145, 145, 145, 1.0)" />
	<rect x="130" y="60" width="10" height="10" fill="rgba(167, 167, 167, 1.0)" />
	<rect x="140" y="60" width="10" height="10" fill="rgba(151, 151, 151, 1.0)" />
	<rect x="150" y="60" width="10" height="10" fill="rgba(143, 143, 143, 1.0)" />
	<rect x="0" y="70" width="10" height="10" fill="rgba(143, 143, 143, 1.0)" />
	<rect x="10" y="70" width="10" height="10" fill="rgba(135, 135, 135, 1.0)" />
	<rect x="20" y="70" width="10" height="10" fill="rgba(157, 157, 157, 1.0)" />
	<rect x="30" y="70" width="10" height="10" fill="rgba(139, 139, 139, 1.0)" />
	<rect x="40" y="70" width="10" height="10" fill="rgba(144, 144, 144, 1.0)" />
	<rect x="50" y="70" width="10" height="10" fill="rgba(124, 124, 124, 1.0)" />
	<rect x="60" y="70" width="10" height="10" fill="rgba(164, 164, 164, 1.0)" />
	<rect x="70" y="70" width="10" height="10" fill="rgba(132, 132, 132, 1.0)" />
	<rect x="80" y="70" width="10" height="10" fill="rgba(151, 151, 151, 1.0)" />
	<rect x="90" y="70" width="10" height="10" fill="rgba(173, 173, 173, 1.0)" />
	<rect x="100" y="70" width="10" height="10" fill="rgba(135, 135, 135, 1.0)" />
	<rect x="110" y="70" width="10" height="10" fill="rgba(129, 129, 129, 1.0)" />
	<rect x="120" y="70" width="10" height="10" fill="rgba(143, 143, 143, 1.0)" />
	<rect x="130" y="70" width="10" height="10" fill="rgba(160, 160, 160, 1.0)" />
	<rect x="140" y="70" width="10" height="10" fill="rgba(127, 127, 127, 1.0)" />
	<rect x="150" y="70" width="10" height="10" fill="rgba(169, 169, 169, 1.0)" />
	<rect x="0" y="80" width="10" height="10" fill="rgba(167, 167, 167, 1.0)" />
	<rect x="10" y="80" width="10" height="10" fill="rgba(155, 155, 155, 1.0)" />
	<rect x="20" y="80" width="10" height="10" fill="rgba(182, 182, 182, 1.0)" />
	<rect x="30" y="80" width="10" height="10" fill="rgba(170, 170, 170, 1.0)" />
	<rect x="40" y="80" width="10" height="10" fill="rgba(172, 172, 172, 1.0)" />
	<rect x="50" y="80" width="10" height="10" fill="rgba(129, 129, 129, 1.0)" />
	<rect x="60" y="80" width="10" height="10" fill="rgba(173, 173, 173, 1.0)" />
	<rect x="70" y="80" width="10" height="10" fill="rgba(156, 156, 156, 1.0)" />
	<rect x="80" y="80" width="10" height="10" fill="rgba(179, 179, 179, 1.0)" />
	<rect x="90" y="80" width="10" height="10" fill="rgba(170, 170, 170, 1.0)" />
	<rect x="100" y="80" width="10" height="10" fill="rgba(130, 130, 130, 1.0)" />
	<rect x="110" y="80" width="10" height="10" fill="rgba(146, 146, 146, 1.0)" />
	<rect x="120" y="80" width="10" height="10" fill="rgba(133, 133, 133, 1.0)" />
	<rect x="130" y="80" width="10" height="10" fill="rgba(147, 147, 147, 1.0)" />
	<rect x="140" y="80" width="10" height="10" fill="rgba(158, 158, 158, 1.0)" />
	<rect x="150" y="80" width="10" height="10" fill="rgba(126, 126, 126, 1.0)" />
	<rect x="0" y="90" width="10" height="10" fill="rgba(151, 151, 151, 1.0)" />
	<rect x="10" y="90" width="10" height="10" fill="rgba(130, 130, 130, 1.0)" />
	<rect x="20" y="90" width="10" height="10" fill="rgba(183, 183, 183, 1.0)" />
	<rect x="30" y="90" width="10" height="10" fill="rgba(141, 141, 141, 1.0)" />
	<rect x="40" y="90" width="10" height="10" fill="rgba(140, 140, 140, 1.0)" />
	<rect x="50" y="90" width="10" height="10" fill="rgba(152, 152, 152, 1.0)" />
	<rect x="60" y="90" width="10" height="10" fill="rgba(170, 170, 170, 1.0)" />
	<rect x="70" y="90" width="10" height="10" fill="rgba(128, 128, 128, 1.0)" />
	<rect x="80" y="90" width="10" height="10" fill="rgba(135, 135, 135, 1.0)" />
	<rect x="90" y="90" width="10" height="10" fill="rgba(145, 145, 145, 1.0)" />
	<rect x="100" y="90" width="10" height="10" fill="rgba(146, 146, 146, 1.0)" />
	<rect x="110" y="90" width="10" height="10" fill="rgba(169, 169, 169, 1.0)" />
	<rect x="120" y="90" width="10" height="10" fill="rgba(142, 142, 142, 1.0)" />
	<rect x="130" y="90" width="10" height="10" fill="rgba(179, 179, 179, 1.0)" />
	<rect x="140" y="90" width="10" height="10" fill="rgba(143, 143, 143, 1.0)" />
	<rect x="150" y="90" width="10" height="10" fill="rgba(129, 129, 129, 1.0)" />
	<rect x="0" y="100" width="10" height="10" fill="rgba(155, 155, 155, 1.0)" />
	<rect x="10" y="100" width="10" height="10" fill="rgba(158, 158, 158, 1.0)" />
	<rect x="20" y="100" width="10" height="10" fill="rgba(151, 151, 151, 1.0)" />
	<rect x="30" y="100" width="10" height="10" fill="rgba(165, 165, 165, 1.0)" />
	<rect x="40" y="100" width="10" height="10" fill="rgba(130, 130, 130, 1.0)" />
	<rect x="50" y="100" width="10" height="10" fill="rgba(182, 182, 182, 1.0)" />
	<rect x="60" y="100" width="10" height="10" fill="rgba(142, 142, 142, 1.0)" />
	<rect x="70" y="100" width="10" height="10" fill="rgba(147, 147, 147, 1.0)" />
	<rect x="80" y="100" width="10" height="10" fill="rgba(192, 192, 192, 1.0)" />
	<rect x="90" y="100" width="10" height="10" fill="rgba(121, 121, 121, 1.0)" />
	<rect x="100" y="100" width="10" height="10" fill="rgba(167, 167, 167, 1.0)" />
	<rect x="110" y="100" width="10" height="10" fill="rgba(131, 131, 131, 1.0)" />
	<rect x="120" y="100" width="10" height="10" fill="rgba(143, 143, 143, 1.0)" />
	<rect x="130" y="100" width="10" height="10" fill="rgba(136, 136, 136, 1.0)" />
	<rect x="140" y="100" width="10" height="10" fill="rgba(151, 151, 151, 1.0)" />
	<rect x="150" y="100" width="10" height="10" fill="rgba(143, 143, 143, 1.0)" />
	<rect x="0" y="110" width="10" height="10" fill="rgba(132, 132, 132, 1.0)" />
	<rect x="10" y="110" width="10" height="10" fill="rgba(173, 173, 173, 1.0)" />
	<rect x="20" y="110" width="10" height="10" fill="rgba(134, 134, 134, 1.0)" />
	<rect x="30" y="110" width="10" height="10" fill="rgba(163, 163, 163, 1.0)" />
	<rect x="40" y="110" width="10" height="10" fill="rgba(151, 151, 151, 1.0)" />
	<rect x="50" y="110" width="10" height="10" fill="rgba(132, 132, 132, 1.0)" />
	<rect x="60" y="110" width="10" height="10" fill="rgba(146, 146, 146, 1.0)" />
	<rect x="70" y="110" width="10" height="10" fill="rgba(137, 137, 137, 1.0)" />
	<rect x="80" y="110" width="10" height="10" fill="rgba(151, 151, 151, 1.0)" />
	<rect x="90" y="110" width="10" height="10" fill="rgba(146, 146, 146, 1.0)" />
	<rect x="100" y="110" width="10" height="10" fill="rgba(140, 140, 140, 1.0)" />
	<rect x="110" y="110" width="10" height="10" fill="rgba(123, 123, 123, 1.0)" />
	<rect x="120" y="110" width="10" height="10" fill="rgba(179, 179, 179, 1.0)" />
	<rect x="130" y="110" width="10" height="10" fill="rgba(127, 127, 127, 1.0)" />
	<rect x="140" y="110" width="10" height="10" fill="rgba(125, 125, 125, 1.0)" />
	<rect x="150" y="110" width="10" height="10" fill="rgba(138, 138, 138, 1.0)" />
	<rect x="0" y="120" width="10" height="10" fill="rgba(186, 186, 186, 1.0)" />
	<rect x="10" y="120" width="10" height="10" fill="rgba(151, 151, 151, 1.0)" />
	<rect x="20" y="120" width="10" height="10" fill="rgba(129, 129, 129, 1.0)" />
	<rect x="30" y="120" width="10" height="10" fill="rgba(138, 138, 138, 1.0)" />
	<rect x="40" y="120" width="10" height="10" fill="rgba(153, 153, 153, 1.0)" />
	<rect x="50" y="120" width="10" height="10" fill="rgba(145, 145, 145, 1.0)" />
	<rect x="60" y="120" width="10" height="10" fill="rgba(133, 133, 133, 1.0)" />
	<rect x="70" y="120" width="10" height="10" fill="rgba(122, 122, 122, 1.0)" />
	<rect x="80" y="120" width="10" height="10" fill="rgba(138, 138, 138, 1.0)" />
	<rect x="90" y="120" width="10" height="10" fill="rgba(145, 145, 145, 1.0)" />
	<rect x="100" y="120" width="10" height="10" fill="rgba(138, 138, 138, 1.0)" />
	<rect x="110" y="120" width="10" height="10" fill="rgba(125, 125, 125, 1.0)" />
	<rect x="120" y="120" width="10" height="10" fill="rgba(159, 159, 159, 1.0)" />
	<rect x="130" y="120" width="10" height="10" fill="rgba(165, 165, 165, 1.0)" />
	<rect x="140" y="120" width="10" height="10" fill="rgba(121, 121, 121, 1.0)" />
	<rect x="150" y="120" width="10" height="10" fill="rgba(151, 151, 151, 1.0)" />
	<rect x="0" y="130" width="10" height="10" fill="rgba(129, 129, 129, 1.0)" />
	<rect x="10" y="130" width="10" height="10" fill="rgba(168, 168, 168, 1.0)" />
	<rect x="20" y="130" width="10" height="10" fill="rgba(118, 118, 118, 1.0)" />
	<rect x="30" y="130" width="10" height="10" fill="rgba(146, 146, 146, 1.0)" />
	<rect x="40" y="130" width="10" height="10" fill="rgba(125, 125, 125, 1.0)" />
	<rect x="50" y="130" width="10" height="10" fill="rgba(153, 153, 153, 1.0)" />
	<rect x="60" y="130" width="10" height="10" fill="rgba(129, 129, 129, 1.0)" />
	<rect x="70" y="130" width="10" height="10" fill="rgba(195, 195, 195, 1.0)" />
	<rect x="80" y="130" width="10" height="10" fill="rgba(161, 161, 161, 1.0)" />
	<rect x="90" y="130" width="10" height="10" fill="rgba(147, 147, 147, 1.0)" />
	<rect x="100" y="130" width="10" height="10" fill="rgba(168, 168, 168, 1.0)" />
	<rect x="110" y="130" width="10" height="10" fill="rgba(155, 155, 155, 1.0)" />
	<rect x="120" y="130" width="10" height="10" fill="rgba(160, 160, 160, 1.0)" />
	<rect x="130" y="130" width="10" height="10" fill="rgba(136, 136, 136, 1.0)" />
	<rect x="140" y="130" width="10" height="10" fill="rgba(168, 168, 168, 1.0)" />
	<rect x="150" y="130" width="10" height="10" fill="rgba(174, 174, 174, 1.0)" />
	<rect x="0" y="140" width="10" height="10" fill="rgba(163, 163, 163, 1.0)" />
	<rect x="10" y="140" width="10" height="10" fill="rgba(161, 161, 161, 1.0)" />
	<rect x="20" y="140" width="10" height="10" fill="rgba(192, 192, 192, 1.0)" />
	<rect x="30" y="140" width="10" height="10" fill="rgba(123, 123, 123, 1.0)" />
	<rect x="40" y="140" width="10" height="10" fill="rgba(179, 179, 179, 1.0)" />
	<rect x="50" y="140" width="10" height="10" fill="rgba(171, 171, 171, 1.0)" />
	<rect x="60" y="140" width="10" height="10" fill="rgba(148, 148, 148, 1.0)" />
	<rect x="70" y="140" width="10" height="10" fill="rgba(147, 147, 147, 1.0)" />
	<rect x="80" y="140" width="10" height="10" fill="rgba(126, 126, 126, 1.0)" />
	<rect x="90" y="140" width="10" height="10" fill="rgba(149, 149, 149, 1.0)" />
	<rect x="100" y="140" width="10" height="10" fill="rgba(149, 149, 149, 1.0)" />
	<rect x="110" y="140" width="10" height="10" fill="rgba(135, 135, 135, 1.0)" />
	<rect x="120" y="140" width="10" height="10" fill="rgba(169, 169, 169, 1.0)" />
	<rect x="130" y="140" width="10" height="10" fill="rgba(157, 157, 157, 1.0)" />
	<rect x="140" y="140" width="10" height="10" fill="rgba(139, 139, 139, 1.0)" />
	<rect x="150" y="140" width="10" height="10" fill="rgba(121, 121, 121, 1.0)" />
	<rect x="0" y="150" width="10" height="10" fill="rgba(133, 133, 133, 1.0)" />
	<rect x="10" y="150" width="10" height="10" fill="rgba(150, 150, 150, 1.0)" />
	<rect x="20" y="150" width="10" height="10" fill="rgba(136, 136, 136, 1.0)" />
	<rect x="30" y="150" width="10" height="10" fill="rgba(137, 137, 137, 1.0)" />
	<rect x="40" y="150" width="10" height="10" fill="rgba(164, 164, 164, 1.0)" />
	<rect x="50" y="150" width="10" height="10" fill="rgba(152, 152, 152, 1.0)" />
	<rect x="60" y="150" width="10" height="10" fill="rgba(148, 148, 148, 1.0)" />
	<rect x="70" y="150" width="10" height="10" fill="rgba(147, 147, 147, 1.0)" />
	<rect x="80" y="150" width="10" height="10" fill="rgba(142, 142, 142, 1.0)" />
	<rect x="90" y="150" width="10" height="10" fill="rgba(191, 191, 191, 1.0)" />
	<rect x="100" y="150" width="10" height="10" fill="rgba(124, 124, 124, 1.0)" />
	<rect x="110" y="150" width="10" height="10" fill="rgba(169, 169, 169, 1.0)" />
	<rect x="120" y="150" width="10" height="10" fill="rgba(132, 132, 132, 1.0)" />
	<rect x="130" y="150" width="10" height="10" fill="rgba(144, 144, 144, 1.0)" />
	<rect x="140" y="150" width="10" height="10" fill="rgba(136, 136, 136, 1.0)" />
	<rect x="150" y="150" width="10" height="10" fill="rgba(158, 158, 158, 1.0)" />
</svg>