<svg xmlns="http://www.w3.org/2000/svg" xmlns:xlink="http://www.w3.org/1999/xlink">
	<rect x="0" y="0" width="10" height="10" fill="rgba(116, 180, 74, 1.0)" />
	<rect x="10" y="0" width="10" height="10" fill="rgba(118, 182, 76, 1.0)" />
	<rect x="20" y="0" width="10" height="10" fill="rgba(115, 179, 73, 1.0)" />
	<rect x="30" y="0" width="10" height="10" fill="rgba(102, 166, 60, 1.0)" />
	<rect x="40" y="0" width="10" height="10" fill="rgba(102, 166, 60, 1.0)" />
	<rect x="50" y="0" width="10" height="10" fill="rgba(111, 175, 69, 1.0)" />
	<rect x="60" y="0" width="10" height="10" fill="rgba(95, 159, 53, 1.0)" />
	<rect x="70" y="0" width="10" height="10" fill="rgba(108, 172, 66, 1.0)" />
	<rect x="80" y="0" width="10" height="10" fill="rgba(126, 190, 84, 1.0)" />
	<rect x="90" y="0" width="10" height="10" fill="rgba(118, 182, 76, 1.0)" />
	<rect x="100" y="0" width="10" height="10" fill="rgba(106, 170, 64, 1.0)" />
	<rect x="110" y="0" width="10" height="10" fill="rgba(103, 167, 61, 1.0)" />
	<rect x="120" y="0" width="10" height="10" fill="rgba(105, 169, 63, 1.0)" />
	<rect x="130" y="0" width="10" height="10" fill="rgba(97, 161, 55, 1.0)" />
	<rect x="140" y="0" width="10" height="10" fill="rgba(80, 144, 38, 1.0)" />
	<rect x="150" y="0" width="10" height="10" fill="rgba(109, 173, 67, 1.0)" />
	<rect x="0" y="10" width="10" height="10" fill="rgba(117, 181, 75, 1.0)" />
	<rect x="10" y="10" width="10" height="10" fill="rgba(108, 172, 66, 1.0)" />
	<rect x="20" y="10" width="10" height="10" fill="rgba(138, 185, 90, 1.0)" />
	<rect x="30" y="10" width="10" height="10" fill="rgba(129, 176, 81, 1.0)" />
	<rect x="40" y="10" width="10" height="10" fill="rgba(131, 178, 83, 1.0)" />
	<rect x="50" y="10" width="10" height="10" fill="rgba(89, 61, 41, 1.0)" />
	<rect x="60" y="10" width="10" height="10" fill="rgba(104, 168, 62, 1.0)" />
	<rect x="70" y="10" width="10" height="10" fill="rgba(98, 162, 56, 1.0)" />
	<rect x="80" y="10" width="10" height="10" fill="rgba(95, 159, 53, 1.0)" />
	<rect x="90" y="10" width="10" height="10" fill="rgba(147, 194, 99, 1.0)" />
	<rect x="100" y="10" width="10" height="10" fill="rgba(144, 191, 96, 1.0)" />
	<rect x="110" y="10" width="10" height="10" fill="rgba(115, 179, 73, 1.0)" />
	<rect x="120" y="10" width="10" height="10" fill="rgba(97, 161, 55, 1.0)" />
	<rect x="130" y="10" width="10" height="10" fill="rgba(108, 172, 66, 1.0)" />
	<rect x="140" y="10" width="10" height="10" fill="rgba(103, 167, 61, 1.0)" />
	<rect x="150" y="10" width="10" height="10" fill="rgba(107, 171, 65, 1.0)" />
	<rect x="0" y="20" width="10" height="10" fill="rgba(141, 188, 93, 1.0)" />
	<rect x="10" y="20" width="10" height="10" fill="rgba(89, 61, 41, 1.0)" />
	<rect x="20" y="20" width="10" height="10" fill="rgba(156, 203, 108, 1.0)" />
	<rect x="30" y="20" width="10" height="10" fill="rgba(100, 164, 58, 1.0)" />
	<rect x="40" y="20" width="10" height="10" fill="rgba(105, 169, 63, 1.0)" />
	<rect x="50" y="20" width="10" height="10" fill="rgba(89, 61, 41, 1.0)" />
	<rect x="60" y="20" width="10" height="10" fill="rgba(112, 176, 70, 1.0)" />
	<rect x="70" y="20" width="10" height="10" fill="rgba(89, 61, 41, 1.0)" />
	<rect x="80" y="20" width="10" height="10" fill="rgba(116, 180, 74, 1.0)" />
	<rect x="90" y="20" width="10" height="10" fill="rgba(127, 191, 85, 1.0)" />
	<rect x="100" y="20" width="10" height="10" fill="rgba(146, 193, 98, 1.0)" />
	<rect x="110" y="20" width="10" height="10" fill="rgba(151, 198, 103, 1.0)" />
	<rect x="120" y="20" width="10" height="10" fill="rgba(89, 61, 41, 1.0)" />
	<rect x="130" y="20" width="10" height="10" fill="rgba(87, 151, 45, 1.0)" />
	<rect x="140" y="20" width="10" height="10" fill="rgba(96, 160, 54, 1.0)" />
	<rect x="150" y="20" width="10" height="10" fill="rgba(89, 61, 41, 1.0)" />
	<rect x="0" y="30" width="10" height="10" fill="rgba(89, 61, 41, 1.0)" />
	<rect x="10" y="30" width="10" height="10" fill="rgba(108, 108, 108, 1.0)" />
	<rect x="20" y="30" width="10" height="10" fill="rgba(89, 61, 41, 1.0)" />
	<rect x="30" y="30" width="10" height="10" fill="rgba(89, 61, 41, 1.0)" />
	<rect x="40" y="30" width="10" height="10" fill="rgba(113, 177, 71, 1.0)" />
	<rect x="50" y="30" width="10" height="10" fill="rgba(89, 61, 41, 1.0)" />
	<rect x="60" y="30" width="10" height="10" fill="rgba(89, 61, 41, 1.0)" />
	<rect x="70" y="30" width="10" height="10" fill="rgba(89, 61, 41, 1.0)" />
	<rect x="80" y="30" width="10" height="10" fill="rgba(95, 159, 53, 1.0)" />
	<rect x="90" y="30" width="10" height="10" fill="rgba(89, 61, 41, 1.0)" />
	<rect x="100" y="30" width="10" height="10" fill="rgba(109, 173, 67, 1.0)" />
	<rect x="110" y="30" width="10" height="10" fill="rgba(89, 61, 41, 1.0)" />
	<rect x="120" y="30" width="10" height="10" fill="rgba(121, 85, 58, 1.0)" />
	<rect x="130" y="30" width="10" height="10" fill="rgba(89, 61, 41, 1.0)" />
	<rect x="140" y="30" width="10" height="10" fill="rgba(89, 61, 41, 1.0)" />
	<rect x="150" y="30" width="10" height="10" fill="rgba(121, 85, 58, 1.0)" />
	<rect x="0" y="40" width="10" height="10" fill="rgba(150, 108, 74, 1.0)" />
	<rect x="10" y="40" width="10" height="10" fill="rgba(121, 85, 58, 1.0)" />
	<rect x="20" y="40" width="10" height="10" fill="rgba(150, 108, 74, 1.0)" />
	<rect x="30" y="40" width="10" height="10" fill="rgba(185, 133, 92, 1.0)" />
	<rect x="40" y="40" width="10" height="10" fill="rgba(89, 61, 41, 1.0)" />
	<rect x="50" y="40" width="10" height="10" fill="rgba(150, 108, 74, 1.0)" />
	<rect x="60" y="40" width="10" height="10" fill="rgba(121, 85, 58, 1.0)" />
	<rect x="70" y="40" width="10" height="10" fill="rgba(121, 85, 58, 1.0)" />
	<rect x="80" y="40" width="10" height="10" fill="rgba(89, 61, 41, 1.0)" />
	<rect x="90" y="40" width="10" height="10" fill="rgba(89, 61, 41, 1.0)" />
	<rect x="100" y="40" width="10" height="10" fill="rgba(89, 61, 41, 1.0)" />
	<rect x="110" y="40" width="10" height="10" fill="rgba(108, 108, 108, 1.0)" />
	<rect x="120" y="40" width="10" height="10" fill="rgba(121, 85, 58, 1.0)" />
	<rect x="130" y="40" width="10" height="10" fill="rgba(150, 108, 74, 1.0)" />
	<rect x="140" y="40" width="10" height="10" fill="rgba(89, 61, 41, 1.0)" />
	<rect x="150" y="40" width="10" height="10" fill="rgba(121, 85, 58, 1.0)" />
	<rect x="0" y="50" width="10" height="10" fill="rgba(121, 85, 58, 1.0)" />
	<rect x="10" y="50" width="10" height="10" fill="rgba(89, 61, 41, 1.0)" />
	<rect x="20" y="50" width="10" height="10" fill="rgba(150, 108, 74, 1.0)" />
	<rect x="30" y="50" width="10" height="10" fill="rgba(150, 108, 74, 1.0)" />
	<rect x="40" y="50" width="10" height="10" fill="rgba(121, 85, 58, 1.0)" />
	<rect x="50" y="50" width="10" height="10" fill="rgba(150, 108, 74, 1.0)" />
	<rect x="60" y="50" width="10" height="10" fill="rgba(89, 61, 41, 1.0)" />
	<rect x="70" y="50" width="10" height="10" fill="rgba(89, 61, 41, 1.0)" />
	<rect x="80" y="50" width="10" height="10" fill="rgba(89, 61, 41, 1.0)" />
	<rect x="90" y="50" width="10" height="10" fill="rgba(121, 85, 58, 1.0)" />
	<rect x="100" y="50" width="10" height="10" fill="rgba(121, 85, 58, 1.0)" />
	<rect x="110" y="50" width="10" height="10" fill="rgba(89, 61, 41, 1.0)" />
	<rect x="120" y="50" width="10" height="10" fill="rgba(121, 85, 58, 1.0)" />
	<rect x="130" y="50" width="10" height="10" fill="rgba(121, 85, 58, 1.0)" />
	<rect x="140" y="50" width="10" height="10" fill="rgba(121, 85, 58, 1.0)" />
	<rect x="150" y="50" width="10" height="10" fill="rgba(185, 133, 92, 1.0)" />
	<rect x="0" y="60" width="10" height="10" fill="rgba(185, 133, 92, 1.0)" />
	<rect x="10" y="60" width="10" height="10" fill="rgba(121, 85, 58, 1.0)" />
	<rect x="20" y="60" width="10" height="10" fill="rgba(121, 85, 58, 1.0)" />
	<rect x="30" y="60" width="10" height="10" fill="rgba(121, 85, 58, 1.0)" />
	<rect x="40" y="60" width="10" height="10" fill="rgba(135, 135, 135, 1.0)" />
	<rect x="50" y="60" width="10" height="10" fill="rgba(121, 85, 58, 1.0)" />
	<rect x="60" y="60" width="10" height="10" fill="rgba(121, 85, 58, 1.0)" />
	<rect x="70" y="60" width="10" height="10" fill="rgba(185, 133, 92, 1.0)" />
	<rect x="80" y="60" width="10" height="10" fill="rgba(185, 133, 92, 1.0)" />
	<rect x="90" y="60" width="10" height="10" fill="rgba(121, 85, 58, 1.0)" />
	<rect x="100" y="60" width="10" height="10" fill="rgba(185, 133, 92, 1.0)" />
	<rect x="110" y="60" width="10" height="10" fill="rgba(185, 133, 92, 1.0)" />
	<rect x="120" y="60" width="10" height="10" fill="rgba(121, 85, 58, 1.0)" />
	<rect x="130" y="60" width="10" height="10" fill="rgba(150, 108, 74, 1.0)" />
	<rect x="140" y="60" width="10" height="10" fill="rgba(121, 85, 58, 1.0)" />
	<rect x="150" y="60" width="10" height="10" fill="rgba(150, 108, 74, 1.0)" />
	<rect x="0" y="70" width="10" height="10" fill="rgba(121, 85, 58, 1.0)" />
	<rect x="10" y="70" width="10" height="10" fill="rgba(121, 85, 58, 1.0)" />
	<rect x="20" y="70" width="10" height="10" fill="rgba(185, 133, 92, 1.0)" />
	<rect x="30" y="70" width="10" height="10" fill="rgba(185, 133, 92, 1.0)" />
	<rect x="40" y="70" width="10" height="10" fill="rgba(150, 108, 74, 1.0)" />
	<rect x="50" y="70" width="10" height="10" fill="rgba(150, 108, 74, 1.0)" />
	<rect x="60" y="70" width="10" height="10" fill="rgba(121, 85, 58, 1.0)" />
	<rect x="70" y="70" width="10" height="10" fill="rgba(121, 85, 58, 1.0)" />
	<rect x="80" y="70" width="10" height="10" fill="rgba(150, 108, 74, 1.0)" />
	<rect x="90" y="70" width="10" height="10" fill="rgba(89, 61, 41, 1.0)" />
	<rect x="100" y="70" width="10" height="10" fill="rgba(150, 108, 74, 1.0)" />
	<rect x="110" y="70" width="10" height="10" fill="rgba(150, 108, 74, 1.0)" />
	<rect x="120" y="70" width="10" height="10" fill="rgba(121, 85, 58, 1.0)" />
	<rect x="130" y="70" width="10" height="10" fill="rgba(121, 85, 58, 1.0)" />
	<rect x="140" y="70" width="10" height="10" fill="rgba(150, 108, 74, 1.0)" />
	<rect x="150" y="70" width="10" height="10" fill="rgba(150, 108, 74, 1.0)" />
	<rect x="0" y="80" width="10" height="10" fill="rgba(150, 108, 74, 1.0)" />
	<rect x="10" y="80" width="10" height="10" fill="rgba(121, 85, 58, 1.0)" />
	<rect x="20" y="80" width="10" height="10" fill="rgba(121, 85, 58, 1.0)" />
	<rect x="30" y="80" width="10" height="10" fill="rgba(150, 108, 74, 1.0)" />
	<rect x="40" y="80" width="10" height="10" fill="rgba(121, 85, 58, 1.0)" />
	<rect x="50" y="80" width="10" height="10" fill="rgba(150, 108, 74, 1.0)" />
	<rect x="60" y="80" width="10" height="10" fill="rgba(121, 85, 58, 1.0)" />
	<rect x="70" y="80" width="10" height="10" fill="rgba(89, 61, 41, 1.0)" />
	<rect x="80" y="80" width="10" height="10" fill="rgba(121, 85, 58, 1.0)" />
	<rect x="90" y="80" width="10" height="10" fill="rgba(150, 108, 74, 1.0)" />
	<rect x="100" y="80" width="10" height="10" fill="rgba(150, 108, 74, 1.0)" />
	<rect x="110" y="80" width="10" height="10" fill="rgba(121, 85, 58, 1.0)" />
	<rect x="120" y="80" width="10" height="10" fill="rgba(121, 85, 58, 1.0)" />
	<rect x="130" y="80" width="10" height="10" fill="rgba(121, 85, 58, 1.0)" />
	<rect x="140" y="80" width="10" height="10" fill="rgba(89, 61, 41, 1.0)" />
	<rect x="150" y="80" width="10" height="10" fill="rgba(121, 85, 58, 1.0)" />
	<rect x="0" y="90" width="10" height="10" fill="rgba(121, 85, 58, 1.0)" />
	<rect x="10" y="90" width="10" height="10" fill="rgba(150, 108, 74, 1.0)" />
	<rect x="20" y="90" width="10" height="10" fill="rgba(89, 61, 41, 1.0)" />
	<rect x="30" y="90" width="10" height="10" fill="rgba(121, 85, 58, 1.0)" />
	<rect x="40" y="90" width="10" height="10" fill="rgba(121, 85, 58, 1.0)" />
	<rect x="50" y="90" width="10" height="10" fill="rgba(89, 61, 41, 1.0)" />
	<rect x="60" y="90" width="10" height="10" fill="rgba(89, 61, 41, 1.0)" />
	<rect x="70" y="90" width="10" height="10" fill="rgba(121, 85, 58, 1.0)" />
	<rect x="80" y="90" width="10" height="10" fill="rgba(121, 85, 58, 1.0)" />
	<rect x="90" y="90" width="10" height="10" fill="rgba(121, 85, 58, 1.0)" />
	<rect x="100" y="90" width="10" height="10" fill="rgba(121, 85, 58, 1.0)" />
	<rect x="110" y="90" width="10" height="10" fill="rgba(121, 85, 58, 1.0)" />
	<rect x="120" y="90" width="10" height="10" fill="rgba(185, 133, 92, 1.0)" />
	<rect x="130" y="90" width="10" height="10" fill="rgba(185, 133, 92, 1.0)" />
	<rect x="140" y="90" width="10" height="10" fill="rgba(121, 85, 58, 1.0)" />
	<rect x="150" y="90" width="10" height="10" fill="rgba(150, 108, 74, 1.0)" />
	<rect x="0" y="100" width="10" height="10" fill="rgba(121, 85, 58, 1.0)" />
	<rect x="10" y="100" width="10" height="10" fill="rgba(150, 108, 74, 1.0)" />
	<rect x="20" y="100" width="10" height="10" fill="rgba(121, 85, 58, 1.0)" />
	<rect x="30" y="100" width="10" height="10" fill="rgba(185, 133, 92, 1.0)" />
	<rect x="40" y="100" width="10" height="10" fill="rgba(185, 133, 92, 1.0)" />
	<rect x="50" y="100" width="10" height="10" fill="rgba(121, 85, 58, 1.0)" />
	<rect x="60" y="100" width="10" height="10" fill="rgba(185, 133, 92, 1.0)" />
	<rect x="70" y="100" width="10" height="10" fill="rgba(150, 108, 74, 1.0)" />
	<rect x="80" y="100" width="10" height="10" fill="rgba(89, 61, 41, 1.0)" />
	<rect x="90" y="100" width="10" height="10" fill="rgba(185, 133, 92, 1.0)" />
	<rect x="100" y="100" width="10" height="10" fill="rgba(185, 133, 92, 1.0)" />
	<rect x="110" y="100" width="10" height="10" fill="rgba(89, 61, 41, 1.0)" />
	<rect x="120" y="100" width="10" height="10" fill="rgba(150, 108, 74, 1.0)" />
	<rect x="130" y="100" width="10" height="10" fill="rgba(150, 108, 74, 1.0)" />
	<rect x="140" y="100" width="10" height="10" fill="rgba(135, 135, 135, 1.0)" />
	<rect x="150" y="100" width="10" height="10" fill="rgba(121, 85, 58, 1.0)" />
	<rect x="0" y="110" width="10" height="10" fill="rgba(150, 108, 74, 1.0)" />
	<rect x="10" y="110" width="10" height="10" fill="rgba(121, 85, 58, 1.0)" />
	<rect x="20" y="110" width="10" height="10" fill="rgba(121, 85, 58, 1.0)" />
	<rect x="30" y="110" width="10" height="10" fill="rgba(150, 108, 74, 1.0)" />
	<rect x="40" y="110" width="10" height="10" fill="rgba(150, 108, 74, 1.0)" />
	<rect x="50" y="110" width="10" height="10" fill="rgba(185, 133, 92, 1.0)" />
	<rect x="60" y="110" width="10" height="10" fill="rgba(121, 85, 58, 1.0)" />
	<rect x="70" y="110" width="10" height="10" fill="rgba(150, 108, 74, 1.0)" />
	<rect x="80" y="110" width="10" height="10" fill="rgba(108, 108, 108, 1.0)" />
	<rect x="90" y="110" width="10" height="10" fill="rgba(150, 108, 74, 1.0)" />
	<rect x="100" y="110" width="10" height="10" fill="rgba(150, 108, 74, 1.0)" />
	<rect x="110" y="110" width="10" height="10" fill="rgba(121, 85, 58, 1.0)" />
	<rect x="120" y="110" width="10" height="10" fill="rgba(89, 61, 41, 1.0)" />
	<rect x="130" y="110" width="10" height="10" fill="rgba(150, 108, 74, 1.0)" />
	<rect x="140" y="110" width="10" height="10" fill="rgba(121, 85, 58, 1.0)" />
	<rect x="150" y="110" width="10" height="10" fill="rgba(89, 61, 41, 1.0)" />
	<rect x="0" y="120" width="10" height="10" fill="rgba(121, 85, 58, 1.0)" />
	<rect x="10" y="120" width="10" height="10" fill="rgba(89, 61, 41, 1.0)" />
	<rect x="20" y="120" width="10" height="10" fill="rgba(150, 108, 74, 1.0)" />
	<rect x="30" y="120" width="10" height="10" fill="rgba(121, 85, 58, 1.0)" />
	<rect x="40" y="120" width="10" height="10" fill="rgba(150, 108, 74, 1.0)" />
	<rect x="50" y="120" width="10" height="10" fill="rgba(150, 108, 74, 1.0)" />
	<rect x="60" y="120" width="10" height="10" fill="rgba(185, 133, 92, 1.0)" />
	<rect x="70" y="120" width="10" height="10" fill="rgba(121, 85, 58, 1.0)" />
	<rect x="80" y="120" width="10" height="10" fill="rgba(121, 85, 58, 1.0)" />
	<rect x="90" y="120" width="10" height="10" fill="rgba(121, 85, 58, 1.0)" />
	<rect x="100" y="120" width="10" height="10" fill="rgba(121, 85, 58, 1.0)" />
	<rect x="110" y="120" width="10" height="10" fill="rgba(121, 85, 58, 1.0)" />
	<rect x="120" y="120" width="10" height="10" fill="rgba(121, 85, 58, 1.0)" />
	<rect x="130" y="120" width="10" height="10" fill="rgba(121, 85, 58, 1.0)" />
	<rect x="140" y="120" width="10" height="10" fill="rgba(185, 133, 92, 1.0)" />
	<rect x="150" y="120" width="10" height="10" fill="rgba(185, 133, 92, 1.0)" />
	<rect x="0" y="130" width="10" height="10" fill="rgba(121, 85, 58, 1.0)" />
	<rect x="10" y="130" width="10" height="10" fill="rgba(150, 108, 74, 1.0)" />
	<rect x="20" y="130" width="10" height="10" fill="rgba(121, 85, 58, 1.0)" />
	<rect x="30" y="130" width="10" height="10" fill="rgba(121, 85, 58, 1.0)" />
	<rect x="40" y="130" width="10" height="10" fill="rgba(116, 88, 68, 1.0)" />
	<rect x="50" y="130" width="10" height="10" fill="rgba(121, 85, 58, 1.0)" />
	<rect x="60" y="130" width="10" height="10" fill="rgba(150, 108, 74, 1.0)" />
	<rect x="70" y="130" width="10" height="10" fill="rgba(150, 108, 74, 1.0)" />
	<rect x="80" y="130" width="10" height="10" fill="rgba(121, 85, 58, 1.0)" />
	<rect x="90" y="130" width="10" height="10" fill="rgba(89, 61, 41, 1.0)" />
	<rect x="100" y="130" width="10" height="10" fill="rgba(185, 133, 92, 1.0)" />
	<rect x="110" y="130" width="10" height="10" fill="rgba(89, 61, 41, 1.0)" />
	<rect x="120" y="130" width="10" height="10" fill="rgba(121, 85, 58, 1.0)" />
	<rect x="130" y="130" width="10" height="10" fill="rgba(185, 133, 92, 1.0)" />
	<rect x="140" y="130" width="10" height="10" fill="rgba(150, 108, 74, 1.0)" />
	<rect x="150" y="130" width="10" height="10" fill="rgba(150, 108, 74, 1.0)" />
	<rect x="0" y="140" width="10" height="10" fill="rgba(150, 108, 74, 1.0)" />
	<rect x="10" y="140" width="10" height="10" fill="rgba(121, 85, 58, 1.0)" />
	<rect x="20" y="140" width="10" height="10" fill="rgba(89, 61, 41, 1.0)" />
	<rect x="30" y="140" width="10" height="10" fill="rgba(185, 133, 92, 1.0)" />
	<rect x="40" y="140" width="10" height="10" fill="rgba(121, 85, 58, 1.0)" />
	<rect x="50" y="140" width="10" height="10" fill="rgba(89, 61, 41, 1.0)" />
	<rect x="60" y="140" width="10" height="10" fill="rgba(121, 85, 58, 1.0)" />
	<rect x="70" y="140" width="10" height="10" fill="rgba(89, 61, 41, 1.0)" />
	<rect x="80" y="140" width="10" height="10" fill="rgba(185, 133, 92, 1.0)" />
	<rect x="90" y="140" width="10" height="10" fill="rgba(185, 133, 92, 1.0)" />
	<rect x="100" y="140" width="10" height="10" fill="rgba(121, 85, 58, 1.0)" />
	<rect x="110" y="140" width="10" height="10" fill="rgba(150, 108, 74, 1.0)" />
	<rect x="120" y="140" width="10" height="10" fill="rgba(121, 85, 58, 1.0)" />
	<rect x="130" y="140" width="10" height="10" fill="rgba(121, 85, 58, 1.0)" />
	<rect x="140" y="140" width="10" height="10" fill="rgba(150, 108, 74, 1.0)" />
	<rect x="150" y="140" width="10" height="10" fill="rgba(150, 108, 74, 1.0)" />
	<rect x="0" y="150" width="10" height="10" fill="rgba(150, 108, 74, 1.0)" />
	<rect x="10" y="150" width="10" height="10" fill="rgba(121, 85, 58, 1.0)" />
	<rect x="20" y="150" width="10" height="10" fill="rgba(185, 133, 92, 1.0)" />
	<rect x="30" y="150" width="10" height="10" fill="rgba(150, 108, 74, 1.0)" />
	<rect x="40" y="150" width="10" height="10" fill="rgba(150, 108, 74, 1.0)" />
	<rect x="50" y="150" width="10" height="10" fill="rgba(121, 85, 58, 1.0)" />
	<rect x="60" y="150" width="10" height="10" fill="rgba(135, 135, 135, 1.0)" />
	<rect x="70" y="150" width="10" height="10" fill="rgba(121, 85, 58, 1.0)" />
	<rect x="80" y="150" width="10" height="10" fill="rgba(150, 108, 74, 1.0)" />
	<rect x="90" y="150" width="10" height="10" fill="rgba(150, 108, 74, 1.0)" />
	<rect x="100" y="150" width="10" height="10" fill="rgba(121, 85, 58, 1.0)" />
	<rect x="110" y="150" width="10" height="10" fill="rgba(121, 85, 58, 1.0)" />
	<rect x="120" y="150" width="10" height="10" fill="rgba(150, 108, 74, 1.0)" />
	<rect x="130" y="150" width="10" height="10" fill="rgba(150, 108, 74, 1.0)" />
	<rect x="140" y="150" width="10" height="10" fill="rgba(121, 85, 58, 1.0)" />
	<rect x="150" y="150" width="10" height="10" fill="rgba(89, 61, 41, 1.0)" />
</svg>