<svg xmlns="http://www.w3.org/2000/svg" xmlns:xlink="http://www.w3.org/1999/xlink">
	<rect x="0" y="0" width="10" height="10" fill="rgba(48, 51, 54, 1.0)" />
	<rect x="10" y="0" width="10" height="10" fill="rgba(59, 63, 66, 1.0)" />
	<rect x="20" y="0" width="10" height="10" fill="rgba(59, 63, 66, 1.0)" />
	<rect x="30" y="0" width="10" height="10" fill="rgba(48, 51, 54, 1.0)" />
	<rect x="40" y="0" width="10" height="10" fill="rgba(48, 51, 54, 1.0)" />
	<rect x="50" y="0" width="10" height="10" fill="rgba(58, 62, 66, 1.0)" />
	<rect x="60" y="0" width="10" height="10" fill="rgba(58, 62, 66, 1.0)" />
	<rect x="70" y="0" width="10" height="10" fill="rgba(50, 53, 57, 1.0)" />
	<rect x="80" y="0" width="10" height="10" fill="rgba(47, 49, 52, 1.0)" />
	<rect x="90" y="0" width="10" height="10" fill="rgba(58, 62, 66, 1.0)" />
	<rect x="100" y="0" width="10" height="10" fill="rgba(58, 62, 66, 1.0)" />
	<rect x="110" y="0" width="10" height="10" fill="rgba(50, 53, 57, 1.0)" />
	<rect x="120" y="0" width="10" height="10" fill="rgba(48, 51, 54, 1.0)" />
	<rect x="130" y="0" width="10" height="10" fill="rgba(58, 62, 66, 1.0)" />
	<rect x="140" y="0" width="10" height="10" fill="rgba(58, 62, 66, 1.0)" />
	<rect x="150" y="0" width="10" height="10" fill="rgba(45, 47, 50, 1.0)" />
	<rect x="0" y="10" width="10" height="10" fill="rgba(58, 62, 66, 1.0)" />
	<rect x="10" y="10" width="10" height="10" fill="rgba(43, 45, 48, 1.0)" />
	<rect x="20" y="10" width="10" height="10" fill="rgba(44, 46, 49, 1.0)" />
	<rect x="30" y="10" width="10" height="10" fill="rgba(54, 57, 61, 1.0)" />
	<rect x="40" y="10" width="10" height="10" fill="rgba(54, 57, 61, 1.0)" />
	<rect x="50" y="10" width="10" height="10" fill="rgba(44, 46, 50, 1.0)" />
	<rect x="60" y="10" width="10" height="10" fill="rgba(43, 45, 48, 1.0)" />
	<rect x="70" y="10" width="10" height="10" fill="rgba(54, 57, 61, 1.0)" />
	<rect x="80" y="10" width="10" height="10" fill="rgba(54, 57, 61, 1.0)" />
	<rect x="90" y="10" width="10" height="10" fill="rgba(44, 46, 49, 1.0)" />
	<rect x="100" y="10" width="10" height="10" fill="rgba(43, 45, 48, 1.0)" />
	<rect x="110" y="10" width="10" height="10" fill="rgba(54, 57, 61, 1.0)" />
	<rect x="120" y="10" width="10" height="10" fill="rgba(54, 57, 61, 1.0)" />
	<rect x="130" y="10" width="10" height="10" fill="rgba(44, 46, 50, 1.0)" />
	<rect x="140" y="10" width="10" height="10" fill="rgba(44, 46, 49, 1.0)" />
	<rect x="150" y="10" width="10" height="10" fill="rgba(48, 51, 54, 1.0)" />
	<rect x="0" y="20" width="10" height="10" fill="rgba(59, 63, 66, 1.0)" />
	<rect x="10" y="20" width="10" height="10" fill="rgba(44, 46, 50, 1.0)" />
	<rect x="20" y="20" width="10" height="10" fill="rgba(54, 57, 61, 1.0)" />
	<rect x="30" y="20" width="10" height="10" fill="rgba(61, 66, 69, 1.0)" />
	<rect x="40" y="20" width="10" height="10" fill="rgba(61, 66, 69, 1.0)" />
	<rect x="50" y="20" width="10" height="10" fill="rgba(54, 57, 61, 1.0)" />
	<rect x="60" y="20" width="10" height="10" fill="rgba(54, 57, 61, 1.0)" />
	<rect x="70" y="20" width="10" height="10" fill="rgba(61, 66, 69, 1.0)" />
	<rect x="80" y="20" width="10" height="10" fill="rgba(61, 66, 69, 1.0)" />
	<rect x="90" y="20" width="10" height="10" fill="rgba(54, 57, 61, 1.0)" />
	<rect x="100" y="20" width="10" height="10" fill="rgba(53, 55, 59, 1.0)" />
	<rect x="110" y="20" width="10" height="10" fill="rgba(62, 66, 70, 1.0)" />
	<rect x="120" y="20" width="10" height="10" fill="rgba(62, 66, 70, 1.0)" />
	<rect x="130" y="20" width="10" height="10" fill="rgba(54, 57, 61, 1.0)" />
	<rect x="140" y="20" width="10" height="10" fill="rgba(44, 46, 50, 1.0)" />
	<rect x="150" y="20" width="10" height="10" fill="rgba(47, 49, 52, 1.0)" />
	<rect x="0" y="30" width="10" height="10" fill="rgba(48, 51, 54, 1.0)" />
	<rect x="10" y="30" width="10" height="10" fill="rgba(54, 57, 61, 1.0)" />
	<rect x="20" y="30" width="10" height="10" fill="rgba(61, 66, 69, 1.0)" />
	<rect x="30" y="30" width="10" height="10" fill="rgba(62, 66, 70, 1.0)" />
	<rect x="40" y="30" width="10" height="10" fill="rgba(60, 64, 68, 1.0)" />
	<rect x="50" y="30" width="10" height="10" fill="rgba(60, 64, 68, 1.0)" />
	<rect x="60" y="30" width="10" height="10" fill="rgba(62, 66, 70, 1.0)" />
	<rect x="70" y="30" width="10" height="10" fill="rgba(62, 66, 70, 1.0)" />
	<rect x="80" y="30" width="10" height="10" fill="rgba(62, 66, 70, 1.0)" />
	<rect x="90" y="30" width="10" height="10" fill="rgba(61, 66, 69, 1.0)" />
	<rect x="100" y="30" width="10" height="10" fill="rgba(60, 64, 68, 1.0)" />
	<rect x="110" y="30" width="10" height="10" fill="rgba(62, 66, 70, 1.0)" />
	<rect x="120" y="30" width="10" height="10" fill="rgba(62, 66, 70, 1.0)" />
	<rect x="130" y="30" width="10" height="10" fill="rgba(62, 66, 70, 1.0)" />
	<rect x="140" y="30" width="10" height="10" fill="rgba(54, 57, 61, 1.0)" />
	<rect x="150" y="30" width="10" height="10" fill="rgba(41, 43, 47, 1.0)" />
	<rect x="0" y="40" width="10" height="10" fill="rgba(47, 49, 52, 1.0)" />
	<rect x="10" y="40" width="10" height="10" fill="rgba(54, 57, 61, 1.0)" />
	<rect x="20" y="40" width="10" height="10" fill="rgba(62, 66, 70, 1.0)" />
	<rect x="30" y="40" width="10" height="10" fill="rgba(62, 66, 70, 1.0)" />
	<rect x="40" y="40" width="10" height="10" fill="rgba(62, 66, 70, 1.0)" />
	<rect x="50" y="40" width="10" height="10" fill="rgba(62, 66, 70, 1.0)" />
	<rect x="60" y="40" width="10" height="10" fill="rgba(62, 66, 70, 1.0)" />
	<rect x="70" y="40" width="10" height="10" fill="rgba(62, 66, 70, 1.0)" />
	<rect x="80" y="40" width="10" height="10" fill="rgba(62, 66, 70, 1.0)" />
	<rect x="90" y="40" width="10" height="10" fill="rgba(62, 66, 70, 1.0)" />
	<rect x="100" y="40" width="10" height="10" fill="rgba(62, 67, 71, 1.0)" />
	<rect x="110" y="40" width="10" height="10" fill="rgba(61, 66, 69, 1.0)" />
	<rect x="120" y="40" width="10" height="10" fill="rgba(61, 66, 69, 1.0)" />
	<rect x="130" y="40" width="10" height="10" fill="rgba(61, 66, 69, 1.0)" />
	<rect x="140" y="40" width="10" height="10" fill="rgba(54, 57, 61, 1.0)" />
	<rect x="150" y="40" width="10" height="10" fill="rgba(41, 43, 47, 1.0)" />
	<rect x="0" y="50" width="10" height="10" fill="rgba(58, 62, 66, 1.0)" />
	<rect x="10" y="50" width="10" height="10" fill="rgba(44, 46, 50, 1.0)" />
	<rect x="20" y="50" width="10" height="10" fill="rgba(54, 57, 61, 1.0)" />
	<rect x="30" y="50" width="10" height="10" fill="rgba(61, 66, 69, 1.0)" />
	<rect x="40" y="50" width="10" height="10" fill="rgba(61, 66, 69, 1.0)" />
	<rect x="50" y="50" width="10" height="10" fill="rgba(62, 66, 70, 1.0)" />
	<rect x="60" y="50" width="10" height="10" fill="rgba(62, 66, 70, 1.0)" />
	<rect x="70" y="50" width="10" height="10" fill="rgba(62, 66, 70, 1.0)" />
	<rect x="80" y="50" width="10" height="10" fill="rgba(61, 66, 69, 1.0)" />
	<rect x="90" y="50" width="10" height="10" fill="rgba(61, 66, 69, 1.0)" />
	<rect x="100" y="50" width="10" height="10" fill="rgba(62, 66, 70, 1.0)" />
	<rect x="110" y="50" width="10" height="10" fill="rgba(62, 66, 70, 1.0)" />
	<rect x="120" y="50" width="10" height="10" fill="rgba(62, 66, 70, 1.0)" />
	<rect x="130" y="50" width="10" height="10" fill="rgba(54, 57, 61, 1.0)" />
	<rect x="140" y="50" width="10" height="10" fill="rgba(44, 46, 50, 1.0)" />
	<rect x="150" y="50" width="10" height="10" fill="rgba(48, 51, 54, 1.0)" />
	<rect x="0" y="60" width="10" height="10" fill="rgba(59, 63, 66, 1.0)" />
	<rect x="10" y="60" width="10" height="10" fill="rgba(44, 46, 49, 1.0)" />
	<rect x="20" y="60" width="10" height="10" fill="rgba(54, 57, 61, 1.0)" />
	<rect x="30" y="60" width="10" height="10" fill="rgba(62, 66, 70, 1.0)" />
	<rect x="40" y="60" width="10" height="10" fill="rgba(62, 67, 71, 1.0)" />
	<rect x="50" y="60" width="10" height="10" fill="rgba(62, 66, 70, 1.0)" />
	<rect x="60" y="60" width="10" height="10" fill="rgba(59, 63, 67, 1.0)" />
	<rect x="70" y="60" width="10" height="10" fill="rgba(62, 66, 70, 1.0)" />
	<rect x="80" y="60" width="10" height="10" fill="rgba(62, 66, 70, 1.0)" />
	<rect x="90" y="60" width="10" height="10" fill="rgba(60, 64, 68, 1.0)" />
	<rect x="100" y="60" width="10" height="10" fill="rgba(62, 66, 70, 1.0)" />
	<rect x="110" y="60" width="10" height="10" fill="rgba(61, 66, 69, 1.0)" />
	<rect x="120" y="60" width="10" height="10" fill="rgba(61, 66, 69, 1.0)" />
	<rect x="130" y="60" width="10" height="10" fill="rgba(54, 57, 61, 1.0)" />
	<rect x="140" y="60" width="10" height="10" fill="rgba(44, 46, 49, 1.0)" />
	<rect x="150" y="60" width="10" height="10" fill="rgba(48, 50, 54, 1.0)" />
	<rect x="0" y="70" width="10" height="10" fill="rgba(48, 51, 54, 1.0)" />
	<rect x="10" y="70" width="10" height="10" fill="rgba(54, 57, 61, 1.0)" />
	<rect x="20" y="70" width="10" height="10" fill="rgba(60, 64, 68, 1.0)" />
	<rect x="30" y="70" width="10" height="10" fill="rgba(61, 66, 69, 1.0)" />
	<rect x="40" y="70" width="10" height="10" fill="rgba(61, 66, 69, 1.0)" />
	<rect x="50" y="70" width="10" height="10" fill="rgba(60, 64, 68, 1.0)" />
	<rect x="60" y="70" width="10" height="10" fill="rgba(61, 66, 69, 1.0)" />
	<rect x="70" y="70" width="10" height="10" fill="rgba(61, 66, 69, 1.0)" />
	<rect x="80" y="70" width="10" height="10" fill="rgba(60, 64, 68, 1.0)" />
	<rect x="90" y="70" width="10" height="10" fill="rgba(61, 66, 69, 1.0)" />
	<rect x="100" y="70" width="10" height="10" fill="rgba(61, 66, 69, 1.0)" />
	<rect x="110" y="70" width="10" height="10" fill="rgba(62, 66, 70, 1.0)" />
	<rect x="120" y="70" width="10" height="10" fill="rgba(61, 66, 69, 1.0)" />
	<rect x="130" y="70" width="10" height="10" fill="rgba(62, 66, 70, 1.0)" />
	<rect x="140" y="70" width="10" height="10" fill="rgba(54, 57, 61, 1.0)" />
	<rect x="150" y="70" width="10" height="10" fill="rgba(41, 43, 46, 1.0)" />
	<rect x="0" y="80" width="10" height="10" fill="rgba(48, 51, 54, 1.0)" />
	<rect x="10" y="80" width="10" height="10" fill="rgba(54, 57, 61, 1.0)" />
	<rect x="20" y="80" width="10" height="10" fill="rgba(59, 63, 67, 1.0)" />
	<rect x="30" y="80" width="10" height="10" fill="rgba(62, 66, 70, 1.0)" />
	<rect x="40" y="80" width="10" height="10" fill="rgba(62, 66, 70, 1.0)" />
	<rect x="50" y="80" width="10" height="10" fill="rgba(62, 66, 70, 1.0)" />
	<rect x="60" y="80" width="10" height="10" fill="rgba(62, 66, 70, 1.0)" />
	<rect x="70" y="80" width="10" height="10" fill="rgba(60, 64, 68, 1.0)" />
	<rect x="80" y="80" width="10" height="10" fill="rgba(61, 66, 69, 1.0)" />
	<rect x="90" y="80" width="10" height="10" fill="rgba(62, 66, 70, 1.0)" />
	<rect x="100" y="80" width="10" height="10" fill="rgba(62, 66, 70, 1.0)" />
	<rect x="110" y="80" width="10" height="10" fill="rgba(61, 66, 69, 1.0)" />
	<rect x="120" y="80" width="10" height="10" fill="rgba(61, 66, 69, 1.0)" />
	<rect x="130" y="80" width="10" height="10" fill="rgba(61, 66, 69, 1.0)" />
	<rect x="140" y="80" width="10" height="10" fill="rgba(54, 57, 61, 1.0)" />
	<rect x="150" y="80" width="10" height="10" fill="rgba(41, 43, 47, 1.0)" />
	<rect x="0" y="90" width="10" height="10" fill="rgba(58, 62, 66, 1.0)" />
	<rect x="10" y="90" width="10" height="10" fill="rgba(44, 46, 49, 1.0)" />
	<rect x="20" y="90" width="10" height="10" fill="rgba(54, 57, 61, 1.0)" />
	<rect x="30" y="90" width="10" height="10" fill="rgba(62, 66, 70, 1.0)" />
	<rect x="40" y="90" width="10" height="10" fill="rgba(62, 66, 70, 1.0)" />
	<rect x="50" y="90" width="10" height="10" fill="rgba(61, 66, 69, 1.0)" />
	<rect x="60" y="90" width="10" height="10" fill="rgba(62, 66, 70, 1.0)" />
	<rect x="70" y="90" width="10" height="10" fill="rgba(61, 66, 69, 1.0)" />
	<rect x="80" y="90" width="10" height="10" fill="rgba(61, 66, 69, 1.0)" />
	<rect x="90" y="90" width="10" height="10" fill="rgba(62, 66, 70, 1.0)" />
	<rect x="100" y="90" width="10" height="10" fill="rgba(62, 66, 70, 1.0)" />
	<rect x="110" y="90" width="10" height="10" fill="rgba(61, 66, 69, 1.0)" />
	<rect x="120" y="90" width="10" height="10" fill="rgba(62, 66, 70, 1.0)" />
	<rect x="130" y="90" width="10" height="10" fill="rgba(54, 57, 61, 1.0)" />
	<rect x="140" y="90" width="10" height="10" fill="rgba(44, 46, 49, 1.0)" />
	<rect x="150" y="90" width="10" height="10" fill="rgba(48, 51, 54, 1.0)" />
	<rect x="0" y="100" width="10" height="10" fill="rgba(57, 61, 65, 1.0)" />
	<rect x="10" y="100" width="10" height="10" fill="rgba(43, 45, 48, 1.0)" />
	<rect x="20" y="100" width="10" height="10" fill="rgba(54, 57, 61, 1.0)" />
	<rect x="30" y="100" width="10" height="10" fill="rgba(62, 66, 70, 1.0)" />
	<rect x="40" y="100" width="10" height="10" fill="rgba(62, 66, 70, 1.0)" />
	<rect x="50" y="100" width="10" height="10" fill="rgba(62, 66, 70, 1.0)" />
	<rect x="60" y="100" width="10" height="10" fill="rgba(62, 66, 70, 1.0)" />
	<rect x="70" y="100" width="10" height="10" fill="rgba(62, 66, 70, 1.0)" />
	<rect x="80" y="100" width="10" height="10" fill="rgba(62, 66, 70, 1.0)" />
	<rect x="90" y="100" width="10" height="10" fill="rgba(62, 66, 70, 1.0)" />
	<rect x="100" y="100" width="10" height="10" fill="rgba(62, 66, 70, 1.0)" />
	<rect x="110" y="100" width="10" height="10" fill="rgba(61, 66, 69, 1.0)" />
	<rect x="120" y="100" width="10" height="10" fill="rgba(61, 66, 69, 1.0)" />
	<rect x="130" y="100" width="10" height="10" fill="rgba(54, 57, 61, 1.0)" />
	<rect x="140" y="100" width="10" height="10" fill="rgba(44, 46, 49, 1.0)" />
	<rect x="150" y="100" width="10" height="10" fill="rgba(47, 49, 52, 1.0)" />
	<rect x="0" y="110" width="10" height="10" fill="rgba(48, 51, 54, 1.0)" />
	<rect x="10" y="110" width="10" height="10" fill="rgba(54, 57, 61, 1.0)" />
	<rect x="20" y="110" width="10" height="10" fill="rgba(62, 66, 70, 1.0)" />
	<rect x="30" y="110" width="10" height="10" fill="rgba(62, 66, 70, 1.0)" />
	<rect x="40" y="110" width="10" height="10" fill="rgba(61, 66, 69, 1.0)" />
	<rect x="50" y="110" width="10" height="10" fill="rgba(59, 63, 67, 1.0)" />
	<rect x="60" y="110" width="10" height="10" fill="rgba(61, 66, 69, 1.0)" />
	<rect x="70" y="110" width="10" height="10" fill="rgba(62, 66, 70, 1.0)" />
	<rect x="80" y="110" width="10" height="10" fill="rgba(62, 66, 70, 1.0)" />
	<rect x="90" y="110" width="10" height="10" fill="rgba(62, 66, 70, 1.0)" />
	<rect x="100" y="110" width="10" height="10" fill="rgba(62, 66, 70, 1.0)" />
	<rect x="110" y="110" width="10" height="10" fill="rgba(62, 66, 70, 1.0)" />
	<rect x="120" y="110" width="10" height="10" fill="rgba(61, 66, 69, 1.0)" />
	<rect x="130" y="110" width="10" height="10" fill="rgba(62, 66, 70, 1.0)" />
	<rect x="140" y="110" width="10" height="10" fill="rgba(54, 57, 61, 1.0)" />
	<rect x="150" y="110" width="10" height="10" fill="rgba(41, 43, 47, 1.0)" />
	<rect x="0" y="120" width="10" height="10" fill="rgba(48, 51, 54, 1.0)" />
	<rect x="10" y="120" width="10" height="10" fill="rgba(54, 57, 61, 1.0)" />
	<rect x="20" y="120" width="10" height="10" fill="rgba(62, 67, 71, 1.0)" />
	<rect x="30" y="120" width="10" height="10" fill="rgba(61, 66, 69, 1.0)" />
	<rect x="40" y="120" width="10" height="10" fill="rgba(62, 66, 70, 1.0)" />
	<rect x="50" y="120" width="10" height="10" fill="rgba(62, 67, 71, 1.0)" />
	<rect x="60" y="120" width="10" height="10" fill="rgba(62, 66, 70, 1.0)" />
	<rect x="70" y="120" width="10" height="10" fill="rgba(62, 66, 70, 1.0)" />
	<rect x="80" y="120" width="10" height="10" fill="rgba(61, 66, 69, 1.0)" />
	<rect x="90" y="120" width="10" height="10" fill="rgba(61, 66, 69, 1.0)" />
	<rect x="100" y="120" width="10" height="10" fill="rgba(62, 66, 70, 1.0)" />
	<rect x="110" y="120" width="10" height="10" fill="rgba(62, 66, 70, 1.0)" />
	<rect x="120" y="120" width="10" height="10" fill="rgba(62, 66, 70, 1.0)" />
	<rect x="130" y="120" width="10" height="10" fill="rgba(62, 66, 70, 1.0)" />
	<rect x="140" y="120" width="10" height="10" fill="rgba(54, 57, 61, 1.0)" />
	<rect x="150" y="120" width="10" height="10" fill="rgba(41, 43, 47, 1.0)" />
	<rect x="0" y="130" width="10" height="10" fill="rgba(59, 63, 66, 1.0)" />
	<rect x="10" y="130" width="10" height="10" fill="rgba(44, 46, 49, 1.0)" />
	<rect x="20" y="130" width="10" height="10" fill="rgba(53, 55, 59, 1.0)" />
	<rect x="30" y="130" width="10" height="10" fill="rgba(62, 66, 70, 1.0)" />
	<rect x="40" y="130" width="10" height="10" fill="rgba(60, 64, 68, 1.0)" />
	<rect x="50" y="130" width="10" height="10" fill="rgba(54, 57, 61, 1.0)" />
	<rect x="60" y="130" width="10" height="10" fill="rgba(54, 57, 61, 1.0)" />
	<rect x="70" y="130" width="10" height="10" fill="rgba(62, 66, 70, 1.0)" />
	<rect x="80" y="130" width="10" height="10" fill="rgba(60, 64, 68, 1.0)" />
	<rect x="90" y="130" width="10" height="10" fill="rgba(54, 57, 61, 1.0)" />
	<rect x="100" y="130" width="10" height="10" fill="rgba(54, 57, 61, 1.0)" />
	<rect x="110" y="130" width="10" height="10" fill="rgba(60, 64, 68, 1.0)" />
	<rect x="120" y="130" width="10" height="10" fill="rgba(62, 66, 70, 1.0)" />
	<rect x="130" y="130" width="10" height="10" fill="rgba(54, 57, 61, 1.0)" />
	<rect x="140" y="130" width="10" height="10" fill="rgba(43, 45, 48, 1.0)" />
	<rect x="150" y="130" width="10" height="10" fill="rgba(48, 51, 54, 1.0)" />
	<rect x="0" y="140" width="10" height="10" fill="rgba(58, 62, 66, 1.0)" />
	<rect x="10" y="140" width="10" height="10" fill="rgba(43, 45, 48, 1.0)" />
	<rect x="20" y="140" width="10" height="10" fill="rgba(43, 45, 48, 1.0)" />
	<rect x="30" y="140" width="10" height="10" fill="rgba(54, 57, 61, 1.0)" />
	<rect x="40" y="140" width="10" height="10" fill="rgba(54, 57, 61, 1.0)" />
	<rect x="50" y="140" width="10" height="10" fill="rgba(44, 46, 49, 1.0)" />
	<rect x="60" y="140" width="10" height="10" fill="rgba(43, 45, 48, 1.0)" />
	<rect x="70" y="140" width="10" height="10" fill="rgba(54, 57, 61, 1.0)" />
	<rect x="80" y="140" width="10" height="10" fill="rgba(54, 57, 61, 1.0)" />
	<rect x="90" y="140" width="10" height="10" fill="rgba(44, 46, 50, 1.0)" />
	<rect x="100" y="140" width="10" height="10" fill="rgba(44, 46, 50, 1.0)" />
	<rect x="110" y="140" width="10" height="10" fill="rgba(54, 57, 61, 1.0)" />
	<rect x="120" y="140" width="10" height="10" fill="rgba(54, 57, 61, 1.0)" />
	<rect x="130" y="140" width="10" height="10" fill="rgba(44, 46, 50, 1.0)" />
	<rect x="140" y="140" width="10" height="10" fill="rgba(44, 46, 49, 1.0)" />
	<rect x="150" y="140" width="10" height="10" fill="rgba(48, 51, 54, 1.0)" />
	<rect x="0" y="150" width="10" height="10" fill="rgba(44, 46, 50, 1.0)" />
	<rect x="10" y="150" width="10" height="10" fill="rgba(48, 51, 54, 1.0)" />
	<rect x="20" y="150" width="10" height="10" fill="rgba(47, 49, 52, 1.0)" />
	<rect x="30" y="150" width="10" height="10" fill="rgba(41, 43, 47, 1.0)" />
	<rect x="40" y="150" width="10" height="10" fill="rgba(41, 43, 47, 1.0)" />
	<rect x="50" y="150" width="10" height="10" fill="rgba(48, 50, 54, 1.0)" />
	<rect x="60" y="150" width="10" height="10" fill="rgba(48, 51, 54, 1.0)" />
	<rect x="70" y="150" width="10" height="10" fill="rgba(41, 43, 47, 1.0)" />
	<rect x="80" y="150" width="10" height="10" fill="rgba(41, 43, 47, 1.0)" />
	<rect x="90" y="150" width="10" height="10" fill="rgba(47, 49, 52, 1.0)" />
	<rect x="100" y="150" width="10" height="10" fill="rgba(48, 51, 54, 1.0)" />
	<rect x="110" y="150" width="10" height="10" fill="rgba(41, 43, 46, 1.0)" />
	<rect x="120" y="150" width="10" height="10" fill="rgba(41, 43, 47, 1.0)" />
	<rect x="130" y="150" width="10" height="10" fill="rgba(48, 50, 54, 1.0)" />
	<rect x="140" y="150" width="10" height="10" fill="rgba(48, 50, 54, 1.0)" />
	<rect x="150" y="150" width="10" height="10" fill="rgba(41, 43, 47, 1.0)" />
</svg>