<svg xmlns="http://www.w3.org/2000/svg" xmlns:xlink="http://www.w3.org/1999/xlink">
	<rect x="0" y="0" width="10" height="10" fill="rgba(57, 61, 65, 1.0)" />
	<rect x="10" y="0" width="10" height="10" fill="rgba(59, 63, 67, 1.0)" />
	<rect x="20" y="0" width="10" height="10" fill="rgba(56, 60, 64, 1.0)" />
	<rect x="30" y="0" width="10" height="10" fill="rgba(57, 61, 65, 1.0)" />
	<rect x="40" y="0" width="10" height="10" fill="rgba(62, 67, 70, 1.0)" />
	<rect x="50" y="0" width="10" height="10" fill="rgba(67, 73, 76, 1.0)" />
	<rect x="60" y="0" width="10" height="10" fill="rgba(58, 62, 65, 1.0)" />
	<rect x="70" y="0" width="10" height="10" fill="rgba(58, 63, 66, 1.0)" />
	<rect x="80" y="0" width="10" height="10" fill="rgba(65, 71, 74, 1.0)" />
	<rect x="90" y="0" width="10" height="10" fill="rgba(66, 72, 75, 1.0)" />
	<rect x="100" y="0" width="10" height="10" fill="rgba(55, 58, 62, 1.0)" />
	<rect x="110" y="0" width="10" height="10" fill="rgba(57, 60, 64, 1.0)" />
	<rect x="120" y="0" width="10" height="10" fill="rgba(63, 68, 72, 1.0)" />
	<rect x="130" y="0" width="10" height="10" fill="rgba(63, 68, 72, 1.0)" />
	<rect x="140" y="0" width="10" height="10" fill="rgba(57, 60, 64, 1.0)" />
	<rect x="150" y="0" width="10" height="10" fill="rgba(56, 59, 63, 1.0)" />
	<rect x="0" y="10" width="10" height="10" fill="rgba(62, 67, 71, 1.0)" />
	<rect x="10" y="10" width="10" height="10" fill="rgba(64, 70, 73, 1.0)" />
	<rect x="20" y="10" width="10" height="10" fill="rgba(71, 79, 82, 1.0)" />
	<rect x="30" y="10" width="10" height="10" fill="rgba(71, 79, 82, 1.0)" />
	<rect x="40" y="10" width="10" height="10" fill="rgba(68, 75, 78, 1.0)" />
	<rect x="50" y="10" width="10" height="10" fill="rgba(66, 72, 75, 1.0)" />
	<rect x="60" y="10" width="10" height="10" fill="rgba(60, 65, 69, 1.0)" />
	<rect x="70" y="10" width="10" height="10" fill="rgba(60, 65, 68, 1.0)" />
	<rect x="80" y="10" width="10" height="10" fill="rgba(57, 61, 65, 1.0)" />
	<rect x="90" y="10" width="10" height="10" fill="rgba(56, 59, 63, 1.0)" />
	<rect x="100" y="10" width="10" height="10" fill="rgba(58, 63, 66, 1.0)" />
	<rect x="110" y="10" width="10" height="10" fill="rgba(60, 65, 68, 1.0)" />
	<rect x="120" y="10" width="10" height="10" fill="rgba(54, 57, 61, 1.0)" />
	<rect x="130" y="10" width="10" height="10" fill="rgba(56, 59, 63, 1.0)" />
	<rect x="140" y="10" width="10" height="10" fill="rgba(59, 63, 67, 1.0)" />
	<rect x="150" y="10" width="10" height="10" fill="rgba(61, 66, 69, 1.0)" />
	<rect x="0" y="20" width="10" height="10" fill="rgba(68, 75, 78, 1.0)" />
	<rect x="10" y="20" width="10" height="10" fill="rgba(69, 76, 79, 1.0)" />
	<rect x="20" y="20" width="10" height="10" fill="rgba(60, 65, 68, 1.0)" />
	<rect x="30" y="20" width="10" height="10" fill="rgba(61, 66, 70, 1.0)" />
	<rect x="40" y="20" width="10" height="10" fill="rgba(70, 78, 81, 1.0)" />
	<rect x="50" y="20" width="10" height="10" fill="rgba(69, 76, 79, 1.0)" />
	<rect x="60" y="20" width="10" height="10" fill="rgba(63, 69, 72, 1.0)" />
	<rect x="70" y="20" width="10" height="10" fill="rgba(60, 65, 68, 1.0)" />
	<rect x="80" y="20" width="10" height="10" fill="rgba(66, 72, 75, 1.0)" />
	<rect x="90" y="20" width="10" height="10" fill="rgba(69, 76, 79, 1.0)" />
	<rect x="100" y="20" width="10" height="10" fill="rgba(65, 72, 75, 1.0)" />
	<rect x="110" y="20" width="10" height="10" fill="rgba(65, 72, 75, 1.0)" />
	<rect x="120" y="20" width="10" height="10" fill="rgba(70, 78, 81, 1.0)" />
	<rect x="130" y="20" width="10" height="10" fill="rgba(71, 79, 82, 1.0)" />
	<rect x="140" y="20" width="10" height="10" fill="rgba(66, 72, 75, 1.0)" />
	<rect x="150" y="20" width="10" height="10" fill="rgba(64, 70, 73, 1.0)" />
	<rect x="0" y="30" width="10" height="10" fill="rgba(62, 67, 71, 1.0)" />
	<rect x="10" y="30" width="10" height="10" fill="rgba(59, 63, 67, 1.0)" />
	<rect x="20" y="30" width="10" height="10" fill="rgba(66, 73, 76, 1.0)" />
	<rect x="30" y="30" width="10" height="10" fill="rgba(69, 76, 79, 1.0)" />
	<rect x="40" y="30" width="10" height="10" fill="rgba(60, 65, 68, 1.0)" />
	<rect x="50" y="30" width="10" height="10" fill="rgba(59, 64, 67, 1.0)" />
	<rect x="60" y="30" width="10" height="10" fill="rgba(62, 67, 70, 1.0)" />
	<rect x="70" y="30" width="10" height="10" fill="rgba(69, 76, 79, 1.0)" />
	<rect x="80" y="30" width="10" height="10" fill="rgba(58, 62, 65, 1.0)" />
	<rect x="90" y="30" width="10" height="10" fill="rgba(60, 65, 69, 1.0)" />
	<rect x="100" y="30" width="10" height="10" fill="rgba(69, 76, 79, 1.0)" />
	<rect x="110" y="30" width="10" height="10" fill="rgba(69, 76, 79, 1.0)" />
	<rect x="120" y="30" width="10" height="10" fill="rgba(62, 67, 71, 1.0)" />
	<rect x="130" y="30" width="10" height="10" fill="rgba(59, 63, 67, 1.0)" />
	<rect x="140" y="30" width="10" height="10" fill="rgba(71, 79, 82, 1.0)" />
	<rect x="150" y="30" width="10" height="10" fill="rgba(68, 75, 78, 1.0)" />
	<rect x="0" y="40" width="10" height="10" fill="rgba(64, 70, 73, 1.0)" />
	<rect x="10" y="40" width="10" height="10" fill="rgba(61, 66, 69, 1.0)" />
	<rect x="20" y="40" width="10" height="10" fill="rgba(58, 62, 65, 1.0)" />
	<rect x="30" y="40" width="10" height="10" fill="rgba(62, 67, 71, 1.0)" />
	<rect x="40" y="40" width="10" height="10" fill="rgba(67, 73, 76, 1.0)" />
	<rect x="50" y="40" width="10" height="10" fill="rgba(66, 73, 76, 1.0)" />
	<rect x="60" y="40" width="10" height="10" fill="rgba(55, 58, 62, 1.0)" />
	<rect x="70" y="40" width="10" height="10" fill="rgba(54, 58, 62, 1.0)" />
	<rect x="80" y="40" width="10" height="10" fill="rgba(59, 63, 66, 1.0)" />
	<rect x="90" y="40" width="10" height="10" fill="rgba(63, 68, 72, 1.0)" />
	<rect x="100" y="40" width="10" height="10" fill="rgba(58, 63, 66, 1.0)" />
	<rect x="110" y="40" width="10" height="10" fill="rgba(56, 60, 63, 1.0)" />
	<rect x="120" y="40" width="10" height="10" fill="rgba(67, 73, 76, 1.0)" />
	<rect x="130" y="40" width="10" height="10" fill="rgba(67, 73, 76, 1.0)" />
	<rect x="140" y="40" width="10" height="10" fill="rgba(57, 60, 64, 1.0)" />
	<rect x="150" y="40" width="10" height="10" fill="rgba(55, 58, 62, 1.0)" />
	<rect x="0" y="50" width="10" height="10" fill="rgba(56, 59, 63, 1.0)" />
	<rect x="10" y="50" width="10" height="10" fill="rgba(55, 58, 62, 1.0)" />
	<rect x="20" y="50" width="10" height="10" fill="rgba(58, 62, 66, 1.0)" />
	<rect x="30" y="50" width="10" height="10" fill="rgba(69, 76, 79, 1.0)" />
	<rect x="40" y="50" width="10" height="10" fill="rgba(58, 62, 65, 1.0)" />
	<rect x="50" y="50" width="10" height="10" fill="rgba(54, 58, 62, 1.0)" />
	<rect x="60" y="50" width="10" height="10" fill="rgba(57, 61, 65, 1.0)" />
	<rect x="70" y="50" width="10" height="10" fill="rgba(59, 63, 67, 1.0)" />
	<rect x="80" y="50" width="10" height="10" fill="rgba(58, 62, 65, 1.0)" />
	<rect x="90" y="50" width="10" height="10" fill="rgba(54, 58, 62, 1.0)" />
	<rect x="100" y="50" width="10" height="10" fill="rgba(59, 63, 67, 1.0)" />
	<rect x="110" y="50" width="10" height="10" fill="rgba(60, 65, 68, 1.0)" />
	<rect x="120" y="50" width="10" height="10" fill="rgba(55, 59, 63, 1.0)" />
	<rect x="130" y="50" width="10" height="10" fill="rgba(58, 63, 66, 1.0)" />
	<rect x="140" y="50" width="10" height="10" fill="rgba(57, 61, 65, 1.0)" />
	<rect x="150" y="50" width="10" height="10" fill="rgba(60, 64, 68, 1.0)" />
	<rect x="0" y="60" width="10" height="10" fill="rgba(71, 79, 82, 1.0)" />
	<rect x="10" y="60" width="10" height="10" fill="rgba(71, 79, 82, 1.0)" />
	<rect x="20" y="60" width="10" height="10" fill="rgba(67, 74, 77, 1.0)" />
	<rect x="30" y="60" width="10" height="10" fill="rgba(66, 73, 76, 1.0)" />
	<rect x="40" y="60" width="10" height="10" fill="rgba(62, 67, 70, 1.0)" />
	<rect x="50" y="60" width="10" height="10" fill="rgba(62, 67, 70, 1.0)" />
	<rect x="60" y="60" width="10" height="10" fill="rgba(61, 66, 69, 1.0)" />
	<rect x="70" y="60" width="10" height="10" fill="rgba(63, 68, 72, 1.0)" />
	<rect x="80" y="60" width="10" height="10" fill="rgba(68, 75, 78, 1.0)" />
	<rect x="90" y="60" width="10" height="10" fill="rgba(71, 79, 82, 1.0)" />
	<rect x="100" y="60" width="10" height="10" fill="rgba(65, 71, 74, 1.0)" />
	<rect x="110" y="60" width="10" height="10" fill="rgba(60, 65, 69, 1.0)" />
	<rect x="120" y="60" width="10" height="10" fill="rgba(71, 79, 82, 1.0)" />
	<rect x="130" y="60" width="10" height="10" fill="rgba(71, 79, 82, 1.0)" />
	<rect x="140" y="60" width="10" height="10" fill="rgba(66, 72, 75, 1.0)" />
	<rect x="150" y="60" width="10" height="10" fill="rgba(63, 69, 72, 1.0)" />
	<rect x="0" y="70" width="10" height="10" fill="rgba(59, 63, 67, 1.0)" />
	<rect x="10" y="70" width="10" height="10" fill="rgba(59, 63, 67, 1.0)" />
	<rect x="20" y="70" width="10" height="10" fill="rgba(71, 79, 82, 1.0)" />
	<rect x="30" y="70" width="10" height="10" fill="rgba(71, 79, 82, 1.0)" />
	<rect x="40" y="70" width="10" height="10" fill="rgba(66, 72, 75, 1.0)" />
	<rect x="50" y="70" width="10" height="10" fill="rgba(65, 71, 74, 1.0)" />
	<rect x="60" y="70" width="10" height="10" fill="rgba(69, 76, 79, 1.0)" />
	<rect x="70" y="70" width="10" height="10" fill="rgba(68, 75, 78, 1.0)" />
	<rect x="80" y="70" width="10" height="10" fill="rgba(57, 61, 65, 1.0)" />
	<rect x="90" y="70" width="10" height="10" fill="rgba(58, 63, 66, 1.0)" />
	<rect x="100" y="70" width="10" height="10" fill="rgba(66, 73, 76, 1.0)" />
	<rect x="110" y="70" width="10" height="10" fill="rgba(69, 76, 79, 1.0)" />
	<rect x="120" y="70" width="10" height="10" fill="rgba(65, 71, 74, 1.0)" />
	<rect x="130" y="70" width="10" height="10" fill="rgba(64, 70, 73, 1.0)" />
	<rect x="140" y="70" width="10" height="10" fill="rgba(69, 76, 79, 1.0)" />
	<rect x="150" y="70" width="10" height="10" fill="rgba(68, 75, 78, 1.0)" />
	<rect x="0" y="80" width="10" height="10" fill="rgba(66, 72, 75, 1.0)" />
	<rect x="10" y="80" width="10" height="10" fill="rgba(65, 72, 75, 1.0)" />
	<rect x="20" y="80" width="10" height="10" fill="rgba(56, 59, 63, 1.0)" />
	<rect x="30" y="80" width="10" height="10" fill="rgba(59, 63, 66, 1.0)" />
	<rect x="40" y="80" width="10" height="10" fill="rgba(68, 75, 78, 1.0)" />
	<rect x="50" y="80" width="10" height="10" fill="rgba(65, 71, 74, 1.0)" />
	<rect x="60" y="80" width="10" height="10" fill="rgba(58, 62, 65, 1.0)" />
	<rect x="70" y="80" width="10" height="10" fill="rgba(59, 64, 67, 1.0)" />
	<rect x="80" y="80" width="10" height="10" fill="rgba(59, 63, 66, 1.0)" />
	<rect x="90" y="80" width="10" height="10" fill="rgba(60, 65, 68, 1.0)" />
	<rect x="100" y="80" width="10" height="10" fill="rgba(58, 63, 66, 1.0)" />
	<rect x="110" y="80" width="10" height="10" fill="rgba(55, 59, 63, 1.0)" />
	<rect x="120" y="80" width="10" height="10" fill="rgba(62, 67, 70, 1.0)" />
	<rect x="130" y="80" width="10" height="10" fill="rgba(60, 65, 69, 1.0)" />
	<rect x="140" y="80" width="10" height="10" fill="rgba(56, 60, 64, 1.0)" />
	<rect x="150" y="80" width="10" height="10" fill="rgba(56, 60, 63, 1.0)" />
	<rect x="0" y="90" width="10" height="10" fill="rgba(59, 63, 66, 1.0)" />
	<rect x="10" y="90" width="10" height="10" fill="rgba(60, 65, 69, 1.0)" />
	<rect x="20" y="90" width="10" height="10" fill="rgba(60, 64, 68, 1.0)" />
	<rect x="30" y="90" width="10" height="10" fill="rgba(68, 75, 78, 1.0)" />
	<rect x="40" y="90" width="10" height="10" fill="rgba(55, 58, 62, 1.0)" />
	<rect x="50" y="90" width="10" height="10" fill="rgba(55, 58, 62, 1.0)" />
	<rect x="60" y="90" width="10" height="10" fill="rgba(60, 65, 69, 1.0)" />
	<rect x="70" y="90" width="10" height="10" fill="rgba(64, 70, 73, 1.0)" />
	<rect x="80" y="90" width="10" height="10" fill="rgba(58, 62, 65, 1.0)" />
	<rect x="90" y="90" width="10" height="10" fill="rgba(64, 70, 73, 1.0)" />
	<rect x="100" y="90" width="10" height="10" fill="rgba(71, 79, 82, 1.0)" />
	<rect x="110" y="90" width="10" height="10" fill="rgba(71, 79, 82, 1.0)" />
	<rect x="120" y="90" width="10" height="10" fill="rgba(61, 66, 70, 1.0)" />
	<rect x="130" y="90" width="10" height="10" fill="rgba(65, 72, 75, 1.0)" />
	<rect x="140" y="90" width="10" height="10" fill="rgba(71, 79, 82, 1.0)" />
	<rect x="150" y="90" width="10" height="10" fill="rgba(71, 79, 82, 1.0)" />
	<rect x="0" y="100" width="10" height="10" fill="rgba(68, 75, 78, 1.0)" />
	<rect x="10" y="100" width="10" height="10" fill="rgba(69, 76, 79, 1.0)" />
	<rect x="20" y="100" width="10" height="10" fill="rgba(66, 72, 75, 1.0)" />
	<rect x="30" y="100" width="10" height="10" fill="rgba(66, 72, 75, 1.0)" />
	<rect x="40" y="100" width="10" height="10" fill="rgba(71, 79, 82, 1.0)" />
	<rect x="50" y="100" width="10" height="10" fill="rgba(69, 76, 79, 1.0)" />
	<rect x="60" y="100" width="10" height="10" fill="rgba(66, 72, 75, 1.0)" />
	<rect x="70" y="100" width="10" height="10" fill="rgba(65, 71, 74, 1.0)" />
	<rect x="80" y="100" width="10" height="10" fill="rgba(69, 76, 79, 1.0)" />
	<rect x="90" y="100" width="10" height="10" fill="rgba(68, 75, 78, 1.0)" />
	<rect x="100" y="100" width="10" height="10" fill="rgba(60, 65, 68, 1.0)" />
	<rect x="110" y="100" width="10" height="10" fill="rgba(63, 68, 72, 1.0)" />
	<rect x="120" y="100" width="10" height="10" fill="rgba(64, 70, 73, 1.0)" />
	<rect x="130" y="100" width="10" height="10" fill="rgba(62, 67, 70, 1.0)" />
	<rect x="140" y="100" width="10" height="10" fill="rgba(57, 60, 64, 1.0)" />
	<rect x="150" y="100" width="10" height="10" fill="rgba(62, 67, 71, 1.0)" />
	<rect x="0" y="110" width="10" height="10" fill="rgba(57, 60, 64, 1.0)" />
	<rect x="10" y="110" width="10" height="10" fill="rgba(58, 62, 65, 1.0)" />
	<rect x="20" y="110" width="10" height="10" fill="rgba(64, 70, 73, 1.0)" />
	<rect x="30" y="110" width="10" height="10" fill="rgba(64, 70, 73, 1.0)" />
	<rect x="40" y="110" width="10" height="10" fill="rgba(59, 63, 67, 1.0)" />
	<rect x="50" y="110" width="10" height="10" fill="rgba(59, 64, 67, 1.0)" />
	<rect x="60" y="110" width="10" height="10" fill="rgba(67, 73, 76, 1.0)" />
	<rect x="70" y="110" width="10" height="10" fill="rgba(65, 72, 75, 1.0)" />
	<rect x="80" y="110" width="10" height="10" fill="rgba(57, 61, 65, 1.0)" />
	<rect x="90" y="110" width="10" height="10" fill="rgba(58, 62, 65, 1.0)" />
	<rect x="100" y="110" width="10" height="10" fill="rgba(59, 63, 66, 1.0)" />
	<rect x="110" y="110" width="10" height="10" fill="rgba(64, 70, 73, 1.0)" />
	<rect x="120" y="110" width="10" height="10" fill="rgba(55, 58, 62, 1.0)" />
	<rect x="130" y="110" width="10" height="10" fill="rgba(55, 58, 62, 1.0)" />
	<rect x="140" y="110" width="10" height="10" fill="rgba(60, 64, 68, 1.0)" />
	<rect x="150" y="110" width="10" height="10" fill="rgba(64, 70, 73, 1.0)" />
	<rect x="0" y="120" width="10" height="10" fill="rgba(59, 64, 67, 1.0)" />
	<rect x="10" y="120" width="10" height="10" fill="rgba(59, 63, 67, 1.0)" />
	<rect x="20" y="120" width="10" height="10" fill="rgba(55, 58, 62, 1.0)" />
	<rect x="30" y="120" width="10" height="10" fill="rgba(55, 58, 62, 1.0)" />
	<rect x="40" y="120" width="10" height="10" fill="rgba(68, 75, 78, 1.0)" />
	<rect x="50" y="120" width="10" height="10" fill="rgba(70, 78, 81, 1.0)" />
	<rect x="60" y="120" width="10" height="10" fill="rgba(56, 60, 63, 1.0)" />
	<rect x="70" y="120" width="10" height="10" fill="rgba(54, 58, 62, 1.0)" />
	<rect x="80" y="120" width="10" height="10" fill="rgba(62, 67, 70, 1.0)" />
	<rect x="90" y="120" width="10" height="10" fill="rgba(67, 73, 76, 1.0)" />
	<rect x="100" y="120" width="10" height="10" fill="rgba(63, 68, 72, 1.0)" />
	<rect x="110" y="120" width="10" height="10" fill="rgba(65, 72, 75, 1.0)" />
	<rect x="120" y="120" width="10" height="10" fill="rgba(71, 79, 82, 1.0)" />
	<rect x="130" y="120" width="10" height="10" fill="rgba(71, 79, 82, 1.0)" />
	<rect x="140" y="120" width="10" height="10" fill="rgba(64, 70, 73, 1.0)" />
	<rect x="150" y="120" width="10" height="10" fill="rgba(55, 59, 63, 1.0)" />
	<rect x="0" y="130" width="10" height="10" fill="rgba(65, 72, 75, 1.0)" />
	<rect x="10" y="130" width="10" height="10" fill="rgba(65, 71, 74, 1.0)" />
	<rect x="20" y="130" width="10" height="10" fill="rgba(70, 78, 81, 1.0)" />
	<rect x="30" y="130" width="10" height="10" fill="rgba(71, 79, 82, 1.0)" />
	<rect x="40" y="130" width="10" height="10" fill="rgba(68, 75, 78, 1.0)" />
	<rect x="50" y="130" width="10" height="10" fill="rgba(66, 72, 75, 1.0)" />
	<rect x="60" y="130" width="10" height="10" fill="rgba(63, 68, 72, 1.0)" />
	<rect x="70" y="130" width="10" height="10" fill="rgba(60, 65, 68, 1.0)" />
	<rect x="80" y="130" width="10" height="10" fill="rgba(55, 58, 62, 1.0)" />
	<rect x="90" y="130" width="10" height="10" fill="rgba(61, 66, 70, 1.0)" />
	<rect x="100" y="130" width="10" height="10" fill="rgba(65, 72, 75, 1.0)" />
	<rect x="110" y="130" width="10" height="10" fill="rgba(69, 76, 79, 1.0)" />
	<rect x="120" y="130" width="10" height="10" fill="rgba(61, 66, 69, 1.0)" />
	<rect x="130" y="130" width="10" height="10" fill="rgba(61, 66, 70, 1.0)" />
	<rect x="140" y="130" width="10" height="10" fill="rgba(69, 76, 79, 1.0)" />
	<rect x="150" y="130" width="10" height="10" fill="rgba(71, 79, 82, 1.0)" />
	<rect x="0" y="140" width="10" height="10" fill="rgba(70, 78, 81, 1.0)" />
	<rect x="10" y="140" width="10" height="10" fill="rgba(70, 77, 80, 1.0)" />
	<rect x="20" y="140" width="10" height="10" fill="rgba(62, 67, 71, 1.0)" />
	<rect x="30" y="140" width="10" height="10" fill="rgba(60, 65, 69, 1.0)" />
	<rect x="40" y="140" width="10" height="10" fill="rgba(69, 76, 79, 1.0)" />
	<rect x="50" y="140" width="10" height="10" fill="rgba(63, 68, 72, 1.0)" />
	<rect x="60" y="140" width="10" height="10" fill="rgba(64, 70, 73, 1.0)" />
	<rect x="70" y="140" width="10" height="10" fill="rgba(66, 73, 76, 1.0)" />
	<rect x="80" y="140" width="10" height="10" fill="rgba(71, 79, 82, 1.0)" />
	<rect x="90" y="140" width="10" height="10" fill="rgba(68, 75, 78, 1.0)" />
	<rect x="100" y="140" width="10" height="10" fill="rgba(58, 63, 66, 1.0)" />
	<rect x="110" y="140" width="10" height="10" fill="rgba(59, 63, 66, 1.0)" />
	<rect x="120" y="140" width="10" height="10" fill="rgba(63, 69, 72, 1.0)" />
	<rect x="130" y="140" width="10" height="10" fill="rgba(65, 72, 75, 1.0)" />
	<rect x="140" y="140" width="10" height="10" fill="rgba(59, 64, 67, 1.0)" />
	<rect x="150" y="140" width="10" height="10" fill="rgba(57, 61, 65, 1.0)" />
	<rect x="0" y="150" width="10" height="10" fill="rgba(56, 59, 63, 1.0)" />
	<rect x="10" y="150" width="10" height="10" fill="rgba(58, 62, 65, 1.0)" />
	<rect x="20" y="150" width="10" height="10" fill="rgba(68, 75, 78, 1.0)" />
	<rect x="30" y="150" width="10" height="10" fill="rgba(63, 69, 72, 1.0)" />
	<rect x="40" y="150" width="10" height="10" fill="rgba(57, 61, 65, 1.0)" />
	<rect x="50" y="150" width="10" height="10" fill="rgba(59, 64, 67, 1.0)" />
	<rect x="60" y="150" width="10" height="10" fill="rgba(69, 76, 79, 1.0)" />
	<rect x="70" y="150" width="10" height="10" fill="rgba(70, 78, 81, 1.0)" />
	<rect x="80" y="150" width="10" height="10" fill="rgba(61, 66, 69, 1.0)" />
	<rect x="90" y="150" width="10" height="10" fill="rgba(59, 63, 67, 1.0)" />
	<rect x="100" y="150" width="10" height="10" fill="rgba(65, 71, 74, 1.0)" />
	<rect x="110" y="150" width="10" height="10" fill="rgba(68, 75, 78, 1.0)" />
	<rect x="120" y="150" width="10" height="10" fill="rgba(57, 61, 65, 1.0)" />
	<rect x="130" y="150" width="10" height="10" fill="rgba(58, 62, 65, 1.0)" />
	<rect x="140" y="150" width="10" height="10" fill="rgba(68, 75, 78, 1.0)" />
	<rect x="150" y="150" width="10" height="10" fill="rgba(69, 76, 79, 1.0)" />
</svg>