<svg xmlns="http://www.w3.org/2000/svg" xmlns:xlink="http://www.w3.org/1999/xlink">
	<rect x="0" y="0" width="10" height="10" fill="rgba(101, 115, 119, 1.0)" />
	<rect x="10" y="0" width="10" height="10" fill="rgba(80, 82, 87, 1.0)" />
	<rect x="20" y="0" width="10" height="10" fill="rgba(76, 80, 83, 1.0)" />
	<rect x="30" y="0" width="10" height="10" fill="rgba(81, 83, 87, 1.0)" />
	<rect x="40" y="0" width="10" height="10" fill="rgba(77, 81, 83, 1.0)" />
	<rect x="50" y="0" width="10" height="10" fill="rgba(72, 76, 80, 1.0)" />
	<rect x="60" y="0" width="10" height="10" fill="rgba(70, 73, 77, 1.0)" />
	<rect x="70" y="0" width="10" height="10" fill="rgba(74, 77, 81, 1.0)" />
	<rect x="80" y="0" width="10" height="10" fill="rgba(83, 90, 95, 1.0)" />
	<rect x="90" y="0" width="10" height="10" fill="rgba(77, 82, 85, 1.0)" />
	<rect x="100" y="0" width="10" height="10" fill="rgba(82, 90, 94, 1.0)" />
	<rect x="110" y="0" width="10" height="10" fill="rgba(73, 76, 80, 1.0)" />
	<rect x="120" y="0" width="10" height="10" fill="rgba(77, 81, 85, 1.0)" />
	<rect x="130" y="0" width="10" height="10" fill="rgba(93, 101, 105, 1.0)" />
	<rect x="140" y="0" width="10" height="10" fill="rgba(69, 72, 76, 1.0)" />
	<rect x="150" y="0" width="10" height="10" fill="rgba(78, 81, 85, 1.0)" />
	<rect x="0" y="10" width="10" height="10" fill="rgba(73, 76, 81, 1.0)" />
	<rect x="10" y="10" width="10" height="10" fill="rgba(76, 78, 81, 1.0)" />
	<rect x="20" y="10" width="10" height="10" fill="rgba(78, 82, 86, 1.0)" />
	<rect x="30" y="10" width="10" height="10" fill="rgba(81, 86, 89, 1.0)" />
	<rect x="40" y="10" width="10" height="10" fill="rgba(67, 70, 74, 1.0)" />
	<rect x="50" y="10" width="10" height="10" fill="rgba(70, 73, 76, 1.0)" />
	<rect x="60" y="10" width="10" height="10" fill="rgba(72, 74, 78, 1.0)" />
	<rect x="70" y="10" width="10" height="10" fill="rgba(82, 90, 94, 1.0)" />
	<rect x="80" y="10" width="10" height="10" fill="rgba(78, 81, 86, 1.0)" />
	<rect x="90" y="10" width="10" height="10" fill="rgba(78, 83, 86, 1.0)" />
	<rect x="100" y="10" width="10" height="10" fill="rgba(85, 91, 95, 1.0)" />
	<rect x="110" y="10" width="10" height="10" fill="rgba(76, 80, 83, 1.0)" />
	<rect x="120" y="10" width="10" height="10" fill="rgba(76, 80, 83, 1.0)" />
	<rect x="130" y="10" width="10" height="10" fill="rgba(76, 78, 82, 1.0)" />
	<rect x="140" y="10" width="10" height="10" fill="rgba(72, 74, 78, 1.0)" />
	<rect x="150" y="10" width="10" height="10" fill="rgba(76, 80, 85, 1.0)" />
	<rect x="0" y="20" width="10" height="10" fill="rgba(74, 77, 81, 1.0)" />
	<rect x="10" y="20" width="10" height="10" fill="rgba(77, 80, 83, 1.0)" />
	<rect x="20" y="20" width="10" height="10" fill="rgba(81, 86, 90, 1.0)" />
	<rect x="30" y="20" width="10" height="10" fill="rgba(72, 74, 77, 1.0)" />
	<rect x="40" y="20" width="10" height="10" fill="rgba(81, 87, 91, 1.0)" />
	<rect x="50" y="20" width="10" height="10" fill="rgba(78, 85, 87, 1.0)" />
	<rect x="60" y="20" width="10" height="10" fill="rgba(78, 82, 85, 1.0)" />
	<rect x="70" y="20" width="10" height="10" fill="rgba(76, 80, 82, 1.0)" />
	<rect x="80" y="20" width="10" height="10" fill="rgba(73, 76, 81, 1.0)" />
	<rect x="90" y="20" width="10" height="10" fill="rgba(78, 82, 87, 1.0)" />
	<rect x="100" y="20" width="10" height="10" fill="rgba(78, 82, 86, 1.0)" />
	<rect x="110" y="20" width="10" height="10" fill="rgba(76, 80, 83, 1.0)" />
	<rect x="120" y="20" width="10" height="10" fill="rgba(73, 77, 81, 1.0)" />
	<rect x="130" y="20" width="10" height="10" fill="rgba(77, 83, 86, 1.0)" />
	<rect x="140" y="20" width="10" height="10" fill="rgba(73, 76, 81, 1.0)" />
	<rect x="150" y="20" width="10" height="10" fill="rgba(80, 83, 87, 1.0)" />
	<rect x="0" y="30" width="10" height="10" fill="rgba(77, 82, 86, 1.0)" />
	<rect x="10" y="30" width="10" height="10" fill="rgba(70, 73, 77, 1.0)" />
	<rect x="20" y="30" width="10" height="10" fill="rgba(77, 80, 83, 1.0)" />
	<rect x="30" y="30" width="10" height="10" fill="rgba(74, 78, 82, 1.0)" />
	<rect x="40" y="30" width="10" height="10" fill="rgba(76, 80, 83, 1.0)" />
	<rect x="50" y="30" width="10" height="10" fill="rgba(77, 80, 85, 1.0)" />
	<rect x="60" y="30" width="10" height="10" fill="rgba(78, 83, 87, 1.0)" />
	<rect x="70" y="30" width="10" height="10" fill="rgba(78, 83, 86, 1.0)" />
	<rect x="80" y="30" width="10" height="10" fill="rgba(65, 67, 72, 1.0)" />
	<rect x="90" y="30" width="10" height="10" fill="rgba(74, 77, 82, 1.0)" />
	<rect x="100" y="30" width="10" height="10" fill="rgba(73, 77, 81, 1.0)" />
	<rect x="110" y="30" width="10" height="10" fill="rgba(77, 80, 85, 1.0)" />
	<rect x="120" y="30" width="10" height="10" fill="rgba(74, 78, 83, 1.0)" />
	<rect x="130" y="30" width="10" height="10" fill="rgba(87, 94, 98, 1.0)" />
	<rect x="140" y="30" width="10" height="10" fill="rgba(72, 74, 78, 1.0)" />
	<rect x="150" y="30" width="10" height="10" fill="rgba(70, 73, 77, 1.0)" />
	<rect x="0" y="40" width="10" height="10" fill="rgba(77, 80, 82, 1.0)" />
	<rect x="10" y="40" width="10" height="10" fill="rgba(74, 77, 81, 1.0)" />
	<rect x="20" y="40" width="10" height="10" fill="rgba(80, 85, 87, 1.0)" />
	<rect x="30" y="40" width="10" height="10" fill="rgba(74, 77, 81, 1.0)" />
	<rect x="40" y="40" width="10" height="10" fill="rgba(81, 85, 89, 1.0)" />
	<rect x="50" y="40" width="10" height="10" fill="rgba(74, 77, 82, 1.0)" />
	<rect x="60" y="40" width="10" height="10" fill="rgba(82, 87, 93, 1.0)" />
	<rect x="70" y="40" width="10" height="10" fill="rgba(78, 83, 87, 1.0)" />
	<rect x="80" y="40" width="10" height="10" fill="rgba(80, 83, 87, 1.0)" />
	<rect x="90" y="40" width="10" height="10" fill="rgba(78, 83, 86, 1.0)" />
	<rect x="100" y="40" width="10" height="10" fill="rgba(78, 83, 87, 1.0)" />
	<rect x="110" y="40" width="10" height="10" fill="rgba(87, 95, 99, 1.0)" />
	<rect x="120" y="40" width="10" height="10" fill="rgba(73, 76, 80, 1.0)" />
	<rect x="130" y="40" width="10" height="10" fill="rgba(78, 83, 86, 1.0)" />
	<rect x="140" y="40" width="10" height="10" fill="rgba(78, 82, 86, 1.0)" />
	<rect x="150" y="40" width="10" height="10" fill="rgba(81, 90, 94, 1.0)" />
	<rect x="0" y="50" width="10" height="10" fill="rgba(70, 74, 77, 1.0)" />
	<rect x="10" y="50" width="10" height="10" fill="rgba(82, 87, 91, 1.0)" />
	<rect x="20" y="50" width="10" height="10" fill="rgba(72, 76, 80, 1.0)" />
	<rect x="30" y="50" width="10" height="10" fill="rgba(85, 90, 95, 1.0)" />
	<rect x="40" y="50" width="10" height="10" fill="rgba(78, 82, 86, 1.0)" />
	<rect x="50" y="50" width="10" height="10" fill="rgba(86, 91, 96, 1.0)" />
	<rect x="60" y="50" width="10" height="10" fill="rgba(80, 83, 89, 1.0)" />
	<rect x="70" y="50" width="10" height="10" fill="rgba(87, 95, 99, 1.0)" />
	<rect x="80" y="50" width="10" height="10" fill="rgba(81, 86, 90, 1.0)" />
	<rect x="90" y="50" width="10" height="10" fill="rgba(77, 81, 85, 1.0)" />
	<rect x="100" y="50" width="10" height="10" fill="rgba(76, 80, 82, 1.0)" />
	<rect x="110" y="50" width="10" height="10" fill="rgba(74, 77, 81, 1.0)" />
	<rect x="120" y="50" width="10" height="10" fill="rgba(78, 83, 86, 1.0)" />
	<rect x="130" y="50" width="10" height="10" fill="rgba(81, 86, 89, 1.0)" />
	<rect x="140" y="50" width="10" height="10" fill="rgba(73, 77, 81, 1.0)" />
	<rect x="150" y="50" width="10" height="10" fill="rgba(69, 72, 76, 1.0)" />
	<rect x="0" y="60" width="10" height="10" fill="rgba(67, 70, 74, 1.0)" />
	<rect x="10" y="60" width="10" height="10" fill="rgba(87, 94, 98, 1.0)" />
	<rect x="20" y="60" width="10" height="10" fill="rgba(69, 73, 77, 1.0)" />
	<rect x="30" y="60" width="10" height="10" fill="rgba(80, 83, 87, 1.0)" />
	<rect x="40" y="60" width="10" height="10" fill="rgba(66, 69, 73, 1.0)" />
	<rect x="50" y="60" width="10" height="10" fill="rgba(81, 87, 90, 1.0)" />
	<rect x="60" y="60" width="10" height="10" fill="rgba(76, 78, 82, 1.0)" />
	<rect x="70" y="60" width="10" height="10" fill="rgba(76, 81, 83, 1.0)" />
	<rect x="80" y="60" width="10" height="10" fill="rgba(73, 76, 80, 1.0)" />
	<rect x="90" y="60" width="10" height="10" fill="rgba(74, 77, 81, 1.0)" />
	<rect x="100" y="60" width="10" height="10" fill="rgba(76, 80, 85, 1.0)" />
	<rect x="110" y="60" width="10" height="10" fill="rgba(87, 93, 98, 1.0)" />
	<rect x="120" y="60" width="10" height="10" fill="rgba(73, 76, 81, 1.0)" />
	<rect x="130" y="60" width="10" height="10" fill="rgba(78, 83, 86, 1.0)" />
	<rect x="140" y="60" width="10" height="10" fill="rgba(77, 81, 85, 1.0)" />
	<rect x="150" y="60" width="10" height="10" fill="rgba(77, 81, 85, 1.0)" />
	<rect x="0" y="70" width="10" height="10" fill="rgba(80, 82, 87, 1.0)" />
	<rect x="10" y="70" width="10" height="10" fill="rgba(74, 77, 82, 1.0)" />
	<rect x="20" y="70" width="10" height="10" fill="rgba(80, 83, 87, 1.0)" />
	<rect x="30" y="70" width="10" height="10" fill="rgba(81, 89, 91, 1.0)" />
	<rect x="40" y="70" width="10" height="10" fill="rgba(80, 83, 87, 1.0)" />
	<rect x="50" y="70" width="10" height="10" fill="rgba(80, 83, 87, 1.0)" />
	<rect x="60" y="70" width="10" height="10" fill="rgba(77, 80, 83, 1.0)" />
	<rect x="70" y="70" width="10" height="10" fill="rgba(90, 98, 101, 1.0)" />
	<rect x="80" y="70" width="10" height="10" fill="rgba(82, 87, 91, 1.0)" />
	<rect x="90" y="70" width="10" height="10" fill="rgba(73, 77, 81, 1.0)" />
	<rect x="100" y="70" width="10" height="10" fill="rgba(81, 87, 93, 1.0)" />
	<rect x="110" y="70" width="10" height="10" fill="rgba(72, 74, 77, 1.0)" />
	<rect x="120" y="70" width="10" height="10" fill="rgba(77, 80, 85, 1.0)" />
	<rect x="130" y="70" width="10" height="10" fill="rgba(81, 85, 89, 1.0)" />
	<rect x="140" y="70" width="10" height="10" fill="rgba(81, 83, 87, 1.0)" />
	<rect x="150" y="70" width="10" height="10" fill="rgba(81, 86, 90, 1.0)" />
	<rect x="0" y="80" width="10" height="10" fill="rgba(77, 81, 85, 1.0)" />
	<rect x="10" y="80" width="10" height="10" fill="rgba(76, 80, 83, 1.0)" />
	<rect x="20" y="80" width="10" height="10" fill="rgba(80, 83, 87, 1.0)" />
	<rect x="30" y="80" width="10" height="10" fill="rgba(85, 90, 94, 1.0)" />
	<rect x="40" y="80" width="10" height="10" fill="rgba(86, 94, 96, 1.0)" />
	<rect x="50" y="80" width="10" height="10" fill="rgba(72, 74, 78, 1.0)" />
	<rect x="60" y="80" width="10" height="10" fill="rgba(76, 80, 85, 1.0)" />
	<rect x="70" y="80" width="10" height="10" fill="rgba(74, 77, 81, 1.0)" />
	<rect x="80" y="80" width="10" height="10" fill="rgba(74, 78, 82, 1.0)" />
	<rect x="90" y="80" width="10" height="10" fill="rgba(89, 96, 100, 1.0)" />
	<rect x="100" y="80" width="10" height="10" fill="rgba(70, 73, 76, 1.0)" />
	<rect x="110" y="80" width="10" height="10" fill="rgba(73, 76, 81, 1.0)" />
	<rect x="120" y="80" width="10" height="10" fill="rgba(78, 85, 87, 1.0)" />
	<rect x="130" y="80" width="10" height="10" fill="rgba(74, 77, 82, 1.0)" />
	<rect x="140" y="80" width="10" height="10" fill="rgba(77, 82, 85, 1.0)" />
	<rect x="150" y="80" width="10" height="10" fill="rgba(76, 80, 83, 1.0)" />
	<rect x="0" y="90" width="10" height="10" fill="rgba(74, 80, 82, 1.0)" />
	<rect x="10" y="90" width="10" height="10" fill="rgba(78, 83, 87, 1.0)" />
	<rect x="20" y="90" width="10" height="10" fill="rgba(74, 78, 82, 1.0)" />
	<rect x="30" y="90" width="10" height="10" fill="rgba(80, 85, 89, 1.0)" />
	<rect x="40" y="90" width="10" height="10" fill="rgba(81, 87, 91, 1.0)" />
	<rect x="50" y="90" width="10" height="10" fill="rgba(73, 76, 81, 1.0)" />
	<rect x="60" y="90" width="10" height="10" fill="rgba(73, 77, 81, 1.0)" />
	<rect x="70" y="90" width="10" height="10" fill="rgba(83, 93, 95, 1.0)" />
	<rect x="80" y="90" width="10" height="10" fill="rgba(78, 82, 85, 1.0)" />
	<rect x="90" y="90" width="10" height="10" fill="rgba(73, 77, 81, 1.0)" />
	<rect x="100" y="90" width="10" height="10" fill="rgba(73, 77, 81, 1.0)" />
	<rect x="110" y="90" width="10" height="10" fill="rgba(81, 85, 89, 1.0)" />
	<rect x="120" y="90" width="10" height="10" fill="rgba(78, 82, 85, 1.0)" />
	<rect x="130" y="90" width="10" height="10" fill="rgba(77, 80, 83, 1.0)" />
	<rect x="140" y="90" width="10" height="10" fill="rgba(74, 77, 81, 1.0)" />
	<rect x="150" y="90" width="10" height="10" fill="rgba(81, 87, 91, 1.0)" />
	<rect x="0" y="100" width="10" height="10" fill="rgba(81, 86, 90, 1.0)" />
	<rect x="10" y="100" width="10" height="10" fill="rgba(76, 80, 83, 1.0)" />
	<rect x="20" y="100" width="10" height="10" fill="rgba(67, 72, 74, 1.0)" />
	<rect x="30" y="100" width="10" height="10" fill="rgba(81, 83, 87, 1.0)" />
	<rect x="40" y="100" width="10" height="10" fill="rgba(70, 73, 77, 1.0)" />
	<rect x="50" y="100" width="10" height="10" fill="rgba(80, 83, 87, 1.0)" />
	<rect x="60" y="100" width="10" height="10" fill="rgba(72, 74, 78, 1.0)" />
	<rect x="70" y="100" width="10" height="10" fill="rgba(74, 77, 82, 1.0)" />
	<rect x="80" y="100" width="10" height="10" fill="rgba(76, 78, 82, 1.0)" />
	<rect x="90" y="100" width="10" height="10" fill="rgba(86, 93, 96, 1.0)" />
	<rect x="100" y="100" width="10" height="10" fill="rgba(74, 77, 81, 1.0)" />
	<rect x="110" y="100" width="10" height="10" fill="rgba(77, 82, 85, 1.0)" />
	<rect x="120" y="100" width="10" height="10" fill="rgba(77, 80, 83, 1.0)" />
	<rect x="130" y="100" width="10" height="10" fill="rgba(83, 89, 93, 1.0)" />
	<rect x="140" y="100" width="10" height="10" fill="rgba(85, 93, 95, 1.0)" />
	<rect x="150" y="100" width="10" height="10" fill="rgba(83, 91, 95, 1.0)" />
	<rect x="0" y="110" width="10" height="10" fill="rgba(70, 73, 77, 1.0)" />
	<rect x="10" y="110" width="10" height="10" fill="rgba(83, 90, 94, 1.0)" />
	<rect x="20" y="110" width="10" height="10" fill="rgba(73, 77, 81, 1.0)" />
	<rect x="30" y="110" width="10" height="10" fill="rgba(73, 76, 80, 1.0)" />
	<rect x="40" y="110" width="10" height="10" fill="rgba(78, 82, 87, 1.0)" />
	<rect x="50" y="110" width="10" height="10" fill="rgba(81, 86, 90, 1.0)" />
	<rect x="60" y="110" width="10" height="10" fill="rgba(76, 81, 83, 1.0)" />
	<rect x="70" y="110" width="10" height="10" fill="rgba(72, 74, 78, 1.0)" />
	<rect x="80" y="110" width="10" height="10" fill="rgba(74, 77, 82, 1.0)" />
	<rect x="90" y="110" width="10" height="10" fill="rgba(74, 78, 82, 1.0)" />
	<rect x="100" y="110" width="10" height="10" fill="rgba(77, 81, 86, 1.0)" />
	<rect x="110" y="110" width="10" height="10" fill="rgba(80, 82, 87, 1.0)" />
	<rect x="120" y="110" width="10" height="10" fill="rgba(73, 76, 80, 1.0)" />
	<rect x="130" y="110" width="10" height="10" fill="rgba(70, 74, 78, 1.0)" />
	<rect x="140" y="110" width="10" height="10" fill="rgba(70, 73, 77, 1.0)" />
	<rect x="150" y="110" width="10" height="10" fill="rgba(76, 81, 83, 1.0)" />
	<rect x="0" y="120" width="10" height="10" fill="rgba(76, 80, 83, 1.0)" />
	<rect x="10" y="120" width="10" height="10" fill="rgba(74, 80, 82, 1.0)" />
	<rect x="20" y="120" width="10" height="10" fill="rgba(76, 81, 83, 1.0)" />
	<rect x="30" y="120" width="10" height="10" fill="rgba(78, 81, 85, 1.0)" />
	<rect x="40" y="120" width="10" height="10" fill="rgba(81, 86, 90, 1.0)" />
	<rect x="50" y="120" width="10" height="10" fill="rgba(81, 89, 91, 1.0)" />
	<rect x="60" y="120" width="10" height="10" fill="rgba(76, 78, 82, 1.0)" />
	<rect x="70" y="120" width="10" height="10" fill="rgba(74, 78, 81, 1.0)" />
	<rect x="80" y="120" width="10" height="10" fill="rgba(76, 78, 82, 1.0)" />
	<rect x="90" y="120" width="10" height="10" fill="rgba(76, 80, 83, 1.0)" />
	<rect x="100" y="120" width="10" height="10" fill="rgba(74, 77, 80, 1.0)" />
	<rect x="110" y="120" width="10" height="10" fill="rgba(72, 74, 78, 1.0)" />
	<rect x="120" y="120" width="10" height="10" fill="rgba(78, 82, 86, 1.0)" />
	<rect x="130" y="120" width="10" height="10" fill="rgba(76, 80, 83, 1.0)" />
	<rect x="140" y="120" width="10" height="10" fill="rgba(69, 72, 76, 1.0)" />
	<rect x="150" y="120" width="10" height="10" fill="rgba(73, 76, 80, 1.0)" />
	<rect x="0" y="130" width="10" height="10" fill="rgba(78, 81, 86, 1.0)" />
	<rect x="10" y="130" width="10" height="10" fill="rgba(76, 80, 85, 1.0)" />
	<rect x="20" y="130" width="10" height="10" fill="rgba(80, 86, 89, 1.0)" />
	<rect x="30" y="130" width="10" height="10" fill="rgba(67, 70, 74, 1.0)" />
	<rect x="40" y="130" width="10" height="10" fill="rgba(83, 91, 95, 1.0)" />
	<rect x="50" y="130" width="10" height="10" fill="rgba(80, 83, 87, 1.0)" />
	<rect x="60" y="130" width="10" height="10" fill="rgba(76, 78, 82, 1.0)" />
	<rect x="70" y="130" width="10" height="10" fill="rgba(81, 85, 90, 1.0)" />
	<rect x="80" y="130" width="10" height="10" fill="rgba(81, 89, 91, 1.0)" />
	<rect x="90" y="130" width="10" height="10" fill="rgba(78, 82, 86, 1.0)" />
	<rect x="100" y="130" width="10" height="10" fill="rgba(81, 85, 90, 1.0)" />
	<rect x="110" y="130" width="10" height="10" fill="rgba(78, 82, 86, 1.0)" />
	<rect x="120" y="130" width="10" height="10" fill="rgba(76, 78, 82, 1.0)" />
	<rect x="130" y="130" width="10" height="10" fill="rgba(77, 81, 85, 1.0)" />
	<rect x="140" y="130" width="10" height="10" fill="rgba(74, 77, 82, 1.0)" />
	<rect x="150" y="130" width="10" height="10" fill="rgba(72, 74, 78, 1.0)" />
	<rect x="0" y="140" width="10" height="10" fill="rgba(76, 77, 81, 1.0)" />
	<rect x="10" y="140" width="10" height="10" fill="rgba(76, 80, 82, 1.0)" />
	<rect x="20" y="140" width="10" height="10" fill="rgba(77, 81, 85, 1.0)" />
	<rect x="30" y="140" width="10" height="10" fill="rgba(70, 74, 78, 1.0)" />
	<rect x="40" y="140" width="10" height="10" fill="rgba(76, 78, 83, 1.0)" />
	<rect x="50" y="140" width="10" height="10" fill="rgba(77, 81, 85, 1.0)" />
	<rect x="60" y="140" width="10" height="10" fill="rgba(76, 81, 83, 1.0)" />
	<rect x="70" y="140" width="10" height="10" fill="rgba(78, 81, 86, 1.0)" />
	<rect x="80" y="140" width="10" height="10" fill="rgba(72, 76, 78, 1.0)" />
	<rect x="90" y="140" width="10" height="10" fill="rgba(76, 78, 82, 1.0)" />
	<rect x="100" y="140" width="10" height="10" fill="rgba(69, 72, 76, 1.0)" />
	<rect x="110" y="140" width="10" height="10" fill="rgba(81, 87, 91, 1.0)" />
	<rect x="120" y="140" width="10" height="10" fill="rgba(78, 82, 86, 1.0)" />
	<rect x="130" y="140" width="10" height="10" fill="rgba(73, 76, 81, 1.0)" />
	<rect x="140" y="140" width="10" height="10" fill="rgba(72, 76, 80, 1.0)" />
	<rect x="150" y="140" width="10" height="10" fill="rgba(83, 91, 95, 1.0)" />
	<rect x="0" y="150" width="10" height="10" fill="rgba(76, 78, 83, 1.0)" />
	<rect x="10" y="150" width="10" height="10" fill="rgba(77, 80, 82, 1.0)" />
	<rect x="20" y="150" width="10" height="10" fill="rgba(76, 80, 85, 1.0)" />
	<rect x="30" y="150" width="10" height="10" fill="rgba(72, 76, 80, 1.0)" />
	<rect x="40" y="150" width="10" height="10" fill="rgba(87, 93, 96, 1.0)" />
	<rect x="50" y="150" width="10" height="10" fill="rgba(74, 77, 82, 1.0)" />
	<rect x="60" y="150" width="10" height="10" fill="rgba(74, 78, 81, 1.0)" />
	<rect x="70" y="150" width="10" height="10" fill="rgba(77, 80, 83, 1.0)" />
	<rect x="80" y="150" width="10" height="10" fill="rgba(80, 85, 89, 1.0)" />
	<rect x="90" y="150" width="10" height="10" fill="rgba(81, 87, 91, 1.0)" />
	<rect x="100" y="150" width="10" height="10" fill="rgba(74, 78, 82, 1.0)" />
	<rect x="110" y="150" width="10" height="10" fill="rgba(76, 80, 83, 1.0)" />
	<rect x="120" y="150" width="10" height="10" fill="rgba(73, 76, 80, 1.0)" />
	<rect x="130" y="150" width="10" height="10" fill="rgba(77, 80, 83, 1.0)" />
	<rect x="140" y="150" width="10" height="10" fill="rgba(82, 89, 93, 1.0)" />
	<rect x="150" y="150" width="10" height="10" fill="rgba(82, 90, 93, 1.0)" />
</svg>