<svg xmlns="http://www.w3.org/2000/svg" xmlns:xlink="http://www.w3.org/1999/xlink">
	<rect x="0" y="0" width="10" height="10" fill="rgba(95, 119, 38, 1.0)" />
	<rect x="10" y="0" width="10" height="10" fill="rgba(96, 120, 47, 1.0)" />
	<rect x="20" y="0" width="10" height="10" fill="rgba(94, 114, 50, 1.0)" />
	<rect x="30" y="0" width="10" height="10" fill="rgba(93, 113, 48, 1.0)" />
	<rect x="40" y="0" width="10" height="10" fill="rgba(95, 114, 52, 1.0)" />
	<rect x="50" y="0" width="10" height="10" fill="rgba(104, 128, 38, 1.0)" />
	<rect x="60" y="0" width="10" height="10" fill="rgba(89, 107, 48, 1.0)" />
	<rect x="70" y="0" width="10" height="10" fill="rgba(99, 122, 41, 1.0)" />
	<rect x="80" y="0" width="10" height="10" fill="rgba(94, 113, 51, 1.0)" />
	<rect x="90" y="0" width="10" height="10" fill="rgba(93, 111, 50, 1.0)" />
	<rect x="100" y="0" width="10" height="10" fill="rgba(93, 111, 48, 1.0)" />
	<rect x="110" y="0" width="10" height="10" fill="rgba(101, 126, 41, 1.0)" />
	<rect x="120" y="0" width="10" height="10" fill="rgba(101, 126, 40, 1.0)" />
	<rect x="130" y="0" width="10" height="10" fill="rgba(101, 122, 52, 1.0)" />
	<rect x="140" y="0" width="10" height="10" fill="rgba(96, 120, 40, 1.0)" />
	<rect x="150" y="0" width="10" height="10" fill="rgba(94, 114, 47, 1.0)" />
	<rect x="0" y="10" width="10" height="10" fill="rgba(108, 134, 38, 1.0)" />
	<rect x="10" y="10" width="10" height="10" fill="rgba(98, 120, 43, 1.0)" />
	<rect x="20" y="10" width="10" height="10" fill="rgba(91, 111, 50, 1.0)" />
	<rect x="30" y="10" width="10" height="10" fill="rgba(98, 119, 48, 1.0)" />
	<rect x="40" y="10" width="10" height="10" fill="rgba(95, 118, 37, 1.0)" />
	<rect x="50" y="10" width="10" height="10" fill="rgba(100, 125, 40, 1.0)" />
	<rect x="60" y="10" width="10" height="10" fill="rgba(98, 121, 40, 1.0)" />
	<rect x="70" y="10" width="10" height="10" fill="rgba(109, 137, 35, 1.0)" />
	<rect x="80" y="10" width="10" height="10" fill="rgba(104, 128, 44, 1.0)" />
	<rect x="90" y="10" width="10" height="10" fill="rgba(104, 128, 43, 1.0)" />
	<rect x="100" y="10" width="10" height="10" fill="rgba(110, 134, 48, 1.0)" />
	<rect x="110" y="10" width="10" height="10" fill="rgba(96, 119, 45, 1.0)" />
	<rect x="120" y="10" width="10" height="10" fill="rgba(93, 111, 50, 1.0)" />
	<rect x="130" y="10" width="10" height="10" fill="rgba(108, 134, 35, 1.0)" />
	<rect x="140" y="10" width="10" height="10" fill="rgba(95, 115, 48, 1.0)" />
	<rect x="150" y="10" width="10" height="10" fill="rgba(105, 130, 41, 1.0)" />
	<rect x="0" y="20" width="10" height="10" fill="rgba(95, 115, 50, 1.0)" />
	<rect x="10" y="20" width="10" height="10" fill="rgba(98, 120, 50, 1.0)" />
	<rect x="20" y="20" width="10" height="10" fill="rgba(100, 121, 52, 1.0)" />
	<rect x="30" y="20" width="10" height="10" fill="rgba(94, 114, 47, 1.0)" />
	<rect x="40" y="20" width="10" height="10" fill="rgba(95, 115, 45, 1.0)" />
	<rect x="50" y="20" width="10" height="10" fill="rgba(91, 110, 48, 1.0)" />
	<rect x="60" y="20" width="10" height="10" fill="rgba(105, 131, 37, 1.0)" />
	<rect x="70" y="20" width="10" height="10" fill="rgba(95, 118, 45, 1.0)" />
	<rect x="80" y="20" width="10" height="10" fill="rgba(98, 121, 44, 1.0)" />
	<rect x="90" y="20" width="10" height="10" fill="rgba(108, 134, 40, 1.0)" />
	<rect x="100" y="20" width="10" height="10" fill="rgba(98, 119, 48, 1.0)" />
	<rect x="110" y="20" width="10" height="10" fill="rgba(96, 118, 50, 1.0)" />
	<rect x="120" y="20" width="10" height="10" fill="rgba(94, 115, 45, 1.0)" />
	<rect x="130" y="20" width="10" height="10" fill="rgba(95, 118, 41, 1.0)" />
	<rect x="140" y="20" width="10" height="10" fill="rgba(108, 136, 35, 1.0)" />
	<rect x="150" y="20" width="10" height="10" fill="rgba(104, 128, 48, 1.0)" />
	<rect x="0" y="30" width="10" height="10" fill="rgba(91, 111, 44, 1.0)" />
	<rect x="10" y="30" width="10" height="10" fill="rgba(91, 110, 48, 1.0)" />
	<rect x="20" y="30" width="10" height="10" fill="rgba(100, 124, 41, 1.0)" />
	<rect x="30" y="30" width="10" height="10" fill="rgba(104, 128, 38, 1.0)" />
	<rect x="40" y="30" width="10" height="10" fill="rgba(89, 108, 47, 1.0)" />
	<rect x="50" y="30" width="10" height="10" fill="rgba(100, 125, 41, 1.0)" />
	<rect x="60" y="30" width="10" height="10" fill="rgba(91, 110, 47, 1.0)" />
	<rect x="70" y="30" width="10" height="10" fill="rgba(90, 109, 50, 1.0)" />
	<rect x="80" y="30" width="10" height="10" fill="rgba(87, 109, 38, 1.0)" />
	<rect x="90" y="30" width="10" height="10" fill="rgba(95, 119, 43, 1.0)" />
	<rect x="100" y="30" width="10" height="10" fill="rgba(98, 121, 43, 1.0)" />
	<rect x="110" y="30" width="10" height="10" fill="rgba(104, 128, 40, 1.0)" />
	<rect x="120" y="30" width="10" height="10" fill="rgba(95, 115, 51, 1.0)" />
	<rect x="130" y="30" width="10" height="10" fill="rgba(96, 116, 50, 1.0)" />
	<rect x="140" y="30" width="10" height="10" fill="rgba(99, 124, 43, 1.0)" />
	<rect x="150" y="30" width="10" height="10" fill="rgba(99, 124, 35, 1.0)" />
	<rect x="0" y="40" width="10" height="10" fill="rgba(94, 113, 51, 1.0)" />
	<rect x="10" y="40" width="10" height="10" fill="rgba(91, 110, 47, 1.0)" />
	<rect x="20" y="40" width="10" height="10" fill="rgba(96, 119, 48, 1.0)" />
	<rect x="30" y="40" width="10" height="10" fill="rgba(96, 120, 43, 1.0)" />
	<rect x="40" y="40" width="10" height="10" fill="rgba(105, 130, 43, 1.0)" />
	<rect x="50" y="40" width="10" height="10" fill="rgba(99, 121, 47, 1.0)" />
	<rect x="60" y="40" width="10" height="10" fill="rgba(95, 114, 52, 1.0)" />
	<rect x="70" y="40" width="10" height="10" fill="rgba(101, 124, 45, 1.0)" />
	<rect x="80" y="40" width="10" height="10" fill="rgba(91, 110, 47, 1.0)" />
	<rect x="90" y="40" width="10" height="10" fill="rgba(91, 111, 44, 1.0)" />
	<rect x="100" y="40" width="10" height="10" fill="rgba(90, 109, 47, 1.0)" />
	<rect x="110" y="40" width="10" height="10" fill="rgba(103, 127, 44, 1.0)" />
	<rect x="120" y="40" width="10" height="10" fill="rgba(99, 121, 43, 1.0)" />
	<rect x="130" y="40" width="10" height="10" fill="rgba(95, 118, 37, 1.0)" />
	<rect x="140" y="40" width="10" height="10" fill="rgba(103, 125, 45, 1.0)" />
	<rect x="150" y="40" width="10" height="10" fill="rgba(95, 118, 40, 1.0)" />
	<rect x="0" y="50" width="10" height="10" fill="rgba(91, 110, 45, 1.0)" />
	<rect x="10" y="50" width="10" height="10" fill="rgba(94, 114, 48, 1.0)" />
	<rect x="20" y="50" width="10" height="10" fill="rgba(99, 122, 38, 1.0)" />
	<rect x="30" y="50" width="10" height="10" fill="rgba(109, 133, 51, 1.0)" />
	<rect x="40" y="50" width="10" height="10" fill="rgba(98, 121, 41, 1.0)" />
	<rect x="50" y="50" width="10" height="10" fill="rgba(96, 116, 50, 1.0)" />
	<rect x="60" y="50" width="10" height="10" fill="rgba(91, 110, 48, 1.0)" />
	<rect x="70" y="50" width="10" height="10" fill="rgba(99, 121, 44, 1.0)" />
	<rect x="80" y="50" width="10" height="10" fill="rgba(91, 111, 47, 1.0)" />
	<rect x="90" y="50" width="10" height="10" fill="rgba(98, 118, 52, 1.0)" />
	<rect x="100" y="50" width="10" height="10" fill="rgba(93, 113, 48, 1.0)" />
	<rect x="110" y="50" width="10" height="10" fill="rgba(95, 118, 38, 1.0)" />
	<rect x="120" y="50" width="10" height="10" fill="rgba(94, 114, 43, 1.0)" />
	<rect x="130" y="50" width="10" height="10" fill="rgba(105, 131, 35, 1.0)" />
	<rect x="140" y="50" width="10" height="10" fill="rgba(94, 115, 45, 1.0)" />
	<rect x="150" y="50" width="10" height="10" fill="rgba(89, 109, 43, 1.0)" />
	<rect x="0" y="60" width="10" height="10" fill="rgba(87, 108, 43, 1.0)" />
	<rect x="10" y="60" width="10" height="10" fill="rgba(101, 126, 43, 1.0)" />
	<rect x="20" y="60" width="10" height="10" fill="rgba(87, 107, 47, 1.0)" />
	<rect x="30" y="60" width="10" height="10" fill="rgba(93, 111, 50, 1.0)" />
	<rect x="40" y="60" width="10" height="10" fill="rgba(86, 105, 44, 1.0)" />
	<rect x="50" y="60" width="10" height="10" fill="rgba(98, 121, 45, 1.0)" />
	<rect x="60" y="60" width="10" height="10" fill="rgba(93, 111, 48, 1.0)" />
	<rect x="70" y="60" width="10" height="10" fill="rgba(93, 113, 45, 1.0)" />
	<rect x="80" y="60" width="10" height="10" fill="rgba(94, 114, 47, 1.0)" />
	<rect x="90" y="60" width="10" height="10" fill="rgba(91, 111, 47, 1.0)" />
	<rect x="100" y="60" width="10" height="10" fill="rgba(107, 132, 40, 1.0)" />
	<rect x="110" y="60" width="10" height="10" fill="rgba(109, 133, 47, 1.0)" />
	<rect x="120" y="60" width="10" height="10" fill="rgba(94, 114, 48, 1.0)" />
	<rect x="130" y="60" width="10" height="10" fill="rgba(105, 130, 41, 1.0)" />
	<rect x="140" y="60" width="10" height="10" fill="rgba(95, 116, 47, 1.0)" />
	<rect x="150" y="60" width="10" height="10" fill="rgba(91, 110, 48, 1.0)" />
	<rect x="0" y="70" width="10" height="10" fill="rgba(91, 111, 50, 1.0)" />
	<rect x="10" y="70" width="10" height="10" fill="rgba(95, 116, 44, 1.0)" />
	<rect x="20" y="70" width="10" height="10" fill="rgba(96, 118, 48, 1.0)" />
	<rect x="30" y="70" width="10" height="10" fill="rgba(93, 113, 48, 1.0)" />
	<rect x="40" y="70" width="10" height="10" fill="rgba(94, 113, 50, 1.0)" />
	<rect x="50" y="70" width="10" height="10" fill="rgba(89, 107, 47, 1.0)" />
	<rect x="60" y="70" width="10" height="10" fill="rgba(96, 118, 48, 1.0)" />
	<rect x="70" y="70" width="10" height="10" fill="rgba(113, 139, 43, 1.0)" />
	<rect x="80" y="70" width="10" height="10" fill="rgba(93, 113, 48, 1.0)" />
	<rect x="90" y="70" width="10" height="10" fill="rgba(90, 109, 47, 1.0)" />
	<rect x="100" y="70" width="10" height="10" fill="rgba(99, 124, 41, 1.0)" />
	<rect x="110" y="70" width="10" height="10" fill="rgba(94, 116, 44, 1.0)" />
	<rect x="120" y="70" width="10" height="10" fill="rgba(93, 113, 48, 1.0)" />
	<rect x="130" y="70" width="10" height="10" fill="rgba(94, 113, 51, 1.0)" />
	<rect x="140" y="70" width="10" height="10" fill="rgba(101, 124, 51, 1.0)" />
	<rect x="150" y="70" width="10" height="10" fill="rgba(101, 126, 44, 1.0)" />
	<rect x="0" y="80" width="10" height="10" fill="rgba(104, 130, 38, 1.0)" />
	<rect x="10" y="80" width="10" height="10" fill="rgba(101, 126, 41, 1.0)" />
	<rect x="20" y="80" width="10" height="10" fill="rgba(103, 126, 45, 1.0)" />
	<rect x="30" y="80" width="10" height="10" fill="rgba(93, 113, 51, 1.0)" />
	<rect x="40" y="80" width="10" height="10" fill="rgba(93, 111, 50, 1.0)" />
	<rect x="50" y="80" width="10" height="10" fill="rgba(103, 127, 37, 1.0)" />
	<rect x="60" y="80" width="10" height="10" fill="rgba(98, 121, 47, 1.0)" />
	<rect x="70" y="80" width="10" height="10" fill="rgba(110, 137, 38, 1.0)" />
	<rect x="80" y="80" width="10" height="10" fill="rgba(104, 127, 37, 1.0)" />
	<rect x="90" y="80" width="10" height="10" fill="rgba(103, 124, 55, 1.0)" />
	<rect x="100" y="80" width="10" height="10" fill="rgba(86, 104, 45, 1.0)" />
	<rect x="110" y="80" width="10" height="10" fill="rgba(100, 124, 43, 1.0)" />
	<rect x="120" y="80" width="10" height="10" fill="rgba(94, 115, 45, 1.0)" />
	<rect x="130" y="80" width="10" height="10" fill="rgba(103, 127, 40, 1.0)" />
	<rect x="140" y="80" width="10" height="10" fill="rgba(91, 110, 48, 1.0)" />
	<rect x="150" y="80" width="10" height="10" fill="rgba(90, 109, 48, 1.0)" />
	<rect x="0" y="90" width="10" height="10" fill="rgba(93, 114, 40, 1.0)" />
	<rect x="10" y="90" width="10" height="10" fill="rgba(96, 116, 44, 1.0)" />
	<rect x="20" y="90" width="10" height="10" fill="rgba(96, 119, 48, 1.0)" />
	<rect x="30" y="90" width="10" height="10" fill="rgba(96, 118, 44, 1.0)" />
	<rect x="40" y="90" width="10" height="10" fill="rgba(89, 108, 48, 1.0)" />
	<rect x="50" y="90" width="10" height="10" fill="rgba(94, 114, 48, 1.0)" />
	<rect x="60" y="90" width="10" height="10" fill="rgba(91, 113, 44, 1.0)" />
	<rect x="70" y="90" width="10" height="10" fill="rgba(94, 116, 44, 1.0)" />
	<rect x="80" y="90" width="10" height="10" fill="rgba(104, 131, 37, 1.0)" />
	<rect x="90" y="90" width="10" height="10" fill="rgba(94, 114, 48, 1.0)" />
	<rect x="100" y="90" width="10" height="10" fill="rgba(103, 127, 40, 1.0)" />
	<rect x="110" y="90" width="10" height="10" fill="rgba(99, 119, 50, 1.0)" />
	<rect x="120" y="90" width="10" height="10" fill="rgba(93, 111, 48, 1.0)" />
	<rect x="130" y="90" width="10" height="10" fill="rgba(90, 109, 51, 1.0)" />
	<rect x="140" y="90" width="10" height="10" fill="rgba(108, 133, 37, 1.0)" />
	<rect x="150" y="90" width="10" height="10" fill="rgba(95, 115, 51, 1.0)" />
	<rect x="0" y="100" width="10" height="10" fill="rgba(104, 128, 38, 1.0)" />
	<rect x="10" y="100" width="10" height="10" fill="rgba(104, 130, 40, 1.0)" />
	<rect x="20" y="100" width="10" height="10" fill="rgba(80, 95, 44, 1.0)" />
	<rect x="30" y="100" width="10" height="10" fill="rgba(113, 140, 38, 1.0)" />
	<rect x="40" y="100" width="10" height="10" fill="rgba(87, 105, 45, 1.0)" />
	<rect x="50" y="100" width="10" height="10" fill="rgba(96, 116, 51, 1.0)" />
	<rect x="60" y="100" width="10" height="10" fill="rgba(93, 113, 47, 1.0)" />
	<rect x="70" y="100" width="10" height="10" fill="rgba(89, 108, 51, 1.0)" />
	<rect x="80" y="100" width="10" height="10" fill="rgba(111, 137, 41, 1.0)" />
	<rect x="90" y="100" width="10" height="10" fill="rgba(99, 119, 51, 1.0)" />
	<rect x="100" y="100" width="10" height="10" fill="rgba(108, 134, 40, 1.0)" />
	<rect x="110" y="100" width="10" height="10" fill="rgba(95, 116, 44, 1.0)" />
	<rect x="120" y="100" width="10" height="10" fill="rgba(94, 114, 47, 1.0)" />
	<rect x="130" y="100" width="10" height="10" fill="rgba(121, 151, 41, 1.0)" />
	<rect x="140" y="100" width="10" height="10" fill="rgba(94, 115, 45, 1.0)" />
	<rect x="150" y="100" width="10" height="10" fill="rgba(93, 113, 48, 1.0)" />
	<rect x="0" y="110" width="10" height="10" fill="rgba(96, 119, 41, 1.0)" />
	<rect x="10" y="110" width="10" height="10" fill="rgba(99, 121, 47, 1.0)" />
	<rect x="20" y="110" width="10" height="10" fill="rgba(98, 120, 47, 1.0)" />
	<rect x="30" y="110" width="10" height="10" fill="rgba(89, 108, 45, 1.0)" />
	<rect x="40" y="110" width="10" height="10" fill="rgba(105, 131, 37, 1.0)" />
	<rect x="50" y="110" width="10" height="10" fill="rgba(91, 111, 47, 1.0)" />
	<rect x="60" y="110" width="10" height="10" fill="rgba(95, 116, 47, 1.0)" />
	<rect x="70" y="110" width="10" height="10" fill="rgba(90, 109, 47, 1.0)" />
	<rect x="80" y="110" width="10" height="10" fill="rgba(98, 121, 44, 1.0)" />
	<rect x="90" y="110" width="10" height="10" fill="rgba(96, 119, 45, 1.0)" />
	<rect x="100" y="110" width="10" height="10" fill="rgba(93, 113, 48, 1.0)" />
	<rect x="110" y="110" width="10" height="10" fill="rgba(107, 131, 47, 1.0)" />
	<rect x="120" y="110" width="10" height="10" fill="rgba(99, 124, 40, 1.0)" />
	<rect x="130" y="110" width="10" height="10" fill="rgba(96, 119, 41, 1.0)" />
	<rect x="140" y="110" width="10" height="10" fill="rgba(89, 107, 47, 1.0)" />
	<rect x="150" y="110" width="10" height="10" fill="rgba(83, 100, 45, 1.0)" />
	<rect x="0" y="120" width="10" height="10" fill="rgba(101, 124, 47, 1.0)" />
	<rect x="10" y="120" width="10" height="10" fill="rgba(94, 114, 48, 1.0)" />
	<rect x="20" y="120" width="10" height="10" fill="rgba(93, 114, 44, 1.0)" />
	<rect x="30" y="120" width="10" height="10" fill="rgba(101, 125, 47, 1.0)" />
	<rect x="40" y="120" width="10" height="10" fill="rgba(95, 116, 48, 1.0)" />
	<rect x="50" y="120" width="10" height="10" fill="rgba(103, 126, 37, 1.0)" />
	<rect x="60" y="120" width="10" height="10" fill="rgba(96, 118, 47, 1.0)" />
	<rect x="70" y="120" width="10" height="10" fill="rgba(86, 105, 43, 1.0)" />
	<rect x="80" y="120" width="10" height="10" fill="rgba(103, 130, 35, 1.0)" />
	<rect x="90" y="120" width="10" height="10" fill="rgba(93, 111, 50, 1.0)" />
	<rect x="100" y="120" width="10" height="10" fill="rgba(99, 122, 43, 1.0)" />
	<rect x="110" y="120" width="10" height="10" fill="rgba(105, 131, 35, 1.0)" />
	<rect x="120" y="120" width="10" height="10" fill="rgba(100, 125, 43, 1.0)" />
	<rect x="130" y="120" width="10" height="10" fill="rgba(93, 111, 51, 1.0)" />
	<rect x="140" y="120" width="10" height="10" fill="rgba(104, 130, 35, 1.0)" />
	<rect x="150" y="120" width="10" height="10" fill="rgba(110, 138, 35, 1.0)" />
	<rect x="0" y="130" width="10" height="10" fill="rgba(96, 118, 47, 1.0)" />
	<rect x="10" y="130" width="10" height="10" fill="rgba(105, 131, 41, 1.0)" />
	<rect x="20" y="130" width="10" height="10" fill="rgba(94, 116, 41, 1.0)" />
	<rect x="30" y="130" width="10" height="10" fill="rgba(82, 100, 43, 1.0)" />
	<rect x="40" y="130" width="10" height="10" fill="rgba(93, 114, 44, 1.0)" />
	<rect x="50" y="130" width="10" height="10" fill="rgba(91, 110, 47, 1.0)" />
	<rect x="60" y="130" width="10" height="10" fill="rgba(94, 115, 44, 1.0)" />
	<rect x="70" y="130" width="10" height="10" fill="rgba(99, 120, 51, 1.0)" />
	<rect x="80" y="130" width="10" height="10" fill="rgba(110, 137, 38, 1.0)" />
	<rect x="90" y="130" width="10" height="10" fill="rgba(98, 118, 52, 1.0)" />
	<rect x="100" y="130" width="10" height="10" fill="rgba(99, 120, 47, 1.0)" />
	<rect x="110" y="130" width="10" height="10" fill="rgba(104, 128, 40, 1.0)" />
	<rect x="120" y="130" width="10" height="10" fill="rgba(95, 115, 50, 1.0)" />
	<rect x="130" y="130" width="10" height="10" fill="rgba(94, 114, 47, 1.0)" />
	<rect x="140" y="130" width="10" height="10" fill="rgba(104, 128, 41, 1.0)" />
	<rect x="150" y="130" width="10" height="10" fill="rgba(94, 114, 47, 1.0)" />
	<rect x="0" y="140" width="10" height="10" fill="rgba(91, 111, 51, 1.0)" />
	<rect x="10" y="140" width="10" height="10" fill="rgba(94, 115, 45, 1.0)" />
	<rect x="20" y="140" width="10" height="10" fill="rgba(103, 126, 38, 1.0)" />
	<rect x="30" y="140" width="10" height="10" fill="rgba(91, 111, 45, 1.0)" />
	<rect x="40" y="140" width="10" height="10" fill="rgba(99, 122, 44, 1.0)" />
	<rect x="50" y="140" width="10" height="10" fill="rgba(94, 113, 47, 1.0)" />
	<rect x="60" y="140" width="10" height="10" fill="rgba(111, 139, 37, 1.0)" />
	<rect x="70" y="140" width="10" height="10" fill="rgba(95, 115, 50, 1.0)" />
	<rect x="80" y="140" width="10" height="10" fill="rgba(98, 121, 37, 1.0)" />
	<rect x="90" y="140" width="10" height="10" fill="rgba(94, 114, 48, 1.0)" />
	<rect x="100" y="140" width="10" height="10" fill="rgba(101, 127, 34, 1.0)" />
	<rect x="110" y="140" width="10" height="10" fill="rgba(107, 133, 37, 1.0)" />
	<rect x="120" y="140" width="10" height="10" fill="rgba(95, 115, 51, 1.0)" />
	<rect x="130" y="140" width="10" height="10" fill="rgba(96, 119, 40, 1.0)" />
	<rect x="140" y="140" width="10" height="10" fill="rgba(107, 134, 35, 1.0)" />
	<rect x="150" y="140" width="10" height="10" fill="rgba(94, 116, 48, 1.0)" />
	<rect x="0" y="150" width="10" height="10" fill="rgba(94, 115, 45, 1.0)" />
	<rect x="10" y="150" width="10" height="10" fill="rgba(103, 127, 41, 1.0)" />
	<rect x="20" y="150" width="10" height="10" fill="rgba(105, 128, 37, 1.0)" />
	<rect x="30" y="150" width="10" height="10" fill="rgba(89, 109, 43, 1.0)" />
	<rect x="40" y="150" width="10" height="10" fill="rgba(101, 121, 57, 1.0)" />
	<rect x="50" y="150" width="10" height="10" fill="rgba(93, 111, 50, 1.0)" />
	<rect x="60" y="150" width="10" height="10" fill="rgba(93, 115, 41, 1.0)" />
	<rect x="70" y="150" width="10" height="10" fill="rgba(100, 122, 47, 1.0)" />
	<rect x="80" y="150" width="10" height="10" fill="rgba(104, 131, 37, 1.0)" />
	<rect x="90" y="150" width="10" height="10" fill="rgba(110, 136, 41, 1.0)" />
	<rect x="100" y="150" width="10" height="10" fill="rgba(87, 107, 48, 1.0)" />
	<rect x="110" y="150" width="10" height="10" fill="rgba(95, 115, 48, 1.0)" />
	<rect x="120" y="150" width="10" height="10" fill="rgba(111, 140, 37, 1.0)" />
	<rect x="130" y="150" width="10" height="10" fill="rgba(98, 121, 44, 1.0)" />
	<rect x="140" y="150" width="10" height="10" fill="rgba(95, 116, 44, 1.0)" />
	<rect x="150" y="150" width="10" height="10" fill="rgba(99, 122, 37, 1.0)" />
</svg>