<svg xmlns="http://www.w3.org/2000/svg" xmlns:xlink="http://www.w3.org/1999/xlink">
	<rect x="0" y="0" width="10" height="10" fill="rgba(138, 138, 130, 1.0)" />
	<rect x="10" y="0" width="10" height="10" fill="rgba(153, 153, 145, 1.0)" />
	<rect x="20" y="0" width="10" height="10" fill="rgba(172, 172, 167, 1.0)" />
	<rect x="30" y="0" width="10" height="10" fill="rgba(161, 161, 156, 1.0)" />
	<rect x="40" y="0" width="10" height="10" fill="rgba(165, 165, 158, 1.0)" />
	<rect x="50" y="0" width="10" height="10" fill="rgba(155, 155, 148, 1.0)" />
	<rect x="60" y="0" width="10" height="10" fill="rgba(146, 146, 138, 1.0)" />
	<rect x="70" y="0" width="10" height="10" fill="rgba(144, 144, 134, 1.0)" />
	<rect x="80" y="0" width="10" height="10" fill="rgba(155, 155, 148, 1.0)" />
	<rect x="90" y="0" width="10" height="10" fill="rgba(156, 156, 149, 1.0)" />
	<rect x="100" y="0" width="10" height="10" fill="rgba(149, 149, 142, 1.0)" />
	<rect x="110" y="0" width="10" height="10" fill="rgba(155, 155, 148, 1.0)" />
	<rect x="120" y="0" width="10" height="10" fill="rgba(151, 151, 142, 1.0)" />
	<rect x="130" y="0" width="10" height="10" fill="rgba(179, 179, 171, 1.0)" />
	<rect x="140" y="0" width="10" height="10" fill="rgba(141, 141, 134, 1.0)" />
	<rect x="150" y="0" width="10" height="10" fill="rgba(151, 151, 142, 1.0)" />
	<rect x="0" y="10" width="10" height="10" fill="rgba(147, 147, 139, 1.0)" />
	<rect x="10" y="10" width="10" height="10" fill="rgba(161, 162, 156, 1.0)" />
	<rect x="20" y="10" width="10" height="10" fill="rgba(154, 154, 147, 1.0)" />
	<rect x="30" y="10" width="10" height="10" fill="rgba(156, 156, 148, 1.0)" />
	<rect x="40" y="10" width="10" height="10" fill="rgba(144, 144, 138, 1.0)" />
	<rect x="50" y="10" width="10" height="10" fill="rgba(155, 155, 149, 1.0)" />
	<rect x="60" y="10" width="10" height="10" fill="rgba(144, 144, 136, 1.0)" />
	<rect x="70" y="10" width="10" height="10" fill="rgba(147, 147, 141, 1.0)" />
	<rect x="80" y="10" width="10" height="10" fill="rgba(163, 163, 156, 1.0)" />
	<rect x="90" y="10" width="10" height="10" fill="rgba(166, 166, 161, 1.0)" />
	<rect x="100" y="10" width="10" height="10" fill="rgba(170, 170, 163, 1.0)" />
	<rect x="110" y="10" width="10" height="10" fill="rgba(162, 162, 157, 1.0)" />
	<rect x="120" y="10" width="10" height="10" fill="rgba(151, 151, 144, 1.0)" />
	<rect x="130" y="10" width="10" height="10" fill="rgba(145, 146, 137, 1.0)" />
	<rect x="140" y="10" width="10" height="10" fill="rgba(167, 167, 162, 1.0)" />
	<rect x="150" y="10" width="10" height="10" fill="rgba(162, 162, 156, 1.0)" />
	<rect x="0" y="20" width="10" height="10" fill="rgba(157, 157, 151, 1.0)" />
	<rect x="10" y="20" width="10" height="10" fill="rgba(155, 155, 147, 1.0)" />
	<rect x="20" y="20" width="10" height="10" fill="rgba(184, 184, 178, 1.0)" />
	<rect x="30" y="20" width="10" height="10" fill="rgba(151, 151, 145, 1.0)" />
	<rect x="40" y="20" width="10" height="10" fill="rgba(147, 147, 139, 1.0)" />
	<rect x="50" y="20" width="10" height="10" fill="rgba(164, 164, 158, 1.0)" />
	<rect x="60" y="20" width="10" height="10" fill="rgba(153, 153, 146, 1.0)" />
	<rect x="70" y="20" width="10" height="10" fill="rgba(155, 155, 148, 1.0)" />
	<rect x="80" y="20" width="10" height="10" fill="rgba(157, 158, 151, 1.0)" />
	<rect x="90" y="20" width="10" height="10" fill="rgba(158, 159, 154, 1.0)" />
	<rect x="100" y="20" width="10" height="10" fill="rgba(157, 157, 151, 1.0)" />
	<rect x="110" y="20" width="10" height="10" fill="rgba(168, 168, 163, 1.0)" />
	<rect x="120" y="20" width="10" height="10" fill="rgba(155, 155, 149, 1.0)" />
	<rect x="130" y="20" width="10" height="10" fill="rgba(146, 146, 139, 1.0)" />
	<rect x="140" y="20" width="10" height="10" fill="rgba(144, 144, 136, 1.0)" />
	<rect x="150" y="20" width="10" height="10" fill="rgba(181, 181, 175, 1.0)" />
	<rect x="0" y="30" width="10" height="10" fill="rgba(152, 152, 145, 1.0)" />
	<rect x="10" y="30" width="10" height="10" fill="rgba(146, 146, 138, 1.0)" />
	<rect x="20" y="30" width="10" height="10" fill="rgba(151, 151, 142, 1.0)" />
	<rect x="30" y="30" width="10" height="10" fill="rgba(147, 147, 140, 1.0)" />
	<rect x="40" y="30" width="10" height="10" fill="rgba(144, 144, 137, 1.0)" />
	<rect x="50" y="30" width="10" height="10" fill="rgba(170, 170, 167, 1.0)" />
	<rect x="60" y="30" width="10" height="10" fill="rgba(146, 146, 138, 1.0)" />
	<rect x="70" y="30" width="10" height="10" fill="rgba(146, 146, 139, 1.0)" />
	<rect x="80" y="30" width="10" height="10" fill="rgba(136, 136, 130, 1.0)" />
	<rect x="90" y="30" width="10" height="10" fill="rgba(149, 149, 142, 1.0)" />
	<rect x="100" y="30" width="10" height="10" fill="rgba(161, 161, 155, 1.0)" />
	<rect x="110" y="30" width="10" height="10" fill="rgba(147, 147, 139, 1.0)" />
	<rect x="120" y="30" width="10" height="10" fill="rgba(148, 148, 140, 1.0)" />
	<rect x="130" y="30" width="10" height="10" fill="rgba(161, 162, 156, 1.0)" />
	<rect x="140" y="30" width="10" height="10" fill="rgba(158, 158, 154, 1.0)" />
	<rect x="150" y="30" width="10" height="10" fill="rgba(154, 154, 148, 1.0)" />
	<rect x="0" y="40" width="10" height="10" fill="rgba(158, 158, 153, 1.0)" />
	<rect x="10" y="40" width="10" height="10" fill="rgba(145, 145, 137, 1.0)" />
	<rect x="20" y="40" width="10" height="10" fill="rgba(158, 158, 152, 1.0)" />
	<rect x="30" y="40" width="10" height="10" fill="rgba(158, 158, 153, 1.0)" />
	<rect x="40" y="40" width="10" height="10" fill="rgba(154, 154, 146, 1.0)" />
	<rect x="50" y="40" width="10" height="10" fill="rgba(152, 152, 144, 1.0)" />
	<rect x="60" y="40" width="10" height="10" fill="rgba(154, 154, 147, 1.0)" />
	<rect x="70" y="40" width="10" height="10" fill="rgba(174, 174, 167, 1.0)" />
	<rect x="80" y="40" width="10" height="10" fill="rgba(159, 159, 154, 1.0)" />
	<rect x="90" y="40" width="10" height="10" fill="rgba(142, 142, 134, 1.0)" />
	<rect x="100" y="40" width="10" height="10" fill="rgba(146, 146, 139, 1.0)" />
	<rect x="110" y="40" width="10" height="10" fill="rgba(151, 151, 142, 1.0)" />
	<rect x="120" y="40" width="10" height="10" fill="rgba(147, 147, 139, 1.0)" />
	<rect x="130" y="40" width="10" height="10" fill="rgba(140, 140, 133, 1.0)" />
	<rect x="140" y="40" width="10" height="10" fill="rgba(153, 153, 145, 1.0)" />
	<rect x="150" y="40" width="10" height="10" fill="rgba(140, 140, 132, 1.0)" />
	<rect x="0" y="50" width="10" height="10" fill="rgba(145, 145, 137, 1.0)" />
	<rect x="10" y="50" width="10" height="10" fill="rgba(169, 169, 165, 1.0)" />
	<rect x="20" y="50" width="10" height="10" fill="rgba(159, 159, 155, 1.0)" />
	<rect x="30" y="50" width="10" height="10" fill="rgba(172, 172, 164, 1.0)" />
	<rect x="40" y="50" width="10" height="10" fill="rgba(149, 151, 142, 1.0)" />
	<rect x="50" y="50" width="10" height="10" fill="rgba(172, 172, 167, 1.0)" />
	<rect x="60" y="50" width="10" height="10" fill="rgba(154, 154, 146, 1.0)" />
	<rect x="70" y="50" width="10" height="10" fill="rgba(153, 153, 146, 1.0)" />
	<rect x="80" y="50" width="10" height="10" fill="rgba(154, 154, 147, 1.0)" />
	<rect x="90" y="50" width="10" height="10" fill="rgba(161, 161, 153, 1.0)" />
	<rect x="100" y="50" width="10" height="10" fill="rgba(165, 165, 159, 1.0)" />
	<rect x="110" y="50" width="10" height="10" fill="rgba(144, 144, 138, 1.0)" />
	<rect x="120" y="50" width="10" height="10" fill="rgba(146, 146, 139, 1.0)" />
	<rect x="130" y="50" width="10" height="10" fill="rgba(154, 154, 148, 1.0)" />
	<rect x="140" y="50" width="10" height="10" fill="rgba(156, 156, 152, 1.0)" />
	<rect x="150" y="50" width="10" height="10" fill="rgba(140, 140, 133, 1.0)" />
	<rect x="0" y="60" width="10" height="10" fill="rgba(137, 137, 131, 1.0)" />
	<rect x="10" y="60" width="10" height="10" fill="rgba(171, 171, 166, 1.0)" />
	<rect x="20" y="60" width="10" height="10" fill="rgba(145, 145, 139, 1.0)" />
	<rect x="30" y="60" width="10" height="10" fill="rgba(153, 153, 146, 1.0)" />
	<rect x="40" y="60" width="10" height="10" fill="rgba(147, 147, 141, 1.0)" />
	<rect x="50" y="60" width="10" height="10" fill="rgba(154, 154, 147, 1.0)" />
	<rect x="60" y="60" width="10" height="10" fill="rgba(149, 149, 141, 1.0)" />
	<rect x="70" y="60" width="10" height="10" fill="rgba(148, 149, 142, 1.0)" />
	<rect x="80" y="60" width="10" height="10" fill="rgba(142, 142, 133, 1.0)" />
	<rect x="90" y="60" width="10" height="10" fill="rgba(147, 147, 139, 1.0)" />
	<rect x="100" y="60" width="10" height="10" fill="rgba(158, 159, 152, 1.0)" />
	<rect x="110" y="60" width="10" height="10" fill="rgba(158, 158, 149, 1.0)" />
	<rect x="120" y="60" width="10" height="10" fill="rgba(163, 163, 159, 1.0)" />
	<rect x="130" y="60" width="10" height="10" fill="rgba(154, 154, 146, 1.0)" />
	<rect x="140" y="60" width="10" height="10" fill="rgba(161, 161, 154, 1.0)" />
	<rect x="150" y="60" width="10" height="10" fill="rgba(149, 149, 141, 1.0)" />
	<rect x="0" y="70" width="10" height="10" fill="rgba(156, 156, 149, 1.0)" />
	<rect x="10" y="70" width="10" height="10" fill="rgba(158, 158, 154, 1.0)" />
	<rect x="20" y="70" width="10" height="10" fill="rgba(153, 153, 142, 1.0)" />
	<rect x="30" y="70" width="10" height="10" fill="rgba(145, 146, 137, 1.0)" />
	<rect x="40" y="70" width="10" height="10" fill="rgba(162, 162, 156, 1.0)" />
	<rect x="50" y="70" width="10" height="10" fill="rgba(147, 147, 140, 1.0)" />
	<rect x="60" y="70" width="10" height="10" fill="rgba(148, 148, 140, 1.0)" />
	<rect x="70" y="70" width="10" height="10" fill="rgba(163, 163, 155, 1.0)" />
	<rect x="80" y="70" width="10" height="10" fill="rgba(155, 155, 148, 1.0)" />
	<rect x="90" y="70" width="10" height="10" fill="rgba(146, 146, 138, 1.0)" />
	<rect x="100" y="70" width="10" height="10" fill="rgba(147, 147, 139, 1.0)" />
	<rect x="110" y="70" width="10" height="10" fill="rgba(152, 152, 147, 1.0)" />
	<rect x="120" y="70" width="10" height="10" fill="rgba(157, 157, 151, 1.0)" />
	<rect x="130" y="70" width="10" height="10" fill="rgba(166, 166, 159, 1.0)" />
	<rect x="140" y="70" width="10" height="10" fill="rgba(162, 162, 155, 1.0)" />
	<rect x="150" y="70" width="10" height="10" fill="rgba(151, 151, 142, 1.0)" />
	<rect x="0" y="80" width="10" height="10" fill="rgba(154, 154, 148, 1.0)" />
	<rect x="10" y="80" width="10" height="10" fill="rgba(172, 172, 167, 1.0)" />
	<rect x="20" y="80" width="10" height="10" fill="rgba(158, 158, 152, 1.0)" />
	<rect x="30" y="80" width="10" height="10" fill="rgba(156, 156, 149, 1.0)" />
	<rect x="40" y="80" width="10" height="10" fill="rgba(165, 165, 158, 1.0)" />
	<rect x="50" y="80" width="10" height="10" fill="rgba(146, 146, 139, 1.0)" />
	<rect x="60" y="80" width="10" height="10" fill="rgba(169, 169, 165, 1.0)" />
	<rect x="70" y="80" width="10" height="10" fill="rgba(157, 157, 151, 1.0)" />
	<rect x="80" y="80" width="10" height="10" fill="rgba(156, 156, 151, 1.0)" />
	<rect x="90" y="80" width="10" height="10" fill="rgba(167, 167, 158, 1.0)" />
	<rect x="100" y="80" width="10" height="10" fill="rgba(137, 137, 128, 1.0)" />
	<rect x="110" y="80" width="10" height="10" fill="rgba(152, 152, 144, 1.0)" />
	<rect x="120" y="80" width="10" height="10" fill="rgba(147, 147, 139, 1.0)" />
	<rect x="130" y="80" width="10" height="10" fill="rgba(157, 157, 151, 1.0)" />
	<rect x="140" y="80" width="10" height="10" fill="rgba(167, 167, 163, 1.0)" />
	<rect x="150" y="80" width="10" height="10" fill="rgba(165, 165, 159, 1.0)" />
	<rect x="0" y="90" width="10" height="10" fill="rgba(142, 142, 136, 1.0)" />
	<rect x="10" y="90" width="10" height="10" fill="rgba(168, 168, 164, 1.0)" />
	<rect x="20" y="90" width="10" height="10" fill="rgba(175, 175, 168, 1.0)" />
	<rect x="30" y="90" width="10" height="10" fill="rgba(161, 161, 154, 1.0)" />
	<rect x="40" y="90" width="10" height="10" fill="rgba(157, 158, 152, 1.0)" />
	<rect x="50" y="90" width="10" height="10" fill="rgba(145, 145, 137, 1.0)" />
	<rect x="60" y="90" width="10" height="10" fill="rgba(144, 144, 137, 1.0)" />
	<rect x="70" y="90" width="10" height="10" fill="rgba(152, 152, 146, 1.0)" />
	<rect x="80" y="90" width="10" height="10" fill="rgba(156, 156, 149, 1.0)" />
	<rect x="90" y="90" width="10" height="10" fill="rgba(155, 155, 148, 1.0)" />
	<rect x="100" y="90" width="10" height="10" fill="rgba(153, 153, 146, 1.0)" />
	<rect x="110" y="90" width="10" height="10" fill="rgba(163, 163, 155, 1.0)" />
	<rect x="120" y="90" width="10" height="10" fill="rgba(156, 156, 151, 1.0)" />
	<rect x="130" y="90" width="10" height="10" fill="rgba(156, 156, 149, 1.0)" />
	<rect x="140" y="90" width="10" height="10" fill="rgba(157, 158, 152, 1.0)" />
	<rect x="150" y="90" width="10" height="10" fill="rgba(151, 151, 141, 1.0)" />
	<rect x="0" y="100" width="10" height="10" fill="rgba(153, 153, 146, 1.0)" />
	<rect x="10" y="100" width="10" height="10" fill="rgba(164, 164, 158, 1.0)" />
	<rect x="20" y="100" width="10" height="10" fill="rgba(128, 128, 121, 1.0)" />
	<rect x="30" y="100" width="10" height="10" fill="rgba(153, 153, 142, 1.0)" />
	<rect x="40" y="100" width="10" height="10" fill="rgba(140, 140, 133, 1.0)" />
	<rect x="50" y="100" width="10" height="10" fill="rgba(157, 157, 151, 1.0)" />
	<rect x="60" y="100" width="10" height="10" fill="rgba(158, 158, 153, 1.0)" />
	<rect x="70" y="100" width="10" height="10" fill="rgba(153, 153, 146, 1.0)" />
	<rect x="80" y="100" width="10" height="10" fill="rgba(154, 154, 146, 1.0)" />
	<rect x="90" y="100" width="10" height="10" fill="rgba(168, 168, 162, 1.0)" />
	<rect x="100" y="100" width="10" height="10" fill="rgba(149, 149, 140, 1.0)" />
	<rect x="110" y="100" width="10" height="10" fill="rgba(141, 141, 133, 1.0)" />
	<rect x="120" y="100" width="10" height="10" fill="rgba(167, 167, 162, 1.0)" />
	<rect x="130" y="100" width="10" height="10" fill="rgba(180, 180, 172, 1.0)" />
	<rect x="140" y="100" width="10" height="10" fill="rgba(155, 155, 149, 1.0)" />
	<rect x="150" y="100" width="10" height="10" fill="rgba(148, 148, 140, 1.0)" />
	<rect x="0" y="110" width="10" height="10" fill="rgba(144, 144, 137, 1.0)" />
	<rect x="10" y="110" width="10" height="10" fill="rgba(152, 152, 142, 1.0)" />
	<rect x="20" y="110" width="10" height="10" fill="rgba(165, 165, 161, 1.0)" />
	<rect x="30" y="110" width="10" height="10" fill="rgba(140, 140, 133, 1.0)" />
	<rect x="40" y="110" width="10" height="10" fill="rgba(165, 165, 161, 1.0)" />
	<rect x="50" y="110" width="10" height="10" fill="rgba(149, 149, 142, 1.0)" />
	<rect x="60" y="110" width="10" height="10" fill="rgba(149, 149, 141, 1.0)" />
	<rect x="70" y="110" width="10" height="10" fill="rgba(148, 148, 140, 1.0)" />
	<rect x="80" y="110" width="10" height="10" fill="rgba(157, 157, 151, 1.0)" />
	<rect x="90" y="110" width="10" height="10" fill="rgba(163, 163, 159, 1.0)" />
	<rect x="100" y="110" width="10" height="10" fill="rgba(159, 159, 153, 1.0)" />
	<rect x="110" y="110" width="10" height="10" fill="rgba(157, 157, 148, 1.0)" />
	<rect x="120" y="110" width="10" height="10" fill="rgba(157, 157, 152, 1.0)" />
	<rect x="130" y="110" width="10" height="10" fill="rgba(149, 149, 142, 1.0)" />
	<rect x="140" y="110" width="10" height="10" fill="rgba(145, 145, 138, 1.0)" />
	<rect x="150" y="110" width="10" height="10" fill="rgba(134, 134, 126, 1.0)" />
	<rect x="0" y="120" width="10" height="10" fill="rgba(164, 165, 157, 1.0)" />
	<rect x="10" y="120" width="10" height="10" fill="rgba(156, 156, 149, 1.0)" />
	<rect x="20" y="120" width="10" height="10" fill="rgba(146, 146, 139, 1.0)" />
	<rect x="30" y="120" width="10" height="10" fill="rgba(171, 171, 167, 1.0)" />
	<rect x="40" y="120" width="10" height="10" fill="rgba(154, 154, 147, 1.0)" />
	<rect x="50" y="120" width="10" height="10" fill="rgba(148, 148, 142, 1.0)" />
	<rect x="60" y="120" width="10" height="10" fill="rgba(159, 159, 154, 1.0)" />
	<rect x="70" y="120" width="10" height="10" fill="rgba(153, 153, 147, 1.0)" />
	<rect x="80" y="120" width="10" height="10" fill="rgba(151, 151, 145, 1.0)" />
	<rect x="90" y="120" width="10" height="10" fill="rgba(168, 168, 163, 1.0)" />
	<rect x="100" y="120" width="10" height="10" fill="rgba(161, 162, 156, 1.0)" />
	<rect x="110" y="120" width="10" height="10" fill="rgba(145, 145, 138, 1.0)" />
	<rect x="120" y="120" width="10" height="10" fill="rgba(153, 153, 145, 1.0)" />
	<rect x="130" y="120" width="10" height="10" fill="rgba(165, 165, 158, 1.0)" />
	<rect x="140" y="120" width="10" height="10" fill="rgba(154, 154, 148, 1.0)" />
	<rect x="150" y="120" width="10" height="10" fill="rgba(157, 157, 152, 1.0)" />
	<rect x="0" y="130" width="10" height="10" fill="rgba(158, 158, 152, 1.0)" />
	<rect x="10" y="130" width="10" height="10" fill="rgba(163, 163, 156, 1.0)" />
	<rect x="20" y="130" width="10" height="10" fill="rgba(145, 145, 137, 1.0)" />
	<rect x="30" y="130" width="10" height="10" fill="rgba(142, 142, 137, 1.0)" />
	<rect x="40" y="130" width="10" height="10" fill="rgba(142, 142, 134, 1.0)" />
	<rect x="50" y="130" width="10" height="10" fill="rgba(145, 145, 137, 1.0)" />
	<rect x="60" y="130" width="10" height="10" fill="rgba(157, 157, 151, 1.0)" />
	<rect x="70" y="130" width="10" height="10" fill="rgba(155, 155, 147, 1.0)" />
	<rect x="80" y="130" width="10" height="10" fill="rgba(159, 159, 154, 1.0)" />
	<rect x="90" y="130" width="10" height="10" fill="rgba(176, 176, 168, 1.0)" />
	<rect x="100" y="130" width="10" height="10" fill="rgba(157, 157, 151, 1.0)" />
	<rect x="110" y="130" width="10" height="10" fill="rgba(179, 179, 174, 1.0)" />
	<rect x="120" y="130" width="10" height="10" fill="rgba(158, 158, 152, 1.0)" />
	<rect x="130" y="130" width="10" height="10" fill="rgba(152, 152, 145, 1.0)" />
	<rect x="140" y="130" width="10" height="10" fill="rgba(154, 154, 146, 1.0)" />
	<rect x="150" y="130" width="10" height="10" fill="rgba(149, 149, 142, 1.0)" />
	<rect x="0" y="140" width="10" height="10" fill="rgba(171, 171, 167, 1.0)" />
	<rect x="10" y="140" width="10" height="10" fill="rgba(165, 165, 159, 1.0)" />
	<rect x="20" y="140" width="10" height="10" fill="rgba(191, 190, 182, 1.0)" />
	<rect x="30" y="140" width="10" height="10" fill="rgba(146, 146, 139, 1.0)" />
	<rect x="40" y="140" width="10" height="10" fill="rgba(146, 146, 138, 1.0)" />
	<rect x="50" y="140" width="10" height="10" fill="rgba(151, 152, 145, 1.0)" />
	<rect x="60" y="140" width="10" height="10" fill="rgba(159, 159, 153, 1.0)" />
	<rect x="70" y="140" width="10" height="10" fill="rgba(153, 153, 146, 1.0)" />
	<rect x="80" y="140" width="10" height="10" fill="rgba(154, 154, 148, 1.0)" />
	<rect x="90" y="140" width="10" height="10" fill="rgba(171, 171, 167, 1.0)" />
	<rect x="100" y="140" width="10" height="10" fill="rgba(140, 140, 133, 1.0)" />
	<rect x="110" y="140" width="10" height="10" fill="rgba(158, 158, 153, 1.0)" />
	<rect x="120" y="140" width="10" height="10" fill="rgba(159, 159, 154, 1.0)" />
	<rect x="130" y="140" width="10" height="10" fill="rgba(165, 165, 161, 1.0)" />
	<rect x="140" y="140" width="10" height="10" fill="rgba(142, 142, 136, 1.0)" />
	<rect x="150" y="140" width="10" height="10" fill="rgba(161, 162, 155, 1.0)" />
	<rect x="0" y="150" width="10" height="10" fill="rgba(157, 157, 153, 1.0)" />
	<rect x="10" y="150" width="10" height="10" fill="rgba(151, 151, 142, 1.0)" />
	<rect x="20" y="150" width="10" height="10" fill="rgba(147, 147, 139, 1.0)" />
	<rect x="30" y="150" width="10" height="10" fill="rgba(148, 148, 142, 1.0)" />
	<rect x="40" y="150" width="10" height="10" fill="rgba(176, 176, 168, 1.0)" />
	<rect x="50" y="150" width="10" height="10" fill="rgba(145, 145, 136, 1.0)" />
	<rect x="60" y="150" width="10" height="10" fill="rgba(140, 140, 133, 1.0)" />
	<rect x="70" y="150" width="10" height="10" fill="rgba(167, 167, 161, 1.0)" />
	<rect x="80" y="150" width="10" height="10" fill="rgba(152, 152, 144, 1.0)" />
	<rect x="90" y="150" width="10" height="10" fill="rgba(159, 159, 152, 1.0)" />
	<rect x="100" y="150" width="10" height="10" fill="rgba(142, 144, 134, 1.0)" />
	<rect x="110" y="150" width="10" height="10" fill="rgba(153, 153, 145, 1.0)" />
	<rect x="120" y="150" width="10" height="10" fill="rgba(153, 153, 146, 1.0)" />
	<rect x="130" y="150" width="10" height="10" fill="rgba(159, 159, 155, 1.0)" />
	<rect x="140" y="150" width="10" height="10" fill="rgba(154, 154, 147, 1.0)" />
	<rect x="150" y="150" width="10" height="10" fill="rgba(163, 163, 158, 1.0)" />
</svg>