<svg xmlns="http://www.w3.org/2000/svg" xmlns:xlink="http://www.w3.org/1999/xlink">
	<rect x="0" y="0" width="10" height="10" fill="rgba(77, 183, 209, 1.0)" />
	<rect x="10" y="0" width="10" height="10" fill="rgba(82, 192, 219, 1.0)" />
	<rect x="20" y="0" width="10" height="10" fill="rgba(78, 188, 217, 1.0)" />
	<rect x="30" y="0" width="10" height="10" fill="rgba(61, 162, 206, 1.0)" />
	<rect x="40" y="0" width="10" height="10" fill="rgba(85, 196, 222, 1.0)" />
	<rect x="50" y="0" width="10" height="10" fill="rgba(61, 163, 206, 1.0)" />
	<rect x="60" y="0" width="10" height="10" fill="rgba(80, 188, 213, 1.0)" />
	<rect x="70" y="0" width="10" height="10" fill="rgba(69, 174, 209, 1.0)" />
	<rect x="80" y="0" width="10" height="10" fill="rgba(99, 204, 227, 1.0)" />
	<rect x="90" y="0" width="10" height="10" fill="rgba(76, 183, 215, 1.0)" />
	<rect x="100" y="0" width="10" height="10" fill="rgba(86, 195, 218, 1.0)" />
	<rect x="110" y="0" width="10" height="10" fill="rgba(104, 206, 227, 1.0)" />
	<rect x="120" y="0" width="10" height="10" fill="rgba(66, 171, 210, 1.0)" />
	<rect x="130" y="0" width="10" height="10" fill="rgba(108, 217, 237, 1.0)" />
	<rect x="140" y="0" width="10" height="10" fill="rgba(76, 182, 208, 1.0)" />
	<rect x="150" y="0" width="10" height="10" fill="rgba(77, 185, 214, 1.0)" />
	<rect x="0" y="10" width="10" height="10" fill="rgba(67, 174, 211, 1.0)" />
	<rect x="10" y="10" width="10" height="10" fill="rgba(74, 182, 212, 1.0)" />
	<rect x="20" y="10" width="10" height="10" fill="rgba(72, 181, 214, 1.0)" />
	<rect x="30" y="10" width="10" height="10" fill="rgba(93, 202, 226, 1.0)" />
	<rect x="40" y="10" width="10" height="10" fill="rgba(65, 168, 201, 1.0)" />
	<rect x="50" y="10" width="10" height="10" fill="rgba(67, 172, 207, 1.0)" />
	<rect x="60" y="10" width="10" height="10" fill="rgba(73, 180, 209, 1.0)" />
	<rect x="70" y="10" width="10" height="10" fill="rgba(83, 191, 215, 1.0)" />
	<rect x="80" y="10" width="10" height="10" fill="rgba(78, 190, 221, 1.0)" />
	<rect x="90" y="10" width="10" height="10" fill="rgba(76, 185, 218, 1.0)" />
	<rect x="100" y="10" width="10" height="10" fill="rgba(72, 186, 226, 1.0)" />
	<rect x="110" y="10" width="10" height="10" fill="rgba(66, 171, 209, 1.0)" />
	<rect x="120" y="10" width="10" height="10" fill="rgba(73, 180, 214, 1.0)" />
	<rect x="130" y="10" width="10" height="10" fill="rgba(74, 182, 212, 1.0)" />
	<rect x="140" y="10" width="10" height="10" fill="rgba(91, 199, 222, 1.0)" />
	<rect x="150" y="10" width="10" height="10" fill="rgba(65, 171, 213, 1.0)" />
	<rect x="0" y="20" width="10" height="10" fill="rgba(67, 175, 212, 1.0)" />
	<rect x="10" y="20" width="10" height="10" fill="rgba(67, 176, 216, 1.0)" />
	<rect x="20" y="20" width="10" height="10" fill="rgba(73, 185, 223, 1.0)" />
	<rect x="30" y="20" width="10" height="10" fill="rgba(69, 174, 209, 1.0)" />
	<rect x="40" y="20" width="10" height="10" fill="rgba(78, 187, 214, 1.0)" />
	<rect x="50" y="20" width="10" height="10" fill="rgba(72, 180, 211, 1.0)" />
	<rect x="60" y="20" width="10" height="10" fill="rgba(73, 179, 212, 1.0)" />
	<rect x="70" y="20" width="10" height="10" fill="rgba(78, 188, 216, 1.0)" />
	<rect x="80" y="20" width="10" height="10" fill="rgba(76, 183, 214, 1.0)" />
	<rect x="90" y="20" width="10" height="10" fill="rgba(61, 165, 209, 1.0)" />
	<rect x="100" y="20" width="10" height="10" fill="rgba(90, 200, 224, 1.0)" />
	<rect x="110" y="20" width="10" height="10" fill="rgba(70, 180, 216, 1.0)" />
	<rect x="120" y="20" width="10" height="10" fill="rgba(67, 172, 210, 1.0)" />
	<rect x="130" y="20" width="10" height="10" fill="rgba(82, 189, 213, 1.0)" />
	<rect x="140" y="20" width="10" height="10" fill="rgba(66, 170, 206, 1.0)" />
	<rect x="150" y="20" width="10" height="10" fill="rgba(69, 180, 221, 1.0)" />
	<rect x="0" y="30" width="10" height="10" fill="rgba(63, 167, 204, 1.0)" />
	<rect x="10" y="30" width="10" height="10" fill="rgba(66, 169, 207, 1.0)" />
	<rect x="20" y="30" width="10" height="10" fill="rgba(74, 181, 212, 1.0)" />
	<rect x="30" y="30" width="10" height="10" fill="rgba(72, 179, 212, 1.0)" />
	<rect x="40" y="30" width="10" height="10" fill="rgba(67, 172, 207, 1.0)" />
	<rect x="50" y="30" width="10" height="10" fill="rgba(59, 163, 206, 1.0)" />
	<rect x="60" y="30" width="10" height="10" fill="rgba(80, 187, 213, 1.0)" />
	<rect x="70" y="30" width="10" height="10" fill="rgba(72, 178, 213, 1.0)" />
	<rect x="80" y="30" width="10" height="10" fill="rgba(70, 167, 196, 1.0)" />
	<rect x="90" y="30" width="10" height="10" fill="rgba(62, 165, 205, 1.0)" />
	<rect x="100" y="30" width="10" height="10" fill="rgba(55, 154, 203, 1.0)" />
	<rect x="110" y="30" width="10" height="10" fill="rgba(80, 189, 218, 1.0)" />
	<rect x="120" y="30" width="10" height="10" fill="rgba(63, 169, 212, 1.0)" />
	<rect x="130" y="30" width="10" height="10" fill="rgba(62, 167, 212, 1.0)" />
	<rect x="140" y="30" width="10" height="10" fill="rgba(78, 187, 216, 1.0)" />
	<rect x="150" y="30" width="10" height="10" fill="rgba(63, 164, 199, 1.0)" />
	<rect x="0" y="40" width="10" height="10" fill="rgba(58, 157, 207, 1.0)" />
	<rect x="10" y="40" width="10" height="10" fill="rgba(61, 162, 205, 1.0)" />
	<rect x="20" y="40" width="10" height="10" fill="rgba(72, 181, 217, 1.0)" />
	<rect x="30" y="40" width="10" height="10" fill="rgba(59, 159, 204, 1.0)" />
	<rect x="40" y="40" width="10" height="10" fill="rgba(81, 193, 221, 1.0)" />
	<rect x="50" y="40" width="10" height="10" fill="rgba(77, 189, 220, 1.0)" />
	<rect x="60" y="40" width="10" height="10" fill="rgba(82, 193, 220, 1.0)" />
	<rect x="70" y="40" width="10" height="10" fill="rgba(63, 170, 212, 1.0)" />
	<rect x="80" y="40" width="10" height="10" fill="rgba(76, 184, 212, 1.0)" />
	<rect x="90" y="40" width="10" height="10" fill="rgba(69, 174, 206, 1.0)" />
	<rect x="100" y="40" width="10" height="10" fill="rgba(74, 181, 211, 1.0)" />
	<rect x="110" y="40" width="10" height="10" fill="rgba(74, 183, 217, 1.0)" />
	<rect x="120" y="40" width="10" height="10" fill="rgba(78, 188, 215, 1.0)" />
	<rect x="130" y="40" width="10" height="10" fill="rgba(67, 171, 203, 1.0)" />
	<rect x="140" y="40" width="10" height="10" fill="rgba(69, 177, 218, 1.0)" />
	<rect x="150" y="40" width="10" height="10" fill="rgba(74, 180, 208, 1.0)" />
	<rect x="0" y="50" width="10" height="10" fill="rgba(57, 156, 199, 1.0)" />
	<rect x="10" y="50" width="10" height="10" fill="rgba(73, 180, 213, 1.0)" />
	<rect x="20" y="50" width="10" height="10" fill="rgba(99, 199, 220, 1.0)" />
	<rect x="30" y="50" width="10" height="10" fill="rgba(108, 221, 242, 1.0)" />
	<rect x="40" y="50" width="10" height="10" fill="rgba(67, 172, 207, 1.0)" />
	<rect x="50" y="50" width="10" height="10" fill="rgba(69, 177, 216, 1.0)" />
	<rect x="60" y="50" width="10" height="10" fill="rgba(62, 165, 208, 1.0)" />
	<rect x="70" y="50" width="10" height="10" fill="rgba(74, 182, 215, 1.0)" />
	<rect x="80" y="50" width="10" height="10" fill="rgba(70, 176, 210, 1.0)" />
	<rect x="90" y="50" width="10" height="10" fill="rgba(80, 192, 223, 1.0)" />
	<rect x="100" y="50" width="10" height="10" fill="rgba(90, 197, 221, 1.0)" />
	<rect x="110" y="50" width="10" height="10" fill="rgba(73, 177, 206, 1.0)" />
	<rect x="120" y="50" width="10" height="10" fill="rgba(69, 175, 207, 1.0)" />
	<rect x="130" y="50" width="10" height="10" fill="rgba(96, 198, 220, 1.0)" />
	<rect x="140" y="50" width="10" height="10" fill="rgba(96, 200, 223, 1.0)" />
	<rect x="150" y="50" width="10" height="10" fill="rgba(62, 164, 199, 1.0)" />
	<rect x="0" y="60" width="10" height="10" fill="rgba(82, 183, 207, 1.0)" />
	<rect x="10" y="60" width="10" height="10" fill="rgba(82, 193, 219, 1.0)" />
	<rect x="20" y="60" width="10" height="10" fill="rgba(72, 177, 207, 1.0)" />
	<rect x="30" y="60" width="10" height="10" fill="rgba(91, 199, 222, 1.0)" />
	<rect x="40" y="60" width="10" height="10" fill="rgba(83, 184, 208, 1.0)" />
	<rect x="50" y="60" width="10" height="10" fill="rgba(83, 193, 219, 1.0)" />
	<rect x="60" y="60" width="10" height="10" fill="rgba(57, 156, 203, 1.0)" />
	<rect x="70" y="60" width="10" height="10" fill="rgba(93, 196, 219, 1.0)" />
	<rect x="80" y="60" width="10" height="10" fill="rgba(76, 183, 212, 1.0)" />
	<rect x="90" y="60" width="10" height="10" fill="rgba(61, 162, 205, 1.0)" />
	<rect x="100" y="60" width="10" height="10" fill="rgba(78, 189, 220, 1.0)" />
	<rect x="110" y="60" width="10" height="10" fill="rgba(67, 180, 223, 1.0)" />
	<rect x="120" y="60" width="10" height="10" fill="rgba(89, 196, 220, 1.0)" />
	<rect x="130" y="60" width="10" height="10" fill="rgba(82, 194, 221, 1.0)" />
	<rect x="140" y="60" width="10" height="10" fill="rgba(69, 175, 212, 1.0)" />
	<rect x="150" y="60" width="10" height="10" fill="rgba(74, 182, 213, 1.0)" />
	<rect x="0" y="70" width="10" height="10" fill="rgba(94, 200, 222, 1.0)" />
	<rect x="10" y="70" width="10" height="10" fill="rgba(93, 197, 220, 1.0)" />
	<rect x="20" y="70" width="10" height="10" fill="rgba(80, 192, 220, 1.0)" />
	<rect x="30" y="70" width="10" height="10" fill="rgba(86, 195, 219, 1.0)" />
	<rect x="40" y="70" width="10" height="10" fill="rgba(66, 170, 209, 1.0)" />
	<rect x="50" y="70" width="10" height="10" fill="rgba(86, 192, 216, 1.0)" />
	<rect x="60" y="70" width="10" height="10" fill="rgba(70, 179, 214, 1.0)" />
	<rect x="70" y="70" width="10" height="10" fill="rgba(89, 205, 230, 1.0)" />
	<rect x="80" y="70" width="10" height="10" fill="rgba(74, 181, 214, 1.0)" />
	<rect x="90" y="70" width="10" height="10" fill="rgba(100, 201, 223, 1.0)" />
	<rect x="100" y="70" width="10" height="10" fill="rgba(77, 185, 213, 1.0)" />
	<rect x="110" y="70" width="10" height="10" fill="rgba(72, 179, 210, 1.0)" />
	<rect x="120" y="70" width="10" height="10" fill="rgba(74, 181, 214, 1.0)" />
	<rect x="130" y="70" width="10" height="10" fill="rgba(63, 169, 211, 1.0)" />
	<rect x="140" y="70" width="10" height="10" fill="rgba(78, 193, 225, 1.0)" />
	<rect x="150" y="70" width="10" height="10" fill="rgba(63, 169, 212, 1.0)" />
	<rect x="0" y="80" width="10" height="10" fill="rgba(59, 161, 207, 1.0)" />
	<rect x="10" y="80" width="10" height="10" fill="rgba(87, 198, 222, 1.0)" />
	<rect x="20" y="80" width="10" height="10" fill="rgba(72, 182, 219, 1.0)" />
	<rect x="30" y="80" width="10" height="10" fill="rgba(81, 192, 220, 1.0)" />
	<rect x="40" y="80" width="10" height="10" fill="rgba(81, 191, 219, 1.0)" />
	<rect x="50" y="80" width="10" height="10" fill="rgba(72, 179, 210, 1.0)" />
	<rect x="60" y="80" width="10" height="10" fill="rgba(90, 201, 226, 1.0)" />
	<rect x="70" y="80" width="10" height="10" fill="rgba(95, 201, 224, 1.0)" />
	<rect x="80" y="80" width="10" height="10" fill="rgba(63, 166, 206, 1.0)" />
	<rect x="90" y="80" width="10" height="10" fill="rgba(80, 196, 228, 1.0)" />
	<rect x="100" y="80" width="10" height="10" fill="rgba(80, 183, 208, 1.0)" />
	<rect x="110" y="80" width="10" height="10" fill="rgba(61, 163, 206, 1.0)" />
	<rect x="120" y="80" width="10" height="10" fill="rgba(63, 165, 206, 1.0)" />
	<rect x="130" y="80" width="10" height="10" fill="rgba(65, 169, 209, 1.0)" />
	<rect x="140" y="80" width="10" height="10" fill="rgba(66, 171, 210, 1.0)" />
	<rect x="150" y="80" width="10" height="10" fill="rgba(82, 192, 217, 1.0)" />
	<rect x="0" y="90" width="10" height="10" fill="rgba(63, 164, 199, 1.0)" />
	<rect x="10" y="90" width="10" height="10" fill="rgba(74, 180, 212, 1.0)" />
	<rect x="20" y="90" width="10" height="10" fill="rgba(77, 186, 217, 1.0)" />
	<rect x="30" y="90" width="10" height="10" fill="rgba(69, 175, 210, 1.0)" />
	<rect x="40" y="90" width="10" height="10" fill="rgba(93, 198, 220, 1.0)" />
	<rect x="50" y="90" width="10" height="10" fill="rgba(82, 192, 218, 1.0)" />
	<rect x="60" y="90" width="10" height="10" fill="rgba(86, 192, 216, 1.0)" />
	<rect x="70" y="90" width="10" height="10" fill="rgba(63, 165, 205, 1.0)" />
	<rect x="80" y="90" width="10" height="10" fill="rgba(70, 176, 211, 1.0)" />
	<rect x="90" y="90" width="10" height="10" fill="rgba(73, 180, 212, 1.0)" />
	<rect x="100" y="90" width="10" height="10" fill="rgba(62, 166, 207, 1.0)" />
	<rect x="110" y="90" width="10" height="10" fill="rgba(63, 169, 214, 1.0)" />
	<rect x="120" y="90" width="10" height="10" fill="rgba(73, 180, 212, 1.0)" />
	<rect x="130" y="90" width="10" height="10" fill="rgba(73, 183, 215, 1.0)" />
	<rect x="140" y="90" width="10" height="10" fill="rgba(91, 197, 220, 1.0)" />
	<rect x="150" y="90" width="10" height="10" fill="rgba(62, 166, 212, 1.0)" />
	<rect x="0" y="100" width="10" height="10" fill="rgba(65, 169, 210, 1.0)" />
	<rect x="10" y="100" width="10" height="10" fill="rgba(70, 179, 213, 1.0)" />
	<rect x="20" y="100" width="10" height="10" fill="rgba(59, 153, 188, 1.0)" />
	<rect x="30" y="100" width="10" height="10" fill="rgba(76, 186, 218, 1.0)" />
	<rect x="40" y="100" width="10" height="10" fill="rgba(61, 162, 199, 1.0)" />
	<rect x="50" y="100" width="10" height="10" fill="rgba(66, 175, 216, 1.0)" />
	<rect x="60" y="100" width="10" height="10" fill="rgba(74, 182, 212, 1.0)" />
	<rect x="70" y="100" width="10" height="10" fill="rgba(59, 162, 206, 1.0)" />
	<rect x="80" y="100" width="10" height="10" fill="rgba(80, 194, 223, 1.0)" />
	<rect x="90" y="100" width="10" height="10" fill="rgba(65, 172, 216, 1.0)" />
	<rect x="100" y="100" width="10" height="10" fill="rgba(74, 184, 217, 1.0)" />
	<rect x="110" y="100" width="10" height="10" fill="rgba(66, 171, 207, 1.0)" />
	<rect x="120" y="100" width="10" height="10" fill="rgba(89, 196, 220, 1.0)" />
	<rect x="130" y="100" width="10" height="10" fill="rgba(93, 212, 236, 1.0)" />
	<rect x="140" y="100" width="10" height="10" fill="rgba(72, 179, 211, 1.0)" />
	<rect x="150" y="100" width="10" height="10" fill="rgba(62, 164, 206, 1.0)" />
	<rect x="0" y="110" width="10" height="10" fill="rgba(100, 199, 221, 1.0)" />
	<rect x="10" y="110" width="10" height="10" fill="rgba(86, 196, 222, 1.0)" />
	<rect x="20" y="110" width="10" height="10" fill="rgba(62, 166, 211, 1.0)" />
	<rect x="30" y="110" width="10" height="10" fill="rgba(57, 154, 198, 1.0)" />
	<rect x="40" y="110" width="10" height="10" fill="rgba(70, 176, 212, 1.0)" />
	<rect x="50" y="110" width="10" height="10" fill="rgba(65, 167, 206, 1.0)" />
	<rect x="60" y="110" width="10" height="10" fill="rgba(86, 195, 219, 1.0)" />
	<rect x="70" y="110" width="10" height="10" fill="rgba(91, 197, 220, 1.0)" />
	<rect x="80" y="110" width="10" height="10" fill="rgba(65, 168, 208, 1.0)" />
	<rect x="90" y="110" width="10" height="10" fill="rgba(70, 177, 212, 1.0)" />
	<rect x="100" y="110" width="10" height="10" fill="rgba(76, 184, 213, 1.0)" />
	<rect x="110" y="110" width="10" height="10" fill="rgba(78, 194, 227, 1.0)" />
	<rect x="120" y="110" width="10" height="10" fill="rgba(72, 179, 210, 1.0)" />
	<rect x="130" y="110" width="10" height="10" fill="rgba(77, 185, 212, 1.0)" />
	<rect x="140" y="110" width="10" height="10" fill="rgba(73, 179, 210, 1.0)" />
	<rect x="150" y="110" width="10" height="10" fill="rgba(74, 176, 203, 1.0)" />
	<rect x="0" y="120" width="10" height="10" fill="rgba(85, 198, 225, 1.0)" />
	<rect x="10" y="120" width="10" height="10" fill="rgba(59, 162, 206, 1.0)" />
	<rect x="20" y="120" width="10" height="10" fill="rgba(83, 191, 215, 1.0)" />
	<rect x="30" y="120" width="10" height="10" fill="rgba(77, 189, 221, 1.0)" />
	<rect x="40" y="120" width="10" height="10" fill="rgba(73, 180, 213, 1.0)" />
	<rect x="50" y="120" width="10" height="10" fill="rgba(63, 168, 206, 1.0)" />
	<rect x="60" y="120" width="10" height="10" fill="rgba(87, 197, 222, 1.0)" />
	<rect x="70" y="120" width="10" height="10" fill="rgba(66, 166, 199, 1.0)" />
	<rect x="80" y="120" width="10" height="10" fill="rgba(57, 155, 198, 1.0)" />
	<rect x="90" y="120" width="10" height="10" fill="rgba(93, 199, 223, 1.0)" />
	<rect x="100" y="120" width="10" height="10" fill="rgba(81, 190, 216, 1.0)" />
	<rect x="110" y="120" width="10" height="10" fill="rgba(89, 195, 216, 1.0)" />
	<rect x="120" y="120" width="10" height="10" fill="rgba(69, 177, 213, 1.0)" />
	<rect x="130" y="120" width="10" height="10" fill="rgba(81, 193, 220, 1.0)" />
	<rect x="140" y="120" width="10" height="10" fill="rgba(76, 183, 211, 1.0)" />
	<rect x="150" y="120" width="10" height="10" fill="rgba(63, 166, 206, 1.0)" />
	<rect x="0" y="130" width="10" height="10" fill="rgba(80, 188, 216, 1.0)" />
	<rect x="10" y="130" width="10" height="10" fill="rgba(63, 169, 212, 1.0)" />
	<rect x="20" y="130" width="10" height="10" fill="rgba(94, 196, 219, 1.0)" />
	<rect x="30" y="130" width="10" height="10" fill="rgba(65, 163, 195, 1.0)" />
	<rect x="40" y="130" width="10" height="10" fill="rgba(86, 192, 216, 1.0)" />
	<rect x="50" y="130" width="10" height="10" fill="rgba(59, 162, 203, 1.0)" />
	<rect x="60" y="130" width="10" height="10" fill="rgba(89, 196, 218, 1.0)" />
	<rect x="70" y="130" width="10" height="10" fill="rgba(63, 172, 217, 1.0)" />
	<rect x="80" y="130" width="10" height="10" fill="rgba(104, 206, 228, 1.0)" />
	<rect x="90" y="130" width="10" height="10" fill="rgba(76, 187, 223, 1.0)" />
	<rect x="100" y="130" width="10" height="10" fill="rgba(69, 178, 216, 1.0)" />
	<rect x="110" y="130" width="10" height="10" fill="rgba(78, 187, 216, 1.0)" />
	<rect x="120" y="130" width="10" height="10" fill="rgba(62, 167, 210, 1.0)" />
	<rect x="130" y="130" width="10" height="10" fill="rgba(90, 196, 219, 1.0)" />
	<rect x="140" y="130" width="10" height="10" fill="rgba(80, 191, 220, 1.0)" />
	<rect x="150" y="130" width="10" height="10" fill="rgba(74, 182, 212, 1.0)" />
	<rect x="0" y="140" width="10" height="10" fill="rgba(66, 174, 212, 1.0)" />
	<rect x="10" y="140" width="10" height="10" fill="rgba(62, 164, 206, 1.0)" />
	<rect x="20" y="140" width="10" height="10" fill="rgba(72, 180, 211, 1.0)" />
	<rect x="30" y="140" width="10" height="10" fill="rgba(57, 155, 199, 1.0)" />
	<rect x="40" y="140" width="10" height="10" fill="rgba(76, 184, 215, 1.0)" />
	<rect x="50" y="140" width="10" height="10" fill="rgba(59, 161, 204, 1.0)" />
	<rect x="60" y="140" width="10" height="10" fill="rgba(73, 179, 212, 1.0)" />
	<rect x="70" y="140" width="10" height="10" fill="rgba(69, 176, 212, 1.0)" />
	<rect x="80" y="140" width="10" height="10" fill="rgba(87, 191, 214, 1.0)" />
	<rect x="90" y="140" width="10" height="10" fill="rgba(83, 193, 219, 1.0)" />
	<rect x="100" y="140" width="10" height="10" fill="rgba(72, 172, 201, 1.0)" />
	<rect x="110" y="140" width="10" height="10" fill="rgba(63, 165, 206, 1.0)" />
	<rect x="120" y="140" width="10" height="10" fill="rgba(78, 190, 220, 1.0)" />
	<rect x="130" y="140" width="10" height="10" fill="rgba(74, 180, 209, 1.0)" />
	<rect x="140" y="140" width="10" height="10" fill="rgba(74, 181, 210, 1.0)" />
	<rect x="150" y="140" width="10" height="10" fill="rgba(89, 199, 223, 1.0)" />
	<rect x="0" y="150" width="10" height="10" fill="rgba(69, 174, 209, 1.0)" />
	<rect x="10" y="150" width="10" height="10" fill="rgba(57, 157, 207, 1.0)" />
	<rect x="20" y="150" width="10" height="10" fill="rgba(80, 189, 215, 1.0)" />
	<rect x="30" y="150" width="10" height="10" fill="rgba(66, 169, 202, 1.0)" />
	<rect x="40" y="150" width="10" height="10" fill="rgba(87, 205, 232, 1.0)" />
	<rect x="50" y="150" width="10" height="10" fill="rgba(76, 183, 215, 1.0)" />
	<rect x="60" y="150" width="10" height="10" fill="rgba(69, 171, 204, 1.0)" />
	<rect x="70" y="150" width="10" height="10" fill="rgba(74, 185, 220, 1.0)" />
	<rect x="80" y="150" width="10" height="10" fill="rgba(78, 187, 215, 1.0)" />
	<rect x="90" y="150" width="10" height="10" fill="rgba(61, 168, 215, 1.0)" />
	<rect x="100" y="150" width="10" height="10" fill="rgba(63, 167, 205, 1.0)" />
	<rect x="110" y="150" width="10" height="10" fill="rgba(73, 180, 213, 1.0)" />
	<rect x="120" y="150" width="10" height="10" fill="rgba(63, 168, 209, 1.0)" />
	<rect x="130" y="150" width="10" height="10" fill="rgba(69, 175, 210, 1.0)" />
	<rect x="140" y="150" width="10" height="10" fill="rgba(80, 189, 215, 1.0)" />
	<rect x="150" y="150" width="10" height="10" fill="rgba(58, 157, 198, 1.0)" />
</svg>