<svg xmlns="http://www.w3.org/2000/svg" xmlns:xlink="http://www.w3.org/1999/xlink">
	<rect x="0" y="0" width="10" height="10" fill="rgba(44, 155, 207, 1.0)" />
	<rect x="10" y="0" width="10" height="10" fill="rgba(49, 165, 211, 1.0)" />
	<rect x="20" y="0" width="10" height="10" fill="rgba(42, 150, 205, 1.0)" />
	<rect x="30" y="0" width="10" height="10" fill="rgba(44, 154, 206, 1.0)" />
	<rect x="40" y="0" width="10" height="10" fill="rgba(56, 176, 217, 1.0)" />
	<rect x="50" y="0" width="10" height="10" fill="rgba(68, 190, 225, 1.0)" />
	<rect x="60" y="0" width="10" height="10" fill="rgba(46, 158, 208, 1.0)" />
	<rect x="70" y="0" width="10" height="10" fill="rgba(47, 161, 210, 1.0)" />
	<rect x="80" y="0" width="10" height="10" fill="rgba(63, 185, 222, 1.0)" />
	<rect x="90" y="0" width="10" height="10" fill="rgba(66, 188, 223, 1.0)" />
	<rect x="100" y="0" width="10" height="10" fill="rgba(38, 142, 201, 1.0)" />
	<rect x="110" y="0" width="10" height="10" fill="rgba(43, 152, 205, 1.0)" />
	<rect x="120" y="0" width="10" height="10" fill="rgba(58, 179, 218, 1.0)" />
	<rect x="130" y="0" width="10" height="10" fill="rgba(58, 179, 218, 1.0)" />
	<rect x="140" y="0" width="10" height="10" fill="rgba(43, 152, 205, 1.0)" />
	<rect x="150" y="0" width="10" height="10" fill="rgba(39, 145, 203, 1.0)" />
	<rect x="0" y="10" width="10" height="10" fill="rgba(57, 177, 217, 1.0)" />
	<rect x="10" y="10" width="10" height="10" fill="rgba(62, 184, 221, 1.0)" />
	<rect x="20" y="10" width="10" height="10" fill="rgba(78, 197, 231, 1.0)" />
	<rect x="30" y="10" width="10" height="10" fill="rgba(78, 197, 231, 1.0)" />
	<rect x="40" y="10" width="10" height="10" fill="rgba(71, 192, 227, 1.0)" />
	<rect x="50" y="10" width="10" height="10" fill="rgba(66, 188, 223, 1.0)" />
	<rect x="60" y="10" width="10" height="10" fill="rgba(53, 171, 214, 1.0)" />
	<rect x="70" y="10" width="10" height="10" fill="rgba(52, 169, 213, 1.0)" />
	<rect x="80" y="10" width="10" height="10" fill="rgba(44, 154, 206, 1.0)" />
	<rect x="90" y="10" width="10" height="10" fill="rgba(39, 145, 203, 1.0)" />
	<rect x="100" y="10" width="10" height="10" fill="rgba(47, 161, 210, 1.0)" />
	<rect x="110" y="10" width="10" height="10" fill="rgba(52, 169, 213, 1.0)" />
	<rect x="120" y="10" width="10" height="10" fill="rgba(35, 138, 199, 1.0)" />
	<rect x="130" y="10" width="10" height="10" fill="rgba(40, 147, 203, 1.0)" />
	<rect x="140" y="10" width="10" height="10" fill="rgba(49, 165, 211, 1.0)" />
	<rect x="150" y="10" width="10" height="10" fill="rgba(54, 173, 215, 1.0)" />
	<rect x="0" y="20" width="10" height="10" fill="rgba(71, 192, 227, 1.0)" />
	<rect x="10" y="20" width="10" height="10" fill="rgba(73, 194, 228, 1.0)" />
	<rect x="20" y="20" width="10" height="10" fill="rgba(52, 169, 213, 1.0)" />
	<rect x="30" y="20" width="10" height="10" fill="rgba(55, 174, 215, 1.0)" />
	<rect x="40" y="20" width="10" height="10" fill="rgba(76, 196, 230, 1.0)" />
	<rect x="50" y="20" width="10" height="10" fill="rgba(73, 194, 228, 1.0)" />
	<rect x="60" y="20" width="10" height="10" fill="rgba(59, 181, 219, 1.0)" />
	<rect x="70" y="20" width="10" height="10" fill="rgba(52, 169, 213, 1.0)" />
	<rect x="80" y="20" width="10" height="10" fill="rgba(66, 188, 223, 1.0)" />
	<rect x="90" y="20" width="10" height="10" fill="rgba(73, 194, 228, 1.0)" />
	<rect x="100" y="20" width="10" height="10" fill="rgba(65, 187, 223, 1.0)" />
	<rect x="110" y="20" width="10" height="10" fill="rgba(65, 187, 223, 1.0)" />
	<rect x="120" y="20" width="10" height="10" fill="rgba(77, 196, 231, 1.0)" />
	<rect x="130" y="20" width="10" height="10" fill="rgba(78, 197, 231, 1.0)" />
	<rect x="140" y="20" width="10" height="10" fill="rgba(66, 188, 223, 1.0)" />
	<rect x="150" y="20" width="10" height="10" fill="rgba(62, 184, 221, 1.0)" />
	<rect x="0" y="30" width="10" height="10" fill="rgba(57, 177, 217, 1.0)" />
	<rect x="10" y="30" width="10" height="10" fill="rgba(49, 165, 211, 1.0)" />
	<rect x="20" y="30" width="10" height="10" fill="rgba(67, 189, 225, 1.0)" />
	<rect x="30" y="30" width="10" height="10" fill="rgba(73, 194, 228, 1.0)" />
	<rect x="40" y="30" width="10" height="10" fill="rgba(52, 169, 213, 1.0)" />
	<rect x="50" y="30" width="10" height="10" fill="rgba(50, 166, 212, 1.0)" />
	<rect x="60" y="30" width="10" height="10" fill="rgba(56, 176, 217, 1.0)" />
	<rect x="70" y="30" width="10" height="10" fill="rgba(73, 194, 228, 1.0)" />
	<rect x="80" y="30" width="10" height="10" fill="rgba(46, 158, 208, 1.0)" />
	<rect x="90" y="30" width="10" height="10" fill="rgba(53, 171, 214, 1.0)" />
	<rect x="100" y="30" width="10" height="10" fill="rgba(73, 194, 228, 1.0)" />
	<rect x="110" y="30" width="10" height="10" fill="rgba(73, 194, 228, 1.0)" />
	<rect x="120" y="30" width="10" height="10" fill="rgba(57, 177, 217, 1.0)" />
	<rect x="130" y="30" width="10" height="10" fill="rgba(49, 165, 211, 1.0)" />
	<rect x="140" y="30" width="10" height="10" fill="rgba(78, 197, 231, 1.0)" />
	<rect x="150" y="30" width="10" height="10" fill="rgba(72, 193, 228, 1.0)" />
	<rect x="0" y="40" width="10" height="10" fill="rgba(62, 184, 221, 1.0)" />
	<rect x="10" y="40" width="10" height="10" fill="rgba(54, 173, 215, 1.0)" />
	<rect x="20" y="40" width="10" height="10" fill="rgba(46, 158, 208, 1.0)" />
	<rect x="30" y="40" width="10" height="10" fill="rgba(57, 177, 217, 1.0)" />
	<rect x="40" y="40" width="10" height="10" fill="rgba(68, 190, 225, 1.0)" />
	<rect x="50" y="40" width="10" height="10" fill="rgba(67, 189, 225, 1.0)" />
	<rect x="60" y="40" width="10" height="10" fill="rgba(38, 142, 201, 1.0)" />
	<rect x="70" y="40" width="10" height="10" fill="rgba(36, 139, 200, 1.0)" />
	<rect x="80" y="40" width="10" height="10" fill="rgba(48, 162, 210, 1.0)" />
	<rect x="90" y="40" width="10" height="10" fill="rgba(58, 179, 218, 1.0)" />
	<rect x="100" y="40" width="10" height="10" fill="rgba(47, 161, 210, 1.0)" />
	<rect x="110" y="40" width="10" height="10" fill="rgba(41, 148, 204, 1.0)" />
	<rect x="120" y="40" width="10" height="10" fill="rgba(68, 190, 225, 1.0)" />
	<rect x="130" y="40" width="10" height="10" fill="rgba(68, 190, 225, 1.0)" />
	<rect x="140" y="40" width="10" height="10" fill="rgba(43, 152, 205, 1.0)" />
	<rect x="150" y="40" width="10" height="10" fill="rgba(38, 142, 201, 1.0)" />
	<rect x="0" y="50" width="10" height="10" fill="rgba(40, 147, 203, 1.0)" />
	<rect x="10" y="50" width="10" height="10" fill="rgba(37, 141, 201, 1.0)" />
	<rect x="20" y="50" width="10" height="10" fill="rgba(46, 159, 208, 1.0)" />
	<rect x="30" y="50" width="10" height="10" fill="rgba(73, 194, 228, 1.0)" />
	<rect x="40" y="50" width="10" height="10" fill="rgba(46, 158, 208, 1.0)" />
	<rect x="50" y="50" width="10" height="10" fill="rgba(36, 139, 200, 1.0)" />
	<rect x="60" y="50" width="10" height="10" fill="rgba(44, 155, 207, 1.0)" />
	<rect x="70" y="50" width="10" height="10" fill="rgba(49, 165, 211, 1.0)" />
	<rect x="80" y="50" width="10" height="10" fill="rgba(46, 158, 208, 1.0)" />
	<rect x="90" y="50" width="10" height="10" fill="rgba(36, 139, 200, 1.0)" />
	<rect x="100" y="50" width="10" height="10" fill="rgba(49, 165, 211, 1.0)" />
	<rect x="110" y="50" width="10" height="10" fill="rgba(52, 169, 213, 1.0)" />
	<rect x="120" y="50" width="10" height="10" fill="rgba(39, 145, 202, 1.0)" />
	<rect x="130" y="50" width="10" height="10" fill="rgba(47, 161, 210, 1.0)" />
	<rect x="140" y="50" width="10" height="10" fill="rgba(44, 154, 206, 1.0)" />
	<rect x="150" y="50" width="10" height="10" fill="rgba(51, 167, 212, 1.0)" />
	<rect x="0" y="60" width="10" height="10" fill="rgba(78, 197, 231, 1.0)" />
	<rect x="10" y="60" width="10" height="10" fill="rgba(78, 197, 231, 1.0)" />
	<rect x="20" y="60" width="10" height="10" fill="rgba(70, 191, 226, 1.0)" />
	<rect x="30" y="60" width="10" height="10" fill="rgba(67, 189, 225, 1.0)" />
	<rect x="40" y="60" width="10" height="10" fill="rgba(56, 176, 217, 1.0)" />
	<rect x="50" y="60" width="10" height="10" fill="rgba(56, 176, 217, 1.0)" />
	<rect x="60" y="60" width="10" height="10" fill="rgba(54, 173, 215, 1.0)" />
	<rect x="70" y="60" width="10" height="10" fill="rgba(58, 179, 218, 1.0)" />
	<rect x="80" y="60" width="10" height="10" fill="rgba(71, 192, 227, 1.0)" />
	<rect x="90" y="60" width="10" height="10" fill="rgba(78, 197, 231, 1.0)" />
	<rect x="100" y="60" width="10" height="10" fill="rgba(63, 185, 222, 1.0)" />
	<rect x="110" y="60" width="10" height="10" fill="rgba(53, 171, 214, 1.0)" />
	<rect x="120" y="60" width="10" height="10" fill="rgba(78, 197, 231, 1.0)" />
	<rect x="130" y="60" width="10" height="10" fill="rgba(78, 197, 231, 1.0)" />
	<rect x="140" y="60" width="10" height="10" fill="rgba(66, 188, 223, 1.0)" />
	<rect x="150" y="60" width="10" height="10" fill="rgba(59, 181, 219, 1.0)" />
	<rect x="0" y="70" width="10" height="10" fill="rgba(49, 165, 211, 1.0)" />
	<rect x="10" y="70" width="10" height="10" fill="rgba(49, 165, 211, 1.0)" />
	<rect x="20" y="70" width="10" height="10" fill="rgba(78, 197, 231, 1.0)" />
	<rect x="30" y="70" width="10" height="10" fill="rgba(78, 197, 231, 1.0)" />
	<rect x="40" y="70" width="10" height="10" fill="rgba(66, 188, 223, 1.0)" />
	<rect x="50" y="70" width="10" height="10" fill="rgba(63, 185, 222, 1.0)" />
	<rect x="60" y="70" width="10" height="10" fill="rgba(73, 194, 228, 1.0)" />
	<rect x="70" y="70" width="10" height="10" fill="rgba(72, 193, 228, 1.0)" />
	<rect x="80" y="70" width="10" height="10" fill="rgba(44, 154, 206, 1.0)" />
	<rect x="90" y="70" width="10" height="10" fill="rgba(47, 161, 210, 1.0)" />
	<rect x="100" y="70" width="10" height="10" fill="rgba(67, 189, 225, 1.0)" />
	<rect x="110" y="70" width="10" height="10" fill="rgba(73, 194, 228, 1.0)" />
	<rect x="120" y="70" width="10" height="10" fill="rgba(63, 185, 222, 1.0)" />
	<rect x="130" y="70" width="10" height="10" fill="rgba(62, 184, 221, 1.0)" />
	<rect x="140" y="70" width="10" height="10" fill="rgba(74, 194, 229, 1.0)" />
	<rect x="150" y="70" width="10" height="10" fill="rgba(72, 193, 228, 1.0)" />
	<rect x="0" y="80" width="10" height="10" fill="rgba(66, 188, 223, 1.0)" />
	<rect x="10" y="80" width="10" height="10" fill="rgba(65, 187, 223, 1.0)" />
	<rect x="20" y="80" width="10" height="10" fill="rgba(40, 147, 203, 1.0)" />
	<rect x="30" y="80" width="10" height="10" fill="rgba(48, 162, 210, 1.0)" />
	<rect x="40" y="80" width="10" height="10" fill="rgba(72, 193, 228, 1.0)" />
	<rect x="50" y="80" width="10" height="10" fill="rgba(63, 185, 222, 1.0)" />
	<rect x="60" y="80" width="10" height="10" fill="rgba(46, 158, 208, 1.0)" />
	<rect x="70" y="80" width="10" height="10" fill="rgba(50, 166, 212, 1.0)" />
	<rect x="80" y="80" width="10" height="10" fill="rgba(48, 162, 210, 1.0)" />
	<rect x="90" y="80" width="10" height="10" fill="rgba(52, 169, 213, 1.0)" />
	<rect x="100" y="80" width="10" height="10" fill="rgba(47, 161, 210, 1.0)" />
	<rect x="110" y="80" width="10" height="10" fill="rgba(39, 145, 202, 1.0)" />
	<rect x="120" y="80" width="10" height="10" fill="rgba(56, 176, 217, 1.0)" />
	<rect x="130" y="80" width="10" height="10" fill="rgba(53, 171, 214, 1.0)" />
	<rect x="140" y="80" width="10" height="10" fill="rgba(42, 150, 205, 1.0)" />
	<rect x="150" y="80" width="10" height="10" fill="rgba(41, 148, 204, 1.0)" />
	<rect x="0" y="90" width="10" height="10" fill="rgba(48, 162, 210, 1.0)" />
	<rect x="10" y="90" width="10" height="10" fill="rgba(53, 171, 214, 1.0)" />
	<rect x="20" y="90" width="10" height="10" fill="rgba(51, 167, 212, 1.0)" />
	<rect x="30" y="90" width="10" height="10" fill="rgba(71, 192, 227, 1.0)" />
	<rect x="40" y="90" width="10" height="10" fill="rgba(36, 140, 200, 1.0)" />
	<rect x="50" y="90" width="10" height="10" fill="rgba(38, 142, 201, 1.0)" />
	<rect x="60" y="90" width="10" height="10" fill="rgba(53, 171, 214, 1.0)" />
	<rect x="70" y="90" width="10" height="10" fill="rgba(61, 183, 220, 1.0)" />
	<rect x="80" y="90" width="10" height="10" fill="rgba(46, 158, 208, 1.0)" />
	<rect x="90" y="90" width="10" height="10" fill="rgba(62, 184, 221, 1.0)" />
	<rect x="100" y="90" width="10" height="10" fill="rgba(78, 197, 231, 1.0)" />
	<rect x="110" y="90" width="10" height="10" fill="rgba(78, 197, 231, 1.0)" />
	<rect x="120" y="90" width="10" height="10" fill="rgba(55, 174, 215, 1.0)" />
	<rect x="130" y="90" width="10" height="10" fill="rgba(65, 187, 223, 1.0)" />
	<rect x="140" y="90" width="10" height="10" fill="rgba(78, 197, 231, 1.0)" />
	<rect x="150" y="90" width="10" height="10" fill="rgba(78, 197, 231, 1.0)" />
	<rect x="0" y="100" width="10" height="10" fill="rgba(72, 193, 228, 1.0)" />
	<rect x="10" y="100" width="10" height="10" fill="rgba(74, 194, 229, 1.0)" />
	<rect x="20" y="100" width="10" height="10" fill="rgba(66, 188, 223, 1.0)" />
	<rect x="30" y="100" width="10" height="10" fill="rgba(66, 188, 223, 1.0)" />
	<rect x="40" y="100" width="10" height="10" fill="rgba(78, 197, 231, 1.0)" />
	<rect x="50" y="100" width="10" height="10" fill="rgba(73, 194, 228, 1.0)" />
	<rect x="60" y="100" width="10" height="10" fill="rgba(66, 188, 223, 1.0)" />
	<rect x="70" y="100" width="10" height="10" fill="rgba(63, 185, 222, 1.0)" />
	<rect x="80" y="100" width="10" height="10" fill="rgba(74, 194, 229, 1.0)" />
	<rect x="90" y="100" width="10" height="10" fill="rgba(71, 192, 227, 1.0)" />
	<rect x="100" y="100" width="10" height="10" fill="rgba(52, 169, 213, 1.0)" />
	<rect x="110" y="100" width="10" height="10" fill="rgba(58, 179, 218, 1.0)" />
	<rect x="120" y="100" width="10" height="10" fill="rgba(62, 184, 221, 1.0)" />
	<rect x="130" y="100" width="10" height="10" fill="rgba(56, 176, 217, 1.0)" />
	<rect x="140" y="100" width="10" height="10" fill="rgba(43, 152, 205, 1.0)" />
	<rect x="150" y="100" width="10" height="10" fill="rgba(57, 177, 217, 1.0)" />
	<rect x="0" y="110" width="10" height="10" fill="rgba(43, 152, 205, 1.0)" />
	<rect x="10" y="110" width="10" height="10" fill="rgba(46, 158, 208, 1.0)" />
	<rect x="20" y="110" width="10" height="10" fill="rgba(61, 183, 220, 1.0)" />
	<rect x="30" y="110" width="10" height="10" fill="rgba(61, 183, 220, 1.0)" />
	<rect x="40" y="110" width="10" height="10" fill="rgba(49, 165, 211, 1.0)" />
	<rect x="50" y="110" width="10" height="10" fill="rgba(50, 166, 212, 1.0)" />
	<rect x="60" y="110" width="10" height="10" fill="rgba(68, 190, 225, 1.0)" />
	<rect x="70" y="110" width="10" height="10" fill="rgba(65, 187, 223, 1.0)" />
	<rect x="80" y="110" width="10" height="10" fill="rgba(44, 154, 206, 1.0)" />
	<rect x="90" y="110" width="10" height="10" fill="rgba(46, 158, 208, 1.0)" />
	<rect x="100" y="110" width="10" height="10" fill="rgba(48, 162, 210, 1.0)" />
	<rect x="110" y="110" width="10" height="10" fill="rgba(62, 184, 221, 1.0)" />
	<rect x="120" y="110" width="10" height="10" fill="rgba(37, 141, 201, 1.0)" />
	<rect x="130" y="110" width="10" height="10" fill="rgba(37, 141, 201, 1.0)" />
	<rect x="140" y="110" width="10" height="10" fill="rgba(51, 167, 212, 1.0)" />
	<rect x="150" y="110" width="10" height="10" fill="rgba(62, 184, 221, 1.0)" />
	<rect x="0" y="120" width="10" height="10" fill="rgba(50, 166, 212, 1.0)" />
	<rect x="10" y="120" width="10" height="10" fill="rgba(49, 165, 211, 1.0)" />
	<rect x="20" y="120" width="10" height="10" fill="rgba(36, 140, 200, 1.0)" />
	<rect x="30" y="120" width="10" height="10" fill="rgba(38, 142, 201, 1.0)" />
	<rect x="40" y="120" width="10" height="10" fill="rgba(72, 193, 228, 1.0)" />
	<rect x="50" y="120" width="10" height="10" fill="rgba(76, 196, 230, 1.0)" />
	<rect x="60" y="120" width="10" height="10" fill="rgba(41, 148, 204, 1.0)" />
	<rect x="70" y="120" width="10" height="10" fill="rgba(36, 139, 200, 1.0)" />
	<rect x="80" y="120" width="10" height="10" fill="rgba(56, 176, 217, 1.0)" />
	<rect x="90" y="120" width="10" height="10" fill="rgba(68, 190, 225, 1.0)" />
	<rect x="100" y="120" width="10" height="10" fill="rgba(58, 179, 218, 1.0)" />
	<rect x="110" y="120" width="10" height="10" fill="rgba(65, 187, 223, 1.0)" />
	<rect x="120" y="120" width="10" height="10" fill="rgba(78, 197, 231, 1.0)" />
	<rect x="130" y="120" width="10" height="10" fill="rgba(78, 197, 231, 1.0)" />
	<rect x="140" y="120" width="10" height="10" fill="rgba(62, 184, 221, 1.0)" />
	<rect x="150" y="120" width="10" height="10" fill="rgba(39, 145, 202, 1.0)" />
	<rect x="0" y="130" width="10" height="10" fill="rgba(65, 187, 223, 1.0)" />
	<rect x="10" y="130" width="10" height="10" fill="rgba(63, 185, 222, 1.0)" />
	<rect x="20" y="130" width="10" height="10" fill="rgba(77, 196, 231, 1.0)" />
	<rect x="30" y="130" width="10" height="10" fill="rgba(78, 197, 231, 1.0)" />
	<rect x="40" y="130" width="10" height="10" fill="rgba(72, 193, 228, 1.0)" />
	<rect x="50" y="130" width="10" height="10" fill="rgba(66, 188, 223, 1.0)" />
	<rect x="60" y="130" width="10" height="10" fill="rgba(58, 179, 218, 1.0)" />
	<rect x="70" y="130" width="10" height="10" fill="rgba(52, 169, 213, 1.0)" />
	<rect x="80" y="130" width="10" height="10" fill="rgba(36, 140, 200, 1.0)" />
	<rect x="90" y="130" width="10" height="10" fill="rgba(55, 174, 215, 1.0)" />
	<rect x="100" y="130" width="10" height="10" fill="rgba(65, 187, 223, 1.0)" />
	<rect x="110" y="130" width="10" height="10" fill="rgba(73, 194, 228, 1.0)" />
	<rect x="120" y="130" width="10" height="10" fill="rgba(54, 173, 215, 1.0)" />
	<rect x="130" y="130" width="10" height="10" fill="rgba(55, 174, 215, 1.0)" />
	<rect x="140" y="130" width="10" height="10" fill="rgba(73, 194, 228, 1.0)" />
	<rect x="150" y="130" width="10" height="10" fill="rgba(78, 197, 231, 1.0)" />
	<rect x="0" y="140" width="10" height="10" fill="rgba(76, 196, 230, 1.0)" />
	<rect x="10" y="140" width="10" height="10" fill="rgba(75, 195, 230, 1.0)" />
	<rect x="20" y="140" width="10" height="10" fill="rgba(57, 177, 217, 1.0)" />
	<rect x="30" y="140" width="10" height="10" fill="rgba(53, 171, 214, 1.0)" />
	<rect x="40" y="140" width="10" height="10" fill="rgba(73, 194, 228, 1.0)" />
	<rect x="50" y="140" width="10" height="10" fill="rgba(58, 179, 218, 1.0)" />
	<rect x="60" y="140" width="10" height="10" fill="rgba(62, 184, 221, 1.0)" />
	<rect x="70" y="140" width="10" height="10" fill="rgba(67, 189, 225, 1.0)" />
	<rect x="80" y="140" width="10" height="10" fill="rgba(78, 197, 231, 1.0)" />
	<rect x="90" y="140" width="10" height="10" fill="rgba(71, 192, 227, 1.0)" />
	<rect x="100" y="140" width="10" height="10" fill="rgba(47, 161, 210, 1.0)" />
	<rect x="110" y="140" width="10" height="10" fill="rgba(48, 162, 210, 1.0)" />
	<rect x="120" y="140" width="10" height="10" fill="rgba(59, 181, 219, 1.0)" />
	<rect x="130" y="140" width="10" height="10" fill="rgba(65, 187, 223, 1.0)" />
	<rect x="140" y="140" width="10" height="10" fill="rgba(50, 166, 212, 1.0)" />
	<rect x="150" y="140" width="10" height="10" fill="rgba(44, 154, 206, 1.0)" />
	<rect x="0" y="150" width="10" height="10" fill="rgba(39, 145, 203, 1.0)" />
	<rect x="10" y="150" width="10" height="10" fill="rgba(46, 158, 208, 1.0)" />
	<rect x="20" y="150" width="10" height="10" fill="rgba(72, 193, 228, 1.0)" />
	<rect x="30" y="150" width="10" height="10" fill="rgba(59, 181, 219, 1.0)" />
	<rect x="40" y="150" width="10" height="10" fill="rgba(44, 154, 206, 1.0)" />
	<rect x="50" y="150" width="10" height="10" fill="rgba(50, 166, 212, 1.0)" />
	<rect x="60" y="150" width="10" height="10" fill="rgba(73, 194, 228, 1.0)" />
	<rect x="70" y="150" width="10" height="10" fill="rgba(77, 196, 231, 1.0)" />
	<rect x="80" y="150" width="10" height="10" fill="rgba(54, 173, 215, 1.0)" />
	<rect x="90" y="150" width="10" height="10" fill="rgba(49, 165, 211, 1.0)" />
	<rect x="100" y="150" width="10" height="10" fill="rgba(63, 185, 222, 1.0)" />
	<rect x="110" y="150" width="10" height="10" fill="rgba(72, 193, 228, 1.0)" />
	<rect x="120" y="150" width="10" height="10" fill="rgba(44, 154, 206, 1.0)" />
	<rect x="130" y="150" width="10" height="10" fill="rgba(46, 158, 208, 1.0)" />
	<rect x="140" y="150" width="10" height="10" fill="rgba(71, 192, 227, 1.0)" />
	<rect x="150" y="150" width="10" height="10" fill="rgba(73, 194, 228, 1.0)" />
</svg>