<svg xmlns="http://www.w3.org/2000/svg" xmlns:xlink="http://www.w3.org/1999/xlink">
	<rect x="0" y="0" width="10" height="10" fill="rgba(111, 174, 38, 1.0)" />
	<rect x="10" y="0" width="10" height="10" fill="rgba(119, 186, 41, 1.0)" />
	<rect x="20" y="0" width="10" height="10" fill="rgba(130, 195, 43, 1.0)" />
	<rect x="30" y="0" width="10" height="10" fill="rgba(124, 188, 40, 1.0)" />
	<rect x="40" y="0" width="10" height="10" fill="rgba(119, 187, 41, 1.0)" />
	<rect x="50" y="0" width="10" height="10" fill="rgba(133, 196, 41, 1.0)" />
	<rect x="60" y="0" width="10" height="10" fill="rgba(122, 186, 40, 1.0)" />
	<rect x="70" y="0" width="10" height="10" fill="rgba(113, 179, 40, 1.0)" />
	<rect x="80" y="0" width="10" height="10" fill="rgba(126, 191, 41, 1.0)" />
	<rect x="90" y="0" width="10" height="10" fill="rgba(119, 185, 40, 1.0)" />
	<rect x="100" y="0" width="10" height="10" fill="rgba(125, 189, 40, 1.0)" />
	<rect x="110" y="0" width="10" height="10" fill="rgba(124, 188, 41, 1.0)" />
	<rect x="120" y="0" width="10" height="10" fill="rgba(124, 188, 40, 1.0)" />
	<rect x="130" y="0" width="10" height="10" fill="rgba(132, 201, 45, 1.0)" />
	<rect x="140" y="0" width="10" height="10" fill="rgba(127, 188, 40, 1.0)" />
	<rect x="150" y="0" width="10" height="10" fill="rgba(127, 191, 41, 1.0)" />
	<rect x="0" y="10" width="10" height="10" fill="rgba(124, 189, 40, 1.0)" />
	<rect x="10" y="10" width="10" height="10" fill="rgba(121, 185, 40, 1.0)" />
	<rect x="20" y="10" width="10" height="10" fill="rgba(134, 197, 43, 1.0)" />
	<rect x="30" y="10" width="10" height="10" fill="rgba(124, 192, 43, 1.0)" />
	<rect x="40" y="10" width="10" height="10" fill="rgba(122, 181, 38, 1.0)" />
	<rect x="50" y="10" width="10" height="10" fill="rgba(121, 183, 40, 1.0)" />
	<rect x="60" y="10" width="10" height="10" fill="rgba(122, 185, 40, 1.0)" />
	<rect x="70" y="10" width="10" height="10" fill="rgba(133, 195, 43, 1.0)" />
	<rect x="80" y="10" width="10" height="10" fill="rgba(136, 199, 44, 1.0)" />
	<rect x="90" y="10" width="10" height="10" fill="rgba(133, 197, 43, 1.0)" />
	<rect x="100" y="10" width="10" height="10" fill="rgba(133, 204, 45, 1.0)" />
	<rect x="110" y="10" width="10" height="10" fill="rgba(141, 200, 45, 1.0)" />
	<rect x="120" y="10" width="10" height="10" fill="rgba(132, 195, 41, 1.0)" />
	<rect x="130" y="10" width="10" height="10" fill="rgba(121, 185, 40, 1.0)" />
	<rect x="140" y="10" width="10" height="10" fill="rgba(137, 197, 43, 1.0)" />
	<rect x="150" y="10" width="10" height="10" fill="rgba(121, 189, 41, 1.0)" />
	<rect x="0" y="20" width="10" height="10" fill="rgba(118, 186, 41, 1.0)" />
	<rect x="10" y="20" width="10" height="10" fill="rgba(133, 198, 44, 1.0)" />
	<rect x="20" y="20" width="10" height="10" fill="rgba(134, 202, 44, 1.0)" />
	<rect x="30" y="20" width="10" height="10" fill="rgba(114, 179, 40, 1.0)" />
	<rect x="40" y="20" width="10" height="10" fill="rgba(126, 189, 40, 1.0)" />
	<rect x="50" y="20" width="10" height="10" fill="rgba(119, 183, 40, 1.0)" />
	<rect x="60" y="20" width="10" height="10" fill="rgba(120, 185, 40, 1.0)" />
	<rect x="70" y="20" width="10" height="10" fill="rgba(124, 188, 40, 1.0)" />
	<rect x="80" y="20" width="10" height="10" fill="rgba(130, 194, 41, 1.0)" />
	<rect x="90" y="20" width="10" height="10" fill="rgba(131, 195, 43, 1.0)" />
	<rect x="100" y="20" width="10" height="10" fill="rgba(124, 190, 41, 1.0)" />
	<rect x="110" y="20" width="10" height="10" fill="rgba(139, 200, 44, 1.0)" />
	<rect x="120" y="20" width="10" height="10" fill="rgba(120, 185, 40, 1.0)" />
	<rect x="130" y="20" width="10" height="10" fill="rgba(120, 182, 40, 1.0)" />
	<rect x="140" y="20" width="10" height="10" fill="rgba(113, 178, 40, 1.0)" />
	<rect x="150" y="20" width="10" height="10" fill="rgba(155, 214, 51, 1.0)" />
	<rect x="0" y="30" width="10" height="10" fill="rgba(113, 178, 40, 1.0)" />
	<rect x="10" y="30" width="10" height="10" fill="rgba(115, 180, 40, 1.0)" />
	<rect x="20" y="30" width="10" height="10" fill="rgba(128, 191, 41, 1.0)" />
	<rect x="30" y="30" width="10" height="10" fill="rgba(118, 184, 40, 1.0)" />
	<rect x="40" y="30" width="10" height="10" fill="rgba(137, 196, 44, 1.0)" />
	<rect x="50" y="30" width="10" height="10" fill="rgba(124, 189, 41, 1.0)" />
	<rect x="60" y="30" width="10" height="10" fill="rgba(131, 191, 41, 1.0)" />
	<rect x="70" y="30" width="10" height="10" fill="rgba(120, 185, 40, 1.0)" />
	<rect x="80" y="30" width="10" height="10" fill="rgba(124, 180, 38, 1.0)" />
	<rect x="90" y="30" width="10" height="10" fill="rgba(115, 180, 40, 1.0)" />
	<rect x="100" y="30" width="10" height="10" fill="rgba(167, 216, 90, 1.0)" />
	<rect x="110" y="30" width="10" height="10" fill="rgba(126, 191, 41, 1.0)" />
	<rect x="120" y="30" width="10" height="10" fill="rgba(126, 193, 43, 1.0)" />
	<rect x="130" y="30" width="10" height="10" fill="rgba(128, 195, 43, 1.0)" />
	<rect x="140" y="30" width="10" height="10" fill="rgba(115, 182, 40, 1.0)" />
	<rect x="150" y="30" width="10" height="10" fill="rgba(127, 186, 38, 1.0)" />
	<rect x="0" y="40" width="10" height="10" fill="rgba(159, 213, 67, 1.0)" />
	<rect x="10" y="40" width="10" height="10" fill="rgba(133, 194, 41, 1.0)" />
	<rect x="20" y="40" width="10" height="10" fill="rgba(119, 187, 43, 1.0)" />
	<rect x="30" y="40" width="10" height="10" fill="rgba(130, 192, 41, 1.0)" />
	<rect x="40" y="40" width="10" height="10" fill="rgba(125, 193, 44, 1.0)" />
	<rect x="50" y="40" width="10" height="10" fill="rgba(144, 205, 45, 1.0)" />
	<rect x="60" y="40" width="10" height="10" fill="rgba(137, 199, 43, 1.0)" />
	<rect x="70" y="40" width="10" height="10" fill="rgba(124, 190, 43, 1.0)" />
	<rect x="80" y="40" width="10" height="10" fill="rgba(113, 178, 40, 1.0)" />
	<rect x="90" y="40" width="10" height="10" fill="rgba(110, 174, 40, 1.0)" />
	<rect x="100" y="40" width="10" height="10" fill="rgba(131, 192, 41, 1.0)" />
	<rect x="110" y="40" width="10" height="10" fill="rgba(125, 192, 43, 1.0)" />
	<rect x="120" y="40" width="10" height="10" fill="rgba(145, 201, 50, 1.0)" />
	<rect x="130" y="40" width="10" height="10" fill="rgba(131, 188, 40, 1.0)" />
	<rect x="140" y="40" width="10" height="10" fill="rgba(122, 192, 43, 1.0)" />
	<rect x="150" y="40" width="10" height="10" fill="rgba(137, 195, 45, 1.0)" />
	<rect x="0" y="50" width="10" height="10" fill="rgba(118, 180, 40, 1.0)" />
	<rect x="10" y="50" width="10" height="10" fill="rgba(115, 182, 40, 1.0)" />
	<rect x="20" y="50" width="10" height="10" fill="rgba(116, 181, 40, 1.0)" />
	<rect x="30" y="50" width="10" height="10" fill="rgba(141, 210, 45, 1.0)" />
	<rect x="40" y="50" width="10" height="10" fill="rgba(118, 181, 40, 1.0)" />
	<rect x="50" y="50" width="10" height="10" fill="rgba(124, 191, 41, 1.0)" />
	<rect x="60" y="50" width="10" height="10" fill="rgba(128, 193, 41, 1.0)" />
	<rect x="70" y="50" width="10" height="10" fill="rgba(130, 193, 43, 1.0)" />
	<rect x="80" y="50" width="10" height="10" fill="rgba(128, 191, 41, 1.0)" />
	<rect x="90" y="50" width="10" height="10" fill="rgba(125, 194, 44, 1.0)" />
	<rect x="100" y="50" width="10" height="10" fill="rgba(118, 183, 40, 1.0)" />
	<rect x="110" y="50" width="10" height="10" fill="rgba(110, 172, 38, 1.0)" />
	<rect x="120" y="50" width="10" height="10" fill="rgba(132, 193, 43, 1.0)" />
	<rect x="130" y="50" width="10" height="10" fill="rgba(124, 185, 40, 1.0)" />
	<rect x="140" y="50" width="10" height="10" fill="rgba(124, 188, 40, 1.0)" />
	<rect x="150" y="50" width="10" height="10" fill="rgba(118, 178, 38, 1.0)" />
	<rect x="0" y="60" width="10" height="10" fill="rgba(113, 174, 37, 1.0)" />
	<rect x="10" y="60" width="10" height="10" fill="rgba(122, 188, 41, 1.0)" />
	<rect x="20" y="60" width="10" height="10" fill="rgba(113, 178, 40, 1.0)" />
	<rect x="30" y="60" width="10" height="10" fill="rgba(115, 182, 40, 1.0)" />
	<rect x="40" y="60" width="10" height="10" fill="rgba(110, 171, 38, 1.0)" />
	<rect x="50" y="60" width="10" height="10" fill="rgba(134, 197, 43, 1.0)" />
	<rect x="60" y="60" width="10" height="10" fill="rgba(121, 186, 40, 1.0)" />
	<rect x="70" y="60" width="10" height="10" fill="rgba(119, 183, 40, 1.0)" />
	<rect x="80" y="60" width="10" height="10" fill="rgba(118, 181, 40, 1.0)" />
	<rect x="90" y="60" width="10" height="10" fill="rgba(124, 186, 40, 1.0)" />
	<rect x="100" y="60" width="10" height="10" fill="rgba(130, 196, 44, 1.0)" />
	<rect x="110" y="60" width="10" height="10" fill="rgba(128, 199, 45, 1.0)" />
	<rect x="120" y="60" width="10" height="10" fill="rgba(144, 203, 48, 1.0)" />
	<rect x="130" y="60" width="10" height="10" fill="rgba(127, 194, 43, 1.0)" />
	<rect x="140" y="60" width="10" height="10" fill="rgba(119, 186, 40, 1.0)" />
	<rect x="150" y="60" width="10" height="10" fill="rgba(130, 193, 41, 1.0)" />
	<rect x="0" y="70" width="10" height="10" fill="rgba(122, 187, 40, 1.0)" />
	<rect x="10" y="70" width="10" height="10" fill="rgba(122, 187, 40, 1.0)" />
	<rect x="20" y="70" width="10" height="10" fill="rgba(121, 188, 41, 1.0)" />
	<rect x="30" y="70" width="10" height="10" fill="rgba(121, 186, 40, 1.0)" />
	<rect x="40" y="70" width="10" height="10" fill="rgba(131, 194, 41, 1.0)" />
	<rect x="50" y="70" width="10" height="10" fill="rgba(133, 194, 43, 1.0)" />
	<rect x="60" y="70" width="10" height="10" fill="rgba(121, 187, 41, 1.0)" />
	<rect x="70" y="70" width="10" height="10" fill="rgba(133, 200, 44, 1.0)" />
	<rect x="80" y="70" width="10" height="10" fill="rgba(140, 199, 45, 1.0)" />
	<rect x="90" y="70" width="10" height="10" fill="rgba(118, 182, 40, 1.0)" />
	<rect x="100" y="70" width="10" height="10" fill="rgba(122, 186, 40, 1.0)" />
	<rect x="110" y="70" width="10" height="10" fill="rgba(121, 185, 40, 1.0)" />
	<rect x="120" y="70" width="10" height="10" fill="rgba(116, 184, 41, 1.0)" />
	<rect x="130" y="70" width="10" height="10" fill="rgba(125, 190, 41, 1.0)" />
	<rect x="140" y="70" width="10" height="10" fill="rgba(128, 197, 44, 1.0)" />
	<rect x="150" y="70" width="10" height="10" fill="rgba(119, 186, 41, 1.0)" />
	<rect x="0" y="80" width="10" height="10" fill="rgba(127, 193, 43, 1.0)" />
	<rect x="10" y="80" width="10" height="10" fill="rgba(130, 194, 43, 1.0)" />
	<rect x="20" y="80" width="10" height="10" fill="rgba(124, 192, 43, 1.0)" />
	<rect x="30" y="80" width="10" height="10" fill="rgba(128, 194, 43, 1.0)" />
	<rect x="40" y="80" width="10" height="10" fill="rgba(126, 191, 41, 1.0)" />
	<rect x="50" y="80" width="10" height="10" fill="rgba(130, 191, 41, 1.0)" />
	<rect x="60" y="80" width="10" height="10" fill="rgba(132, 197, 44, 1.0)" />
	<rect x="70" y="80" width="10" height="10" fill="rgba(139, 199, 44, 1.0)" />
	<rect x="80" y="80" width="10" height="10" fill="rgba(133, 194, 41, 1.0)" />
	<rect x="90" y="80" width="10" height="10" fill="rgba(134, 204, 45, 1.0)" />
	<rect x="100" y="80" width="10" height="10" fill="rgba(119, 179, 38, 1.0)" />
	<rect x="110" y="80" width="10" height="10" fill="rgba(142, 202, 47, 1.0)" />
	<rect x="120" y="80" width="10" height="10" fill="rgba(127, 190, 40, 1.0)" />
	<rect x="130" y="80" width="10" height="10" fill="rgba(133, 196, 41, 1.0)" />
	<rect x="140" y="80" width="10" height="10" fill="rgba(126, 190, 40, 1.0)" />
	<rect x="150" y="80" width="10" height="10" fill="rgba(116, 182, 40, 1.0)" />
	<rect x="0" y="90" width="10" height="10" fill="rgba(124, 182, 38, 1.0)" />
	<rect x="10" y="90" width="10" height="10" fill="rgba(128, 192, 41, 1.0)" />
	<rect x="20" y="90" width="10" height="10" fill="rgba(118, 186, 41, 1.0)" />
	<rect x="30" y="90" width="10" height="10" fill="rgba(125, 189, 40, 1.0)" />
	<rect x="40" y="90" width="10" height="10" fill="rgba(118, 183, 40, 1.0)" />
	<rect x="50" y="90" width="10" height="10" fill="rgba(124, 188, 41, 1.0)" />
	<rect x="60" y="90" width="10" height="10" fill="rgba(122, 185, 40, 1.0)" />
	<rect x="70" y="90" width="10" height="10" fill="rgba(181, 223, 122, 1.0)" />
	<rect x="80" y="90" width="10" height="10" fill="rgba(121, 185, 40, 1.0)" />
	<rect x="90" y="90" width="10" height="10" fill="rgba(125, 188, 40, 1.0)" />
	<rect x="100" y="90" width="10" height="10" fill="rgba(121, 186, 40, 1.0)" />
	<rect x="110" y="90" width="10" height="10" fill="rgba(121, 189, 43, 1.0)" />
	<rect x="120" y="90" width="10" height="10" fill="rgba(122, 186, 40, 1.0)" />
	<rect x="130" y="90" width="10" height="10" fill="rgba(119, 185, 41, 1.0)" />
	<rect x="140" y="90" width="10" height="10" fill="rgba(114, 180, 40, 1.0)" />
	<rect x="150" y="90" width="10" height="10" fill="rgba(126, 194, 44, 1.0)" />
	<rect x="0" y="100" width="10" height="10" fill="rgba(124, 189, 41, 1.0)" />
	<rect x="10" y="100" width="10" height="10" fill="rgba(125, 190, 41, 1.0)" />
	<rect x="20" y="100" width="10" height="10" fill="rgba(115, 171, 35, 1.0)" />
	<rect x="30" y="100" width="10" height="10" fill="rgba(119, 187, 41, 1.0)" />
	<rect x="40" y="100" width="10" height="10" fill="rgba(130, 190, 40, 1.0)" />
	<rect x="50" y="100" width="10" height="10" fill="rgba(137, 201, 44, 1.0)" />
	<rect x="60" y="100" width="10" height="10" fill="rgba(128, 191, 41, 1.0)" />
	<rect x="70" y="100" width="10" height="10" fill="rgba(130, 193, 41, 1.0)" />
	<rect x="80" y="100" width="10" height="10" fill="rgba(128, 196, 44, 1.0)" />
	<rect x="90" y="100" width="10" height="10" fill="rgba(128, 196, 44, 1.0)" />
	<rect x="100" y="100" width="10" height="10" fill="rgba(119, 187, 41, 1.0)" />
	<rect x="110" y="100" width="10" height="10" fill="rgba(131, 192, 41, 1.0)" />
	<rect x="120" y="100" width="10" height="10" fill="rgba(116, 182, 40, 1.0)" />
	<rect x="130" y="100" width="10" height="10" fill="rgba(134, 204, 45, 1.0)" />
	<rect x="140" y="100" width="10" height="10" fill="rgba(122, 186, 40, 1.0)" />
	<rect x="150" y="100" width="10" height="10" fill="rgba(128, 192, 41, 1.0)" />
	<rect x="0" y="110" width="10" height="10" fill="rgba(116, 180, 40, 1.0)" />
	<rect x="10" y="110" width="10" height="10" fill="rgba(126, 191, 41, 1.0)" />
	<rect x="20" y="110" width="10" height="10" fill="rgba(132, 196, 43, 1.0)" />
	<rect x="30" y="110" width="10" height="10" fill="rgba(109, 174, 40, 1.0)" />
	<rect x="40" y="110" width="10" height="10" fill="rgba(122, 187, 40, 1.0)" />
	<rect x="50" y="110" width="10" height="10" fill="rgba(122, 186, 40, 1.0)" />
	<rect x="60" y="110" width="10" height="10" fill="rgba(137, 196, 41, 1.0)" />
	<rect x="70" y="110" width="10" height="10" fill="rgba(122, 185, 40, 1.0)" />
	<rect x="80" y="110" width="10" height="10" fill="rgba(125, 190, 40, 1.0)" />
	<rect x="90" y="110" width="10" height="10" fill="rgba(130, 194, 41, 1.0)" />
	<rect x="100" y="110" width="10" height="10" fill="rgba(122, 186, 40, 1.0)" />
	<rect x="110" y="110" width="10" height="10" fill="rgba(128, 198, 45, 1.0)" />
	<rect x="120" y="110" width="10" height="10" fill="rgba(137, 196, 44, 1.0)" />
	<rect x="130" y="110" width="10" height="10" fill="rgba(121, 184, 40, 1.0)" />
	<rect x="140" y="110" width="10" height="10" fill="rgba(131, 191, 41, 1.0)" />
	<rect x="150" y="110" width="10" height="10" fill="rgba(107, 168, 37, 1.0)" />
	<rect x="0" y="120" width="10" height="10" fill="rgba(130, 196, 44, 1.0)" />
	<rect x="10" y="120" width="10" height="10" fill="rgba(118, 183, 40, 1.0)" />
	<rect x="20" y="120" width="10" height="10" fill="rgba(120, 183, 40, 1.0)" />
	<rect x="30" y="120" width="10" height="10" fill="rgba(125, 193, 44, 1.0)" />
	<rect x="40" y="120" width="10" height="10" fill="rgba(114, 182, 41, 1.0)" />
	<rect x="50" y="120" width="10" height="10" fill="rgba(115, 180, 40, 1.0)" />
	<rect x="60" y="120" width="10" height="10" fill="rgba(122, 188, 41, 1.0)" />
	<rect x="70" y="120" width="10" height="10" fill="rgba(115, 176, 38, 1.0)" />
	<rect x="80" y="120" width="10" height="10" fill="rgba(122, 183, 38, 1.0)" />
	<rect x="90" y="120" width="10" height="10" fill="rgba(126, 190, 40, 1.0)" />
	<rect x="100" y="120" width="10" height="10" fill="rgba(115, 181, 40, 1.0)" />
	<rect x="110" y="120" width="10" height="10" fill="rgba(126, 189, 40, 1.0)" />
	<rect x="120" y="120" width="10" height="10" fill="rgba(142, 203, 45, 1.0)" />
	<rect x="130" y="120" width="10" height="10" fill="rgba(139, 201, 43, 1.0)" />
	<rect x="140" y="120" width="10" height="10" fill="rgba(130, 190, 40, 1.0)" />
	<rect x="150" y="120" width="10" height="10" fill="rgba(119, 183, 40, 1.0)" />
	<rect x="0" y="130" width="10" height="10" fill="rgba(115, 182, 41, 1.0)" />
	<rect x="10" y="130" width="10" height="10" fill="rgba(134, 198, 43, 1.0)" />
	<rect x="20" y="130" width="10" height="10" fill="rgba(120, 182, 40, 1.0)" />
	<rect x="30" y="130" width="10" height="10" fill="rgba(119, 177, 38, 1.0)" />
	<rect x="40" y="130" width="10" height="10" fill="rgba(121, 184, 40, 1.0)" />
	<rect x="50" y="130" width="10" height="10" fill="rgba(121, 185, 40, 1.0)" />
	<rect x="60" y="130" width="10" height="10" fill="rgba(120, 183, 40, 1.0)" />
	<rect x="70" y="130" width="10" height="10" fill="rgba(140, 205, 44, 1.0)" />
	<rect x="80" y="130" width="10" height="10" fill="rgba(116, 184, 41, 1.0)" />
	<rect x="90" y="130" width="10" height="10" fill="rgba(127, 197, 44, 1.0)" />
	<rect x="100" y="130" width="10" height="10" fill="rgba(126, 193, 43, 1.0)" />
	<rect x="110" y="130" width="10" height="10" fill="rgba(118, 185, 41, 1.0)" />
	<rect x="120" y="130" width="10" height="10" fill="rgba(122, 189, 41, 1.0)" />
	<rect x="130" y="130" width="10" height="10" fill="rgba(128, 191, 41, 1.0)" />
	<rect x="140" y="130" width="10" height="10" fill="rgba(121, 189, 41, 1.0)" />
	<rect x="150" y="130" width="10" height="10" fill="rgba(127, 190, 40, 1.0)" />
	<rect x="0" y="140" width="10" height="10" fill="rgba(122, 189, 41, 1.0)" />
	<rect x="10" y="140" width="10" height="10" fill="rgba(124, 188, 40, 1.0)" />
	<rect x="20" y="140" width="10" height="10" fill="rgba(142, 199, 47, 1.0)" />
	<rect x="30" y="140" width="10" height="10" fill="rgba(140, 198, 47, 1.0)" />
	<rect x="40" y="140" width="10" height="10" fill="rgba(120, 186, 41, 1.0)" />
	<rect x="50" y="140" width="10" height="10" fill="rgba(132, 194, 41, 1.0)" />
	<rect x="60" y="140" width="10" height="10" fill="rgba(121, 186, 40, 1.0)" />
	<rect x="70" y="140" width="10" height="10" fill="rgba(126, 190, 41, 1.0)" />
	<rect x="80" y="140" width="10" height="10" fill="rgba(128, 188, 38, 1.0)" />
	<rect x="90" y="140" width="10" height="10" fill="rgba(116, 183, 41, 1.0)" />
	<rect x="100" y="140" width="10" height="10" fill="rgba(127, 184, 38, 1.0)" />
	<rect x="110" y="140" width="10" height="10" fill="rgba(128, 191, 41, 1.0)" />
	<rect x="120" y="140" width="10" height="10" fill="rgba(127, 193, 43, 1.0)" />
	<rect x="130" y="140" width="10" height="10" fill="rgba(111, 175, 40, 1.0)" />
	<rect x="140" y="140" width="10" height="10" fill="rgba(111, 176, 40, 1.0)" />
	<rect x="150" y="140" width="10" height="10" fill="rgba(131, 195, 43, 1.0)" />
	<rect x="0" y="150" width="10" height="10" fill="rgba(114, 179, 40, 1.0)" />
	<rect x="10" y="150" width="10" height="10" fill="rgba(126, 191, 41, 1.0)" />
	<rect x="20" y="150" width="10" height="10" fill="rgba(119, 183, 40, 1.0)" />
	<rect x="30" y="150" width="10" height="10" fill="rgba(108, 169, 38, 1.0)" />
	<rect x="40" y="150" width="10" height="10" fill="rgba(139, 207, 45, 1.0)" />
	<rect x="50" y="150" width="10" height="10" fill="rgba(122, 188, 40, 1.0)" />
	<rect x="60" y="150" width="10" height="10" fill="rgba(131, 190, 40, 1.0)" />
	<rect x="70" y="150" width="10" height="10" fill="rgba(136, 199, 44, 1.0)" />
	<rect x="80" y="150" width="10" height="10" fill="rgba(122, 187, 40, 1.0)" />
	<rect x="90" y="150" width="10" height="10" fill="rgba(130, 196, 44, 1.0)" />
	<rect x="100" y="150" width="10" height="10" fill="rgba(120, 183, 40, 1.0)" />
	<rect x="110" y="150" width="10" height="10" fill="rgba(125, 190, 40, 1.0)" />
	<rect x="120" y="150" width="10" height="10" fill="rgba(122, 187, 41, 1.0)" />
	<rect x="130" y="150" width="10" height="10" fill="rgba(145, 202, 50, 1.0)" />
	<rect x="140" y="150" width="10" height="10" fill="rgba(116, 181, 40, 1.0)" />
	<rect x="150" y="150" width="10" height="10" fill="rgba(111, 175, 38, 1.0)" />
</svg>