<svg xmlns="http://www.w3.org/2000/svg" xmlns:xlink="http://www.w3.org/1999/xlink">
	<rect x="0" y="0" width="10" height="10" fill="rgba(103, 117, 52, 1.0)" />
	<rect x="10" y="0" width="10" height="10" fill="rgba(100, 116, 51, 1.0)" />
	<rect x="20" y="0" width="10" height="10" fill="rgba(100, 116, 51, 1.0)" />
	<rect x="30" y="0" width="10" height="10" fill="rgba(100, 116, 51, 1.0)" />
	<rect x="40" y="0" width="10" height="10" fill="rgba(103, 116, 52, 1.0)" />
	<rect x="50" y="0" width="10" height="10" fill="rgba(104, 119, 55, 1.0)" />
	<rect x="60" y="0" width="10" height="10" fill="rgba(108, 122, 56, 1.0)" />
	<rect x="70" y="0" width="10" height="10" fill="rgba(107, 119, 55, 1.0)" />
	<rect x="80" y="0" width="10" height="10" fill="rgba(100, 117, 51, 1.0)" />
	<rect x="90" y="0" width="10" height="10" fill="rgba(108, 121, 55, 1.0)" />
	<rect x="100" y="0" width="10" height="10" fill="rgba(107, 121, 55, 1.0)" />
	<rect x="110" y="0" width="10" height="10" fill="rgba(103, 116, 51, 1.0)" />
	<rect x="120" y="0" width="10" height="10" fill="rgba(99, 114, 49, 1.0)" />
	<rect x="130" y="0" width="10" height="10" fill="rgba(99, 114, 49, 1.0)" />
	<rect x="140" y="0" width="10" height="10" fill="rgba(100, 114, 49, 1.0)" />
	<rect x="150" y="0" width="10" height="10" fill="rgba(103, 116, 51, 1.0)" />
	<rect x="0" y="10" width="10" height="10" fill="rgba(103, 117, 52, 1.0)" />
	<rect x="10" y="10" width="10" height="10" fill="rgba(103, 117, 52, 1.0)" />
	<rect x="20" y="10" width="10" height="10" fill="rgba(108, 121, 56, 1.0)" />
	<rect x="30" y="10" width="10" height="10" fill="rgba(108, 121, 56, 1.0)" />
	<rect x="40" y="10" width="10" height="10" fill="rgba(108, 119, 56, 1.0)" />
	<rect x="50" y="10" width="10" height="10" fill="rgba(104, 119, 57, 1.0)" />
	<rect x="60" y="10" width="10" height="10" fill="rgba(102, 117, 52, 1.0)" />
	<rect x="70" y="10" width="10" height="10" fill="rgba(103, 116, 51, 1.0)" />
	<rect x="80" y="10" width="10" height="10" fill="rgba(103, 117, 51, 1.0)" />
	<rect x="90" y="10" width="10" height="10" fill="rgba(104, 119, 52, 1.0)" />
	<rect x="100" y="10" width="10" height="10" fill="rgba(107, 121, 55, 1.0)" />
	<rect x="110" y="10" width="10" height="10" fill="rgba(105, 120, 55, 1.0)" />
	<rect x="120" y="10" width="10" height="10" fill="rgba(100, 115, 51, 1.0)" />
	<rect x="130" y="10" width="10" height="10" fill="rgba(103, 117, 52, 1.0)" />
	<rect x="140" y="10" width="10" height="10" fill="rgba(103, 117, 52, 1.0)" />
	<rect x="150" y="10" width="10" height="10" fill="rgba(100, 116, 51, 1.0)" />
	<rect x="0" y="20" width="10" height="10" fill="rgba(103, 117, 54, 1.0)" />
	<rect x="10" y="20" width="10" height="10" fill="rgba(97, 116, 52, 1.0)" />
	<rect x="20" y="20" width="10" height="10" fill="rgba(102, 117, 52, 1.0)" />
	<rect x="30" y="20" width="10" height="10" fill="rgba(103, 116, 51, 1.0)" />
	<rect x="40" y="20" width="10" height="10" fill="rgba(100, 115, 50, 1.0)" />
	<rect x="50" y="20" width="10" height="10" fill="rgba(99, 114, 50, 1.0)" />
	<rect x="60" y="20" width="10" height="10" fill="rgba(100, 115, 50, 1.0)" />
	<rect x="70" y="20" width="10" height="10" fill="rgba(103, 116, 51, 1.0)" />
	<rect x="80" y="20" width="10" height="10" fill="rgba(107, 119, 54, 1.0)" />
	<rect x="90" y="20" width="10" height="10" fill="rgba(103, 119, 54, 1.0)" />
	<rect x="100" y="20" width="10" height="10" fill="rgba(103, 119, 54, 1.0)" />
	<rect x="110" y="20" width="10" height="10" fill="rgba(103, 119, 54, 1.0)" />
	<rect x="120" y="20" width="10" height="10" fill="rgba(103, 117, 54, 1.0)" />
	<rect x="130" y="20" width="10" height="10" fill="rgba(104, 122, 54, 1.0)" />
	<rect x="140" y="20" width="10" height="10" fill="rgba(104, 119, 52, 1.0)" />
	<rect x="150" y="20" width="10" height="10" fill="rgba(104, 119, 50, 1.0)" />
	<rect x="0" y="30" width="10" height="10" fill="rgba(104, 119, 54, 1.0)" />
	<rect x="10" y="30" width="10" height="10" fill="rgba(107, 121, 55, 1.0)" />
	<rect x="20" y="30" width="10" height="10" fill="rgba(104, 119, 54, 1.0)" />
	<rect x="30" y="30" width="10" height="10" fill="rgba(103, 116, 51, 1.0)" />
	<rect x="40" y="30" width="10" height="10" fill="rgba(99, 114, 50, 1.0)" />
	<rect x="50" y="30" width="10" height="10" fill="rgba(99, 114, 49, 1.0)" />
	<rect x="60" y="30" width="10" height="10" fill="rgba(100, 116, 51, 1.0)" />
	<rect x="70" y="30" width="10" height="10" fill="rgba(108, 117, 53, 1.0)" />
	<rect x="80" y="30" width="10" height="10" fill="rgba(103, 117, 53, 1.0)" />
	<rect x="90" y="30" width="10" height="10" fill="rgba(103, 117, 52, 1.0)" />
	<rect x="100" y="30" width="10" height="10" fill="rgba(103, 117, 52, 1.0)" />
	<rect x="110" y="30" width="10" height="10" fill="rgba(103, 119, 52, 1.0)" />
	<rect x="120" y="30" width="10" height="10" fill="rgba(103, 117, 53, 1.0)" />
	<rect x="130" y="30" width="10" height="10" fill="rgba(103, 117, 53, 1.0)" />
	<rect x="140" y="30" width="10" height="10" fill="rgba(103, 117, 51, 1.0)" />
	<rect x="150" y="30" width="10" height="10" fill="rgba(103, 116, 50, 1.0)" />
	<rect x="0" y="40" width="10" height="10" fill="rgba(104, 119, 54, 1.0)" />
	<rect x="10" y="40" width="10" height="10" fill="rgba(108, 121, 55, 1.0)" />
	<rect x="20" y="40" width="10" height="10" fill="rgba(107, 120, 55, 1.0)" />
	<rect x="30" y="40" width="10" height="10" fill="rgba(107, 119, 54, 1.0)" />
	<rect x="40" y="40" width="10" height="10" fill="rgba(104, 119, 54, 1.0)" />
	<rect x="50" y="40" width="10" height="10" fill="rgba(98, 113, 49, 1.0)" />
	<rect x="60" y="40" width="10" height="10" fill="rgba(100, 114, 49, 1.0)" />
	<rect x="70" y="40" width="10" height="10" fill="rgba(102, 114, 49, 1.0)" />
	<rect x="80" y="40" width="10" height="10" fill="rgba(102, 115, 52, 1.0)" />
	<rect x="90" y="40" width="10" height="10" fill="rgba(100, 116, 51, 1.0)" />
	<rect x="100" y="40" width="10" height="10" fill="rgba(109, 121, 56, 1.0)" />
	<rect x="110" y="40" width="10" height="10" fill="rgba(109, 121, 56, 1.0)" />
	<rect x="120" y="40" width="10" height="10" fill="rgba(104, 117, 52, 1.0)" />
	<rect x="130" y="40" width="10" height="10" fill="rgba(103, 117, 52, 1.0)" />
	<rect x="140" y="40" width="10" height="10" fill="rgba(104, 119, 54, 1.0)" />
	<rect x="150" y="40" width="10" height="10" fill="rgba(103, 116, 51, 1.0)" />
	<rect x="0" y="50" width="10" height="10" fill="rgba(108, 121, 55, 1.0)" />
	<rect x="10" y="50" width="10" height="10" fill="rgba(104, 119, 54, 1.0)" />
	<rect x="20" y="50" width="10" height="10" fill="rgba(105, 119, 55, 1.0)" />
	<rect x="30" y="50" width="10" height="10" fill="rgba(103, 117, 54, 1.0)" />
	<rect x="40" y="50" width="10" height="10" fill="rgba(102, 116, 51, 1.0)" />
	<rect x="50" y="50" width="10" height="10" fill="rgba(104, 117, 52, 1.0)" />
	<rect x="60" y="50" width="10" height="10" fill="rgba(104, 117, 52, 1.0)" />
	<rect x="70" y="50" width="10" height="10" fill="rgba(103, 117, 53, 1.0)" />
	<rect x="80" y="50" width="10" height="10" fill="rgba(103, 117, 53, 1.0)" />
	<rect x="90" y="50" width="10" height="10" fill="rgba(103, 117, 53, 1.0)" />
	<rect x="100" y="50" width="10" height="10" fill="rgba(104, 119, 54, 1.0)" />
	<rect x="110" y="50" width="10" height="10" fill="rgba(104, 119, 54, 1.0)" />
	<rect x="120" y="50" width="10" height="10" fill="rgba(104, 119, 54, 1.0)" />
	<rect x="130" y="50" width="10" height="10" fill="rgba(104, 119, 54, 1.0)" />
	<rect x="140" y="50" width="10" height="10" fill="rgba(103, 117, 52, 1.0)" />
	<rect x="150" y="50" width="10" height="10" fill="rgba(108, 121, 55, 1.0)" />
	<rect x="0" y="60" width="10" height="10" fill="rgba(107, 119, 54, 1.0)" />
	<rect x="10" y="60" width="10" height="10" fill="rgba(105, 120, 55, 1.0)" />
	<rect x="20" y="60" width="10" height="10" fill="rgba(104, 119, 55, 1.0)" />
	<rect x="30" y="60" width="10" height="10" fill="rgba(103, 117, 54, 1.0)" />
	<rect x="40" y="60" width="10" height="10" fill="rgba(103, 116, 51, 1.0)" />
	<rect x="50" y="60" width="10" height="10" fill="rgba(100, 116, 51, 1.0)" />
	<rect x="60" y="60" width="10" height="10" fill="rgba(103, 116, 53, 1.0)" />
	<rect x="70" y="60" width="10" height="10" fill="rgba(108, 117, 55, 1.0)" />
	<rect x="80" y="60" width="10" height="10" fill="rgba(103, 116, 51, 1.0)" />
	<rect x="90" y="60" width="10" height="10" fill="rgba(100, 116, 51, 1.0)" />
	<rect x="100" y="60" width="10" height="10" fill="rgba(103, 117, 52, 1.0)" />
	<rect x="110" y="60" width="10" height="10" fill="rgba(104, 119, 53, 1.0)" />
	<rect x="120" y="60" width="10" height="10" fill="rgba(107, 121, 55, 1.0)" />
	<rect x="130" y="60" width="10" height="10" fill="rgba(107, 119, 55, 1.0)" />
	<rect x="140" y="60" width="10" height="10" fill="rgba(105, 119, 54, 1.0)" />
	<rect x="150" y="60" width="10" height="10" fill="rgba(102, 116, 51, 1.0)" />
	<rect x="0" y="70" width="10" height="10" fill="rgba(105, 119, 55, 1.0)" />
	<rect x="10" y="70" width="10" height="10" fill="rgba(103, 117, 52, 1.0)" />
	<rect x="20" y="70" width="10" height="10" fill="rgba(103, 116, 51, 1.0)" />
	<rect x="30" y="70" width="10" height="10" fill="rgba(100, 116, 51, 1.0)" />
	<rect x="40" y="70" width="10" height="10" fill="rgba(107, 119, 54, 1.0)" />
	<rect x="50" y="70" width="10" height="10" fill="rgba(107, 119, 54, 1.0)" />
	<rect x="60" y="70" width="10" height="10" fill="rgba(100, 116, 51, 1.0)" />
	<rect x="70" y="70" width="10" height="10" fill="rgba(107, 120, 54, 1.0)" />
	<rect x="80" y="70" width="10" height="10" fill="rgba(108, 120, 55, 1.0)" />
	<rect x="90" y="70" width="10" height="10" fill="rgba(103, 117, 53, 1.0)" />
	<rect x="100" y="70" width="10" height="10" fill="rgba(103, 117, 52, 1.0)" />
	<rect x="110" y="70" width="10" height="10" fill="rgba(103, 117, 53, 1.0)" />
	<rect x="120" y="70" width="10" height="10" fill="rgba(103, 117, 53, 1.0)" />
	<rect x="130" y="70" width="10" height="10" fill="rgba(104, 119, 54, 1.0)" />
	<rect x="140" y="70" width="10" height="10" fill="rgba(105, 119, 55, 1.0)" />
	<rect x="150" y="70" width="10" height="10" fill="rgba(105, 119, 55, 1.0)" />
	<rect x="0" y="80" width="10" height="10" fill="rgba(105, 119, 55, 1.0)" />
	<rect x="10" y="80" width="10" height="10" fill="rgba(107, 119, 55, 1.0)" />
	<rect x="20" y="80" width="10" height="10" fill="rgba(104, 119, 55, 1.0)" />
	<rect x="30" y="80" width="10" height="10" fill="rgba(99, 114, 49, 1.0)" />
	<rect x="40" y="80" width="10" height="10" fill="rgba(102, 116, 52, 1.0)" />
	<rect x="50" y="80" width="10" height="10" fill="rgba(100, 115, 50, 1.0)" />
	<rect x="60" y="80" width="10" height="10" fill="rgba(102, 116, 52, 1.0)" />
	<rect x="70" y="80" width="10" height="10" fill="rgba(102, 116, 52, 1.0)" />
	<rect x="80" y="80" width="10" height="10" fill="rgba(103, 117, 52, 1.0)" />
	<rect x="90" y="80" width="10" height="10" fill="rgba(104, 119, 55, 1.0)" />
	<rect x="100" y="80" width="10" height="10" fill="rgba(108, 120, 55, 1.0)" />
	<rect x="110" y="80" width="10" height="10" fill="rgba(107, 121, 55, 1.0)" />
	<rect x="120" y="80" width="10" height="10" fill="rgba(108, 120, 55, 1.0)" />
	<rect x="130" y="80" width="10" height="10" fill="rgba(108, 121, 56, 1.0)" />
	<rect x="140" y="80" width="10" height="10" fill="rgba(108, 122, 57, 1.0)" />
	<rect x="150" y="80" width="10" height="10" fill="rgba(103, 117, 53, 1.0)" />
	<rect x="0" y="90" width="10" height="10" fill="rgba(105, 119, 55, 1.0)" />
	<rect x="10" y="90" width="10" height="10" fill="rgba(103, 117, 53, 1.0)" />
	<rect x="20" y="90" width="10" height="10" fill="rgba(102, 116, 52, 1.0)" />
	<rect x="30" y="90" width="10" height="10" fill="rgba(100, 115, 50, 1.0)" />
	<rect x="40" y="90" width="10" height="10" fill="rgba(100, 115, 50, 1.0)" />
	<rect x="50" y="90" width="10" height="10" fill="rgba(100, 116, 51, 1.0)" />
	<rect x="60" y="90" width="10" height="10" fill="rgba(102, 116, 52, 1.0)" />
	<rect x="70" y="90" width="10" height="10" fill="rgba(100, 116, 51, 1.0)" />
	<rect x="80" y="90" width="10" height="10" fill="rgba(103, 117, 53, 1.0)" />
	<rect x="90" y="90" width="10" height="10" fill="rgba(103, 117, 51, 1.0)" />
	<rect x="100" y="90" width="10" height="10" fill="rgba(102, 116, 52, 1.0)" />
	<rect x="110" y="90" width="10" height="10" fill="rgba(102, 116, 52, 1.0)" />
	<rect x="120" y="90" width="10" height="10" fill="rgba(103, 119, 54, 1.0)" />
	<rect x="130" y="90" width="10" height="10" fill="rgba(103, 119, 54, 1.0)" />
	<rect x="140" y="90" width="10" height="10" fill="rgba(109, 122, 56, 1.0)" />
	<rect x="150" y="90" width="10" height="10" fill="rgba(107, 121, 56, 1.0)" />
	<rect x="0" y="100" width="10" height="10" fill="rgba(103, 117, 51, 1.0)" />
	<rect x="10" y="100" width="10" height="10" fill="rgba(104, 117, 52, 1.0)" />
	<rect x="20" y="100" width="10" height="10" fill="rgba(103, 117, 54, 1.0)" />
	<rect x="30" y="100" width="10" height="10" fill="rgba(100, 115, 50, 1.0)" />
	<rect x="40" y="100" width="10" height="10" fill="rgba(100, 114, 51, 1.0)" />
	<rect x="50" y="100" width="10" height="10" fill="rgba(109, 121, 56, 1.0)" />
	<rect x="60" y="100" width="10" height="10" fill="rgba(111, 122, 56, 1.0)" />
	<rect x="70" y="100" width="10" height="10" fill="rgba(102, 115, 48, 1.0)" />
	<rect x="80" y="100" width="10" height="10" fill="rgba(103, 119, 54, 1.0)" />
	<rect x="90" y="100" width="10" height="10" fill="rgba(104, 119, 54, 1.0)" />
	<rect x="100" y="100" width="10" height="10" fill="rgba(108, 122, 55, 1.0)" />
	<rect x="110" y="100" width="10" height="10" fill="rgba(108, 121, 56, 1.0)" />
	<rect x="120" y="100" width="10" height="10" fill="rgba(104, 117, 52, 1.0)" />
	<rect x="130" y="100" width="10" height="10" fill="rgba(103, 119, 52, 1.0)" />
	<rect x="140" y="100" width="10" height="10" fill="rgba(103, 117, 52, 1.0)" />
	<rect x="150" y="100" width="10" height="10" fill="rgba(100, 116, 51, 1.0)" />
	<rect x="0" y="110" width="10" height="10" fill="rgba(100, 114, 51, 1.0)" />
	<rect x="10" y="110" width="10" height="10" fill="rgba(103, 117, 52, 1.0)" />
	<rect x="20" y="110" width="10" height="10" fill="rgba(104, 117, 52, 1.0)" />
	<rect x="30" y="110" width="10" height="10" fill="rgba(102, 116, 52, 1.0)" />
	<rect x="40" y="110" width="10" height="10" fill="rgba(100, 116, 51, 1.0)" />
	<rect x="50" y="110" width="10" height="10" fill="rgba(104, 117, 52, 1.0)" />
	<rect x="60" y="110" width="10" height="10" fill="rgba(103, 119, 54, 1.0)" />
	<rect x="70" y="110" width="10" height="10" fill="rgba(103, 117, 54, 1.0)" />
	<rect x="80" y="110" width="10" height="10" fill="rgba(108, 120, 55, 1.0)" />
	<rect x="90" y="110" width="10" height="10" fill="rgba(108, 122, 55, 1.0)" />
	<rect x="100" y="110" width="10" height="10" fill="rgba(105, 119, 55, 1.0)" />
	<rect x="110" y="110" width="10" height="10" fill="rgba(104, 119, 54, 1.0)" />
	<rect x="120" y="110" width="10" height="10" fill="rgba(104, 119, 54, 1.0)" />
	<rect x="130" y="110" width="10" height="10" fill="rgba(107, 121, 55, 1.0)" />
	<rect x="140" y="110" width="10" height="10" fill="rgba(107, 119, 55, 1.0)" />
	<rect x="150" y="110" width="10" height="10" fill="rgba(103, 117, 53, 1.0)" />
	<rect x="0" y="120" width="10" height="10" fill="rgba(102, 115, 52, 1.0)" />
	<rect x="10" y="120" width="10" height="10" fill="rgba(102, 116, 52, 1.0)" />
	<rect x="20" y="120" width="10" height="10" fill="rgba(103, 117, 52, 1.0)" />
	<rect x="30" y="120" width="10" height="10" fill="rgba(103, 117, 52, 1.0)" />
	<rect x="40" y="120" width="10" height="10" fill="rgba(103, 117, 51, 1.0)" />
	<rect x="50" y="120" width="10" height="10" fill="rgba(103, 116, 51, 1.0)" />
	<rect x="60" y="120" width="10" height="10" fill="rgba(100, 116, 51, 1.0)" />
	<rect x="70" y="120" width="10" height="10" fill="rgba(102, 116, 52, 1.0)" />
	<rect x="80" y="120" width="10" height="10" fill="rgba(109, 122, 58, 1.0)" />
	<rect x="90" y="120" width="10" height="10" fill="rgba(111, 119, 54, 1.0)" />
	<rect x="100" y="120" width="10" height="10" fill="rgba(103, 116, 51, 1.0)" />
	<rect x="110" y="120" width="10" height="10" fill="rgba(100, 115, 51, 1.0)" />
	<rect x="120" y="120" width="10" height="10" fill="rgba(102, 116, 51, 1.0)" />
	<rect x="130" y="120" width="10" height="10" fill="rgba(103, 119, 52, 1.0)" />
	<rect x="140" y="120" width="10" height="10" fill="rgba(103, 117, 53, 1.0)" />
	<rect x="150" y="120" width="10" height="10" fill="rgba(104, 119, 54, 1.0)" />
	<rect x="0" y="130" width="10" height="10" fill="rgba(103, 119, 54, 1.0)" />
	<rect x="10" y="130" width="10" height="10" fill="rgba(104, 119, 54, 1.0)" />
	<rect x="20" y="130" width="10" height="10" fill="rgba(104, 119, 54, 1.0)" />
	<rect x="30" y="130" width="10" height="10" fill="rgba(107, 121, 55, 1.0)" />
	<rect x="40" y="130" width="10" height="10" fill="rgba(103, 119, 54, 1.0)" />
	<rect x="50" y="130" width="10" height="10" fill="rgba(105, 122, 56, 1.0)" />
	<rect x="60" y="130" width="10" height="10" fill="rgba(103, 117, 51, 1.0)" />
	<rect x="70" y="130" width="10" height="10" fill="rgba(100, 115, 50, 1.0)" />
	<rect x="80" y="130" width="10" height="10" fill="rgba(103, 116, 51, 1.0)" />
	<rect x="90" y="130" width="10" height="10" fill="rgba(103, 116, 51, 1.0)" />
	<rect x="100" y="130" width="10" height="10" fill="rgba(97, 116, 48, 1.0)" />
	<rect x="110" y="130" width="10" height="10" fill="rgba(100, 116, 51, 1.0)" />
	<rect x="120" y="130" width="10" height="10" fill="rgba(103, 116, 51, 1.0)" />
	<rect x="130" y="130" width="10" height="10" fill="rgba(104, 117, 52, 1.0)" />
	<rect x="140" y="130" width="10" height="10" fill="rgba(107, 123, 55, 1.0)" />
	<rect x="150" y="130" width="10" height="10" fill="rgba(108, 121, 55, 1.0)" />
	<rect x="0" y="140" width="10" height="10" fill="rgba(103, 117, 53, 1.0)" />
	<rect x="10" y="140" width="10" height="10" fill="rgba(103, 119, 54, 1.0)" />
	<rect x="20" y="140" width="10" height="10" fill="rgba(103, 117, 54, 1.0)" />
	<rect x="30" y="140" width="10" height="10" fill="rgba(104, 113, 48, 1.0)" />
	<rect x="40" y="140" width="10" height="10" fill="rgba(99, 114, 49, 1.0)" />
	<rect x="50" y="140" width="10" height="10" fill="rgba(103, 117, 52, 1.0)" />
	<rect x="60" y="140" width="10" height="10" fill="rgba(103, 116, 51, 1.0)" />
	<rect x="70" y="140" width="10" height="10" fill="rgba(100, 116, 51, 1.0)" />
	<rect x="80" y="140" width="10" height="10" fill="rgba(103, 117, 52, 1.0)" />
	<rect x="90" y="140" width="10" height="10" fill="rgba(103, 117, 54, 1.0)" />
	<rect x="100" y="140" width="10" height="10" fill="rgba(104, 119, 54, 1.0)" />
	<rect x="110" y="140" width="10" height="10" fill="rgba(105, 119, 54, 1.0)" />
	<rect x="120" y="140" width="10" height="10" fill="rgba(103, 117, 52, 1.0)" />
	<rect x="130" y="140" width="10" height="10" fill="rgba(100, 116, 50, 1.0)" />
	<rect x="140" y="140" width="10" height="10" fill="rgba(103, 116, 51, 1.0)" />
	<rect x="150" y="140" width="10" height="10" fill="rgba(107, 119, 54, 1.0)" />
	<rect x="0" y="150" width="10" height="10" fill="rgba(103, 117, 54, 1.0)" />
	<rect x="10" y="150" width="10" height="10" fill="rgba(103, 119, 54, 1.0)" />
	<rect x="20" y="150" width="10" height="10" fill="rgba(103, 119, 54, 1.0)" />
	<rect x="30" y="150" width="10" height="10" fill="rgba(103, 119, 54, 1.0)" />
	<rect x="40" y="150" width="10" height="10" fill="rgba(103, 119, 54, 1.0)" />
	<rect x="50" y="150" width="10" height="10" fill="rgba(105, 119, 55, 1.0)" />
	<rect x="60" y="150" width="10" height="10" fill="rgba(108, 121, 55, 1.0)" />
	<rect x="70" y="150" width="10" height="10" fill="rgba(104, 119, 55, 1.0)" />
	<rect x="80" y="150" width="10" height="10" fill="rgba(103, 119, 54, 1.0)" />
	<rect x="90" y="150" width="10" height="10" fill="rgba(104, 119, 55, 1.0)" />
	<rect x="100" y="150" width="10" height="10" fill="rgba(104, 119, 54, 1.0)" />
	<rect x="110" y="150" width="10" height="10" fill="rgba(103, 116, 51, 1.0)" />
	<rect x="120" y="150" width="10" height="10" fill="rgba(102, 114, 49, 1.0)" />
	<rect x="130" y="150" width="10" height="10" fill="rgba(100, 114, 49, 1.0)" />
	<rect x="140" y="150" width="10" height="10" fill="rgba(103, 117, 52, 1.0)" />
	<rect x="150" y="150" width="10" height="10" fill="rgba(103, 119, 54, 1.0)" />
</svg>