<svg xmlns="http://www.w3.org/2000/svg" xmlns:xlink="http://www.w3.org/1999/xlink">
	<rect x="0" y="0" width="10" height="10" fill="rgba(101, 175, 24, 1.0)" />
	<rect x="10" y="0" width="10" height="10" fill="rgba(104, 178, 24, 1.0)" />
	<rect x="20" y="0" width="10" height="10" fill="rgba(99, 173, 24, 1.0)" />
	<rect x="30" y="0" width="10" height="10" fill="rgba(100, 175, 24, 1.0)" />
	<rect x="40" y="0" width="10" height="10" fill="rgba(110, 183, 24, 1.0)" />
	<rect x="50" y="0" width="10" height="10" fill="rgba(120, 192, 25, 1.0)" />
	<rect x="60" y="0" width="10" height="10" fill="rgba(102, 176, 24, 1.0)" />
	<rect x="70" y="0" width="10" height="10" fill="rgba(103, 177, 24, 1.0)" />
	<rect x="80" y="0" width="10" height="10" fill="rgba(116, 188, 24, 1.0)" />
	<rect x="90" y="0" width="10" height="10" fill="rgba(118, 190, 25, 1.0)" />
	<rect x="100" y="0" width="10" height="10" fill="rgba(96, 171, 24, 1.0)" />
	<rect x="110" y="0" width="10" height="10" fill="rgba(99, 174, 24, 1.0)" />
	<rect x="120" y="0" width="10" height="10" fill="rgba(112, 185, 24, 1.0)" />
	<rect x="130" y="0" width="10" height="10" fill="rgba(112, 185, 24, 1.0)" />
	<rect x="140" y="0" width="10" height="10" fill="rgba(99, 174, 24, 1.0)" />
	<rect x="150" y="0" width="10" height="10" fill="rgba(97, 172, 24, 1.0)" />
	<rect x="0" y="10" width="10" height="10" fill="rgba(110, 184, 24, 1.0)" />
	<rect x="10" y="10" width="10" height="10" fill="rgba(115, 188, 24, 1.0)" />
	<rect x="20" y="10" width="10" height="10" fill="rgba(134, 204, 38, 1.0)" />
	<rect x="30" y="10" width="10" height="10" fill="rgba(134, 204, 38, 1.0)" />
	<rect x="40" y="10" width="10" height="10" fill="rgba(122, 194, 26, 1.0)" />
	<rect x="50" y="10" width="10" height="10" fill="rgba(118, 190, 25, 1.0)" />
	<rect x="60" y="10" width="10" height="10" fill="rgba(107, 181, 24, 1.0)" />
	<rect x="70" y="10" width="10" height="10" fill="rgba(106, 180, 24, 1.0)" />
	<rect x="80" y="10" width="10" height="10" fill="rgba(100, 175, 24, 1.0)" />
	<rect x="90" y="10" width="10" height="10" fill="rgba(97, 172, 24, 1.0)" />
	<rect x="100" y="10" width="10" height="10" fill="rgba(103, 177, 24, 1.0)" />
	<rect x="110" y="10" width="10" height="10" fill="rgba(106, 180, 24, 1.0)" />
	<rect x="120" y="10" width="10" height="10" fill="rgba(94, 169, 24, 1.0)" />
	<rect x="130" y="10" width="10" height="10" fill="rgba(98, 172, 24, 1.0)" />
	<rect x="140" y="10" width="10" height="10" fill="rgba(104, 178, 24, 1.0)" />
	<rect x="150" y="10" width="10" height="10" fill="rgba(108, 182, 24, 1.0)" />
	<rect x="0" y="20" width="10" height="10" fill="rgba(122, 194, 26, 1.0)" />
	<rect x="10" y="20" width="10" height="10" fill="rgba(124, 195, 27, 1.0)" />
	<rect x="20" y="20" width="10" height="10" fill="rgba(106, 180, 24, 1.0)" />
	<rect x="30" y="20" width="10" height="10" fill="rgba(109, 182, 24, 1.0)" />
	<rect x="40" y="20" width="10" height="10" fill="rgba(127, 198, 30, 1.0)" />
	<rect x="50" y="20" width="10" height="10" fill="rgba(124, 195, 27, 1.0)" />
	<rect x="60" y="20" width="10" height="10" fill="rgba(113, 186, 24, 1.0)" />
	<rect x="70" y="20" width="10" height="10" fill="rgba(106, 180, 24, 1.0)" />
	<rect x="80" y="20" width="10" height="10" fill="rgba(118, 190, 25, 1.0)" />
	<rect x="90" y="20" width="10" height="10" fill="rgba(124, 195, 27, 1.0)" />
	<rect x="100" y="20" width="10" height="10" fill="rgba(117, 190, 24, 1.0)" />
	<rect x="110" y="20" width="10" height="10" fill="rgba(117, 190, 24, 1.0)" />
	<rect x="120" y="20" width="10" height="10" fill="rgba(127, 198, 30, 1.0)" />
	<rect x="130" y="20" width="10" height="10" fill="rgba(134, 204, 38, 1.0)" />
	<rect x="140" y="20" width="10" height="10" fill="rgba(118, 190, 25, 1.0)" />
	<rect x="150" y="20" width="10" height="10" fill="rgba(115, 188, 24, 1.0)" />
	<rect x="0" y="30" width="10" height="10" fill="rgba(110, 184, 24, 1.0)" />
	<rect x="10" y="30" width="10" height="10" fill="rgba(104, 178, 24, 1.0)" />
	<rect x="20" y="30" width="10" height="10" fill="rgba(119, 191, 25, 1.0)" />
	<rect x="30" y="30" width="10" height="10" fill="rgba(124, 195, 27, 1.0)" />
	<rect x="40" y="30" width="10" height="10" fill="rgba(106, 180, 24, 1.0)" />
	<rect x="50" y="30" width="10" height="10" fill="rgba(105, 179, 24, 1.0)" />
	<rect x="60" y="30" width="10" height="10" fill="rgba(110, 183, 24, 1.0)" />
	<rect x="70" y="30" width="10" height="10" fill="rgba(124, 195, 27, 1.0)" />
	<rect x="80" y="30" width="10" height="10" fill="rgba(102, 176, 24, 1.0)" />
	<rect x="90" y="30" width="10" height="10" fill="rgba(107, 181, 24, 1.0)" />
	<rect x="100" y="30" width="10" height="10" fill="rgba(124, 195, 27, 1.0)" />
	<rect x="110" y="30" width="10" height="10" fill="rgba(124, 195, 27, 1.0)" />
	<rect x="120" y="30" width="10" height="10" fill="rgba(110, 184, 24, 1.0)" />
	<rect x="130" y="30" width="10" height="10" fill="rgba(104, 178, 24, 1.0)" />
	<rect x="140" y="30" width="10" height="10" fill="rgba(134, 204, 38, 1.0)" />
	<rect x="150" y="30" width="10" height="10" fill="rgba(123, 195, 27, 1.0)" />
	<rect x="0" y="40" width="10" height="10" fill="rgba(115, 188, 24, 1.0)" />
	<rect x="10" y="40" width="10" height="10" fill="rgba(108, 182, 24, 1.0)" />
	<rect x="20" y="40" width="10" height="10" fill="rgba(102, 176, 24, 1.0)" />
	<rect x="30" y="40" width="10" height="10" fill="rgba(110, 184, 24, 1.0)" />
	<rect x="40" y="40" width="10" height="10" fill="rgba(120, 192, 25, 1.0)" />
	<rect x="50" y="40" width="10" height="10" fill="rgba(119, 191, 25, 1.0)" />
	<rect x="60" y="40" width="10" height="10" fill="rgba(96, 171, 24, 1.0)" />
	<rect x="70" y="40" width="10" height="10" fill="rgba(95, 170, 24, 1.0)" />
	<rect x="80" y="40" width="10" height="10" fill="rgba(103, 177, 24, 1.0)" />
	<rect x="90" y="40" width="10" height="10" fill="rgba(112, 185, 24, 1.0)" />
	<rect x="100" y="40" width="10" height="10" fill="rgba(103, 177, 24, 1.0)" />
	<rect x="110" y="40" width="10" height="10" fill="rgba(98, 173, 24, 1.0)" />
	<rect x="120" y="40" width="10" height="10" fill="rgba(120, 192, 25, 1.0)" />
	<rect x="130" y="40" width="10" height="10" fill="rgba(120, 192, 25, 1.0)" />
	<rect x="140" y="40" width="10" height="10" fill="rgba(99, 174, 24, 1.0)" />
	<rect x="150" y="40" width="10" height="10" fill="rgba(96, 171, 24, 1.0)" />
	<rect x="0" y="50" width="10" height="10" fill="rgba(98, 172, 24, 1.0)" />
	<rect x="10" y="50" width="10" height="10" fill="rgba(96, 171, 24, 1.0)" />
	<rect x="20" y="50" width="10" height="10" fill="rgba(102, 176, 24, 1.0)" />
	<rect x="30" y="50" width="10" height="10" fill="rgba(124, 195, 27, 1.0)" />
	<rect x="40" y="50" width="10" height="10" fill="rgba(102, 176, 24, 1.0)" />
	<rect x="50" y="50" width="10" height="10" fill="rgba(95, 170, 24, 1.0)" />
	<rect x="60" y="50" width="10" height="10" fill="rgba(101, 175, 24, 1.0)" />
	<rect x="70" y="50" width="10" height="10" fill="rgba(104, 178, 24, 1.0)" />
	<rect x="80" y="50" width="10" height="10" fill="rgba(102, 176, 24, 1.0)" />
	<rect x="90" y="50" width="10" height="10" fill="rgba(95, 170, 24, 1.0)" />
	<rect x="100" y="50" width="10" height="10" fill="rgba(104, 178, 24, 1.0)" />
	<rect x="110" y="50" width="10" height="10" fill="rgba(106, 180, 24, 1.0)" />
	<rect x="120" y="50" width="10" height="10" fill="rgba(97, 172, 24, 1.0)" />
	<rect x="130" y="50" width="10" height="10" fill="rgba(103, 177, 24, 1.0)" />
	<rect x="140" y="50" width="10" height="10" fill="rgba(100, 175, 24, 1.0)" />
	<rect x="150" y="50" width="10" height="10" fill="rgba(105, 179, 24, 1.0)" />
	<rect x="0" y="60" width="10" height="10" fill="rgba(134, 204, 38, 1.0)" />
	<rect x="10" y="60" width="10" height="10" fill="rgba(134, 204, 38, 1.0)" />
	<rect x="20" y="60" width="10" height="10" fill="rgba(121, 193, 26, 1.0)" />
	<rect x="30" y="60" width="10" height="10" fill="rgba(119, 191, 25, 1.0)" />
	<rect x="40" y="60" width="10" height="10" fill="rgba(110, 183, 24, 1.0)" />
	<rect x="50" y="60" width="10" height="10" fill="rgba(110, 183, 24, 1.0)" />
	<rect x="60" y="60" width="10" height="10" fill="rgba(108, 182, 24, 1.0)" />
	<rect x="70" y="60" width="10" height="10" fill="rgba(112, 185, 24, 1.0)" />
	<rect x="80" y="60" width="10" height="10" fill="rgba(122, 194, 26, 1.0)" />
	<rect x="90" y="60" width="10" height="10" fill="rgba(134, 204, 38, 1.0)" />
	<rect x="100" y="60" width="10" height="10" fill="rgba(116, 188, 24, 1.0)" />
	<rect x="110" y="60" width="10" height="10" fill="rgba(107, 181, 24, 1.0)" />
	<rect x="120" y="60" width="10" height="10" fill="rgba(134, 204, 38, 1.0)" />
	<rect x="130" y="60" width="10" height="10" fill="rgba(134, 204, 38, 1.0)" />
	<rect x="140" y="60" width="10" height="10" fill="rgba(118, 190, 25, 1.0)" />
	<rect x="150" y="60" width="10" height="10" fill="rgba(113, 186, 24, 1.0)" />
	<rect x="0" y="70" width="10" height="10" fill="rgba(104, 178, 24, 1.0)" />
	<rect x="10" y="70" width="10" height="10" fill="rgba(104, 178, 24, 1.0)" />
	<rect x="20" y="70" width="10" height="10" fill="rgba(134, 204, 38, 1.0)" />
	<rect x="30" y="70" width="10" height="10" fill="rgba(134, 204, 38, 1.0)" />
	<rect x="40" y="70" width="10" height="10" fill="rgba(118, 190, 25, 1.0)" />
	<rect x="50" y="70" width="10" height="10" fill="rgba(116, 188, 24, 1.0)" />
	<rect x="60" y="70" width="10" height="10" fill="rgba(124, 195, 27, 1.0)" />
	<rect x="70" y="70" width="10" height="10" fill="rgba(123, 195, 27, 1.0)" />
	<rect x="80" y="70" width="10" height="10" fill="rgba(100, 175, 24, 1.0)" />
	<rect x="90" y="70" width="10" height="10" fill="rgba(103, 177, 24, 1.0)" />
	<rect x="100" y="70" width="10" height="10" fill="rgba(119, 191, 25, 1.0)" />
	<rect x="110" y="70" width="10" height="10" fill="rgba(124, 195, 27, 1.0)" />
	<rect x="120" y="70" width="10" height="10" fill="rgba(116, 188, 24, 1.0)" />
	<rect x="130" y="70" width="10" height="10" fill="rgba(115, 188, 24, 1.0)" />
	<rect x="140" y="70" width="10" height="10" fill="rgba(124, 196, 28, 1.0)" />
	<rect x="150" y="70" width="10" height="10" fill="rgba(123, 195, 27, 1.0)" />
	<rect x="0" y="80" width="10" height="10" fill="rgba(118, 190, 25, 1.0)" />
	<rect x="10" y="80" width="10" height="10" fill="rgba(117, 190, 24, 1.0)" />
	<rect x="20" y="80" width="10" height="10" fill="rgba(98, 172, 24, 1.0)" />
	<rect x="30" y="80" width="10" height="10" fill="rgba(103, 177, 24, 1.0)" />
	<rect x="40" y="80" width="10" height="10" fill="rgba(123, 195, 27, 1.0)" />
	<rect x="50" y="80" width="10" height="10" fill="rgba(116, 188, 24, 1.0)" />
	<rect x="60" y="80" width="10" height="10" fill="rgba(102, 176, 24, 1.0)" />
	<rect x="70" y="80" width="10" height="10" fill="rgba(105, 179, 24, 1.0)" />
	<rect x="80" y="80" width="10" height="10" fill="rgba(103, 177, 24, 1.0)" />
	<rect x="90" y="80" width="10" height="10" fill="rgba(106, 180, 24, 1.0)" />
	<rect x="100" y="80" width="10" height="10" fill="rgba(103, 177, 24, 1.0)" />
	<rect x="110" y="80" width="10" height="10" fill="rgba(97, 172, 24, 1.0)" />
	<rect x="120" y="80" width="10" height="10" fill="rgba(110, 183, 24, 1.0)" />
	<rect x="130" y="80" width="10" height="10" fill="rgba(107, 181, 24, 1.0)" />
	<rect x="140" y="80" width="10" height="10" fill="rgba(99, 173, 24, 1.0)" />
	<rect x="150" y="80" width="10" height="10" fill="rgba(98, 173, 24, 1.0)" />
	<rect x="0" y="90" width="10" height="10" fill="rgba(103, 177, 24, 1.0)" />
	<rect x="10" y="90" width="10" height="10" fill="rgba(107, 181, 24, 1.0)" />
	<rect x="20" y="90" width="10" height="10" fill="rgba(105, 179, 24, 1.0)" />
	<rect x="30" y="90" width="10" height="10" fill="rgba(122, 194, 26, 1.0)" />
	<rect x="40" y="90" width="10" height="10" fill="rgba(95, 170, 24, 1.0)" />
	<rect x="50" y="90" width="10" height="10" fill="rgba(96, 171, 24, 1.0)" />
	<rect x="60" y="90" width="10" height="10" fill="rgba(107, 181, 24, 1.0)" />
	<rect x="70" y="90" width="10" height="10" fill="rgba(114, 187, 24, 1.0)" />
	<rect x="80" y="90" width="10" height="10" fill="rgba(102, 176, 24, 1.0)" />
	<rect x="90" y="90" width="10" height="10" fill="rgba(115, 188, 24, 1.0)" />
	<rect x="100" y="90" width="10" height="10" fill="rgba(134, 204, 38, 1.0)" />
	<rect x="110" y="90" width="10" height="10" fill="rgba(134, 204, 38, 1.0)" />
	<rect x="120" y="90" width="10" height="10" fill="rgba(109, 182, 24, 1.0)" />
	<rect x="130" y="90" width="10" height="10" fill="rgba(117, 190, 24, 1.0)" />
	<rect x="140" y="90" width="10" height="10" fill="rgba(134, 204, 38, 1.0)" />
	<rect x="150" y="90" width="10" height="10" fill="rgba(134, 204, 38, 1.0)" />
	<rect x="0" y="100" width="10" height="10" fill="rgba(123, 195, 27, 1.0)" />
	<rect x="10" y="100" width="10" height="10" fill="rgba(124, 196, 28, 1.0)" />
	<rect x="20" y="100" width="10" height="10" fill="rgba(118, 190, 25, 1.0)" />
	<rect x="30" y="100" width="10" height="10" fill="rgba(118, 190, 25, 1.0)" />
	<rect x="40" y="100" width="10" height="10" fill="rgba(134, 204, 38, 1.0)" />
	<rect x="50" y="100" width="10" height="10" fill="rgba(124, 195, 27, 1.0)" />
	<rect x="60" y="100" width="10" height="10" fill="rgba(118, 190, 25, 1.0)" />
	<rect x="70" y="100" width="10" height="10" fill="rgba(116, 188, 24, 1.0)" />
	<rect x="80" y="100" width="10" height="10" fill="rgba(124, 196, 28, 1.0)" />
	<rect x="90" y="100" width="10" height="10" fill="rgba(122, 194, 26, 1.0)" />
	<rect x="100" y="100" width="10" height="10" fill="rgba(106, 180, 24, 1.0)" />
	<rect x="110" y="100" width="10" height="10" fill="rgba(112, 185, 24, 1.0)" />
	<rect x="120" y="100" width="10" height="10" fill="rgba(115, 188, 24, 1.0)" />
	<rect x="130" y="100" width="10" height="10" fill="rgba(110, 183, 24, 1.0)" />
	<rect x="140" y="100" width="10" height="10" fill="rgba(99, 174, 24, 1.0)" />
	<rect x="150" y="100" width="10" height="10" fill="rgba(110, 184, 24, 1.0)" />
	<rect x="0" y="110" width="10" height="10" fill="rgba(99, 174, 24, 1.0)" />
	<rect x="10" y="110" width="10" height="10" fill="rgba(102, 176, 24, 1.0)" />
	<rect x="20" y="110" width="10" height="10" fill="rgba(114, 187, 24, 1.0)" />
	<rect x="30" y="110" width="10" height="10" fill="rgba(114, 187, 24, 1.0)" />
	<rect x="40" y="110" width="10" height="10" fill="rgba(104, 178, 24, 1.0)" />
	<rect x="50" y="110" width="10" height="10" fill="rgba(105, 179, 24, 1.0)" />
	<rect x="60" y="110" width="10" height="10" fill="rgba(120, 192, 25, 1.0)" />
	<rect x="70" y="110" width="10" height="10" fill="rgba(117, 190, 24, 1.0)" />
	<rect x="80" y="110" width="10" height="10" fill="rgba(100, 175, 24, 1.0)" />
	<rect x="90" y="110" width="10" height="10" fill="rgba(102, 176, 24, 1.0)" />
	<rect x="100" y="110" width="10" height="10" fill="rgba(103, 177, 24, 1.0)" />
	<rect x="110" y="110" width="10" height="10" fill="rgba(115, 188, 24, 1.0)" />
	<rect x="120" y="110" width="10" height="10" fill="rgba(96, 171, 24, 1.0)" />
	<rect x="130" y="110" width="10" height="10" fill="rgba(95, 170, 24, 1.0)" />
	<rect x="140" y="110" width="10" height="10" fill="rgba(105, 179, 24, 1.0)" />
	<rect x="150" y="110" width="10" height="10" fill="rgba(115, 188, 24, 1.0)" />
	<rect x="0" y="120" width="10" height="10" fill="rgba(105, 179, 24, 1.0)" />
	<rect x="10" y="120" width="10" height="10" fill="rgba(104, 178, 24, 1.0)" />
	<rect x="20" y="120" width="10" height="10" fill="rgba(95, 170, 24, 1.0)" />
	<rect x="30" y="120" width="10" height="10" fill="rgba(96, 171, 24, 1.0)" />
	<rect x="40" y="120" width="10" height="10" fill="rgba(123, 195, 27, 1.0)" />
	<rect x="50" y="120" width="10" height="10" fill="rgba(127, 198, 30, 1.0)" />
	<rect x="60" y="120" width="10" height="10" fill="rgba(98, 173, 24, 1.0)" />
	<rect x="70" y="120" width="10" height="10" fill="rgba(95, 170, 24, 1.0)" />
	<rect x="80" y="120" width="10" height="10" fill="rgba(110, 183, 24, 1.0)" />
	<rect x="90" y="120" width="10" height="10" fill="rgba(120, 192, 25, 1.0)" />
	<rect x="100" y="120" width="10" height="10" fill="rgba(112, 185, 24, 1.0)" />
	<rect x="110" y="120" width="10" height="10" fill="rgba(117, 190, 24, 1.0)" />
	<rect x="120" y="120" width="10" height="10" fill="rgba(134, 204, 38, 1.0)" />
	<rect x="130" y="120" width="10" height="10" fill="rgba(134, 204, 38, 1.0)" />
	<rect x="140" y="120" width="10" height="10" fill="rgba(115, 188, 24, 1.0)" />
	<rect x="150" y="120" width="10" height="10" fill="rgba(97, 172, 24, 1.0)" />
	<rect x="0" y="130" width="10" height="10" fill="rgba(117, 190, 24, 1.0)" />
	<rect x="10" y="130" width="10" height="10" fill="rgba(116, 188, 24, 1.0)" />
	<rect x="20" y="130" width="10" height="10" fill="rgba(127, 198, 30, 1.0)" />
	<rect x="30" y="130" width="10" height="10" fill="rgba(134, 204, 38, 1.0)" />
	<rect x="40" y="130" width="10" height="10" fill="rgba(123, 195, 27, 1.0)" />
	<rect x="50" y="130" width="10" height="10" fill="rgba(118, 190, 25, 1.0)" />
	<rect x="60" y="130" width="10" height="10" fill="rgba(112, 185, 24, 1.0)" />
	<rect x="70" y="130" width="10" height="10" fill="rgba(106, 180, 24, 1.0)" />
	<rect x="80" y="130" width="10" height="10" fill="rgba(95, 170, 24, 1.0)" />
	<rect x="90" y="130" width="10" height="10" fill="rgba(109, 182, 24, 1.0)" />
	<rect x="100" y="130" width="10" height="10" fill="rgba(117, 190, 24, 1.0)" />
	<rect x="110" y="130" width="10" height="10" fill="rgba(124, 195, 27, 1.0)" />
	<rect x="120" y="130" width="10" height="10" fill="rgba(108, 182, 24, 1.0)" />
	<rect x="130" y="130" width="10" height="10" fill="rgba(109, 182, 24, 1.0)" />
	<rect x="140" y="130" width="10" height="10" fill="rgba(124, 195, 27, 1.0)" />
	<rect x="150" y="130" width="10" height="10" fill="rgba(134, 204, 38, 1.0)" />
	<rect x="0" y="140" width="10" height="10" fill="rgba(127, 198, 30, 1.0)" />
	<rect x="10" y="140" width="10" height="10" fill="rgba(126, 197, 29, 1.0)" />
	<rect x="20" y="140" width="10" height="10" fill="rgba(110, 184, 24, 1.0)" />
	<rect x="30" y="140" width="10" height="10" fill="rgba(107, 181, 24, 1.0)" />
	<rect x="40" y="140" width="10" height="10" fill="rgba(124, 195, 27, 1.0)" />
	<rect x="50" y="140" width="10" height="10" fill="rgba(112, 185, 24, 1.0)" />
	<rect x="60" y="140" width="10" height="10" fill="rgba(115, 188, 24, 1.0)" />
	<rect x="70" y="140" width="10" height="10" fill="rgba(119, 191, 25, 1.0)" />
	<rect x="80" y="140" width="10" height="10" fill="rgba(134, 204, 38, 1.0)" />
	<rect x="90" y="140" width="10" height="10" fill="rgba(122, 194, 26, 1.0)" />
	<rect x="100" y="140" width="10" height="10" fill="rgba(103, 177, 24, 1.0)" />
	<rect x="110" y="140" width="10" height="10" fill="rgba(103, 177, 24, 1.0)" />
	<rect x="120" y="140" width="10" height="10" fill="rgba(113, 186, 24, 1.0)" />
	<rect x="130" y="140" width="10" height="10" fill="rgba(117, 190, 24, 1.0)" />
	<rect x="140" y="140" width="10" height="10" fill="rgba(105, 179, 24, 1.0)" />
	<rect x="150" y="140" width="10" height="10" fill="rgba(100, 175, 24, 1.0)" />
	<rect x="0" y="150" width="10" height="10" fill="rgba(97, 172, 24, 1.0)" />
	<rect x="10" y="150" width="10" height="10" fill="rgba(102, 176, 24, 1.0)" />
	<rect x="20" y="150" width="10" height="10" fill="rgba(123, 195, 27, 1.0)" />
	<rect x="30" y="150" width="10" height="10" fill="rgba(113, 186, 24, 1.0)" />
	<rect x="40" y="150" width="10" height="10" fill="rgba(100, 175, 24, 1.0)" />
	<rect x="50" y="150" width="10" height="10" fill="rgba(105, 179, 24, 1.0)" />
	<rect x="60" y="150" width="10" height="10" fill="rgba(124, 195, 27, 1.0)" />
	<rect x="70" y="150" width="10" height="10" fill="rgba(127, 198, 30, 1.0)" />
	<rect x="80" y="150" width="10" height="10" fill="rgba(108, 182, 24, 1.0)" />
	<rect x="90" y="150" width="10" height="10" fill="rgba(104, 178, 24, 1.0)" />
	<rect x="100" y="150" width="10" height="10" fill="rgba(116, 188, 24, 1.0)" />
	<rect x="110" y="150" width="10" height="10" fill="rgba(123, 195, 27, 1.0)" />
	<rect x="120" y="150" width="10" height="10" fill="rgba(100, 175, 24, 1.0)" />
	<rect x="130" y="150" width="10" height="10" fill="rgba(102, 176, 24, 1.0)" />
	<rect x="140" y="150" width="10" height="10" fill="rgba(122, 194, 26, 1.0)" />
	<rect x="150" y="150" width="10" height="10" fill="rgba(124, 195, 27, 1.0)" />
</svg>