<svg xmlns="http://www.w3.org/2000/svg" xmlns:xlink="http://www.w3.org/1999/xlink">
	<rect x="0" y="0" width="10" height="10" fill="rgba(56, 56, 56, 1.0)" />
	<rect x="10" y="0" width="10" height="10" fill="rgba(53, 53, 53, 1.0)" />
	<rect x="20" y="0" width="10" height="10" fill="rgba(53, 53, 53, 1.0)" />
	<rect x="30" y="0" width="10" height="10" fill="rgba(51, 51, 51, 1.0)" />
	<rect x="40" y="0" width="10" height="10" fill="rgba(48, 48, 48, 1.0)" />
	<rect x="50" y="0" width="10" height="10" fill="rgba(47, 47, 47, 1.0)" />
	<rect x="60" y="0" width="10" height="10" fill="rgba(59, 59, 59, 1.0)" />
	<rect x="70" y="0" width="10" height="10" fill="rgba(59, 59, 59, 1.0)" />
	<rect x="80" y="0" width="10" height="10" fill="rgba(36, 36, 36, 1.0)" />
	<rect x="90" y="0" width="10" height="10" fill="rgba(59, 59, 59, 1.0)" />
	<rect x="100" y="0" width="10" height="10" fill="rgba(56, 56, 56, 1.0)" />
	<rect x="110" y="0" width="10" height="10" fill="rgba(53, 53, 53, 1.0)" />
	<rect x="120" y="0" width="10" height="10" fill="rgba(59, 59, 59, 1.0)" />
	<rect x="130" y="0" width="10" height="10" fill="rgba(39, 39, 39, 1.0)" />
	<rect x="140" y="0" width="10" height="10" fill="rgba(54, 54, 54, 1.0)" />
	<rect x="150" y="0" width="10" height="10" fill="rgba(50, 50, 50, 1.0)" />
	<rect x="0" y="10" width="10" height="10" fill="rgba(56, 56, 56, 1.0)" />
	<rect x="10" y="10" width="10" height="10" fill="rgba(108, 108, 108, 1.0)" />
	<rect x="20" y="10" width="10" height="10" fill="rgba(90, 90, 90, 1.0)" />
	<rect x="30" y="10" width="10" height="10" fill="rgba(97, 97, 97, 1.0)" />
	<rect x="40" y="10" width="10" height="10" fill="rgba(71, 71, 71, 1.0)" />
	<rect x="50" y="10" width="10" height="10" fill="rgba(87, 87, 87, 1.0)" />
	<rect x="60" y="10" width="10" height="10" fill="rgba(114, 114, 114, 1.0)" />
	<rect x="70" y="10" width="10" height="10" fill="rgba(114, 114, 114, 1.0)" />
	<rect x="80" y="10" width="10" height="10" fill="rgba(76, 76, 76, 1.0)" />
	<rect x="90" y="10" width="10" height="10" fill="rgba(97, 97, 97, 1.0)" />
	<rect x="100" y="10" width="10" height="10" fill="rgba(100, 100, 100, 1.0)" />
	<rect x="110" y="10" width="10" height="10" fill="rgba(97, 97, 97, 1.0)" />
	<rect x="120" y="10" width="10" height="10" fill="rgba(87, 87, 87, 1.0)" />
	<rect x="130" y="10" width="10" height="10" fill="rgba(69, 69, 69, 1.0)" />
	<rect x="140" y="10" width="10" height="10" fill="rgba(86, 86, 86, 1.0)" />
	<rect x="150" y="10" width="10" height="10" fill="rgba(50, 50, 50, 1.0)" />
	<rect x="0" y="20" width="10" height="10" fill="rgba(41, 41, 41, 1.0)" />
	<rect x="10" y="20" width="10" height="10" fill="rgba(82, 82, 82, 1.0)" />
	<rect x="20" y="20" width="10" height="10" fill="rgba(120, 120, 120, 1.0)" />
	<rect x="30" y="20" width="10" height="10" fill="rgba(85, 85, 85, 1.0)" />
	<rect x="40" y="20" width="10" height="10" fill="rgba(98, 98, 98, 1.0)" />
	<rect x="50" y="20" width="10" height="10" fill="rgba(143, 143, 143, 1.0)" />
	<rect x="60" y="20" width="10" height="10" fill="rgba(143, 143, 143, 1.0)" />
	<rect x="70" y="20" width="10" height="10" fill="rgba(122, 122, 122, 1.0)" />
	<rect x="80" y="20" width="10" height="10" fill="rgba(101, 101, 101, 1.0)" />
	<rect x="90" y="20" width="10" height="10" fill="rgba(81, 81, 81, 1.0)" />
	<rect x="100" y="20" width="10" height="10" fill="rgba(132, 132, 132, 1.0)" />
	<rect x="110" y="20" width="10" height="10" fill="rgba(127, 127, 127, 1.0)" />
	<rect x="120" y="20" width="10" height="10" fill="rgba(95, 95, 95, 1.0)" />
	<rect x="130" y="20" width="10" height="10" fill="rgba(120, 120, 120, 1.0)" />
	<rect x="140" y="20" width="10" height="10" fill="rgba(80, 80, 80, 1.0)" />
	<rect x="150" y="20" width="10" height="10" fill="rgba(48, 48, 48, 1.0)" />
	<rect x="0" y="30" width="10" height="10" fill="rgba(59, 59, 59, 1.0)" />
	<rect x="10" y="30" width="10" height="10" fill="rgba(80, 80, 80, 1.0)" />
	<rect x="20" y="30" width="10" height="10" fill="rgba(92, 92, 92, 1.0)" />
	<rect x="30" y="30" width="10" height="10" fill="rgba(111, 111, 111, 1.0)" />
	<rect x="40" y="30" width="10" height="10" fill="rgba(152, 152, 152, 1.0)" />
	<rect x="50" y="30" width="10" height="10" fill="rgba(103, 103, 103, 1.0)" />
	<rect x="60" y="30" width="10" height="10" fill="rgba(122, 122, 122, 1.0)" />
	<rect x="70" y="30" width="10" height="10" fill="rgba(175, 175, 175, 1.0)" />
	<rect x="80" y="30" width="10" height="10" fill="rgba(87, 87, 87, 1.0)" />
	<rect x="90" y="30" width="10" height="10" fill="rgba(110, 110, 110, 1.0)" />
	<rect x="100" y="30" width="10" height="10" fill="rgba(89, 89, 89, 1.0)" />
	<rect x="110" y="30" width="10" height="10" fill="rgba(91, 91, 91, 1.0)" />
	<rect x="120" y="30" width="10" height="10" fill="rgba(105, 105, 105, 1.0)" />
	<rect x="130" y="30" width="10" height="10" fill="rgba(139, 139, 139, 1.0)" />
	<rect x="140" y="30" width="10" height="10" fill="rgba(105, 105, 105, 1.0)" />
	<rect x="150" y="30" width="10" height="10" fill="rgba(41, 41, 41, 1.0)" />
	<rect x="0" y="40" width="10" height="10" fill="rgba(56, 56, 56, 1.0)" />
	<rect x="10" y="40" width="10" height="10" fill="rgba(114, 114, 114, 1.0)" />
	<rect x="20" y="40" width="10" height="10" fill="rgba(120, 120, 120, 1.0)" />
	<rect x="30" y="40" width="10" height="10" fill="rgba(105, 105, 105, 1.0)" />
	<rect x="40" y="40" width="10" height="10" fill="rgba(143, 143, 143, 1.0)" />
	<rect x="50" y="40" width="10" height="10" fill="rgba(123, 123, 123, 1.0)" />
	<rect x="60" y="40" width="10" height="10" fill="rgba(175, 175, 175, 1.0)" />
	<rect x="70" y="40" width="10" height="10" fill="rgba(157, 157, 157, 1.0)" />
	<rect x="80" y="40" width="10" height="10" fill="rgba(101, 101, 101, 1.0)" />
	<rect x="90" y="40" width="10" height="10" fill="rgba(87, 87, 87, 1.0)" />
	<rect x="100" y="40" width="10" height="10" fill="rgba(149, 149, 149, 1.0)" />
	<rect x="110" y="40" width="10" height="10" fill="rgba(148, 148, 148, 1.0)" />
	<rect x="120" y="40" width="10" height="10" fill="rgba(115, 115, 115, 1.0)" />
	<rect x="130" y="40" width="10" height="10" fill="rgba(134, 134, 134, 1.0)" />
	<rect x="140" y="40" width="10" height="10" fill="rgba(112, 112, 112, 1.0)" />
	<rect x="150" y="40" width="10" height="10" fill="rgba(36, 36, 36, 1.0)" />
	<rect x="0" y="50" width="10" height="10" fill="rgba(43, 43, 43, 1.0)" />
	<rect x="10" y="50" width="10" height="10" fill="rgba(89, 89, 89, 1.0)" />
	<rect x="20" y="50" width="10" height="10" fill="rgba(126, 126, 126, 1.0)" />
	<rect x="30" y="50" width="10" height="10" fill="rgba(111, 111, 111, 1.0)" />
	<rect x="40" y="50" width="10" height="10" fill="rgba(124, 124, 124, 1.0)" />
	<rect x="50" y="50" width="10" height="10" fill="rgba(122, 122, 122, 1.0)" />
	<rect x="60" y="50" width="10" height="10" fill="rgba(175, 175, 175, 1.0)" />
	<rect x="70" y="50" width="10" height="10" fill="rgba(143, 143, 143, 1.0)" />
	<rect x="80" y="50" width="10" height="10" fill="rgba(122, 122, 122, 1.0)" />
	<rect x="90" y="50" width="10" height="10" fill="rgba(87, 87, 87, 1.0)" />
	<rect x="100" y="50" width="10" height="10" fill="rgba(124, 124, 124, 1.0)" />
	<rect x="110" y="50" width="10" height="10" fill="rgba(131, 131, 131, 1.0)" />
	<rect x="120" y="50" width="10" height="10" fill="rgba(123, 123, 123, 1.0)" />
	<rect x="130" y="50" width="10" height="10" fill="rgba(101, 101, 101, 1.0)" />
	<rect x="140" y="50" width="10" height="10" fill="rgba(56, 56, 56, 1.0)" />
	<rect x="150" y="50" width="10" height="10" fill="rgba(36, 36, 36, 1.0)" />
	<rect x="0" y="60" width="10" height="10" fill="rgba(50, 50, 50, 1.0)" />
	<rect x="10" y="60" width="10" height="10" fill="rgba(97, 97, 97, 1.0)" />
	<rect x="20" y="60" width="10" height="10" fill="rgba(127, 127, 127, 1.0)" />
	<rect x="30" y="60" width="10" height="10" fill="rgba(111, 111, 111, 1.0)" />
	<rect x="40" y="60" width="10" height="10" fill="rgba(116, 116, 116, 1.0)" />
	<rect x="50" y="60" width="10" height="10" fill="rgba(175, 175, 175, 1.0)" />
	<rect x="60" y="60" width="10" height="10" fill="rgba(157, 157, 157, 1.0)" />
	<rect x="70" y="60" width="10" height="10" fill="rgba(143, 143, 143, 1.0)" />
	<rect x="80" y="60" width="10" height="10" fill="rgba(122, 122, 122, 1.0)" />
	<rect x="90" y="60" width="10" height="10" fill="rgba(101, 101, 101, 1.0)" />
	<rect x="100" y="60" width="10" height="10" fill="rgba(59, 59, 59, 1.0)" />
	<rect x="110" y="60" width="10" height="10" fill="rgba(127, 127, 127, 1.0)" />
	<rect x="120" y="60" width="10" height="10" fill="rgba(130, 130, 130, 1.0)" />
	<rect x="130" y="60" width="10" height="10" fill="rgba(135, 135, 135, 1.0)" />
	<rect x="140" y="60" width="10" height="10" fill="rgba(97, 97, 97, 1.0)" />
	<rect x="150" y="60" width="10" height="10" fill="rgba(35, 35, 35, 1.0)" />
	<rect x="0" y="70" width="10" height="10" fill="rgba(47, 47, 47, 1.0)" />
	<rect x="10" y="70" width="10" height="10" fill="rgba(92, 92, 92, 1.0)" />
	<rect x="20" y="70" width="10" height="10" fill="rgba(91, 91, 91, 1.0)" />
	<rect x="30" y="70" width="10" height="10" fill="rgba(101, 101, 101, 1.0)" />
	<rect x="40" y="70" width="10" height="10" fill="rgba(122, 122, 122, 1.0)" />
	<rect x="50" y="70" width="10" height="10" fill="rgba(175, 175, 175, 1.0)" />
	<rect x="60" y="70" width="10" height="10" fill="rgba(143, 143, 143, 1.0)" />
	<rect x="70" y="70" width="10" height="10" fill="rgba(143, 143, 143, 1.0)" />
	<rect x="80" y="70" width="10" height="10" fill="rgba(122, 122, 122, 1.0)" />
	<rect x="90" y="70" width="10" height="10" fill="rgba(122, 122, 122, 1.0)" />
	<rect x="100" y="70" width="10" height="10" fill="rgba(59, 59, 59, 1.0)" />
	<rect x="110" y="70" width="10" height="10" fill="rgba(124, 124, 124, 1.0)" />
	<rect x="120" y="70" width="10" height="10" fill="rgba(135, 135, 135, 1.0)" />
	<rect x="130" y="70" width="10" height="10" fill="rgba(89, 89, 89, 1.0)" />
	<rect x="140" y="70" width="10" height="10" fill="rgba(97, 97, 97, 1.0)" />
	<rect x="150" y="70" width="10" height="10" fill="rgba(58, 58, 58, 1.0)" />
	<rect x="0" y="80" width="10" height="10" fill="rgba(47, 47, 47, 1.0)" />
	<rect x="10" y="80" width="10" height="10" fill="rgba(68, 68, 68, 1.0)" />
	<rect x="20" y="80" width="10" height="10" fill="rgba(112, 112, 112, 1.0)" />
	<rect x="30" y="80" width="10" height="10" fill="rgba(122, 122, 122, 1.0)" />
	<rect x="40" y="80" width="10" height="10" fill="rgba(175, 175, 175, 1.0)" />
	<rect x="50" y="80" width="10" height="10" fill="rgba(157, 157, 157, 1.0)" />
	<rect x="60" y="80" width="10" height="10" fill="rgba(143, 143, 143, 1.0)" />
	<rect x="70" y="80" width="10" height="10" fill="rgba(143, 143, 143, 1.0)" />
	<rect x="80" y="80" width="10" height="10" fill="rgba(122, 122, 122, 1.0)" />
	<rect x="90" y="80" width="10" height="10" fill="rgba(101, 101, 101, 1.0)" />
	<rect x="100" y="80" width="10" height="10" fill="rgba(87, 87, 87, 1.0)" />
	<rect x="110" y="80" width="10" height="10" fill="rgba(59, 59, 59, 1.0)" />
	<rect x="120" y="80" width="10" height="10" fill="rgba(93, 93, 93, 1.0)" />
	<rect x="130" y="80" width="10" height="10" fill="rgba(75, 75, 75, 1.0)" />
	<rect x="140" y="80" width="10" height="10" fill="rgba(120, 120, 120, 1.0)" />
	<rect x="150" y="80" width="10" height="10" fill="rgba(59, 59, 59, 1.0)" />
	<rect x="0" y="90" width="10" height="10" fill="rgba(41, 41, 41, 1.0)" />
	<rect x="10" y="90" width="10" height="10" fill="rgba(82, 82, 82, 1.0)" />
	<rect x="20" y="90" width="10" height="10" fill="rgba(144, 144, 144, 1.0)" />
	<rect x="30" y="90" width="10" height="10" fill="rgba(146, 146, 146, 1.0)" />
	<rect x="40" y="90" width="10" height="10" fill="rgba(175, 175, 175, 1.0)" />
	<rect x="50" y="90" width="10" height="10" fill="rgba(143, 143, 143, 1.0)" />
	<rect x="60" y="90" width="10" height="10" fill="rgba(143, 143, 143, 1.0)" />
	<rect x="70" y="90" width="10" height="10" fill="rgba(143, 143, 143, 1.0)" />
	<rect x="80" y="90" width="10" height="10" fill="rgba(122, 122, 122, 1.0)" />
	<rect x="90" y="90" width="10" height="10" fill="rgba(101, 101, 101, 1.0)" />
	<rect x="100" y="90" width="10" height="10" fill="rgba(122, 122, 122, 1.0)" />
	<rect x="110" y="90" width="10" height="10" fill="rgba(59, 59, 59, 1.0)" />
	<rect x="120" y="90" width="10" height="10" fill="rgba(107, 107, 107, 1.0)" />
	<rect x="130" y="90" width="10" height="10" fill="rgba(151, 151, 151, 1.0)" />
	<rect x="140" y="90" width="10" height="10" fill="rgba(80, 80, 80, 1.0)" />
	<rect x="150" y="90" width="10" height="10" fill="rgba(48, 48, 48, 1.0)" />
	<rect x="0" y="100" width="10" height="10" fill="rgba(59, 59, 59, 1.0)" />
	<rect x="10" y="100" width="10" height="10" fill="rgba(80, 80, 80, 1.0)" />
	<rect x="20" y="100" width="10" height="10" fill="rgba(119, 119, 119, 1.0)" />
	<rect x="30" y="100" width="10" height="10" fill="rgba(175, 175, 175, 1.0)" />
	<rect x="40" y="100" width="10" height="10" fill="rgba(157, 157, 157, 1.0)" />
	<rect x="50" y="100" width="10" height="10" fill="rgba(143, 143, 143, 1.0)" />
	<rect x="60" y="100" width="10" height="10" fill="rgba(122, 122, 122, 1.0)" />
	<rect x="70" y="100" width="10" height="10" fill="rgba(143, 143, 143, 1.0)" />
	<rect x="80" y="100" width="10" height="10" fill="rgba(101, 101, 101, 1.0)" />
	<rect x="90" y="100" width="10" height="10" fill="rgba(101, 101, 101, 1.0)" />
	<rect x="100" y="100" width="10" height="10" fill="rgba(122, 122, 122, 1.0)" />
	<rect x="110" y="100" width="10" height="10" fill="rgba(87, 87, 87, 1.0)" />
	<rect x="120" y="100" width="10" height="10" fill="rgba(59, 59, 59, 1.0)" />
	<rect x="130" y="100" width="10" height="10" fill="rgba(106, 106, 106, 1.0)" />
	<rect x="140" y="100" width="10" height="10" fill="rgba(105, 105, 105, 1.0)" />
	<rect x="150" y="100" width="10" height="10" fill="rgba(41, 41, 41, 1.0)" />
	<rect x="0" y="110" width="10" height="10" fill="rgba(56, 56, 56, 1.0)" />
	<rect x="10" y="110" width="10" height="10" fill="rgba(114, 114, 114, 1.0)" />
	<rect x="20" y="110" width="10" height="10" fill="rgba(136, 136, 136, 1.0)" />
	<rect x="30" y="110" width="10" height="10" fill="rgba(175, 175, 175, 1.0)" />
	<rect x="40" y="110" width="10" height="10" fill="rgba(143, 143, 143, 1.0)" />
	<rect x="50" y="110" width="10" height="10" fill="rgba(143, 143, 143, 1.0)" />
	<rect x="60" y="110" width="10" height="10" fill="rgba(122, 122, 122, 1.0)" />
	<rect x="70" y="110" width="10" height="10" fill="rgba(126, 126, 126, 1.0)" />
	<rect x="80" y="110" width="10" height="10" fill="rgba(101, 101, 101, 1.0)" />
	<rect x="90" y="110" width="10" height="10" fill="rgba(101, 101, 101, 1.0)" />
	<rect x="100" y="110" width="10" height="10" fill="rgba(101, 101, 101, 1.0)" />
	<rect x="110" y="110" width="10" height="10" fill="rgba(122, 122, 122, 1.0)" />
	<rect x="120" y="110" width="10" height="10" fill="rgba(59, 59, 59, 1.0)" />
	<rect x="130" y="110" width="10" height="10" fill="rgba(106, 106, 106, 1.0)" />
	<rect x="140" y="110" width="10" height="10" fill="rgba(112, 112, 112, 1.0)" />
	<rect x="150" y="110" width="10" height="10" fill="rgba(36, 36, 36, 1.0)" />
	<rect x="0" y="120" width="10" height="10" fill="rgba(43, 43, 43, 1.0)" />
	<rect x="10" y="120" width="10" height="10" fill="rgba(89, 89, 89, 1.0)" />
	<rect x="20" y="120" width="10" height="10" fill="rgba(175, 175, 175, 1.0)" />
	<rect x="30" y="120" width="10" height="10" fill="rgba(157, 157, 157, 1.0)" />
	<rect x="40" y="120" width="10" height="10" fill="rgba(143, 143, 143, 1.0)" />
	<rect x="50" y="120" width="10" height="10" fill="rgba(122, 122, 122, 1.0)" />
	<rect x="60" y="120" width="10" height="10" fill="rgba(122, 122, 122, 1.0)" />
	<rect x="70" y="120" width="10" height="10" fill="rgba(101, 101, 101, 1.0)" />
	<rect x="80" y="120" width="10" height="10" fill="rgba(101, 101, 101, 1.0)" />
	<rect x="90" y="120" width="10" height="10" fill="rgba(101, 101, 101, 1.0)" />
	<rect x="100" y="120" width="10" height="10" fill="rgba(122, 122, 122, 1.0)" />
	<rect x="110" y="120" width="10" height="10" fill="rgba(122, 122, 122, 1.0)" />
	<rect x="120" y="120" width="10" height="10" fill="rgba(87, 87, 87, 1.0)" />
	<rect x="130" y="120" width="10" height="10" fill="rgba(59, 59, 59, 1.0)" />
	<rect x="140" y="120" width="10" height="10" fill="rgba(56, 56, 56, 1.0)" />
	<rect x="150" y="120" width="10" height="10" fill="rgba(36, 36, 36, 1.0)" />
	<rect x="0" y="130" width="10" height="10" fill="rgba(50, 50, 50, 1.0)" />
	<rect x="10" y="130" width="10" height="10" fill="rgba(97, 97, 97, 1.0)" />
	<rect x="20" y="130" width="10" height="10" fill="rgba(157, 157, 157, 1.0)" />
	<rect x="30" y="130" width="10" height="10" fill="rgba(175, 175, 175, 1.0)" />
	<rect x="40" y="130" width="10" height="10" fill="rgba(175, 175, 175, 1.0)" />
	<rect x="50" y="130" width="10" height="10" fill="rgba(175, 175, 175, 1.0)" />
	<rect x="60" y="130" width="10" height="10" fill="rgba(175, 175, 175, 1.0)" />
	<rect x="70" y="130" width="10" height="10" fill="rgba(122, 122, 122, 1.0)" />
	<rect x="80" y="130" width="10" height="10" fill="rgba(122, 122, 122, 1.0)" />
	<rect x="90" y="130" width="10" height="10" fill="rgba(87, 87, 87, 1.0)" />
	<rect x="100" y="130" width="10" height="10" fill="rgba(87, 87, 87, 1.0)" />
	<rect x="110" y="130" width="10" height="10" fill="rgba(59, 59, 59, 1.0)" />
	<rect x="120" y="130" width="10" height="10" fill="rgba(59, 59, 59, 1.0)" />
	<rect x="130" y="130" width="10" height="10" fill="rgba(59, 59, 59, 1.0)" />
	<rect x="140" y="130" width="10" height="10" fill="rgba(87, 87, 87, 1.0)" />
	<rect x="150" y="130" width="10" height="10" fill="rgba(35, 35, 35, 1.0)" />
	<rect x="0" y="140" width="10" height="10" fill="rgba(56, 56, 56, 1.0)" />
	<rect x="10" y="140" width="10" height="10" fill="rgba(108, 108, 108, 1.0)" />
	<rect x="20" y="140" width="10" height="10" fill="rgba(90, 90, 90, 1.0)" />
	<rect x="30" y="140" width="10" height="10" fill="rgba(97, 97, 97, 1.0)" />
	<rect x="40" y="140" width="10" height="10" fill="rgba(71, 71, 71, 1.0)" />
	<rect x="50" y="140" width="10" height="10" fill="rgba(87, 87, 87, 1.0)" />
	<rect x="60" y="140" width="10" height="10" fill="rgba(87, 87, 87, 1.0)" />
	<rect x="70" y="140" width="10" height="10" fill="rgba(114, 114, 114, 1.0)" />
	<rect x="80" y="140" width="10" height="10" fill="rgba(101, 101, 101, 1.0)" />
	<rect x="90" y="140" width="10" height="10" fill="rgba(97, 97, 97, 1.0)" />
	<rect x="100" y="140" width="10" height="10" fill="rgba(100, 100, 100, 1.0)" />
	<rect x="110" y="140" width="10" height="10" fill="rgba(101, 101, 101, 1.0)" />
	<rect x="120" y="140" width="10" height="10" fill="rgba(87, 87, 87, 1.0)" />
	<rect x="130" y="140" width="10" height="10" fill="rgba(87, 87, 87, 1.0)" />
	<rect x="140" y="140" width="10" height="10" fill="rgba(86, 86, 86, 1.0)" />
	<rect x="150" y="140" width="10" height="10" fill="rgba(50, 50, 50, 1.0)" />
	<rect x="0" y="150" width="10" height="10" fill="rgba(56, 56, 56, 1.0)" />
	<rect x="10" y="150" width="10" height="10" fill="rgba(53, 53, 53, 1.0)" />
	<rect x="20" y="150" width="10" height="10" fill="rgba(53, 53, 53, 1.0)" />
	<rect x="30" y="150" width="10" height="10" fill="rgba(51, 51, 51, 1.0)" />
	<rect x="40" y="150" width="10" height="10" fill="rgba(48, 48, 48, 1.0)" />
	<rect x="50" y="150" width="10" height="10" fill="rgba(47, 47, 47, 1.0)" />
	<rect x="60" y="150" width="10" height="10" fill="rgba(87, 87, 87, 1.0)" />
	<rect x="70" y="150" width="10" height="10" fill="rgba(59, 59, 59, 1.0)" />
	<rect x="80" y="150" width="10" height="10" fill="rgba(36, 36, 36, 1.0)" />
	<rect x="90" y="150" width="10" height="10" fill="rgba(59, 59, 59, 1.0)" />
	<rect x="100" y="150" width="10" height="10" fill="rgba(56, 56, 56, 1.0)" />
	<rect x="110" y="150" width="10" height="10" fill="rgba(53, 53, 53, 1.0)" />
	<rect x="120" y="150" width="10" height="10" fill="rgba(59, 59, 59, 1.0)" />
	<rect x="130" y="150" width="10" height="10" fill="rgba(39, 39, 39, 1.0)" />
	<rect x="140" y="150" width="10" height="10" fill="rgba(54, 54, 54, 1.0)" />
	<rect x="150" y="150" width="10" height="10" fill="rgba(50, 50, 50, 1.0)" />
</svg>