<svg xmlns="http://www.w3.org/2000/svg" xmlns:xlink="http://www.w3.org/1999/xlink">
	<rect x="0" y="0" width="10" height="10" fill="rgba(226, 137, 44, 1.0)" />
	<rect x="10" y="0" width="10" height="10" fill="rgba(228, 127, 25, 1.0)" />
	<rect x="20" y="0" width="10" height="10" fill="rgba(226, 125, 22, 1.0)" />
	<rect x="30" y="0" width="10" height="10" fill="rgba(230, 137, 37, 1.0)" />
	<rect x="40" y="0" width="10" height="10" fill="rgba(227, 126, 21, 1.0)" />
	<rect x="50" y="0" width="10" height="10" fill="rgba(222, 121, 19, 1.0)" />
	<rect x="60" y="0" width="10" height="10" fill="rgba(228, 137, 40, 1.0)" />
	<rect x="70" y="0" width="10" height="10" fill="rgba(228, 132, 34, 1.0)" />
	<rect x="80" y="0" width="10" height="10" fill="rgba(230, 133, 31, 1.0)" />
	<rect x="90" y="0" width="10" height="10" fill="rgba(225, 125, 24, 1.0)" />
	<rect x="100" y="0" width="10" height="10" fill="rgba(221, 121, 19, 1.0)" />
	<rect x="110" y="0" width="10" height="10" fill="rgba(230, 134, 35, 1.0)" />
	<rect x="120" y="0" width="10" height="10" fill="rgba(228, 130, 30, 1.0)" />
	<rect x="130" y="0" width="10" height="10" fill="rgba(241, 142, 34, 1.0)" />
	<rect x="140" y="0" width="10" height="10" fill="rgba(217, 120, 24, 1.0)" />
	<rect x="150" y="0" width="10" height="10" fill="rgba(230, 137, 40, 1.0)" />
	<rect x="0" y="10" width="10" height="10" fill="rgba(228, 128, 28, 1.0)" />
	<rect x="10" y="10" width="10" height="10" fill="rgba(222, 122, 21, 1.0)" />
	<rect x="20" y="10" width="10" height="10" fill="rgba(234, 142, 41, 1.0)" />
	<rect x="30" y="10" width="10" height="10" fill="rgba(231, 132, 30, 1.0)" />
	<rect x="40" y="10" width="10" height="10" fill="rgba(216, 121, 30, 1.0)" />
	<rect x="50" y="10" width="10" height="10" fill="rgba(226, 131, 35, 1.0)" />
	<rect x="60" y="10" width="10" height="10" fill="rgba(226, 132, 37, 1.0)" />
	<rect x="70" y="10" width="10" height="10" fill="rgba(223, 126, 28, 1.0)" />
	<rect x="80" y="10" width="10" height="10" fill="rgba(237, 144, 41, 1.0)" />
	<rect x="90" y="10" width="10" height="10" fill="rgba(235, 141, 41, 1.0)" />
	<rect x="100" y="10" width="10" height="10" fill="rgba(241, 139, 27, 1.0)" />
	<rect x="110" y="10" width="10" height="10" fill="rgba(222, 121, 19, 1.0)" />
	<rect x="120" y="10" width="10" height="10" fill="rgba(235, 179, 77, 1.0)" />
	<rect x="130" y="10" width="10" height="10" fill="rgba(223, 125, 25, 1.0)" />
	<rect x="140" y="10" width="10" height="10" fill="rgba(235, 174, 73, 1.0)" />
	<rect x="150" y="10" width="10" height="10" fill="rgba(234, 137, 35, 1.0)" />
	<rect x="0" y="20" width="10" height="10" fill="rgba(227, 126, 24, 1.0)" />
	<rect x="10" y="20" width="10" height="10" fill="rgba(239, 148, 45, 1.0)" />
	<rect x="20" y="20" width="10" height="10" fill="rgba(239, 142, 34, 1.0)" />
	<rect x="30" y="20" width="10" height="10" fill="rgba(228, 132, 35, 1.0)" />
	<rect x="40" y="20" width="10" height="10" fill="rgba(223, 125, 25, 1.0)" />
	<rect x="50" y="20" width="10" height="10" fill="rgba(224, 127, 25, 1.0)" />
	<rect x="60" y="20" width="10" height="10" fill="rgba(234, 179, 78, 1.0)" />
	<rect x="70" y="20" width="10" height="10" fill="rgba(232, 140, 41, 1.0)" />
	<rect x="80" y="20" width="10" height="10" fill="rgba(222, 121, 19, 1.0)" />
	<rect x="90" y="20" width="10" height="10" fill="rgba(225, 121, 18, 1.0)" />
	<rect x="100" y="20" width="10" height="10" fill="rgba(232, 134, 33, 1.0)" />
	<rect x="110" y="20" width="10" height="10" fill="rgba(228, 127, 24, 1.0)" />
	<rect x="120" y="20" width="10" height="10" fill="rgba(233, 144, 47, 1.0)" />
	<rect x="130" y="20" width="10" height="10" fill="rgba(229, 145, 51, 1.0)" />
	<rect x="140" y="20" width="10" height="10" fill="rgba(220, 121, 21, 1.0)" />
	<rect x="150" y="20" width="10" height="10" fill="rgba(236, 136, 27, 1.0)" />
	<rect x="0" y="30" width="10" height="10" fill="rgba(221, 125, 27, 1.0)" />
	<rect x="10" y="30" width="10" height="10" fill="rgba(221, 121, 21, 1.0)" />
	<rect x="20" y="30" width="10" height="10" fill="rgba(220, 120, 18, 1.0)" />
	<rect x="30" y="30" width="10" height="10" fill="rgba(232, 139, 40, 1.0)" />
	<rect x="40" y="30" width="10" height="10" fill="rgba(216, 116, 15, 1.0)" />
	<rect x="50" y="30" width="10" height="10" fill="rgba(232, 138, 40, 1.0)" />
	<rect x="60" y="30" width="10" height="10" fill="rgba(231, 175, 76, 1.0)" />
	<rect x="70" y="30" width="10" height="10" fill="rgba(225, 125, 24, 1.0)" />
	<rect x="80" y="30" width="10" height="10" fill="rgba(206, 111, 22, 1.0)" />
	<rect x="90" y="30" width="10" height="10" fill="rgba(223, 126, 27, 1.0)" />
	<rect x="100" y="30" width="10" height="10" fill="rgba(221, 120, 18, 1.0)" />
	<rect x="110" y="30" width="10" height="10" fill="rgba(227, 126, 24, 1.0)" />
	<rect x="120" y="30" width="10" height="10" fill="rgba(232, 132, 31, 1.0)" />
	<rect x="130" y="30" width="10" height="10" fill="rgba(231, 131, 30, 1.0)" />
	<rect x="140" y="30" width="10" height="10" fill="rgba(226, 127, 28, 1.0)" />
	<rect x="150" y="30" width="10" height="10" fill="rgba(221, 131, 40, 1.0)" />
	<rect x="0" y="40" width="10" height="10" fill="rgba(237, 148, 47, 1.0)" />
	<rect x="10" y="40" width="10" height="10" fill="rgba(230, 141, 45, 1.0)" />
	<rect x="20" y="40" width="10" height="10" fill="rgba(231, 132, 28, 1.0)" />
	<rect x="30" y="40" width="10" height="10" fill="rgba(227, 132, 34, 1.0)" />
	<rect x="40" y="40" width="10" height="10" fill="rgba(238, 149, 48, 1.0)" />
	<rect x="50" y="40" width="10" height="10" fill="rgba(229, 128, 25, 1.0)" />
	<rect x="60" y="40" width="10" height="10" fill="rgba(227, 126, 21, 1.0)" />
	<rect x="70" y="40" width="10" height="10" fill="rgba(235, 139, 38, 1.0)" />
	<rect x="80" y="40" width="10" height="10" fill="rgba(218, 118, 18, 1.0)" />
	<rect x="90" y="40" width="10" height="10" fill="rgba(224, 130, 34, 1.0)" />
	<rect x="100" y="40" width="10" height="10" fill="rgba(228, 137, 40, 1.0)" />
	<rect x="110" y="40" width="10" height="10" fill="rgba(229, 128, 25, 1.0)" />
	<rect x="120" y="40" width="10" height="10" fill="rgba(229, 133, 37, 1.0)" />
	<rect x="130" y="40" width="10" height="10" fill="rgba(213, 114, 19, 1.0)" />
	<rect x="140" y="40" width="10" height="10" fill="rgba(234, 134, 31, 1.0)" />
	<rect x="150" y="40" width="10" height="10" fill="rgba(224, 132, 38, 1.0)" />
	<rect x="0" y="50" width="10" height="10" fill="rgba(227, 137, 44, 1.0)" />
	<rect x="10" y="50" width="10" height="10" fill="rgba(226, 126, 25, 1.0)" />
	<rect x="20" y="50" width="10" height="10" fill="rgba(216, 118, 18, 1.0)" />
	<rect x="30" y="50" width="10" height="10" fill="rgba(247, 155, 43, 1.0)" />
	<rect x="40" y="50" width="10" height="10" fill="rgba(231, 149, 54, 1.0)" />
	<rect x="50" y="50" width="10" height="10" fill="rgba(228, 127, 22, 1.0)" />
	<rect x="60" y="50" width="10" height="10" fill="rgba(226, 126, 25, 1.0)" />
	<rect x="70" y="50" width="10" height="10" fill="rgba(234, 145, 45, 1.0)" />
	<rect x="80" y="50" width="10" height="10" fill="rgba(226, 127, 28, 1.0)" />
	<rect x="90" y="50" width="10" height="10" fill="rgba(234, 134, 31, 1.0)" />
	<rect x="100" y="50" width="10" height="10" fill="rgba(223, 122, 21, 1.0)" />
	<rect x="110" y="50" width="10" height="10" fill="rgba(212, 114, 16, 1.0)" />
	<rect x="120" y="50" width="10" height="10" fill="rgba(223, 127, 30, 1.0)" />
	<rect x="130" y="50" width="10" height="10" fill="rgba(220, 122, 24, 1.0)" />
	<rect x="140" y="50" width="10" height="10" fill="rgba(233, 146, 48, 1.0)" />
	<rect x="150" y="50" width="10" height="10" fill="rgba(213, 115, 21, 1.0)" />
	<rect x="0" y="60" width="10" height="10" fill="rgba(220, 132, 41, 1.0)" />
	<rect x="10" y="60" width="10" height="10" fill="rgba(228, 128, 28, 1.0)" />
	<rect x="20" y="60" width="10" height="10" fill="rgba(226, 132, 38, 1.0)" />
	<rect x="30" y="60" width="10" height="10" fill="rgba(231, 138, 40, 1.0)" />
	<rect x="40" y="60" width="10" height="10" fill="rgba(213, 116, 22, 1.0)" />
	<rect x="50" y="60" width="10" height="10" fill="rgba(231, 134, 35, 1.0)" />
	<rect x="60" y="60" width="10" height="10" fill="rgba(222, 122, 22, 1.0)" />
	<rect x="70" y="60" width="10" height="10" fill="rgba(219, 120, 19, 1.0)" />
	<rect x="80" y="60" width="10" height="10" fill="rgba(229, 137, 40, 1.0)" />
	<rect x="90" y="60" width="10" height="10" fill="rgba(228, 133, 37, 1.0)" />
	<rect x="100" y="60" width="10" height="10" fill="rgba(234, 136, 34, 1.0)" />
	<rect x="110" y="60" width="10" height="10" fill="rgba(235, 128, 18, 1.0)" />
	<rect x="120" y="60" width="10" height="10" fill="rgba(234, 151, 52, 1.0)" />
	<rect x="130" y="60" width="10" height="10" fill="rgba(228, 127, 22, 1.0)" />
	<rect x="140" y="60" width="10" height="10" fill="rgba(228, 132, 31, 1.0)" />
	<rect x="150" y="60" width="10" height="10" fill="rgba(221, 119, 18, 1.0)" />
	<rect x="0" y="70" width="10" height="10" fill="rgba(223, 122, 21, 1.0)" />
	<rect x="10" y="70" width="10" height="10" fill="rgba(232, 145, 48, 1.0)" />
	<rect x="20" y="70" width="10" height="10" fill="rgba(232, 132, 31, 1.0)" />
	<rect x="30" y="70" width="10" height="10" fill="rgba(219, 116, 14, 1.0)" />
	<rect x="40" y="70" width="10" height="10" fill="rgba(229, 132, 34, 1.0)" />
	<rect x="50" y="70" width="10" height="10" fill="rgba(216, 116, 15, 1.0)" />
	<rect x="60" y="70" width="10" height="10" fill="rgba(234, 138, 37, 1.0)" />
	<rect x="70" y="70" width="10" height="10" fill="rgba(233, 130, 21, 1.0)" />
	<rect x="80" y="70" width="10" height="10" fill="rgba(227, 130, 28, 1.0)" />
	<rect x="90" y="70" width="10" height="10" fill="rgba(218, 120, 19, 1.0)" />
	<rect x="100" y="70" width="10" height="10" fill="rgba(221, 122, 22, 1.0)" />
	<rect x="110" y="70" width="10" height="10" fill="rgba(225, 128, 33, 1.0)" />
	<rect x="120" y="70" width="10" height="10" fill="rgba(223, 121, 18, 1.0)" />
	<rect x="130" y="70" width="10" height="10" fill="rgba(229, 131, 30, 1.0)" />
	<rect x="140" y="70" width="10" height="10" fill="rgba(241, 148, 43, 1.0)" />
	<rect x="150" y="70" width="10" height="10" fill="rgba(227, 125, 19, 1.0)" />
	<rect x="0" y="80" width="10" height="10" fill="rgba(226, 126, 24, 1.0)" />
	<rect x="10" y="80" width="10" height="10" fill="rgba(230, 133, 33, 1.0)" />
	<rect x="20" y="80" width="10" height="10" fill="rgba(241, 156, 54, 1.0)" />
	<rect x="30" y="80" width="10" height="10" fill="rgba(233, 134, 34, 1.0)" />
	<rect x="40" y="80" width="10" height="10" fill="rgba(228, 128, 27, 1.0)" />
	<rect x="50" y="80" width="10" height="10" fill="rgba(220, 121, 21, 1.0)" />
	<rect x="60" y="80" width="10" height="10" fill="rgba(234, 136, 34, 1.0)" />
	<rect x="70" y="80" width="10" height="10" fill="rgba(229, 131, 30, 1.0)" />
	<rect x="80" y="80" width="10" height="10" fill="rgba(220, 120, 19, 1.0)" />
	<rect x="90" y="80" width="10" height="10" fill="rgba(237, 131, 18, 1.0)" />
	<rect x="100" y="80" width="10" height="10" fill="rgba(223, 133, 41, 1.0)" />
	<rect x="110" y="80" width="10" height="10" fill="rgba(222, 121, 19, 1.0)" />
	<rect x="120" y="80" width="10" height="10" fill="rgba(219, 118, 15, 1.0)" />
	<rect x="130" y="80" width="10" height="10" fill="rgba(232, 138, 38, 1.0)" />
	<rect x="140" y="80" width="10" height="10" fill="rgba(229, 132, 33, 1.0)" />
	<rect x="150" y="80" width="10" height="10" fill="rgba(226, 127, 27, 1.0)" />
	<rect x="0" y="90" width="10" height="10" fill="rgba(218, 124, 31, 1.0)" />
	<rect x="10" y="90" width="10" height="10" fill="rgba(228, 132, 35, 1.0)" />
	<rect x="20" y="90" width="10" height="10" fill="rgba(235, 141, 41, 1.0)" />
	<rect x="30" y="90" width="10" height="10" fill="rgba(228, 132, 34, 1.0)" />
	<rect x="40" y="90" width="10" height="10" fill="rgba(223, 125, 25, 1.0)" />
	<rect x="50" y="90" width="10" height="10" fill="rgba(227, 127, 27, 1.0)" />
	<rect x="60" y="90" width="10" height="10" fill="rgba(221, 124, 25, 1.0)" />
	<rect x="70" y="90" width="10" height="10" fill="rgba(220, 122, 24, 1.0)" />
	<rect x="80" y="90" width="10" height="10" fill="rgba(225, 126, 25, 1.0)" />
	<rect x="90" y="90" width="10" height="10" fill="rgba(228, 131, 31, 1.0)" />
	<rect x="100" y="90" width="10" height="10" fill="rgba(235, 180, 78, 1.0)" />
	<rect x="110" y="90" width="10" height="10" fill="rgba(229, 126, 19, 1.0)" />
	<rect x="120" y="90" width="10" height="10" fill="rgba(230, 137, 38, 1.0)" />
	<rect x="130" y="90" width="10" height="10" fill="rgba(225, 122, 18, 1.0)" />
	<rect x="140" y="90" width="10" height="10" fill="rgba(227, 130, 33, 1.0)" />
	<rect x="150" y="90" width="10" height="10" fill="rgba(232, 134, 33, 1.0)" />
	<rect x="0" y="100" width="10" height="10" fill="rgba(226, 127, 27, 1.0)" />
	<rect x="10" y="100" width="10" height="10" fill="rgba(225, 124, 21, 1.0)" />
	<rect x="20" y="100" width="10" height="10" fill="rgba(201, 108, 19, 1.0)" />
	<rect x="30" y="100" width="10" height="10" fill="rgba(229, 130, 25, 1.0)" />
	<rect x="40" y="100" width="10" height="10" fill="rgba(218, 121, 27, 1.0)" />
	<rect x="50" y="100" width="10" height="10" fill="rgba(237, 142, 40, 1.0)" />
	<rect x="60" y="100" width="10" height="10" fill="rgba(226, 128, 30, 1.0)" />
	<rect x="70" y="100" width="10" height="10" fill="rgba(228, 132, 31, 1.0)" />
	<rect x="80" y="100" width="10" height="10" fill="rgba(237, 139, 35, 1.0)" />
	<rect x="90" y="100" width="10" height="10" fill="rgba(231, 128, 24, 1.0)" />
	<rect x="100" y="100" width="10" height="10" fill="rgba(228, 126, 22, 1.0)" />
	<rect x="110" y="100" width="10" height="10" fill="rgba(220, 121, 21, 1.0)" />
	<rect x="120" y="100" width="10" height="10" fill="rgba(233, 146, 48, 1.0)" />
	<rect x="130" y="100" width="10" height="10" fill="rgba(246, 153, 41, 1.0)" />
	<rect x="140" y="100" width="10" height="10" fill="rgba(228, 136, 38, 1.0)" />
	<rect x="150" y="100" width="10" height="10" fill="rgba(225, 127, 27, 1.0)" />
	<rect x="0" y="110" width="10" height="10" fill="rgba(218, 119, 21, 1.0)" />
	<rect x="10" y="110" width="10" height="10" fill="rgba(232, 133, 33, 1.0)" />
	<rect x="20" y="110" width="10" height="10" fill="rgba(233, 138, 37, 1.0)" />
	<rect x="30" y="110" width="10" height="10" fill="rgba(219, 121, 24, 1.0)" />
	<rect x="40" y="110" width="10" height="10" fill="rgba(232, 140, 41, 1.0)" />
	<rect x="50" y="110" width="10" height="10" fill="rgba(228, 134, 37, 1.0)" />
	<rect x="60" y="110" width="10" height="10" fill="rgba(226, 127, 28, 1.0)" />
	<rect x="70" y="110" width="10" height="10" fill="rgba(228, 132, 35, 1.0)" />
	<rect x="80" y="110" width="10" height="10" fill="rgba(231, 136, 37, 1.0)" />
	<rect x="90" y="110" width="10" height="10" fill="rgba(231, 137, 37, 1.0)" />
	<rect x="100" y="110" width="10" height="10" fill="rgba(234, 171, 72, 1.0)" />
	<rect x="110" y="110" width="10" height="10" fill="rgba(243, 152, 44, 1.0)" />
	<rect x="120" y="110" width="10" height="10" fill="rgba(228, 137, 40, 1.0)" />
	<rect x="130" y="110" width="10" height="10" fill="rgba(222, 124, 25, 1.0)" />
	<rect x="140" y="110" width="10" height="10" fill="rgba(223, 127, 31, 1.0)" />
	<rect x="150" y="110" width="10" height="10" fill="rgba(220, 131, 40, 1.0)" />
	<rect x="0" y="120" width="10" height="10" fill="rgba(232, 131, 27, 1.0)" />
	<rect x="10" y="120" width="10" height="10" fill="rgba(224, 124, 22, 1.0)" />
	<rect x="20" y="120" width="10" height="10" fill="rgba(221, 124, 25, 1.0)" />
	<rect x="30" y="120" width="10" height="10" fill="rgba(230, 128, 24, 1.0)" />
	<rect x="40" y="120" width="10" height="10" fill="rgba(232, 139, 40, 1.0)" />
	<rect x="50" y="120" width="10" height="10" fill="rgba(230, 141, 45, 1.0)" />
	<rect x="60" y="120" width="10" height="10" fill="rgba(235, 145, 45, 1.0)" />
	<rect x="70" y="120" width="10" height="10" fill="rgba(218, 127, 35, 1.0)" />
	<rect x="80" y="120" width="10" height="10" fill="rgba(224, 133, 41, 1.0)" />
	<rect x="90" y="120" width="10" height="10" fill="rgba(230, 136, 37, 1.0)" />
	<rect x="100" y="120" width="10" height="10" fill="rgba(228, 133, 35, 1.0)" />
	<rect x="110" y="120" width="10" height="10" fill="rgba(216, 118, 16, 1.0)" />
	<rect x="120" y="120" width="10" height="10" fill="rgba(225, 121, 18, 1.0)" />
	<rect x="130" y="120" width="10" height="10" fill="rgba(237, 146, 44, 1.0)" />
	<rect x="140" y="120" width="10" height="10" fill="rgba(220, 121, 24, 1.0)" />
	<rect x="150" y="120" width="10" height="10" fill="rgba(233, 177, 77, 1.0)" />
	<rect x="0" y="130" width="10" height="10" fill="rgba(222, 119, 16, 1.0)" />
	<rect x="10" y="130" width="10" height="10" fill="rgba(231, 131, 30, 1.0)" />
	<rect x="20" y="130" width="10" height="10" fill="rgba(221, 125, 27, 1.0)" />
	<rect x="30" y="130" width="10" height="10" fill="rgba(205, 109, 18, 1.0)" />
	<rect x="40" y="130" width="10" height="10" fill="rgba(224, 128, 33, 1.0)" />
	<rect x="50" y="130" width="10" height="10" fill="rgba(225, 130, 34, 1.0)" />
	<rect x="60" y="130" width="10" height="10" fill="rgba(231, 145, 50, 1.0)" />
	<rect x="70" y="130" width="10" height="10" fill="rgba(238, 142, 37, 1.0)" />
	<rect x="80" y="130" width="10" height="10" fill="rgba(234, 141, 41, 1.0)" />
	<rect x="90" y="130" width="10" height="10" fill="rgba(235, 136, 28, 1.0)" />
	<rect x="100" y="130" width="10" height="10" fill="rgba(236, 142, 41, 1.0)" />
	<rect x="110" y="130" width="10" height="10" fill="rgba(224, 124, 21, 1.0)" />
	<rect x="120" y="130" width="10" height="10" fill="rgba(228, 127, 25, 1.0)" />
	<rect x="130" y="130" width="10" height="10" fill="rgba(223, 126, 25, 1.0)" />
	<rect x="140" y="130" width="10" height="10" fill="rgba(236, 142, 41, 1.0)" />
	<rect x="150" y="130" width="10" height="10" fill="rgba(225, 127, 27, 1.0)" />
	<rect x="0" y="140" width="10" height="10" fill="rgba(231, 133, 31, 1.0)" />
	<rect x="10" y="140" width="10" height="10" fill="rgba(231, 138, 40, 1.0)" />
	<rect x="20" y="140" width="10" height="10" fill="rgba(226, 130, 33, 1.0)" />
	<rect x="30" y="140" width="10" height="10" fill="rgba(222, 125, 28, 1.0)" />
	<rect x="40" y="140" width="10" height="10" fill="rgba(228, 130, 30, 1.0)" />
	<rect x="50" y="140" width="10" height="10" fill="rgba(222, 122, 22, 1.0)" />
	<rect x="60" y="140" width="10" height="10" fill="rgba(223, 122, 21, 1.0)" />
	<rect x="70" y="140" width="10" height="10" fill="rgba(225, 122, 19, 1.0)" />
	<rect x="80" y="140" width="10" height="10" fill="rgba(226, 134, 41, 1.0)" />
	<rect x="90" y="140" width="10" height="10" fill="rgba(233, 140, 41, 1.0)" />
	<rect x="100" y="140" width="10" height="10" fill="rgba(216, 124, 31, 1.0)" />
	<rect x="110" y="140" width="10" height="10" fill="rgba(224, 127, 27, 1.0)" />
	<rect x="120" y="140" width="10" height="10" fill="rgba(230, 130, 28, 1.0)" />
	<rect x="130" y="140" width="10" height="10" fill="rgba(228, 147, 52, 1.0)" />
	<rect x="140" y="140" width="10" height="10" fill="rgba(223, 126, 30, 1.0)" />
	<rect x="150" y="140" width="10" height="10" fill="rgba(227, 127, 25, 1.0)" />
	<rect x="0" y="150" width="10" height="10" fill="rgba(229, 136, 38, 1.0)" />
	<rect x="10" y="150" width="10" height="10" fill="rgba(228, 126, 24, 1.0)" />
	<rect x="20" y="150" width="10" height="10" fill="rgba(233, 177, 77, 1.0)" />
	<rect x="30" y="150" width="10" height="10" fill="rgba(224, 140, 47, 1.0)" />
	<rect x="40" y="150" width="10" height="10" fill="rgba(240, 138, 25, 1.0)" />
	<rect x="50" y="150" width="10" height="10" fill="rgba(228, 132, 31, 1.0)" />
	<rect x="60" y="150" width="10" height="10" fill="rgba(222, 128, 34, 1.0)" />
	<rect x="70" y="150" width="10" height="10" fill="rgba(231, 130, 25, 1.0)" />
	<rect x="80" y="150" width="10" height="10" fill="rgba(229, 134, 37, 1.0)" />
	<rect x="90" y="150" width="10" height="10" fill="rgba(235, 136, 30, 1.0)" />
	<rect x="100" y="150" width="10" height="10" fill="rgba(220, 122, 24, 1.0)" />
	<rect x="110" y="150" width="10" height="10" fill="rgba(224, 122, 21, 1.0)" />
	<rect x="120" y="150" width="10" height="10" fill="rgba(231, 136, 37, 1.0)" />
	<rect x="130" y="150" width="10" height="10" fill="rgba(232, 139, 41, 1.0)" />
	<rect x="140" y="150" width="10" height="10" fill="rgba(222, 124, 22, 1.0)" />
	<rect x="150" y="150" width="10" height="10" fill="rgba(213, 115, 18, 1.0)" />
</svg>