<svg xmlns="http://www.w3.org/2000/svg" xmlns:xlink="http://www.w3.org/1999/xlink">
	<rect x="0" y="0" width="10" height="10" fill="rgba(232, 104, 7, 1.0)" />
	<rect x="10" y="0" width="10" height="10" fill="rgba(236, 109, 11, 1.0)" />
	<rect x="20" y="0" width="10" height="10" fill="rgba(230, 102, 5, 1.0)" />
	<rect x="30" y="0" width="10" height="10" fill="rgba(231, 104, 7, 1.0)" />
	<rect x="40" y="0" width="10" height="10" fill="rgba(241, 115, 17, 1.0)" />
	<rect x="50" y="0" width="10" height="10" fill="rgba(248, 125, 27, 1.0)" />
	<rect x="60" y="0" width="10" height="10" fill="rgba(233, 105, 8, 1.0)" />
	<rect x="70" y="0" width="10" height="10" fill="rgba(234, 107, 10, 1.0)" />
	<rect x="80" y="0" width="10" height="10" fill="rgba(245, 121, 23, 1.0)" />
	<rect x="90" y="0" width="10" height="10" fill="rgba(247, 123, 25, 1.0)" />
	<rect x="100" y="0" width="10" height="10" fill="rgba(227, 99, 2, 1.0)" />
	<rect x="110" y="0" width="10" height="10" fill="rgba(231, 103, 6, 1.0)" />
	<rect x="120" y="0" width="10" height="10" fill="rgba(243, 117, 19, 1.0)" />
	<rect x="130" y="0" width="10" height="10" fill="rgba(243, 117, 19, 1.0)" />
	<rect x="140" y="0" width="10" height="10" fill="rgba(231, 103, 6, 1.0)" />
	<rect x="150" y="0" width="10" height="10" fill="rgba(228, 100, 3, 1.0)" />
	<rect x="0" y="10" width="10" height="10" fill="rgba(241, 115, 18, 1.0)" />
	<rect x="10" y="10" width="10" height="10" fill="rgba(245, 120, 22, 1.0)" />
	<rect x="20" y="10" width="10" height="10" fill="rgba(249, 147, 43, 1.0)" />
	<rect x="30" y="10" width="10" height="10" fill="rgba(249, 147, 43, 1.0)" />
	<rect x="40" y="10" width="10" height="10" fill="rgba(249, 128, 29, 1.0)" />
	<rect x="50" y="10" width="10" height="10" fill="rgba(247, 123, 25, 1.0)" />
	<rect x="60" y="10" width="10" height="10" fill="rgba(238, 112, 14, 1.0)" />
	<rect x="70" y="10" width="10" height="10" fill="rgba(238, 111, 14, 1.0)" />
	<rect x="80" y="10" width="10" height="10" fill="rgba(231, 104, 7, 1.0)" />
	<rect x="90" y="10" width="10" height="10" fill="rgba(228, 100, 3, 1.0)" />
	<rect x="100" y="10" width="10" height="10" fill="rgba(234, 107, 10, 1.0)" />
	<rect x="110" y="10" width="10" height="10" fill="rgba(238, 111, 14, 1.0)" />
	<rect x="120" y="10" width="10" height="10" fill="rgba(225, 97, 0, 1.0)" />
	<rect x="130" y="10" width="10" height="10" fill="rgba(229, 101, 4, 1.0)" />
	<rect x="140" y="10" width="10" height="10" fill="rgba(236, 109, 11, 1.0)" />
	<rect x="150" y="10" width="10" height="10" fill="rgba(239, 113, 15, 1.0)" />
	<rect x="0" y="20" width="10" height="10" fill="rgba(249, 128, 29, 1.0)" />
	<rect x="10" y="20" width="10" height="10" fill="rgba(249, 132, 32, 1.0)" />
	<rect x="20" y="20" width="10" height="10" fill="rgba(238, 111, 14, 1.0)" />
	<rect x="30" y="20" width="10" height="10" fill="rgba(240, 113, 16, 1.0)" />
	<rect x="40" y="20" width="10" height="10" fill="rgba(249, 142, 39, 1.0)" />
	<rect x="50" y="20" width="10" height="10" fill="rgba(249, 132, 32, 1.0)" />
	<rect x="60" y="20" width="10" height="10" fill="rgba(243, 118, 20, 1.0)" />
	<rect x="70" y="20" width="10" height="10" fill="rgba(238, 111, 14, 1.0)" />
	<rect x="80" y="20" width="10" height="10" fill="rgba(247, 123, 25, 1.0)" />
	<rect x="90" y="20" width="10" height="10" fill="rgba(249, 132, 32, 1.0)" />
	<rect x="100" y="20" width="10" height="10" fill="rgba(246, 123, 24, 1.0)" />
	<rect x="110" y="20" width="10" height="10" fill="rgba(246, 123, 24, 1.0)" />
	<rect x="120" y="20" width="10" height="10" fill="rgba(249, 144, 40, 1.0)" />
	<rect x="130" y="20" width="10" height="10" fill="rgba(249, 147, 43, 1.0)" />
	<rect x="140" y="20" width="10" height="10" fill="rgba(247, 123, 25, 1.0)" />
	<rect x="150" y="20" width="10" height="10" fill="rgba(245, 120, 22, 1.0)" />
	<rect x="0" y="30" width="10" height="10" fill="rgba(241, 115, 18, 1.0)" />
	<rect x="10" y="30" width="10" height="10" fill="rgba(236, 109, 11, 1.0)" />
	<rect x="20" y="30" width="10" height="10" fill="rgba(248, 125, 26, 1.0)" />
	<rect x="30" y="30" width="10" height="10" fill="rgba(249, 132, 32, 1.0)" />
	<rect x="40" y="30" width="10" height="10" fill="rgba(238, 111, 14, 1.0)" />
	<rect x="50" y="30" width="10" height="10" fill="rgba(236, 109, 12, 1.0)" />
	<rect x="60" y="30" width="10" height="10" fill="rgba(241, 115, 17, 1.0)" />
	<rect x="70" y="30" width="10" height="10" fill="rgba(249, 132, 32, 1.0)" />
	<rect x="80" y="30" width="10" height="10" fill="rgba(233, 105, 8, 1.0)" />
	<rect x="90" y="30" width="10" height="10" fill="rgba(238, 112, 14, 1.0)" />
	<rect x="100" y="30" width="10" height="10" fill="rgba(249, 132, 32, 1.0)" />
	<rect x="110" y="30" width="10" height="10" fill="rgba(249, 132, 32, 1.0)" />
	<rect x="120" y="30" width="10" height="10" fill="rgba(241, 115, 18, 1.0)" />
	<rect x="130" y="30" width="10" height="10" fill="rgba(236, 109, 11, 1.0)" />
	<rect x="140" y="30" width="10" height="10" fill="rgba(249, 147, 43, 1.0)" />
	<rect x="150" y="30" width="10" height="10" fill="rgba(249, 130, 30, 1.0)" />
	<rect x="0" y="40" width="10" height="10" fill="rgba(245, 120, 22, 1.0)" />
	<rect x="10" y="40" width="10" height="10" fill="rgba(239, 113, 15, 1.0)" />
	<rect x="20" y="40" width="10" height="10" fill="rgba(233, 105, 8, 1.0)" />
	<rect x="30" y="40" width="10" height="10" fill="rgba(241, 115, 18, 1.0)" />
	<rect x="40" y="40" width="10" height="10" fill="rgba(248, 125, 27, 1.0)" />
	<rect x="50" y="40" width="10" height="10" fill="rgba(248, 125, 26, 1.0)" />
	<rect x="60" y="40" width="10" height="10" fill="rgba(227, 99, 2, 1.0)" />
	<rect x="70" y="40" width="10" height="10" fill="rgba(226, 98, 1, 1.0)" />
	<rect x="80" y="40" width="10" height="10" fill="rgba(235, 107, 10, 1.0)" />
	<rect x="90" y="40" width="10" height="10" fill="rgba(243, 117, 19, 1.0)" />
	<rect x="100" y="40" width="10" height="10" fill="rgba(234, 107, 10, 1.0)" />
	<rect x="110" y="40" width="10" height="10" fill="rgba(229, 102, 4, 1.0)" />
	<rect x="120" y="40" width="10" height="10" fill="rgba(248, 125, 27, 1.0)" />
	<rect x="130" y="40" width="10" height="10" fill="rgba(248, 125, 27, 1.0)" />
	<rect x="140" y="40" width="10" height="10" fill="rgba(231, 103, 6, 1.0)" />
	<rect x="150" y="40" width="10" height="10" fill="rgba(227, 99, 2, 1.0)" />
	<rect x="0" y="50" width="10" height="10" fill="rgba(229, 101, 4, 1.0)" />
	<rect x="10" y="50" width="10" height="10" fill="rgba(227, 99, 2, 1.0)" />
	<rect x="20" y="50" width="10" height="10" fill="rgba(233, 106, 9, 1.0)" />
	<rect x="30" y="50" width="10" height="10" fill="rgba(249, 132, 32, 1.0)" />
	<rect x="40" y="50" width="10" height="10" fill="rgba(233, 105, 8, 1.0)" />
	<rect x="50" y="50" width="10" height="10" fill="rgba(226, 98, 1, 1.0)" />
	<rect x="60" y="50" width="10" height="10" fill="rgba(232, 104, 7, 1.0)" />
	<rect x="70" y="50" width="10" height="10" fill="rgba(236, 109, 11, 1.0)" />
	<rect x="80" y="50" width="10" height="10" fill="rgba(233, 105, 8, 1.0)" />
	<rect x="90" y="50" width="10" height="10" fill="rgba(226, 98, 1, 1.0)" />
	<rect x="100" y="50" width="10" height="10" fill="rgba(236, 109, 11, 1.0)" />
	<rect x="110" y="50" width="10" height="10" fill="rgba(238, 111, 14, 1.0)" />
	<rect x="120" y="50" width="10" height="10" fill="rgba(228, 100, 3, 1.0)" />
	<rect x="130" y="50" width="10" height="10" fill="rgba(234, 107, 10, 1.0)" />
	<rect x="140" y="50" width="10" height="10" fill="rgba(231, 104, 7, 1.0)" />
	<rect x="150" y="50" width="10" height="10" fill="rgba(237, 110, 12, 1.0)" />
	<rect x="0" y="60" width="10" height="10" fill="rgba(249, 147, 43, 1.0)" />
	<rect x="10" y="60" width="10" height="10" fill="rgba(249, 147, 43, 1.0)" />
	<rect x="20" y="60" width="10" height="10" fill="rgba(249, 127, 28, 1.0)" />
	<rect x="30" y="60" width="10" height="10" fill="rgba(248, 125, 26, 1.0)" />
	<rect x="40" y="60" width="10" height="10" fill="rgba(241, 115, 17, 1.0)" />
	<rect x="50" y="60" width="10" height="10" fill="rgba(241, 115, 17, 1.0)" />
	<rect x="60" y="60" width="10" height="10" fill="rgba(239, 113, 15, 1.0)" />
	<rect x="70" y="60" width="10" height="10" fill="rgba(243, 117, 19, 1.0)" />
	<rect x="80" y="60" width="10" height="10" fill="rgba(249, 128, 29, 1.0)" />
	<rect x="90" y="60" width="10" height="10" fill="rgba(249, 147, 43, 1.0)" />
	<rect x="100" y="60" width="10" height="10" fill="rgba(245, 121, 23, 1.0)" />
	<rect x="110" y="60" width="10" height="10" fill="rgba(238, 112, 14, 1.0)" />
	<rect x="120" y="60" width="10" height="10" fill="rgba(249, 147, 43, 1.0)" />
	<rect x="130" y="60" width="10" height="10" fill="rgba(249, 147, 43, 1.0)" />
	<rect x="140" y="60" width="10" height="10" fill="rgba(247, 123, 25, 1.0)" />
	<rect x="150" y="60" width="10" height="10" fill="rgba(243, 118, 20, 1.0)" />
	<rect x="0" y="70" width="10" height="10" fill="rgba(236, 109, 11, 1.0)" />
	<rect x="10" y="70" width="10" height="10" fill="rgba(236, 109, 11, 1.0)" />
	<rect x="20" y="70" width="10" height="10" fill="rgba(249, 147, 43, 1.0)" />
	<rect x="30" y="70" width="10" height="10" fill="rgba(249, 147, 43, 1.0)" />
	<rect x="40" y="70" width="10" height="10" fill="rgba(247, 123, 25, 1.0)" />
	<rect x="50" y="70" width="10" height="10" fill="rgba(245, 121, 23, 1.0)" />
	<rect x="60" y="70" width="10" height="10" fill="rgba(249, 132, 32, 1.0)" />
	<rect x="70" y="70" width="10" height="10" fill="rgba(249, 130, 30, 1.0)" />
	<rect x="80" y="70" width="10" height="10" fill="rgba(231, 104, 7, 1.0)" />
	<rect x="90" y="70" width="10" height="10" fill="rgba(234, 107, 10, 1.0)" />
	<rect x="100" y="70" width="10" height="10" fill="rgba(248, 125, 26, 1.0)" />
	<rect x="110" y="70" width="10" height="10" fill="rgba(249, 132, 32, 1.0)" />
	<rect x="120" y="70" width="10" height="10" fill="rgba(245, 121, 23, 1.0)" />
	<rect x="130" y="70" width="10" height="10" fill="rgba(245, 120, 22, 1.0)" />
	<rect x="140" y="70" width="10" height="10" fill="rgba(249, 133, 33, 1.0)" />
	<rect x="150" y="70" width="10" height="10" fill="rgba(249, 130, 30, 1.0)" />
	<rect x="0" y="80" width="10" height="10" fill="rgba(247, 123, 25, 1.0)" />
	<rect x="10" y="80" width="10" height="10" fill="rgba(246, 123, 24, 1.0)" />
	<rect x="20" y="80" width="10" height="10" fill="rgba(229, 101, 4, 1.0)" />
	<rect x="30" y="80" width="10" height="10" fill="rgba(235, 107, 10, 1.0)" />
	<rect x="40" y="80" width="10" height="10" fill="rgba(249, 130, 30, 1.0)" />
	<rect x="50" y="80" width="10" height="10" fill="rgba(245, 121, 23, 1.0)" />
	<rect x="60" y="80" width="10" height="10" fill="rgba(233, 105, 8, 1.0)" />
	<rect x="70" y="80" width="10" height="10" fill="rgba(236, 109, 12, 1.0)" />
	<rect x="80" y="80" width="10" height="10" fill="rgba(235, 107, 10, 1.0)" />
	<rect x="90" y="80" width="10" height="10" fill="rgba(238, 111, 14, 1.0)" />
	<rect x="100" y="80" width="10" height="10" fill="rgba(234, 107, 10, 1.0)" />
	<rect x="110" y="80" width="10" height="10" fill="rgba(228, 100, 3, 1.0)" />
	<rect x="120" y="80" width="10" height="10" fill="rgba(241, 115, 17, 1.0)" />
	<rect x="130" y="80" width="10" height="10" fill="rgba(238, 112, 14, 1.0)" />
	<rect x="140" y="80" width="10" height="10" fill="rgba(230, 102, 5, 1.0)" />
	<rect x="150" y="80" width="10" height="10" fill="rgba(229, 102, 4, 1.0)" />
	<rect x="0" y="90" width="10" height="10" fill="rgba(235, 107, 10, 1.0)" />
	<rect x="10" y="90" width="10" height="10" fill="rgba(238, 112, 14, 1.0)" />
	<rect x="20" y="90" width="10" height="10" fill="rgba(237, 110, 12, 1.0)" />
	<rect x="30" y="90" width="10" height="10" fill="rgba(249, 128, 29, 1.0)" />
	<rect x="40" y="90" width="10" height="10" fill="rgba(226, 98, 1, 1.0)" />
	<rect x="50" y="90" width="10" height="10" fill="rgba(227, 99, 2, 1.0)" />
	<rect x="60" y="90" width="10" height="10" fill="rgba(238, 112, 14, 1.0)" />
	<rect x="70" y="90" width="10" height="10" fill="rgba(244, 119, 22, 1.0)" />
	<rect x="80" y="90" width="10" height="10" fill="rgba(233, 105, 8, 1.0)" />
	<rect x="90" y="90" width="10" height="10" fill="rgba(245, 120, 22, 1.0)" />
	<rect x="100" y="90" width="10" height="10" fill="rgba(249, 147, 43, 1.0)" />
	<rect x="110" y="90" width="10" height="10" fill="rgba(249, 147, 43, 1.0)" />
	<rect x="120" y="90" width="10" height="10" fill="rgba(240, 113, 16, 1.0)" />
	<rect x="130" y="90" width="10" height="10" fill="rgba(246, 123, 24, 1.0)" />
	<rect x="140" y="90" width="10" height="10" fill="rgba(249, 147, 43, 1.0)" />
	<rect x="150" y="90" width="10" height="10" fill="rgba(249, 147, 43, 1.0)" />
	<rect x="0" y="100" width="10" height="10" fill="rgba(249, 130, 30, 1.0)" />
	<rect x="10" y="100" width="10" height="10" fill="rgba(249, 133, 33, 1.0)" />
	<rect x="20" y="100" width="10" height="10" fill="rgba(247, 123, 25, 1.0)" />
	<rect x="30" y="100" width="10" height="10" fill="rgba(247, 123, 25, 1.0)" />
	<rect x="40" y="100" width="10" height="10" fill="rgba(249, 147, 43, 1.0)" />
	<rect x="50" y="100" width="10" height="10" fill="rgba(249, 132, 32, 1.0)" />
	<rect x="60" y="100" width="10" height="10" fill="rgba(247, 123, 25, 1.0)" />
	<rect x="70" y="100" width="10" height="10" fill="rgba(245, 121, 23, 1.0)" />
	<rect x="80" y="100" width="10" height="10" fill="rgba(249, 133, 33, 1.0)" />
	<rect x="90" y="100" width="10" height="10" fill="rgba(249, 128, 29, 1.0)" />
	<rect x="100" y="100" width="10" height="10" fill="rgba(238, 111, 14, 1.0)" />
	<rect x="110" y="100" width="10" height="10" fill="rgba(243, 117, 19, 1.0)" />
	<rect x="120" y="100" width="10" height="10" fill="rgba(245, 120, 22, 1.0)" />
	<rect x="130" y="100" width="10" height="10" fill="rgba(241, 115, 17, 1.0)" />
	<rect x="140" y="100" width="10" height="10" fill="rgba(231, 103, 6, 1.0)" />
	<rect x="150" y="100" width="10" height="10" fill="rgba(241, 115, 18, 1.0)" />
	<rect x="0" y="110" width="10" height="10" fill="rgba(231, 103, 6, 1.0)" />
	<rect x="10" y="110" width="10" height="10" fill="rgba(233, 105, 8, 1.0)" />
	<rect x="20" y="110" width="10" height="10" fill="rgba(244, 119, 22, 1.0)" />
	<rect x="30" y="110" width="10" height="10" fill="rgba(244, 119, 22, 1.0)" />
	<rect x="40" y="110" width="10" height="10" fill="rgba(236, 109, 11, 1.0)" />
	<rect x="50" y="110" width="10" height="10" fill="rgba(236, 109, 12, 1.0)" />
	<rect x="60" y="110" width="10" height="10" fill="rgba(248, 125, 27, 1.0)" />
	<rect x="70" y="110" width="10" height="10" fill="rgba(246, 123, 24, 1.0)" />
	<rect x="80" y="110" width="10" height="10" fill="rgba(231, 104, 7, 1.0)" />
	<rect x="90" y="110" width="10" height="10" fill="rgba(233, 105, 8, 1.0)" />
	<rect x="100" y="110" width="10" height="10" fill="rgba(235, 107, 10, 1.0)" />
	<rect x="110" y="110" width="10" height="10" fill="rgba(245, 120, 22, 1.0)" />
	<rect x="120" y="110" width="10" height="10" fill="rgba(227, 99, 2, 1.0)" />
	<rect x="130" y="110" width="10" height="10" fill="rgba(226, 99, 2, 1.0)" />
	<rect x="140" y="110" width="10" height="10" fill="rgba(237, 110, 12, 1.0)" />
	<rect x="150" y="110" width="10" height="10" fill="rgba(245, 120, 22, 1.0)" />
	<rect x="0" y="120" width="10" height="10" fill="rgba(236, 109, 12, 1.0)" />
	<rect x="10" y="120" width="10" height="10" fill="rgba(236, 109, 11, 1.0)" />
	<rect x="20" y="120" width="10" height="10" fill="rgba(226, 98, 1, 1.0)" />
	<rect x="30" y="120" width="10" height="10" fill="rgba(227, 99, 2, 1.0)" />
	<rect x="40" y="120" width="10" height="10" fill="rgba(249, 130, 30, 1.0)" />
	<rect x="50" y="120" width="10" height="10" fill="rgba(249, 142, 39, 1.0)" />
	<rect x="60" y="120" width="10" height="10" fill="rgba(229, 102, 4, 1.0)" />
	<rect x="70" y="120" width="10" height="10" fill="rgba(226, 98, 1, 1.0)" />
	<rect x="80" y="120" width="10" height="10" fill="rgba(241, 115, 17, 1.0)" />
	<rect x="90" y="120" width="10" height="10" fill="rgba(248, 125, 27, 1.0)" />
	<rect x="100" y="120" width="10" height="10" fill="rgba(243, 117, 19, 1.0)" />
	<rect x="110" y="120" width="10" height="10" fill="rgba(246, 123, 24, 1.0)" />
	<rect x="120" y="120" width="10" height="10" fill="rgba(249, 147, 43, 1.0)" />
	<rect x="130" y="120" width="10" height="10" fill="rgba(249, 147, 43, 1.0)" />
	<rect x="140" y="120" width="10" height="10" fill="rgba(245, 120, 22, 1.0)" />
	<rect x="150" y="120" width="10" height="10" fill="rgba(228, 100, 3, 1.0)" />
	<rect x="0" y="130" width="10" height="10" fill="rgba(246, 123, 24, 1.0)" />
	<rect x="10" y="130" width="10" height="10" fill="rgba(245, 121, 23, 1.0)" />
	<rect x="20" y="130" width="10" height="10" fill="rgba(249, 144, 40, 1.0)" />
	<rect x="30" y="130" width="10" height="10" fill="rgba(249, 147, 43, 1.0)" />
	<rect x="40" y="130" width="10" height="10" fill="rgba(249, 130, 30, 1.0)" />
	<rect x="50" y="130" width="10" height="10" fill="rgba(247, 123, 25, 1.0)" />
	<rect x="60" y="130" width="10" height="10" fill="rgba(243, 117, 19, 1.0)" />
	<rect x="70" y="130" width="10" height="10" fill="rgba(238, 111, 14, 1.0)" />
	<rect x="80" y="130" width="10" height="10" fill="rgba(226, 98, 1, 1.0)" />
	<rect x="90" y="130" width="10" height="10" fill="rgba(240, 113, 16, 1.0)" />
	<rect x="100" y="130" width="10" height="10" fill="rgba(246, 123, 24, 1.0)" />
	<rect x="110" y="130" width="10" height="10" fill="rgba(249, 132, 32, 1.0)" />
	<rect x="120" y="130" width="10" height="10" fill="rgba(239, 113, 15, 1.0)" />
	<rect x="130" y="130" width="10" height="10" fill="rgba(240, 113, 16, 1.0)" />
	<rect x="140" y="130" width="10" height="10" fill="rgba(249, 132, 32, 1.0)" />
	<rect x="150" y="130" width="10" height="10" fill="rgba(249, 147, 43, 1.0)" />
	<rect x="0" y="140" width="10" height="10" fill="rgba(249, 142, 39, 1.0)" />
	<rect x="10" y="140" width="10" height="10" fill="rgba(249, 138, 37, 1.0)" />
	<rect x="20" y="140" width="10" height="10" fill="rgba(241, 115, 18, 1.0)" />
	<rect x="30" y="140" width="10" height="10" fill="rgba(238, 112, 14, 1.0)" />
	<rect x="40" y="140" width="10" height="10" fill="rgba(249, 132, 32, 1.0)" />
	<rect x="50" y="140" width="10" height="10" fill="rgba(243, 117, 19, 1.0)" />
	<rect x="60" y="140" width="10" height="10" fill="rgba(245, 120, 22, 1.0)" />
	<rect x="70" y="140" width="10" height="10" fill="rgba(248, 125, 26, 1.0)" />
	<rect x="80" y="140" width="10" height="10" fill="rgba(249, 147, 43, 1.0)" />
	<rect x="90" y="140" width="10" height="10" fill="rgba(249, 128, 29, 1.0)" />
	<rect x="100" y="140" width="10" height="10" fill="rgba(234, 107, 10, 1.0)" />
	<rect x="110" y="140" width="10" height="10" fill="rgba(235, 107, 10, 1.0)" />
	<rect x="120" y="140" width="10" height="10" fill="rgba(243, 118, 20, 1.0)" />
	<rect x="130" y="140" width="10" height="10" fill="rgba(246, 123, 24, 1.0)" />
	<rect x="140" y="140" width="10" height="10" fill="rgba(236, 109, 12, 1.0)" />
	<rect x="150" y="140" width="10" height="10" fill="rgba(231, 104, 7, 1.0)" />
	<rect x="0" y="150" width="10" height="10" fill="rgba(228, 100, 3, 1.0)" />
	<rect x="10" y="150" width="10" height="10" fill="rgba(233, 105, 8, 1.0)" />
	<rect x="20" y="150" width="10" height="10" fill="rgba(249, 130, 30, 1.0)" />
	<rect x="30" y="150" width="10" height="10" fill="rgba(243, 118, 20, 1.0)" />
	<rect x="40" y="150" width="10" height="10" fill="rgba(231, 104, 7, 1.0)" />
	<rect x="50" y="150" width="10" height="10" fill="rgba(236, 109, 12, 1.0)" />
	<rect x="60" y="150" width="10" height="10" fill="rgba(249, 132, 32, 1.0)" />
	<rect x="70" y="150" width="10" height="10" fill="rgba(249, 144, 40, 1.0)" />
	<rect x="80" y="150" width="10" height="10" fill="rgba(239, 113, 15, 1.0)" />
	<rect x="90" y="150" width="10" height="10" fill="rgba(236, 109, 11, 1.0)" />
	<rect x="100" y="150" width="10" height="10" fill="rgba(245, 121, 23, 1.0)" />
	<rect x="110" y="150" width="10" height="10" fill="rgba(249, 130, 30, 1.0)" />
	<rect x="120" y="150" width="10" height="10" fill="rgba(231, 104, 7, 1.0)" />
	<rect x="130" y="150" width="10" height="10" fill="rgba(233, 105, 8, 1.0)" />
	<rect x="140" y="150" width="10" height="10" fill="rgba(249, 128, 29, 1.0)" />
	<rect x="150" y="150" width="10" height="10" fill="rgba(249, 132, 32, 1.0)" />
</svg>