<svg xmlns="http://www.w3.org/2000/svg" xmlns:xlink="http://www.w3.org/1999/xlink">
	<rect x="0" y="0" width="10" height="10" fill="rgba(160, 83, 37, 1.0)" />
	<rect x="10" y="0" width="10" height="10" fill="rgba(159, 82, 36, 1.0)" />
	<rect x="20" y="0" width="10" height="10" fill="rgba(159, 82, 36, 1.0)" />
	<rect x="30" y="0" width="10" height="10" fill="rgba(159, 82, 36, 1.0)" />
	<rect x="40" y="0" width="10" height="10" fill="rgba(160, 82, 37, 1.0)" />
	<rect x="50" y="0" width="10" height="10" fill="rgba(162, 84, 39, 1.0)" />
	<rect x="60" y="0" width="10" height="10" fill="rgba(165, 89, 41, 1.0)" />
	<rect x="70" y="0" width="10" height="10" fill="rgba(164, 86, 40, 1.0)" />
	<rect x="80" y="0" width="10" height="10" fill="rgba(159, 83, 36, 1.0)" />
	<rect x="90" y="0" width="10" height="10" fill="rgba(165, 88, 40, 1.0)" />
	<rect x="100" y="0" width="10" height="10" fill="rgba(164, 87, 40, 1.0)" />
	<rect x="110" y="0" width="10" height="10" fill="rgba(160, 82, 36, 1.0)" />
	<rect x="120" y="0" width="10" height="10" fill="rgba(158, 81, 34, 1.0)" />
	<rect x="130" y="0" width="10" height="10" fill="rgba(158, 81, 34, 1.0)" />
	<rect x="140" y="0" width="10" height="10" fill="rgba(158, 81, 35, 1.0)" />
	<rect x="150" y="0" width="10" height="10" fill="rgba(160, 82, 36, 1.0)" />
	<rect x="0" y="10" width="10" height="10" fill="rgba(160, 83, 37, 1.0)" />
	<rect x="10" y="10" width="10" height="10" fill="rgba(162, 83, 36, 1.0)" />
	<rect x="20" y="10" width="10" height="10" fill="rgba(165, 87, 41, 1.0)" />
	<rect x="30" y="10" width="10" height="10" fill="rgba(167, 88, 42, 1.0)" />
	<rect x="40" y="10" width="10" height="10" fill="rgba(167, 85, 42, 1.0)" />
	<rect x="50" y="10" width="10" height="10" fill="rgba(162, 84, 43, 1.0)" />
	<rect x="60" y="10" width="10" height="10" fill="rgba(159, 83, 36, 1.0)" />
	<rect x="70" y="10" width="10" height="10" fill="rgba(160, 82, 36, 1.0)" />
	<rect x="80" y="10" width="10" height="10" fill="rgba(160, 83, 36, 1.0)" />
	<rect x="90" y="10" width="10" height="10" fill="rgba(162, 85, 37, 1.0)" />
	<rect x="100" y="10" width="10" height="10" fill="rgba(165, 88, 41, 1.0)" />
	<rect x="110" y="10" width="10" height="10" fill="rgba(163, 87, 39, 1.0)" />
	<rect x="120" y="10" width="10" height="10" fill="rgba(158, 82, 36, 1.0)" />
	<rect x="130" y="10" width="10" height="10" fill="rgba(162, 83, 36, 1.0)" />
	<rect x="140" y="10" width="10" height="10" fill="rgba(162, 83, 36, 1.0)" />
	<rect x="150" y="10" width="10" height="10" fill="rgba(159, 82, 36, 1.0)" />
	<rect x="0" y="20" width="10" height="10" fill="rgba(160, 83, 38, 1.0)" />
	<rect x="10" y="20" width="10" height="10" fill="rgba(155, 82, 36, 1.0)" />
	<rect x="20" y="20" width="10" height="10" fill="rgba(159, 83, 36, 1.0)" />
	<rect x="30" y="20" width="10" height="10" fill="rgba(160, 82, 36, 1.0)" />
	<rect x="40" y="20" width="10" height="10" fill="rgba(159, 82, 36, 1.0)" />
	<rect x="50" y="20" width="10" height="10" fill="rgba(158, 81, 36, 1.0)" />
	<rect x="60" y="20" width="10" height="10" fill="rgba(159, 82, 36, 1.0)" />
	<rect x="70" y="20" width="10" height="10" fill="rgba(160, 82, 36, 1.0)" />
	<rect x="80" y="20" width="10" height="10" fill="rgba(164, 86, 39, 1.0)" />
	<rect x="90" y="20" width="10" height="10" fill="rgba(162, 84, 39, 1.0)" />
	<rect x="100" y="20" width="10" height="10" fill="rgba(162, 86, 39, 1.0)" />
	<rect x="110" y="20" width="10" height="10" fill="rgba(162, 84, 39, 1.0)" />
	<rect x="120" y="20" width="10" height="10" fill="rgba(160, 83, 38, 1.0)" />
	<rect x="130" y="20" width="10" height="10" fill="rgba(163, 89, 39, 1.0)" />
	<rect x="140" y="20" width="10" height="10" fill="rgba(163, 84, 36, 1.0)" />
	<rect x="150" y="20" width="10" height="10" fill="rgba(162, 84, 36, 1.0)" />
	<rect x="0" y="30" width="10" height="10" fill="rgba(163, 85, 39, 1.0)" />
	<rect x="10" y="30" width="10" height="10" fill="rgba(164, 87, 40, 1.0)" />
	<rect x="20" y="30" width="10" height="10" fill="rgba(162, 84, 38, 1.0)" />
	<rect x="30" y="30" width="10" height="10" fill="rgba(162, 82, 36, 1.0)" />
	<rect x="40" y="30" width="10" height="10" fill="rgba(158, 81, 36, 1.0)" />
	<rect x="50" y="30" width="10" height="10" fill="rgba(157, 81, 35, 1.0)" />
	<rect x="60" y="30" width="10" height="10" fill="rgba(159, 82, 36, 1.0)" />
	<rect x="70" y="30" width="10" height="10" fill="rgba(165, 83, 38, 1.0)" />
	<rect x="80" y="30" width="10" height="10" fill="rgba(162, 83, 38, 1.0)" />
	<rect x="90" y="30" width="10" height="10" fill="rgba(160, 83, 37, 1.0)" />
	<rect x="100" y="30" width="10" height="10" fill="rgba(160, 83, 37, 1.0)" />
	<rect x="110" y="30" width="10" height="10" fill="rgba(160, 84, 37, 1.0)" />
	<rect x="120" y="30" width="10" height="10" fill="rgba(162, 83, 38, 1.0)" />
	<rect x="130" y="30" width="10" height="10" fill="rgba(162, 83, 38, 1.0)" />
	<rect x="140" y="30" width="10" height="10" fill="rgba(162, 83, 36, 1.0)" />
	<rect x="150" y="30" width="10" height="10" fill="rgba(160, 82, 36, 1.0)" />
	<rect x="0" y="40" width="10" height="10" fill="rgba(162, 84, 38, 1.0)" />
	<rect x="10" y="40" width="10" height="10" fill="rgba(167, 87, 41, 1.0)" />
	<rect x="20" y="40" width="10" height="10" fill="rgba(165, 87, 41, 1.0)" />
	<rect x="30" y="40" width="10" height="10" fill="rgba(164, 86, 39, 1.0)" />
	<rect x="40" y="40" width="10" height="10" fill="rgba(163, 85, 39, 1.0)" />
	<rect x="50" y="40" width="10" height="10" fill="rgba(156, 80, 34, 1.0)" />
	<rect x="60" y="40" width="10" height="10" fill="rgba(158, 81, 35, 1.0)" />
	<rect x="70" y="40" width="10" height="10" fill="rgba(159, 81, 35, 1.0)" />
	<rect x="80" y="40" width="10" height="10" fill="rgba(159, 82, 36, 1.0)" />
	<rect x="90" y="40" width="10" height="10" fill="rgba(159, 82, 36, 1.0)" />
	<rect x="100" y="40" width="10" height="10" fill="rgba(167, 88, 41, 1.0)" />
	<rect x="110" y="40" width="10" height="10" fill="rgba(167, 88, 41, 1.0)" />
	<rect x="120" y="40" width="10" height="10" fill="rgba(162, 83, 37, 1.0)" />
	<rect x="130" y="40" width="10" height="10" fill="rgba(160, 83, 37, 1.0)" />
	<rect x="140" y="40" width="10" height="10" fill="rgba(162, 84, 38, 1.0)" />
	<rect x="150" y="40" width="10" height="10" fill="rgba(160, 82, 36, 1.0)" />
	<rect x="0" y="50" width="10" height="10" fill="rgba(167, 87, 41, 1.0)" />
	<rect x="10" y="50" width="10" height="10" fill="rgba(162, 84, 38, 1.0)" />
	<rect x="20" y="50" width="10" height="10" fill="rgba(163, 86, 39, 1.0)" />
	<rect x="30" y="50" width="10" height="10" fill="rgba(160, 83, 38, 1.0)" />
	<rect x="40" y="50" width="10" height="10" fill="rgba(159, 82, 36, 1.0)" />
	<rect x="50" y="50" width="10" height="10" fill="rgba(162, 83, 37, 1.0)" />
	<rect x="60" y="50" width="10" height="10" fill="rgba(162, 83, 37, 1.0)" />
	<rect x="70" y="50" width="10" height="10" fill="rgba(162, 83, 38, 1.0)" />
	<rect x="80" y="50" width="10" height="10" fill="rgba(162, 83, 38, 1.0)" />
	<rect x="90" y="50" width="10" height="10" fill="rgba(162, 83, 38, 1.0)" />
	<rect x="100" y="50" width="10" height="10" fill="rgba(162, 84, 38, 1.0)" />
	<rect x="110" y="50" width="10" height="10" fill="rgba(163, 85, 39, 1.0)" />
	<rect x="120" y="50" width="10" height="10" fill="rgba(163, 85, 39, 1.0)" />
	<rect x="130" y="50" width="10" height="10" fill="rgba(162, 84, 38, 1.0)" />
	<rect x="140" y="50" width="10" height="10" fill="rgba(160, 83, 37, 1.0)" />
	<rect x="150" y="50" width="10" height="10" fill="rgba(167, 87, 41, 1.0)" />
	<rect x="0" y="60" width="10" height="10" fill="rgba(164, 86, 39, 1.0)" />
	<rect x="10" y="60" width="10" height="10" fill="rgba(163, 87, 39, 1.0)" />
	<rect x="20" y="60" width="10" height="10" fill="rgba(162, 85, 39, 1.0)" />
	<rect x="30" y="60" width="10" height="10" fill="rgba(160, 83, 38, 1.0)" />
	<rect x="40" y="60" width="10" height="10" fill="rgba(160, 82, 36, 1.0)" />
	<rect x="50" y="60" width="10" height="10" fill="rgba(159, 82, 36, 1.0)" />
	<rect x="60" y="60" width="10" height="10" fill="rgba(162, 82, 38, 1.0)" />
	<rect x="70" y="60" width="10" height="10" fill="rgba(167, 83, 41, 1.0)" />
	<rect x="80" y="60" width="10" height="10" fill="rgba(162, 82, 36, 1.0)" />
	<rect x="90" y="60" width="10" height="10" fill="rgba(159, 82, 36, 1.0)" />
	<rect x="100" y="60" width="10" height="10" fill="rgba(160, 83, 37, 1.0)" />
	<rect x="110" y="60" width="10" height="10" fill="rgba(163, 84, 38, 1.0)" />
	<rect x="120" y="60" width="10" height="10" fill="rgba(164, 87, 40, 1.0)" />
	<rect x="130" y="60" width="10" height="10" fill="rgba(165, 86, 39, 1.0)" />
	<rect x="140" y="60" width="10" height="10" fill="rgba(163, 85, 38, 1.0)" />
	<rect x="150" y="60" width="10" height="10" fill="rgba(159, 82, 36, 1.0)" />
	<rect x="0" y="70" width="10" height="10" fill="rgba(163, 86, 41, 1.0)" />
	<rect x="10" y="70" width="10" height="10" fill="rgba(162, 83, 36, 1.0)" />
	<rect x="20" y="70" width="10" height="10" fill="rgba(160, 82, 36, 1.0)" />
	<rect x="30" y="70" width="10" height="10" fill="rgba(159, 82, 36, 1.0)" />
	<rect x="40" y="70" width="10" height="10" fill="rgba(164, 86, 39, 1.0)" />
	<rect x="50" y="70" width="10" height="10" fill="rgba(164, 86, 39, 1.0)" />
	<rect x="60" y="70" width="10" height="10" fill="rgba(159, 82, 36, 1.0)" />
	<rect x="70" y="70" width="10" height="10" fill="rgba(164, 87, 39, 1.0)" />
	<rect x="80" y="70" width="10" height="10" fill="rgba(165, 87, 40, 1.0)" />
	<rect x="90" y="70" width="10" height="10" fill="rgba(162, 83, 38, 1.0)" />
	<rect x="100" y="70" width="10" height="10" fill="rgba(160, 83, 37, 1.0)" />
	<rect x="110" y="70" width="10" height="10" fill="rgba(162, 83, 38, 1.0)" />
	<rect x="120" y="70" width="10" height="10" fill="rgba(162, 83, 38, 1.0)" />
	<rect x="130" y="70" width="10" height="10" fill="rgba(162, 84, 38, 1.0)" />
	<rect x="140" y="70" width="10" height="10" fill="rgba(163, 86, 39, 1.0)" />
	<rect x="150" y="70" width="10" height="10" fill="rgba(163, 86, 39, 1.0)" />
	<rect x="0" y="80" width="10" height="10" fill="rgba(163, 86, 41, 1.0)" />
	<rect x="10" y="80" width="10" height="10" fill="rgba(164, 86, 40, 1.0)" />
	<rect x="20" y="80" width="10" height="10" fill="rgba(162, 86, 39, 1.0)" />
	<rect x="30" y="80" width="10" height="10" fill="rgba(157, 81, 35, 1.0)" />
	<rect x="40" y="80" width="10" height="10" fill="rgba(159, 82, 36, 1.0)" />
	<rect x="50" y="80" width="10" height="10" fill="rgba(159, 82, 36, 1.0)" />
	<rect x="60" y="80" width="10" height="10" fill="rgba(159, 82, 36, 1.0)" />
	<rect x="70" y="80" width="10" height="10" fill="rgba(159, 82, 36, 1.0)" />
	<rect x="80" y="80" width="10" height="10" fill="rgba(160, 83, 37, 1.0)" />
	<rect x="90" y="80" width="10" height="10" fill="rgba(162, 85, 39, 1.0)" />
	<rect x="100" y="80" width="10" height="10" fill="rgba(165, 87, 40, 1.0)" />
	<rect x="110" y="80" width="10" height="10" fill="rgba(165, 87, 39, 1.0)" />
	<rect x="120" y="80" width="10" height="10" fill="rgba(165, 87, 40, 1.0)" />
	<rect x="130" y="80" width="10" height="10" fill="rgba(165, 87, 41, 1.0)" />
	<rect x="140" y="80" width="10" height="10" fill="rgba(167, 89, 43, 1.0)" />
	<rect x="150" y="80" width="10" height="10" fill="rgba(162, 83, 38, 1.0)" />
	<rect x="0" y="90" width="10" height="10" fill="rgba(163, 86, 39, 1.0)" />
	<rect x="10" y="90" width="10" height="10" fill="rgba(162, 83, 38, 1.0)" />
	<rect x="20" y="90" width="10" height="10" fill="rgba(159, 82, 36, 1.0)" />
	<rect x="30" y="90" width="10" height="10" fill="rgba(159, 82, 36, 1.0)" />
	<rect x="40" y="90" width="10" height="10" fill="rgba(159, 82, 36, 1.0)" />
	<rect x="50" y="90" width="10" height="10" fill="rgba(159, 82, 36, 1.0)" />
	<rect x="60" y="90" width="10" height="10" fill="rgba(159, 82, 36, 1.0)" />
	<rect x="70" y="90" width="10" height="10" fill="rgba(159, 82, 36, 1.0)" />
	<rect x="80" y="90" width="10" height="10" fill="rgba(162, 83, 38, 1.0)" />
	<rect x="90" y="90" width="10" height="10" fill="rgba(160, 83, 36, 1.0)" />
	<rect x="100" y="90" width="10" height="10" fill="rgba(159, 82, 36, 1.0)" />
	<rect x="110" y="90" width="10" height="10" fill="rgba(159, 82, 36, 1.0)" />
	<rect x="120" y="90" width="10" height="10" fill="rgba(162, 86, 39, 1.0)" />
	<rect x="130" y="90" width="10" height="10" fill="rgba(162, 86, 39, 1.0)" />
	<rect x="140" y="90" width="10" height="10" fill="rgba(167, 89, 41, 1.0)" />
	<rect x="150" y="90" width="10" height="10" fill="rgba(165, 87, 42, 1.0)" />
	<rect x="0" y="100" width="10" height="10" fill="rgba(162, 83, 36, 1.0)" />
	<rect x="10" y="100" width="10" height="10" fill="rgba(162, 83, 37, 1.0)" />
	<rect x="20" y="100" width="10" height="10" fill="rgba(160, 83, 38, 1.0)" />
	<rect x="30" y="100" width="10" height="10" fill="rgba(159, 82, 36, 1.0)" />
	<rect x="40" y="100" width="10" height="10" fill="rgba(159, 81, 36, 1.0)" />
	<rect x="50" y="100" width="10" height="10" fill="rgba(167, 88, 41, 1.0)" />
	<rect x="60" y="100" width="10" height="10" fill="rgba(168, 89, 42, 1.0)" />
	<rect x="70" y="100" width="10" height="10" fill="rgba(159, 82, 34, 1.0)" />
	<rect x="80" y="100" width="10" height="10" fill="rgba(162, 84, 39, 1.0)" />
	<rect x="90" y="100" width="10" height="10" fill="rgba(163, 85, 39, 1.0)" />
	<rect x="100" y="100" width="10" height="10" fill="rgba(167, 89, 41, 1.0)" />
	<rect x="110" y="100" width="10" height="10" fill="rgba(165, 87, 41, 1.0)" />
	<rect x="120" y="100" width="10" height="10" fill="rgba(162, 83, 37, 1.0)" />
	<rect x="130" y="100" width="10" height="10" fill="rgba(162, 84, 36, 1.0)" />
	<rect x="140" y="100" width="10" height="10" fill="rgba(162, 83, 36, 1.0)" />
	<rect x="150" y="100" width="10" height="10" fill="rgba(159, 82, 36, 1.0)" />
	<rect x="0" y="110" width="10" height="10" fill="rgba(159, 81, 36, 1.0)" />
	<rect x="10" y="110" width="10" height="10" fill="rgba(162, 83, 36, 1.0)" />
	<rect x="20" y="110" width="10" height="10" fill="rgba(162, 83, 37, 1.0)" />
	<rect x="30" y="110" width="10" height="10" fill="rgba(159, 82, 36, 1.0)" />
	<rect x="40" y="110" width="10" height="10" fill="rgba(159, 82, 36, 1.0)" />
	<rect x="50" y="110" width="10" height="10" fill="rgba(162, 83, 37, 1.0)" />
	<rect x="60" y="110" width="10" height="10" fill="rgba(162, 84, 39, 1.0)" />
	<rect x="70" y="110" width="10" height="10" fill="rgba(160, 83, 38, 1.0)" />
	<rect x="80" y="110" width="10" height="10" fill="rgba(165, 87, 40, 1.0)" />
	<rect x="90" y="110" width="10" height="10" fill="rgba(167, 89, 41, 1.0)" />
	<rect x="100" y="110" width="10" height="10" fill="rgba(163, 86, 39, 1.0)" />
	<rect x="110" y="110" width="10" height="10" fill="rgba(163, 85, 39, 1.0)" />
	<rect x="120" y="110" width="10" height="10" fill="rgba(163, 85, 39, 1.0)" />
	<rect x="130" y="110" width="10" height="10" fill="rgba(165, 87, 39, 1.0)" />
	<rect x="140" y="110" width="10" height="10" fill="rgba(164, 86, 40, 1.0)" />
	<rect x="150" y="110" width="10" height="10" fill="rgba(162, 83, 38, 1.0)" />
	<rect x="0" y="120" width="10" height="10" fill="rgba(159, 82, 36, 1.0)" />
	<rect x="10" y="120" width="10" height="10" fill="rgba(159, 82, 36, 1.0)" />
	<rect x="20" y="120" width="10" height="10" fill="rgba(160, 83, 37, 1.0)" />
	<rect x="30" y="120" width="10" height="10" fill="rgba(162, 83, 36, 1.0)" />
	<rect x="40" y="120" width="10" height="10" fill="rgba(160, 83, 36, 1.0)" />
	<rect x="50" y="120" width="10" height="10" fill="rgba(162, 82, 36, 1.0)" />
	<rect x="60" y="120" width="10" height="10" fill="rgba(159, 82, 36, 1.0)" />
	<rect x="70" y="120" width="10" height="10" fill="rgba(159, 82, 36, 1.0)" />
	<rect x="80" y="120" width="10" height="10" fill="rgba(167, 89, 44, 1.0)" />
	<rect x="90" y="120" width="10" height="10" fill="rgba(169, 86, 39, 1.0)" />
	<rect x="100" y="120" width="10" height="10" fill="rgba(160, 82, 36, 1.0)" />
	<rect x="110" y="120" width="10" height="10" fill="rgba(158, 82, 36, 1.0)" />
	<rect x="120" y="120" width="10" height="10" fill="rgba(159, 82, 36, 1.0)" />
	<rect x="130" y="120" width="10" height="10" fill="rgba(162, 84, 36, 1.0)" />
	<rect x="140" y="120" width="10" height="10" fill="rgba(162, 83, 38, 1.0)" />
	<rect x="150" y="120" width="10" height="10" fill="rgba(162, 84, 38, 1.0)" />
	<rect x="0" y="130" width="10" height="10" fill="rgba(162, 84, 39, 1.0)" />
	<rect x="10" y="130" width="10" height="10" fill="rgba(162, 86, 38, 1.0)" />
	<rect x="20" y="130" width="10" height="10" fill="rgba(162, 86, 38, 1.0)" />
	<rect x="30" y="130" width="10" height="10" fill="rgba(164, 87, 40, 1.0)" />
	<rect x="40" y="130" width="10" height="10" fill="rgba(160, 85, 38, 1.0)" />
	<rect x="50" y="130" width="10" height="10" fill="rgba(163, 89, 42, 1.0)" />
	<rect x="60" y="130" width="10" height="10" fill="rgba(162, 83, 36, 1.0)" />
	<rect x="70" y="130" width="10" height="10" fill="rgba(159, 82, 36, 1.0)" />
	<rect x="80" y="130" width="10" height="10" fill="rgba(160, 82, 36, 1.0)" />
	<rect x="90" y="130" width="10" height="10" fill="rgba(162, 82, 36, 1.0)" />
	<rect x="100" y="130" width="10" height="10" fill="rgba(154, 82, 33, 1.0)" />
	<rect x="110" y="130" width="10" height="10" fill="rgba(159, 82, 36, 1.0)" />
	<rect x="120" y="130" width="10" height="10" fill="rgba(162, 82, 36, 1.0)" />
	<rect x="130" y="130" width="10" height="10" fill="rgba(162, 83, 37, 1.0)" />
	<rect x="140" y="130" width="10" height="10" fill="rgba(165, 90, 39, 1.0)" />
	<rect x="150" y="130" width="10" height="10" fill="rgba(167, 87, 41, 1.0)" />
	<rect x="0" y="140" width="10" height="10" fill="rgba(162, 83, 38, 1.0)" />
	<rect x="10" y="140" width="10" height="10" fill="rgba(160, 85, 38, 1.0)" />
	<rect x="20" y="140" width="10" height="10" fill="rgba(160, 83, 38, 1.0)" />
	<rect x="30" y="140" width="10" height="10" fill="rgba(162, 79, 33, 1.0)" />
	<rect x="40" y="140" width="10" height="10" fill="rgba(158, 81, 34, 1.0)" />
	<rect x="50" y="140" width="10" height="10" fill="rgba(160, 83, 37, 1.0)" />
	<rect x="60" y="140" width="10" height="10" fill="rgba(162, 82, 36, 1.0)" />
	<rect x="70" y="140" width="10" height="10" fill="rgba(159, 82, 36, 1.0)" />
	<rect x="80" y="140" width="10" height="10" fill="rgba(160, 83, 37, 1.0)" />
	<rect x="90" y="140" width="10" height="10" fill="rgba(160, 83, 38, 1.0)" />
	<rect x="100" y="140" width="10" height="10" fill="rgba(163, 85, 39, 1.0)" />
	<rect x="110" y="140" width="10" height="10" fill="rgba(163, 85, 38, 1.0)" />
	<rect x="120" y="140" width="10" height="10" fill="rgba(162, 83, 36, 1.0)" />
	<rect x="130" y="140" width="10" height="10" fill="rgba(159, 82, 36, 1.0)" />
	<rect x="140" y="140" width="10" height="10" fill="rgba(162, 82, 36, 1.0)" />
	<rect x="150" y="140" width="10" height="10" fill="rgba(164, 86, 39, 1.0)" />
	<rect x="0" y="150" width="10" height="10" fill="rgba(160, 83, 38, 1.0)" />
	<rect x="10" y="150" width="10" height="10" fill="rgba(162, 84, 39, 1.0)" />
	<rect x="20" y="150" width="10" height="10" fill="rgba(162, 84, 39, 1.0)" />
	<rect x="30" y="150" width="10" height="10" fill="rgba(160, 85, 38, 1.0)" />
	<rect x="40" y="150" width="10" height="10" fill="rgba(160, 85, 38, 1.0)" />
	<rect x="50" y="150" width="10" height="10" fill="rgba(163, 86, 39, 1.0)" />
	<rect x="60" y="150" width="10" height="10" fill="rgba(167, 87, 41, 1.0)" />
	<rect x="70" y="150" width="10" height="10" fill="rgba(162, 85, 39, 1.0)" />
	<rect x="80" y="150" width="10" height="10" fill="rgba(160, 84, 38, 1.0)" />
	<rect x="90" y="150" width="10" height="10" fill="rgba(162, 85, 39, 1.0)" />
	<rect x="100" y="150" width="10" height="10" fill="rgba(162, 84, 38, 1.0)" />
	<rect x="110" y="150" width="10" height="10" fill="rgba(162, 82, 36, 1.0)" />
	<rect x="120" y="150" width="10" height="10" fill="rgba(159, 81, 35, 1.0)" />
	<rect x="130" y="150" width="10" height="10" fill="rgba(158, 81, 35, 1.0)" />
	<rect x="140" y="150" width="10" height="10" fill="rgba(162, 83, 36, 1.0)" />
	<rect x="150" y="150" width="10" height="10" fill="rgba(162, 84, 39, 1.0)" />
</svg>