<svg xmlns="http://www.w3.org/2000/svg" xmlns:xlink="http://www.w3.org/1999/xlink">
	<rect x="0" y="0" width="10" height="10" fill="rgba(160, 77, 78, 1.0)" />
	<rect x="10" y="0" width="10" height="10" fill="rgba(159, 76, 77, 1.0)" />
	<rect x="20" y="0" width="10" height="10" fill="rgba(159, 76, 77, 1.0)" />
	<rect x="30" y="0" width="10" height="10" fill="rgba(159, 76, 77, 1.0)" />
	<rect x="40" y="0" width="10" height="10" fill="rgba(160, 76, 78, 1.0)" />
	<rect x="50" y="0" width="10" height="10" fill="rgba(163, 79, 81, 1.0)" />
	<rect x="60" y="0" width="10" height="10" fill="rgba(166, 82, 82, 1.0)" />
	<rect x="70" y="0" width="10" height="10" fill="rgba(164, 81, 81, 1.0)" />
	<rect x="80" y="0" width="10" height="10" fill="rgba(159, 77, 77, 1.0)" />
	<rect x="90" y="0" width="10" height="10" fill="rgba(166, 82, 81, 1.0)" />
	<rect x="100" y="0" width="10" height="10" fill="rgba(164, 82, 81, 1.0)" />
	<rect x="110" y="0" width="10" height="10" fill="rgba(160, 77, 77, 1.0)" />
	<rect x="120" y="0" width="10" height="10" fill="rgba(158, 74, 75, 1.0)" />
	<rect x="130" y="0" width="10" height="10" fill="rgba(158, 74, 75, 1.0)" />
	<rect x="140" y="0" width="10" height="10" fill="rgba(159, 75, 75, 1.0)" />
	<rect x="150" y="0" width="10" height="10" fill="rgba(160, 77, 77, 1.0)" />
	<rect x="0" y="10" width="10" height="10" fill="rgba(160, 77, 78, 1.0)" />
	<rect x="10" y="10" width="10" height="10" fill="rgba(162, 77, 78, 1.0)" />
	<rect x="20" y="10" width="10" height="10" fill="rgba(166, 82, 82, 1.0)" />
	<rect x="30" y="10" width="10" height="10" fill="rgba(167, 82, 82, 1.0)" />
	<rect x="40" y="10" width="10" height="10" fill="rgba(167, 80, 82, 1.0)" />
	<rect x="50" y="10" width="10" height="10" fill="rgba(163, 79, 83, 1.0)" />
	<rect x="60" y="10" width="10" height="10" fill="rgba(160, 78, 78, 1.0)" />
	<rect x="70" y="10" width="10" height="10" fill="rgba(160, 77, 77, 1.0)" />
	<rect x="80" y="10" width="10" height="10" fill="rgba(160, 78, 77, 1.0)" />
	<rect x="90" y="10" width="10" height="10" fill="rgba(163, 80, 78, 1.0)" />
	<rect x="100" y="10" width="10" height="10" fill="rgba(165, 82, 82, 1.0)" />
	<rect x="110" y="10" width="10" height="10" fill="rgba(164, 81, 81, 1.0)" />
	<rect x="120" y="10" width="10" height="10" fill="rgba(159, 75, 76, 1.0)" />
	<rect x="130" y="10" width="10" height="10" fill="rgba(162, 77, 78, 1.0)" />
	<rect x="140" y="10" width="10" height="10" fill="rgba(162, 77, 78, 1.0)" />
	<rect x="150" y="10" width="10" height="10" fill="rgba(159, 76, 77, 1.0)" />
	<rect x="0" y="20" width="10" height="10" fill="rgba(160, 78, 79, 1.0)" />
	<rect x="10" y="20" width="10" height="10" fill="rgba(155, 77, 78, 1.0)" />
	<rect x="20" y="20" width="10" height="10" fill="rgba(160, 78, 78, 1.0)" />
	<rect x="30" y="20" width="10" height="10" fill="rgba(160, 77, 77, 1.0)" />
	<rect x="40" y="20" width="10" height="10" fill="rgba(159, 75, 76, 1.0)" />
	<rect x="50" y="20" width="10" height="10" fill="rgba(158, 75, 76, 1.0)" />
	<rect x="60" y="20" width="10" height="10" fill="rgba(159, 75, 76, 1.0)" />
	<rect x="70" y="20" width="10" height="10" fill="rgba(160, 77, 77, 1.0)" />
	<rect x="80" y="20" width="10" height="10" fill="rgba(164, 80, 80, 1.0)" />
	<rect x="90" y="20" width="10" height="10" fill="rgba(162, 79, 80, 1.0)" />
	<rect x="100" y="20" width="10" height="10" fill="rgba(162, 80, 80, 1.0)" />
	<rect x="110" y="20" width="10" height="10" fill="rgba(162, 79, 80, 1.0)" />
	<rect x="120" y="20" width="10" height="10" fill="rgba(160, 78, 79, 1.0)" />
	<rect x="130" y="20" width="10" height="10" fill="rgba(163, 82, 80, 1.0)" />
	<rect x="140" y="20" width="10" height="10" fill="rgba(163, 79, 78, 1.0)" />
	<rect x="150" y="20" width="10" height="10" fill="rgba(163, 79, 76, 1.0)" />
	<rect x="0" y="30" width="10" height="10" fill="rgba(163, 80, 80, 1.0)" />
	<rect x="10" y="30" width="10" height="10" fill="rgba(164, 82, 81, 1.0)" />
	<rect x="20" y="30" width="10" height="10" fill="rgba(163, 79, 79, 1.0)" />
	<rect x="30" y="30" width="10" height="10" fill="rgba(162, 76, 76, 1.0)" />
	<rect x="40" y="30" width="10" height="10" fill="rgba(158, 75, 76, 1.0)" />
	<rect x="50" y="30" width="10" height="10" fill="rgba(157, 74, 75, 1.0)" />
	<rect x="60" y="30" width="10" height="10" fill="rgba(159, 76, 77, 1.0)" />
	<rect x="70" y="30" width="10" height="10" fill="rgba(166, 78, 79, 1.0)" />
	<rect x="80" y="30" width="10" height="10" fill="rgba(162, 78, 79, 1.0)" />
	<rect x="90" y="30" width="10" height="10" fill="rgba(160, 77, 78, 1.0)" />
	<rect x="100" y="30" width="10" height="10" fill="rgba(160, 77, 78, 1.0)" />
	<rect x="110" y="30" width="10" height="10" fill="rgba(160, 79, 78, 1.0)" />
	<rect x="120" y="30" width="10" height="10" fill="rgba(162, 78, 79, 1.0)" />
	<rect x="130" y="30" width="10" height="10" fill="rgba(162, 78, 79, 1.0)" />
	<rect x="140" y="30" width="10" height="10" fill="rgba(162, 77, 76, 1.0)" />
	<rect x="150" y="30" width="10" height="10" fill="rgba(160, 77, 76, 1.0)" />
	<rect x="0" y="40" width="10" height="10" fill="rgba(163, 79, 79, 1.0)" />
	<rect x="10" y="40" width="10" height="10" fill="rgba(167, 82, 82, 1.0)" />
	<rect x="20" y="40" width="10" height="10" fill="rgba(165, 81, 82, 1.0)" />
	<rect x="30" y="40" width="10" height="10" fill="rgba(164, 80, 80, 1.0)" />
	<rect x="40" y="40" width="10" height="10" fill="rgba(163, 80, 80, 1.0)" />
	<rect x="50" y="40" width="10" height="10" fill="rgba(157, 74, 75, 1.0)" />
	<rect x="60" y="40" width="10" height="10" fill="rgba(159, 75, 75, 1.0)" />
	<rect x="70" y="40" width="10" height="10" fill="rgba(160, 75, 75, 1.0)" />
	<rect x="80" y="40" width="10" height="10" fill="rgba(160, 75, 78, 1.0)" />
	<rect x="90" y="40" width="10" height="10" fill="rgba(159, 76, 77, 1.0)" />
	<rect x="100" y="40" width="10" height="10" fill="rgba(168, 82, 82, 1.0)" />
	<rect x="110" y="40" width="10" height="10" fill="rgba(168, 82, 82, 1.0)" />
	<rect x="120" y="40" width="10" height="10" fill="rgba(163, 78, 78, 1.0)" />
	<rect x="130" y="40" width="10" height="10" fill="rgba(160, 77, 78, 1.0)" />
	<rect x="140" y="40" width="10" height="10" fill="rgba(163, 79, 79, 1.0)" />
	<rect x="150" y="40" width="10" height="10" fill="rgba(160, 77, 77, 1.0)" />
	<rect x="0" y="50" width="10" height="10" fill="rgba(167, 82, 82, 1.0)" />
	<rect x="10" y="50" width="10" height="10" fill="rgba(163, 79, 79, 1.0)" />
	<rect x="20" y="50" width="10" height="10" fill="rgba(164, 80, 81, 1.0)" />
	<rect x="30" y="50" width="10" height="10" fill="rgba(160, 78, 79, 1.0)" />
	<rect x="40" y="50" width="10" height="10" fill="rgba(160, 76, 76, 1.0)" />
	<rect x="50" y="50" width="10" height="10" fill="rgba(163, 78, 78, 1.0)" />
	<rect x="60" y="50" width="10" height="10" fill="rgba(163, 78, 78, 1.0)" />
	<rect x="70" y="50" width="10" height="10" fill="rgba(162, 78, 79, 1.0)" />
	<rect x="80" y="50" width="10" height="10" fill="rgba(162, 78, 79, 1.0)" />
	<rect x="90" y="50" width="10" height="10" fill="rgba(162, 78, 79, 1.0)" />
	<rect x="100" y="50" width="10" height="10" fill="rgba(163, 79, 79, 1.0)" />
	<rect x="110" y="50" width="10" height="10" fill="rgba(163, 80, 80, 1.0)" />
	<rect x="120" y="50" width="10" height="10" fill="rgba(163, 80, 80, 1.0)" />
	<rect x="130" y="50" width="10" height="10" fill="rgba(163, 79, 79, 1.0)" />
	<rect x="140" y="50" width="10" height="10" fill="rgba(160, 77, 78, 1.0)" />
	<rect x="150" y="50" width="10" height="10" fill="rgba(167, 82, 82, 1.0)" />
	<rect x="0" y="60" width="10" height="10" fill="rgba(164, 80, 80, 1.0)" />
	<rect x="10" y="60" width="10" height="10" fill="rgba(164, 81, 81, 1.0)" />
	<rect x="20" y="60" width="10" height="10" fill="rgba(163, 80, 81, 1.0)" />
	<rect x="30" y="60" width="10" height="10" fill="rgba(160, 78, 79, 1.0)" />
	<rect x="40" y="60" width="10" height="10" fill="rgba(160, 77, 77, 1.0)" />
	<rect x="50" y="60" width="10" height="10" fill="rgba(159, 76, 77, 1.0)" />
	<rect x="60" y="60" width="10" height="10" fill="rgba(162, 77, 79, 1.0)" />
	<rect x="70" y="60" width="10" height="10" fill="rgba(167, 78, 82, 1.0)" />
	<rect x="80" y="60" width="10" height="10" fill="rgba(162, 76, 76, 1.0)" />
	<rect x="90" y="60" width="10" height="10" fill="rgba(159, 76, 77, 1.0)" />
	<rect x="100" y="60" width="10" height="10" fill="rgba(160, 77, 78, 1.0)" />
	<rect x="110" y="60" width="10" height="10" fill="rgba(163, 79, 79, 1.0)" />
	<rect x="120" y="60" width="10" height="10" fill="rgba(164, 82, 81, 1.0)" />
	<rect x="130" y="60" width="10" height="10" fill="rgba(165, 81, 81, 1.0)" />
	<rect x="140" y="60" width="10" height="10" fill="rgba(164, 80, 79, 1.0)" />
	<rect x="150" y="60" width="10" height="10" fill="rgba(160, 76, 76, 1.0)" />
	<rect x="0" y="70" width="10" height="10" fill="rgba(164, 80, 82, 1.0)" />
	<rect x="10" y="70" width="10" height="10" fill="rgba(162, 77, 78, 1.0)" />
	<rect x="20" y="70" width="10" height="10" fill="rgba(160, 77, 77, 1.0)" />
	<rect x="30" y="70" width="10" height="10" fill="rgba(159, 76, 77, 1.0)" />
	<rect x="40" y="70" width="10" height="10" fill="rgba(164, 80, 80, 1.0)" />
	<rect x="50" y="70" width="10" height="10" fill="rgba(164, 80, 80, 1.0)" />
	<rect x="60" y="70" width="10" height="10" fill="rgba(159, 76, 77, 1.0)" />
	<rect x="70" y="70" width="10" height="10" fill="rgba(164, 81, 80, 1.0)" />
	<rect x="80" y="70" width="10" height="10" fill="rgba(166, 81, 81, 1.0)" />
	<rect x="90" y="70" width="10" height="10" fill="rgba(162, 78, 79, 1.0)" />
	<rect x="100" y="70" width="10" height="10" fill="rgba(160, 77, 78, 1.0)" />
	<rect x="110" y="70" width="10" height="10" fill="rgba(162, 78, 79, 1.0)" />
	<rect x="120" y="70" width="10" height="10" fill="rgba(162, 78, 79, 1.0)" />
	<rect x="130" y="70" width="10" height="10" fill="rgba(163, 79, 79, 1.0)" />
	<rect x="140" y="70" width="10" height="10" fill="rgba(164, 80, 81, 1.0)" />
	<rect x="150" y="70" width="10" height="10" fill="rgba(164, 80, 81, 1.0)" />
	<rect x="0" y="80" width="10" height="10" fill="rgba(164, 80, 82, 1.0)" />
	<rect x="10" y="80" width="10" height="10" fill="rgba(164, 81, 81, 1.0)" />
	<rect x="20" y="80" width="10" height="10" fill="rgba(163, 81, 81, 1.0)" />
	<rect x="30" y="80" width="10" height="10" fill="rgba(157, 74, 75, 1.0)" />
	<rect x="40" y="80" width="10" height="10" fill="rgba(160, 77, 78, 1.0)" />
	<rect x="50" y="80" width="10" height="10" fill="rgba(159, 75, 76, 1.0)" />
	<rect x="60" y="80" width="10" height="10" fill="rgba(160, 77, 78, 1.0)" />
	<rect x="70" y="80" width="10" height="10" fill="rgba(160, 77, 78, 1.0)" />
	<rect x="80" y="80" width="10" height="10" fill="rgba(160, 77, 78, 1.0)" />
	<rect x="90" y="80" width="10" height="10" fill="rgba(163, 80, 81, 1.0)" />
	<rect x="100" y="80" width="10" height="10" fill="rgba(166, 81, 81, 1.0)" />
	<rect x="110" y="80" width="10" height="10" fill="rgba(165, 82, 81, 1.0)" />
	<rect x="120" y="80" width="10" height="10" fill="rgba(166, 81, 81, 1.0)" />
	<rect x="130" y="80" width="10" height="10" fill="rgba(166, 82, 82, 1.0)" />
	<rect x="140" y="80" width="10" height="10" fill="rgba(167, 82, 83, 1.0)" />
	<rect x="150" y="80" width="10" height="10" fill="rgba(162, 78, 79, 1.0)" />
	<rect x="0" y="90" width="10" height="10" fill="rgba(164, 80, 81, 1.0)" />
	<rect x="10" y="90" width="10" height="10" fill="rgba(162, 78, 79, 1.0)" />
	<rect x="20" y="90" width="10" height="10" fill="rgba(160, 77, 78, 1.0)" />
	<rect x="30" y="90" width="10" height="10" fill="rgba(159, 75, 76, 1.0)" />
	<rect x="40" y="90" width="10" height="10" fill="rgba(159, 75, 76, 1.0)" />
	<rect x="50" y="90" width="10" height="10" fill="rgba(159, 76, 77, 1.0)" />
	<rect x="60" y="90" width="10" height="10" fill="rgba(160, 77, 78, 1.0)" />
	<rect x="70" y="90" width="10" height="10" fill="rgba(159, 76, 77, 1.0)" />
	<rect x="80" y="90" width="10" height="10" fill="rgba(162, 78, 79, 1.0)" />
	<rect x="90" y="90" width="10" height="10" fill="rgba(160, 78, 77, 1.0)" />
	<rect x="100" y="90" width="10" height="10" fill="rgba(160, 77, 78, 1.0)" />
	<rect x="110" y="90" width="10" height="10" fill="rgba(160, 77, 78, 1.0)" />
	<rect x="120" y="90" width="10" height="10" fill="rgba(162, 80, 80, 1.0)" />
	<rect x="130" y="90" width="10" height="10" fill="rgba(162, 80, 80, 1.0)" />
	<rect x="140" y="90" width="10" height="10" fill="rgba(168, 83, 82, 1.0)" />
	<rect x="150" y="90" width="10" height="10" fill="rgba(165, 82, 82, 1.0)" />
	<rect x="0" y="100" width="10" height="10" fill="rgba(162, 77, 76, 1.0)" />
	<rect x="10" y="100" width="10" height="10" fill="rgba(163, 78, 78, 1.0)" />
	<rect x="20" y="100" width="10" height="10" fill="rgba(160, 78, 79, 1.0)" />
	<rect x="30" y="100" width="10" height="10" fill="rgba(159, 75, 76, 1.0)" />
	<rect x="40" y="100" width="10" height="10" fill="rgba(159, 75, 77, 1.0)" />
	<rect x="50" y="100" width="10" height="10" fill="rgba(168, 82, 82, 1.0)" />
	<rect x="60" y="100" width="10" height="10" fill="rgba(168, 82, 82, 1.0)" />
	<rect x="70" y="100" width="10" height="10" fill="rgba(160, 75, 74, 1.0)" />
	<rect x="80" y="100" width="10" height="10" fill="rgba(162, 79, 80, 1.0)" />
	<rect x="90" y="100" width="10" height="10" fill="rgba(163, 80, 80, 1.0)" />
	<rect x="100" y="100" width="10" height="10" fill="rgba(167, 82, 82, 1.0)" />
	<rect x="110" y="100" width="10" height="10" fill="rgba(166, 82, 82, 1.0)" />
	<rect x="120" y="100" width="10" height="10" fill="rgba(163, 78, 78, 1.0)" />
	<rect x="130" y="100" width="10" height="10" fill="rgba(162, 79, 78, 1.0)" />
	<rect x="140" y="100" width="10" height="10" fill="rgba(162, 77, 78, 1.0)" />
	<rect x="150" y="100" width="10" height="10" fill="rgba(159, 76, 77, 1.0)" />
	<rect x="0" y="110" width="10" height="10" fill="rgba(159, 75, 77, 1.0)" />
	<rect x="10" y="110" width="10" height="10" fill="rgba(162, 77, 78, 1.0)" />
	<rect x="20" y="110" width="10" height="10" fill="rgba(163, 78, 78, 1.0)" />
	<rect x="30" y="110" width="10" height="10" fill="rgba(160, 77, 78, 1.0)" />
	<rect x="40" y="110" width="10" height="10" fill="rgba(159, 76, 77, 1.0)" />
	<rect x="50" y="110" width="10" height="10" fill="rgba(163, 78, 78, 1.0)" />
	<rect x="60" y="110" width="10" height="10" fill="rgba(162, 79, 80, 1.0)" />
	<rect x="70" y="110" width="10" height="10" fill="rgba(160, 77, 79, 1.0)" />
	<rect x="80" y="110" width="10" height="10" fill="rgba(166, 81, 81, 1.0)" />
	<rect x="90" y="110" width="10" height="10" fill="rgba(167, 82, 82, 1.0)" />
	<rect x="100" y="110" width="10" height="10" fill="rgba(164, 80, 81, 1.0)" />
	<rect x="110" y="110" width="10" height="10" fill="rgba(163, 80, 80, 1.0)" />
	<rect x="120" y="110" width="10" height="10" fill="rgba(163, 80, 80, 1.0)" />
	<rect x="130" y="110" width="10" height="10" fill="rgba(165, 82, 81, 1.0)" />
	<rect x="140" y="110" width="10" height="10" fill="rgba(164, 81, 81, 1.0)" />
	<rect x="150" y="110" width="10" height="10" fill="rgba(162, 78, 79, 1.0)" />
	<rect x="0" y="120" width="10" height="10" fill="rgba(160, 75, 78, 1.0)" />
	<rect x="10" y="120" width="10" height="10" fill="rgba(160, 77, 78, 1.0)" />
	<rect x="20" y="120" width="10" height="10" fill="rgba(160, 77, 78, 1.0)" />
	<rect x="30" y="120" width="10" height="10" fill="rgba(162, 77, 78, 1.0)" />
	<rect x="40" y="120" width="10" height="10" fill="rgba(160, 78, 77, 1.0)" />
	<rect x="50" y="120" width="10" height="10" fill="rgba(162, 76, 76, 1.0)" />
	<rect x="60" y="120" width="10" height="10" fill="rgba(159, 76, 77, 1.0)" />
	<rect x="70" y="120" width="10" height="10" fill="rgba(160, 77, 78, 1.0)" />
	<rect x="80" y="120" width="10" height="10" fill="rgba(168, 83, 84, 1.0)" />
	<rect x="90" y="120" width="10" height="10" fill="rgba(169, 80, 80, 1.0)" />
	<rect x="100" y="120" width="10" height="10" fill="rgba(160, 77, 77, 1.0)" />
	<rect x="110" y="120" width="10" height="10" fill="rgba(159, 75, 76, 1.0)" />
	<rect x="120" y="120" width="10" height="10" fill="rgba(160, 76, 76, 1.0)" />
	<rect x="130" y="120" width="10" height="10" fill="rgba(162, 79, 78, 1.0)" />
	<rect x="140" y="120" width="10" height="10" fill="rgba(162, 78, 79, 1.0)" />
	<rect x="150" y="120" width="10" height="10" fill="rgba(163, 79, 79, 1.0)" />
	<rect x="0" y="130" width="10" height="10" fill="rgba(162, 79, 80, 1.0)" />
	<rect x="10" y="130" width="10" height="10" fill="rgba(163, 80, 79, 1.0)" />
	<rect x="20" y="130" width="10" height="10" fill="rgba(163, 80, 79, 1.0)" />
	<rect x="30" y="130" width="10" height="10" fill="rgba(164, 82, 81, 1.0)" />
	<rect x="40" y="130" width="10" height="10" fill="rgba(160, 80, 79, 1.0)" />
	<rect x="50" y="130" width="10" height="10" fill="rgba(164, 83, 82, 1.0)" />
	<rect x="60" y="130" width="10" height="10" fill="rgba(162, 77, 76, 1.0)" />
	<rect x="70" y="130" width="10" height="10" fill="rgba(159, 75, 76, 1.0)" />
	<rect x="80" y="130" width="10" height="10" fill="rgba(160, 77, 77, 1.0)" />
	<rect x="90" y="130" width="10" height="10" fill="rgba(162, 76, 76, 1.0)" />
	<rect x="100" y="130" width="10" height="10" fill="rgba(155, 76, 73, 1.0)" />
	<rect x="110" y="130" width="10" height="10" fill="rgba(159, 76, 77, 1.0)" />
	<rect x="120" y="130" width="10" height="10" fill="rgba(162, 76, 76, 1.0)" />
	<rect x="130" y="130" width="10" height="10" fill="rgba(163, 78, 78, 1.0)" />
	<rect x="140" y="130" width="10" height="10" fill="rgba(165, 83, 81, 1.0)" />
	<rect x="150" y="130" width="10" height="10" fill="rgba(167, 82, 82, 1.0)" />
	<rect x="0" y="140" width="10" height="10" fill="rgba(162, 78, 79, 1.0)" />
	<rect x="10" y="140" width="10" height="10" fill="rgba(160, 80, 79, 1.0)" />
	<rect x="20" y="140" width="10" height="10" fill="rgba(160, 78, 79, 1.0)" />
	<rect x="30" y="140" width="10" height="10" fill="rgba(163, 73, 73, 1.0)" />
	<rect x="40" y="140" width="10" height="10" fill="rgba(158, 74, 75, 1.0)" />
	<rect x="50" y="140" width="10" height="10" fill="rgba(160, 77, 78, 1.0)" />
	<rect x="60" y="140" width="10" height="10" fill="rgba(162, 76, 76, 1.0)" />
	<rect x="70" y="140" width="10" height="10" fill="rgba(159, 76, 77, 1.0)" />
	<rect x="80" y="140" width="10" height="10" fill="rgba(160, 77, 78, 1.0)" />
	<rect x="90" y="140" width="10" height="10" fill="rgba(160, 78, 79, 1.0)" />
	<rect x="100" y="140" width="10" height="10" fill="rgba(163, 80, 80, 1.0)" />
	<rect x="110" y="140" width="10" height="10" fill="rgba(164, 80, 79, 1.0)" />
	<rect x="120" y="140" width="10" height="10" fill="rgba(162, 77, 78, 1.0)" />
	<rect x="130" y="140" width="10" height="10" fill="rgba(159, 77, 76, 1.0)" />
	<rect x="140" y="140" width="10" height="10" fill="rgba(162, 76, 76, 1.0)" />
	<rect x="150" y="140" width="10" height="10" fill="rgba(164, 80, 80, 1.0)" />
	<rect x="0" y="150" width="10" height="10" fill="rgba(160, 78, 79, 1.0)" />
	<rect x="10" y="150" width="10" height="10" fill="rgba(162, 79, 80, 1.0)" />
	<rect x="20" y="150" width="10" height="10" fill="rgba(162, 79, 80, 1.0)" />
	<rect x="30" y="150" width="10" height="10" fill="rgba(160, 80, 79, 1.0)" />
	<rect x="40" y="150" width="10" height="10" fill="rgba(160, 80, 79, 1.0)" />
	<rect x="50" y="150" width="10" height="10" fill="rgba(164, 80, 81, 1.0)" />
	<rect x="60" y="150" width="10" height="10" fill="rgba(167, 82, 82, 1.0)" />
	<rect x="70" y="150" width="10" height="10" fill="rgba(163, 80, 81, 1.0)" />
	<rect x="80" y="150" width="10" height="10" fill="rgba(160, 79, 79, 1.0)" />
	<rect x="90" y="150" width="10" height="10" fill="rgba(163, 80, 81, 1.0)" />
	<rect x="100" y="150" width="10" height="10" fill="rgba(163, 79, 79, 1.0)" />
	<rect x="110" y="150" width="10" height="10" fill="rgba(162, 76, 76, 1.0)" />
	<rect x="120" y="150" width="10" height="10" fill="rgba(160, 75, 75, 1.0)" />
	<rect x="130" y="150" width="10" height="10" fill="rgba(159, 75, 75, 1.0)" />
	<rect x="140" y="150" width="10" height="10" fill="rgba(162, 77, 78, 1.0)" />
	<rect x="150" y="150" width="10" height="10" fill="rgba(162, 79, 80, 1.0)" />
</svg>