<svg xmlns="http://www.w3.org/2000/svg" xmlns:xlink="http://www.w3.org/1999/xlink">
	<rect x="0" y="0" width="10" height="10" fill="rgba(223, 146, 172, 1.0)" />
	<rect x="10" y="0" width="10" height="10" fill="rgba(230, 149, 179, 1.0)" />
	<rect x="20" y="0" width="10" height="10" fill="rgba(230, 147, 179, 1.0)" />
	<rect x="30" y="0" width="10" height="10" fill="rgba(227, 144, 174, 1.0)" />
	<rect x="40" y="0" width="10" height="10" fill="rgba(229, 144, 176, 1.0)" />
	<rect x="50" y="0" width="10" height="10" fill="rgba(221, 133, 168, 1.0)" />
	<rect x="60" y="0" width="10" height="10" fill="rgba(227, 149, 176, 1.0)" />
	<rect x="70" y="0" width="10" height="10" fill="rgba(225, 141, 171, 1.0)" />
	<rect x="80" y="0" width="10" height="10" fill="rgba(235, 164, 189, 1.0)" />
	<rect x="90" y="0" width="10" height="10" fill="rgba(229, 148, 177, 1.0)" />
	<rect x="100" y="0" width="10" height="10" fill="rgba(228, 148, 177, 1.0)" />
	<rect x="110" y="0" width="10" height="10" fill="rgba(236, 193, 209, 1.0)" />
	<rect x="120" y="0" width="10" height="10" fill="rgba(221, 133, 168, 1.0)" />
	<rect x="130" y="0" width="10" height="10" fill="rgba(237, 148, 184, 1.0)" />
	<rect x="140" y="0" width="10" height="10" fill="rgba(227, 164, 186, 1.0)" />
	<rect x="150" y="0" width="10" height="10" fill="rgba(227, 147, 176, 1.0)" />
	<rect x="0" y="10" width="10" height="10" fill="rgba(229, 148, 178, 1.0)" />
	<rect x="10" y="10" width="10" height="10" fill="rgba(230, 155, 181, 1.0)" />
	<rect x="20" y="10" width="10" height="10" fill="rgba(228, 144, 176, 1.0)" />
	<rect x="30" y="10" width="10" height="10" fill="rgba(238, 170, 195, 1.0)" />
	<rect x="40" y="10" width="10" height="10" fill="rgba(224, 162, 184, 1.0)" />
	<rect x="50" y="10" width="10" height="10" fill="rgba(221, 138, 168, 1.0)" />
	<rect x="60" y="10" width="10" height="10" fill="rgba(230, 159, 183, 1.0)" />
	<rect x="70" y="10" width="10" height="10" fill="rgba(228, 153, 178, 1.0)" />
	<rect x="80" y="10" width="10" height="10" fill="rgba(235, 155, 186, 1.0)" />
	<rect x="90" y="10" width="10" height="10" fill="rgba(230, 146, 178, 1.0)" />
	<rect x="100" y="10" width="10" height="10" fill="rgba(242, 157, 192, 1.0)" />
	<rect x="110" y="10" width="10" height="10" fill="rgba(232, 156, 182, 1.0)" />
	<rect x="120" y="10" width="10" height="10" fill="rgba(225, 139, 172, 1.0)" />
	<rect x="130" y="10" width="10" height="10" fill="rgba(216, 126, 163, 1.0)" />
	<rect x="140" y="10" width="10" height="10" fill="rgba(229, 148, 178, 1.0)" />
	<rect x="150" y="10" width="10" height="10" fill="rgba(238, 177, 199, 1.0)" />
	<rect x="0" y="20" width="10" height="10" fill="rgba(237, 170, 194, 1.0)" />
	<rect x="10" y="20" width="10" height="10" fill="rgba(241, 203, 219, 1.0)" />
	<rect x="20" y="20" width="10" height="10" fill="rgba(238, 154, 187, 1.0)" />
	<rect x="30" y="20" width="10" height="10" fill="rgba(216, 126, 162, 1.0)" />
	<rect x="40" y="20" width="10" height="10" fill="rgba(226, 146, 176, 1.0)" />
	<rect x="50" y="20" width="10" height="10" fill="rgba(232, 162, 186, 1.0)" />
	<rect x="60" y="20" width="10" height="10" fill="rgba(228, 145, 176, 1.0)" />
	<rect x="70" y="20" width="10" height="10" fill="rgba(234, 166, 189, 1.0)" />
	<rect x="80" y="20" width="10" height="10" fill="rgba(234, 184, 202, 1.0)" />
	<rect x="90" y="20" width="10" height="10" fill="rgba(230, 149, 179, 1.0)" />
	<rect x="100" y="20" width="10" height="10" fill="rgba(238, 167, 193, 1.0)" />
	<rect x="110" y="20" width="10" height="10" fill="rgba(237, 162, 189, 1.0)" />
	<rect x="120" y="20" width="10" height="10" fill="rgba(233, 188, 206, 1.0)" />
	<rect x="130" y="20" width="10" height="10" fill="rgba(216, 132, 164, 1.0)" />
	<rect x="140" y="20" width="10" height="10" fill="rgba(229, 154, 180, 1.0)" />
	<rect x="150" y="20" width="10" height="10" fill="rgba(244, 184, 206, 1.0)" />
	<rect x="0" y="30" width="10" height="10" fill="rgba(226, 149, 176, 1.0)" />
	<rect x="10" y="30" width="10" height="10" fill="rgba(231, 158, 183, 1.0)" />
	<rect x="20" y="30" width="10" height="10" fill="rgba(220, 132, 166, 1.0)" />
	<rect x="30" y="30" width="10" height="10" fill="rgba(228, 146, 176, 1.0)" />
	<rect x="40" y="30" width="10" height="10" fill="rgba(227, 149, 177, 1.0)" />
	<rect x="50" y="30" width="10" height="10" fill="rgba(235, 172, 196, 1.0)" />
	<rect x="60" y="30" width="10" height="10" fill="rgba(220, 137, 168, 1.0)" />
	<rect x="70" y="30" width="10" height="10" fill="rgba(231, 153, 181, 1.0)" />
	<rect x="80" y="30" width="10" height="10" fill="rgba(216, 146, 169, 1.0)" />
	<rect x="90" y="30" width="10" height="10" fill="rgba(225, 141, 171, 1.0)" />
	<rect x="100" y="30" width="10" height="10" fill="rgba(225, 140, 172, 1.0)" />
	<rect x="110" y="30" width="10" height="10" fill="rgba(232, 155, 183, 1.0)" />
	<rect x="120" y="30" width="10" height="10" fill="rgba(230, 146, 178, 1.0)" />
	<rect x="130" y="30" width="10" height="10" fill="rgba(238, 171, 195, 1.0)" />
	<rect x="140" y="30" width="10" height="10" fill="rgba(229, 149, 178, 1.0)" />
	<rect x="150" y="30" width="10" height="10" fill="rgba(220, 142, 168, 1.0)" />
	<rect x="0" y="40" width="10" height="10" fill="rgba(235, 163, 188, 1.0)" />
	<rect x="10" y="40" width="10" height="10" fill="rgba(226, 144, 172, 1.0)" />
	<rect x="20" y="40" width="10" height="10" fill="rgba(235, 157, 186, 1.0)" />
	<rect x="30" y="40" width="10" height="10" fill="rgba(226, 144, 174, 1.0)" />
	<rect x="40" y="40" width="10" height="10" fill="rgba(234, 153, 183, 1.0)" />
	<rect x="50" y="40" width="10" height="10" fill="rgba(237, 165, 191, 1.0)" />
	<rect x="60" y="40" width="10" height="10" fill="rgba(231, 148, 180, 1.0)" />
	<rect x="70" y="40" width="10" height="10" fill="rgba(239, 174, 197, 1.0)" />
	<rect x="80" y="40" width="10" height="10" fill="rgba(230, 163, 186, 1.0)" />
	<rect x="90" y="40" width="10" height="10" fill="rgba(219, 134, 166, 1.0)" />
	<rect x="100" y="40" width="10" height="10" fill="rgba(230, 166, 188, 1.0)" />
	<rect x="110" y="40" width="10" height="10" fill="rgba(231, 148, 179, 1.0)" />
	<rect x="120" y="40" width="10" height="10" fill="rgba(220, 133, 167, 1.0)" />
	<rect x="130" y="40" width="10" height="10" fill="rgba(223, 151, 175, 1.0)" />
	<rect x="140" y="40" width="10" height="10" fill="rgba(225, 133, 172, 1.0)" />
	<rect x="150" y="40" width="10" height="10" fill="rgba(217, 134, 165, 1.0)" />
	<rect x="0" y="50" width="10" height="10" fill="rgba(228, 165, 187, 1.0)" />
	<rect x="10" y="50" width="10" height="10" fill="rgba(229, 147, 177, 1.0)" />
	<rect x="20" y="50" width="10" height="10" fill="rgba(229, 163, 186, 1.0)" />
	<rect x="30" y="50" width="10" height="10" fill="rgba(247, 171, 201, 1.0)" />
	<rect x="40" y="50" width="10" height="10" fill="rgba(226, 145, 174, 1.0)" />
	<rect x="50" y="50" width="10" height="10" fill="rgba(238, 171, 196, 1.0)" />
	<rect x="60" y="50" width="10" height="10" fill="rgba(235, 196, 212, 1.0)" />
	<rect x="70" y="50" width="10" height="10" fill="rgba(232, 155, 182, 1.0)" />
	<rect x="80" y="50" width="10" height="10" fill="rgba(219, 133, 166, 1.0)" />
	<rect x="90" y="50" width="10" height="10" fill="rgba(241, 175, 198, 1.0)" />
	<rect x="100" y="50" width="10" height="10" fill="rgba(234, 166, 190, 1.0)" />
	<rect x="110" y="50" width="10" height="10" fill="rgba(206, 118, 153, 1.0)" />
	<rect x="120" y="50" width="10" height="10" fill="rgba(229, 161, 184, 1.0)" />
	<rect x="130" y="50" width="10" height="10" fill="rgba(230, 171, 193, 1.0)" />
	<rect x="140" y="50" width="10" height="10" fill="rgba(230, 154, 181, 1.0)" />
	<rect x="150" y="50" width="10" height="10" fill="rgba(221, 146, 171, 1.0)" />
	<rect x="0" y="60" width="10" height="10" fill="rgba(205, 119, 153, 1.0)" />
	<rect x="10" y="60" width="10" height="10" fill="rgba(220, 131, 168, 1.0)" />
	<rect x="20" y="60" width="10" height="10" fill="rgba(223, 142, 170, 1.0)" />
	<rect x="30" y="60" width="10" height="10" fill="rgba(234, 169, 191, 1.0)" />
	<rect x="40" y="60" width="10" height="10" fill="rgba(211, 127, 159, 1.0)" />
	<rect x="50" y="60" width="10" height="10" fill="rgba(222, 132, 168, 1.0)" />
	<rect x="60" y="60" width="10" height="10" fill="rgba(220, 133, 167, 1.0)" />
	<rect x="70" y="60" width="10" height="10" fill="rgba(223, 140, 169, 1.0)" />
	<rect x="80" y="60" width="10" height="10" fill="rgba(220, 133, 167, 1.0)" />
	<rect x="90" y="60" width="10" height="10" fill="rgba(224, 140, 170, 1.0)" />
	<rect x="100" y="60" width="10" height="10" fill="rgba(239, 180, 201, 1.0)" />
	<rect x="110" y="60" width="10" height="10" fill="rgba(246, 182, 206, 1.0)" />
	<rect x="120" y="60" width="10" height="10" fill="rgba(225, 140, 171, 1.0)" />
	<rect x="130" y="60" width="10" height="10" fill="rgba(238, 171, 195, 1.0)" />
	<rect x="140" y="60" width="10" height="10" fill="rgba(233, 159, 184, 1.0)" />
	<rect x="150" y="60" width="10" height="10" fill="rgba(219, 130, 166, 1.0)" />
	<rect x="0" y="70" width="10" height="10" fill="rgba(221, 134, 168, 1.0)" />
	<rect x="10" y="70" width="10" height="10" fill="rgba(223, 138, 169, 1.0)" />
	<rect x="20" y="70" width="10" height="10" fill="rgba(234, 156, 184, 1.0)" />
	<rect x="30" y="70" width="10" height="10" fill="rgba(232, 159, 184, 1.0)" />
	<rect x="40" y="70" width="10" height="10" fill="rgba(231, 155, 182, 1.0)" />
	<rect x="50" y="70" width="10" height="10" fill="rgba(216, 127, 163, 1.0)" />
	<rect x="60" y="70" width="10" height="10" fill="rgba(237, 169, 194, 1.0)" />
	<rect x="70" y="70" width="10" height="10" fill="rgba(244, 205, 220, 1.0)" />
	<rect x="80" y="70" width="10" height="10" fill="rgba(235, 179, 199, 1.0)" />
	<rect x="90" y="70" width="10" height="10" fill="rgba(230, 166, 188, 1.0)" />
	<rect x="100" y="70" width="10" height="10" fill="rgba(224, 140, 170, 1.0)" />
	<rect x="110" y="70" width="10" height="10" fill="rgba(217, 130, 164, 1.0)" />
	<rect x="120" y="70" width="10" height="10" fill="rgba(229, 148, 178, 1.0)" />
	<rect x="130" y="70" width="10" height="10" fill="rgba(230, 147, 178, 1.0)" />
	<rect x="140" y="70" width="10" height="10" fill="rgba(243, 178, 203, 1.0)" />
	<rect x="150" y="70" width="10" height="10" fill="rgba(230, 145, 177, 1.0)" />
	<rect x="0" y="80" width="10" height="10" fill="rgba(235, 164, 189, 1.0)" />
	<rect x="10" y="80" width="10" height="10" fill="rgba(224, 136, 170, 1.0)" />
	<rect x="20" y="80" width="10" height="10" fill="rgba(240, 170, 196, 1.0)" />
	<rect x="30" y="80" width="10" height="10" fill="rgba(232, 151, 181, 1.0)" />
	<rect x="40" y="80" width="10" height="10" fill="rgba(236, 189, 206, 1.0)" />
	<rect x="50" y="80" width="10" height="10" fill="rgba(226, 145, 174, 1.0)" />
	<rect x="60" y="80" width="10" height="10" fill="rgba(239, 174, 197, 1.0)" />
	<rect x="70" y="80" width="10" height="10" fill="rgba(237, 197, 212, 1.0)" />
	<rect x="80" y="80" width="10" height="10" fill="rgba(223, 139, 170, 1.0)" />
	<rect x="90" y="80" width="10" height="10" fill="rgba(247, 209, 224, 1.0)" />
	<rect x="100" y="80" width="10" height="10" fill="rgba(221, 146, 171, 1.0)" />
	<rect x="110" y="80" width="10" height="10" fill="rgba(232, 155, 182, 1.0)" />
	<rect x="120" y="80" width="10" height="10" fill="rgba(224, 141, 172, 1.0)" />
	<rect x="130" y="80" width="10" height="10" fill="rgba(223, 137, 170, 1.0)" />
	<rect x="140" y="80" width="10" height="10" fill="rgba(226, 141, 174, 1.0)" />
	<rect x="150" y="80" width="10" height="10" fill="rgba(223, 137, 169, 1.0)" />
	<rect x="0" y="90" width="10" height="10" fill="rgba(223, 156, 179, 1.0)" />
	<rect x="10" y="90" width="10" height="10" fill="rgba(230, 156, 181, 1.0)" />
	<rect x="20" y="90" width="10" height="10" fill="rgba(226, 136, 170, 1.0)" />
	<rect x="30" y="90" width="10" height="10" fill="rgba(229, 151, 179, 1.0)" />
	<rect x="40" y="90" width="10" height="10" fill="rgba(224, 140, 170, 1.0)" />
	<rect x="50" y="90" width="10" height="10" fill="rgba(225, 139, 171, 1.0)" />
	<rect x="60" y="90" width="10" height="10" fill="rgba(230, 163, 186, 1.0)" />
	<rect x="70" y="90" width="10" height="10" fill="rgba(223, 141, 170, 1.0)" />
	<rect x="80" y="90" width="10" height="10" fill="rgba(229, 152, 180, 1.0)" />
	<rect x="90" y="90" width="10" height="10" fill="rgba(223, 136, 169, 1.0)" />
	<rect x="100" y="90" width="10" height="10" fill="rgba(223, 134, 169, 1.0)" />
	<rect x="110" y="90" width="10" height="10" fill="rgba(239, 165, 193, 1.0)" />
	<rect x="120" y="90" width="10" height="10" fill="rgba(232, 161, 185, 1.0)" />
	<rect x="130" y="90" width="10" height="10" fill="rgba(228, 142, 175, 1.0)" />
	<rect x="140" y="90" width="10" height="10" fill="rgba(232, 161, 185, 1.0)" />
	<rect x="150" y="90" width="10" height="10" fill="rgba(237, 162, 189, 1.0)" />
	<rect x="0" y="100" width="10" height="10" fill="rgba(229, 147, 178, 1.0)" />
	<rect x="10" y="100" width="10" height="10" fill="rgba(234, 158, 185, 1.0)" />
	<rect x="20" y="100" width="10" height="10" fill="rgba(201, 120, 151, 1.0)" />
	<rect x="30" y="100" width="10" height="10" fill="rgba(236, 162, 188, 1.0)" />
	<rect x="40" y="100" width="10" height="10" fill="rgba(222, 145, 171, 1.0)" />
	<rect x="50" y="100" width="10" height="10" fill="rgba(227, 136, 174, 1.0)" />
	<rect x="60" y="100" width="10" height="10" fill="rgba(232, 166, 188, 1.0)" />
	<rect x="70" y="100" width="10" height="10" fill="rgba(228, 144, 175, 1.0)" />
	<rect x="80" y="100" width="10" height="10" fill="rgba(228, 137, 174, 1.0)" />
	<rect x="90" y="100" width="10" height="10" fill="rgba(232, 145, 179, 1.0)" />
	<rect x="100" y="100" width="10" height="10" fill="rgba(228, 142, 175, 1.0)" />
	<rect x="110" y="100" width="10" height="10" fill="rgba(228, 148, 176, 1.0)" />
	<rect x="120" y="100" width="10" height="10" fill="rgba(234, 171, 194, 1.0)" />
	<rect x="130" y="100" width="10" height="10" fill="rgba(246, 167, 197, 1.0)" />
	<rect x="140" y="100" width="10" height="10" fill="rgba(231, 158, 183, 1.0)" />
	<rect x="150" y="100" width="10" height="10" fill="rgba(229, 149, 177, 1.0)" />
	<rect x="0" y="110" width="10" height="10" fill="rgba(228, 153, 179, 1.0)" />
	<rect x="10" y="110" width="10" height="10" fill="rgba(237, 165, 191, 1.0)" />
	<rect x="20" y="110" width="10" height="10" fill="rgba(237, 191, 208, 1.0)" />
	<rect x="30" y="110" width="10" height="10" fill="rgba(222, 142, 169, 1.0)" />
	<rect x="40" y="110" width="10" height="10" fill="rgba(235, 171, 195, 1.0)" />
	<rect x="50" y="110" width="10" height="10" fill="rgba(232, 162, 186, 1.0)" />
	<rect x="60" y="110" width="10" height="10" fill="rgba(235, 196, 211, 1.0)" />
	<rect x="70" y="110" width="10" height="10" fill="rgba(226, 146, 176, 1.0)" />
	<rect x="80" y="110" width="10" height="10" fill="rgba(223, 137, 170, 1.0)" />
	<rect x="90" y="110" width="10" height="10" fill="rgba(232, 158, 184, 1.0)" />
	<rect x="100" y="110" width="10" height="10" fill="rgba(229, 151, 178, 1.0)" />
	<rect x="110" y="110" width="10" height="10" fill="rgba(240, 158, 190, 1.0)" />
	<rect x="120" y="110" width="10" height="10" fill="rgba(230, 168, 190, 1.0)" />
	<rect x="130" y="110" width="10" height="10" fill="rgba(230, 170, 191, 1.0)" />
	<rect x="140" y="110" width="10" height="10" fill="rgba(223, 141, 170, 1.0)" />
	<rect x="150" y="110" width="10" height="10" fill="rgba(221, 157, 179, 1.0)" />
	<rect x="0" y="120" width="10" height="10" fill="rgba(228, 139, 175, 1.0)" />
	<rect x="10" y="120" width="10" height="10" fill="rgba(229, 148, 177, 1.0)" />
	<rect x="20" y="120" width="10" height="10" fill="rgba(224, 142, 171, 1.0)" />
	<rect x="30" y="120" width="10" height="10" fill="rgba(240, 175, 198, 1.0)" />
	<rect x="40" y="120" width="10" height="10" fill="rgba(226, 140, 172, 1.0)" />
	<rect x="50" y="120" width="10" height="10" fill="rgba(230, 158, 183, 1.0)" />
	<rect x="60" y="120" width="10" height="10" fill="rgba(234, 157, 184, 1.0)" />
	<rect x="70" y="120" width="10" height="10" fill="rgba(220, 147, 170, 1.0)" />
	<rect x="80" y="120" width="10" height="10" fill="rgba(226, 159, 183, 1.0)" />
	<rect x="90" y="120" width="10" height="10" fill="rgba(234, 166, 190, 1.0)" />
	<rect x="100" y="120" width="10" height="10" fill="rgba(233, 165, 188, 1.0)" />
	<rect x="110" y="120" width="10" height="10" fill="rgba(223, 141, 170, 1.0)" />
	<rect x="120" y="120" width="10" height="10" fill="rgba(236, 188, 206, 1.0)" />
	<rect x="130" y="120" width="10" height="10" fill="rgba(238, 172, 196, 1.0)" />
	<rect x="140" y="120" width="10" height="10" fill="rgba(225, 146, 174, 1.0)" />
	<rect x="150" y="120" width="10" height="10" fill="rgba(232, 175, 195, 1.0)" />
	<rect x="0" y="130" width="10" height="10" fill="rgba(223, 133, 169, 1.0)" />
	<rect x="10" y="130" width="10" height="10" fill="rgba(238, 171, 195, 1.0)" />
	<rect x="20" y="130" width="10" height="10" fill="rgba(218, 133, 165, 1.0)" />
	<rect x="30" y="130" width="10" height="10" fill="rgba(215, 139, 165, 1.0)" />
	<rect x="40" y="130" width="10" height="10" fill="rgba(220, 136, 167, 1.0)" />
	<rect x="50" y="130" width="10" height="10" fill="rgba(227, 149, 176, 1.0)" />
	<rect x="60" y="130" width="10" height="10" fill="rgba(229, 153, 178, 1.0)" />
	<rect x="70" y="130" width="10" height="10" fill="rgba(241, 165, 193, 1.0)" />
	<rect x="80" y="130" width="10" height="10" fill="rgba(224, 136, 170, 1.0)" />
	<rect x="90" y="130" width="10" height="10" fill="rgba(234, 147, 182, 1.0)" />
	<rect x="100" y="130" width="10" height="10" fill="rgba(238, 190, 208, 1.0)" />
	<rect x="110" y="130" width="10" height="10" fill="rgba(230, 149, 179, 1.0)" />
	<rect x="120" y="130" width="10" height="10" fill="rgba(221, 131, 168, 1.0)" />
	<rect x="130" y="130" width="10" height="10" fill="rgba(216, 127, 163, 1.0)" />
	<rect x="140" y="130" width="10" height="10" fill="rgba(232, 149, 181, 1.0)" />
	<rect x="150" y="130" width="10" height="10" fill="rgba(218, 130, 165, 1.0)" />
	<rect x="0" y="140" width="10" height="10" fill="rgba(237, 169, 193, 1.0)" />
	<rect x="10" y="140" width="10" height="10" fill="rgba(234, 170, 194, 1.0)" />
	<rect x="20" y="140" width="10" height="10" fill="rgba(226, 145, 174, 1.0)" />
	<rect x="30" y="140" width="10" height="10" fill="rgba(228, 156, 181, 1.0)" />
	<rect x="40" y="140" width="10" height="10" fill="rgba(223, 133, 168, 1.0)" />
	<rect x="50" y="140" width="10" height="10" fill="rgba(232, 165, 187, 1.0)" />
	<rect x="60" y="140" width="10" height="10" fill="rgba(223, 136, 170, 1.0)" />
	<rect x="70" y="140" width="10" height="10" fill="rgba(233, 156, 184, 1.0)" />
	<rect x="80" y="140" width="10" height="10" fill="rgba(224, 148, 174, 1.0)" />
	<rect x="90" y="140" width="10" height="10" fill="rgba(226, 139, 171, 1.0)" />
	<rect x="100" y="140" width="10" height="10" fill="rgba(221, 159, 180, 1.0)" />
	<rect x="110" y="140" width="10" height="10" fill="rgba(230, 156, 182, 1.0)" />
	<rect x="120" y="140" width="10" height="10" fill="rgba(238, 176, 198, 1.0)" />
	<rect x="130" y="140" width="10" height="10" fill="rgba(228, 171, 192, 1.0)" />
	<rect x="140" y="140" width="10" height="10" fill="rgba(230, 178, 197, 1.0)" />
	<rect x="150" y="140" width="10" height="10" fill="rgba(232, 153, 181, 1.0)" />
	<rect x="0" y="150" width="10" height="10" fill="rgba(221, 136, 168, 1.0)" />
	<rect x="10" y="150" width="10" height="10" fill="rgba(234, 161, 186, 1.0)" />
	<rect x="20" y="150" width="10" height="10" fill="rgba(227, 147, 175, 1.0)" />
	<rect x="30" y="150" width="10" height="10" fill="rgba(220, 144, 169, 1.0)" />
	<rect x="40" y="150" width="10" height="10" fill="rgba(237, 147, 184, 1.0)" />
	<rect x="50" y="150" width="10" height="10" fill="rgba(221, 133, 168, 1.0)" />
	<rect x="60" y="150" width="10" height="10" fill="rgba(223, 147, 172, 1.0)" />
	<rect x="70" y="150" width="10" height="10" fill="rgba(241, 195, 212, 1.0)" />
	<rect x="80" y="150" width="10" height="10" fill="rgba(234, 163, 187, 1.0)" />
	<rect x="90" y="150" width="10" height="10" fill="rgba(239, 162, 191, 1.0)" />
	<rect x="100" y="150" width="10" height="10" fill="rgba(225, 144, 172, 1.0)" />
	<rect x="110" y="150" width="10" height="10" fill="rgba(235, 190, 206, 1.0)" />
	<rect x="120" y="150" width="10" height="10" fill="rgba(231, 153, 181, 1.0)" />
	<rect x="130" y="150" width="10" height="10" fill="rgba(220, 131, 168, 1.0)" />
	<rect x="140" y="150" width="10" height="10" fill="rgba(231, 158, 183, 1.0)" />
	<rect x="150" y="150" width="10" height="10" fill="rgba(213, 128, 161, 1.0)" />
</svg>