<svg xmlns="http://www.w3.org/2000/svg" xmlns:xlink="http://www.w3.org/1999/xlink">
	<rect x="0" y="0" width="10" height="10" fill="rgba(79, 53, 28, 1.0)" />
	<rect x="10" y="0" width="10" height="10" fill="rgba(68, 49, 28, 1.0)" />
	<rect x="20" y="0" width="10" height="10" fill="rgba(103, 67, 30, 1.0)" />
	<rect x="30" y="0" width="10" height="10" fill="rgba(71, 44, 27, 1.0)" />
	<rect x="40" y="0" width="10" height="10" fill="rgba(104, 71, 30, 1.0)" />
	<rect x="50" y="0" width="10" height="10" fill="rgba(103, 71, 30, 1.0)" />
	<rect x="60" y="0" width="10" height="10" fill="rgba(70, 47, 27, 1.0)" />
	<rect x="70" y="0" width="10" height="10" fill="rgba(73, 46, 28, 1.0)" />
	<rect x="80" y="0" width="10" height="10" fill="rgba(71, 47, 27, 1.0)" />
	<rect x="90" y="0" width="10" height="10" fill="rgba(117, 72, 31, 1.0)" />
	<rect x="100" y="0" width="10" height="10" fill="rgba(117, 72, 31, 1.0)" />
	<rect x="110" y="0" width="10" height="10" fill="rgba(173, 102, 36, 1.0)" />
	<rect x="120" y="0" width="10" height="10" fill="rgba(99, 72, 30, 1.0)" />
	<rect x="130" y="0" width="10" height="10" fill="rgba(84, 88, 18, 1.0)" />
	<rect x="140" y="0" width="10" height="10" fill="rgba(66, 55, 28, 1.0)" />
	<rect x="150" y="0" width="10" height="10" fill="rgba(78, 59, 28, 1.0)" />
	<rect x="0" y="10" width="10" height="10" fill="rgba(145, 104, 62, 1.0)" />
	<rect x="10" y="10" width="10" height="10" fill="rgba(85, 62, 28, 1.0)" />
	<rect x="20" y="10" width="10" height="10" fill="rgba(124, 84, 31, 1.0)" />
	<rect x="30" y="10" width="10" height="10" fill="rgba(99, 65, 30, 1.0)" />
	<rect x="40" y="10" width="10" height="10" fill="rgba(84, 54, 28, 1.0)" />
	<rect x="50" y="10" width="10" height="10" fill="rgba(78, 52, 28, 1.0)" />
	<rect x="60" y="10" width="10" height="10" fill="rgba(84, 54, 28, 1.0)" />
	<rect x="70" y="10" width="10" height="10" fill="rgba(74, 46, 28, 1.0)" />
	<rect x="80" y="10" width="10" height="10" fill="rgba(78, 52, 28, 1.0)" />
	<rect x="90" y="10" width="10" height="10" fill="rgba(78, 52, 28, 1.0)" />
	<rect x="100" y="10" width="10" height="10" fill="rgba(117, 72, 31, 1.0)" />
	<rect x="110" y="10" width="10" height="10" fill="rgba(79, 58, 28, 1.0)" />
	<rect x="120" y="10" width="10" height="10" fill="rgba(80, 62, 28, 1.0)" />
	<rect x="130" y="10" width="10" height="10" fill="rgba(78, 84, 18, 1.0)" />
	<rect x="140" y="10" width="10" height="10" fill="rgba(77, 62, 28, 1.0)" />
	<rect x="150" y="10" width="10" height="10" fill="rgba(72, 57, 27, 1.0)" />
	<rect x="0" y="20" width="10" height="10" fill="rgba(84, 61, 28, 1.0)" />
	<rect x="10" y="20" width="10" height="10" fill="rgba(105, 74, 31, 1.0)" />
	<rect x="20" y="20" width="10" height="10" fill="rgba(105, 74, 31, 1.0)" />
	<rect x="30" y="20" width="10" height="10" fill="rgba(89, 66, 29, 1.0)" />
	<rect x="40" y="20" width="10" height="10" fill="rgba(68, 49, 28, 1.0)" />
	<rect x="50" y="20" width="10" height="10" fill="rgba(77, 52, 28, 1.0)" />
	<rect x="60" y="20" width="10" height="10" fill="rgba(89, 57, 28, 1.0)" />
	<rect x="70" y="20" width="10" height="10" fill="rgba(68, 46, 28, 1.0)" />
	<rect x="80" y="20" width="10" height="10" fill="rgba(139, 87, 32, 1.0)" />
	<rect x="90" y="20" width="10" height="10" fill="rgba(111, 73, 31, 1.0)" />
	<rect x="100" y="20" width="10" height="10" fill="rgba(76, 58, 28, 1.0)" />
	<rect x="110" y="20" width="10" height="10" fill="rgba(97, 73, 30, 1.0)" />
	<rect x="120" y="20" width="10" height="10" fill="rgba(66, 55, 28, 1.0)" />
	<rect x="130" y="20" width="10" height="10" fill="rgba(77, 62, 28, 1.0)" />
	<rect x="140" y="20" width="10" height="10" fill="rgba(80, 85, 17, 1.0)" />
	<rect x="150" y="20" width="10" height="10" fill="rgba(70, 47, 27, 1.0)" />
	<rect x="0" y="30" width="10" height="10" fill="rgba(87, 59, 28, 1.0)" />
	<rect x="10" y="30" width="10" height="10" fill="rgba(80, 59, 28, 1.0)" />
	<rect x="20" y="30" width="10" height="10" fill="rgba(185, 133, 92, 1.0)" />
	<rect x="30" y="30" width="10" height="10" fill="rgba(88, 66, 29, 1.0)" />
	<rect x="40" y="30" width="10" height="10" fill="rgba(70, 51, 27, 1.0)" />
	<rect x="50" y="30" width="10" height="10" fill="rgba(100, 65, 30, 1.0)" />
	<rect x="60" y="30" width="10" height="10" fill="rgba(121, 85, 58, 1.0)" />
	<rect x="70" y="30" width="10" height="10" fill="rgba(101, 65, 30, 1.0)" />
	<rect x="80" y="30" width="10" height="10" fill="rgba(150, 108, 74, 1.0)" />
	<rect x="90" y="30" width="10" height="10" fill="rgba(105, 74, 31, 1.0)" />
	<rect x="100" y="30" width="10" height="10" fill="rgba(77, 58, 28, 1.0)" />
	<rect x="110" y="30" width="10" height="10" fill="rgba(97, 73, 30, 1.0)" />
	<rect x="120" y="30" width="10" height="10" fill="rgba(77, 62, 28, 1.0)" />
	<rect x="130" y="30" width="10" height="10" fill="rgba(72, 57, 27, 1.0)" />
	<rect x="140" y="30" width="10" height="10" fill="rgba(150, 108, 74, 1.0)" />
	<rect x="150" y="30" width="10" height="10" fill="rgba(112, 71, 30, 1.0)" />
	<rect x="0" y="40" width="10" height="10" fill="rgba(150, 108, 74, 1.0)" />
	<rect x="10" y="40" width="10" height="10" fill="rgba(121, 85, 58, 1.0)" />
	<rect x="20" y="40" width="10" height="10" fill="rgba(150, 108, 74, 1.0)" />
	<rect x="30" y="40" width="10" height="10" fill="rgba(71, 60, 27, 1.0)" />
	<rect x="40" y="40" width="10" height="10" fill="rgba(93, 73, 30, 1.0)" />
	<rect x="50" y="40" width="10" height="10" fill="rgba(150, 108, 74, 1.0)" />
	<rect x="60" y="40" width="10" height="10" fill="rgba(83, 58, 28, 1.0)" />
	<rect x="70" y="40" width="10" height="10" fill="rgba(68, 46, 28, 1.0)" />
	<rect x="80" y="40" width="10" height="10" fill="rgba(68, 46, 28, 1.0)" />
	<rect x="90" y="40" width="10" height="10" fill="rgba(89, 61, 41, 1.0)" />
	<rect x="100" y="40" width="10" height="10" fill="rgba(144, 104, 60, 1.0)" />
	<rect x="110" y="40" width="10" height="10" fill="rgba(108, 108, 108, 1.0)" />
	<rect x="120" y="40" width="10" height="10" fill="rgba(121, 85, 58, 1.0)" />
	<rect x="130" y="40" width="10" height="10" fill="rgba(112, 71, 30, 1.0)" />
	<rect x="140" y="40" width="10" height="10" fill="rgba(94, 61, 29, 1.0)" />
	<rect x="150" y="40" width="10" height="10" fill="rgba(121, 85, 58, 1.0)" />
	<rect x="0" y="50" width="10" height="10" fill="rgba(121, 85, 58, 1.0)" />
	<rect x="10" y="50" width="10" height="10" fill="rgba(89, 61, 41, 1.0)" />
	<rect x="20" y="50" width="10" height="10" fill="rgba(150, 108, 74, 1.0)" />
	<rect x="30" y="50" width="10" height="10" fill="rgba(150, 108, 74, 1.0)" />
	<rect x="40" y="50" width="10" height="10" fill="rgba(121, 85, 58, 1.0)" />
	<rect x="50" y="50" width="10" height="10" fill="rgba(150, 108, 74, 1.0)" />
	<rect x="60" y="50" width="10" height="10" fill="rgba(89, 61, 41, 1.0)" />
	<rect x="70" y="50" width="10" height="10" fill="rgba(89, 61, 41, 1.0)" />
	<rect x="80" y="50" width="10" height="10" fill="rgba(89, 61, 41, 1.0)" />
	<rect x="90" y="50" width="10" height="10" fill="rgba(121, 85, 58, 1.0)" />
	<rect x="100" y="50" width="10" height="10" fill="rgba(121, 85, 58, 1.0)" />
	<rect x="110" y="50" width="10" height="10" fill="rgba(89, 61, 41, 1.0)" />
	<rect x="120" y="50" width="10" height="10" fill="rgba(121, 85, 58, 1.0)" />
	<rect x="130" y="50" width="10" height="10" fill="rgba(121, 85, 58, 1.0)" />
	<rect x="140" y="50" width="10" height="10" fill="rgba(121, 85, 58, 1.0)" />
	<rect x="150" y="50" width="10" height="10" fill="rgba(185, 133, 92, 1.0)" />
	<rect x="0" y="60" width="10" height="10" fill="rgba(185, 133, 92, 1.0)" />
	<rect x="10" y="60" width="10" height="10" fill="rgba(121, 85, 58, 1.0)" />
	<rect x="20" y="60" width="10" height="10" fill="rgba(121, 85, 58, 1.0)" />
	<rect x="30" y="60" width="10" height="10" fill="rgba(121, 85, 58, 1.0)" />
	<rect x="40" y="60" width="10" height="10" fill="rgba(135, 135, 135, 1.0)" />
	<rect x="50" y="60" width="10" height="10" fill="rgba(121, 85, 58, 1.0)" />
	<rect x="60" y="60" width="10" height="10" fill="rgba(121, 85, 58, 1.0)" />
	<rect x="70" y="60" width="10" height="10" fill="rgba(185, 133, 92, 1.0)" />
	<rect x="80" y="60" width="10" height="10" fill="rgba(185, 133, 92, 1.0)" />
	<rect x="90" y="60" width="10" height="10" fill="rgba(121, 85, 58, 1.0)" />
	<rect x="100" y="60" width="10" height="10" fill="rgba(185, 133, 92, 1.0)" />
	<rect x="110" y="60" width="10" height="10" fill="rgba(185, 133, 92, 1.0)" />
	<rect x="120" y="60" width="10" height="10" fill="rgba(121, 85, 58, 1.0)" />
	<rect x="130" y="60" width="10" height="10" fill="rgba(150, 108, 74, 1.0)" />
	<rect x="140" y="60" width="10" height="10" fill="rgba(121, 85, 58, 1.0)" />
	<rect x="150" y="60" width="10" height="10" fill="rgba(150, 108, 74, 1.0)" />
	<rect x="0" y="70" width="10" height="10" fill="rgba(121, 85, 58, 1.0)" />
	<rect x="10" y="70" width="10" height="10" fill="rgba(121, 85, 58, 1.0)" />
	<rect x="20" y="70" width="10" height="10" fill="rgba(185, 133, 92, 1.0)" />
	<rect x="30" y="70" width="10" height="10" fill="rgba(185, 133, 92, 1.0)" />
	<rect x="40" y="70" width="10" height="10" fill="rgba(150, 108, 74, 1.0)" />
	<rect x="50" y="70" width="10" height="10" fill="rgba(150, 108, 74, 1.0)" />
	<rect x="60" y="70" width="10" height="10" fill="rgba(121, 85, 58, 1.0)" />
	<rect x="70" y="70" width="10" height="10" fill="rgba(121, 85, 58, 1.0)" />
	<rect x="80" y="70" width="10" height="10" fill="rgba(150, 108, 74, 1.0)" />
	<rect x="90" y="70" width="10" height="10" fill="rgba(89, 61, 41, 1.0)" />
	<rect x="100" y="70" width="10" height="10" fill="rgba(150, 108, 74, 1.0)" />
	<rect x="110" y="70" width="10" height="10" fill="rgba(150, 108, 74, 1.0)" />
	<rect x="120" y="70" width="10" height="10" fill="rgba(121, 85, 58, 1.0)" />
	<rect x="130" y="70" width="10" height="10" fill="rgba(121, 85, 58, 1.0)" />
	<rect x="140" y="70" width="10" height="10" fill="rgba(150, 108, 74, 1.0)" />
	<rect x="150" y="70" width="10" height="10" fill="rgba(150, 108, 74, 1.0)" />
	<rect x="0" y="80" width="10" height="10" fill="rgba(150, 108, 74, 1.0)" />
	<rect x="10" y="80" width="10" height="10" fill="rgba(121, 85, 58, 1.0)" />
	<rect x="20" y="80" width="10" height="10" fill="rgba(121, 85, 58, 1.0)" />
	<rect x="30" y="80" width="10" height="10" fill="rgba(150, 108, 74, 1.0)" />
	<rect x="40" y="80" width="10" height="10" fill="rgba(121, 85, 58, 1.0)" />
	<rect x="50" y="80" width="10" height="10" fill="rgba(150, 108, 74, 1.0)" />
	<rect x="60" y="80" width="10" height="10" fill="rgba(121, 85, 58, 1.0)" />
	<rect x="70" y="80" width="10" height="10" fill="rgba(89, 61, 41, 1.0)" />
	<rect x="80" y="80" width="10" height="10" fill="rgba(121, 85, 58, 1.0)" />
	<rect x="90" y="80" width="10" height="10" fill="rgba(150, 108, 74, 1.0)" />
	<rect x="100" y="80" width="10" height="10" fill="rgba(150, 108, 74, 1.0)" />
	<rect x="110" y="80" width="10" height="10" fill="rgba(121, 85, 58, 1.0)" />
	<rect x="120" y="80" width="10" height="10" fill="rgba(121, 85, 58, 1.0)" />
	<rect x="130" y="80" width="10" height="10" fill="rgba(121, 85, 58, 1.0)" />
	<rect x="140" y="80" width="10" height="10" fill="rgba(89, 61, 41, 1.0)" />
	<rect x="150" y="80" width="10" height="10" fill="rgba(121, 85, 58, 1.0)" />
	<rect x="0" y="90" width="10" height="10" fill="rgba(121, 85, 58, 1.0)" />
	<rect x="10" y="90" width="10" height="10" fill="rgba(150, 108, 74, 1.0)" />
	<rect x="20" y="90" width="10" height="10" fill="rgba(89, 61, 41, 1.0)" />
	<rect x="30" y="90" width="10" height="10" fill="rgba(121, 85, 58, 1.0)" />
	<rect x="40" y="90" width="10" height="10" fill="rgba(121, 85, 58, 1.0)" />
	<rect x="50" y="90" width="10" height="10" fill="rgba(89, 61, 41, 1.0)" />
	<rect x="60" y="90" width="10" height="10" fill="rgba(89, 61, 41, 1.0)" />
	<rect x="70" y="90" width="10" height="10" fill="rgba(121, 85, 58, 1.0)" />
	<rect x="80" y="90" width="10" height="10" fill="rgba(121, 85, 58, 1.0)" />
	<rect x="90" y="90" width="10" height="10" fill="rgba(121, 85, 58, 1.0)" />
	<rect x="100" y="90" width="10" height="10" fill="rgba(121, 85, 58, 1.0)" />
	<rect x="110" y="90" width="10" height="10" fill="rgba(121, 85, 58, 1.0)" />
	<rect x="120" y="90" width="10" height="10" fill="rgba(185, 133, 92, 1.0)" />
	<rect x="130" y="90" width="10" height="10" fill="rgba(185, 133, 92, 1.0)" />
	<rect x="140" y="90" width="10" height="10" fill="rgba(121, 85, 58, 1.0)" />
	<rect x="150" y="90" width="10" height="10" fill="rgba(150, 108, 74, 1.0)" />
	<rect x="0" y="100" width="10" height="10" fill="rgba(121, 85, 58, 1.0)" />
	<rect x="10" y="100" width="10" height="10" fill="rgba(150, 108, 74, 1.0)" />
	<rect x="20" y="100" width="10" height="10" fill="rgba(121, 85, 58, 1.0)" />
	<rect x="30" y="100" width="10" height="10" fill="rgba(185, 133, 92, 1.0)" />
	<rect x="40" y="100" width="10" height="10" fill="rgba(185, 133, 92, 1.0)" />
	<rect x="50" y="100" width="10" height="10" fill="rgba(121, 85, 58, 1.0)" />
	<rect x="60" y="100" width="10" height="10" fill="rgba(185, 133, 92, 1.0)" />
	<rect x="70" y="100" width="10" height="10" fill="rgba(150, 108, 74, 1.0)" />
	<rect x="80" y="100" width="10" height="10" fill="rgba(89, 61, 41, 1.0)" />
	<rect x="90" y="100" width="10" height="10" fill="rgba(185, 133, 92, 1.0)" />
	<rect x="100" y="100" width="10" height="10" fill="rgba(185, 133, 92, 1.0)" />
	<rect x="110" y="100" width="10" height="10" fill="rgba(89, 61, 41, 1.0)" />
	<rect x="120" y="100" width="10" height="10" fill="rgba(150, 108, 74, 1.0)" />
	<rect x="130" y="100" width="10" height="10" fill="rgba(150, 108, 74, 1.0)" />
	<rect x="140" y="100" width="10" height="10" fill="rgba(135, 135, 135, 1.0)" />
	<rect x="150" y="100" width="10" height="10" fill="rgba(121, 85, 58, 1.0)" />
	<rect x="0" y="110" width="10" height="10" fill="rgba(150, 108, 74, 1.0)" />
	<rect x="10" y="110" width="10" height="10" fill="rgba(121, 85, 58, 1.0)" />
	<rect x="20" y="110" width="10" height="10" fill="rgba(121, 85, 58, 1.0)" />
	<rect x="30" y="110" width="10" height="10" fill="rgba(150, 108, 74, 1.0)" />
	<rect x="40" y="110" width="10" height="10" fill="rgba(150, 108, 74, 1.0)" />
	<rect x="50" y="110" width="10" height="10" fill="rgba(185, 133, 92, 1.0)" />
	<rect x="60" y="110" width="10" height="10" fill="rgba(121, 85, 58, 1.0)" />
	<rect x="70" y="110" width="10" height="10" fill="rgba(150, 108, 74, 1.0)" />
	<rect x="80" y="110" width="10" height="10" fill="rgba(108, 108, 108, 1.0)" />
	<rect x="90" y="110" width="10" height="10" fill="rgba(150, 108, 74, 1.0)" />
	<rect x="100" y="110" width="10" height="10" fill="rgba(150, 108, 74, 1.0)" />
	<rect x="110" y="110" width="10" height="10" fill="rgba(121, 85, 58, 1.0)" />
	<rect x="120" y="110" width="10" height="10" fill="rgba(89, 61, 41, 1.0)" />
	<rect x="130" y="110" width="10" height="10" fill="rgba(150, 108, 74, 1.0)" />
	<rect x="140" y="110" width="10" height="10" fill="rgba(121, 85, 58, 1.0)" />
	<rect x="150" y="110" width="10" height="10" fill="rgba(89, 61, 41, 1.0)" />
	<rect x="0" y="120" width="10" height="10" fill="rgba(121, 85, 58, 1.0)" />
	<rect x="10" y="120" width="10" height="10" fill="rgba(89, 61, 41, 1.0)" />
	<rect x="20" y="120" width="10" height="10" fill="rgba(150, 108, 74, 1.0)" />
	<rect x="30" y="120" width="10" height="10" fill="rgba(121, 85, 58, 1.0)" />
	<rect x="40" y="120" width="10" height="10" fill="rgba(150, 108, 74, 1.0)" />
	<rect x="50" y="120" width="10" height="10" fill="rgba(150, 108, 74, 1.0)" />
	<rect x="60" y="120" width="10" height="10" fill="rgba(185, 133, 92, 1.0)" />
	<rect x="70" y="120" width="10" height="10" fill="rgba(121, 85, 58, 1.0)" />
	<rect x="80" y="120" width="10" height="10" fill="rgba(121, 85, 58, 1.0)" />
	<rect x="90" y="120" width="10" height="10" fill="rgba(121, 85, 58, 1.0)" />
	<rect x="100" y="120" width="10" height="10" fill="rgba(121, 85, 58, 1.0)" />
	<rect x="110" y="120" width="10" height="10" fill="rgba(121, 85, 58, 1.0)" />
	<rect x="120" y="120" width="10" height="10" fill="rgba(121, 85, 58, 1.0)" />
	<rect x="130" y="120" width="10" height="10" fill="rgba(121, 85, 58, 1.0)" />
	<rect x="140" y="120" width="10" height="10" fill="rgba(185, 133, 92, 1.0)" />
	<rect x="150" y="120" width="10" height="10" fill="rgba(185, 133, 92, 1.0)" />
	<rect x="0" y="130" width="10" height="10" fill="rgba(121, 85, 58, 1.0)" />
	<rect x="10" y="130" width="10" height="10" fill="rgba(150, 108, 74, 1.0)" />
	<rect x="20" y="130" width="10" height="10" fill="rgba(121, 85, 58, 1.0)" />
	<rect x="30" y="130" width="10" height="10" fill="rgba(121, 85, 58, 1.0)" />
	<rect x="40" y="130" width="10" height="10" fill="rgba(116, 88, 68, 1.0)" />
	<rect x="50" y="130" width="10" height="10" fill="rgba(121, 85, 58, 1.0)" />
	<rect x="60" y="130" width="10" height="10" fill="rgba(150, 108, 74, 1.0)" />
	<rect x="70" y="130" width="10" height="10" fill="rgba(150, 108, 74, 1.0)" />
	<rect x="80" y="130" width="10" height="10" fill="rgba(121, 85, 58, 1.0)" />
	<rect x="90" y="130" width="10" height="10" fill="rgba(89, 61, 41, 1.0)" />
	<rect x="100" y="130" width="10" height="10" fill="rgba(185, 133, 92, 1.0)" />
	<rect x="110" y="130" width="10" height="10" fill="rgba(89, 61, 41, 1.0)" />
	<rect x="120" y="130" width="10" height="10" fill="rgba(121, 85, 58, 1.0)" />
	<rect x="130" y="130" width="10" height="10" fill="rgba(185, 133, 92, 1.0)" />
	<rect x="140" y="130" width="10" height="10" fill="rgba(150, 108, 74, 1.0)" />
	<rect x="150" y="130" width="10" height="10" fill="rgba(150, 108, 74, 1.0)" />
	<rect x="0" y="140" width="10" height="10" fill="rgba(150, 108, 74, 1.0)" />
	<rect x="10" y="140" width="10" height="10" fill="rgba(121, 85, 58, 1.0)" />
	<rect x="20" y="140" width="10" height="10" fill="rgba(89, 61, 41, 1.0)" />
	<rect x="30" y="140" width="10" height="10" fill="rgba(185, 133, 92, 1.0)" />
	<rect x="40" y="140" width="10" height="10" fill="rgba(121, 85, 58, 1.0)" />
	<rect x="50" y="140" width="10" height="10" fill="rgba(89, 61, 41, 1.0)" />
	<rect x="60" y="140" width="10" height="10" fill="rgba(121, 85, 58, 1.0)" />
	<rect x="70" y="140" width="10" height="10" fill="rgba(89, 61, 41, 1.0)" />
	<rect x="80" y="140" width="10" height="10" fill="rgba(185, 133, 92, 1.0)" />
	<rect x="90" y="140" width="10" height="10" fill="rgba(185, 133, 92, 1.0)" />
	<rect x="100" y="140" width="10" height="10" fill="rgba(121, 85, 58, 1.0)" />
	<rect x="110" y="140" width="10" height="10" fill="rgba(150, 108, 74, 1.0)" />
	<rect x="120" y="140" width="10" height="10" fill="rgba(121, 85, 58, 1.0)" />
	<rect x="130" y="140" width="10" height="10" fill="rgba(121, 85, 58, 1.0)" />
	<rect x="140" y="140" width="10" height="10" fill="rgba(150, 108, 74, 1.0)" />
	<rect x="150" y="140" width="10" height="10" fill="rgba(150, 108, 74, 1.0)" />
	<rect x="0" y="150" width="10" height="10" fill="rgba(150, 108, 74, 1.0)" />
	<rect x="10" y="150" width="10" height="10" fill="rgba(121, 85, 58, 1.0)" />
	<rect x="20" y="150" width="10" height="10" fill="rgba(185, 133, 92, 1.0)" />
	<rect x="30" y="150" width="10" height="10" fill="rgba(150, 108, 74, 1.0)" />
	<rect x="40" y="150" width="10" height="10" fill="rgba(150, 108, 74, 1.0)" />
	<rect x="50" y="150" width="10" height="10" fill="rgba(121, 85, 58, 1.0)" />
	<rect x="60" y="150" width="10" height="10" fill="rgba(135, 135, 135, 1.0)" />
	<rect x="70" y="150" width="10" height="10" fill="rgba(121, 85, 58, 1.0)" />
	<rect x="80" y="150" width="10" height="10" fill="rgba(150, 108, 74, 1.0)" />
	<rect x="90" y="150" width="10" height="10" fill="rgba(150, 108, 74, 1.0)" />
	<rect x="100" y="150" width="10" height="10" fill="rgba(121, 85, 58, 1.0)" />
	<rect x="110" y="150" width="10" height="10" fill="rgba(121, 85, 58, 1.0)" />
	<rect x="120" y="150" width="10" height="10" fill="rgba(150, 108, 74, 1.0)" />
	<rect x="130" y="150" width="10" height="10" fill="rgba(150, 108, 74, 1.0)" />
	<rect x="140" y="150" width="10" height="10" fill="rgba(121, 85, 58, 1.0)" />
	<rect x="150" y="150" width="10" height="10" fill="rgba(89, 61, 41, 1.0)" />
</svg>