<svg xmlns="http://www.w3.org/2000/svg" xmlns:xlink="http://www.w3.org/1999/xlink">
	<rect x="0" y="0" width="10" height="10" fill="rgba(108, 35, 162, 1.0)" />
	<rect x="10" y="0" width="10" height="10" fill="rgba(113, 36, 165, 1.0)" />
	<rect x="20" y="0" width="10" height="10" fill="rgba(106, 34, 160, 1.0)" />
	<rect x="30" y="0" width="10" height="10" fill="rgba(108, 34, 161, 1.0)" />
	<rect x="40" y="0" width="10" height="10" fill="rgba(119, 39, 169, 1.0)" />
	<rect x="50" y="0" width="10" height="10" fill="rgba(130, 45, 178, 1.0)" />
	<rect x="60" y="0" width="10" height="10" fill="rgba(109, 35, 162, 1.0)" />
	<rect x="70" y="0" width="10" height="10" fill="rgba(111, 36, 163, 1.0)" />
	<rect x="80" y="0" width="10" height="10" fill="rgba(126, 43, 174, 1.0)" />
	<rect x="90" y="0" width="10" height="10" fill="rgba(128, 44, 176, 1.0)" />
	<rect x="100" y="0" width="10" height="10" fill="rgba(103, 32, 158, 1.0)" />
	<rect x="110" y="0" width="10" height="10" fill="rgba(107, 34, 161, 1.0)" />
	<rect x="120" y="0" width="10" height="10" fill="rgba(122, 41, 171, 1.0)" />
	<rect x="130" y="0" width="10" height="10" fill="rgba(122, 41, 171, 1.0)" />
	<rect x="140" y="0" width="10" height="10" fill="rgba(107, 34, 161, 1.0)" />
	<rect x="150" y="0" width="10" height="10" fill="rgba(104, 33, 159, 1.0)" />
	<rect x="0" y="10" width="10" height="10" fill="rgba(120, 40, 170, 1.0)" />
	<rect x="10" y="10" width="10" height="10" fill="rgba(125, 42, 173, 1.0)" />
	<rect x="20" y="10" width="10" height="10" fill="rgba(151, 67, 205, 1.0)" />
	<rect x="30" y="10" width="10" height="10" fill="rgba(151, 67, 205, 1.0)" />
	<rect x="40" y="10" width="10" height="10" fill="rgba(132, 47, 179, 1.0)" />
	<rect x="50" y="10" width="10" height="10" fill="rgba(128, 44, 176, 1.0)" />
	<rect x="60" y="10" width="10" height="10" fill="rgba(116, 38, 167, 1.0)" />
	<rect x="70" y="10" width="10" height="10" fill="rgba(115, 38, 166, 1.0)" />
	<rect x="80" y="10" width="10" height="10" fill="rgba(108, 34, 161, 1.0)" />
	<rect x="90" y="10" width="10" height="10" fill="rgba(104, 33, 159, 1.0)" />
	<rect x="100" y="10" width="10" height="10" fill="rgba(111, 36, 163, 1.0)" />
	<rect x="110" y="10" width="10" height="10" fill="rgba(115, 38, 166, 1.0)" />
	<rect x="120" y="10" width="10" height="10" fill="rgba(100, 31, 156, 1.0)" />
	<rect x="130" y="10" width="10" height="10" fill="rgba(105, 33, 159, 1.0)" />
	<rect x="140" y="10" width="10" height="10" fill="rgba(113, 36, 165, 1.0)" />
	<rect x="150" y="10" width="10" height="10" fill="rgba(117, 38, 168, 1.0)" />
	<rect x="0" y="20" width="10" height="10" fill="rgba(132, 47, 179, 1.0)" />
	<rect x="10" y="20" width="10" height="10" fill="rgba(134, 48, 181, 1.0)" />
	<rect x="20" y="20" width="10" height="10" fill="rgba(115, 38, 166, 1.0)" />
	<rect x="30" y="20" width="10" height="10" fill="rgba(118, 39, 168, 1.0)" />
	<rect x="40" y="20" width="10" height="10" fill="rgba(137, 50, 184, 1.0)" />
	<rect x="50" y="20" width="10" height="10" fill="rgba(134, 48, 181, 1.0)" />
	<rect x="60" y="20" width="10" height="10" fill="rgba(123, 41, 172, 1.0)" />
	<rect x="70" y="20" width="10" height="10" fill="rgba(115, 38, 166, 1.0)" />
	<rect x="80" y="20" width="10" height="10" fill="rgba(128, 44, 176, 1.0)" />
	<rect x="90" y="20" width="10" height="10" fill="rgba(134, 48, 181, 1.0)" />
	<rect x="100" y="20" width="10" height="10" fill="rgba(127, 44, 175, 1.0)" />
	<rect x="110" y="20" width="10" height="10" fill="rgba(127, 44, 175, 1.0)" />
	<rect x="120" y="20" width="10" height="10" fill="rgba(141, 54, 188, 1.0)" />
	<rect x="130" y="20" width="10" height="10" fill="rgba(151, 67, 205, 1.0)" />
	<rect x="140" y="20" width="10" height="10" fill="rgba(128, 44, 176, 1.0)" />
	<rect x="150" y="20" width="10" height="10" fill="rgba(125, 42, 173, 1.0)" />
	<rect x="0" y="30" width="10" height="10" fill="rgba(120, 40, 170, 1.0)" />
	<rect x="10" y="30" width="10" height="10" fill="rgba(113, 36, 165, 1.0)" />
	<rect x="20" y="30" width="10" height="10" fill="rgba(130, 45, 177, 1.0)" />
	<rect x="30" y="30" width="10" height="10" fill="rgba(134, 48, 181, 1.0)" />
	<rect x="40" y="30" width="10" height="10" fill="rgba(115, 38, 166, 1.0)" />
	<rect x="50" y="30" width="10" height="10" fill="rgba(113, 37, 165, 1.0)" />
	<rect x="60" y="30" width="10" height="10" fill="rgba(119, 39, 169, 1.0)" />
	<rect x="70" y="30" width="10" height="10" fill="rgba(134, 48, 181, 1.0)" />
	<rect x="80" y="30" width="10" height="10" fill="rgba(109, 35, 162, 1.0)" />
	<rect x="90" y="30" width="10" height="10" fill="rgba(116, 38, 167, 1.0)" />
	<rect x="100" y="30" width="10" height="10" fill="rgba(134, 48, 181, 1.0)" />
	<rect x="110" y="30" width="10" height="10" fill="rgba(134, 48, 181, 1.0)" />
	<rect x="120" y="30" width="10" height="10" fill="rgba(120, 40, 170, 1.0)" />
	<rect x="130" y="30" width="10" height="10" fill="rgba(113, 36, 165, 1.0)" />
	<rect x="140" y="30" width="10" height="10" fill="rgba(151, 67, 205, 1.0)" />
	<rect x="150" y="30" width="10" height="10" fill="rgba(133, 47, 180, 1.0)" />
	<rect x="0" y="40" width="10" height="10" fill="rgba(125, 42, 173, 1.0)" />
	<rect x="10" y="40" width="10" height="10" fill="rgba(117, 38, 168, 1.0)" />
	<rect x="20" y="40" width="10" height="10" fill="rgba(109, 35, 162, 1.0)" />
	<rect x="30" y="40" width="10" height="10" fill="rgba(120, 40, 170, 1.0)" />
	<rect x="40" y="40" width="10" height="10" fill="rgba(130, 45, 178, 1.0)" />
	<rect x="50" y="40" width="10" height="10" fill="rgba(130, 45, 177, 1.0)" />
	<rect x="60" y="40" width="10" height="10" fill="rgba(103, 32, 158, 1.0)" />
	<rect x="70" y="40" width="10" height="10" fill="rgba(101, 32, 157, 1.0)" />
	<rect x="80" y="40" width="10" height="10" fill="rgba(111, 36, 164, 1.0)" />
	<rect x="90" y="40" width="10" height="10" fill="rgba(122, 41, 171, 1.0)" />
	<rect x="100" y="40" width="10" height="10" fill="rgba(111, 36, 163, 1.0)" />
	<rect x="110" y="40" width="10" height="10" fill="rgba(105, 33, 159, 1.0)" />
	<rect x="120" y="40" width="10" height="10" fill="rgba(130, 45, 178, 1.0)" />
	<rect x="130" y="40" width="10" height="10" fill="rgba(130, 45, 178, 1.0)" />
	<rect x="140" y="40" width="10" height="10" fill="rgba(107, 34, 161, 1.0)" />
	<rect x="150" y="40" width="10" height="10" fill="rgba(103, 32, 158, 1.0)" />
	<rect x="0" y="50" width="10" height="10" fill="rgba(105, 33, 159, 1.0)" />
	<rect x="10" y="50" width="10" height="10" fill="rgba(102, 32, 157, 1.0)" />
	<rect x="20" y="50" width="10" height="10" fill="rgba(110, 35, 163, 1.0)" />
	<rect x="30" y="50" width="10" height="10" fill="rgba(134, 48, 181, 1.0)" />
	<rect x="40" y="50" width="10" height="10" fill="rgba(109, 35, 162, 1.0)" />
	<rect x="50" y="50" width="10" height="10" fill="rgba(101, 32, 157, 1.0)" />
	<rect x="60" y="50" width="10" height="10" fill="rgba(108, 35, 162, 1.0)" />
	<rect x="70" y="50" width="10" height="10" fill="rgba(113, 36, 165, 1.0)" />
	<rect x="80" y="50" width="10" height="10" fill="rgba(109, 35, 162, 1.0)" />
	<rect x="90" y="50" width="10" height="10" fill="rgba(101, 32, 157, 1.0)" />
	<rect x="100" y="50" width="10" height="10" fill="rgba(113, 36, 165, 1.0)" />
	<rect x="110" y="50" width="10" height="10" fill="rgba(115, 38, 166, 1.0)" />
	<rect x="120" y="50" width="10" height="10" fill="rgba(103, 33, 158, 1.0)" />
	<rect x="130" y="50" width="10" height="10" fill="rgba(111, 36, 163, 1.0)" />
	<rect x="140" y="50" width="10" height="10" fill="rgba(108, 34, 161, 1.0)" />
	<rect x="150" y="50" width="10" height="10" fill="rgba(114, 37, 165, 1.0)" />
	<rect x="0" y="60" width="10" height="10" fill="rgba(151, 67, 205, 1.0)" />
	<rect x="10" y="60" width="10" height="10" fill="rgba(151, 67, 205, 1.0)" />
	<rect x="20" y="60" width="10" height="10" fill="rgba(132, 46, 179, 1.0)" />
	<rect x="30" y="60" width="10" height="10" fill="rgba(130, 45, 177, 1.0)" />
	<rect x="40" y="60" width="10" height="10" fill="rgba(119, 39, 169, 1.0)" />
	<rect x="50" y="60" width="10" height="10" fill="rgba(119, 39, 169, 1.0)" />
	<rect x="60" y="60" width="10" height="10" fill="rgba(117, 38, 168, 1.0)" />
	<rect x="70" y="60" width="10" height="10" fill="rgba(122, 41, 171, 1.0)" />
	<rect x="80" y="60" width="10" height="10" fill="rgba(132, 47, 179, 1.0)" />
	<rect x="90" y="60" width="10" height="10" fill="rgba(151, 67, 205, 1.0)" />
	<rect x="100" y="60" width="10" height="10" fill="rgba(126, 43, 174, 1.0)" />
	<rect x="110" y="60" width="10" height="10" fill="rgba(116, 38, 167, 1.0)" />
	<rect x="120" y="60" width="10" height="10" fill="rgba(151, 67, 205, 1.0)" />
	<rect x="130" y="60" width="10" height="10" fill="rgba(151, 67, 205, 1.0)" />
	<rect x="140" y="60" width="10" height="10" fill="rgba(128, 44, 176, 1.0)" />
	<rect x="150" y="60" width="10" height="10" fill="rgba(123, 41, 172, 1.0)" />
	<rect x="0" y="70" width="10" height="10" fill="rgba(113, 36, 165, 1.0)" />
	<rect x="10" y="70" width="10" height="10" fill="rgba(113, 36, 165, 1.0)" />
	<rect x="20" y="70" width="10" height="10" fill="rgba(151, 67, 205, 1.0)" />
	<rect x="30" y="70" width="10" height="10" fill="rgba(151, 67, 205, 1.0)" />
	<rect x="40" y="70" width="10" height="10" fill="rgba(128, 44, 176, 1.0)" />
	<rect x="50" y="70" width="10" height="10" fill="rgba(126, 43, 174, 1.0)" />
	<rect x="60" y="70" width="10" height="10" fill="rgba(134, 48, 181, 1.0)" />
	<rect x="70" y="70" width="10" height="10" fill="rgba(133, 47, 180, 1.0)" />
	<rect x="80" y="70" width="10" height="10" fill="rgba(108, 34, 161, 1.0)" />
	<rect x="90" y="70" width="10" height="10" fill="rgba(111, 36, 163, 1.0)" />
	<rect x="100" y="70" width="10" height="10" fill="rgba(130, 45, 177, 1.0)" />
	<rect x="110" y="70" width="10" height="10" fill="rgba(134, 48, 181, 1.0)" />
	<rect x="120" y="70" width="10" height="10" fill="rgba(126, 43, 174, 1.0)" />
	<rect x="130" y="70" width="10" height="10" fill="rgba(125, 42, 173, 1.0)" />
	<rect x="140" y="70" width="10" height="10" fill="rgba(135, 48, 181, 1.0)" />
	<rect x="150" y="70" width="10" height="10" fill="rgba(133, 47, 180, 1.0)" />
	<rect x="0" y="80" width="10" height="10" fill="rgba(128, 44, 176, 1.0)" />
	<rect x="10" y="80" width="10" height="10" fill="rgba(127, 44, 175, 1.0)" />
	<rect x="20" y="80" width="10" height="10" fill="rgba(105, 33, 159, 1.0)" />
	<rect x="30" y="80" width="10" height="10" fill="rgba(111, 36, 164, 1.0)" />
	<rect x="40" y="80" width="10" height="10" fill="rgba(133, 47, 180, 1.0)" />
	<rect x="50" y="80" width="10" height="10" fill="rgba(126, 43, 174, 1.0)" />
	<rect x="60" y="80" width="10" height="10" fill="rgba(109, 35, 162, 1.0)" />
	<rect x="70" y="80" width="10" height="10" fill="rgba(113, 37, 165, 1.0)" />
	<rect x="80" y="80" width="10" height="10" fill="rgba(111, 36, 164, 1.0)" />
	<rect x="90" y="80" width="10" height="10" fill="rgba(115, 38, 166, 1.0)" />
	<rect x="100" y="80" width="10" height="10" fill="rgba(111, 36, 163, 1.0)" />
	<rect x="110" y="80" width="10" height="10" fill="rgba(103, 33, 158, 1.0)" />
	<rect x="120" y="80" width="10" height="10" fill="rgba(119, 39, 169, 1.0)" />
	<rect x="130" y="80" width="10" height="10" fill="rgba(116, 38, 167, 1.0)" />
	<rect x="140" y="80" width="10" height="10" fill="rgba(106, 34, 160, 1.0)" />
	<rect x="150" y="80" width="10" height="10" fill="rgba(105, 33, 159, 1.0)" />
	<rect x="0" y="90" width="10" height="10" fill="rgba(111, 36, 164, 1.0)" />
	<rect x="10" y="90" width="10" height="10" fill="rgba(116, 38, 167, 1.0)" />
	<rect x="20" y="90" width="10" height="10" fill="rgba(114, 37, 165, 1.0)" />
	<rect x="30" y="90" width="10" height="10" fill="rgba(132, 47, 179, 1.0)" />
	<rect x="40" y="90" width="10" height="10" fill="rgba(101, 32, 157, 1.0)" />
	<rect x="50" y="90" width="10" height="10" fill="rgba(103, 32, 158, 1.0)" />
	<rect x="60" y="90" width="10" height="10" fill="rgba(116, 38, 167, 1.0)" />
	<rect x="70" y="90" width="10" height="10" fill="rgba(124, 42, 173, 1.0)" />
	<rect x="80" y="90" width="10" height="10" fill="rgba(109, 35, 162, 1.0)" />
	<rect x="90" y="90" width="10" height="10" fill="rgba(125, 42, 173, 1.0)" />
	<rect x="100" y="90" width="10" height="10" fill="rgba(151, 67, 205, 1.0)" />
	<rect x="110" y="90" width="10" height="10" fill="rgba(151, 67, 205, 1.0)" />
	<rect x="120" y="90" width="10" height="10" fill="rgba(118, 39, 168, 1.0)" />
	<rect x="130" y="90" width="10" height="10" fill="rgba(127, 44, 175, 1.0)" />
	<rect x="140" y="90" width="10" height="10" fill="rgba(151, 67, 205, 1.0)" />
	<rect x="150" y="90" width="10" height="10" fill="rgba(151, 67, 205, 1.0)" />
	<rect x="0" y="100" width="10" height="10" fill="rgba(133, 47, 180, 1.0)" />
	<rect x="10" y="100" width="10" height="10" fill="rgba(135, 48, 181, 1.0)" />
	<rect x="20" y="100" width="10" height="10" fill="rgba(128, 44, 176, 1.0)" />
	<rect x="30" y="100" width="10" height="10" fill="rgba(128, 44, 176, 1.0)" />
	<rect x="40" y="100" width="10" height="10" fill="rgba(151, 67, 205, 1.0)" />
	<rect x="50" y="100" width="10" height="10" fill="rgba(134, 48, 181, 1.0)" />
	<rect x="60" y="100" width="10" height="10" fill="rgba(128, 44, 176, 1.0)" />
	<rect x="70" y="100" width="10" height="10" fill="rgba(126, 43, 174, 1.0)" />
	<rect x="80" y="100" width="10" height="10" fill="rgba(135, 48, 181, 1.0)" />
	<rect x="90" y="100" width="10" height="10" fill="rgba(132, 47, 179, 1.0)" />
	<rect x="100" y="100" width="10" height="10" fill="rgba(115, 38, 166, 1.0)" />
	<rect x="110" y="100" width="10" height="10" fill="rgba(122, 41, 171, 1.0)" />
	<rect x="120" y="100" width="10" height="10" fill="rgba(125, 42, 173, 1.0)" />
	<rect x="130" y="100" width="10" height="10" fill="rgba(119, 39, 169, 1.0)" />
	<rect x="140" y="100" width="10" height="10" fill="rgba(107, 34, 161, 1.0)" />
	<rect x="150" y="100" width="10" height="10" fill="rgba(120, 40, 170, 1.0)" />
	<rect x="0" y="110" width="10" height="10" fill="rgba(107, 34, 161, 1.0)" />
	<rect x="10" y="110" width="10" height="10" fill="rgba(109, 35, 162, 1.0)" />
	<rect x="20" y="110" width="10" height="10" fill="rgba(124, 42, 173, 1.0)" />
	<rect x="30" y="110" width="10" height="10" fill="rgba(124, 42, 173, 1.0)" />
	<rect x="40" y="110" width="10" height="10" fill="rgba(113, 36, 165, 1.0)" />
	<rect x="50" y="110" width="10" height="10" fill="rgba(113, 37, 165, 1.0)" />
	<rect x="60" y="110" width="10" height="10" fill="rgba(130, 45, 178, 1.0)" />
	<rect x="70" y="110" width="10" height="10" fill="rgba(127, 44, 175, 1.0)" />
	<rect x="80" y="110" width="10" height="10" fill="rgba(108, 34, 161, 1.0)" />
	<rect x="90" y="110" width="10" height="10" fill="rgba(109, 35, 162, 1.0)" />
	<rect x="100" y="110" width="10" height="10" fill="rgba(111, 36, 164, 1.0)" />
	<rect x="110" y="110" width="10" height="10" fill="rgba(125, 42, 173, 1.0)" />
	<rect x="120" y="110" width="10" height="10" fill="rgba(102, 32, 157, 1.0)" />
	<rect x="130" y="110" width="10" height="10" fill="rgba(102, 32, 157, 1.0)" />
	<rect x="140" y="110" width="10" height="10" fill="rgba(114, 37, 165, 1.0)" />
	<rect x="150" y="110" width="10" height="10" fill="rgba(125, 42, 173, 1.0)" />
	<rect x="0" y="120" width="10" height="10" fill="rgba(113, 37, 165, 1.0)" />
	<rect x="10" y="120" width="10" height="10" fill="rgba(113, 36, 165, 1.0)" />
	<rect x="20" y="120" width="10" height="10" fill="rgba(101, 32, 157, 1.0)" />
	<rect x="30" y="120" width="10" height="10" fill="rgba(103, 32, 158, 1.0)" />
	<rect x="40" y="120" width="10" height="10" fill="rgba(133, 47, 180, 1.0)" />
	<rect x="50" y="120" width="10" height="10" fill="rgba(137, 50, 184, 1.0)" />
	<rect x="60" y="120" width="10" height="10" fill="rgba(105, 33, 159, 1.0)" />
	<rect x="70" y="120" width="10" height="10" fill="rgba(101, 32, 157, 1.0)" />
	<rect x="80" y="120" width="10" height="10" fill="rgba(119, 39, 169, 1.0)" />
	<rect x="90" y="120" width="10" height="10" fill="rgba(130, 45, 178, 1.0)" />
	<rect x="100" y="120" width="10" height="10" fill="rgba(122, 41, 171, 1.0)" />
	<rect x="110" y="120" width="10" height="10" fill="rgba(127, 44, 175, 1.0)" />
	<rect x="120" y="120" width="10" height="10" fill="rgba(151, 67, 205, 1.0)" />
	<rect x="130" y="120" width="10" height="10" fill="rgba(151, 67, 205, 1.0)" />
	<rect x="140" y="120" width="10" height="10" fill="rgba(125, 42, 173, 1.0)" />
	<rect x="150" y="120" width="10" height="10" fill="rgba(103, 33, 158, 1.0)" />
	<rect x="0" y="130" width="10" height="10" fill="rgba(127, 44, 175, 1.0)" />
	<rect x="10" y="130" width="10" height="10" fill="rgba(126, 43, 174, 1.0)" />
	<rect x="20" y="130" width="10" height="10" fill="rgba(141, 54, 188, 1.0)" />
	<rect x="30" y="130" width="10" height="10" fill="rgba(151, 67, 205, 1.0)" />
	<rect x="40" y="130" width="10" height="10" fill="rgba(133, 47, 180, 1.0)" />
	<rect x="50" y="130" width="10" height="10" fill="rgba(128, 44, 176, 1.0)" />
	<rect x="60" y="130" width="10" height="10" fill="rgba(122, 41, 171, 1.0)" />
	<rect x="70" y="130" width="10" height="10" fill="rgba(115, 38, 166, 1.0)" />
	<rect x="80" y="130" width="10" height="10" fill="rgba(101, 32, 157, 1.0)" />
	<rect x="90" y="130" width="10" height="10" fill="rgba(118, 39, 168, 1.0)" />
	<rect x="100" y="130" width="10" height="10" fill="rgba(127, 44, 175, 1.0)" />
	<rect x="110" y="130" width="10" height="10" fill="rgba(134, 48, 181, 1.0)" />
	<rect x="120" y="130" width="10" height="10" fill="rgba(117, 38, 168, 1.0)" />
	<rect x="130" y="130" width="10" height="10" fill="rgba(118, 39, 168, 1.0)" />
	<rect x="140" y="130" width="10" height="10" fill="rgba(134, 48, 181, 1.0)" />
	<rect x="150" y="130" width="10" height="10" fill="rgba(151, 67, 205, 1.0)" />
	<rect x="0" y="140" width="10" height="10" fill="rgba(137, 50, 184, 1.0)" />
	<rect x="10" y="140" width="10" height="10" fill="rgba(136, 49, 183, 1.0)" />
	<rect x="20" y="140" width="10" height="10" fill="rgba(120, 40, 170, 1.0)" />
	<rect x="30" y="140" width="10" height="10" fill="rgba(116, 38, 167, 1.0)" />
	<rect x="40" y="140" width="10" height="10" fill="rgba(134, 48, 181, 1.0)" />
	<rect x="50" y="140" width="10" height="10" fill="rgba(122, 41, 171, 1.0)" />
	<rect x="60" y="140" width="10" height="10" fill="rgba(125, 42, 173, 1.0)" />
	<rect x="70" y="140" width="10" height="10" fill="rgba(130, 45, 177, 1.0)" />
	<rect x="80" y="140" width="10" height="10" fill="rgba(151, 67, 205, 1.0)" />
	<rect x="90" y="140" width="10" height="10" fill="rgba(132, 47, 179, 1.0)" />
	<rect x="100" y="140" width="10" height="10" fill="rgba(111, 36, 163, 1.0)" />
	<rect x="110" y="140" width="10" height="10" fill="rgba(111, 36, 164, 1.0)" />
	<rect x="120" y="140" width="10" height="10" fill="rgba(123, 41, 172, 1.0)" />
	<rect x="130" y="140" width="10" height="10" fill="rgba(127, 44, 175, 1.0)" />
	<rect x="140" y="140" width="10" height="10" fill="rgba(113, 37, 165, 1.0)" />
	<rect x="150" y="140" width="10" height="10" fill="rgba(108, 34, 161, 1.0)" />
	<rect x="0" y="150" width="10" height="10" fill="rgba(104, 33, 159, 1.0)" />
	<rect x="10" y="150" width="10" height="10" fill="rgba(109, 35, 162, 1.0)" />
	<rect x="20" y="150" width="10" height="10" fill="rgba(133, 47, 180, 1.0)" />
	<rect x="30" y="150" width="10" height="10" fill="rgba(123, 41, 172, 1.0)" />
	<rect x="40" y="150" width="10" height="10" fill="rgba(108, 34, 161, 1.0)" />
	<rect x="50" y="150" width="10" height="10" fill="rgba(113, 37, 165, 1.0)" />
	<rect x="60" y="150" width="10" height="10" fill="rgba(134, 48, 181, 1.0)" />
	<rect x="70" y="150" width="10" height="10" fill="rgba(141, 54, 188, 1.0)" />
	<rect x="80" y="150" width="10" height="10" fill="rgba(117, 38, 168, 1.0)" />
	<rect x="90" y="150" width="10" height="10" fill="rgba(113, 36, 165, 1.0)" />
	<rect x="100" y="150" width="10" height="10" fill="rgba(126, 43, 174, 1.0)" />
	<rect x="110" y="150" width="10" height="10" fill="rgba(133, 47, 180, 1.0)" />
	<rect x="120" y="150" width="10" height="10" fill="rgba(108, 34, 161, 1.0)" />
	<rect x="130" y="150" width="10" height="10" fill="rgba(109, 35, 162, 1.0)" />
	<rect x="140" y="150" width="10" height="10" fill="rgba(132, 47, 179, 1.0)" />
	<rect x="150" y="150" width="10" height="10" fill="rgba(134, 48, 181, 1.0)" />
</svg>