<svg xmlns="http://www.w3.org/2000/svg" xmlns:xlink="http://www.w3.org/1999/xlink">
	<rect x="0" y="0" width="10" height="10" fill="rgba(126, 54, 169, 1.0)" />
	<rect x="10" y="0" width="10" height="10" fill="rgba(132, 55, 179, 1.0)" />
	<rect x="20" y="0" width="10" height="10" fill="rgba(138, 58, 183, 1.0)" />
	<rect x="30" y="0" width="10" height="10" fill="rgba(126, 52, 174, 1.0)" />
	<rect x="40" y="0" width="10" height="10" fill="rgba(130, 54, 178, 1.0)" />
	<rect x="50" y="0" width="10" height="10" fill="rgba(132, 55, 178, 1.0)" />
	<rect x="60" y="0" width="10" height="10" fill="rgba(128, 54, 172, 1.0)" />
	<rect x="70" y="0" width="10" height="10" fill="rgba(128, 54, 175, 1.0)" />
	<rect x="80" y="0" width="10" height="10" fill="rgba(128, 54, 177, 1.0)" />
	<rect x="90" y="0" width="10" height="10" fill="rgba(132, 55, 178, 1.0)" />
	<rect x="100" y="0" width="10" height="10" fill="rgba(139, 61, 181, 1.0)" />
	<rect x="110" y="0" width="10" height="10" fill="rgba(126, 52, 175, 1.0)" />
	<rect x="120" y="0" width="10" height="10" fill="rgba(136, 57, 179, 1.0)" />
	<rect x="130" y="0" width="10" height="10" fill="rgba(141, 59, 191, 1.0)" />
	<rect x="140" y="0" width="10" height="10" fill="rgba(121, 48, 166, 1.0)" />
	<rect x="150" y="0" width="10" height="10" fill="rgba(127, 52, 175, 1.0)" />
	<rect x="0" y="10" width="10" height="10" fill="rgba(130, 55, 176, 1.0)" />
	<rect x="10" y="10" width="10" height="10" fill="rgba(133, 57, 178, 1.0)" />
	<rect x="20" y="10" width="10" height="10" fill="rgba(138, 58, 183, 1.0)" />
	<rect x="30" y="10" width="10" height="10" fill="rgba(132, 55, 181, 1.0)" />
	<rect x="40" y="10" width="10" height="10" fill="rgba(120, 50, 164, 1.0)" />
	<rect x="50" y="10" width="10" height="10" fill="rgba(120, 50, 168, 1.0)" />
	<rect x="60" y="10" width="10" height="10" fill="rgba(121, 50, 168, 1.0)" />
	<rect x="70" y="10" width="10" height="10" fill="rgba(137, 58, 179, 1.0)" />
	<rect x="80" y="10" width="10" height="10" fill="rgba(136, 57, 183, 1.0)" />
	<rect x="90" y="10" width="10" height="10" fill="rgba(131, 55, 180, 1.0)" />
	<rect x="100" y="10" width="10" height="10" fill="rgba(139, 58, 191, 1.0)" />
	<rect x="110" y="10" width="10" height="10" fill="rgba(131, 55, 178, 1.0)" />
	<rect x="120" y="10" width="10" height="10" fill="rgba(133, 57, 179, 1.0)" />
	<rect x="130" y="10" width="10" height="10" fill="rgba(125, 51, 172, 1.0)" />
	<rect x="140" y="10" width="10" height="10" fill="rgba(131, 55, 177, 1.0)" />
	<rect x="150" y="10" width="10" height="10" fill="rgba(132, 55, 181, 1.0)" />
	<rect x="0" y="20" width="10" height="10" fill="rgba(131, 55, 179, 1.0)" />
	<rect x="10" y="20" width="10" height="10" fill="rgba(128, 54, 180, 1.0)" />
	<rect x="20" y="20" width="10" height="10" fill="rgba(132, 55, 183, 1.0)" />
	<rect x="30" y="20" width="10" height="10" fill="rgba(126, 51, 171, 1.0)" />
	<rect x="40" y="20" width="10" height="10" fill="rgba(134, 58, 178, 1.0)" />
	<rect x="50" y="20" width="10" height="10" fill="rgba(128, 52, 174, 1.0)" />
	<rect x="60" y="20" width="10" height="10" fill="rgba(141, 62, 184, 1.0)" />
	<rect x="70" y="20" width="10" height="10" fill="rgba(132, 55, 177, 1.0)" />
	<rect x="80" y="20" width="10" height="10" fill="rgba(128, 54, 176, 1.0)" />
	<rect x="90" y="20" width="10" height="10" fill="rgba(138, 58, 183, 1.0)" />
	<rect x="100" y="20" width="10" height="10" fill="rgba(144, 62, 187, 1.0)" />
	<rect x="110" y="20" width="10" height="10" fill="rgba(140, 61, 186, 1.0)" />
	<rect x="120" y="20" width="10" height="10" fill="rgba(131, 55, 177, 1.0)" />
	<rect x="130" y="20" width="10" height="10" fill="rgba(121, 50, 168, 1.0)" />
	<rect x="140" y="20" width="10" height="10" fill="rgba(122, 50, 169, 1.0)" />
	<rect x="150" y="20" width="10" height="10" fill="rgba(139, 59, 188, 1.0)" />
	<rect x="0" y="30" width="10" height="10" fill="rgba(147, 67, 186, 1.0)" />
	<rect x="10" y="30" width="10" height="10" fill="rgba(147, 66, 187, 1.0)" />
	<rect x="20" y="30" width="10" height="10" fill="rgba(124, 51, 172, 1.0)" />
	<rect x="30" y="30" width="10" height="10" fill="rgba(124, 51, 172, 1.0)" />
	<rect x="40" y="30" width="10" height="10" fill="rgba(124, 51, 169, 1.0)" />
	<rect x="50" y="30" width="10" height="10" fill="rgba(132, 57, 178, 1.0)" />
	<rect x="60" y="30" width="10" height="10" fill="rgba(137, 59, 179, 1.0)" />
	<rect x="70" y="30" width="10" height="10" fill="rgba(126, 52, 175, 1.0)" />
	<rect x="80" y="30" width="10" height="10" fill="rgba(111, 45, 155, 1.0)" />
	<rect x="90" y="30" width="10" height="10" fill="rgba(141, 61, 181, 1.0)" />
	<rect x="100" y="30" width="10" height="10" fill="rgba(127, 52, 175, 1.0)" />
	<rect x="110" y="30" width="10" height="10" fill="rgba(122, 51, 174, 1.0)" />
	<rect x="120" y="30" width="10" height="10" fill="rgba(131, 55, 180, 1.0)" />
	<rect x="130" y="30" width="10" height="10" fill="rgba(136, 58, 182, 1.0)" />
	<rect x="140" y="30" width="10" height="10" fill="rgba(125, 51, 172, 1.0)" />
	<rect x="150" y="30" width="10" height="10" fill="rgba(116, 48, 163, 1.0)" />
	<rect x="0" y="40" width="10" height="10" fill="rgba(136, 58, 181, 1.0)" />
	<rect x="10" y="40" width="10" height="10" fill="rgba(121, 48, 169, 1.0)" />
	<rect x="20" y="40" width="10" height="10" fill="rgba(127, 52, 178, 1.0)" />
	<rect x="30" y="40" width="10" height="10" fill="rgba(140, 61, 180, 1.0)" />
	<rect x="40" y="40" width="10" height="10" fill="rgba(126, 52, 177, 1.0)" />
	<rect x="50" y="40" width="10" height="10" fill="rgba(141, 61, 186, 1.0)" />
	<rect x="60" y="40" width="10" height="10" fill="rgba(154, 69, 194, 1.0)" />
	<rect x="70" y="40" width="10" height="10" fill="rgba(133, 55, 181, 1.0)" />
	<rect x="80" y="40" width="10" height="10" fill="rgba(122, 50, 169, 1.0)" />
	<rect x="90" y="40" width="10" height="10" fill="rgba(128, 54, 172, 1.0)" />
	<rect x="100" y="40" width="10" height="10" fill="rgba(118, 48, 167, 1.0)" />
	<rect x="110" y="40" width="10" height="10" fill="rgba(131, 55, 180, 1.0)" />
	<rect x="120" y="40" width="10" height="10" fill="rgba(130, 55, 176, 1.0)" />
	<rect x="130" y="40" width="10" height="10" fill="rgba(124, 51, 166, 1.0)" />
	<rect x="140" y="40" width="10" height="10" fill="rgba(140, 59, 187, 1.0)" />
	<rect x="150" y="40" width="10" height="10" fill="rgba(140, 61, 180, 1.0)" />
	<rect x="0" y="50" width="10" height="10" fill="rgba(128, 52, 172, 1.0)" />
	<rect x="10" y="50" width="10" height="10" fill="rgba(146, 65, 188, 1.0)" />
	<rect x="20" y="50" width="10" height="10" fill="rgba(122, 51, 168, 1.0)" />
	<rect x="30" y="50" width="10" height="10" fill="rgba(142, 59, 195, 1.0)" />
	<rect x="40" y="50" width="10" height="10" fill="rgba(121, 50, 169, 1.0)" />
	<rect x="50" y="50" width="10" height="10" fill="rgba(136, 58, 183, 1.0)" />
	<rect x="60" y="50" width="10" height="10" fill="rgba(134, 57, 180, 1.0)" />
	<rect x="70" y="50" width="10" height="10" fill="rgba(142, 62, 185, 1.0)" />
	<rect x="80" y="50" width="10" height="10" fill="rgba(121, 48, 170, 1.0)" />
	<rect x="90" y="50" width="10" height="10" fill="rgba(151, 66, 193, 1.0)" />
	<rect x="100" y="50" width="10" height="10" fill="rgba(127, 54, 175, 1.0)" />
	<rect x="110" y="50" width="10" height="10" fill="rgba(122, 51, 167, 1.0)" />
	<rect x="120" y="50" width="10" height="10" fill="rgba(126, 52, 170, 1.0)" />
	<rect x="130" y="50" width="10" height="10" fill="rgba(136, 58, 178, 1.0)" />
	<rect x="140" y="50" width="10" height="10" fill="rgba(128, 54, 175, 1.0)" />
	<rect x="150" y="50" width="10" height="10" fill="rgba(121, 51, 165, 1.0)" />
	<rect x="0" y="60" width="10" height="10" fill="rgba(115, 48, 161, 1.0)" />
	<rect x="10" y="60" width="10" height="10" fill="rgba(153, 69, 193, 1.0)" />
	<rect x="20" y="60" width="10" height="10" fill="rgba(121, 51, 168, 1.0)" />
	<rect x="30" y="60" width="10" height="10" fill="rgba(128, 54, 175, 1.0)" />
	<rect x="40" y="60" width="10" height="10" fill="rgba(121, 50, 165, 1.0)" />
	<rect x="50" y="60" width="10" height="10" fill="rgba(139, 58, 183, 1.0)" />
	<rect x="60" y="60" width="10" height="10" fill="rgba(132, 57, 177, 1.0)" />
	<rect x="70" y="60" width="10" height="10" fill="rgba(120, 48, 168, 1.0)" />
	<rect x="80" y="60" width="10" height="10" fill="rgba(121, 48, 170, 1.0)" />
	<rect x="90" y="60" width="10" height="10" fill="rgba(120, 48, 169, 1.0)" />
	<rect x="100" y="60" width="10" height="10" fill="rgba(126, 51, 177, 1.0)" />
	<rect x="110" y="60" width="10" height="10" fill="rgba(139, 58, 189, 1.0)" />
	<rect x="120" y="60" width="10" height="10" fill="rgba(133, 55, 178, 1.0)" />
	<rect x="130" y="60" width="10" height="10" fill="rgba(125, 51, 175, 1.0)" />
	<rect x="140" y="60" width="10" height="10" fill="rgba(121, 50, 171, 1.0)" />
	<rect x="150" y="60" width="10" height="10" fill="rgba(127, 52, 175, 1.0)" />
	<rect x="0" y="70" width="10" height="10" fill="rgba(118, 47, 168, 1.0)" />
	<rect x="10" y="70" width="10" height="10" fill="rgba(134, 58, 178, 1.0)" />
	<rect x="20" y="70" width="10" height="10" fill="rgba(151, 66, 191, 1.0)" />
	<rect x="30" y="70" width="10" height="10" fill="rgba(133, 57, 178, 1.0)" />
	<rect x="40" y="70" width="10" height="10" fill="rgba(136, 58, 180, 1.0)" />
	<rect x="50" y="70" width="10" height="10" fill="rgba(120, 50, 168, 1.0)" />
	<rect x="60" y="70" width="10" height="10" fill="rgba(149, 66, 191, 1.0)" />
	<rect x="70" y="70" width="10" height="10" fill="rgba(140, 59, 188, 1.0)" />
	<rect x="80" y="70" width="10" height="10" fill="rgba(128, 54, 176, 1.0)" />
	<rect x="90" y="70" width="10" height="10" fill="rgba(136, 58, 178, 1.0)" />
	<rect x="100" y="70" width="10" height="10" fill="rgba(142, 62, 182, 1.0)" />
	<rect x="110" y="70" width="10" height="10" fill="rgba(137, 58, 179, 1.0)" />
	<rect x="120" y="70" width="10" height="10" fill="rgba(153, 70, 193, 1.0)" />
	<rect x="130" y="70" width="10" height="10" fill="rgba(141, 59, 184, 1.0)" />
	<rect x="140" y="70" width="10" height="10" fill="rgba(136, 58, 186, 1.0)" />
	<rect x="150" y="70" width="10" height="10" fill="rgba(133, 57, 181, 1.0)" />
	<rect x="0" y="80" width="10" height="10" fill="rgba(128, 54, 177, 1.0)" />
	<rect x="10" y="80" width="10" height="10" fill="rgba(141, 61, 184, 1.0)" />
	<rect x="20" y="80" width="10" height="10" fill="rgba(126, 52, 178, 1.0)" />
	<rect x="30" y="80" width="10" height="10" fill="rgba(133, 57, 181, 1.0)" />
	<rect x="40" y="80" width="10" height="10" fill="rgba(126, 54, 175, 1.0)" />
	<rect x="50" y="80" width="10" height="10" fill="rgba(131, 55, 175, 1.0)" />
	<rect x="60" y="80" width="10" height="10" fill="rgba(137, 58, 183, 1.0)" />
	<rect x="70" y="80" width="10" height="10" fill="rgba(125, 52, 174, 1.0)" />
	<rect x="80" y="80" width="10" height="10" fill="rgba(125, 50, 171, 1.0)" />
	<rect x="90" y="80" width="10" height="10" fill="rgba(138, 58, 189, 1.0)" />
	<rect x="100" y="80" width="10" height="10" fill="rgba(124, 52, 167, 1.0)" />
	<rect x="110" y="80" width="10" height="10" fill="rgba(137, 58, 180, 1.0)" />
	<rect x="120" y="80" width="10" height="10" fill="rgba(122, 50, 170, 1.0)" />
	<rect x="130" y="80" width="10" height="10" fill="rgba(134, 57, 180, 1.0)" />
	<rect x="140" y="80" width="10" height="10" fill="rgba(130, 54, 176, 1.0)" />
	<rect x="150" y="80" width="10" height="10" fill="rgba(127, 52, 175, 1.0)" />
	<rect x="0" y="90" width="10" height="10" fill="rgba(138, 62, 179, 1.0)" />
	<rect x="10" y="90" width="10" height="10" fill="rgba(132, 55, 177, 1.0)" />
	<rect x="20" y="90" width="10" height="10" fill="rgba(136, 58, 182, 1.0)" />
	<rect x="30" y="90" width="10" height="10" fill="rgba(144, 63, 186, 1.0)" />
	<rect x="40" y="90" width="10" height="10" fill="rgba(124, 51, 172, 1.0)" />
	<rect x="50" y="90" width="10" height="10" fill="rgba(132, 57, 178, 1.0)" />
	<rect x="60" y="90" width="10" height="10" fill="rgba(130, 54, 174, 1.0)" />
	<rect x="70" y="90" width="10" height="10" fill="rgba(124, 51, 170, 1.0)" />
	<rect x="80" y="90" width="10" height="10" fill="rgba(128, 54, 176, 1.0)" />
	<rect x="90" y="90" width="10" height="10" fill="rgba(125, 52, 174, 1.0)" />
	<rect x="100" y="90" width="10" height="10" fill="rgba(128, 54, 176, 1.0)" />
	<rect x="110" y="90" width="10" height="10" fill="rgba(138, 58, 185, 1.0)" />
	<rect x="120" y="90" width="10" height="10" fill="rgba(128, 54, 175, 1.0)" />
	<rect x="130" y="90" width="10" height="10" fill="rgba(148, 66, 190, 1.0)" />
	<rect x="140" y="90" width="10" height="10" fill="rgba(137, 59, 180, 1.0)" />
	<rect x="150" y="90" width="10" height="10" fill="rgba(134, 57, 182, 1.0)" />
	<rect x="0" y="100" width="10" height="10" fill="rgba(134, 57, 179, 1.0)" />
	<rect x="10" y="100" width="10" height="10" fill="rgba(127, 54, 176, 1.0)" />
	<rect x="20" y="100" width="10" height="10" fill="rgba(125, 54, 163, 1.0)" />
	<rect x="30" y="100" width="10" height="10" fill="rgba(125, 51, 176, 1.0)" />
	<rect x="40" y="100" width="10" height="10" fill="rgba(116, 47, 163, 1.0)" />
	<rect x="50" y="100" width="10" height="10" fill="rgba(137, 57, 183, 1.0)" />
	<rect x="60" y="100" width="10" height="10" fill="rgba(141, 61, 183, 1.0)" />
	<rect x="70" y="100" width="10" height="10" fill="rgba(126, 52, 174, 1.0)" />
	<rect x="80" y="100" width="10" height="10" fill="rgba(128, 54, 180, 1.0)" />
	<rect x="90" y="100" width="10" height="10" fill="rgba(130, 55, 181, 1.0)" />
	<rect x="100" y="100" width="10" height="10" fill="rgba(128, 54, 178, 1.0)" />
	<rect x="110" y="100" width="10" height="10" fill="rgba(122, 50, 169, 1.0)" />
	<rect x="120" y="100" width="10" height="10" fill="rgba(125, 51, 171, 1.0)" />
	<rect x="130" y="100" width="10" height="10" fill="rgba(162, 72, 205, 1.0)" />
	<rect x="140" y="100" width="10" height="10" fill="rgba(137, 58, 179, 1.0)" />
	<rect x="150" y="100" width="10" height="10" fill="rgba(126, 52, 174, 1.0)" />
	<rect x="0" y="110" width="10" height="10" fill="rgba(127, 52, 171, 1.0)" />
	<rect x="10" y="110" width="10" height="10" fill="rgba(147, 65, 189, 1.0)" />
	<rect x="20" y="110" width="10" height="10" fill="rgba(138, 59, 184, 1.0)" />
	<rect x="30" y="110" width="10" height="10" fill="rgba(120, 48, 166, 1.0)" />
	<rect x="40" y="110" width="10" height="10" fill="rgba(142, 62, 184, 1.0)" />
	<rect x="50" y="110" width="10" height="10" fill="rgba(137, 58, 179, 1.0)" />
	<rect x="60" y="110" width="10" height="10" fill="rgba(154, 72, 194, 1.0)" />
	<rect x="70" y="110" width="10" height="10" fill="rgba(130, 54, 175, 1.0)" />
	<rect x="80" y="110" width="10" height="10" fill="rgba(124, 51, 172, 1.0)" />
	<rect x="90" y="110" width="10" height="10" fill="rgba(148, 65, 188, 1.0)" />
	<rect x="100" y="110" width="10" height="10" fill="rgba(140, 61, 183, 1.0)" />
	<rect x="110" y="110" width="10" height="10" fill="rgba(133, 55, 185, 1.0)" />
	<rect x="120" y="110" width="10" height="10" fill="rgba(132, 54, 175, 1.0)" />
	<rect x="130" y="110" width="10" height="10" fill="rgba(142, 63, 183, 1.0)" />
	<rect x="140" y="110" width="10" height="10" fill="rgba(144, 63, 183, 1.0)" />
	<rect x="150" y="110" width="10" height="10" fill="rgba(128, 55, 168, 1.0)" />
	<rect x="0" y="120" width="10" height="10" fill="rgba(140, 59, 186, 1.0)" />
	<rect x="10" y="120" width="10" height="10" fill="rgba(136, 57, 180, 1.0)" />
	<rect x="20" y="120" width="10" height="10" fill="rgba(133, 55, 176, 1.0)" />
	<rect x="30" y="120" width="10" height="10" fill="rgba(134, 55, 182, 1.0)" />
	<rect x="40" y="120" width="10" height="10" fill="rgba(136, 57, 180, 1.0)" />
	<rect x="50" y="120" width="10" height="10" fill="rgba(132, 54, 175, 1.0)" />
	<rect x="60" y="120" width="10" height="10" fill="rgba(133, 57, 180, 1.0)" />
	<rect x="70" y="120" width="10" height="10" fill="rgba(131, 57, 171, 1.0)" />
	<rect x="80" y="120" width="10" height="10" fill="rgba(114, 47, 162, 1.0)" />
	<rect x="90" y="120" width="10" height="10" fill="rgba(124, 51, 172, 1.0)" />
	<rect x="100" y="120" width="10" height="10" fill="rgba(131, 55, 176, 1.0)" />
	<rect x="110" y="120" width="10" height="10" fill="rgba(130, 54, 174, 1.0)" />
	<rect x="120" y="120" width="10" height="10" fill="rgba(122, 51, 172, 1.0)" />
	<rect x="130" y="120" width="10" height="10" fill="rgba(137, 59, 183, 1.0)" />
	<rect x="140" y="120" width="10" height="10" fill="rgba(124, 51, 170, 1.0)" />
	<rect x="150" y="120" width="10" height="10" fill="rgba(142, 62, 182, 1.0)" />
	<rect x="0" y="130" width="10" height="10" fill="rgba(124, 51, 172, 1.0)" />
	<rect x="10" y="130" width="10" height="10" fill="rgba(124, 51, 175, 1.0)" />
	<rect x="20" y="130" width="10" height="10" fill="rgba(137, 59, 179, 1.0)" />
	<rect x="30" y="130" width="10" height="10" fill="rgba(114, 47, 158, 1.0)" />
	<rect x="40" y="130" width="10" height="10" fill="rgba(149, 69, 188, 1.0)" />
	<rect x="50" y="130" width="10" height="10" fill="rgba(145, 63, 184, 1.0)" />
	<rect x="60" y="130" width="10" height="10" fill="rgba(119, 48, 168, 1.0)" />
	<rect x="70" y="130" width="10" height="10" fill="rgba(161, 73, 201, 1.0)" />
	<rect x="80" y="130" width="10" height="10" fill="rgba(141, 59, 184, 1.0)" />
	<rect x="90" y="130" width="10" height="10" fill="rgba(136, 57, 184, 1.0)" />
	<rect x="100" y="130" width="10" height="10" fill="rgba(136, 58, 182, 1.0)" />
	<rect x="110" y="130" width="10" height="10" fill="rgba(130, 55, 177, 1.0)" />
	<rect x="120" y="130" width="10" height="10" fill="rgba(130, 55, 178, 1.0)" />
	<rect x="130" y="130" width="10" height="10" fill="rgba(133, 57, 177, 1.0)" />
	<rect x="140" y="130" width="10" height="10" fill="rgba(134, 58, 182, 1.0)" />
	<rect x="150" y="130" width="10" height="10" fill="rgba(140, 61, 181, 1.0)" />
	<rect x="0" y="140" width="10" height="10" fill="rgba(127, 54, 177, 1.0)" />
	<rect x="10" y="140" width="10" height="10" fill="rgba(121, 50, 171, 1.0)" />
	<rect x="20" y="140" width="10" height="10" fill="rgba(128, 52, 174, 1.0)" />
	<rect x="30" y="140" width="10" height="10" fill="rgba(122, 51, 169, 1.0)" />
	<rect x="40" y="140" width="10" height="10" fill="rgba(139, 59, 183, 1.0)" />
	<rect x="50" y="140" width="10" height="10" fill="rgba(137, 58, 180, 1.0)" />
	<rect x="60" y="140" width="10" height="10" fill="rgba(132, 55, 178, 1.0)" />
	<rect x="70" y="140" width="10" height="10" fill="rgba(144, 62, 186, 1.0)" />
	<rect x="80" y="140" width="10" height="10" fill="rgba(118, 48, 164, 1.0)" />
	<rect x="90" y="140" width="10" height="10" fill="rgba(145, 63, 187, 1.0)" />
	<rect x="100" y="140" width="10" height="10" fill="rgba(127, 54, 167, 1.0)" />
	<rect x="110" y="140" width="10" height="10" fill="rgba(142, 62, 182, 1.0)" />
	<rect x="120" y="140" width="10" height="10" fill="rgba(142, 61, 186, 1.0)" />
	<rect x="130" y="140" width="10" height="10" fill="rgba(122, 50, 168, 1.0)" />
	<rect x="140" y="140" width="10" height="10" fill="rgba(130, 54, 174, 1.0)" />
	<rect x="150" y="140" width="10" height="10" fill="rgba(128, 54, 177, 1.0)" />
	<rect x="0" y="150" width="10" height="10" fill="rgba(136, 58, 179, 1.0)" />
	<rect x="10" y="150" width="10" height="10" fill="rgba(142, 61, 186, 1.0)" />
	<rect x="20" y="150" width="10" height="10" fill="rgba(125, 51, 171, 1.0)" />
	<rect x="30" y="150" width="10" height="10" fill="rgba(116, 47, 162, 1.0)" />
	<rect x="40" y="150" width="10" height="10" fill="rgba(144, 59, 193, 1.0)" />
	<rect x="50" y="150" width="10" height="10" fill="rgba(125, 51, 174, 1.0)" />
	<rect x="60" y="150" width="10" height="10" fill="rgba(130, 54, 172, 1.0)" />
	<rect x="70" y="150" width="10" height="10" fill="rgba(148, 65, 192, 1.0)" />
	<rect x="80" y="150" width="10" height="10" fill="rgba(144, 63, 186, 1.0)" />
	<rect x="90" y="150" width="10" height="10" fill="rgba(132, 55, 182, 1.0)" />
	<rect x="100" y="150" width="10" height="10" fill="rgba(133, 57, 176, 1.0)" />
	<rect x="110" y="150" width="10" height="10" fill="rgba(133, 55, 178, 1.0)" />
	<rect x="120" y="150" width="10" height="10" fill="rgba(140, 59, 183, 1.0)" />
	<rect x="130" y="150" width="10" height="10" fill="rgba(131, 55, 177, 1.0)" />
	<rect x="140" y="150" width="10" height="10" fill="rgba(122, 50, 170, 1.0)" />
	<rect x="150" y="150" width="10" height="10" fill="rgba(124, 51, 167, 1.0)" />
</svg>