<svg xmlns="http://www.w3.org/2000/svg" xmlns:xlink="http://www.w3.org/1999/xlink">
	<rect x="0" y="0" width="10" height="10" fill="rgba(165, 55, 48, 1.0)" />
	<rect x="10" y="0" width="10" height="10" fill="rgba(178, 58, 54, 1.0)" />
	<rect x="20" y="0" width="10" height="10" fill="rgba(169, 54, 51, 1.0)" />
	<rect x="30" y="0" width="10" height="10" fill="rgba(164, 51, 50, 1.0)" />
	<rect x="40" y="0" width="10" height="10" fill="rgba(166, 52, 51, 1.0)" />
	<rect x="50" y="0" width="10" height="10" fill="rgba(159, 50, 48, 1.0)" />
	<rect x="60" y="0" width="10" height="10" fill="rgba(162, 51, 48, 1.0)" />
	<rect x="70" y="0" width="10" height="10" fill="rgba(166, 52, 50, 1.0)" />
	<rect x="80" y="0" width="10" height="10" fill="rgba(172, 55, 51, 1.0)" />
	<rect x="90" y="0" width="10" height="10" fill="rgba(180, 61, 54, 1.0)" />
	<rect x="100" y="0" width="10" height="10" fill="rgba(164, 51, 50, 1.0)" />
	<rect x="110" y="0" width="10" height="10" fill="rgba(161, 50, 50, 1.0)" />
	<rect x="120" y="0" width="10" height="10" fill="rgba(172, 55, 51, 1.0)" />
	<rect x="130" y="0" width="10" height="10" fill="rgba(202, 74, 63, 1.0)" />
	<rect x="140" y="0" width="10" height="10" fill="rgba(164, 54, 48, 1.0)" />
	<rect x="150" y="0" width="10" height="10" fill="rgba(157, 48, 48, 1.0)" />
	<rect x="0" y="10" width="10" height="10" fill="rgba(164, 52, 50, 1.0)" />
	<rect x="10" y="10" width="10" height="10" fill="rgba(165, 52, 50, 1.0)" />
	<rect x="20" y="10" width="10" height="10" fill="rgba(187, 65, 57, 1.0)" />
	<rect x="30" y="10" width="10" height="10" fill="rgba(175, 58, 52, 1.0)" />
	<rect x="40" y="10" width="10" height="10" fill="rgba(152, 48, 47, 1.0)" />
	<rect x="50" y="10" width="10" height="10" fill="rgba(163, 51, 48, 1.0)" />
	<rect x="60" y="10" width="10" height="10" fill="rgba(165, 52, 48, 1.0)" />
	<rect x="70" y="10" width="10" height="10" fill="rgba(157, 48, 47, 1.0)" />
	<rect x="80" y="10" width="10" height="10" fill="rgba(188, 66, 55, 1.0)" />
	<rect x="90" y="10" width="10" height="10" fill="rgba(165, 51, 50, 1.0)" />
	<rect x="100" y="10" width="10" height="10" fill="rgba(186, 61, 57, 1.0)" />
	<rect x="110" y="10" width="10" height="10" fill="rgba(178, 58, 52, 1.0)" />
	<rect x="120" y="10" width="10" height="10" fill="rgba(179, 59, 52, 1.0)" />
	<rect x="130" y="10" width="10" height="10" fill="rgba(174, 57, 51, 1.0)" />
	<rect x="140" y="10" width="10" height="10" fill="rgba(171, 55, 50, 1.0)" />
	<rect x="150" y="10" width="10" height="10" fill="rgba(164, 51, 50, 1.0)" />
	<rect x="0" y="20" width="10" height="10" fill="rgba(165, 52, 51, 1.0)" />
	<rect x="10" y="20" width="10" height="10" fill="rgba(181, 59, 54, 1.0)" />
	<rect x="20" y="20" width="10" height="10" fill="rgba(170, 54, 52, 1.0)" />
	<rect x="30" y="20" width="10" height="10" fill="rgba(170, 55, 50, 1.0)" />
	<rect x="40" y="20" width="10" height="10" fill="rgba(159, 50, 48, 1.0)" />
	<rect x="50" y="20" width="10" height="10" fill="rgba(204, 91, 83, 1.0)" />
	<rect x="60" y="20" width="10" height="10" fill="rgba(158, 50, 48, 1.0)" />
	<rect x="70" y="20" width="10" height="10" fill="rgba(164, 51, 50, 1.0)" />
	<rect x="80" y="20" width="10" height="10" fill="rgba(178, 58, 52, 1.0)" />
	<rect x="90" y="20" width="10" height="10" fill="rgba(167, 52, 51, 1.0)" />
	<rect x="100" y="20" width="10" height="10" fill="rgba(171, 55, 51, 1.0)" />
	<rect x="110" y="20" width="10" height="10" fill="rgba(168, 54, 51, 1.0)" />
	<rect x="120" y="20" width="10" height="10" fill="rgba(200, 85, 77, 1.0)" />
	<rect x="130" y="20" width="10" height="10" fill="rgba(157, 50, 47, 1.0)" />
	<rect x="140" y="20" width="10" height="10" fill="rgba(169, 55, 50, 1.0)" />
	<rect x="150" y="20" width="10" height="10" fill="rgba(172, 55, 52, 1.0)" />
	<rect x="0" y="30" width="10" height="10" fill="rgba(152, 47, 47, 1.0)" />
	<rect x="10" y="30" width="10" height="10" fill="rgba(161, 50, 48, 1.0)" />
	<rect x="20" y="30" width="10" height="10" fill="rgba(164, 51, 50, 1.0)" />
	<rect x="30" y="30" width="10" height="10" fill="rgba(170, 54, 50, 1.0)" />
	<rect x="40" y="30" width="10" height="10" fill="rgba(164, 52, 48, 1.0)" />
	<rect x="50" y="30" width="10" height="10" fill="rgba(172, 55, 51, 1.0)" />
	<rect x="60" y="30" width="10" height="10" fill="rgba(170, 55, 50, 1.0)" />
	<rect x="70" y="30" width="10" height="10" fill="rgba(161, 50, 50, 1.0)" />
	<rect x="80" y="30" width="10" height="10" fill="rgba(149, 48, 44, 1.0)" />
	<rect x="90" y="30" width="10" height="10" fill="rgba(169, 55, 48, 1.0)" />
	<rect x="100" y="30" width="10" height="10" fill="rgba(178, 59, 52, 1.0)" />
	<rect x="110" y="30" width="10" height="10" fill="rgba(169, 54, 51, 1.0)" />
	<rect x="120" y="30" width="10" height="10" fill="rgba(181, 59, 54, 1.0)" />
	<rect x="130" y="30" width="10" height="10" fill="rgba(164, 51, 50, 1.0)" />
	<rect x="140" y="30" width="10" height="10" fill="rgba(164, 51, 50, 1.0)" />
	<rect x="150" y="30" width="10" height="10" fill="rgba(152, 48, 45, 1.0)" />
	<rect x="0" y="40" width="10" height="10" fill="rgba(169, 55, 51, 1.0)" />
	<rect x="10" y="40" width="10" height="10" fill="rgba(176, 58, 51, 1.0)" />
	<rect x="20" y="40" width="10" height="10" fill="rgba(181, 59, 54, 1.0)" />
	<rect x="30" y="40" width="10" height="10" fill="rgba(162, 51, 48, 1.0)" />
	<rect x="40" y="40" width="10" height="10" fill="rgba(172, 55, 51, 1.0)" />
	<rect x="50" y="40" width="10" height="10" fill="rgba(170, 54, 51, 1.0)" />
	<rect x="60" y="40" width="10" height="10" fill="rgba(168, 54, 51, 1.0)" />
	<rect x="70" y="40" width="10" height="10" fill="rgba(178, 58, 52, 1.0)" />
	<rect x="80" y="40" width="10" height="10" fill="rgba(161, 51, 48, 1.0)" />
	<rect x="90" y="40" width="10" height="10" fill="rgba(172, 58, 51, 1.0)" />
	<rect x="100" y="40" width="10" height="10" fill="rgba(161, 51, 48, 1.0)" />
	<rect x="110" y="40" width="10" height="10" fill="rgba(170, 54, 51, 1.0)" />
	<rect x="120" y="40" width="10" height="10" fill="rgba(164, 51, 50, 1.0)" />
	<rect x="130" y="40" width="10" height="10" fill="rgba(176, 61, 54, 1.0)" />
	<rect x="140" y="40" width="10" height="10" fill="rgba(184, 61, 55, 1.0)" />
	<rect x="150" y="40" width="10" height="10" fill="rgba(156, 50, 48, 1.0)" />
	<rect x="0" y="50" width="10" height="10" fill="rgba(165, 54, 48, 1.0)" />
	<rect x="10" y="50" width="10" height="10" fill="rgba(169, 54, 50, 1.0)" />
	<rect x="20" y="50" width="10" height="10" fill="rgba(168, 55, 50, 1.0)" />
	<rect x="30" y="50" width="10" height="10" fill="rgba(182, 58, 55, 1.0)" />
	<rect x="40" y="50" width="10" height="10" fill="rgba(176, 59, 52, 1.0)" />
	<rect x="50" y="50" width="10" height="10" fill="rgba(170, 54, 51, 1.0)" />
	<rect x="60" y="50" width="10" height="10" fill="rgba(165, 52, 50, 1.0)" />
	<rect x="70" y="50" width="10" height="10" fill="rgba(166, 52, 50, 1.0)" />
	<rect x="80" y="50" width="10" height="10" fill="rgba(161, 50, 48, 1.0)" />
	<rect x="90" y="50" width="10" height="10" fill="rgba(167, 52, 51, 1.0)" />
	<rect x="100" y="50" width="10" height="10" fill="rgba(164, 51, 50, 1.0)" />
	<rect x="110" y="50" width="10" height="10" fill="rgba(154, 48, 47, 1.0)" />
	<rect x="120" y="50" width="10" height="10" fill="rgba(157, 50, 47, 1.0)" />
	<rect x="130" y="50" width="10" height="10" fill="rgba(161, 51, 48, 1.0)" />
	<rect x="140" y="50" width="10" height="10" fill="rgba(172, 57, 51, 1.0)" />
	<rect x="150" y="50" width="10" height="10" fill="rgba(153, 48, 45, 1.0)" />
	<rect x="0" y="60" width="10" height="10" fill="rgba(151, 48, 47, 1.0)" />
	<rect x="10" y="60" width="10" height="10" fill="rgba(165, 52, 51, 1.0)" />
	<rect x="20" y="60" width="10" height="10" fill="rgba(175, 58, 52, 1.0)" />
	<rect x="30" y="60" width="10" height="10" fill="rgba(166, 52, 50, 1.0)" />
	<rect x="40" y="60" width="10" height="10" fill="rgba(164, 54, 48, 1.0)" />
	<rect x="50" y="60" width="10" height="10" fill="rgba(166, 52, 51, 1.0)" />
	<rect x="60" y="60" width="10" height="10" fill="rgba(162, 50, 50, 1.0)" />
	<rect x="70" y="60" width="10" height="10" fill="rgba(159, 50, 48, 1.0)" />
	<rect x="80" y="60" width="10" height="10" fill="rgba(164, 52, 48, 1.0)" />
	<rect x="90" y="60" width="10" height="10" fill="rgba(161, 50, 48, 1.0)" />
	<rect x="100" y="60" width="10" height="10" fill="rgba(179, 59, 54, 1.0)" />
	<rect x="110" y="60" width="10" height="10" fill="rgba(174, 54, 52, 1.0)" />
	<rect x="120" y="60" width="10" height="10" fill="rgba(165, 52, 50, 1.0)" />
	<rect x="130" y="60" width="10" height="10" fill="rgba(170, 54, 51, 1.0)" />
	<rect x="140" y="60" width="10" height="10" fill="rgba(181, 61, 54, 1.0)" />
	<rect x="150" y="60" width="10" height="10" fill="rgba(162, 51, 48, 1.0)" />
	<rect x="0" y="70" width="10" height="10" fill="rgba(165, 52, 50, 1.0)" />
	<rect x="10" y="70" width="10" height="10" fill="rgba(172, 57, 51, 1.0)" />
	<rect x="20" y="70" width="10" height="10" fill="rgba(172, 55, 51, 1.0)" />
	<rect x="30" y="70" width="10" height="10" fill="rgba(164, 51, 50, 1.0)" />
	<rect x="40" y="70" width="10" height="10" fill="rgba(167, 52, 50, 1.0)" />
	<rect x="50" y="70" width="10" height="10" fill="rgba(169, 55, 50, 1.0)" />
	<rect x="60" y="70" width="10" height="10" fill="rgba(176, 58, 52, 1.0)" />
	<rect x="70" y="70" width="10" height="10" fill="rgba(182, 59, 55, 1.0)" />
	<rect x="80" y="70" width="10" height="10" fill="rgba(164, 51, 50, 1.0)" />
	<rect x="90" y="70" width="10" height="10" fill="rgba(161, 50, 48, 1.0)" />
	<rect x="100" y="70" width="10" height="10" fill="rgba(164, 52, 48, 1.0)" />
	<rect x="110" y="70" width="10" height="10" fill="rgba(163, 52, 48, 1.0)" />
	<rect x="120" y="70" width="10" height="10" fill="rgba(180, 59, 54, 1.0)" />
	<rect x="130" y="70" width="10" height="10" fill="rgba(165, 52, 51, 1.0)" />
	<rect x="140" y="70" width="10" height="10" fill="rgba(172, 55, 52, 1.0)" />
	<rect x="150" y="70" width="10" height="10" fill="rgba(166, 52, 50, 1.0)" />
	<rect x="0" y="80" width="10" height="10" fill="rgba(169, 54, 51, 1.0)" />
	<rect x="10" y="80" width="10" height="10" fill="rgba(177, 57, 54, 1.0)" />
	<rect x="20" y="80" width="10" height="10" fill="rgba(172, 54, 52, 1.0)" />
	<rect x="30" y="80" width="10" height="10" fill="rgba(166, 52, 50, 1.0)" />
	<rect x="40" y="80" width="10" height="10" fill="rgba(174, 57, 52, 1.0)" />
	<rect x="50" y="80" width="10" height="10" fill="rgba(164, 52, 48, 1.0)" />
	<rect x="60" y="80" width="10" height="10" fill="rgba(181, 61, 54, 1.0)" />
	<rect x="70" y="80" width="10" height="10" fill="rgba(181, 59, 54, 1.0)" />
	<rect x="80" y="80" width="10" height="10" fill="rgba(170, 55, 48, 1.0)" />
	<rect x="90" y="80" width="10" height="10" fill="rgba(177, 57, 55, 1.0)" />
	<rect x="100" y="80" width="10" height="10" fill="rgba(163, 54, 48, 1.0)" />
	<rect x="110" y="80" width="10" height="10" fill="rgba(169, 54, 50, 1.0)" />
	<rect x="120" y="80" width="10" height="10" fill="rgba(167, 54, 48, 1.0)" />
	<rect x="130" y="80" width="10" height="10" fill="rgba(164, 51, 50, 1.0)" />
	<rect x="140" y="80" width="10" height="10" fill="rgba(181, 59, 54, 1.0)" />
	<rect x="150" y="80" width="10" height="10" fill="rgba(165, 51, 50, 1.0)" />
	<rect x="0" y="90" width="10" height="10" fill="rgba(151, 48, 45, 1.0)" />
	<rect x="10" y="90" width="10" height="10" fill="rgba(163, 51, 50, 1.0)" />
	<rect x="20" y="90" width="10" height="10" fill="rgba(168, 54, 51, 1.0)" />
	<rect x="30" y="90" width="10" height="10" fill="rgba(169, 54, 50, 1.0)" />
	<rect x="40" y="90" width="10" height="10" fill="rgba(166, 52, 50, 1.0)" />
	<rect x="50" y="90" width="10" height="10" fill="rgba(171, 55, 50, 1.0)" />
	<rect x="60" y="90" width="10" height="10" fill="rgba(164, 52, 48, 1.0)" />
	<rect x="70" y="90" width="10" height="10" fill="rgba(161, 50, 48, 1.0)" />
	<rect x="80" y="90" width="10" height="10" fill="rgba(166, 52, 50, 1.0)" />
	<rect x="90" y="90" width="10" height="10" fill="rgba(167, 52, 50, 1.0)" />
	<rect x="100" y="90" width="10" height="10" fill="rgba(166, 52, 50, 1.0)" />
	<rect x="110" y="90" width="10" height="10" fill="rgba(178, 57, 52, 1.0)" />
	<rect x="120" y="90" width="10" height="10" fill="rgba(162, 51, 48, 1.0)" />
	<rect x="130" y="90" width="10" height="10" fill="rgba(186, 65, 57, 1.0)" />
	<rect x="140" y="90" width="10" height="10" fill="rgba(162, 50, 50, 1.0)" />
	<rect x="150" y="90" width="10" height="10" fill="rgba(170, 54, 51, 1.0)" />
	<rect x="0" y="100" width="10" height="10" fill="rgba(179, 58, 52, 1.0)" />
	<rect x="10" y="100" width="10" height="10" fill="rgba(167, 52, 51, 1.0)" />
	<rect x="20" y="100" width="10" height="10" fill="rgba(145, 47, 44, 1.0)" />
	<rect x="30" y="100" width="10" height="10" fill="rgba(174, 57, 52, 1.0)" />
	<rect x="40" y="100" width="10" height="10" fill="rgba(163, 54, 47, 1.0)" />
	<rect x="50" y="100" width="10" height="10" fill="rgba(176, 57, 54, 1.0)" />
	<rect x="60" y="100" width="10" height="10" fill="rgba(175, 58, 51, 1.0)" />
	<rect x="70" y="100" width="10" height="10" fill="rgba(172, 55, 51, 1.0)" />
	<rect x="80" y="100" width="10" height="10" fill="rgba(172, 55, 52, 1.0)" />
	<rect x="90" y="100" width="10" height="10" fill="rgba(168, 54, 51, 1.0)" />
	<rect x="100" y="100" width="10" height="10" fill="rgba(206, 87, 80, 1.0)" />
	<rect x="110" y="100" width="10" height="10" fill="rgba(162, 51, 48, 1.0)" />
	<rect x="120" y="100" width="10" height="10" fill="rgba(182, 62, 55, 1.0)" />
	<rect x="130" y="100" width="10" height="10" fill="rgba(191, 63, 57, 1.0)" />
	<rect x="140" y="100" width="10" height="10" fill="rgba(169, 55, 48, 1.0)" />
	<rect x="150" y="100" width="10" height="10" fill="rgba(162, 51, 48, 1.0)" />
	<rect x="0" y="110" width="10" height="10" fill="rgba(154, 48, 47, 1.0)" />
	<rect x="10" y="110" width="10" height="10" fill="rgba(174, 57, 52, 1.0)" />
	<rect x="20" y="110" width="10" height="10" fill="rgba(179, 58, 54, 1.0)" />
	<rect x="30" y="110" width="10" height="10" fill="rgba(161, 51, 48, 1.0)" />
	<rect x="40" y="110" width="10" height="10" fill="rgba(171, 54, 50, 1.0)" />
	<rect x="50" y="110" width="10" height="10" fill="rgba(165, 52, 48, 1.0)" />
	<rect x="60" y="110" width="10" height="10" fill="rgba(161, 50, 48, 1.0)" />
	<rect x="70" y="110" width="10" height="10" fill="rgba(165, 52, 48, 1.0)" />
	<rect x="80" y="110" width="10" height="10" fill="rgba(166, 52, 50, 1.0)" />
	<rect x="90" y="110" width="10" height="10" fill="rgba(171, 55, 50, 1.0)" />
	<rect x="100" y="110" width="10" height="10" fill="rgba(164, 51, 50, 1.0)" />
	<rect x="110" y="110" width="10" height="10" fill="rgba(176, 57, 54, 1.0)" />
	<rect x="120" y="110" width="10" height="10" fill="rgba(165, 54, 48, 1.0)" />
	<rect x="130" y="110" width="10" height="10" fill="rgba(164, 52, 48, 1.0)" />
	<rect x="140" y="110" width="10" height="10" fill="rgba(161, 51, 48, 1.0)" />
	<rect x="150" y="110" width="10" height="10" fill="rgba(149, 47, 47, 1.0)" />
	<rect x="0" y="120" width="10" height="10" fill="rgba(172, 54, 52, 1.0)" />
	<rect x="10" y="120" width="10" height="10" fill="rgba(164, 51, 50, 1.0)" />
	<rect x="20" y="120" width="10" height="10" fill="rgba(169, 55, 48, 1.0)" />
	<rect x="30" y="120" width="10" height="10" fill="rgba(170, 52, 52, 1.0)" />
	<rect x="40" y="120" width="10" height="10" fill="rgba(166, 52, 50, 1.0)" />
	<rect x="50" y="120" width="10" height="10" fill="rgba(163, 52, 48, 1.0)" />
	<rect x="60" y="120" width="10" height="10" fill="rgba(171, 54, 51, 1.0)" />
	<rect x="70" y="120" width="10" height="10" fill="rgba(155, 50, 47, 1.0)" />
	<rect x="80" y="120" width="10" height="10" fill="rgba(158, 50, 47, 1.0)" />
	<rect x="90" y="120" width="10" height="10" fill="rgba(175, 58, 52, 1.0)" />
	<rect x="100" y="120" width="10" height="10" fill="rgba(161, 50, 50, 1.0)" />
	<rect x="110" y="120" width="10" height="10" fill="rgba(158, 50, 48, 1.0)" />
	<rect x="120" y="120" width="10" height="10" fill="rgba(168, 52, 51, 1.0)" />
	<rect x="130" y="120" width="10" height="10" fill="rgba(166, 52, 50, 1.0)" />
	<rect x="140" y="120" width="10" height="10" fill="rgba(157, 50, 47, 1.0)" />
	<rect x="150" y="120" width="10" height="10" fill="rgba(163, 51, 48, 1.0)" />
	<rect x="0" y="130" width="10" height="10" fill="rgba(169, 54, 51, 1.0)" />
	<rect x="10" y="130" width="10" height="10" fill="rgba(174, 57, 52, 1.0)" />
	<rect x="20" y="130" width="10" height="10" fill="rgba(152, 47, 47, 1.0)" />
	<rect x="30" y="130" width="10" height="10" fill="rgba(149, 47, 45, 1.0)" />
	<rect x="40" y="130" width="10" height="10" fill="rgba(156, 48, 47, 1.0)" />
	<rect x="50" y="130" width="10" height="10" fill="rgba(161, 50, 48, 1.0)" />
	<rect x="60" y="130" width="10" height="10" fill="rgba(159, 50, 48, 1.0)" />
	<rect x="70" y="130" width="10" height="10" fill="rgba(189, 63, 57, 1.0)" />
	<rect x="80" y="130" width="10" height="10" fill="rgba(165, 52, 51, 1.0)" />
	<rect x="90" y="130" width="10" height="10" fill="rgba(181, 59, 55, 1.0)" />
	<rect x="100" y="130" width="10" height="10" fill="rgba(185, 62, 55, 1.0)" />
	<rect x="110" y="130" width="10" height="10" fill="rgba(175, 58, 52, 1.0)" />
	<rect x="120" y="130" width="10" height="10" fill="rgba(165, 52, 51, 1.0)" />
	<rect x="130" y="130" width="10" height="10" fill="rgba(182, 63, 55, 1.0)" />
	<rect x="140" y="130" width="10" height="10" fill="rgba(171, 55, 51, 1.0)" />
	<rect x="150" y="130" width="10" height="10" fill="rgba(166, 52, 48, 1.0)" />
	<rect x="0" y="140" width="10" height="10" fill="rgba(162, 51, 50, 1.0)" />
	<rect x="10" y="140" width="10" height="10" fill="rgba(174, 57, 52, 1.0)" />
	<rect x="20" y="140" width="10" height="10" fill="rgba(157, 48, 48, 1.0)" />
	<rect x="30" y="140" width="10" height="10" fill="rgba(159, 51, 48, 1.0)" />
	<rect x="40" y="140" width="10" height="10" fill="rgba(179, 58, 52, 1.0)" />
	<rect x="50" y="140" width="10" height="10" fill="rgba(166, 52, 48, 1.0)" />
	<rect x="60" y="140" width="10" height="10" fill="rgba(166, 52, 50, 1.0)" />
	<rect x="70" y="140" width="10" height="10" fill="rgba(165, 52, 51, 1.0)" />
	<rect x="80" y="140" width="10" height="10" fill="rgba(167, 55, 48, 1.0)" />
	<rect x="90" y="140" width="10" height="10" fill="rgba(185, 63, 57, 1.0)" />
	<rect x="100" y="140" width="10" height="10" fill="rgba(162, 52, 47, 1.0)" />
	<rect x="110" y="140" width="10" height="10" fill="rgba(167, 54, 48, 1.0)" />
	<rect x="120" y="140" width="10" height="10" fill="rgba(178, 58, 52, 1.0)" />
	<rect x="130" y="140" width="10" height="10" fill="rgba(163, 51, 48, 1.0)" />
	<rect x="140" y="140" width="10" height="10" fill="rgba(157, 50, 48, 1.0)" />
	<rect x="150" y="140" width="10" height="10" fill="rgba(169, 54, 51, 1.0)" />
	<rect x="0" y="150" width="10" height="10" fill="rgba(167, 54, 48, 1.0)" />
	<rect x="10" y="150" width="10" height="10" fill="rgba(165, 52, 51, 1.0)" />
	<rect x="20" y="150" width="10" height="10" fill="rgba(163, 51, 48, 1.0)" />
	<rect x="30" y="150" width="10" height="10" fill="rgba(151, 48, 45, 1.0)" />
	<rect x="40" y="150" width="10" height="10" fill="rgba(179, 58, 57, 1.0)" />
	<rect x="50" y="150" width="10" height="10" fill="rgba(183, 62, 55, 1.0)" />
	<rect x="60" y="150" width="10" height="10" fill="rgba(155, 48, 47, 1.0)" />
	<rect x="70" y="150" width="10" height="10" fill="rgba(167, 52, 51, 1.0)" />
	<rect x="80" y="150" width="10" height="10" fill="rgba(164, 51, 50, 1.0)" />
	<rect x="90" y="150" width="10" height="10" fill="rgba(172, 55, 52, 1.0)" />
	<rect x="100" y="150" width="10" height="10" fill="rgba(169, 55, 50, 1.0)" />
	<rect x="110" y="150" width="10" height="10" fill="rgba(159, 50, 50, 1.0)" />
	<rect x="120" y="150" width="10" height="10" fill="rgba(161, 50, 50, 1.0)" />
	<rect x="130" y="150" width="10" height="10" fill="rgba(170, 55, 50, 1.0)" />
	<rect x="140" y="150" width="10" height="10" fill="rgba(171, 57, 50, 1.0)" />
	<rect x="150" y="150" width="10" height="10" fill="rgba(170, 57, 50, 1.0)" />
</svg>