<svg xmlns="http://www.w3.org/2000/svg" xmlns:xlink="http://www.w3.org/1999/xlink">
	<rect x="0" y="0" width="10" height="10" fill="rgba(142, 60, 46, 1.0)" />
	<rect x="10" y="0" width="10" height="10" fill="rgba(141, 59, 46, 1.0)" />
	<rect x="20" y="0" width="10" height="10" fill="rgba(141, 59, 46, 1.0)" />
	<rect x="30" y="0" width="10" height="10" fill="rgba(141, 59, 46, 1.0)" />
	<rect x="40" y="0" width="10" height="10" fill="rgba(142, 59, 46, 1.0)" />
	<rect x="50" y="0" width="10" height="10" fill="rgba(144, 62, 48, 1.0)" />
	<rect x="60" y="0" width="10" height="10" fill="rgba(147, 65, 50, 1.0)" />
	<rect x="70" y="0" width="10" height="10" fill="rgba(146, 64, 49, 1.0)" />
	<rect x="80" y="0" width="10" height="10" fill="rgba(141, 60, 46, 1.0)" />
	<rect x="90" y="0" width="10" height="10" fill="rgba(147, 64, 49, 1.0)" />
	<rect x="100" y="0" width="10" height="10" fill="rgba(146, 64, 49, 1.0)" />
	<rect x="110" y="0" width="10" height="10" fill="rgba(142, 59, 46, 1.0)" />
	<rect x="120" y="0" width="10" height="10" fill="rgba(139, 57, 43, 1.0)" />
	<rect x="130" y="0" width="10" height="10" fill="rgba(139, 57, 43, 1.0)" />
	<rect x="140" y="0" width="10" height="10" fill="rgba(140, 58, 44, 1.0)" />
	<rect x="150" y="0" width="10" height="10" fill="rgba(142, 59, 46, 1.0)" />
	<rect x="0" y="10" width="10" height="10" fill="rgba(142, 60, 46, 1.0)" />
	<rect x="10" y="10" width="10" height="10" fill="rgba(142, 60, 46, 1.0)" />
	<rect x="20" y="10" width="10" height="10" fill="rgba(147, 64, 50, 1.0)" />
	<rect x="30" y="10" width="10" height="10" fill="rgba(148, 64, 51, 1.0)" />
	<rect x="40" y="10" width="10" height="10" fill="rgba(148, 62, 51, 1.0)" />
	<rect x="50" y="10" width="10" height="10" fill="rgba(144, 62, 52, 1.0)" />
	<rect x="60" y="10" width="10" height="10" fill="rgba(141, 61, 46, 1.0)" />
	<rect x="70" y="10" width="10" height="10" fill="rgba(142, 59, 46, 1.0)" />
	<rect x="80" y="10" width="10" height="10" fill="rgba(142, 61, 46, 1.0)" />
	<rect x="90" y="10" width="10" height="10" fill="rgba(144, 62, 46, 1.0)" />
	<rect x="100" y="10" width="10" height="10" fill="rgba(146, 64, 50, 1.0)" />
	<rect x="110" y="10" width="10" height="10" fill="rgba(145, 64, 48, 1.0)" />
	<rect x="120" y="10" width="10" height="10" fill="rgba(140, 58, 45, 1.0)" />
	<rect x="130" y="10" width="10" height="10" fill="rgba(142, 60, 46, 1.0)" />
	<rect x="140" y="10" width="10" height="10" fill="rgba(142, 60, 46, 1.0)" />
	<rect x="150" y="10" width="10" height="10" fill="rgba(141, 59, 46, 1.0)" />
	<rect x="0" y="20" width="10" height="10" fill="rgba(142, 61, 47, 1.0)" />
	<rect x="10" y="20" width="10" height="10" fill="rgba(137, 59, 46, 1.0)" />
	<rect x="20" y="20" width="10" height="10" fill="rgba(141, 61, 46, 1.0)" />
	<rect x="30" y="20" width="10" height="10" fill="rgba(142, 59, 46, 1.0)" />
	<rect x="40" y="20" width="10" height="10" fill="rgba(141, 58, 45, 1.0)" />
	<rect x="50" y="20" width="10" height="10" fill="rgba(139, 58, 45, 1.0)" />
	<rect x="60" y="20" width="10" height="10" fill="rgba(141, 58, 45, 1.0)" />
	<rect x="70" y="20" width="10" height="10" fill="rgba(142, 59, 46, 1.0)" />
	<rect x="80" y="20" width="10" height="10" fill="rgba(146, 63, 48, 1.0)" />
	<rect x="90" y="20" width="10" height="10" fill="rgba(142, 62, 48, 1.0)" />
	<rect x="100" y="20" width="10" height="10" fill="rgba(142, 63, 48, 1.0)" />
	<rect x="110" y="20" width="10" height="10" fill="rgba(142, 62, 48, 1.0)" />
	<rect x="120" y="20" width="10" height="10" fill="rgba(142, 61, 47, 1.0)" />
	<rect x="130" y="20" width="10" height="10" fill="rgba(145, 65, 48, 1.0)" />
	<rect x="140" y="20" width="10" height="10" fill="rgba(145, 62, 46, 1.0)" />
	<rect x="150" y="20" width="10" height="10" fill="rgba(144, 62, 45, 1.0)" />
	<rect x="0" y="30" width="10" height="10" fill="rgba(145, 62, 48, 1.0)" />
	<rect x="10" y="30" width="10" height="10" fill="rgba(146, 64, 49, 1.0)" />
	<rect x="20" y="30" width="10" height="10" fill="rgba(144, 62, 47, 1.0)" />
	<rect x="30" y="30" width="10" height="10" fill="rgba(142, 59, 45, 1.0)" />
	<rect x="40" y="30" width="10" height="10" fill="rgba(139, 58, 45, 1.0)" />
	<rect x="50" y="30" width="10" height="10" fill="rgba(138, 57, 44, 1.0)" />
	<rect x="60" y="30" width="10" height="10" fill="rgba(141, 59, 46, 1.0)" />
	<rect x="70" y="30" width="10" height="10" fill="rgba(147, 61, 47, 1.0)" />
	<rect x="80" y="30" width="10" height="10" fill="rgba(142, 61, 47, 1.0)" />
	<rect x="90" y="30" width="10" height="10" fill="rgba(142, 60, 46, 1.0)" />
	<rect x="100" y="30" width="10" height="10" fill="rgba(142, 60, 46, 1.0)" />
	<rect x="110" y="30" width="10" height="10" fill="rgba(142, 62, 46, 1.0)" />
	<rect x="120" y="30" width="10" height="10" fill="rgba(142, 61, 47, 1.0)" />
	<rect x="130" y="30" width="10" height="10" fill="rgba(142, 61, 47, 1.0)" />
	<rect x="140" y="30" width="10" height="10" fill="rgba(142, 60, 45, 1.0)" />
	<rect x="150" y="30" width="10" height="10" fill="rgba(142, 59, 45, 1.0)" />
	<rect x="0" y="40" width="10" height="10" fill="rgba(144, 62, 47, 1.0)" />
	<rect x="10" y="40" width="10" height="10" fill="rgba(148, 64, 50, 1.0)" />
	<rect x="20" y="40" width="10" height="10" fill="rgba(146, 64, 50, 1.0)" />
	<rect x="30" y="40" width="10" height="10" fill="rgba(146, 63, 48, 1.0)" />
	<rect x="40" y="40" width="10" height="10" fill="rgba(145, 62, 48, 1.0)" />
	<rect x="50" y="40" width="10" height="10" fill="rgba(137, 56, 43, 1.0)" />
	<rect x="60" y="40" width="10" height="10" fill="rgba(140, 58, 44, 1.0)" />
	<rect x="70" y="40" width="10" height="10" fill="rgba(141, 58, 44, 1.0)" />
	<rect x="80" y="40" width="10" height="10" fill="rgba(141, 58, 46, 1.0)" />
	<rect x="90" y="40" width="10" height="10" fill="rgba(141, 59, 46, 1.0)" />
	<rect x="100" y="40" width="10" height="10" fill="rgba(149, 64, 50, 1.0)" />
	<rect x="110" y="40" width="10" height="10" fill="rgba(149, 64, 50, 1.0)" />
	<rect x="120" y="40" width="10" height="10" fill="rgba(144, 61, 46, 1.0)" />
	<rect x="130" y="40" width="10" height="10" fill="rgba(142, 60, 46, 1.0)" />
	<rect x="140" y="40" width="10" height="10" fill="rgba(144, 62, 47, 1.0)" />
	<rect x="150" y="40" width="10" height="10" fill="rgba(142, 59, 46, 1.0)" />
	<rect x="0" y="50" width="10" height="10" fill="rgba(148, 64, 50, 1.0)" />
	<rect x="10" y="50" width="10" height="10" fill="rgba(144, 62, 47, 1.0)" />
	<rect x="20" y="50" width="10" height="10" fill="rgba(145, 63, 48, 1.0)" />
	<rect x="30" y="50" width="10" height="10" fill="rgba(142, 61, 47, 1.0)" />
	<rect x="40" y="50" width="10" height="10" fill="rgba(141, 59, 45, 1.0)" />
	<rect x="50" y="50" width="10" height="10" fill="rgba(144, 61, 46, 1.0)" />
	<rect x="60" y="50" width="10" height="10" fill="rgba(144, 61, 46, 1.0)" />
	<rect x="70" y="50" width="10" height="10" fill="rgba(142, 61, 47, 1.0)" />
	<rect x="80" y="50" width="10" height="10" fill="rgba(142, 61, 47, 1.0)" />
	<rect x="90" y="50" width="10" height="10" fill="rgba(142, 61, 47, 1.0)" />
	<rect x="100" y="50" width="10" height="10" fill="rgba(144, 62, 47, 1.0)" />
	<rect x="110" y="50" width="10" height="10" fill="rgba(145, 62, 48, 1.0)" />
	<rect x="120" y="50" width="10" height="10" fill="rgba(145, 62, 48, 1.0)" />
	<rect x="130" y="50" width="10" height="10" fill="rgba(144, 62, 47, 1.0)" />
	<rect x="140" y="50" width="10" height="10" fill="rgba(142, 60, 46, 1.0)" />
	<rect x="150" y="50" width="10" height="10" fill="rgba(148, 64, 50, 1.0)" />
	<rect x="0" y="60" width="10" height="10" fill="rgba(146, 63, 48, 1.0)" />
	<rect x="10" y="60" width="10" height="10" fill="rgba(145, 64, 48, 1.0)" />
	<rect x="20" y="60" width="10" height="10" fill="rgba(144, 62, 48, 1.0)" />
	<rect x="30" y="60" width="10" height="10" fill="rgba(142, 61, 47, 1.0)" />
	<rect x="40" y="60" width="10" height="10" fill="rgba(142, 59, 46, 1.0)" />
	<rect x="50" y="60" width="10" height="10" fill="rgba(141, 59, 46, 1.0)" />
	<rect x="60" y="60" width="10" height="10" fill="rgba(142, 59, 47, 1.0)" />
	<rect x="70" y="60" width="10" height="10" fill="rgba(148, 61, 50, 1.0)" />
	<rect x="80" y="60" width="10" height="10" fill="rgba(142, 59, 45, 1.0)" />
	<rect x="90" y="60" width="10" height="10" fill="rgba(141, 59, 46, 1.0)" />
	<rect x="100" y="60" width="10" height="10" fill="rgba(142, 60, 46, 1.0)" />
	<rect x="110" y="60" width="10" height="10" fill="rgba(145, 62, 47, 1.0)" />
	<rect x="120" y="60" width="10" height="10" fill="rgba(146, 64, 49, 1.0)" />
	<rect x="130" y="60" width="10" height="10" fill="rgba(146, 64, 48, 1.0)" />
	<rect x="140" y="60" width="10" height="10" fill="rgba(145, 62, 47, 1.0)" />
	<rect x="150" y="60" width="10" height="10" fill="rgba(141, 59, 45, 1.0)" />
	<rect x="0" y="70" width="10" height="10" fill="rgba(145, 63, 50, 1.0)" />
	<rect x="10" y="70" width="10" height="10" fill="rgba(142, 60, 46, 1.0)" />
	<rect x="20" y="70" width="10" height="10" fill="rgba(142, 59, 46, 1.0)" />
	<rect x="30" y="70" width="10" height="10" fill="rgba(141, 59, 46, 1.0)" />
	<rect x="40" y="70" width="10" height="10" fill="rgba(146, 63, 48, 1.0)" />
	<rect x="50" y="70" width="10" height="10" fill="rgba(146, 63, 48, 1.0)" />
	<rect x="60" y="70" width="10" height="10" fill="rgba(141, 59, 46, 1.0)" />
	<rect x="70" y="70" width="10" height="10" fill="rgba(146, 64, 48, 1.0)" />
	<rect x="80" y="70" width="10" height="10" fill="rgba(147, 64, 49, 1.0)" />
	<rect x="90" y="70" width="10" height="10" fill="rgba(142, 61, 47, 1.0)" />
	<rect x="100" y="70" width="10" height="10" fill="rgba(142, 60, 46, 1.0)" />
	<rect x="110" y="70" width="10" height="10" fill="rgba(142, 61, 47, 1.0)" />
	<rect x="120" y="70" width="10" height="10" fill="rgba(142, 61, 47, 1.0)" />
	<rect x="130" y="70" width="10" height="10" fill="rgba(144, 62, 47, 1.0)" />
	<rect x="140" y="70" width="10" height="10" fill="rgba(145, 63, 48, 1.0)" />
	<rect x="150" y="70" width="10" height="10" fill="rgba(145, 63, 48, 1.0)" />
	<rect x="0" y="80" width="10" height="10" fill="rgba(145, 63, 50, 1.0)" />
	<rect x="10" y="80" width="10" height="10" fill="rgba(146, 64, 49, 1.0)" />
	<rect x="20" y="80" width="10" height="10" fill="rgba(144, 64, 48, 1.0)" />
	<rect x="30" y="80" width="10" height="10" fill="rgba(138, 57, 44, 1.0)" />
	<rect x="40" y="80" width="10" height="10" fill="rgba(141, 59, 46, 1.0)" />
	<rect x="50" y="80" width="10" height="10" fill="rgba(141, 58, 45, 1.0)" />
	<rect x="60" y="80" width="10" height="10" fill="rgba(141, 59, 46, 1.0)" />
	<rect x="70" y="80" width="10" height="10" fill="rgba(141, 59, 46, 1.0)" />
	<rect x="80" y="80" width="10" height="10" fill="rgba(142, 60, 46, 1.0)" />
	<rect x="90" y="80" width="10" height="10" fill="rgba(144, 62, 48, 1.0)" />
	<rect x="100" y="80" width="10" height="10" fill="rgba(147, 64, 49, 1.0)" />
	<rect x="110" y="80" width="10" height="10" fill="rgba(146, 64, 48, 1.0)" />
	<rect x="120" y="80" width="10" height="10" fill="rgba(147, 64, 49, 1.0)" />
	<rect x="130" y="80" width="10" height="10" fill="rgba(147, 64, 50, 1.0)" />
	<rect x="140" y="80" width="10" height="10" fill="rgba(148, 65, 52, 1.0)" />
	<rect x="150" y="80" width="10" height="10" fill="rgba(142, 61, 47, 1.0)" />
	<rect x="0" y="90" width="10" height="10" fill="rgba(145, 63, 48, 1.0)" />
	<rect x="10" y="90" width="10" height="10" fill="rgba(142, 61, 47, 1.0)" />
	<rect x="20" y="90" width="10" height="10" fill="rgba(141, 59, 46, 1.0)" />
	<rect x="30" y="90" width="10" height="10" fill="rgba(141, 58, 45, 1.0)" />
	<rect x="40" y="90" width="10" height="10" fill="rgba(141, 58, 45, 1.0)" />
	<rect x="50" y="90" width="10" height="10" fill="rgba(141, 59, 46, 1.0)" />
	<rect x="60" y="90" width="10" height="10" fill="rgba(141, 59, 46, 1.0)" />
	<rect x="70" y="90" width="10" height="10" fill="rgba(141, 59, 46, 1.0)" />
	<rect x="80" y="90" width="10" height="10" fill="rgba(142, 61, 47, 1.0)" />
	<rect x="90" y="90" width="10" height="10" fill="rgba(142, 61, 46, 1.0)" />
	<rect x="100" y="90" width="10" height="10" fill="rgba(141, 59, 46, 1.0)" />
	<rect x="110" y="90" width="10" height="10" fill="rgba(141, 59, 46, 1.0)" />
	<rect x="120" y="90" width="10" height="10" fill="rgba(142, 63, 48, 1.0)" />
	<rect x="130" y="90" width="10" height="10" fill="rgba(142, 63, 48, 1.0)" />
	<rect x="140" y="90" width="10" height="10" fill="rgba(149, 66, 50, 1.0)" />
	<rect x="150" y="90" width="10" height="10" fill="rgba(146, 64, 51, 1.0)" />
	<rect x="0" y="100" width="10" height="10" fill="rgba(142, 60, 45, 1.0)" />
	<rect x="10" y="100" width="10" height="10" fill="rgba(144, 61, 46, 1.0)" />
	<rect x="20" y="100" width="10" height="10" fill="rgba(142, 61, 47, 1.0)" />
	<rect x="30" y="100" width="10" height="10" fill="rgba(141, 58, 45, 1.0)" />
	<rect x="40" y="100" width="10" height="10" fill="rgba(141, 58, 46, 1.0)" />
	<rect x="50" y="100" width="10" height="10" fill="rgba(149, 64, 50, 1.0)" />
	<rect x="60" y="100" width="10" height="10" fill="rgba(150, 65, 51, 1.0)" />
	<rect x="70" y="100" width="10" height="10" fill="rgba(141, 58, 43, 1.0)" />
	<rect x="80" y="100" width="10" height="10" fill="rgba(142, 62, 48, 1.0)" />
	<rect x="90" y="100" width="10" height="10" fill="rgba(145, 62, 48, 1.0)" />
	<rect x="100" y="100" width="10" height="10" fill="rgba(148, 65, 50, 1.0)" />
	<rect x="110" y="100" width="10" height="10" fill="rgba(147, 64, 50, 1.0)" />
	<rect x="120" y="100" width="10" height="10" fill="rgba(144, 61, 46, 1.0)" />
	<rect x="130" y="100" width="10" height="10" fill="rgba(142, 62, 46, 1.0)" />
	<rect x="140" y="100" width="10" height="10" fill="rgba(142, 60, 46, 1.0)" />
	<rect x="150" y="100" width="10" height="10" fill="rgba(141, 59, 46, 1.0)" />
	<rect x="0" y="110" width="10" height="10" fill="rgba(141, 58, 46, 1.0)" />
	<rect x="10" y="110" width="10" height="10" fill="rgba(142, 60, 46, 1.0)" />
	<rect x="20" y="110" width="10" height="10" fill="rgba(144, 61, 46, 1.0)" />
	<rect x="30" y="110" width="10" height="10" fill="rgba(141, 59, 46, 1.0)" />
	<rect x="40" y="110" width="10" height="10" fill="rgba(141, 59, 46, 1.0)" />
	<rect x="50" y="110" width="10" height="10" fill="rgba(144, 61, 46, 1.0)" />
	<rect x="60" y="110" width="10" height="10" fill="rgba(142, 62, 48, 1.0)" />
	<rect x="70" y="110" width="10" height="10" fill="rgba(142, 60, 47, 1.0)" />
	<rect x="80" y="110" width="10" height="10" fill="rgba(147, 64, 49, 1.0)" />
	<rect x="90" y="110" width="10" height="10" fill="rgba(148, 65, 50, 1.0)" />
	<rect x="100" y="110" width="10" height="10" fill="rgba(145, 63, 48, 1.0)" />
	<rect x="110" y="110" width="10" height="10" fill="rgba(145, 62, 48, 1.0)" />
	<rect x="120" y="110" width="10" height="10" fill="rgba(145, 62, 48, 1.0)" />
	<rect x="130" y="110" width="10" height="10" fill="rgba(146, 64, 48, 1.0)" />
	<rect x="140" y="110" width="10" height="10" fill="rgba(146, 64, 49, 1.0)" />
	<rect x="150" y="110" width="10" height="10" fill="rgba(142, 61, 47, 1.0)" />
	<rect x="0" y="120" width="10" height="10" fill="rgba(141, 58, 46, 1.0)" />
	<rect x="10" y="120" width="10" height="10" fill="rgba(141, 59, 46, 1.0)" />
	<rect x="20" y="120" width="10" height="10" fill="rgba(142, 60, 46, 1.0)" />
	<rect x="30" y="120" width="10" height="10" fill="rgba(142, 60, 46, 1.0)" />
	<rect x="40" y="120" width="10" height="10" fill="rgba(142, 61, 46, 1.0)" />
	<rect x="50" y="120" width="10" height="10" fill="rgba(142, 59, 45, 1.0)" />
	<rect x="60" y="120" width="10" height="10" fill="rgba(141, 59, 46, 1.0)" />
	<rect x="70" y="120" width="10" height="10" fill="rgba(141, 59, 46, 1.0)" />
	<rect x="80" y="120" width="10" height="10" fill="rgba(149, 66, 53, 1.0)" />
	<rect x="90" y="120" width="10" height="10" fill="rgba(150, 63, 48, 1.0)" />
	<rect x="100" y="120" width="10" height="10" fill="rgba(142, 59, 46, 1.0)" />
	<rect x="110" y="120" width="10" height="10" fill="rgba(140, 58, 45, 1.0)" />
	<rect x="120" y="120" width="10" height="10" fill="rgba(141, 59, 45, 1.0)" />
	<rect x="130" y="120" width="10" height="10" fill="rgba(142, 62, 46, 1.0)" />
	<rect x="140" y="120" width="10" height="10" fill="rgba(142, 61, 47, 1.0)" />
	<rect x="150" y="120" width="10" height="10" fill="rgba(144, 62, 47, 1.0)" />
	<rect x="0" y="130" width="10" height="10" fill="rgba(142, 62, 48, 1.0)" />
	<rect x="10" y="130" width="10" height="10" fill="rgba(144, 63, 47, 1.0)" />
	<rect x="20" y="130" width="10" height="10" fill="rgba(144, 63, 47, 1.0)" />
	<rect x="30" y="130" width="10" height="10" fill="rgba(146, 64, 49, 1.0)" />
	<rect x="40" y="130" width="10" height="10" fill="rgba(142, 62, 47, 1.0)" />
	<rect x="50" y="130" width="10" height="10" fill="rgba(145, 66, 51, 1.0)" />
	<rect x="60" y="130" width="10" height="10" fill="rgba(142, 60, 45, 1.0)" />
	<rect x="70" y="130" width="10" height="10" fill="rgba(141, 58, 45, 1.0)" />
	<rect x="80" y="130" width="10" height="10" fill="rgba(142, 59, 46, 1.0)" />
	<rect x="90" y="130" width="10" height="10" fill="rgba(142, 59, 45, 1.0)" />
	<rect x="100" y="130" width="10" height="10" fill="rgba(136, 59, 42, 1.0)" />
	<rect x="110" y="130" width="10" height="10" fill="rgba(141, 59, 46, 1.0)" />
	<rect x="120" y="130" width="10" height="10" fill="rgba(142, 59, 45, 1.0)" />
	<rect x="130" y="130" width="10" height="10" fill="rgba(144, 61, 46, 1.0)" />
	<rect x="140" y="130" width="10" height="10" fill="rgba(146, 66, 48, 1.0)" />
	<rect x="150" y="130" width="10" height="10" fill="rgba(148, 64, 50, 1.0)" />
	<rect x="0" y="140" width="10" height="10" fill="rgba(142, 61, 47, 1.0)" />
	<rect x="10" y="140" width="10" height="10" fill="rgba(142, 62, 47, 1.0)" />
	<rect x="20" y="140" width="10" height="10" fill="rgba(142, 61, 47, 1.0)" />
	<rect x="30" y="140" width="10" height="10" fill="rgba(144, 56, 42, 1.0)" />
	<rect x="40" y="140" width="10" height="10" fill="rgba(139, 57, 43, 1.0)" />
	<rect x="50" y="140" width="10" height="10" fill="rgba(142, 60, 46, 1.0)" />
	<rect x="60" y="140" width="10" height="10" fill="rgba(142, 59, 45, 1.0)" />
	<rect x="70" y="140" width="10" height="10" fill="rgba(141, 59, 46, 1.0)" />
	<rect x="80" y="140" width="10" height="10" fill="rgba(142, 60, 46, 1.0)" />
	<rect x="90" y="140" width="10" height="10" fill="rgba(142, 61, 47, 1.0)" />
	<rect x="100" y="140" width="10" height="10" fill="rgba(145, 62, 48, 1.0)" />
	<rect x="110" y="140" width="10" height="10" fill="rgba(145, 62, 47, 1.0)" />
	<rect x="120" y="140" width="10" height="10" fill="rgba(142, 60, 46, 1.0)" />
	<rect x="130" y="140" width="10" height="10" fill="rgba(141, 59, 45, 1.0)" />
	<rect x="140" y="140" width="10" height="10" fill="rgba(142, 59, 45, 1.0)" />
	<rect x="150" y="140" width="10" height="10" fill="rgba(146, 63, 48, 1.0)" />
	<rect x="0" y="150" width="10" height="10" fill="rgba(142, 61, 47, 1.0)" />
	<rect x="10" y="150" width="10" height="10" fill="rgba(142, 62, 48, 1.0)" />
	<rect x="20" y="150" width="10" height="10" fill="rgba(142, 62, 48, 1.0)" />
	<rect x="30" y="150" width="10" height="10" fill="rgba(142, 62, 47, 1.0)" />
	<rect x="40" y="150" width="10" height="10" fill="rgba(142, 62, 47, 1.0)" />
	<rect x="50" y="150" width="10" height="10" fill="rgba(145, 63, 48, 1.0)" />
	<rect x="60" y="150" width="10" height="10" fill="rgba(148, 64, 50, 1.0)" />
	<rect x="70" y="150" width="10" height="10" fill="rgba(144, 62, 48, 1.0)" />
	<rect x="80" y="150" width="10" height="10" fill="rgba(142, 62, 47, 1.0)" />
	<rect x="90" y="150" width="10" height="10" fill="rgba(144, 62, 48, 1.0)" />
	<rect x="100" y="150" width="10" height="10" fill="rgba(144, 62, 47, 1.0)" />
	<rect x="110" y="150" width="10" height="10" fill="rgba(142, 59, 45, 1.0)" />
	<rect x="120" y="150" width="10" height="10" fill="rgba(141, 58, 44, 1.0)" />
	<rect x="130" y="150" width="10" height="10" fill="rgba(140, 58, 44, 1.0)" />
	<rect x="140" y="150" width="10" height="10" fill="rgba(142, 60, 46, 1.0)" />
	<rect x="150" y="150" width="10" height="10" fill="rgba(142, 62, 48, 1.0)" />
</svg>