<svg xmlns="http://www.w3.org/2000/svg" xmlns:xlink="http://www.w3.org/1999/xlink">
	<rect x="0" y="0" width="10" height="10" fill="rgba(150, 88, 55, 1.0)" />
	<rect x="10" y="0" width="10" height="10" fill="rgba(177, 93, 59, 1.0)" />
	<rect x="20" y="0" width="10" height="10" fill="rgba(178, 95, 61, 1.0)" />
	<rect x="30" y="0" width="10" height="10" fill="rgba(176, 91, 59, 1.0)" />
	<rect x="40" y="0" width="10" height="10" fill="rgba(178, 91, 59, 1.0)" />
	<rect x="50" y="0" width="10" height="10" fill="rgba(169, 88, 58, 1.0)" />
	<rect x="60" y="0" width="10" height="10" fill="rgba(181, 96, 62, 1.0)" />
	<rect x="70" y="0" width="10" height="10" fill="rgba(178, 91, 59, 1.0)" />
	<rect x="80" y="0" width="10" height="10" fill="rgba(169, 88, 58, 1.0)" />
	<rect x="90" y="0" width="10" height="10" fill="rgba(187, 95, 62, 1.0)" />
	<rect x="100" y="0" width="10" height="10" fill="rgba(187, 95, 62, 1.0)" />
	<rect x="110" y="0" width="10" height="10" fill="rgba(181, 97, 62, 1.0)" />
	<rect x="120" y="0" width="10" height="10" fill="rgba(173, 94, 59, 1.0)" />
	<rect x="130" y="0" width="10" height="10" fill="rgba(184, 96, 62, 1.0)" />
	<rect x="140" y="0" width="10" height="10" fill="rgba(169, 90, 58, 1.0)" />
	<rect x="150" y="0" width="10" height="10" fill="rgba(150, 88, 55, 1.0)" />
	<rect x="0" y="10" width="10" height="10" fill="rgba(157, 88, 55, 1.0)" />
	<rect x="10" y="10" width="10" height="10" fill="rgba(170, 92, 58, 1.0)" />
	<rect x="20" y="10" width="10" height="10" fill="rgba(175, 94, 60, 1.0)" />
	<rect x="30" y="10" width="10" height="10" fill="rgba(178, 95, 61, 1.0)" />
	<rect x="40" y="10" width="10" height="10" fill="rgba(172, 96, 63, 1.0)" />
	<rect x="50" y="10" width="10" height="10" fill="rgba(169, 88, 58, 1.0)" />
	<rect x="60" y="10" width="10" height="10" fill="rgba(181, 96, 62, 1.0)" />
	<rect x="70" y="10" width="10" height="10" fill="rgba(178, 91, 59, 1.0)" />
	<rect x="80" y="10" width="10" height="10" fill="rgba(180, 97, 63, 1.0)" />
	<rect x="90" y="10" width="10" height="10" fill="rgba(187, 95, 62, 1.0)" />
	<rect x="100" y="10" width="10" height="10" fill="rgba(187, 95, 62, 1.0)" />
	<rect x="110" y="10" width="10" height="10" fill="rgba(181, 97, 62, 1.0)" />
	<rect x="120" y="10" width="10" height="10" fill="rgba(156, 91, 58, 1.0)" />
	<rect x="130" y="10" width="10" height="10" fill="rgba(178, 93, 60, 1.0)" />
	<rect x="140" y="10" width="10" height="10" fill="rgba(169, 90, 58, 1.0)" />
	<rect x="150" y="10" width="10" height="10" fill="rgba(159, 88, 55, 1.0)" />
	<rect x="0" y="20" width="10" height="10" fill="rgba(157, 88, 55, 1.0)" />
	<rect x="10" y="20" width="10" height="10" fill="rgba(166, 91, 58, 1.0)" />
	<rect x="20" y="20" width="10" height="10" fill="rgba(184, 96, 62, 1.0)" />
	<rect x="30" y="20" width="10" height="10" fill="rgba(196, 99, 64, 1.0)" />
	<rect x="40" y="20" width="10" height="10" fill="rgba(172, 96, 63, 1.0)" />
	<rect x="50" y="20" width="10" height="10" fill="rgba(169, 88, 58, 1.0)" />
	<rect x="60" y="20" width="10" height="10" fill="rgba(181, 96, 62, 1.0)" />
	<rect x="70" y="20" width="10" height="10" fill="rgba(164, 89, 57, 1.0)" />
	<rect x="80" y="20" width="10" height="10" fill="rgba(180, 97, 63, 1.0)" />
	<rect x="90" y="20" width="10" height="10" fill="rgba(187, 95, 62, 1.0)" />
	<rect x="100" y="20" width="10" height="10" fill="rgba(187, 95, 62, 1.0)" />
	<rect x="110" y="20" width="10" height="10" fill="rgba(178, 91, 59, 1.0)" />
	<rect x="120" y="20" width="10" height="10" fill="rgba(162, 92, 58, 1.0)" />
	<rect x="130" y="20" width="10" height="10" fill="rgba(178, 93, 60, 1.0)" />
	<rect x="140" y="20" width="10" height="10" fill="rgba(169, 90, 58, 1.0)" />
	<rect x="150" y="20" width="10" height="10" fill="rgba(159, 88, 55, 1.0)" />
	<rect x="0" y="30" width="10" height="10" fill="rgba(157, 88, 55, 1.0)" />
	<rect x="10" y="30" width="10" height="10" fill="rgba(166, 91, 58, 1.0)" />
	<rect x="20" y="30" width="10" height="10" fill="rgba(175, 95, 61, 1.0)" />
	<rect x="30" y="30" width="10" height="10" fill="rgba(196, 99, 64, 1.0)" />
	<rect x="40" y="30" width="10" height="10" fill="rgba(172, 96, 63, 1.0)" />
	<rect x="50" y="30" width="10" height="10" fill="rgba(189, 96, 62, 1.0)" />
	<rect x="60" y="30" width="10" height="10" fill="rgba(181, 96, 62, 1.0)" />
	<rect x="70" y="30" width="10" height="10" fill="rgba(164, 89, 57, 1.0)" />
	<rect x="80" y="30" width="10" height="10" fill="rgba(180, 97, 63, 1.0)" />
	<rect x="90" y="30" width="10" height="10" fill="rgba(169, 88, 58, 1.0)" />
	<rect x="100" y="30" width="10" height="10" fill="rgba(180, 97, 63, 1.0)" />
	<rect x="110" y="30" width="10" height="10" fill="rgba(169, 93, 59, 1.0)" />
	<rect x="120" y="30" width="10" height="10" fill="rgba(162, 92, 58, 1.0)" />
	<rect x="130" y="30" width="10" height="10" fill="rgba(162, 92, 58, 1.0)" />
	<rect x="140" y="30" width="10" height="10" fill="rgba(169, 90, 58, 1.0)" />
	<rect x="150" y="30" width="10" height="10" fill="rgba(166, 89, 55, 1.0)" />
	<rect x="0" y="40" width="10" height="10" fill="rgba(159, 89, 56, 1.0)" />
	<rect x="10" y="40" width="10" height="10" fill="rgba(178, 93, 60, 1.0)" />
	<rect x="20" y="40" width="10" height="10" fill="rgba(175, 95, 61, 1.0)" />
	<rect x="30" y="40" width="10" height="10" fill="rgba(184, 97, 63, 1.0)" />
	<rect x="40" y="40" width="10" height="10" fill="rgba(172, 96, 63, 1.0)" />
	<rect x="50" y="40" width="10" height="10" fill="rgba(189, 96, 62, 1.0)" />
	<rect x="60" y="40" width="10" height="10" fill="rgba(185, 97, 63, 1.0)" />
	<rect x="70" y="40" width="10" height="10" fill="rgba(168, 91, 58, 1.0)" />
	<rect x="80" y="40" width="10" height="10" fill="rgba(178, 91, 59, 1.0)" />
	<rect x="90" y="40" width="10" height="10" fill="rgba(178, 91, 59, 1.0)" />
	<rect x="100" y="40" width="10" height="10" fill="rgba(180, 97, 63, 1.0)" />
	<rect x="110" y="40" width="10" height="10" fill="rgba(178, 91, 59, 1.0)" />
	<rect x="120" y="40" width="10" height="10" fill="rgba(162, 92, 58, 1.0)" />
	<rect x="130" y="40" width="10" height="10" fill="rgba(162, 92, 58, 1.0)" />
	<rect x="140" y="40" width="10" height="10" fill="rgba(166, 94, 61, 1.0)" />
	<rect x="150" y="40" width="10" height="10" fill="rgba(150, 88, 55, 1.0)" />
	<rect x="0" y="50" width="10" height="10" fill="rgba(169, 90, 58, 1.0)" />
	<rect x="10" y="50" width="10" height="10" fill="rgba(178, 93, 60, 1.0)" />
	<rect x="20" y="50" width="10" height="10" fill="rgba(166, 91, 58, 1.0)" />
	<rect x="30" y="50" width="10" height="10" fill="rgba(181, 96, 62, 1.0)" />
	<rect x="40" y="50" width="10" height="10" fill="rgba(168, 91, 60, 1.0)" />
	<rect x="50" y="50" width="10" height="10" fill="rgba(192, 99, 64, 1.0)" />
	<rect x="60" y="50" width="10" height="10" fill="rgba(189, 96, 62, 1.0)" />
	<rect x="70" y="50" width="10" height="10" fill="rgba(178, 91, 59, 1.0)" />
	<rect x="80" y="50" width="10" height="10" fill="rgba(178, 91, 59, 1.0)" />
	<rect x="90" y="50" width="10" height="10" fill="rgba(187, 95, 62, 1.0)" />
	<rect x="100" y="50" width="10" height="10" fill="rgba(180, 97, 63, 1.0)" />
	<rect x="110" y="50" width="10" height="10" fill="rgba(178, 91, 59, 1.0)" />
	<rect x="120" y="50" width="10" height="10" fill="rgba(172, 95, 61, 1.0)" />
	<rect x="130" y="50" width="10" height="10" fill="rgba(172, 95, 61, 1.0)" />
	<rect x="140" y="50" width="10" height="10" fill="rgba(166, 91, 58, 1.0)" />
	<rect x="150" y="50" width="10" height="10" fill="rgba(150, 88, 55, 1.0)" />
	<rect x="0" y="60" width="10" height="10" fill="rgba(155, 89, 55, 1.0)" />
	<rect x="10" y="60" width="10" height="10" fill="rgba(178, 93, 60, 1.0)" />
	<rect x="20" y="60" width="10" height="10" fill="rgba(166, 91, 58, 1.0)" />
	<rect x="30" y="60" width="10" height="10" fill="rgba(181, 96, 62, 1.0)" />
	<rect x="40" y="60" width="10" height="10" fill="rgba(181, 96, 62, 1.0)" />
	<rect x="50" y="60" width="10" height="10" fill="rgba(194, 99, 64, 1.0)" />
	<rect x="60" y="60" width="10" height="10" fill="rgba(196, 99, 64, 1.0)" />
	<rect x="70" y="60" width="10" height="10" fill="rgba(178, 91, 59, 1.0)" />
	<rect x="80" y="60" width="10" height="10" fill="rgba(187, 95, 62, 1.0)" />
	<rect x="90" y="60" width="10" height="10" fill="rgba(178, 91, 59, 1.0)" />
	<rect x="100" y="60" width="10" height="10" fill="rgba(178, 91, 59, 1.0)" />
	<rect x="110" y="60" width="10" height="10" fill="rgba(178, 91, 59, 1.0)" />
	<rect x="120" y="60" width="10" height="10" fill="rgba(178, 95, 62, 1.0)" />
	<rect x="130" y="60" width="10" height="10" fill="rgba(169, 90, 58, 1.0)" />
	<rect x="140" y="60" width="10" height="10" fill="rgba(164, 88, 57, 1.0)" />
	<rect x="150" y="60" width="10" height="10" fill="rgba(172, 92, 59, 1.0)" />
	<rect x="0" y="70" width="10" height="10" fill="rgba(150, 88, 55, 1.0)" />
	<rect x="10" y="70" width="10" height="10" fill="rgba(166, 91, 58, 1.0)" />
	<rect x="20" y="70" width="10" height="10" fill="rgba(162, 90, 57, 1.0)" />
	<rect x="30" y="70" width="10" height="10" fill="rgba(173, 94, 60, 1.0)" />
	<rect x="40" y="70" width="10" height="10" fill="rgba(181, 96, 62, 1.0)" />
	<rect x="50" y="70" width="10" height="10" fill="rgba(178, 91, 59, 1.0)" />
	<rect x="60" y="70" width="10" height="10" fill="rgba(196, 99, 64, 1.0)" />
	<rect x="70" y="70" width="10" height="10" fill="rgba(178, 91, 59, 1.0)" />
	<rect x="80" y="70" width="10" height="10" fill="rgba(187, 95, 62, 1.0)" />
	<rect x="90" y="70" width="10" height="10" fill="rgba(178, 91, 59, 1.0)" />
	<rect x="100" y="70" width="10" height="10" fill="rgba(189, 98, 63, 1.0)" />
	<rect x="110" y="70" width="10" height="10" fill="rgba(178, 91, 59, 1.0)" />
	<rect x="120" y="70" width="10" height="10" fill="rgba(179, 95, 61, 1.0)" />
	<rect x="130" y="70" width="10" height="10" fill="rgba(179, 95, 61, 1.0)" />
	<rect x="140" y="70" width="10" height="10" fill="rgba(164, 88, 56, 1.0)" />
	<rect x="150" y="70" width="10" height="10" fill="rgba(150, 88, 55, 1.0)" />
	<rect x="0" y="80" width="10" height="10" fill="rgba(159, 89, 56, 1.0)" />
	<rect x="10" y="80" width="10" height="10" fill="rgba(166, 91, 58, 1.0)" />
	<rect x="20" y="80" width="10" height="10" fill="rgba(178, 93, 60, 1.0)" />
	<rect x="30" y="80" width="10" height="10" fill="rgba(181, 96, 62, 1.0)" />
	<rect x="40" y="80" width="10" height="10" fill="rgba(181, 96, 62, 1.0)" />
	<rect x="50" y="80" width="10" height="10" fill="rgba(178, 91, 59, 1.0)" />
	<rect x="60" y="80" width="10" height="10" fill="rgba(178, 91, 59, 1.0)" />
	<rect x="70" y="80" width="10" height="10" fill="rgba(181, 96, 62, 1.0)" />
	<rect x="80" y="80" width="10" height="10" fill="rgba(178, 91, 59, 1.0)" />
	<rect x="90" y="80" width="10" height="10" fill="rgba(178, 91, 59, 1.0)" />
	<rect x="100" y="80" width="10" height="10" fill="rgba(189, 98, 63, 1.0)" />
	<rect x="110" y="80" width="10" height="10" fill="rgba(189, 98, 63, 1.0)" />
	<rect x="120" y="80" width="10" height="10" fill="rgba(179, 95, 61, 1.0)" />
	<rect x="130" y="80" width="10" height="10" fill="rgba(179, 95, 61, 1.0)" />
	<rect x="140" y="80" width="10" height="10" fill="rgba(162, 89, 55, 1.0)" />
	<rect x="150" y="80" width="10" height="10" fill="rgba(150, 88, 55, 1.0)" />
	<rect x="0" y="90" width="10" height="10" fill="rgba(166, 91, 58, 1.0)" />
	<rect x="10" y="90" width="10" height="10" fill="rgba(166, 91, 58, 1.0)" />
	<rect x="20" y="90" width="10" height="10" fill="rgba(178, 93, 60, 1.0)" />
	<rect x="30" y="90" width="10" height="10" fill="rgba(189, 96, 63, 1.0)" />
	<rect x="40" y="90" width="10" height="10" fill="rgba(181, 96, 62, 1.0)" />
	<rect x="50" y="90" width="10" height="10" fill="rgba(178, 91, 59, 1.0)" />
	<rect x="60" y="90" width="10" height="10" fill="rgba(181, 96, 62, 1.0)" />
	<rect x="70" y="90" width="10" height="10" fill="rgba(181, 96, 62, 1.0)" />
	<rect x="80" y="90" width="10" height="10" fill="rgba(178, 91, 59, 1.0)" />
	<rect x="90" y="90" width="10" height="10" fill="rgba(178, 91, 59, 1.0)" />
	<rect x="100" y="90" width="10" height="10" fill="rgba(196, 99, 64, 1.0)" />
	<rect x="110" y="90" width="10" height="10" fill="rgba(178, 91, 59, 1.0)" />
	<rect x="120" y="90" width="10" height="10" fill="rgba(184, 96, 62, 1.0)" />
	<rect x="130" y="90" width="10" height="10" fill="rgba(179, 95, 61, 1.0)" />
	<rect x="140" y="90" width="10" height="10" fill="rgba(166, 91, 58, 1.0)" />
	<rect x="150" y="90" width="10" height="10" fill="rgba(150, 88, 55, 1.0)" />
	<rect x="0" y="100" width="10" height="10" fill="rgba(150, 88, 55, 1.0)" />
	<rect x="10" y="100" width="10" height="10" fill="rgba(166, 91, 58, 1.0)" />
	<rect x="20" y="100" width="10" height="10" fill="rgba(170, 92, 59, 1.0)" />
	<rect x="30" y="100" width="10" height="10" fill="rgba(187, 96, 63, 1.0)" />
	<rect x="40" y="100" width="10" height="10" fill="rgba(189, 96, 63, 1.0)" />
	<rect x="50" y="100" width="10" height="10" fill="rgba(184, 95, 62, 1.0)" />
	<rect x="60" y="100" width="10" height="10" fill="rgba(181, 96, 62, 1.0)" />
	<rect x="70" y="100" width="10" height="10" fill="rgba(181, 96, 62, 1.0)" />
	<rect x="80" y="100" width="10" height="10" fill="rgba(178, 91, 59, 1.0)" />
	<rect x="90" y="100" width="10" height="10" fill="rgba(178, 91, 59, 1.0)" />
	<rect x="100" y="100" width="10" height="10" fill="rgba(196, 99, 64, 1.0)" />
	<rect x="110" y="100" width="10" height="10" fill="rgba(178, 91, 59, 1.0)" />
	<rect x="120" y="100" width="10" height="10" fill="rgba(184, 96, 62, 1.0)" />
	<rect x="130" y="100" width="10" height="10" fill="rgba(184, 96, 62, 1.0)" />
	<rect x="140" y="100" width="10" height="10" fill="rgba(166, 94, 61, 1.0)" />
	<rect x="150" y="100" width="10" height="10" fill="rgba(159, 88, 55, 1.0)" />
	<rect x="0" y="110" width="10" height="10" fill="rgba(150, 88, 55, 1.0)" />
	<rect x="10" y="110" width="10" height="10" fill="rgba(166, 91, 58, 1.0)" />
	<rect x="20" y="110" width="10" height="10" fill="rgba(170, 92, 59, 1.0)" />
	<rect x="30" y="110" width="10" height="10" fill="rgba(196, 99, 64, 1.0)" />
	<rect x="40" y="110" width="10" height="10" fill="rgba(187, 96, 63, 1.0)" />
	<rect x="50" y="110" width="10" height="10" fill="rgba(177, 93, 60, 1.0)" />
	<rect x="60" y="110" width="10" height="10" fill="rgba(181, 96, 62, 1.0)" />
	<rect x="70" y="110" width="10" height="10" fill="rgba(181, 96, 62, 1.0)" />
	<rect x="80" y="110" width="10" height="10" fill="rgba(178, 91, 59, 1.0)" />
	<rect x="90" y="110" width="10" height="10" fill="rgba(189, 98, 63, 1.0)" />
	<rect x="100" y="110" width="10" height="10" fill="rgba(169, 93, 59, 1.0)" />
	<rect x="110" y="110" width="10" height="10" fill="rgba(178, 91, 59, 1.0)" />
	<rect x="120" y="110" width="10" height="10" fill="rgba(178, 93, 60, 1.0)" />
	<rect x="130" y="110" width="10" height="10" fill="rgba(184, 96, 62, 1.0)" />
	<rect x="140" y="110" width="10" height="10" fill="rgba(166, 94, 61, 1.0)" />
	<rect x="150" y="110" width="10" height="10" fill="rgba(159, 88, 55, 1.0)" />
	<rect x="0" y="120" width="10" height="10" fill="rgba(159, 89, 56, 1.0)" />
	<rect x="10" y="120" width="10" height="10" fill="rgba(170, 92, 59, 1.0)" />
	<rect x="20" y="120" width="10" height="10" fill="rgba(175, 92, 59, 1.0)" />
	<rect x="30" y="120" width="10" height="10" fill="rgba(196, 99, 64, 1.0)" />
	<rect x="40" y="120" width="10" height="10" fill="rgba(196, 99, 64, 1.0)" />
	<rect x="50" y="120" width="10" height="10" fill="rgba(177, 93, 60, 1.0)" />
	<rect x="60" y="120" width="10" height="10" fill="rgba(181, 96, 62, 1.0)" />
	<rect x="70" y="120" width="10" height="10" fill="rgba(177, 93, 60, 1.0)" />
	<rect x="80" y="120" width="10" height="10" fill="rgba(187, 95, 62, 1.0)" />
	<rect x="90" y="120" width="10" height="10" fill="rgba(189, 98, 63, 1.0)" />
	<rect x="100" y="120" width="10" height="10" fill="rgba(186, 96, 63, 1.0)" />
	<rect x="110" y="120" width="10" height="10" fill="rgba(177, 93, 60, 1.0)" />
	<rect x="120" y="120" width="10" height="10" fill="rgba(178, 93, 60, 1.0)" />
	<rect x="130" y="120" width="10" height="10" fill="rgba(171, 90, 59, 1.0)" />
	<rect x="140" y="120" width="10" height="10" fill="rgba(150, 88, 55, 1.0)" />
	<rect x="150" y="120" width="10" height="10" fill="rgba(159, 88, 55, 1.0)" />
	<rect x="0" y="130" width="10" height="10" fill="rgba(157, 89, 55, 1.0)" />
	<rect x="10" y="130" width="10" height="10" fill="rgba(160, 89, 56, 1.0)" />
	<rect x="20" y="130" width="10" height="10" fill="rgba(175, 92, 59, 1.0)" />
	<rect x="30" y="130" width="10" height="10" fill="rgba(176, 91, 59, 1.0)" />
	<rect x="40" y="130" width="10" height="10" fill="rgba(196, 99, 64, 1.0)" />
	<rect x="50" y="130" width="10" height="10" fill="rgba(184, 95, 62, 1.0)" />
	<rect x="60" y="130" width="10" height="10" fill="rgba(172, 96, 63, 1.0)" />
	<rect x="70" y="130" width="10" height="10" fill="rgba(161, 89, 57, 1.0)" />
	<rect x="80" y="130" width="10" height="10" fill="rgba(187, 95, 62, 1.0)" />
	<rect x="90" y="130" width="10" height="10" fill="rgba(196, 99, 64, 1.0)" />
	<rect x="100" y="130" width="10" height="10" fill="rgba(186, 96, 63, 1.0)" />
	<rect x="110" y="130" width="10" height="10" fill="rgba(181, 97, 62, 1.0)" />
	<rect x="120" y="130" width="10" height="10" fill="rgba(169, 91, 59, 1.0)" />
	<rect x="130" y="130" width="10" height="10" fill="rgba(171, 90, 59, 1.0)" />
	<rect x="140" y="130" width="10" height="10" fill="rgba(157, 88, 55, 1.0)" />
	<rect x="150" y="130" width="10" height="10" fill="rgba(159, 88, 55, 1.0)" />
	<rect x="0" y="140" width="10" height="10" fill="rgba(160, 88, 56, 1.0)" />
	<rect x="10" y="140" width="10" height="10" fill="rgba(150, 88, 55, 1.0)" />
	<rect x="20" y="140" width="10" height="10" fill="rgba(174, 93, 60, 1.0)" />
	<rect x="30" y="140" width="10" height="10" fill="rgba(176, 91, 59, 1.0)" />
	<rect x="40" y="140" width="10" height="10" fill="rgba(176, 91, 59, 1.0)" />
	<rect x="50" y="140" width="10" height="10" fill="rgba(184, 95, 62, 1.0)" />
	<rect x="60" y="140" width="10" height="10" fill="rgba(172, 96, 63, 1.0)" />
	<rect x="70" y="140" width="10" height="10" fill="rgba(169, 88, 58, 1.0)" />
	<rect x="80" y="140" width="10" height="10" fill="rgba(161, 89, 57, 1.0)" />
	<rect x="90" y="140" width="10" height="10" fill="rgba(196, 99, 64, 1.0)" />
	<rect x="100" y="140" width="10" height="10" fill="rgba(196, 99, 64, 1.0)" />
	<rect x="110" y="140" width="10" height="10" fill="rgba(181, 97, 62, 1.0)" />
	<rect x="120" y="140" width="10" height="10" fill="rgba(173, 95, 60, 1.0)" />
	<rect x="130" y="140" width="10" height="10" fill="rgba(164, 89, 56, 1.0)" />
	<rect x="140" y="140" width="10" height="10" fill="rgba(164, 89, 56, 1.0)" />
	<rect x="150" y="140" width="10" height="10" fill="rgba(150, 88, 55, 1.0)" />
	<rect x="0" y="150" width="10" height="10" fill="rgba(159, 89, 56, 1.0)" />
	<rect x="10" y="150" width="10" height="10" fill="rgba(170, 92, 59, 1.0)" />
	<rect x="20" y="150" width="10" height="10" fill="rgba(180, 95, 62, 1.0)" />
	<rect x="30" y="150" width="10" height="10" fill="rgba(176, 91, 59, 1.0)" />
	<rect x="40" y="150" width="10" height="10" fill="rgba(176, 91, 59, 1.0)" />
	<rect x="50" y="150" width="10" height="10" fill="rgba(184, 95, 62, 1.0)" />
	<rect x="60" y="150" width="10" height="10" fill="rgba(181, 96, 62, 1.0)" />
	<rect x="70" y="150" width="10" height="10" fill="rgba(169, 88, 58, 1.0)" />
	<rect x="80" y="150" width="10" height="10" fill="rgba(169, 88, 58, 1.0)" />
	<rect x="90" y="150" width="10" height="10" fill="rgba(196, 99, 64, 1.0)" />
	<rect x="100" y="150" width="10" height="10" fill="rgba(196, 99, 64, 1.0)" />
	<rect x="110" y="150" width="10" height="10" fill="rgba(181, 97, 62, 1.0)" />
	<rect x="120" y="150" width="10" height="10" fill="rgba(178, 93, 60, 1.0)" />
	<rect x="130" y="150" width="10" height="10" fill="rgba(184, 96, 62, 1.0)" />
	<rect x="140" y="150" width="10" height="10" fill="rgba(150, 88, 55, 1.0)" />
	<rect x="150" y="150" width="10" height="10" fill="rgba(150, 88, 55, 1.0)" />
</svg>