<svg xmlns="http://www.w3.org/2000/svg" xmlns:xlink="http://www.w3.org/1999/xlink">
	<rect x="0" y="0" width="10" height="10" fill="rgba(147, 117, 68, 1.0)" />
	<rect x="10" y="0" width="10" height="10" fill="rgba(163, 130, 73, 1.0)" />
	<rect x="20" y="0" width="10" height="10" fill="rgba(185, 149, 88, 1.0)" />
	<rect x="30" y="0" width="10" height="10" fill="rgba(185, 149, 88, 1.0)" />
	<rect x="40" y="0" width="10" height="10" fill="rgba(192, 157, 98, 1.0)" />
	<rect x="50" y="0" width="10" height="10" fill="rgba(174, 142, 82, 1.0)" />
	<rect x="60" y="0" width="10" height="10" fill="rgba(192, 157, 98, 1.0)" />
	<rect x="70" y="0" width="10" height="10" fill="rgba(192, 157, 98, 1.0)" />
	<rect x="80" y="0" width="10" height="10" fill="rgba(192, 157, 98, 1.0)" />
	<rect x="90" y="0" width="10" height="10" fill="rgba(185, 149, 88, 1.0)" />
	<rect x="100" y="0" width="10" height="10" fill="rgba(192, 157, 98, 1.0)" />
	<rect x="110" y="0" width="10" height="10" fill="rgba(192, 157, 98, 1.0)" />
	<rect x="120" y="0" width="10" height="10" fill="rgba(185, 149, 88, 1.0)" />
	<rect x="130" y="0" width="10" height="10" fill="rgba(176, 142, 85, 1.0)" />
	<rect x="140" y="0" width="10" height="10" fill="rgba(185, 149, 88, 1.0)" />
	<rect x="150" y="0" width="10" height="10" fill="rgba(176, 142, 85, 1.0)" />
	<rect x="0" y="10" width="10" height="10" fill="rgba(147, 117, 68, 1.0)" />
	<rect x="10" y="10" width="10" height="10" fill="rgba(163, 130, 73, 1.0)" />
	<rect x="20" y="10" width="10" height="10" fill="rgba(174, 142, 82, 1.0)" />
	<rect x="30" y="10" width="10" height="10" fill="rgba(185, 149, 88, 1.0)" />
	<rect x="40" y="10" width="10" height="10" fill="rgba(192, 157, 98, 1.0)" />
	<rect x="50" y="10" width="10" height="10" fill="rgba(174, 142, 82, 1.0)" />
	<rect x="60" y="10" width="10" height="10" fill="rgba(192, 157, 98, 1.0)" />
	<rect x="70" y="10" width="10" height="10" fill="rgba(190, 157, 95, 1.0)" />
	<rect x="80" y="10" width="10" height="10" fill="rgba(185, 149, 88, 1.0)" />
	<rect x="90" y="10" width="10" height="10" fill="rgba(189, 156, 95, 1.0)" />
	<rect x="100" y="10" width="10" height="10" fill="rgba(192, 157, 98, 1.0)" />
	<rect x="110" y="10" width="10" height="10" fill="rgba(194, 161, 102, 1.0)" />
	<rect x="120" y="10" width="10" height="10" fill="rgba(185, 149, 88, 1.0)" />
	<rect x="130" y="10" width="10" height="10" fill="rgba(176, 142, 85, 1.0)" />
	<rect x="140" y="10" width="10" height="10" fill="rgba(176, 142, 85, 1.0)" />
	<rect x="150" y="10" width="10" height="10" fill="rgba(162, 128, 75, 1.0)" />
	<rect x="0" y="20" width="10" height="10" fill="rgba(155, 124, 71, 1.0)" />
	<rect x="10" y="20" width="10" height="10" fill="rgba(163, 130, 73, 1.0)" />
	<rect x="20" y="20" width="10" height="10" fill="rgba(174, 142, 82, 1.0)" />
	<rect x="30" y="20" width="10" height="10" fill="rgba(162, 128, 75, 1.0)" />
	<rect x="40" y="20" width="10" height="10" fill="rgba(190, 157, 95, 1.0)" />
	<rect x="50" y="20" width="10" height="10" fill="rgba(176, 142, 85, 1.0)" />
	<rect x="60" y="20" width="10" height="10" fill="rgba(192, 157, 98, 1.0)" />
	<rect x="70" y="20" width="10" height="10" fill="rgba(185, 149, 88, 1.0)" />
	<rect x="80" y="20" width="10" height="10" fill="rgba(185, 149, 88, 1.0)" />
	<rect x="90" y="20" width="10" height="10" fill="rgba(192, 157, 98, 1.0)" />
	<rect x="100" y="20" width="10" height="10" fill="rgba(179, 147, 88, 1.0)" />
	<rect x="110" y="20" width="10" height="10" fill="rgba(194, 161, 102, 1.0)" />
	<rect x="120" y="20" width="10" height="10" fill="rgba(185, 149, 88, 1.0)" />
	<rect x="130" y="20" width="10" height="10" fill="rgba(162, 128, 75, 1.0)" />
	<rect x="140" y="20" width="10" height="10" fill="rgba(173, 141, 87, 1.0)" />
	<rect x="150" y="20" width="10" height="10" fill="rgba(160, 128, 72, 1.0)" />
	<rect x="0" y="30" width="10" height="10" fill="rgba(155, 124, 71, 1.0)" />
	<rect x="10" y="30" width="10" height="10" fill="rgba(155, 122, 69, 1.0)" />
	<rect x="20" y="30" width="10" height="10" fill="rgba(174, 142, 82, 1.0)" />
	<rect x="30" y="30" width="10" height="10" fill="rgba(162, 128, 75, 1.0)" />
	<rect x="40" y="30" width="10" height="10" fill="rgba(174, 142, 82, 1.0)" />
	<rect x="50" y="30" width="10" height="10" fill="rgba(176, 142, 85, 1.0)" />
	<rect x="60" y="30" width="10" height="10" fill="rgba(191, 158, 98, 1.0)" />
	<rect x="70" y="30" width="10" height="10" fill="rgba(185, 149, 88, 1.0)" />
	<rect x="80" y="30" width="10" height="10" fill="rgba(185, 149, 88, 1.0)" />
	<rect x="90" y="30" width="10" height="10" fill="rgba(192, 157, 98, 1.0)" />
	<rect x="100" y="30" width="10" height="10" fill="rgba(179, 147, 88, 1.0)" />
	<rect x="110" y="30" width="10" height="10" fill="rgba(194, 161, 102, 1.0)" />
	<rect x="120" y="30" width="10" height="10" fill="rgba(190, 157, 95, 1.0)" />
	<rect x="130" y="30" width="10" height="10" fill="rgba(162, 128, 75, 1.0)" />
	<rect x="140" y="30" width="10" height="10" fill="rgba(173, 141, 87, 1.0)" />
	<rect x="150" y="30" width="10" height="10" fill="rgba(176, 142, 85, 1.0)" />
	<rect x="0" y="40" width="10" height="10" fill="rgba(162, 129, 73, 1.0)" />
	<rect x="10" y="40" width="10" height="10" fill="rgba(155, 122, 69, 1.0)" />
	<rect x="20" y="40" width="10" height="10" fill="rgba(174, 142, 82, 1.0)" />
	<rect x="30" y="40" width="10" height="10" fill="rgba(162, 128, 75, 1.0)" />
	<rect x="40" y="40" width="10" height="10" fill="rgba(174, 142, 82, 1.0)" />
	<rect x="50" y="40" width="10" height="10" fill="rgba(192, 157, 98, 1.0)" />
	<rect x="60" y="40" width="10" height="10" fill="rgba(179, 147, 88, 1.0)" />
	<rect x="70" y="40" width="10" height="10" fill="rgba(185, 149, 88, 1.0)" />
	<rect x="80" y="40" width="10" height="10" fill="rgba(188, 155, 93, 1.0)" />
	<rect x="90" y="40" width="10" height="10" fill="rgba(192, 157, 98, 1.0)" />
	<rect x="100" y="40" width="10" height="10" fill="rgba(179, 147, 88, 1.0)" />
	<rect x="110" y="40" width="10" height="10" fill="rgba(192, 157, 98, 1.0)" />
	<rect x="120" y="40" width="10" height="10" fill="rgba(192, 157, 98, 1.0)" />
	<rect x="130" y="40" width="10" height="10" fill="rgba(192, 157, 98, 1.0)" />
	<rect x="140" y="40" width="10" height="10" fill="rgba(173, 141, 87, 1.0)" />
	<rect x="150" y="40" width="10" height="10" fill="rgba(145, 117, 65, 1.0)" />
	<rect x="0" y="50" width="10" height="10" fill="rgba(147, 117, 68, 1.0)" />
	<rect x="10" y="50" width="10" height="10" fill="rgba(163, 129, 74, 1.0)" />
	<rect x="20" y="50" width="10" height="10" fill="rgba(185, 149, 88, 1.0)" />
	<rect x="30" y="50" width="10" height="10" fill="rgba(174, 142, 82, 1.0)" />
	<rect x="40" y="50" width="10" height="10" fill="rgba(190, 157, 95, 1.0)" />
	<rect x="50" y="50" width="10" height="10" fill="rgba(194, 161, 102, 1.0)" />
	<rect x="60" y="50" width="10" height="10" fill="rgba(179, 147, 88, 1.0)" />
	<rect x="70" y="50" width="10" height="10" fill="rgba(185, 149, 88, 1.0)" />
	<rect x="80" y="50" width="10" height="10" fill="rgba(189, 156, 95, 1.0)" />
	<rect x="90" y="50" width="10" height="10" fill="rgba(194, 161, 102, 1.0)" />
	<rect x="100" y="50" width="10" height="10" fill="rgba(185, 149, 88, 1.0)" />
	<rect x="110" y="50" width="10" height="10" fill="rgba(193, 162, 102, 1.0)" />
	<rect x="120" y="50" width="10" height="10" fill="rgba(192, 157, 98, 1.0)" />
	<rect x="130" y="50" width="10" height="10" fill="rgba(173, 141, 87, 1.0)" />
	<rect x="140" y="50" width="10" height="10" fill="rgba(173, 141, 87, 1.0)" />
	<rect x="150" y="50" width="10" height="10" fill="rgba(145, 117, 65, 1.0)" />
	<rect x="0" y="60" width="10" height="10" fill="rgba(147, 117, 68, 1.0)" />
	<rect x="10" y="60" width="10" height="10" fill="rgba(152, 122, 68, 1.0)" />
	<rect x="20" y="60" width="10" height="10" fill="rgba(185, 149, 88, 1.0)" />
	<rect x="30" y="60" width="10" height="10" fill="rgba(174, 142, 82, 1.0)" />
	<rect x="40" y="60" width="10" height="10" fill="rgba(192, 157, 98, 1.0)" />
	<rect x="50" y="60" width="10" height="10" fill="rgba(194, 161, 102, 1.0)" />
	<rect x="60" y="60" width="10" height="10" fill="rgba(179, 147, 88, 1.0)" />
	<rect x="70" y="60" width="10" height="10" fill="rgba(188, 155, 93, 1.0)" />
	<rect x="80" y="60" width="10" height="10" fill="rgba(192, 157, 98, 1.0)" />
	<rect x="90" y="60" width="10" height="10" fill="rgba(194, 161, 102, 1.0)" />
	<rect x="100" y="60" width="10" height="10" fill="rgba(185, 149, 88, 1.0)" />
	<rect x="110" y="60" width="10" height="10" fill="rgba(185, 149, 88, 1.0)" />
	<rect x="120" y="60" width="10" height="10" fill="rgba(179, 147, 88, 1.0)" />
	<rect x="130" y="60" width="10" height="10" fill="rgba(167, 137, 79, 1.0)" />
	<rect x="140" y="60" width="10" height="10" fill="rgba(173, 141, 87, 1.0)" />
	<rect x="150" y="60" width="10" height="10" fill="rgba(162, 128, 75, 1.0)" />
	<rect x="0" y="70" width="10" height="10" fill="rgba(147, 117, 68, 1.0)" />
	<rect x="10" y="70" width="10" height="10" fill="rgba(152, 122, 68, 1.0)" />
	<rect x="20" y="70" width="10" height="10" fill="rgba(174, 142, 82, 1.0)" />
	<rect x="30" y="70" width="10" height="10" fill="rgba(176, 142, 85, 1.0)" />
	<rect x="40" y="70" width="10" height="10" fill="rgba(192, 157, 98, 1.0)" />
	<rect x="50" y="70" width="10" height="10" fill="rgba(192, 157, 98, 1.0)" />
	<rect x="60" y="70" width="10" height="10" fill="rgba(179, 147, 88, 1.0)" />
	<rect x="70" y="70" width="10" height="10" fill="rgba(189, 156, 95, 1.0)" />
	<rect x="80" y="70" width="10" height="10" fill="rgba(192, 157, 98, 1.0)" />
	<rect x="90" y="70" width="10" height="10" fill="rgba(192, 157, 98, 1.0)" />
	<rect x="100" y="70" width="10" height="10" fill="rgba(190, 157, 95, 1.0)" />
	<rect x="110" y="70" width="10" height="10" fill="rgba(174, 142, 82, 1.0)" />
	<rect x="120" y="70" width="10" height="10" fill="rgba(179, 147, 88, 1.0)" />
	<rect x="130" y="70" width="10" height="10" fill="rgba(167, 137, 79, 1.0)" />
	<rect x="140" y="70" width="10" height="10" fill="rgba(173, 141, 87, 1.0)" />
	<rect x="150" y="70" width="10" height="10" fill="rgba(153, 124, 67, 1.0)" />
	<rect x="0" y="80" width="10" height="10" fill="rgba(155, 124, 71, 1.0)" />
	<rect x="10" y="80" width="10" height="10" fill="rgba(163, 129, 74, 1.0)" />
	<rect x="20" y="80" width="10" height="10" fill="rgba(172, 139, 82, 1.0)" />
	<rect x="30" y="80" width="10" height="10" fill="rgba(176, 142, 85, 1.0)" />
	<rect x="40" y="80" width="10" height="10" fill="rgba(191, 158, 97, 1.0)" />
	<rect x="50" y="80" width="10" height="10" fill="rgba(190, 157, 95, 1.0)" />
	<rect x="60" y="80" width="10" height="10" fill="rgba(179, 147, 88, 1.0)" />
	<rect x="70" y="80" width="10" height="10" fill="rgba(194, 161, 102, 1.0)" />
	<rect x="80" y="80" width="10" height="10" fill="rgba(185, 149, 88, 1.0)" />
	<rect x="90" y="80" width="10" height="10" fill="rgba(194, 161, 102, 1.0)" />
	<rect x="100" y="80" width="10" height="10" fill="rgba(192, 157, 98, 1.0)" />
	<rect x="110" y="80" width="10" height="10" fill="rgba(174, 142, 82, 1.0)" />
	<rect x="120" y="80" width="10" height="10" fill="rgba(179, 147, 88, 1.0)" />
	<rect x="130" y="80" width="10" height="10" fill="rgba(192, 157, 98, 1.0)" />
	<rect x="140" y="80" width="10" height="10" fill="rgba(167, 137, 79, 1.0)" />
	<rect x="150" y="80" width="10" height="10" fill="rgba(162, 128, 75, 1.0)" />
	<rect x="0" y="90" width="10" height="10" fill="rgba(147, 117, 68, 1.0)" />
	<rect x="10" y="90" width="10" height="10" fill="rgba(174, 142, 82, 1.0)" />
	<rect x="20" y="90" width="10" height="10" fill="rgba(179, 147, 88, 1.0)" />
	<rect x="30" y="90" width="10" height="10" fill="rgba(167, 137, 79, 1.0)" />
	<rect x="40" y="90" width="10" height="10" fill="rgba(190, 157, 95, 1.0)" />
	<rect x="50" y="90" width="10" height="10" fill="rgba(186, 151, 90, 1.0)" />
	<rect x="60" y="90" width="10" height="10" fill="rgba(179, 147, 88, 1.0)" />
	<rect x="70" y="90" width="10" height="10" fill="rgba(194, 161, 102, 1.0)" />
	<rect x="80" y="90" width="10" height="10" fill="rgba(185, 149, 88, 1.0)" />
	<rect x="90" y="90" width="10" height="10" fill="rgba(179, 147, 88, 1.0)" />
	<rect x="100" y="90" width="10" height="10" fill="rgba(192, 157, 98, 1.0)" />
	<rect x="110" y="90" width="10" height="10" fill="rgba(190, 157, 95, 1.0)" />
	<rect x="120" y="90" width="10" height="10" fill="rgba(179, 147, 88, 1.0)" />
	<rect x="130" y="90" width="10" height="10" fill="rgba(192, 157, 98, 1.0)" />
	<rect x="140" y="90" width="10" height="10" fill="rgba(162, 128, 75, 1.0)" />
	<rect x="150" y="90" width="10" height="10" fill="rgba(153, 124, 67, 1.0)" />
	<rect x="0" y="100" width="10" height="10" fill="rgba(145, 117, 65, 1.0)" />
	<rect x="10" y="100" width="10" height="10" fill="rgba(163, 129, 74, 1.0)" />
	<rect x="20" y="100" width="10" height="10" fill="rgba(179, 147, 88, 1.0)" />
	<rect x="30" y="100" width="10" height="10" fill="rgba(167, 137, 79, 1.0)" />
	<rect x="40" y="100" width="10" height="10" fill="rgba(179, 144, 87, 1.0)" />
	<rect x="50" y="100" width="10" height="10" fill="rgba(185, 149, 88, 1.0)" />
	<rect x="60" y="100" width="10" height="10" fill="rgba(185, 149, 88, 1.0)" />
	<rect x="70" y="100" width="10" height="10" fill="rgba(192, 157, 98, 1.0)" />
	<rect x="80" y="100" width="10" height="10" fill="rgba(174, 142, 82, 1.0)" />
	<rect x="90" y="100" width="10" height="10" fill="rgba(185, 149, 88, 1.0)" />
	<rect x="100" y="100" width="10" height="10" fill="rgba(191, 159, 99, 1.0)" />
	<rect x="110" y="100" width="10" height="10" fill="rgba(190, 157, 95, 1.0)" />
	<rect x="120" y="100" width="10" height="10" fill="rgba(180, 145, 88, 1.0)" />
	<rect x="130" y="100" width="10" height="10" fill="rgba(185, 149, 88, 1.0)" />
	<rect x="140" y="100" width="10" height="10" fill="rgba(162, 128, 75, 1.0)" />
	<rect x="150" y="100" width="10" height="10" fill="rgba(153, 124, 67, 1.0)" />
	<rect x="0" y="110" width="10" height="10" fill="rgba(154, 124, 69, 1.0)" />
	<rect x="10" y="110" width="10" height="10" fill="rgba(182, 147, 88, 1.0)" />
	<rect x="20" y="110" width="10" height="10" fill="rgba(179, 147, 88, 1.0)" />
	<rect x="30" y="110" width="10" height="10" fill="rgba(179, 147, 88, 1.0)" />
	<rect x="40" y="110" width="10" height="10" fill="rgba(179, 144, 87, 1.0)" />
	<rect x="50" y="110" width="10" height="10" fill="rgba(185, 149, 88, 1.0)" />
	<rect x="60" y="110" width="10" height="10" fill="rgba(185, 149, 88, 1.0)" />
	<rect x="70" y="110" width="10" height="10" fill="rgba(192, 157, 98, 1.0)" />
	<rect x="80" y="110" width="10" height="10" fill="rgba(174, 142, 82, 1.0)" />
	<rect x="90" y="110" width="10" height="10" fill="rgba(174, 142, 82, 1.0)" />
	<rect x="100" y="110" width="10" height="10" fill="rgba(191, 159, 99, 1.0)" />
	<rect x="110" y="110" width="10" height="10" fill="rgba(174, 142, 82, 1.0)" />
	<rect x="120" y="110" width="10" height="10" fill="rgba(185, 149, 88, 1.0)" />
	<rect x="130" y="110" width="10" height="10" fill="rgba(173, 141, 87, 1.0)" />
	<rect x="140" y="110" width="10" height="10" fill="rgba(173, 141, 87, 1.0)" />
	<rect x="150" y="110" width="10" height="10" fill="rgba(157, 128, 71, 1.0)" />
	<rect x="0" y="120" width="10" height="10" fill="rgba(154, 124, 69, 1.0)" />
	<rect x="10" y="120" width="10" height="10" fill="rgba(173, 141, 82, 1.0)" />
	<rect x="20" y="120" width="10" height="10" fill="rgba(162, 128, 75, 1.0)" />
	<rect x="30" y="120" width="10" height="10" fill="rgba(179, 147, 88, 1.0)" />
	<rect x="40" y="120" width="10" height="10" fill="rgba(186, 151, 90, 1.0)" />
	<rect x="50" y="120" width="10" height="10" fill="rgba(185, 149, 88, 1.0)" />
	<rect x="60" y="120" width="10" height="10" fill="rgba(192, 157, 98, 1.0)" />
	<rect x="70" y="120" width="10" height="10" fill="rgba(190, 157, 95, 1.0)" />
	<rect x="80" y="120" width="10" height="10" fill="rgba(185, 149, 88, 1.0)" />
	<rect x="90" y="120" width="10" height="10" fill="rgba(174, 142, 82, 1.0)" />
	<rect x="100" y="120" width="10" height="10" fill="rgba(182, 146, 85, 1.0)" />
	<rect x="110" y="120" width="10" height="10" fill="rgba(174, 142, 82, 1.0)" />
	<rect x="120" y="120" width="10" height="10" fill="rgba(173, 141, 87, 1.0)" />
	<rect x="130" y="120" width="10" height="10" fill="rgba(162, 128, 75, 1.0)" />
	<rect x="140" y="120" width="10" height="10" fill="rgba(152, 123, 69, 1.0)" />
	<rect x="150" y="120" width="10" height="10" fill="rgba(162, 128, 75, 1.0)" />
	<rect x="0" y="130" width="10" height="10" fill="rgba(145, 117, 65, 1.0)" />
	<rect x="10" y="130" width="10" height="10" fill="rgba(163, 131, 73, 1.0)" />
	<rect x="20" y="130" width="10" height="10" fill="rgba(163, 130, 73, 1.0)" />
	<rect x="30" y="130" width="10" height="10" fill="rgba(179, 147, 88, 1.0)" />
	<rect x="40" y="130" width="10" height="10" fill="rgba(185, 149, 88, 1.0)" />
	<rect x="50" y="130" width="10" height="10" fill="rgba(185, 149, 88, 1.0)" />
	<rect x="60" y="130" width="10" height="10" fill="rgba(190, 157, 95, 1.0)" />
	<rect x="70" y="130" width="10" height="10" fill="rgba(185, 149, 88, 1.0)" />
	<rect x="80" y="130" width="10" height="10" fill="rgba(185, 149, 88, 1.0)" />
	<rect x="90" y="130" width="10" height="10" fill="rgba(194, 161, 102, 1.0)" />
	<rect x="100" y="130" width="10" height="10" fill="rgba(174, 142, 82, 1.0)" />
	<rect x="110" y="130" width="10" height="10" fill="rgba(185, 149, 88, 1.0)" />
	<rect x="120" y="130" width="10" height="10" fill="rgba(162, 128, 75, 1.0)" />
	<rect x="130" y="130" width="10" height="10" fill="rgba(162, 128, 75, 1.0)" />
	<rect x="140" y="130" width="10" height="10" fill="rgba(152, 123, 69, 1.0)" />
	<rect x="150" y="130" width="10" height="10" fill="rgba(163, 130, 73, 1.0)" />
	<rect x="0" y="140" width="10" height="10" fill="rgba(145, 117, 65, 1.0)" />
	<rect x="10" y="140" width="10" height="10" fill="rgba(155, 122, 69, 1.0)" />
	<rect x="20" y="140" width="10" height="10" fill="rgba(176, 142, 85, 1.0)" />
	<rect x="30" y="140" width="10" height="10" fill="rgba(180, 145, 88, 1.0)" />
	<rect x="40" y="140" width="10" height="10" fill="rgba(185, 149, 88, 1.0)" />
	<rect x="50" y="140" width="10" height="10" fill="rgba(185, 149, 88, 1.0)" />
	<rect x="60" y="140" width="10" height="10" fill="rgba(185, 149, 88, 1.0)" />
	<rect x="70" y="140" width="10" height="10" fill="rgba(192, 157, 98, 1.0)" />
	<rect x="80" y="140" width="10" height="10" fill="rgba(185, 149, 88, 1.0)" />
	<rect x="90" y="140" width="10" height="10" fill="rgba(192, 157, 98, 1.0)" />
	<rect x="100" y="140" width="10" height="10" fill="rgba(174, 142, 82, 1.0)" />
	<rect x="110" y="140" width="10" height="10" fill="rgba(185, 149, 88, 1.0)" />
	<rect x="120" y="140" width="10" height="10" fill="rgba(162, 128, 75, 1.0)" />
	<rect x="130" y="140" width="10" height="10" fill="rgba(173, 141, 87, 1.0)" />
	<rect x="140" y="140" width="10" height="10" fill="rgba(173, 141, 87, 1.0)" />
	<rect x="150" y="140" width="10" height="10" fill="rgba(152, 123, 69, 1.0)" />
	<rect x="0" y="150" width="10" height="10" fill="rgba(147, 117, 68, 1.0)" />
	<rect x="10" y="150" width="10" height="10" fill="rgba(163, 130, 73, 1.0)" />
	<rect x="20" y="150" width="10" height="10" fill="rgba(192, 157, 98, 1.0)" />
	<rect x="30" y="150" width="10" height="10" fill="rgba(192, 157, 98, 1.0)" />
	<rect x="40" y="150" width="10" height="10" fill="rgba(185, 149, 88, 1.0)" />
	<rect x="50" y="150" width="10" height="10" fill="rgba(185, 149, 88, 1.0)" />
	<rect x="60" y="150" width="10" height="10" fill="rgba(192, 157, 98, 1.0)" />
	<rect x="70" y="150" width="10" height="10" fill="rgba(192, 157, 98, 1.0)" />
	<rect x="80" y="150" width="10" height="10" fill="rgba(185, 149, 88, 1.0)" />
	<rect x="90" y="150" width="10" height="10" fill="rgba(192, 157, 98, 1.0)" />
	<rect x="100" y="150" width="10" height="10" fill="rgba(192, 157, 98, 1.0)" />
	<rect x="110" y="150" width="10" height="10" fill="rgba(185, 149, 88, 1.0)" />
	<rect x="120" y="150" width="10" height="10" fill="rgba(185, 149, 88, 1.0)" />
	<rect x="130" y="150" width="10" height="10" fill="rgba(192, 157, 98, 1.0)" />
	<rect x="140" y="150" width="10" height="10" fill="rgba(173, 141, 87, 1.0)" />
	<rect x="150" y="150" width="10" height="10" fill="rgba(152, 123, 69, 1.0)" />
</svg>