<svg xmlns="http://www.w3.org/2000/svg" xmlns:xlink="http://www.w3.org/1999/xlink">
	<rect x="0" y="0" width="10" height="10" fill="rgba(177, 152, 96, 1.0)" />
	<rect x="10" y="0" width="10" height="10" fill="rgba(196, 172, 114, 1.0)" />
	<rect x="20" y="0" width="10" height="10" fill="rgba(203, 181, 122, 1.0)" />
	<rect x="30" y="0" width="10" height="10" fill="rgba(206, 188, 128, 1.0)" />
	<rect x="40" y="0" width="10" height="10" fill="rgba(203, 181, 122, 1.0)" />
	<rect x="50" y="0" width="10" height="10" fill="rgba(196, 172, 114, 1.0)" />
	<rect x="60" y="0" width="10" height="10" fill="rgba(203, 181, 122, 1.0)" />
	<rect x="70" y="0" width="10" height="10" fill="rgba(207, 189, 129, 1.0)" />
	<rect x="80" y="0" width="10" height="10" fill="rgba(206, 188, 128, 1.0)" />
	<rect x="90" y="0" width="10" height="10" fill="rgba(203, 181, 122, 1.0)" />
	<rect x="100" y="0" width="10" height="10" fill="rgba(203, 181, 122, 1.0)" />
	<rect x="110" y="0" width="10" height="10" fill="rgba(203, 181, 122, 1.0)" />
	<rect x="120" y="0" width="10" height="10" fill="rgba(203, 181, 122, 1.0)" />
	<rect x="130" y="0" width="10" height="10" fill="rgba(196, 172, 114, 1.0)" />
	<rect x="140" y="0" width="10" height="10" fill="rgba(177, 152, 96, 1.0)" />
	<rect x="150" y="0" width="10" height="10" fill="rgba(186, 162, 105, 1.0)" />
	<rect x="0" y="10" width="10" height="10" fill="rgba(177, 152, 96, 1.0)" />
	<rect x="10" y="10" width="10" height="10" fill="rgba(196, 172, 114, 1.0)" />
	<rect x="20" y="10" width="10" height="10" fill="rgba(186, 162, 105, 1.0)" />
	<rect x="30" y="10" width="10" height="10" fill="rgba(206, 188, 128, 1.0)" />
	<rect x="40" y="10" width="10" height="10" fill="rgba(203, 181, 122, 1.0)" />
	<rect x="50" y="10" width="10" height="10" fill="rgba(196, 172, 114, 1.0)" />
	<rect x="60" y="10" width="10" height="10" fill="rgba(206, 188, 128, 1.0)" />
	<rect x="70" y="10" width="10" height="10" fill="rgba(206, 186, 127, 1.0)" />
	<rect x="80" y="10" width="10" height="10" fill="rgba(206, 188, 128, 1.0)" />
	<rect x="90" y="10" width="10" height="10" fill="rgba(196, 172, 114, 1.0)" />
	<rect x="100" y="10" width="10" height="10" fill="rgba(203, 181, 122, 1.0)" />
	<rect x="110" y="10" width="10" height="10" fill="rgba(206, 188, 128, 1.0)" />
	<rect x="120" y="10" width="10" height="10" fill="rgba(203, 181, 122, 1.0)" />
	<rect x="130" y="10" width="10" height="10" fill="rgba(196, 172, 114, 1.0)" />
	<rect x="140" y="10" width="10" height="10" fill="rgba(196, 172, 114, 1.0)" />
	<rect x="150" y="10" width="10" height="10" fill="rgba(186, 168, 116, 1.0)" />
	<rect x="0" y="20" width="10" height="10" fill="rgba(181, 160, 106, 1.0)" />
	<rect x="10" y="20" width="10" height="10" fill="rgba(196, 172, 114, 1.0)" />
	<rect x="20" y="20" width="10" height="10" fill="rgba(186, 162, 105, 1.0)" />
	<rect x="30" y="20" width="10" height="10" fill="rgba(186, 162, 105, 1.0)" />
	<rect x="40" y="20" width="10" height="10" fill="rgba(200, 176, 118, 1.0)" />
	<rect x="50" y="20" width="10" height="10" fill="rgba(196, 172, 114, 1.0)" />
	<rect x="60" y="20" width="10" height="10" fill="rgba(206, 188, 128, 1.0)" />
	<rect x="70" y="20" width="10" height="10" fill="rgba(207, 189, 129, 1.0)" />
	<rect x="80" y="20" width="10" height="10" fill="rgba(209, 192, 132, 1.0)" />
	<rect x="90" y="20" width="10" height="10" fill="rgba(205, 184, 125, 1.0)" />
	<rect x="100" y="20" width="10" height="10" fill="rgba(200, 176, 118, 1.0)" />
	<rect x="110" y="20" width="10" height="10" fill="rgba(206, 188, 128, 1.0)" />
	<rect x="120" y="20" width="10" height="10" fill="rgba(203, 181, 122, 1.0)" />
	<rect x="130" y="20" width="10" height="10" fill="rgba(186, 168, 116, 1.0)" />
	<rect x="140" y="20" width="10" height="10" fill="rgba(196, 172, 114, 1.0)" />
	<rect x="150" y="20" width="10" height="10" fill="rgba(186, 168, 116, 1.0)" />
	<rect x="0" y="30" width="10" height="10" fill="rgba(186, 168, 116, 1.0)" />
	<rect x="10" y="30" width="10" height="10" fill="rgba(184, 168, 117, 1.0)" />
	<rect x="20" y="30" width="10" height="10" fill="rgba(186, 162, 105, 1.0)" />
	<rect x="30" y="30" width="10" height="10" fill="rgba(186, 168, 116, 1.0)" />
	<rect x="40" y="30" width="10" height="10" fill="rgba(196, 172, 114, 1.0)" />
	<rect x="50" y="30" width="10" height="10" fill="rgba(199, 177, 119, 1.0)" />
	<rect x="60" y="30" width="10" height="10" fill="rgba(209, 192, 132, 1.0)" />
	<rect x="70" y="30" width="10" height="10" fill="rgba(209, 192, 132, 1.0)" />
	<rect x="80" y="30" width="10" height="10" fill="rgba(211, 196, 135, 1.0)" />
	<rect x="90" y="30" width="10" height="10" fill="rgba(205, 184, 125, 1.0)" />
	<rect x="100" y="30" width="10" height="10" fill="rgba(200, 176, 118, 1.0)" />
	<rect x="110" y="30" width="10" height="10" fill="rgba(206, 188, 128, 1.0)" />
	<rect x="120" y="30" width="10" height="10" fill="rgba(203, 181, 122, 1.0)" />
	<rect x="130" y="30" width="10" height="10" fill="rgba(186, 168, 116, 1.0)" />
	<rect x="140" y="30" width="10" height="10" fill="rgba(195, 172, 114, 1.0)" />
	<rect x="150" y="30" width="10" height="10" fill="rgba(186, 162, 105, 1.0)" />
	<rect x="0" y="40" width="10" height="10" fill="rgba(181, 160, 106, 1.0)" />
	<rect x="10" y="40" width="10" height="10" fill="rgba(180, 160, 106, 1.0)" />
	<rect x="20" y="40" width="10" height="10" fill="rgba(196, 172, 114, 1.0)" />
	<rect x="30" y="40" width="10" height="10" fill="rgba(186, 168, 116, 1.0)" />
	<rect x="40" y="40" width="10" height="10" fill="rgba(196, 172, 114, 1.0)" />
	<rect x="50" y="40" width="10" height="10" fill="rgba(205, 184, 125, 1.0)" />
	<rect x="60" y="40" width="10" height="10" fill="rgba(211, 196, 135, 1.0)" />
	<rect x="70" y="40" width="10" height="10" fill="rgba(211, 196, 135, 1.0)" />
	<rect x="80" y="40" width="10" height="10" fill="rgba(211, 196, 135, 1.0)" />
	<rect x="90" y="40" width="10" height="10" fill="rgba(205, 184, 125, 1.0)" />
	<rect x="100" y="40" width="10" height="10" fill="rgba(200, 176, 118, 1.0)" />
	<rect x="110" y="40" width="10" height="10" fill="rgba(203, 181, 122, 1.0)" />
	<rect x="120" y="40" width="10" height="10" fill="rgba(203, 181, 122, 1.0)" />
	<rect x="130" y="40" width="10" height="10" fill="rgba(207, 189, 129, 1.0)" />
	<rect x="140" y="40" width="10" height="10" fill="rgba(186, 162, 105, 1.0)" />
	<rect x="150" y="40" width="10" height="10" fill="rgba(182, 157, 101, 1.0)" />
	<rect x="0" y="50" width="10" height="10" fill="rgba(182, 157, 101, 1.0)" />
	<rect x="10" y="50" width="10" height="10" fill="rgba(180, 160, 106, 1.0)" />
	<rect x="20" y="50" width="10" height="10" fill="rgba(207, 189, 129, 1.0)" />
	<rect x="30" y="50" width="10" height="10" fill="rgba(196, 172, 114, 1.0)" />
	<rect x="40" y="50" width="10" height="10" fill="rgba(186, 168, 116, 1.0)" />
	<rect x="50" y="50" width="10" height="10" fill="rgba(207, 189, 129, 1.0)" />
	<rect x="60" y="50" width="10" height="10" fill="rgba(196, 172, 114, 1.0)" />
	<rect x="70" y="50" width="10" height="10" fill="rgba(211, 196, 135, 1.0)" />
	<rect x="80" y="50" width="10" height="10" fill="rgba(196, 172, 114, 1.0)" />
	<rect x="90" y="50" width="10" height="10" fill="rgba(205, 184, 125, 1.0)" />
	<rect x="100" y="50" width="10" height="10" fill="rgba(205, 184, 125, 1.0)" />
	<rect x="110" y="50" width="10" height="10" fill="rgba(203, 181, 122, 1.0)" />
	<rect x="120" y="50" width="10" height="10" fill="rgba(205, 184, 125, 1.0)" />
	<rect x="130" y="50" width="10" height="10" fill="rgba(186, 168, 116, 1.0)" />
	<rect x="140" y="50" width="10" height="10" fill="rgba(195, 172, 114, 1.0)" />
	<rect x="150" y="50" width="10" height="10" fill="rgba(182, 157, 101, 1.0)" />
	<rect x="0" y="60" width="10" height="10" fill="rgba(182, 157, 101, 1.0)" />
	<rect x="10" y="60" width="10" height="10" fill="rgba(192, 171, 114, 1.0)" />
	<rect x="20" y="60" width="10" height="10" fill="rgba(207, 189, 129, 1.0)" />
	<rect x="30" y="60" width="10" height="10" fill="rgba(196, 172, 114, 1.0)" />
	<rect x="40" y="60" width="10" height="10" fill="rgba(208, 190, 130, 1.0)" />
	<rect x="50" y="60" width="10" height="10" fill="rgba(207, 189, 129, 1.0)" />
	<rect x="60" y="60" width="10" height="10" fill="rgba(202, 180, 122, 1.0)" />
	<rect x="70" y="60" width="10" height="10" fill="rgba(198, 175, 116, 1.0)" />
	<rect x="80" y="60" width="10" height="10" fill="rgba(205, 184, 125, 1.0)" />
	<rect x="90" y="60" width="10" height="10" fill="rgba(207, 189, 129, 1.0)" />
	<rect x="100" y="60" width="10" height="10" fill="rgba(205, 184, 125, 1.0)" />
	<rect x="110" y="60" width="10" height="10" fill="rgba(196, 172, 114, 1.0)" />
	<rect x="120" y="60" width="10" height="10" fill="rgba(205, 184, 125, 1.0)" />
	<rect x="130" y="60" width="10" height="10" fill="rgba(186, 168, 116, 1.0)" />
	<rect x="140" y="60" width="10" height="10" fill="rgba(186, 162, 105, 1.0)" />
	<rect x="150" y="60" width="10" height="10" fill="rgba(186, 168, 116, 1.0)" />
	<rect x="0" y="70" width="10" height="10" fill="rgba(186, 168, 116, 1.0)" />
	<rect x="10" y="70" width="10" height="10" fill="rgba(198, 176, 118, 1.0)" />
	<rect x="20" y="70" width="10" height="10" fill="rgba(186, 162, 105, 1.0)" />
	<rect x="30" y="70" width="10" height="10" fill="rgba(196, 172, 114, 1.0)" />
	<rect x="40" y="70" width="10" height="10" fill="rgba(208, 190, 130, 1.0)" />
	<rect x="50" y="70" width="10" height="10" fill="rgba(205, 184, 125, 1.0)" />
	<rect x="60" y="70" width="10" height="10" fill="rgba(202, 180, 122, 1.0)" />
	<rect x="70" y="70" width="10" height="10" fill="rgba(196, 172, 114, 1.0)" />
	<rect x="80" y="70" width="10" height="10" fill="rgba(205, 184, 125, 1.0)" />
	<rect x="90" y="70" width="10" height="10" fill="rgba(207, 189, 129, 1.0)" />
	<rect x="100" y="70" width="10" height="10" fill="rgba(199, 177, 119, 1.0)" />
	<rect x="110" y="70" width="10" height="10" fill="rgba(206, 188, 128, 1.0)" />
	<rect x="120" y="70" width="10" height="10" fill="rgba(198, 180, 124, 1.0)" />
	<rect x="130" y="70" width="10" height="10" fill="rgba(202, 182, 123, 1.0)" />
	<rect x="140" y="70" width="10" height="10" fill="rgba(186, 162, 105, 1.0)" />
	<rect x="150" y="70" width="10" height="10" fill="rgba(182, 157, 101, 1.0)" />
	<rect x="0" y="80" width="10" height="10" fill="rgba(186, 168, 116, 1.0)" />
	<rect x="10" y="80" width="10" height="10" fill="rgba(198, 176, 118, 1.0)" />
	<rect x="20" y="80" width="10" height="10" fill="rgba(177, 152, 96, 1.0)" />
	<rect x="30" y="80" width="10" height="10" fill="rgba(196, 172, 114, 1.0)" />
	<rect x="40" y="80" width="10" height="10" fill="rgba(208, 190, 130, 1.0)" />
	<rect x="50" y="80" width="10" height="10" fill="rgba(207, 188, 128, 1.0)" />
	<rect x="60" y="80" width="10" height="10" fill="rgba(202, 180, 122, 1.0)" />
	<rect x="70" y="80" width="10" height="10" fill="rgba(206, 188, 128, 1.0)" />
	<rect x="80" y="80" width="10" height="10" fill="rgba(205, 184, 125, 1.0)" />
	<rect x="90" y="80" width="10" height="10" fill="rgba(205, 184, 125, 1.0)" />
	<rect x="100" y="80" width="10" height="10" fill="rgba(196, 172, 114, 1.0)" />
	<rect x="110" y="80" width="10" height="10" fill="rgba(206, 188, 128, 1.0)" />
	<rect x="120" y="80" width="10" height="10" fill="rgba(209, 192, 132, 1.0)" />
	<rect x="130" y="80" width="10" height="10" fill="rgba(206, 188, 128, 1.0)" />
	<rect x="140" y="80" width="10" height="10" fill="rgba(195, 172, 114, 1.0)" />
	<rect x="150" y="80" width="10" height="10" fill="rgba(181, 160, 106, 1.0)" />
	<rect x="0" y="90" width="10" height="10" fill="rgba(186, 168, 116, 1.0)" />
	<rect x="10" y="90" width="10" height="10" fill="rgba(203, 181, 122, 1.0)" />
	<rect x="20" y="90" width="10" height="10" fill="rgba(186, 168, 116, 1.0)" />
	<rect x="30" y="90" width="10" height="10" fill="rgba(199, 182, 126, 1.0)" />
	<rect x="40" y="90" width="10" height="10" fill="rgba(208, 190, 130, 1.0)" />
	<rect x="50" y="90" width="10" height="10" fill="rgba(209, 193, 132, 1.0)" />
	<rect x="60" y="90" width="10" height="10" fill="rgba(202, 180, 122, 1.0)" />
	<rect x="70" y="90" width="10" height="10" fill="rgba(206, 188, 128, 1.0)" />
	<rect x="80" y="90" width="10" height="10" fill="rgba(205, 184, 125, 1.0)" />
	<rect x="90" y="90" width="10" height="10" fill="rgba(205, 184, 125, 1.0)" />
	<rect x="100" y="90" width="10" height="10" fill="rgba(202, 180, 122, 1.0)" />
	<rect x="110" y="90" width="10" height="10" fill="rgba(211, 196, 135, 1.0)" />
	<rect x="120" y="90" width="10" height="10" fill="rgba(209, 192, 132, 1.0)" />
	<rect x="130" y="90" width="10" height="10" fill="rgba(211, 196, 135, 1.0)" />
	<rect x="140" y="90" width="10" height="10" fill="rgba(186, 168, 116, 1.0)" />
	<rect x="150" y="90" width="10" height="10" fill="rgba(182, 157, 101, 1.0)" />
	<rect x="0" y="100" width="10" height="10" fill="rgba(181, 160, 106, 1.0)" />
	<rect x="10" y="100" width="10" height="10" fill="rgba(190, 166, 109, 1.0)" />
	<rect x="20" y="100" width="10" height="10" fill="rgba(186, 162, 105, 1.0)" />
	<rect x="30" y="100" width="10" height="10" fill="rgba(199, 182, 126, 1.0)" />
	<rect x="40" y="100" width="10" height="10" fill="rgba(210, 194, 134, 1.0)" />
	<rect x="50" y="100" width="10" height="10" fill="rgba(209, 192, 132, 1.0)" />
	<rect x="60" y="100" width="10" height="10" fill="rgba(200, 178, 119, 1.0)" />
	<rect x="70" y="100" width="10" height="10" fill="rgba(203, 182, 123, 1.0)" />
	<rect x="80" y="100" width="10" height="10" fill="rgba(199, 177, 118, 1.0)" />
	<rect x="90" y="100" width="10" height="10" fill="rgba(205, 184, 125, 1.0)" />
	<rect x="100" y="100" width="10" height="10" fill="rgba(202, 180, 122, 1.0)" />
	<rect x="110" y="100" width="10" height="10" fill="rgba(186, 162, 105, 1.0)" />
	<rect x="120" y="100" width="10" height="10" fill="rgba(211, 196, 135, 1.0)" />
	<rect x="130" y="100" width="10" height="10" fill="rgba(186, 162, 105, 1.0)" />
	<rect x="140" y="100" width="10" height="10" fill="rgba(186, 168, 116, 1.0)" />
	<rect x="150" y="100" width="10" height="10" fill="rgba(182, 157, 101, 1.0)" />
	<rect x="0" y="110" width="10" height="10" fill="rgba(177, 152, 96, 1.0)" />
	<rect x="10" y="110" width="10" height="10" fill="rgba(186, 162, 105, 1.0)" />
	<rect x="20" y="110" width="10" height="10" fill="rgba(186, 162, 105, 1.0)" />
	<rect x="30" y="110" width="10" height="10" fill="rgba(211, 196, 135, 1.0)" />
	<rect x="40" y="110" width="10" height="10" fill="rgba(210, 194, 134, 1.0)" />
	<rect x="50" y="110" width="10" height="10" fill="rgba(210, 195, 134, 1.0)" />
	<rect x="60" y="110" width="10" height="10" fill="rgba(200, 178, 119, 1.0)" />
	<rect x="70" y="110" width="10" height="10" fill="rgba(203, 182, 123, 1.0)" />
	<rect x="80" y="110" width="10" height="10" fill="rgba(196, 172, 114, 1.0)" />
	<rect x="90" y="110" width="10" height="10" fill="rgba(205, 184, 125, 1.0)" />
	<rect x="100" y="110" width="10" height="10" fill="rgba(205, 184, 125, 1.0)" />
	<rect x="110" y="110" width="10" height="10" fill="rgba(186, 162, 105, 1.0)" />
	<rect x="120" y="110" width="10" height="10" fill="rgba(199, 179, 120, 1.0)" />
	<rect x="130" y="110" width="10" height="10" fill="rgba(186, 168, 116, 1.0)" />
	<rect x="140" y="110" width="10" height="10" fill="rgba(177, 152, 96, 1.0)" />
	<rect x="150" y="110" width="10" height="10" fill="rgba(177, 152, 96, 1.0)" />
	<rect x="0" y="120" width="10" height="10" fill="rgba(177, 152, 96, 1.0)" />
	<rect x="10" y="120" width="10" height="10" fill="rgba(186, 162, 105, 1.0)" />
	<rect x="20" y="120" width="10" height="10" fill="rgba(186, 168, 116, 1.0)" />
	<rect x="30" y="120" width="10" height="10" fill="rgba(186, 168, 116, 1.0)" />
	<rect x="40" y="120" width="10" height="10" fill="rgba(211, 196, 135, 1.0)" />
	<rect x="50" y="120" width="10" height="10" fill="rgba(205, 188, 129, 1.0)" />
	<rect x="60" y="120" width="10" height="10" fill="rgba(201, 179, 120, 1.0)" />
	<rect x="70" y="120" width="10" height="10" fill="rgba(206, 186, 127, 1.0)" />
	<rect x="80" y="120" width="10" height="10" fill="rgba(196, 172, 114, 1.0)" />
	<rect x="90" y="120" width="10" height="10" fill="rgba(196, 172, 114, 1.0)" />
	<rect x="100" y="120" width="10" height="10" fill="rgba(205, 184, 125, 1.0)" />
	<rect x="110" y="120" width="10" height="10" fill="rgba(196, 172, 114, 1.0)" />
	<rect x="120" y="120" width="10" height="10" fill="rgba(186, 168, 116, 1.0)" />
	<rect x="130" y="120" width="10" height="10" fill="rgba(196, 172, 114, 1.0)" />
	<rect x="140" y="120" width="10" height="10" fill="rgba(186, 168, 116, 1.0)" />
	<rect x="150" y="120" width="10" height="10" fill="rgba(181, 160, 106, 1.0)" />
	<rect x="0" y="130" width="10" height="10" fill="rgba(182, 157, 101, 1.0)" />
	<rect x="10" y="130" width="10" height="10" fill="rgba(186, 168, 116, 1.0)" />
	<rect x="20" y="130" width="10" height="10" fill="rgba(196, 172, 114, 1.0)" />
	<rect x="30" y="130" width="10" height="10" fill="rgba(186, 168, 116, 1.0)" />
	<rect x="40" y="130" width="10" height="10" fill="rgba(204, 184, 125, 1.0)" />
	<rect x="50" y="130" width="10" height="10" fill="rgba(198, 174, 116, 1.0)" />
	<rect x="60" y="130" width="10" height="10" fill="rgba(198, 174, 116, 1.0)" />
	<rect x="70" y="130" width="10" height="10" fill="rgba(209, 192, 131, 1.0)" />
	<rect x="80" y="130" width="10" height="10" fill="rgba(201, 180, 121, 1.0)" />
	<rect x="90" y="130" width="10" height="10" fill="rgba(196, 172, 114, 1.0)" />
	<rect x="100" y="130" width="10" height="10" fill="rgba(205, 184, 125, 1.0)" />
	<rect x="110" y="130" width="10" height="10" fill="rgba(205, 184, 125, 1.0)" />
	<rect x="120" y="130" width="10" height="10" fill="rgba(205, 184, 125, 1.0)" />
	<rect x="130" y="130" width="10" height="10" fill="rgba(196, 172, 114, 1.0)" />
	<rect x="140" y="130" width="10" height="10" fill="rgba(182, 157, 101, 1.0)" />
	<rect x="150" y="130" width="10" height="10" fill="rgba(182, 157, 101, 1.0)" />
	<rect x="0" y="140" width="10" height="10" fill="rgba(186, 168, 116, 1.0)" />
	<rect x="10" y="140" width="10" height="10" fill="rgba(186, 168, 116, 1.0)" />
	<rect x="20" y="140" width="10" height="10" fill="rgba(206, 188, 128, 1.0)" />
	<rect x="30" y="140" width="10" height="10" fill="rgba(196, 172, 114, 1.0)" />
	<rect x="40" y="140" width="10" height="10" fill="rgba(198, 174, 116, 1.0)" />
	<rect x="50" y="140" width="10" height="10" fill="rgba(198, 174, 116, 1.0)" />
	<rect x="60" y="140" width="10" height="10" fill="rgba(204, 182, 124, 1.0)" />
	<rect x="70" y="140" width="10" height="10" fill="rgba(209, 192, 131, 1.0)" />
	<rect x="80" y="140" width="10" height="10" fill="rgba(207, 189, 129, 1.0)" />
	<rect x="90" y="140" width="10" height="10" fill="rgba(201, 180, 121, 1.0)" />
	<rect x="100" y="140" width="10" height="10" fill="rgba(205, 184, 125, 1.0)" />
	<rect x="110" y="140" width="10" height="10" fill="rgba(203, 181, 122, 1.0)" />
	<rect x="120" y="140" width="10" height="10" fill="rgba(203, 181, 122, 1.0)" />
	<rect x="130" y="140" width="10" height="10" fill="rgba(196, 172, 114, 1.0)" />
	<rect x="140" y="140" width="10" height="10" fill="rgba(182, 157, 101, 1.0)" />
	<rect x="150" y="140" width="10" height="10" fill="rgba(182, 157, 101, 1.0)" />
	<rect x="0" y="150" width="10" height="10" fill="rgba(177, 152, 96, 1.0)" />
	<rect x="10" y="150" width="10" height="10" fill="rgba(186, 168, 116, 1.0)" />
	<rect x="20" y="150" width="10" height="10" fill="rgba(186, 168, 116, 1.0)" />
	<rect x="30" y="150" width="10" height="10" fill="rgba(206, 188, 128, 1.0)" />
	<rect x="40" y="150" width="10" height="10" fill="rgba(199, 176, 118, 1.0)" />
	<rect x="50" y="150" width="10" height="10" fill="rgba(202, 179, 121, 1.0)" />
	<rect x="60" y="150" width="10" height="10" fill="rgba(206, 187, 127, 1.0)" />
	<rect x="70" y="150" width="10" height="10" fill="rgba(206, 187, 127, 1.0)" />
	<rect x="80" y="150" width="10" height="10" fill="rgba(207, 189, 129, 1.0)" />
	<rect x="90" y="150" width="10" height="10" fill="rgba(206, 187, 127, 1.0)" />
	<rect x="100" y="150" width="10" height="10" fill="rgba(203, 181, 122, 1.0)" />
	<rect x="110" y="150" width="10" height="10" fill="rgba(203, 181, 122, 1.0)" />
	<rect x="120" y="150" width="10" height="10" fill="rgba(196, 172, 114, 1.0)" />
	<rect x="130" y="150" width="10" height="10" fill="rgba(182, 157, 101, 1.0)" />
	<rect x="140" y="150" width="10" height="10" fill="rgba(182, 157, 101, 1.0)" />
	<rect x="150" y="150" width="10" height="10" fill="rgba(181, 160, 106, 1.0)" />
</svg>