<svg xmlns="http://www.w3.org/2000/svg" xmlns:xlink="http://www.w3.org/1999/xlink">
	<rect x="0" y="0" width="10" height="10" fill="rgba(242, 231, 193, 1.0)" />
	<rect x="10" y="0" width="10" height="10" fill="rgba(244, 235, 204, 1.0)" />
	<rect x="20" y="0" width="10" height="10" fill="rgba(246, 239, 213, 1.0)" />
	<rect x="30" y="0" width="10" height="10" fill="rgba(242, 231, 193, 1.0)" />
	<rect x="40" y="0" width="10" height="10" fill="rgba(255, 255, 255, 0.0)" />
	<rect x="50" y="0" width="10" height="10" fill="rgba(245, 236, 201, 1.0)" />
	<rect x="60" y="0" width="10" height="10" fill="rgba(247, 241, 217, 1.0)" />
	<rect x="70" y="0" width="10" height="10" fill="rgba(245, 236, 201, 1.0)" />
	<rect x="80" y="0" width="10" height="10" fill="rgba(0, 0, 0, 0.0)" />
	<rect x="90" y="0" width="10" height="10" fill="rgba(0, 0, 0, 0.0)" />
	<rect x="100" y="0" width="10" height="10" fill="rgba(255, 255, 255, 0.0)" />
	<rect x="110" y="0" width="10" height="10" fill="rgba(255, 255, 255, 0.0)" />
	<rect x="120" y="0" width="10" height="10" fill="rgba(255, 255, 255, 0.0)" />
	<rect x="130" y="0" width="10" height="10" fill="rgba(255, 255, 255, 0.0)" />
	<rect x="140" y="0" width="10" height="10" fill="rgba(255, 255, 255, 0.0)" />
	<rect x="150" y="0" width="10" height="10" fill="rgba(0, 0, 0, 0.0)" />
	<rect x="0" y="10" width="10" height="10" fill="rgba(246, 239, 213, 1.0)" />
	<rect x="10" y="10" width="10" height="10" fill="rgba(247, 241, 217, 1.0)" />
	<rect x="20" y="10" width="10" height="10" fill="rgba(72, 167, 142, 1.0)" />
	<rect x="30" y="10" width="10" height="10" fill="rgba(246, 239, 213, 1.0)" />
	<rect x="40" y="10" width="10" height="10" fill="rgba(255, 255, 255, 0.0)" />
	<rect x="50" y="10" width="10" height="10" fill="rgba(247, 241, 217, 1.0)" />
	<rect x="60" y="10" width="10" height="10" fill="rgba(72, 167, 142, 1.0)" />
	<rect x="70" y="10" width="10" height="10" fill="rgba(245, 236, 201, 1.0)" />
	<rect x="80" y="10" width="10" height="10" fill="rgba(0, 0, 0, 0.0)" />
	<rect x="90" y="10" width="10" height="10" fill="rgba(0, 0, 0, 0.0)" />
	<rect x="100" y="10" width="10" height="10" fill="rgba(255, 255, 255, 0.0)" />
	<rect x="110" y="10" width="10" height="10" fill="rgba(255, 255, 255, 0.0)" />
	<rect x="120" y="10" width="10" height="10" fill="rgba(255, 255, 255, 0.0)" />
	<rect x="130" y="10" width="10" height="10" fill="rgba(255, 255, 255, 0.0)" />
	<rect x="140" y="10" width="10" height="10" fill="rgba(255, 255, 255, 0.0)" />
	<rect x="150" y="10" width="10" height="10" fill="rgba(0, 0, 0, 0.0)" />
	<rect x="0" y="20" width="10" height="10" fill="rgba(245, 237, 208, 1.0)" />
	<rect x="10" y="20" width="10" height="10" fill="rgba(247, 241, 217, 1.0)" />
	<rect x="20" y="20" width="10" height="10" fill="rgba(247, 241, 217, 1.0)" />
	<rect x="30" y="20" width="10" height="10" fill="rgba(246, 239, 213, 1.0)" />
	<rect x="40" y="20" width="10" height="10" fill="rgba(255, 255, 255, 0.0)" />
	<rect x="50" y="20" width="10" height="10" fill="rgba(245, 236, 201, 1.0)" />
	<rect x="60" y="20" width="10" height="10" fill="rgba(245, 236, 201, 1.0)" />
	<rect x="70" y="20" width="10" height="10" fill="rgba(242, 226, 169, 1.0)" />
	<rect x="80" y="20" width="10" height="10" fill="rgba(0, 0, 0, 0.0)" />
	<rect x="90" y="20" width="10" height="10" fill="rgba(0, 0, 0, 0.0)" />
	<rect x="100" y="20" width="10" height="10" fill="rgba(255, 255, 255, 0.0)" />
	<rect x="110" y="20" width="10" height="10" fill="rgba(255, 255, 255, 0.0)" />
	<rect x="120" y="20" width="10" height="10" fill="rgba(255, 255, 255, 0.0)" />
	<rect x="130" y="20" width="10" height="10" fill="rgba(255, 255, 255, 0.0)" />
	<rect x="140" y="20" width="10" height="10" fill="rgba(255, 255, 255, 0.0)" />
	<rect x="150" y="20" width="10" height="10" fill="rgba(0, 0, 0, 0.0)" />
	<rect x="0" y="30" width="10" height="10" fill="rgba(242, 231, 193, 1.0)" />
	<rect x="10" y="30" width="10" height="10" fill="rgba(52, 121, 103, 1.0)" />
	<rect x="20" y="30" width="10" height="10" fill="rgba(245, 237, 208, 1.0)" />
	<rect x="30" y="30" width="10" height="10" fill="rgba(242, 231, 193, 1.0)" />
	<rect x="40" y="30" width="10" height="10" fill="rgba(255, 255, 255, 0.0)" />
	<rect x="50" y="30" width="10" height="10" fill="rgba(255, 255, 255, 0.0)" />
	<rect x="60" y="30" width="10" height="10" fill="rgba(255, 255, 255, 0.0)" />
	<rect x="70" y="30" width="10" height="10" fill="rgba(0, 0, 0, 0.0)" />
	<rect x="80" y="30" width="10" height="10" fill="rgba(247, 241, 217, 1.0)" />
	<rect x="90" y="30" width="10" height="10" fill="rgba(247, 241, 217, 1.0)" />
	<rect x="100" y="30" width="10" height="10" fill="rgba(247, 241, 217, 1.0)" />
	<rect x="110" y="30" width="10" height="10" fill="rgba(0, 0, 0, 0.0)" />
	<rect x="120" y="30" width="10" height="10" fill="rgba(255, 255, 255, 0.0)" />
	<rect x="130" y="30" width="10" height="10" fill="rgba(255, 255, 255, 0.0)" />
	<rect x="140" y="30" width="10" height="10" fill="rgba(255, 255, 255, 0.0)" />
	<rect x="150" y="30" width="10" height="10" fill="rgba(255, 255, 255, 0.0)" />
	<rect x="0" y="40" width="10" height="10" fill="rgba(255, 255, 255, 0.0)" />
	<rect x="10" y="40" width="10" height="10" fill="rgba(247, 241, 217, 1.0)" />
	<rect x="20" y="40" width="10" height="10" fill="rgba(247, 241, 217, 1.0)" />
	<rect x="30" y="40" width="10" height="10" fill="rgba(247, 241, 217, 1.0)" />
	<rect x="40" y="40" width="10" height="10" fill="rgba(247, 241, 217, 1.0)" />
	<rect x="50" y="40" width="10" height="10" fill="rgba(255, 255, 255, 0.0)" />
	<rect x="60" y="40" width="10" height="10" fill="rgba(255, 255, 255, 0.0)" />
	<rect x="70" y="40" width="10" height="10" fill="rgba(255, 255, 255, 0.0)" />
	<rect x="80" y="40" width="10" height="10" fill="rgba(242, 233, 199, 1.0)" />
	<rect x="90" y="40" width="10" height="10" fill="rgba(247, 241, 217, 1.0)" />
	<rect x="100" y="40" width="10" height="10" fill="rgba(72, 167, 142, 1.0)" />
	<rect x="110" y="40" width="10" height="10" fill="rgba(255, 255, 255, 0.0)" />
	<rect x="120" y="40" width="10" height="10" fill="rgba(255, 255, 255, 0.0)" />
	<rect x="130" y="40" width="10" height="10" fill="rgba(255, 255, 255, 0.0)" />
	<rect x="140" y="40" width="10" height="10" fill="rgba(255, 255, 255, 0.0)" />
	<rect x="150" y="40" width="10" height="10" fill="rgba(255, 255, 255, 0.0)" />
	<rect x="0" y="50" width="10" height="10" fill="rgba(255, 255, 255, 0.0)" />
	<rect x="10" y="50" width="10" height="10" fill="rgba(245, 236, 201, 1.0)" />
	<rect x="20" y="50" width="10" height="10" fill="rgba(72, 167, 142, 1.0)" />
	<rect x="30" y="50" width="10" height="10" fill="rgba(247, 241, 217, 1.0)" />
	<rect x="40" y="50" width="10" height="10" fill="rgba(247, 241, 217, 1.0)" />
	<rect x="50" y="50" width="10" height="10" fill="rgba(255, 255, 255, 0.0)" />
	<rect x="60" y="50" width="10" height="10" fill="rgba(255, 255, 255, 0.0)" />
	<rect x="70" y="50" width="10" height="10" fill="rgba(255, 255, 255, 0.0)" />
	<rect x="80" y="50" width="10" height="10" fill="rgba(242, 233, 199, 1.0)" />
	<rect x="90" y="50" width="10" height="10" fill="rgba(242, 233, 199, 1.0)" />
	<rect x="100" y="50" width="10" height="10" fill="rgba(247, 241, 217, 1.0)" />
	<rect x="110" y="50" width="10" height="10" fill="rgba(255, 255, 255, 0.0)" />
	<rect x="120" y="50" width="10" height="10" fill="rgba(255, 255, 255, 0.0)" />
	<rect x="130" y="50" width="10" height="10" fill="rgba(255, 255, 255, 0.0)" />
	<rect x="140" y="50" width="10" height="10" fill="rgba(255, 255, 255, 0.0)" />
	<rect x="150" y="50" width="10" height="10" fill="rgba(255, 255, 255, 0.0)" />
	<rect x="0" y="60" width="10" height="10" fill="rgba(255, 255, 255, 0.0)" />
	<rect x="10" y="60" width="10" height="10" fill="rgba(247, 241, 217, 1.0)" />
	<rect x="20" y="60" width="10" height="10" fill="rgba(247, 241, 217, 1.0)" />
	<rect x="30" y="60" width="10" height="10" fill="rgba(245, 236, 201, 1.0)" />
	<rect x="40" y="60" width="10" height="10" fill="rgba(247, 241, 217, 1.0)" />
	<rect x="50" y="60" width="10" height="10" fill="rgba(255, 255, 255, 0.0)" />
	<rect x="60" y="60" width="10" height="10" fill="rgba(255, 255, 255, 0.0)" />
	<rect x="70" y="60" width="10" height="10" fill="rgba(255, 255, 255, 0.0)" />
	<rect x="80" y="60" width="10" height="10" fill="rgba(242, 226, 169, 1.0)" />
	<rect x="90" y="60" width="10" height="10" fill="rgba(242, 233, 199, 1.0)" />
	<rect x="100" y="60" width="10" height="10" fill="rgba(242, 233, 199, 1.0)" />
	<rect x="110" y="60" width="10" height="10" fill="rgba(255, 255, 255, 0.0)" />
	<rect x="120" y="60" width="10" height="10" fill="rgba(255, 255, 255, 0.0)" />
	<rect x="130" y="60" width="10" height="10" fill="rgba(255, 255, 255, 0.0)" />
	<rect x="140" y="60" width="10" height="10" fill="rgba(255, 255, 255, 0.0)" />
	<rect x="150" y="60" width="10" height="10" fill="rgba(255, 255, 255, 0.0)" />
	<rect x="0" y="70" width="10" height="10" fill="rgba(255, 255, 255, 0.0)" />
	<rect x="10" y="70" width="10" height="10" fill="rgba(247, 241, 217, 1.0)" />
	<rect x="20" y="70" width="10" height="10" fill="rgba(247, 241, 217, 1.0)" />
	<rect x="30" y="70" width="10" height="10" fill="rgba(247, 241, 217, 1.0)" />
	<rect x="40" y="70" width="10" height="10" fill="rgba(52, 121, 103, 1.0)" />
	<rect x="50" y="70" width="10" height="10" fill="rgba(255, 255, 255, 0.0)" />
	<rect x="60" y="70" width="10" height="10" fill="rgba(245, 236, 201, 1.0)" />
	<rect x="70" y="70" width="10" height="10" fill="rgba(247, 241, 217, 1.0)" />
	<rect x="80" y="70" width="10" height="10" fill="rgba(245, 236, 201, 1.0)" />
	<rect x="90" y="70" width="10" height="10" fill="rgba(244, 234, 196, 1.0)" />
	<rect x="100" y="70" width="10" height="10" fill="rgba(255, 255, 255, 0.0)" />
	<rect x="110" y="70" width="10" height="10" fill="rgba(255, 255, 255, 0.0)" />
	<rect x="120" y="70" width="10" height="10" fill="rgba(255, 255, 255, 0.0)" />
	<rect x="130" y="70" width="10" height="10" fill="rgba(255, 255, 255, 0.0)" />
	<rect x="140" y="70" width="10" height="10" fill="rgba(255, 255, 255, 0.0)" />
	<rect x="150" y="70" width="10" height="10" fill="rgba(0, 0, 0, 0.0)" />
	<rect x="0" y="80" width="10" height="10" fill="rgba(0, 0, 0, 0.0)" />
	<rect x="10" y="80" width="10" height="10" fill="rgba(247, 241, 217, 1.0)" />
	<rect x="20" y="80" width="10" height="10" fill="rgba(243, 234, 202, 1.0)" />
	<rect x="30" y="80" width="10" height="10" fill="rgba(244, 233, 191, 1.0)" />
	<rect x="40" y="80" width="10" height="10" fill="rgba(247, 241, 217, 1.0)" />
	<rect x="50" y="80" width="10" height="10" fill="rgba(255, 255, 255, 0.0)" />
	<rect x="60" y="80" width="10" height="10" fill="rgba(247, 241, 217, 1.0)" />
	<rect x="70" y="80" width="10" height="10" fill="rgba(242, 226, 169, 1.0)" />
	<rect x="80" y="80" width="10" height="10" fill="rgba(245, 236, 201, 1.0)" />
	<rect x="90" y="80" width="10" height="10" fill="rgba(244, 232, 190, 1.0)" />
	<rect x="100" y="80" width="10" height="10" fill="rgba(255, 255, 255, 0.0)" />
	<rect x="110" y="80" width="10" height="10" fill="rgba(255, 255, 255, 0.0)" />
	<rect x="120" y="80" width="10" height="10" fill="rgba(255, 255, 255, 0.0)" />
	<rect x="130" y="80" width="10" height="10" fill="rgba(255, 255, 255, 0.0)" />
	<rect x="140" y="80" width="10" height="10" fill="rgba(255, 255, 255, 0.0)" />
	<rect x="150" y="80" width="10" height="10" fill="rgba(0, 0, 0, 0.0)" />
	<rect x="0" y="90" width="10" height="10" fill="rgba(0, 0, 0, 0.0)" />
	<rect x="10" y="90" width="10" height="10" fill="rgba(58, 135, 114, 1.0)" />
	<rect x="20" y="90" width="10" height="10" fill="rgba(242, 228, 180, 1.0)" />
	<rect x="30" y="90" width="10" height="10" fill="rgba(243, 233, 198, 1.0)" />
	<rect x="40" y="90" width="10" height="10" fill="rgba(242, 233, 199, 1.0)" />
	<rect x="50" y="90" width="10" height="10" fill="rgba(255, 255, 255, 0.0)" />
	<rect x="60" y="90" width="10" height="10" fill="rgba(245, 236, 201, 1.0)" />
	<rect x="70" y="90" width="10" height="10" fill="rgba(245, 237, 205, 1.0)" />
	<rect x="80" y="90" width="10" height="10" fill="rgba(243, 229, 181, 1.0)" />
	<rect x="90" y="90" width="10" height="10" fill="rgba(243, 229, 181, 1.0)" />
	<rect x="100" y="90" width="10" height="10" fill="rgba(255, 255, 255, 0.0)" />
	<rect x="110" y="90" width="10" height="10" fill="rgba(255, 255, 255, 0.0)" />
	<rect x="120" y="90" width="10" height="10" fill="rgba(255, 255, 255, 0.0)" />
	<rect x="130" y="90" width="10" height="10" fill="rgba(255, 255, 255, 0.0)" />
	<rect x="140" y="90" width="10" height="10" fill="rgba(255, 255, 255, 0.0)" />
	<rect x="150" y="90" width="10" height="10" fill="rgba(0, 0, 0, 0.0)" />
	<rect x="0" y="100" width="10" height="10" fill="rgba(0, 0, 0, 0.0)" />
	<rect x="10" y="100" width="10" height="10" fill="rgba(242, 226, 169, 1.0)" />
	<rect x="20" y="100" width="10" height="10" fill="rgba(242, 228, 180, 1.0)" />
	<rect x="30" y="100" width="10" height="10" fill="rgba(242, 226, 169, 1.0)" />
	<rect x="40" y="100" width="10" height="10" fill="rgba(242, 228, 180, 1.0)" />
	<rect x="50" y="100" width="10" height="10" fill="rgba(255, 255, 255, 0.0)" />
	<rect x="60" y="100" width="10" height="10" fill="rgba(244, 234, 194, 1.0)" />
	<rect x="70" y="100" width="10" height="10" fill="rgba(245, 237, 206, 1.0)" />
	<rect x="80" y="100" width="10" height="10" fill="rgba(244, 234, 194, 1.0)" />
	<rect x="90" y="100" width="10" height="10" fill="rgba(242, 226, 169, 1.0)" />
	<rect x="100" y="100" width="10" height="10" fill="rgba(247, 241, 217, 1.0)" />
	<rect x="110" y="100" width="10" height="10" fill="rgba(247, 241, 217, 1.0)" />
	<rect x="120" y="100" width="10" height="10" fill="rgba(72, 167, 142, 1.0)" />
	<rect x="130" y="100" width="10" height="10" fill="rgba(244, 232, 190, 1.0)" />
	<rect x="140" y="100" width="10" height="10" fill="rgba(255, 255, 255, 0.0)" />
	<rect x="150" y="100" width="10" height="10" fill="rgba(0, 0, 0, 0.0)" />
	<rect x="0" y="110" width="10" height="10" fill="rgba(72, 167, 142, 1.0)" />
	<rect x="10" y="110" width="10" height="10" fill="rgba(242, 233, 199, 1.0)" />
	<rect x="20" y="110" width="10" height="10" fill="rgba(242, 226, 169, 1.0)" />
	<rect x="30" y="110" width="10" height="10" fill="rgba(242, 230, 188, 1.0)" />
	<rect x="40" y="110" width="10" height="10" fill="rgba(247, 241, 217, 1.0)" />
	<rect x="50" y="110" width="10" height="10" fill="rgba(242, 233, 199, 1.0)" />
	<rect x="60" y="110" width="10" height="10" fill="rgba(247, 241, 217, 1.0)" />
	<rect x="70" y="110" width="10" height="10" fill="rgba(242, 233, 199, 1.0)" />
	<rect x="80" y="110" width="10" height="10" fill="rgba(255, 255, 255, 0.0)" />
	<rect x="90" y="110" width="10" height="10" fill="rgba(255, 255, 255, 0.0)" />
	<rect x="100" y="110" width="10" height="10" fill="rgba(242, 233, 199, 1.0)" />
	<rect x="110" y="110" width="10" height="10" fill="rgba(247, 241, 217, 1.0)" />
	<rect x="120" y="110" width="10" height="10" fill="rgba(243, 229, 181, 1.0)" />
	<rect x="130" y="110" width="10" height="10" fill="rgba(242, 226, 169, 1.0)" />
	<rect x="140" y="110" width="10" height="10" fill="rgba(255, 255, 255, 0.0)" />
	<rect x="150" y="110" width="10" height="10" fill="rgba(0, 0, 0, 0.0)" />
	<rect x="0" y="120" width="10" height="10" fill="rgba(242, 233, 199, 1.0)" />
	<rect x="10" y="120" width="10" height="10" fill="rgba(247, 241, 217, 1.0)" />
	<rect x="20" y="120" width="10" height="10" fill="rgba(242, 233, 199, 1.0)" />
	<rect x="30" y="120" width="10" height="10" fill="rgba(242, 228, 181, 1.0)" />
	<rect x="40" y="120" width="10" height="10" fill="rgba(242, 233, 199, 1.0)" />
	<rect x="50" y="120" width="10" height="10" fill="rgba(242, 233, 199, 1.0)" />
	<rect x="60" y="120" width="10" height="10" fill="rgba(72, 167, 142, 1.0)" />
	<rect x="70" y="120" width="10" height="10" fill="rgba(242, 230, 188, 1.0)" />
	<rect x="80" y="120" width="10" height="10" fill="rgba(255, 255, 255, 0.0)" />
	<rect x="90" y="120" width="10" height="10" fill="rgba(255, 255, 255, 0.0)" />
	<rect x="100" y="120" width="10" height="10" fill="rgba(242, 233, 199, 1.0)" />
	<rect x="110" y="120" width="10" height="10" fill="rgba(52, 121, 103, 1.0)" />
	<rect x="120" y="120" width="10" height="10" fill="rgba(247, 241, 217, 1.0)" />
	<rect x="130" y="120" width="10" height="10" fill="rgba(244, 232, 190, 1.0)" />
	<rect x="140" y="120" width="10" height="10" fill="rgba(255, 255, 255, 0.0)" />
	<rect x="150" y="120" width="10" height="10" fill="rgba(0, 0, 0, 0.0)" />
	<rect x="0" y="130" width="10" height="10" fill="rgba(242, 226, 169, 1.0)" />
	<rect x="10" y="130" width="10" height="10" fill="rgba(72, 167, 142, 1.0)" />
	<rect x="20" y="130" width="10" height="10" fill="rgba(242, 226, 169, 1.0)" />
	<rect x="30" y="130" width="10" height="10" fill="rgba(242, 227, 176, 1.0)" />
	<rect x="40" y="130" width="10" height="10" fill="rgba(242, 226, 169, 1.0)" />
	<rect x="50" y="130" width="10" height="10" fill="rgba(242, 233, 199, 1.0)" />
	<rect x="60" y="130" width="10" height="10" fill="rgba(242, 226, 169, 1.0)" />
	<rect x="70" y="130" width="10" height="10" fill="rgba(242, 230, 188, 1.0)" />
	<rect x="80" y="130" width="10" height="10" fill="rgba(0, 0, 0, 0.0)" />
	<rect x="90" y="130" width="10" height="10" fill="rgba(0, 0, 0, 0.0)" />
	<rect x="100" y="130" width="10" height="10" fill="rgba(244, 232, 190, 1.0)" />
	<rect x="110" y="130" width="10" height="10" fill="rgba(242, 233, 199, 1.0)" />
	<rect x="120" y="130" width="10" height="10" fill="rgba(242, 233, 199, 1.0)" />
	<rect x="130" y="130" width="10" height="10" fill="rgba(243, 229, 181, 1.0)" />
	<rect x="140" y="130" width="10" height="10" fill="rgba(0, 0, 0, 0.0)" />
	<rect x="150" y="130" width="10" height="10" fill="rgba(0, 0, 0, 0.0)" />
	<rect x="0" y="140" width="10" height="10" fill="rgba(242, 233, 199, 1.0)" />
	<rect x="10" y="140" width="10" height="10" fill="rgba(242, 230, 188, 1.0)" />
	<rect x="20" y="140" width="10" height="10" fill="rgba(242, 227, 176, 1.0)" />
	<rect x="30" y="140" width="10" height="10" fill="rgba(242, 226, 169, 1.0)" />
	<rect x="40" y="140" width="10" height="10" fill="rgba(242, 233, 199, 1.0)" />
	<rect x="50" y="140" width="10" height="10" fill="rgba(242, 230, 188, 1.0)" />
	<rect x="60" y="140" width="10" height="10" fill="rgba(242, 230, 188, 1.0)" />
	<rect x="70" y="140" width="10" height="10" fill="rgba(242, 226, 171, 1.0)" />
	<rect x="80" y="140" width="10" height="10" fill="rgba(0, 0, 0, 0.0)" />
	<rect x="90" y="140" width="10" height="10" fill="rgba(0, 0, 0, 0.0)" />
	<rect x="100" y="140" width="10" height="10" fill="rgba(243, 229, 181, 1.0)" />
	<rect x="110" y="140" width="10" height="10" fill="rgba(244, 232, 190, 1.0)" />
	<rect x="120" y="140" width="10" height="10" fill="rgba(243, 229, 181, 1.0)" />
	<rect x="130" y="140" width="10" height="10" fill="rgba(242, 226, 169, 1.0)" />
	<rect x="140" y="140" width="10" height="10" fill="rgba(0, 0, 0, 0.0)" />
	<rect x="150" y="140" width="10" height="10" fill="rgba(0, 0, 0, 0.0)" />
	<rect x="0" y="150" width="10" height="10" fill="rgba(0, 0, 0, 0.0)" />
	<rect x="10" y="150" width="10" height="10" fill="rgba(0, 0, 0, 0.0)" />
	<rect x="20" y="150" width="10" height="10" fill="rgba(0, 0, 0, 0.0)" />
	<rect x="30" y="150" width="10" height="10" fill="rgba(0, 0, 0, 0.0)" />
	<rect x="40" y="150" width="10" height="10" fill="rgba(255, 255, 255, 0.0)" />
	<rect x="50" y="150" width="10" height="10" fill="rgba(255, 255, 255, 0.0)" />
	<rect x="60" y="150" width="10" height="10" fill="rgba(255, 255, 255, 0.0)" />
	<rect x="70" y="150" width="10" height="10" fill="rgba(0, 0, 0, 0.0)" />
	<rect x="80" y="150" width="10" height="10" fill="rgba(0, 0, 0, 0.0)" />
	<rect x="90" y="150" width="10" height="10" fill="rgba(0, 0, 0, 0.0)" />
	<rect x="100" y="150" width="10" height="10" fill="rgba(0, 0, 0, 0.0)" />
	<rect x="110" y="150" width="10" height="10" fill="rgba(0, 0, 0, 0.0)" />
	<rect x="120" y="150" width="10" height="10" fill="rgba(0, 0, 0, 0.0)" />
	<rect x="130" y="150" width="10" height="10" fill="rgba(0, 0, 0, 0.0)" />
	<rect x="140" y="150" width="10" height="10" fill="rgba(0, 0, 0, 0.0)" />
	<rect x="150" y="150" width="10" height="10" fill="rgba(0, 0, 0, 0.0)" />
</svg>