<svg xmlns="http://www.w3.org/2000/svg" xmlns:xlink="http://www.w3.org/1999/xlink">
	<rect x="0" y="0" width="10" height="10" fill="rgba(202, 208, 209, 1.0)" />
	<rect x="10" y="0" width="10" height="10" fill="rgba(222, 227, 228, 1.0)" />
	<rect x="20" y="0" width="10" height="10" fill="rgba(222, 227, 228, 1.0)" />
	<rect x="30" y="0" width="10" height="10" fill="rgba(202, 208, 209, 1.0)" />
	<rect x="40" y="0" width="10" height="10" fill="rgba(202, 208, 209, 1.0)" />
	<rect x="50" y="0" width="10" height="10" fill="rgba(222, 227, 227, 1.0)" />
	<rect x="60" y="0" width="10" height="10" fill="rgba(222, 227, 227, 1.0)" />
	<rect x="70" y="0" width="10" height="10" fill="rgba(207, 213, 214, 1.0)" />
	<rect x="80" y="0" width="10" height="10" fill="rgba(197, 204, 205, 1.0)" />
	<rect x="90" y="0" width="10" height="10" fill="rgba(222, 227, 227, 1.0)" />
	<rect x="100" y="0" width="10" height="10" fill="rgba(222, 227, 227, 1.0)" />
	<rect x="110" y="0" width="10" height="10" fill="rgba(207, 213, 214, 1.0)" />
	<rect x="120" y="0" width="10" height="10" fill="rgba(202, 208, 209, 1.0)" />
	<rect x="130" y="0" width="10" height="10" fill="rgba(222, 227, 227, 1.0)" />
	<rect x="140" y="0" width="10" height="10" fill="rgba(222, 227, 227, 1.0)" />
	<rect x="150" y="0" width="10" height="10" fill="rgba(192, 198, 199, 1.0)" />
	<rect x="0" y="10" width="10" height="10" fill="rgba(222, 227, 227, 1.0)" />
	<rect x="10" y="10" width="10" height="10" fill="rgba(187, 193, 194, 1.0)" />
	<rect x="20" y="10" width="10" height="10" fill="rgba(190, 196, 197, 1.0)" />
	<rect x="30" y="10" width="10" height="10" fill="rgba(213, 218, 219, 1.0)" />
	<rect x="40" y="10" width="10" height="10" fill="rgba(213, 218, 219, 1.0)" />
	<rect x="50" y="10" width="10" height="10" fill="rgba(190, 196, 197, 1.0)" />
	<rect x="60" y="10" width="10" height="10" fill="rgba(187, 193, 194, 1.0)" />
	<rect x="70" y="10" width="10" height="10" fill="rgba(213, 218, 219, 1.0)" />
	<rect x="80" y="10" width="10" height="10" fill="rgba(213, 218, 219, 1.0)" />
	<rect x="90" y="10" width="10" height="10" fill="rgba(190, 196, 197, 1.0)" />
	<rect x="100" y="10" width="10" height="10" fill="rgba(187, 193, 194, 1.0)" />
	<rect x="110" y="10" width="10" height="10" fill="rgba(213, 218, 219, 1.0)" />
	<rect x="120" y="10" width="10" height="10" fill="rgba(213, 218, 219, 1.0)" />
	<rect x="130" y="10" width="10" height="10" fill="rgba(190, 196, 197, 1.0)" />
	<rect x="140" y="10" width="10" height="10" fill="rgba(190, 196, 197, 1.0)" />
	<rect x="150" y="10" width="10" height="10" fill="rgba(202, 208, 209, 1.0)" />
	<rect x="0" y="20" width="10" height="10" fill="rgba(222, 227, 228, 1.0)" />
	<rect x="10" y="20" width="10" height="10" fill="rgba(190, 196, 197, 1.0)" />
	<rect x="20" y="20" width="10" height="10" fill="rgba(213, 218, 219, 1.0)" />
	<rect x="30" y="20" width="10" height="10" fill="rgba(228, 233, 233, 1.0)" />
	<rect x="40" y="20" width="10" height="10" fill="rgba(228, 233, 233, 1.0)" />
	<rect x="50" y="20" width="10" height="10" fill="rgba(213, 218, 219, 1.0)" />
	<rect x="60" y="20" width="10" height="10" fill="rgba(213, 218, 219, 1.0)" />
	<rect x="70" y="20" width="10" height="10" fill="rgba(228, 233, 233, 1.0)" />
	<rect x="80" y="20" width="10" height="10" fill="rgba(228, 233, 233, 1.0)" />
	<rect x="90" y="20" width="10" height="10" fill="rgba(213, 218, 219, 1.0)" />
	<rect x="100" y="20" width="10" height="10" fill="rgba(210, 216, 217, 1.0)" />
	<rect x="110" y="20" width="10" height="10" fill="rgba(230, 234, 234, 1.0)" />
	<rect x="120" y="20" width="10" height="10" fill="rgba(230, 234, 234, 1.0)" />
	<rect x="130" y="20" width="10" height="10" fill="rgba(212, 217, 218, 1.0)" />
	<rect x="140" y="20" width="10" height="10" fill="rgba(190, 196, 197, 1.0)" />
	<rect x="150" y="20" width="10" height="10" fill="rgba(197, 204, 205, 1.0)" />
	<rect x="0" y="30" width="10" height="10" fill="rgba(202, 208, 209, 1.0)" />
	<rect x="10" y="30" width="10" height="10" fill="rgba(213, 218, 219, 1.0)" />
	<rect x="20" y="30" width="10" height="10" fill="rgba(228, 233, 233, 1.0)" />
	<rect x="30" y="30" width="10" height="10" fill="rgba(230, 234, 234, 1.0)" />
	<rect x="40" y="30" width="10" height="10" fill="rgba(226, 231, 231, 1.0)" />
	<rect x="50" y="30" width="10" height="10" fill="rgba(226, 231, 231, 1.0)" />
	<rect x="60" y="30" width="10" height="10" fill="rgba(230, 234, 234, 1.0)" />
	<rect x="70" y="30" width="10" height="10" fill="rgba(230, 234, 234, 1.0)" />
	<rect x="80" y="30" width="10" height="10" fill="rgba(230, 234, 234, 1.0)" />
	<rect x="90" y="30" width="10" height="10" fill="rgba(228, 233, 233, 1.0)" />
	<rect x="100" y="30" width="10" height="10" fill="rgba(226, 231, 231, 1.0)" />
	<rect x="110" y="30" width="10" height="10" fill="rgba(230, 234, 234, 1.0)" />
	<rect x="120" y="30" width="10" height="10" fill="rgba(230, 234, 234, 1.0)" />
	<rect x="130" y="30" width="10" height="10" fill="rgba(230, 234, 234, 1.0)" />
	<rect x="140" y="30" width="10" height="10" fill="rgba(213, 218, 219, 1.0)" />
	<rect x="150" y="30" width="10" height="10" fill="rgba(182, 188, 189, 1.0)" />
	<rect x="0" y="40" width="10" height="10" fill="rgba(197, 204, 205, 1.0)" />
	<rect x="10" y="40" width="10" height="10" fill="rgba(213, 218, 219, 1.0)" />
	<rect x="20" y="40" width="10" height="10" fill="rgba(230, 234, 234, 1.0)" />
	<rect x="30" y="40" width="10" height="10" fill="rgba(230, 234, 234, 1.0)" />
	<rect x="40" y="40" width="10" height="10" fill="rgba(230, 234, 234, 1.0)" />
	<rect x="50" y="40" width="10" height="10" fill="rgba(230, 234, 234, 1.0)" />
	<rect x="60" y="40" width="10" height="10" fill="rgba(230, 234, 234, 1.0)" />
	<rect x="70" y="40" width="10" height="10" fill="rgba(230, 234, 234, 1.0)" />
	<rect x="80" y="40" width="10" height="10" fill="rgba(230, 234, 234, 1.0)" />
	<rect x="90" y="40" width="10" height="10" fill="rgba(230, 234, 234, 1.0)" />
	<rect x="100" y="40" width="10" height="10" fill="rgba(232, 235, 236, 1.0)" />
	<rect x="110" y="40" width="10" height="10" fill="rgba(228, 233, 233, 1.0)" />
	<rect x="120" y="40" width="10" height="10" fill="rgba(228, 233, 233, 1.0)" />
	<rect x="130" y="40" width="10" height="10" fill="rgba(228, 233, 233, 1.0)" />
	<rect x="140" y="40" width="10" height="10" fill="rgba(213, 218, 219, 1.0)" />
	<rect x="150" y="40" width="10" height="10" fill="rgba(182, 188, 189, 1.0)" />
	<rect x="0" y="50" width="10" height="10" fill="rgba(222, 227, 227, 1.0)" />
	<rect x="10" y="50" width="10" height="10" fill="rgba(190, 196, 197, 1.0)" />
	<rect x="20" y="50" width="10" height="10" fill="rgba(213, 218, 219, 1.0)" />
	<rect x="30" y="50" width="10" height="10" fill="rgba(228, 233, 233, 1.0)" />
	<rect x="40" y="50" width="10" height="10" fill="rgba(228, 233, 233, 1.0)" />
	<rect x="50" y="50" width="10" height="10" fill="rgba(230, 234, 234, 1.0)" />
	<rect x="60" y="50" width="10" height="10" fill="rgba(230, 234, 234, 1.0)" />
	<rect x="70" y="50" width="10" height="10" fill="rgba(230, 234, 234, 1.0)" />
	<rect x="80" y="50" width="10" height="10" fill="rgba(228, 233, 233, 1.0)" />
	<rect x="90" y="50" width="10" height="10" fill="rgba(228, 233, 233, 1.0)" />
	<rect x="100" y="50" width="10" height="10" fill="rgba(230, 234, 234, 1.0)" />
	<rect x="110" y="50" width="10" height="10" fill="rgba(230, 234, 234, 1.0)" />
	<rect x="120" y="50" width="10" height="10" fill="rgba(230, 234, 234, 1.0)" />
	<rect x="130" y="50" width="10" height="10" fill="rgba(213, 218, 219, 1.0)" />
	<rect x="140" y="50" width="10" height="10" fill="rgba(190, 196, 197, 1.0)" />
	<rect x="150" y="50" width="10" height="10" fill="rgba(202, 208, 209, 1.0)" />
	<rect x="0" y="60" width="10" height="10" fill="rgba(222, 227, 228, 1.0)" />
	<rect x="10" y="60" width="10" height="10" fill="rgba(190, 196, 197, 1.0)" />
	<rect x="20" y="60" width="10" height="10" fill="rgba(213, 218, 219, 1.0)" />
	<rect x="30" y="60" width="10" height="10" fill="rgba(230, 234, 234, 1.0)" />
	<rect x="40" y="60" width="10" height="10" fill="rgba(232, 235, 236, 1.0)" />
	<rect x="50" y="60" width="10" height="10" fill="rgba(230, 234, 234, 1.0)" />
	<rect x="60" y="60" width="10" height="10" fill="rgba(224, 229, 229, 1.0)" />
	<rect x="70" y="60" width="10" height="10" fill="rgba(230, 234, 234, 1.0)" />
	<rect x="80" y="60" width="10" height="10" fill="rgba(230, 234, 234, 1.0)" />
	<rect x="90" y="60" width="10" height="10" fill="rgba(226, 231, 231, 1.0)" />
	<rect x="100" y="60" width="10" height="10" fill="rgba(230, 234, 234, 1.0)" />
	<rect x="110" y="60" width="10" height="10" fill="rgba(228, 233, 233, 1.0)" />
	<rect x="120" y="60" width="10" height="10" fill="rgba(228, 233, 233, 1.0)" />
	<rect x="130" y="60" width="10" height="10" fill="rgba(213, 218, 219, 1.0)" />
	<rect x="140" y="60" width="10" height="10" fill="rgba(190, 196, 197, 1.0)" />
	<rect x="150" y="60" width="10" height="10" fill="rgba(201, 207, 208, 1.0)" />
	<rect x="0" y="70" width="10" height="10" fill="rgba(202, 208, 209, 1.0)" />
	<rect x="10" y="70" width="10" height="10" fill="rgba(213, 218, 219, 1.0)" />
	<rect x="20" y="70" width="10" height="10" fill="rgba(226, 231, 231, 1.0)" />
	<rect x="30" y="70" width="10" height="10" fill="rgba(228, 233, 233, 1.0)" />
	<rect x="40" y="70" width="10" height="10" fill="rgba(228, 233, 233, 1.0)" />
	<rect x="50" y="70" width="10" height="10" fill="rgba(226, 231, 231, 1.0)" />
	<rect x="60" y="70" width="10" height="10" fill="rgba(228, 233, 233, 1.0)" />
	<rect x="70" y="70" width="10" height="10" fill="rgba(228, 233, 233, 1.0)" />
	<rect x="80" y="70" width="10" height="10" fill="rgba(226, 231, 231, 1.0)" />
	<rect x="90" y="70" width="10" height="10" fill="rgba(228, 233, 233, 1.0)" />
	<rect x="100" y="70" width="10" height="10" fill="rgba(228, 233, 233, 1.0)" />
	<rect x="110" y="70" width="10" height="10" fill="rgba(230, 234, 234, 1.0)" />
	<rect x="120" y="70" width="10" height="10" fill="rgba(228, 233, 233, 1.0)" />
	<rect x="130" y="70" width="10" height="10" fill="rgba(230, 234, 234, 1.0)" />
	<rect x="140" y="70" width="10" height="10" fill="rgba(213, 218, 219, 1.0)" />
	<rect x="150" y="70" width="10" height="10" fill="rgba(180, 186, 187, 1.0)" />
	<rect x="0" y="80" width="10" height="10" fill="rgba(202, 208, 209, 1.0)" />
	<rect x="10" y="80" width="10" height="10" fill="rgba(213, 218, 219, 1.0)" />
	<rect x="20" y="80" width="10" height="10" fill="rgba(224, 229, 229, 1.0)" />
	<rect x="30" y="80" width="10" height="10" fill="rgba(230, 234, 234, 1.0)" />
	<rect x="40" y="80" width="10" height="10" fill="rgba(230, 234, 234, 1.0)" />
	<rect x="50" y="80" width="10" height="10" fill="rgba(230, 234, 234, 1.0)" />
	<rect x="60" y="80" width="10" height="10" fill="rgba(230, 234, 234, 1.0)" />
	<rect x="70" y="80" width="10" height="10" fill="rgba(226, 231, 231, 1.0)" />
	<rect x="80" y="80" width="10" height="10" fill="rgba(228, 233, 233, 1.0)" />
	<rect x="90" y="80" width="10" height="10" fill="rgba(230, 234, 234, 1.0)" />
	<rect x="100" y="80" width="10" height="10" fill="rgba(230, 234, 234, 1.0)" />
	<rect x="110" y="80" width="10" height="10" fill="rgba(228, 233, 233, 1.0)" />
	<rect x="120" y="80" width="10" height="10" fill="rgba(228, 233, 233, 1.0)" />
	<rect x="130" y="80" width="10" height="10" fill="rgba(228, 233, 233, 1.0)" />
	<rect x="140" y="80" width="10" height="10" fill="rgba(213, 218, 219, 1.0)" />
	<rect x="150" y="80" width="10" height="10" fill="rgba(182, 188, 189, 1.0)" />
	<rect x="0" y="90" width="10" height="10" fill="rgba(222, 227, 227, 1.0)" />
	<rect x="10" y="90" width="10" height="10" fill="rgba(190, 196, 197, 1.0)" />
	<rect x="20" y="90" width="10" height="10" fill="rgba(213, 218, 219, 1.0)" />
	<rect x="30" y="90" width="10" height="10" fill="rgba(230, 234, 234, 1.0)" />
	<rect x="40" y="90" width="10" height="10" fill="rgba(230, 234, 234, 1.0)" />
	<rect x="50" y="90" width="10" height="10" fill="rgba(228, 233, 233, 1.0)" />
	<rect x="60" y="90" width="10" height="10" fill="rgba(230, 234, 234, 1.0)" />
	<rect x="70" y="90" width="10" height="10" fill="rgba(228, 233, 233, 1.0)" />
	<rect x="80" y="90" width="10" height="10" fill="rgba(228, 233, 233, 1.0)" />
	<rect x="90" y="90" width="10" height="10" fill="rgba(230, 234, 234, 1.0)" />
	<rect x="100" y="90" width="10" height="10" fill="rgba(230, 234, 234, 1.0)" />
	<rect x="110" y="90" width="10" height="10" fill="rgba(228, 233, 233, 1.0)" />
	<rect x="120" y="90" width="10" height="10" fill="rgba(230, 234, 234, 1.0)" />
	<rect x="130" y="90" width="10" height="10" fill="rgba(212, 217, 218, 1.0)" />
	<rect x="140" y="90" width="10" height="10" fill="rgba(190, 196, 197, 1.0)" />
	<rect x="150" y="90" width="10" height="10" fill="rgba(202, 208, 209, 1.0)" />
	<rect x="0" y="100" width="10" height="10" fill="rgba(220, 225, 226, 1.0)" />
	<rect x="10" y="100" width="10" height="10" fill="rgba(187, 193, 194, 1.0)" />
	<rect x="20" y="100" width="10" height="10" fill="rgba(212, 217, 218, 1.0)" />
	<rect x="30" y="100" width="10" height="10" fill="rgba(230, 234, 234, 1.0)" />
	<rect x="40" y="100" width="10" height="10" fill="rgba(230, 234, 234, 1.0)" />
	<rect x="50" y="100" width="10" height="10" fill="rgba(230, 234, 234, 1.0)" />
	<rect x="60" y="100" width="10" height="10" fill="rgba(230, 234, 234, 1.0)" />
	<rect x="70" y="100" width="10" height="10" fill="rgba(230, 234, 234, 1.0)" />
	<rect x="80" y="100" width="10" height="10" fill="rgba(230, 234, 234, 1.0)" />
	<rect x="90" y="100" width="10" height="10" fill="rgba(230, 234, 234, 1.0)" />
	<rect x="100" y="100" width="10" height="10" fill="rgba(230, 234, 234, 1.0)" />
	<rect x="110" y="100" width="10" height="10" fill="rgba(228, 233, 233, 1.0)" />
	<rect x="120" y="100" width="10" height="10" fill="rgba(228, 233, 233, 1.0)" />
	<rect x="130" y="100" width="10" height="10" fill="rgba(213, 218, 219, 1.0)" />
	<rect x="140" y="100" width="10" height="10" fill="rgba(190, 196, 197, 1.0)" />
	<rect x="150" y="100" width="10" height="10" fill="rgba(197, 204, 205, 1.0)" />
	<rect x="0" y="110" width="10" height="10" fill="rgba(202, 208, 209, 1.0)" />
	<rect x="10" y="110" width="10" height="10" fill="rgba(213, 218, 219, 1.0)" />
	<rect x="20" y="110" width="10" height="10" fill="rgba(230, 234, 234, 1.0)" />
	<rect x="30" y="110" width="10" height="10" fill="rgba(230, 234, 234, 1.0)" />
	<rect x="40" y="110" width="10" height="10" fill="rgba(228, 233, 233, 1.0)" />
	<rect x="50" y="110" width="10" height="10" fill="rgba(224, 229, 229, 1.0)" />
	<rect x="60" y="110" width="10" height="10" fill="rgba(228, 233, 233, 1.0)" />
	<rect x="70" y="110" width="10" height="10" fill="rgba(230, 234, 234, 1.0)" />
	<rect x="80" y="110" width="10" height="10" fill="rgba(230, 234, 234, 1.0)" />
	<rect x="90" y="110" width="10" height="10" fill="rgba(230, 234, 234, 1.0)" />
	<rect x="100" y="110" width="10" height="10" fill="rgba(230, 234, 234, 1.0)" />
	<rect x="110" y="110" width="10" height="10" fill="rgba(230, 234, 234, 1.0)" />
	<rect x="120" y="110" width="10" height="10" fill="rgba(228, 233, 233, 1.0)" />
	<rect x="130" y="110" width="10" height="10" fill="rgba(230, 234, 234, 1.0)" />
	<rect x="140" y="110" width="10" height="10" fill="rgba(213, 218, 219, 1.0)" />
	<rect x="150" y="110" width="10" height="10" fill="rgba(182, 188, 189, 1.0)" />
	<rect x="0" y="120" width="10" height="10" fill="rgba(202, 208, 209, 1.0)" />
	<rect x="10" y="120" width="10" height="10" fill="rgba(213, 218, 219, 1.0)" />
	<rect x="20" y="120" width="10" height="10" fill="rgba(232, 235, 236, 1.0)" />
	<rect x="30" y="120" width="10" height="10" fill="rgba(228, 233, 233, 1.0)" />
	<rect x="40" y="120" width="10" height="10" fill="rgba(230, 234, 234, 1.0)" />
	<rect x="50" y="120" width="10" height="10" fill="rgba(232, 235, 236, 1.0)" />
	<rect x="60" y="120" width="10" height="10" fill="rgba(230, 234, 234, 1.0)" />
	<rect x="70" y="120" width="10" height="10" fill="rgba(230, 234, 234, 1.0)" />
	<rect x="80" y="120" width="10" height="10" fill="rgba(228, 233, 233, 1.0)" />
	<rect x="90" y="120" width="10" height="10" fill="rgba(228, 233, 233, 1.0)" />
	<rect x="100" y="120" width="10" height="10" fill="rgba(230, 234, 234, 1.0)" />
	<rect x="110" y="120" width="10" height="10" fill="rgba(230, 234, 234, 1.0)" />
	<rect x="120" y="120" width="10" height="10" fill="rgba(230, 234, 234, 1.0)" />
	<rect x="130" y="120" width="10" height="10" fill="rgba(230, 234, 234, 1.0)" />
	<rect x="140" y="120" width="10" height="10" fill="rgba(213, 218, 219, 1.0)" />
	<rect x="150" y="120" width="10" height="10" fill="rgba(182, 188, 189, 1.0)" />
	<rect x="0" y="130" width="10" height="10" fill="rgba(222, 227, 228, 1.0)" />
	<rect x="10" y="130" width="10" height="10" fill="rgba(190, 196, 197, 1.0)" />
	<rect x="20" y="130" width="10" height="10" fill="rgba(210, 216, 217, 1.0)" />
	<rect x="30" y="130" width="10" height="10" fill="rgba(230, 234, 234, 1.0)" />
	<rect x="40" y="130" width="10" height="10" fill="rgba(226, 231, 231, 1.0)" />
	<rect x="50" y="130" width="10" height="10" fill="rgba(213, 218, 219, 1.0)" />
	<rect x="60" y="130" width="10" height="10" fill="rgba(213, 218, 219, 1.0)" />
	<rect x="70" y="130" width="10" height="10" fill="rgba(230, 234, 234, 1.0)" />
	<rect x="80" y="130" width="10" height="10" fill="rgba(226, 231, 231, 1.0)" />
	<rect x="90" y="130" width="10" height="10" fill="rgba(213, 218, 219, 1.0)" />
	<rect x="100" y="130" width="10" height="10" fill="rgba(213, 218, 219, 1.0)" />
	<rect x="110" y="130" width="10" height="10" fill="rgba(226, 231, 231, 1.0)" />
	<rect x="120" y="130" width="10" height="10" fill="rgba(230, 234, 234, 1.0)" />
	<rect x="130" y="130" width="10" height="10" fill="rgba(213, 218, 219, 1.0)" />
	<rect x="140" y="130" width="10" height="10" fill="rgba(187, 193, 194, 1.0)" />
	<rect x="150" y="130" width="10" height="10" fill="rgba(202, 208, 209, 1.0)" />
	<rect x="0" y="140" width="10" height="10" fill="rgba(222, 227, 227, 1.0)" />
	<rect x="10" y="140" width="10" height="10" fill="rgba(186, 192, 193, 1.0)" />
	<rect x="20" y="140" width="10" height="10" fill="rgba(187, 193, 194, 1.0)" />
	<rect x="30" y="140" width="10" height="10" fill="rgba(213, 218, 219, 1.0)" />
	<rect x="40" y="140" width="10" height="10" fill="rgba(212, 217, 218, 1.0)" />
	<rect x="50" y="140" width="10" height="10" fill="rgba(190, 196, 197, 1.0)" />
	<rect x="60" y="140" width="10" height="10" fill="rgba(186, 192, 193, 1.0)" />
	<rect x="70" y="140" width="10" height="10" fill="rgba(213, 218, 219, 1.0)" />
	<rect x="80" y="140" width="10" height="10" fill="rgba(213, 218, 219, 1.0)" />
	<rect x="90" y="140" width="10" height="10" fill="rgba(190, 196, 197, 1.0)" />
	<rect x="100" y="140" width="10" height="10" fill="rgba(190, 196, 197, 1.0)" />
	<rect x="110" y="140" width="10" height="10" fill="rgba(213, 218, 219, 1.0)" />
	<rect x="120" y="140" width="10" height="10" fill="rgba(213, 218, 219, 1.0)" />
	<rect x="130" y="140" width="10" height="10" fill="rgba(190, 196, 197, 1.0)" />
	<rect x="140" y="140" width="10" height="10" fill="rgba(190, 196, 197, 1.0)" />
	<rect x="150" y="140" width="10" height="10" fill="rgba(202, 208, 209, 1.0)" />
	<rect x="0" y="150" width="10" height="10" fill="rgba(190, 196, 197, 1.0)" />
	<rect x="10" y="150" width="10" height="10" fill="rgba(202, 208, 209, 1.0)" />
	<rect x="20" y="150" width="10" height="10" fill="rgba(197, 204, 205, 1.0)" />
	<rect x="30" y="150" width="10" height="10" fill="rgba(182, 188, 189, 1.0)" />
	<rect x="40" y="150" width="10" height="10" fill="rgba(182, 188, 189, 1.0)" />
	<rect x="50" y="150" width="10" height="10" fill="rgba(201, 207, 208, 1.0)" />
	<rect x="60" y="150" width="10" height="10" fill="rgba(202, 208, 209, 1.0)" />
	<rect x="70" y="150" width="10" height="10" fill="rgba(182, 188, 189, 1.0)" />
	<rect x="80" y="150" width="10" height="10" fill="rgba(182, 188, 189, 1.0)" />
	<rect x="90" y="150" width="10" height="10" fill="rgba(197, 204, 205, 1.0)" />
	<rect x="100" y="150" width="10" height="10" fill="rgba(202, 208, 209, 1.0)" />
	<rect x="110" y="150" width="10" height="10" fill="rgba(180, 186, 187, 1.0)" />
	<rect x="120" y="150" width="10" height="10" fill="rgba(182, 188, 189, 1.0)" />
	<rect x="130" y="150" width="10" height="10" fill="rgba(201, 207, 208, 1.0)" />
	<rect x="140" y="150" width="10" height="10" fill="rgba(201, 207, 208, 1.0)" />
	<rect x="150" y="150" width="10" height="10" fill="rgba(182, 188, 189, 1.0)" />
</svg>