<svg xmlns="http://www.w3.org/2000/svg" xmlns:xlink="http://www.w3.org/1999/xlink">
	<rect x="0" y="0" width="10" height="10" fill="rgba(218, 223, 224, 1.0)" />
	<rect x="10" y="0" width="10" height="10" fill="rgba(224, 228, 228, 1.0)" />
	<rect x="20" y="0" width="10" height="10" fill="rgba(215, 220, 221, 1.0)" />
	<rect x="30" y="0" width="10" height="10" fill="rgba(217, 222, 223, 1.0)" />
	<rect x="40" y="0" width="10" height="10" fill="rgba(232, 235, 235, 1.0)" />
	<rect x="50" y="0" width="10" height="10" fill="rgba(245, 247, 247, 1.0)" />
	<rect x="60" y="0" width="10" height="10" fill="rgba(219, 224, 225, 1.0)" />
	<rect x="70" y="0" width="10" height="10" fill="rgba(222, 226, 227, 1.0)" />
	<rect x="80" y="0" width="10" height="10" fill="rgba(240, 242, 242, 1.0)" />
	<rect x="90" y="0" width="10" height="10" fill="rgba(243, 244, 245, 1.0)" />
	<rect x="100" y="0" width="10" height="10" fill="rgba(211, 217, 218, 1.0)" />
	<rect x="110" y="0" width="10" height="10" fill="rgba(216, 221, 222, 1.0)" />
	<rect x="120" y="0" width="10" height="10" fill="rgba(235, 238, 238, 1.0)" />
	<rect x="130" y="0" width="10" height="10" fill="rgba(235, 238, 238, 1.0)" />
	<rect x="140" y="0" width="10" height="10" fill="rgba(216, 221, 222, 1.0)" />
	<rect x="150" y="0" width="10" height="10" fill="rgba(213, 218, 219, 1.0)" />
	<rect x="0" y="10" width="10" height="10" fill="rgba(233, 236, 236, 1.0)" />
	<rect x="10" y="10" width="10" height="10" fill="rgba(239, 241, 242, 1.0)" />
	<rect x="20" y="10" width="10" height="10" fill="rgba(254, 254, 254, 1.0)" />
	<rect x="30" y="10" width="10" height="10" fill="rgba(254, 254, 254, 1.0)" />
	<rect x="40" y="10" width="10" height="10" fill="rgba(248, 249, 249, 1.0)" />
	<rect x="50" y="10" width="10" height="10" fill="rgba(243, 244, 245, 1.0)" />
	<rect x="60" y="10" width="10" height="10" fill="rgba(228, 231, 232, 1.0)" />
	<rect x="70" y="10" width="10" height="10" fill="rgba(227, 230, 231, 1.0)" />
	<rect x="80" y="10" width="10" height="10" fill="rgba(217, 222, 223, 1.0)" />
	<rect x="90" y="10" width="10" height="10" fill="rgba(213, 218, 219, 1.0)" />
	<rect x="100" y="10" width="10" height="10" fill="rgba(222, 226, 227, 1.0)" />
	<rect x="110" y="10" width="10" height="10" fill="rgba(227, 230, 231, 1.0)" />
	<rect x="120" y="10" width="10" height="10" fill="rgba(208, 214, 215, 1.0)" />
	<rect x="130" y="10" width="10" height="10" fill="rgba(214, 219, 220, 1.0)" />
	<rect x="140" y="10" width="10" height="10" fill="rgba(224, 228, 228, 1.0)" />
	<rect x="150" y="10" width="10" height="10" fill="rgba(229, 233, 233, 1.0)" />
	<rect x="0" y="20" width="10" height="10" fill="rgba(248, 249, 249, 1.0)" />
	<rect x="10" y="20" width="10" height="10" fill="rgba(250, 250, 250, 1.0)" />
	<rect x="20" y="20" width="10" height="10" fill="rgba(227, 230, 231, 1.0)" />
	<rect x="30" y="20" width="10" height="10" fill="rgba(230, 233, 234, 1.0)" />
	<rect x="40" y="20" width="10" height="10" fill="rgba(253, 253, 253, 1.0)" />
	<rect x="50" y="20" width="10" height="10" fill="rgba(250, 250, 250, 1.0)" />
	<rect x="60" y="20" width="10" height="10" fill="rgba(236, 239, 239, 1.0)" />
	<rect x="70" y="20" width="10" height="10" fill="rgba(227, 230, 231, 1.0)" />
	<rect x="80" y="20" width="10" height="10" fill="rgba(243, 244, 245, 1.0)" />
	<rect x="90" y="20" width="10" height="10" fill="rgba(250, 250, 250, 1.0)" />
	<rect x="100" y="20" width="10" height="10" fill="rgba(242, 244, 244, 1.0)" />
	<rect x="110" y="20" width="10" height="10" fill="rgba(242, 244, 244, 1.0)" />
	<rect x="120" y="20" width="10" height="10" fill="rgba(253, 253, 253, 1.0)" />
	<rect x="130" y="20" width="10" height="10" fill="rgba(254, 254, 254, 1.0)" />
	<rect x="140" y="20" width="10" height="10" fill="rgba(243, 244, 245, 1.0)" />
	<rect x="150" y="20" width="10" height="10" fill="rgba(239, 241, 242, 1.0)" />
	<rect x="0" y="30" width="10" height="10" fill="rgba(233, 236, 236, 1.0)" />
	<rect x="10" y="30" width="10" height="10" fill="rgba(224, 228, 228, 1.0)" />
	<rect x="20" y="30" width="10" height="10" fill="rgba(245, 246, 246, 1.0)" />
	<rect x="30" y="30" width="10" height="10" fill="rgba(250, 250, 250, 1.0)" />
	<rect x="40" y="30" width="10" height="10" fill="rgba(227, 230, 231, 1.0)" />
	<rect x="50" y="30" width="10" height="10" fill="rgba(225, 228, 229, 1.0)" />
	<rect x="60" y="30" width="10" height="10" fill="rgba(232, 235, 235, 1.0)" />
	<rect x="70" y="30" width="10" height="10" fill="rgba(250, 250, 250, 1.0)" />
	<rect x="80" y="30" width="10" height="10" fill="rgba(219, 224, 225, 1.0)" />
	<rect x="90" y="30" width="10" height="10" fill="rgba(228, 231, 232, 1.0)" />
	<rect x="100" y="30" width="10" height="10" fill="rgba(250, 250, 250, 1.0)" />
	<rect x="110" y="30" width="10" height="10" fill="rgba(250, 250, 250, 1.0)" />
	<rect x="120" y="30" width="10" height="10" fill="rgba(233, 236, 236, 1.0)" />
	<rect x="130" y="30" width="10" height="10" fill="rgba(224, 228, 228, 1.0)" />
	<rect x="140" y="30" width="10" height="10" fill="rgba(254, 254, 254, 1.0)" />
	<rect x="150" y="30" width="10" height="10" fill="rgba(249, 250, 250, 1.0)" />
	<rect x="0" y="40" width="10" height="10" fill="rgba(239, 241, 242, 1.0)" />
	<rect x="10" y="40" width="10" height="10" fill="rgba(229, 233, 233, 1.0)" />
	<rect x="20" y="40" width="10" height="10" fill="rgba(219, 224, 225, 1.0)" />
	<rect x="30" y="40" width="10" height="10" fill="rgba(233, 236, 236, 1.0)" />
	<rect x="40" y="40" width="10" height="10" fill="rgba(245, 247, 247, 1.0)" />
	<rect x="50" y="40" width="10" height="10" fill="rgba(245, 246, 246, 1.0)" />
	<rect x="60" y="40" width="10" height="10" fill="rgba(211, 217, 218, 1.0)" />
	<rect x="70" y="40" width="10" height="10" fill="rgba(209, 215, 216, 1.0)" />
	<rect x="80" y="40" width="10" height="10" fill="rgba(222, 226, 227, 1.0)" />
	<rect x="90" y="40" width="10" height="10" fill="rgba(235, 238, 238, 1.0)" />
	<rect x="100" y="40" width="10" height="10" fill="rgba(222, 226, 227, 1.0)" />
	<rect x="110" y="40" width="10" height="10" fill="rgba(214, 219, 220, 1.0)" />
	<rect x="120" y="40" width="10" height="10" fill="rgba(245, 247, 247, 1.0)" />
	<rect x="130" y="40" width="10" height="10" fill="rgba(245, 247, 247, 1.0)" />
	<rect x="140" y="40" width="10" height="10" fill="rgba(216, 221, 222, 1.0)" />
	<rect x="150" y="40" width="10" height="10" fill="rgba(211, 217, 218, 1.0)" />
	<rect x="0" y="50" width="10" height="10" fill="rgba(214, 219, 220, 1.0)" />
	<rect x="10" y="50" width="10" height="10" fill="rgba(210, 216, 217, 1.0)" />
	<rect x="20" y="50" width="10" height="10" fill="rgba(220, 225, 225, 1.0)" />
	<rect x="30" y="50" width="10" height="10" fill="rgba(250, 250, 250, 1.0)" />
	<rect x="40" y="50" width="10" height="10" fill="rgba(219, 224, 225, 1.0)" />
	<rect x="50" y="50" width="10" height="10" fill="rgba(209, 215, 216, 1.0)" />
	<rect x="60" y="50" width="10" height="10" fill="rgba(218, 223, 224, 1.0)" />
	<rect x="70" y="50" width="10" height="10" fill="rgba(224, 228, 228, 1.0)" />
	<rect x="80" y="50" width="10" height="10" fill="rgba(219, 224, 225, 1.0)" />
	<rect x="90" y="50" width="10" height="10" fill="rgba(209, 215, 216, 1.0)" />
	<rect x="100" y="50" width="10" height="10" fill="rgba(224, 228, 228, 1.0)" />
	<rect x="110" y="50" width="10" height="10" fill="rgba(227, 230, 231, 1.0)" />
	<rect x="120" y="50" width="10" height="10" fill="rgba(212, 218, 219, 1.0)" />
	<rect x="130" y="50" width="10" height="10" fill="rgba(222, 226, 227, 1.0)" />
	<rect x="140" y="50" width="10" height="10" fill="rgba(217, 222, 223, 1.0)" />
	<rect x="150" y="50" width="10" height="10" fill="rgba(225, 229, 230, 1.0)" />
	<rect x="0" y="60" width="10" height="10" fill="rgba(254, 254, 254, 1.0)" />
	<rect x="10" y="60" width="10" height="10" fill="rgba(254, 254, 254, 1.0)" />
	<rect x="20" y="60" width="10" height="10" fill="rgba(247, 248, 248, 1.0)" />
	<rect x="30" y="60" width="10" height="10" fill="rgba(245, 246, 246, 1.0)" />
	<rect x="40" y="60" width="10" height="10" fill="rgba(232, 235, 235, 1.0)" />
	<rect x="50" y="60" width="10" height="10" fill="rgba(232, 235, 235, 1.0)" />
	<rect x="60" y="60" width="10" height="10" fill="rgba(229, 233, 233, 1.0)" />
	<rect x="70" y="60" width="10" height="10" fill="rgba(235, 238, 238, 1.0)" />
	<rect x="80" y="60" width="10" height="10" fill="rgba(248, 249, 249, 1.0)" />
	<rect x="90" y="60" width="10" height="10" fill="rgba(254, 254, 254, 1.0)" />
	<rect x="100" y="60" width="10" height="10" fill="rgba(240, 242, 242, 1.0)" />
	<rect x="110" y="60" width="10" height="10" fill="rgba(228, 231, 232, 1.0)" />
	<rect x="120" y="60" width="10" height="10" fill="rgba(254, 254, 254, 1.0)" />
	<rect x="130" y="60" width="10" height="10" fill="rgba(254, 254, 254, 1.0)" />
	<rect x="140" y="60" width="10" height="10" fill="rgba(243, 244, 245, 1.0)" />
	<rect x="150" y="60" width="10" height="10" fill="rgba(236, 239, 239, 1.0)" />
	<rect x="0" y="70" width="10" height="10" fill="rgba(224, 228, 228, 1.0)" />
	<rect x="10" y="70" width="10" height="10" fill="rgba(224, 228, 228, 1.0)" />
	<rect x="20" y="70" width="10" height="10" fill="rgba(254, 254, 254, 1.0)" />
	<rect x="30" y="70" width="10" height="10" fill="rgba(254, 254, 254, 1.0)" />
	<rect x="40" y="70" width="10" height="10" fill="rgba(243, 244, 245, 1.0)" />
	<rect x="50" y="70" width="10" height="10" fill="rgba(240, 242, 242, 1.0)" />
	<rect x="60" y="70" width="10" height="10" fill="rgba(250, 250, 250, 1.0)" />
	<rect x="70" y="70" width="10" height="10" fill="rgba(249, 250, 250, 1.0)" />
	<rect x="80" y="70" width="10" height="10" fill="rgba(217, 222, 223, 1.0)" />
	<rect x="90" y="70" width="10" height="10" fill="rgba(222, 226, 227, 1.0)" />
	<rect x="100" y="70" width="10" height="10" fill="rgba(245, 246, 246, 1.0)" />
	<rect x="110" y="70" width="10" height="10" fill="rgba(250, 250, 250, 1.0)" />
	<rect x="120" y="70" width="10" height="10" fill="rgba(240, 242, 242, 1.0)" />
	<rect x="130" y="70" width="10" height="10" fill="rgba(239, 241, 242, 1.0)" />
	<rect x="140" y="70" width="10" height="10" fill="rgba(250, 251, 251, 1.0)" />
	<rect x="150" y="70" width="10" height="10" fill="rgba(249, 250, 250, 1.0)" />
	<rect x="0" y="80" width="10" height="10" fill="rgba(243, 244, 245, 1.0)" />
	<rect x="10" y="80" width="10" height="10" fill="rgba(242, 244, 244, 1.0)" />
	<rect x="20" y="80" width="10" height="10" fill="rgba(214, 219, 220, 1.0)" />
	<rect x="30" y="80" width="10" height="10" fill="rgba(222, 226, 227, 1.0)" />
	<rect x="40" y="80" width="10" height="10" fill="rgba(249, 250, 250, 1.0)" />
	<rect x="50" y="80" width="10" height="10" fill="rgba(240, 242, 242, 1.0)" />
	<rect x="60" y="80" width="10" height="10" fill="rgba(219, 224, 225, 1.0)" />
	<rect x="70" y="80" width="10" height="10" fill="rgba(225, 228, 229, 1.0)" />
	<rect x="80" y="80" width="10" height="10" fill="rgba(222, 226, 227, 1.0)" />
	<rect x="90" y="80" width="10" height="10" fill="rgba(227, 230, 231, 1.0)" />
	<rect x="100" y="80" width="10" height="10" fill="rgba(222, 226, 227, 1.0)" />
	<rect x="110" y="80" width="10" height="10" fill="rgba(212, 218, 219, 1.0)" />
	<rect x="120" y="80" width="10" height="10" fill="rgba(232, 235, 235, 1.0)" />
	<rect x="130" y="80" width="10" height="10" fill="rgba(228, 231, 232, 1.0)" />
	<rect x="140" y="80" width="10" height="10" fill="rgba(215, 220, 221, 1.0)" />
	<rect x="150" y="80" width="10" height="10" fill="rgba(214, 219, 220, 1.0)" />
	<rect x="0" y="90" width="10" height="10" fill="rgba(222, 226, 227, 1.0)" />
	<rect x="10" y="90" width="10" height="10" fill="rgba(228, 231, 232, 1.0)" />
	<rect x="20" y="90" width="10" height="10" fill="rgba(225, 229, 230, 1.0)" />
	<rect x="30" y="90" width="10" height="10" fill="rgba(248, 249, 249, 1.0)" />
	<rect x="40" y="90" width="10" height="10" fill="rgba(209, 215, 216, 1.0)" />
	<rect x="50" y="90" width="10" height="10" fill="rgba(211, 217, 218, 1.0)" />
	<rect x="60" y="90" width="10" height="10" fill="rgba(228, 231, 232, 1.0)" />
	<rect x="70" y="90" width="10" height="10" fill="rgba(238, 240, 241, 1.0)" />
	<rect x="80" y="90" width="10" height="10" fill="rgba(219, 224, 225, 1.0)" />
	<rect x="90" y="90" width="10" height="10" fill="rgba(239, 241, 242, 1.0)" />
	<rect x="100" y="90" width="10" height="10" fill="rgba(254, 254, 254, 1.0)" />
	<rect x="110" y="90" width="10" height="10" fill="rgba(254, 254, 254, 1.0)" />
	<rect x="120" y="90" width="10" height="10" fill="rgba(230, 233, 234, 1.0)" />
	<rect x="130" y="90" width="10" height="10" fill="rgba(242, 244, 244, 1.0)" />
	<rect x="140" y="90" width="10" height="10" fill="rgba(254, 254, 254, 1.0)" />
	<rect x="150" y="90" width="10" height="10" fill="rgba(254, 254, 254, 1.0)" />
	<rect x="0" y="100" width="10" height="10" fill="rgba(249, 250, 250, 1.0)" />
	<rect x="10" y="100" width="10" height="10" fill="rgba(250, 251, 251, 1.0)" />
	<rect x="20" y="100" width="10" height="10" fill="rgba(243, 244, 245, 1.0)" />
	<rect x="30" y="100" width="10" height="10" fill="rgba(243, 244, 245, 1.0)" />
	<rect x="40" y="100" width="10" height="10" fill="rgba(254, 254, 254, 1.0)" />
	<rect x="50" y="100" width="10" height="10" fill="rgba(250, 250, 250, 1.0)" />
	<rect x="60" y="100" width="10" height="10" fill="rgba(243, 244, 245, 1.0)" />
	<rect x="70" y="100" width="10" height="10" fill="rgba(240, 242, 242, 1.0)" />
	<rect x="80" y="100" width="10" height="10" fill="rgba(250, 251, 251, 1.0)" />
	<rect x="90" y="100" width="10" height="10" fill="rgba(248, 249, 249, 1.0)" />
	<rect x="100" y="100" width="10" height="10" fill="rgba(227, 230, 231, 1.0)" />
	<rect x="110" y="100" width="10" height="10" fill="rgba(235, 238, 238, 1.0)" />
	<rect x="120" y="100" width="10" height="10" fill="rgba(239, 241, 242, 1.0)" />
	<rect x="130" y="100" width="10" height="10" fill="rgba(232, 235, 235, 1.0)" />
	<rect x="140" y="100" width="10" height="10" fill="rgba(216, 221, 222, 1.0)" />
	<rect x="150" y="100" width="10" height="10" fill="rgba(233, 236, 236, 1.0)" />
	<rect x="0" y="110" width="10" height="10" fill="rgba(216, 221, 222, 1.0)" />
	<rect x="10" y="110" width="10" height="10" fill="rgba(219, 224, 225, 1.0)" />
	<rect x="20" y="110" width="10" height="10" fill="rgba(238, 240, 241, 1.0)" />
	<rect x="30" y="110" width="10" height="10" fill="rgba(238, 240, 241, 1.0)" />
	<rect x="40" y="110" width="10" height="10" fill="rgba(224, 228, 228, 1.0)" />
	<rect x="50" y="110" width="10" height="10" fill="rgba(225, 228, 229, 1.0)" />
	<rect x="60" y="110" width="10" height="10" fill="rgba(245, 247, 247, 1.0)" />
	<rect x="70" y="110" width="10" height="10" fill="rgba(242, 244, 244, 1.0)" />
	<rect x="80" y="110" width="10" height="10" fill="rgba(217, 222, 223, 1.0)" />
	<rect x="90" y="110" width="10" height="10" fill="rgba(219, 224, 225, 1.0)" />
	<rect x="100" y="110" width="10" height="10" fill="rgba(222, 226, 227, 1.0)" />
	<rect x="110" y="110" width="10" height="10" fill="rgba(239, 241, 242, 1.0)" />
	<rect x="120" y="110" width="10" height="10" fill="rgba(210, 216, 217, 1.0)" />
	<rect x="130" y="110" width="10" height="10" fill="rgba(210, 216, 217, 1.0)" />
	<rect x="140" y="110" width="10" height="10" fill="rgba(225, 229, 230, 1.0)" />
	<rect x="150" y="110" width="10" height="10" fill="rgba(239, 241, 242, 1.0)" />
	<rect x="0" y="120" width="10" height="10" fill="rgba(225, 228, 229, 1.0)" />
	<rect x="10" y="120" width="10" height="10" fill="rgba(224, 228, 228, 1.0)" />
	<rect x="20" y="120" width="10" height="10" fill="rgba(209, 215, 216, 1.0)" />
	<rect x="30" y="120" width="10" height="10" fill="rgba(211, 217, 218, 1.0)" />
	<rect x="40" y="120" width="10" height="10" fill="rgba(249, 250, 250, 1.0)" />
	<rect x="50" y="120" width="10" height="10" fill="rgba(253, 253, 253, 1.0)" />
	<rect x="60" y="120" width="10" height="10" fill="rgba(214, 219, 220, 1.0)" />
	<rect x="70" y="120" width="10" height="10" fill="rgba(209, 215, 216, 1.0)" />
	<rect x="80" y="120" width="10" height="10" fill="rgba(232, 235, 235, 1.0)" />
	<rect x="90" y="120" width="10" height="10" fill="rgba(245, 247, 247, 1.0)" />
	<rect x="100" y="120" width="10" height="10" fill="rgba(235, 238, 238, 1.0)" />
	<rect x="110" y="120" width="10" height="10" fill="rgba(242, 244, 244, 1.0)" />
	<rect x="120" y="120" width="10" height="10" fill="rgba(254, 254, 254, 1.0)" />
	<rect x="130" y="120" width="10" height="10" fill="rgba(254, 254, 254, 1.0)" />
	<rect x="140" y="120" width="10" height="10" fill="rgba(239, 241, 242, 1.0)" />
	<rect x="150" y="120" width="10" height="10" fill="rgba(212, 218, 219, 1.0)" />
	<rect x="0" y="130" width="10" height="10" fill="rgba(242, 244, 244, 1.0)" />
	<rect x="10" y="130" width="10" height="10" fill="rgba(240, 242, 242, 1.0)" />
	<rect x="20" y="130" width="10" height="10" fill="rgba(253, 253, 253, 1.0)" />
	<rect x="30" y="130" width="10" height="10" fill="rgba(254, 254, 254, 1.0)" />
	<rect x="40" y="130" width="10" height="10" fill="rgba(249, 250, 250, 1.0)" />
	<rect x="50" y="130" width="10" height="10" fill="rgba(243, 244, 245, 1.0)" />
	<rect x="60" y="130" width="10" height="10" fill="rgba(235, 238, 238, 1.0)" />
	<rect x="70" y="130" width="10" height="10" fill="rgba(227, 230, 231, 1.0)" />
	<rect x="80" y="130" width="10" height="10" fill="rgba(209, 215, 216, 1.0)" />
	<rect x="90" y="130" width="10" height="10" fill="rgba(230, 233, 234, 1.0)" />
	<rect x="100" y="130" width="10" height="10" fill="rgba(242, 244, 244, 1.0)" />
	<rect x="110" y="130" width="10" height="10" fill="rgba(250, 250, 250, 1.0)" />
	<rect x="120" y="130" width="10" height="10" fill="rgba(229, 233, 233, 1.0)" />
	<rect x="130" y="130" width="10" height="10" fill="rgba(230, 233, 234, 1.0)" />
	<rect x="140" y="130" width="10" height="10" fill="rgba(250, 250, 250, 1.0)" />
	<rect x="150" y="130" width="10" height="10" fill="rgba(254, 254, 254, 1.0)" />
	<rect x="0" y="140" width="10" height="10" fill="rgba(253, 253, 253, 1.0)" />
	<rect x="10" y="140" width="10" height="10" fill="rgba(252, 252, 252, 1.0)" />
	<rect x="20" y="140" width="10" height="10" fill="rgba(233, 236, 236, 1.0)" />
	<rect x="30" y="140" width="10" height="10" fill="rgba(228, 231, 232, 1.0)" />
	<rect x="40" y="140" width="10" height="10" fill="rgba(250, 250, 250, 1.0)" />
	<rect x="50" y="140" width="10" height="10" fill="rgba(235, 238, 238, 1.0)" />
	<rect x="60" y="140" width="10" height="10" fill="rgba(239, 241, 242, 1.0)" />
	<rect x="70" y="140" width="10" height="10" fill="rgba(245, 246, 246, 1.0)" />
	<rect x="80" y="140" width="10" height="10" fill="rgba(254, 254, 254, 1.0)" />
	<rect x="90" y="140" width="10" height="10" fill="rgba(248, 249, 249, 1.0)" />
	<rect x="100" y="140" width="10" height="10" fill="rgba(222, 226, 227, 1.0)" />
	<rect x="110" y="140" width="10" height="10" fill="rgba(222, 226, 227, 1.0)" />
	<rect x="120" y="140" width="10" height="10" fill="rgba(236, 239, 239, 1.0)" />
	<rect x="130" y="140" width="10" height="10" fill="rgba(242, 244, 244, 1.0)" />
	<rect x="140" y="140" width="10" height="10" fill="rgba(225, 228, 229, 1.0)" />
	<rect x="150" y="140" width="10" height="10" fill="rgba(217, 222, 223, 1.0)" />
	<rect x="0" y="150" width="10" height="10" fill="rgba(213, 218, 219, 1.0)" />
	<rect x="10" y="150" width="10" height="10" fill="rgba(219, 224, 225, 1.0)" />
	<rect x="20" y="150" width="10" height="10" fill="rgba(249, 250, 250, 1.0)" />
	<rect x="30" y="150" width="10" height="10" fill="rgba(236, 239, 239, 1.0)" />
	<rect x="40" y="150" width="10" height="10" fill="rgba(217, 222, 223, 1.0)" />
	<rect x="50" y="150" width="10" height="10" fill="rgba(225, 228, 229, 1.0)" />
	<rect x="60" y="150" width="10" height="10" fill="rgba(250, 250, 250, 1.0)" />
	<rect x="70" y="150" width="10" height="10" fill="rgba(253, 253, 253, 1.0)" />
	<rect x="80" y="150" width="10" height="10" fill="rgba(229, 233, 233, 1.0)" />
	<rect x="90" y="150" width="10" height="10" fill="rgba(224, 228, 228, 1.0)" />
	<rect x="100" y="150" width="10" height="10" fill="rgba(240, 242, 242, 1.0)" />
	<rect x="110" y="150" width="10" height="10" fill="rgba(249, 250, 250, 1.0)" />
	<rect x="120" y="150" width="10" height="10" fill="rgba(217, 222, 223, 1.0)" />
	<rect x="130" y="150" width="10" height="10" fill="rgba(219, 224, 225, 1.0)" />
	<rect x="140" y="150" width="10" height="10" fill="rgba(248, 249, 249, 1.0)" />
	<rect x="150" y="150" width="10" height="10" fill="rgba(250, 250, 250, 1.0)" />
</svg>