<svg xmlns="http://www.w3.org/2000/svg" xmlns:xlink="http://www.w3.org/1999/xlink">
	<rect x="0" y="0" width="10" height="10" fill="rgba(224, 226, 226, 1.0)" />
	<rect x="10" y="0" width="10" height="10" fill="rgba(230, 232, 232, 1.0)" />
	<rect x="20" y="0" width="10" height="10" fill="rgba(228, 230, 230, 1.0)" />
	<rect x="30" y="0" width="10" height="10" fill="rgba(221, 224, 224, 1.0)" />
	<rect x="40" y="0" width="10" height="10" fill="rgba(226, 228, 228, 1.0)" />
	<rect x="50" y="0" width="10" height="10" fill="rgba(223, 224, 225, 1.0)" />
	<rect x="60" y="0" width="10" height="10" fill="rgba(224, 226, 226, 1.0)" />
	<rect x="70" y="0" width="10" height="10" fill="rgba(232, 233, 233, 1.0)" />
	<rect x="80" y="0" width="10" height="10" fill="rgba(223, 226, 226, 1.0)" />
	<rect x="90" y="0" width="10" height="10" fill="rgba(218, 221, 222, 1.0)" />
	<rect x="100" y="0" width="10" height="10" fill="rgba(217, 220, 220, 1.0)" />
	<rect x="110" y="0" width="10" height="10" fill="rgba(216, 220, 221, 1.0)" />
	<rect x="120" y="0" width="10" height="10" fill="rgba(238, 238, 238, 1.0)" />
	<rect x="130" y="0" width="10" height="10" fill="rgba(240, 241, 241, 1.0)" />
	<rect x="140" y="0" width="10" height="10" fill="rgba(216, 218, 219, 1.0)" />
	<rect x="150" y="0" width="10" height="10" fill="rgba(228, 229, 229, 1.0)" />
	<rect x="0" y="10" width="10" height="10" fill="rgba(231, 232, 232, 1.0)" />
	<rect x="10" y="10" width="10" height="10" fill="rgba(225, 226, 227, 1.0)" />
	<rect x="20" y="10" width="10" height="10" fill="rgba(234, 235, 235, 1.0)" />
	<rect x="30" y="10" width="10" height="10" fill="rgba(238, 239, 239, 1.0)" />
	<rect x="40" y="10" width="10" height="10" fill="rgba(203, 206, 207, 1.0)" />
	<rect x="50" y="10" width="10" height="10" fill="rgba(233, 233, 233, 1.0)" />
	<rect x="60" y="10" width="10" height="10" fill="rgba(212, 216, 216, 1.0)" />
	<rect x="70" y="10" width="10" height="10" fill="rgba(214, 217, 218, 1.0)" />
	<rect x="80" y="10" width="10" height="10" fill="rgba(226, 228, 229, 1.0)" />
	<rect x="90" y="10" width="10" height="10" fill="rgba(220, 223, 223, 1.0)" />
	<rect x="100" y="10" width="10" height="10" fill="rgba(249, 249, 249, 1.0)" />
	<rect x="110" y="10" width="10" height="10" fill="rgba(220, 223, 223, 1.0)" />
	<rect x="120" y="10" width="10" height="10" fill="rgba(236, 237, 237, 1.0)" />
	<rect x="130" y="10" width="10" height="10" fill="rgba(223, 224, 225, 1.0)" />
	<rect x="140" y="10" width="10" height="10" fill="rgba(220, 223, 223, 1.0)" />
	<rect x="150" y="10" width="10" height="10" fill="rgba(242, 242, 242, 1.0)" />
	<rect x="0" y="20" width="10" height="10" fill="rgba(243, 243, 243, 1.0)" />
	<rect x="10" y="20" width="10" height="10" fill="rgba(240, 241, 241, 1.0)" />
	<rect x="20" y="20" width="10" height="10" fill="rgba(243, 244, 245, 1.0)" />
	<rect x="30" y="20" width="10" height="10" fill="rgba(223, 225, 225, 1.0)" />
	<rect x="40" y="20" width="10" height="10" fill="rgba(223, 224, 225, 1.0)" />
	<rect x="50" y="20" width="10" height="10" fill="rgba(232, 232, 233, 1.0)" />
	<rect x="60" y="20" width="10" height="10" fill="rgba(227, 228, 229, 1.0)" />
	<rect x="70" y="20" width="10" height="10" fill="rgba(226, 228, 228, 1.0)" />
	<rect x="80" y="20" width="10" height="10" fill="rgba(230, 231, 231, 1.0)" />
	<rect x="90" y="20" width="10" height="10" fill="rgba(227, 229, 230, 1.0)" />
	<rect x="100" y="20" width="10" height="10" fill="rgba(228, 230, 230, 1.0)" />
	<rect x="110" y="20" width="10" height="10" fill="rgba(241, 241, 242, 1.0)" />
	<rect x="120" y="20" width="10" height="10" fill="rgba(219, 221, 221, 1.0)" />
	<rect x="130" y="20" width="10" height="10" fill="rgba(225, 227, 227, 1.0)" />
	<rect x="140" y="20" width="10" height="10" fill="rgba(230, 231, 231, 1.0)" />
	<rect x="150" y="20" width="10" height="10" fill="rgba(233, 235, 236, 1.0)" />
	<rect x="0" y="30" width="10" height="10" fill="rgba(216, 217, 218, 1.0)" />
	<rect x="10" y="30" width="10" height="10" fill="rgba(230, 231, 232, 1.0)" />
	<rect x="20" y="30" width="10" height="10" fill="rgba(216, 218, 218, 1.0)" />
	<rect x="30" y="30" width="10" height="10" fill="rgba(230, 231, 231, 1.0)" />
	<rect x="40" y="30" width="10" height="10" fill="rgba(224, 226, 226, 1.0)" />
	<rect x="50" y="30" width="10" height="10" fill="rgba(218, 221, 221, 1.0)" />
	<rect x="60" y="30" width="10" height="10" fill="rgba(223, 225, 225, 1.0)" />
	<rect x="70" y="30" width="10" height="10" fill="rgba(237, 237, 238, 1.0)" />
	<rect x="80" y="30" width="10" height="10" fill="rgba(202, 205, 206, 1.0)" />
	<rect x="90" y="30" width="10" height="10" fill="rgba(217, 220, 220, 1.0)" />
	<rect x="100" y="30" width="10" height="10" fill="rgba(234, 234, 234, 1.0)" />
	<rect x="110" y="30" width="10" height="10" fill="rgba(224, 226, 226, 1.0)" />
	<rect x="120" y="30" width="10" height="10" fill="rgba(238, 239, 239, 1.0)" />
	<rect x="130" y="30" width="10" height="10" fill="rgba(233, 235, 235, 1.0)" />
	<rect x="140" y="30" width="10" height="10" fill="rgba(225, 227, 228, 1.0)" />
	<rect x="150" y="30" width="10" height="10" fill="rgba(210, 212, 212, 1.0)" />
	<rect x="0" y="40" width="10" height="10" fill="rgba(237, 237, 237, 1.0)" />
	<rect x="10" y="40" width="10" height="10" fill="rgba(219, 221, 222, 1.0)" />
	<rect x="20" y="40" width="10" height="10" fill="rgba(234, 236, 236, 1.0)" />
	<rect x="30" y="40" width="10" height="10" fill="rgba(232, 233, 233, 1.0)" />
	<rect x="40" y="40" width="10" height="10" fill="rgba(232, 234, 234, 1.0)" />
	<rect x="50" y="40" width="10" height="10" fill="rgba(225, 228, 228, 1.0)" />
	<rect x="60" y="40" width="10" height="10" fill="rgba(241, 242, 242, 1.0)" />
	<rect x="70" y="40" width="10" height="10" fill="rgba(232, 234, 234, 1.0)" />
	<rect x="80" y="40" width="10" height="10" fill="rgba(223, 225, 225, 1.0)" />
	<rect x="90" y="40" width="10" height="10" fill="rgba(226, 226, 227, 1.0)" />
	<rect x="100" y="40" width="10" height="10" fill="rgba(224, 226, 226, 1.0)" />
	<rect x="110" y="40" width="10" height="10" fill="rgba(242, 243, 243, 1.0)" />
	<rect x="120" y="40" width="10" height="10" fill="rgba(236, 237, 237, 1.0)" />
	<rect x="130" y="40" width="10" height="10" fill="rgba(231, 231, 231, 1.0)" />
	<rect x="140" y="40" width="10" height="10" fill="rgba(240, 241, 241, 1.0)" />
	<rect x="150" y="40" width="10" height="10" fill="rgba(219, 220, 221, 1.0)" />
	<rect x="0" y="50" width="10" height="10" fill="rgba(216, 218, 218, 1.0)" />
	<rect x="10" y="50" width="10" height="10" fill="rgba(224, 226, 226, 1.0)" />
	<rect x="20" y="50" width="10" height="10" fill="rgba(220, 223, 223, 1.0)" />
	<rect x="30" y="50" width="10" height="10" fill="rgba(246, 247, 247, 1.0)" />
	<rect x="40" y="50" width="10" height="10" fill="rgba(219, 220, 221, 1.0)" />
	<rect x="50" y="50" width="10" height="10" fill="rgba(228, 229, 230, 1.0)" />
	<rect x="60" y="50" width="10" height="10" fill="rgba(228, 229, 230, 1.0)" />
	<rect x="70" y="50" width="10" height="10" fill="rgba(219, 221, 222, 1.0)" />
	<rect x="80" y="50" width="10" height="10" fill="rgba(224, 226, 226, 1.0)" />
	<rect x="90" y="50" width="10" height="10" fill="rgba(225, 227, 228, 1.0)" />
	<rect x="100" y="50" width="10" height="10" fill="rgba(231, 232, 232, 1.0)" />
	<rect x="110" y="50" width="10" height="10" fill="rgba(216, 218, 218, 1.0)" />
	<rect x="120" y="50" width="10" height="10" fill="rgba(214, 216, 217, 1.0)" />
	<rect x="130" y="50" width="10" height="10" fill="rgba(211, 214, 215, 1.0)" />
	<rect x="140" y="50" width="10" height="10" fill="rgba(218, 221, 221, 1.0)" />
	<rect x="150" y="50" width="10" height="10" fill="rgba(226, 227, 227, 1.0)" />
	<rect x="0" y="60" width="10" height="10" fill="rgba(206, 210, 210, 1.0)" />
	<rect x="10" y="60" width="10" height="10" fill="rgba(230, 231, 231, 1.0)" />
	<rect x="20" y="60" width="10" height="10" fill="rgba(220, 222, 222, 1.0)" />
	<rect x="30" y="60" width="10" height="10" fill="rgba(231, 233, 233, 1.0)" />
	<rect x="40" y="60" width="10" height="10" fill="rgba(225, 226, 226, 1.0)" />
	<rect x="50" y="60" width="10" height="10" fill="rgba(234, 235, 235, 1.0)" />
	<rect x="60" y="60" width="10" height="10" fill="rgba(216, 218, 219, 1.0)" />
	<rect x="70" y="60" width="10" height="10" fill="rgba(228, 229, 229, 1.0)" />
	<rect x="80" y="60" width="10" height="10" fill="rgba(226, 228, 228, 1.0)" />
	<rect x="90" y="60" width="10" height="10" fill="rgba(225, 226, 227, 1.0)" />
	<rect x="100" y="60" width="10" height="10" fill="rgba(226, 229, 230, 1.0)" />
	<rect x="110" y="60" width="10" height="10" fill="rgba(245, 246, 246, 1.0)" />
	<rect x="120" y="60" width="10" height="10" fill="rgba(224, 226, 226, 1.0)" />
	<rect x="130" y="60" width="10" height="10" fill="rgba(224, 226, 227, 1.0)" />
	<rect x="140" y="60" width="10" height="10" fill="rgba(238, 239, 239, 1.0)" />
	<rect x="150" y="60" width="10" height="10" fill="rgba(231, 232, 232, 1.0)" />
	<rect x="0" y="70" width="10" height="10" fill="rgba(223, 224, 225, 1.0)" />
	<rect x="10" y="70" width="10" height="10" fill="rgba(223, 226, 226, 1.0)" />
	<rect x="20" y="70" width="10" height="10" fill="rgba(227, 230, 230, 1.0)" />
	<rect x="30" y="70" width="10" height="10" fill="rgba(216, 219, 220, 1.0)" />
	<rect x="40" y="70" width="10" height="10" fill="rgba(233, 234, 234, 1.0)" />
	<rect x="50" y="70" width="10" height="10" fill="rgba(229, 230, 230, 1.0)" />
	<rect x="60" y="70" width="10" height="10" fill="rgba(242, 243, 243, 1.0)" />
	<rect x="70" y="70" width="10" height="10" fill="rgba(230, 232, 233, 1.0)" />
	<rect x="80" y="70" width="10" height="10" fill="rgba(225, 226, 227, 1.0)" />
	<rect x="90" y="70" width="10" height="10" fill="rgba(221, 223, 223, 1.0)" />
	<rect x="100" y="70" width="10" height="10" fill="rgba(220, 222, 223, 1.0)" />
	<rect x="110" y="70" width="10" height="10" fill="rgba(214, 217, 218, 1.0)" />
	<rect x="120" y="70" width="10" height="10" fill="rgba(222, 224, 224, 1.0)" />
	<rect x="130" y="70" width="10" height="10" fill="rgba(223, 225, 225, 1.0)" />
	<rect x="140" y="70" width="10" height="10" fill="rgba(231, 234, 234, 1.0)" />
	<rect x="150" y="70" width="10" height="10" fill="rgba(242, 242, 242, 1.0)" />
	<rect x="0" y="80" width="10" height="10" fill="rgba(224, 226, 226, 1.0)" />
	<rect x="10" y="80" width="10" height="10" fill="rgba(239, 240, 240, 1.0)" />
	<rect x="20" y="80" width="10" height="10" fill="rgba(237, 238, 238, 1.0)" />
	<rect x="30" y="80" width="10" height="10" fill="rgba(229, 231, 232, 1.0)" />
	<rect x="40" y="80" width="10" height="10" fill="rgba(236, 237, 237, 1.0)" />
	<rect x="50" y="80" width="10" height="10" fill="rgba(219, 222, 222, 1.0)" />
	<rect x="60" y="80" width="10" height="10" fill="rgba(231, 233, 233, 1.0)" />
	<rect x="70" y="80" width="10" height="10" fill="rgba(218, 221, 222, 1.0)" />
	<rect x="80" y="80" width="10" height="10" fill="rgba(216, 218, 219, 1.0)" />
	<rect x="90" y="80" width="10" height="10" fill="rgba(246, 247, 248, 1.0)" />
	<rect x="100" y="80" width="10" height="10" fill="rgba(214, 216, 216, 1.0)" />
	<rect x="110" y="80" width="10" height="10" fill="rgba(222, 224, 225, 1.0)" />
	<rect x="120" y="80" width="10" height="10" fill="rgba(225, 226, 227, 1.0)" />
	<rect x="130" y="80" width="10" height="10" fill="rgba(232, 234, 234, 1.0)" />
	<rect x="140" y="80" width="10" height="10" fill="rgba(226, 228, 228, 1.0)" />
	<rect x="150" y="80" width="10" height="10" fill="rgba(223, 224, 225, 1.0)" />
	<rect x="0" y="90" width="10" height="10" fill="rgba(215, 217, 217, 1.0)" />
	<rect x="10" y="90" width="10" height="10" fill="rgba(223, 225, 226, 1.0)" />
	<rect x="20" y="90" width="10" height="10" fill="rgba(235, 237, 237, 1.0)" />
	<rect x="30" y="90" width="10" height="10" fill="rgba(230, 231, 231, 1.0)" />
	<rect x="40" y="90" width="10" height="10" fill="rgba(240, 240, 240, 1.0)" />
	<rect x="50" y="90" width="10" height="10" fill="rgba(220, 222, 223, 1.0)" />
	<rect x="60" y="90" width="10" height="10" fill="rgba(224, 226, 226, 1.0)" />
	<rect x="70" y="90" width="10" height="10" fill="rgba(216, 218, 219, 1.0)" />
	<rect x="80" y="90" width="10" height="10" fill="rgba(226, 228, 228, 1.0)" />
	<rect x="90" y="90" width="10" height="10" fill="rgba(221, 223, 224, 1.0)" />
	<rect x="100" y="90" width="10" height="10" fill="rgba(240, 240, 240, 1.0)" />
	<rect x="110" y="90" width="10" height="10" fill="rgba(235, 237, 237, 1.0)" />
	<rect x="120" y="90" width="10" height="10" fill="rgba(232, 233, 233, 1.0)" />
	<rect x="130" y="90" width="10" height="10" fill="rgba(234, 235, 236, 1.0)" />
	<rect x="140" y="90" width="10" height="10" fill="rgba(225, 227, 227, 1.0)" />
	<rect x="150" y="90" width="10" height="10" fill="rgba(231, 232, 232, 1.0)" />
	<rect x="0" y="100" width="10" height="10" fill="rgba(226, 228, 228, 1.0)" />
	<rect x="10" y="100" width="10" height="10" fill="rgba(226, 228, 228, 1.0)" />
	<rect x="20" y="100" width="10" height="10" fill="rgba(218, 218, 218, 1.0)" />
	<rect x="30" y="100" width="10" height="10" fill="rgba(228, 230, 230, 1.0)" />
	<rect x="40" y="100" width="10" height="10" fill="rgba(211, 213, 214, 1.0)" />
	<rect x="50" y="100" width="10" height="10" fill="rgba(230, 232, 232, 1.0)" />
	<rect x="60" y="100" width="10" height="10" fill="rgba(220, 222, 223, 1.0)" />
	<rect x="70" y="100" width="10" height="10" fill="rgba(226, 228, 229, 1.0)" />
	<rect x="80" y="100" width="10" height="10" fill="rgba(227, 230, 230, 1.0)" />
	<rect x="90" y="100" width="10" height="10" fill="rgba(227, 230, 230, 1.0)" />
	<rect x="100" y="100" width="10" height="10" fill="rgba(235, 235, 235, 1.0)" />
	<rect x="110" y="100" width="10" height="10" fill="rgba(220, 223, 223, 1.0)" />
	<rect x="120" y="100" width="10" height="10" fill="rgba(228, 230, 230, 1.0)" />
	<rect x="130" y="100" width="10" height="10" fill="rgba(253, 253, 253, 1.0)" />
	<rect x="140" y="100" width="10" height="10" fill="rgba(226, 228, 228, 1.0)" />
	<rect x="150" y="100" width="10" height="10" fill="rgba(222, 223, 224, 1.0)" />
	<rect x="0" y="110" width="10" height="10" fill="rgba(212, 216, 216, 1.0)" />
	<rect x="10" y="110" width="10" height="10" fill="rgba(230, 231, 232, 1.0)" />
	<rect x="20" y="110" width="10" height="10" fill="rgba(228, 230, 230, 1.0)" />
	<rect x="30" y="110" width="10" height="10" fill="rgba(230, 231, 231, 1.0)" />
	<rect x="40" y="110" width="10" height="10" fill="rgba(220, 223, 223, 1.0)" />
	<rect x="50" y="110" width="10" height="10" fill="rgba(223, 226, 226, 1.0)" />
	<rect x="60" y="110" width="10" height="10" fill="rgba(233, 234, 234, 1.0)" />
	<rect x="70" y="110" width="10" height="10" fill="rgba(219, 221, 221, 1.0)" />
	<rect x="80" y="110" width="10" height="10" fill="rgba(223, 224, 225, 1.0)" />
	<rect x="90" y="110" width="10" height="10" fill="rgba(232, 234, 234, 1.0)" />
	<rect x="100" y="110" width="10" height="10" fill="rgba(232, 233, 233, 1.0)" />
	<rect x="110" y="110" width="10" height="10" fill="rgba(243, 244, 244, 1.0)" />
	<rect x="120" y="110" width="10" height="10" fill="rgba(216, 218, 219, 1.0)" />
	<rect x="130" y="110" width="10" height="10" fill="rgba(224, 226, 226, 1.0)" />
	<rect x="140" y="110" width="10" height="10" fill="rgba(225, 226, 226, 1.0)" />
	<rect x="150" y="110" width="10" height="10" fill="rgba(216, 218, 218, 1.0)" />
	<rect x="0" y="120" width="10" height="10" fill="rgba(236, 238, 238, 1.0)" />
	<rect x="10" y="120" width="10" height="10" fill="rgba(223, 225, 226, 1.0)" />
	<rect x="20" y="120" width="10" height="10" fill="rgba(214, 216, 217, 1.0)" />
	<rect x="30" y="120" width="10" height="10" fill="rgba(231, 233, 234, 1.0)" />
	<rect x="40" y="120" width="10" height="10" fill="rgba(225, 226, 227, 1.0)" />
	<rect x="50" y="120" width="10" height="10" fill="rgba(223, 225, 226, 1.0)" />
	<rect x="60" y="120" width="10" height="10" fill="rgba(223, 226, 226, 1.0)" />
	<rect x="70" y="120" width="10" height="10" fill="rgba(207, 209, 210, 1.0)" />
	<rect x="80" y="120" width="10" height="10" fill="rgba(218, 220, 220, 1.0)" />
	<rect x="90" y="120" width="10" height="10" fill="rgba(226, 228, 228, 1.0)" />
	<rect x="100" y="120" width="10" height="10" fill="rgba(224, 226, 226, 1.0)" />
	<rect x="110" y="120" width="10" height="10" fill="rgba(216, 219, 220, 1.0)" />
	<rect x="120" y="120" width="10" height="10" fill="rgba(227, 229, 230, 1.0)" />
	<rect x="130" y="120" width="10" height="10" fill="rgba(235, 236, 237, 1.0)" />
	<rect x="140" y="120" width="10" height="10" fill="rgba(213, 215, 216, 1.0)" />
	<rect x="150" y="120" width="10" height="10" fill="rgba(221, 223, 224, 1.0)" />
	<rect x="0" y="130" width="10" height="10" fill="rgba(220, 223, 224, 1.0)" />
	<rect x="10" y="130" width="10" height="10" fill="rgba(225, 227, 228, 1.0)" />
	<rect x="20" y="130" width="10" height="10" fill="rgba(210, 212, 213, 1.0)" />
	<rect x="30" y="130" width="10" height="10" fill="rgba(202, 206, 206, 1.0)" />
	<rect x="40" y="130" width="10" height="10" fill="rgba(217, 219, 220, 1.0)" />
	<rect x="50" y="130" width="10" height="10" fill="rgba(228, 230, 230, 1.0)" />
	<rect x="60" y="130" width="10" height="10" fill="rgba(220, 223, 223, 1.0)" />
	<rect x="70" y="130" width="10" height="10" fill="rgba(230, 232, 233, 1.0)" />
	<rect x="80" y="130" width="10" height="10" fill="rgba(230, 231, 231, 1.0)" />
	<rect x="90" y="130" width="10" height="10" fill="rgba(232, 234, 234, 1.0)" />
	<rect x="100" y="130" width="10" height="10" fill="rgba(223, 226, 226, 1.0)" />
	<rect x="110" y="130" width="10" height="10" fill="rgba(226, 228, 228, 1.0)" />
	<rect x="120" y="130" width="10" height="10" fill="rgba(223, 226, 226, 1.0)" />
	<rect x="130" y="130" width="10" height="10" fill="rgba(216, 218, 219, 1.0)" />
	<rect x="140" y="130" width="10" height="10" fill="rgba(235, 237, 237, 1.0)" />
	<rect x="150" y="130" width="10" height="10" fill="rgba(238, 238, 238, 1.0)" />
	<rect x="0" y="140" width="10" height="10" fill="rgba(223, 226, 226, 1.0)" />
	<rect x="10" y="140" width="10" height="10" fill="rgba(224, 226, 227, 1.0)" />
	<rect x="20" y="140" width="10" height="10" fill="rgba(219, 220, 221, 1.0)" />
	<rect x="30" y="140" width="10" height="10" fill="rgba(224, 226, 226, 1.0)" />
	<rect x="40" y="140" width="10" height="10" fill="rgba(219, 222, 223, 1.0)" />
	<rect x="50" y="140" width="10" height="10" fill="rgba(216, 219, 219, 1.0)" />
	<rect x="60" y="140" width="10" height="10" fill="rgba(234, 235, 235, 1.0)" />
	<rect x="70" y="140" width="10" height="10" fill="rgba(225, 227, 227, 1.0)" />
	<rect x="80" y="140" width="10" height="10" fill="rgba(219, 221, 221, 1.0)" />
	<rect x="90" y="140" width="10" height="10" fill="rgba(241, 241, 241, 1.0)" />
	<rect x="100" y="140" width="10" height="10" fill="rgba(214, 216, 216, 1.0)" />
	<rect x="110" y="140" width="10" height="10" fill="rgba(220, 222, 223, 1.0)" />
	<rect x="120" y="140" width="10" height="10" fill="rgba(228, 229, 230, 1.0)" />
	<rect x="130" y="140" width="10" height="10" fill="rgba(212, 215, 215, 1.0)" />
	<rect x="140" y="140" width="10" height="10" fill="rgba(216, 218, 218, 1.0)" />
	<rect x="150" y="140" width="10" height="10" fill="rgba(226, 228, 228, 1.0)" />
	<rect x="0" y="150" width="10" height="10" fill="rgba(223, 225, 225, 1.0)" />
	<rect x="10" y="150" width="10" height="10" fill="rgba(225, 227, 228, 1.0)" />
	<rect x="20" y="150" width="10" height="10" fill="rgba(225, 227, 227, 1.0)" />
	<rect x="30" y="150" width="10" height="10" fill="rgba(212, 215, 215, 1.0)" />
	<rect x="40" y="150" width="10" height="10" fill="rgba(241, 243, 243, 1.0)" />
	<rect x="50" y="150" width="10" height="10" fill="rgba(233, 234, 234, 1.0)" />
	<rect x="60" y="150" width="10" height="10" fill="rgba(212, 214, 214, 1.0)" />
	<rect x="70" y="150" width="10" height="10" fill="rgba(228, 230, 230, 1.0)" />
	<rect x="80" y="150" width="10" height="10" fill="rgba(223, 225, 226, 1.0)" />
	<rect x="90" y="150" width="10" height="10" fill="rgba(228, 230, 231, 1.0)" />
	<rect x="100" y="150" width="10" height="10" fill="rgba(215, 218, 218, 1.0)" />
	<rect x="110" y="150" width="10" height="10" fill="rgba(222, 223, 224, 1.0)" />
	<rect x="120" y="150" width="10" height="10" fill="rgba(223, 225, 226, 1.0)" />
	<rect x="130" y="150" width="10" height="10" fill="rgba(220, 223, 224, 1.0)" />
	<rect x="140" y="150" width="10" height="10" fill="rgba(230, 231, 232, 1.0)" />
	<rect x="150" y="150" width="10" height="10" fill="rgba(211, 213, 213, 1.0)" />
</svg>