<svg xmlns="http://www.w3.org/2000/svg" xmlns:xlink="http://www.w3.org/1999/xlink">
	<rect x="0" y="0" width="10" height="10" fill="rgba(209, 177, 161, 1.0)" />
	<rect x="10" y="0" width="10" height="10" fill="rgba(207, 175, 160, 1.0)" />
	<rect x="20" y="0" width="10" height="10" fill="rgba(207, 175, 160, 1.0)" />
	<rect x="30" y="0" width="10" height="10" fill="rgba(207, 175, 160, 1.0)" />
	<rect x="40" y="0" width="10" height="10" fill="rgba(209, 175, 161, 1.0)" />
	<rect x="50" y="0" width="10" height="10" fill="rgba(210, 179, 163, 1.0)" />
	<rect x="60" y="0" width="10" height="10" fill="rgba(212, 183, 164, 1.0)" />
	<rect x="70" y="0" width="10" height="10" fill="rgba(211, 180, 163, 1.0)" />
	<rect x="80" y="0" width="10" height="10" fill="rgba(207, 177, 160, 1.0)" />
	<rect x="90" y="0" width="10" height="10" fill="rgba(212, 183, 163, 1.0)" />
	<rect x="100" y="0" width="10" height="10" fill="rgba(211, 182, 163, 1.0)" />
	<rect x="110" y="0" width="10" height="10" fill="rgba(209, 177, 160, 1.0)" />
	<rect x="120" y="0" width="10" height="10" fill="rgba(207, 174, 159, 1.0)" />
	<rect x="130" y="0" width="10" height="10" fill="rgba(207, 174, 159, 1.0)" />
	<rect x="140" y="0" width="10" height="10" fill="rgba(207, 174, 159, 1.0)" />
	<rect x="150" y="0" width="10" height="10" fill="rgba(209, 177, 160, 1.0)" />
	<rect x="0" y="10" width="10" height="10" fill="rgba(209, 177, 161, 1.0)" />
	<rect x="10" y="10" width="10" height="10" fill="rgba(210, 177, 161, 1.0)" />
	<rect x="20" y="10" width="10" height="10" fill="rgba(212, 182, 164, 1.0)" />
	<rect x="30" y="10" width="10" height="10" fill="rgba(212, 183, 164, 1.0)" />
	<rect x="40" y="10" width="10" height="10" fill="rgba(212, 180, 164, 1.0)" />
	<rect x="50" y="10" width="10" height="10" fill="rgba(210, 179, 166, 1.0)" />
	<rect x="60" y="10" width="10" height="10" fill="rgba(209, 177, 161, 1.0)" />
	<rect x="70" y="10" width="10" height="10" fill="rgba(209, 177, 160, 1.0)" />
	<rect x="80" y="10" width="10" height="10" fill="rgba(209, 177, 160, 1.0)" />
	<rect x="90" y="10" width="10" height="10" fill="rgba(210, 180, 161, 1.0)" />
	<rect x="100" y="10" width="10" height="10" fill="rgba(212, 183, 163, 1.0)" />
	<rect x="110" y="10" width="10" height="10" fill="rgba(211, 182, 163, 1.0)" />
	<rect x="120" y="10" width="10" height="10" fill="rgba(207, 175, 160, 1.0)" />
	<rect x="130" y="10" width="10" height="10" fill="rgba(210, 177, 161, 1.0)" />
	<rect x="140" y="10" width="10" height="10" fill="rgba(210, 177, 161, 1.0)" />
	<rect x="150" y="10" width="10" height="10" fill="rgba(207, 175, 160, 1.0)" />
	<rect x="0" y="20" width="10" height="10" fill="rgba(209, 177, 162, 1.0)" />
	<rect x="10" y="20" width="10" height="10" fill="rgba(205, 177, 161, 1.0)" />
	<rect x="20" y="20" width="10" height="10" fill="rgba(209, 177, 161, 1.0)" />
	<rect x="30" y="20" width="10" height="10" fill="rgba(209, 177, 160, 1.0)" />
	<rect x="40" y="20" width="10" height="10" fill="rgba(207, 175, 159, 1.0)" />
	<rect x="50" y="20" width="10" height="10" fill="rgba(207, 174, 159, 1.0)" />
	<rect x="60" y="20" width="10" height="10" fill="rgba(207, 175, 159, 1.0)" />
	<rect x="70" y="20" width="10" height="10" fill="rgba(209, 177, 160, 1.0)" />
	<rect x="80" y="20" width="10" height="10" fill="rgba(211, 180, 162, 1.0)" />
	<rect x="90" y="20" width="10" height="10" fill="rgba(210, 179, 162, 1.0)" />
	<rect x="100" y="20" width="10" height="10" fill="rgba(210, 180, 162, 1.0)" />
	<rect x="110" y="20" width="10" height="10" fill="rgba(210, 179, 162, 1.0)" />
	<rect x="120" y="20" width="10" height="10" fill="rgba(209, 177, 162, 1.0)" />
	<rect x="130" y="20" width="10" height="10" fill="rgba(210, 183, 162, 1.0)" />
	<rect x="140" y="20" width="10" height="10" fill="rgba(210, 179, 161, 1.0)" />
	<rect x="150" y="20" width="10" height="10" fill="rgba(210, 179, 159, 1.0)" />
	<rect x="0" y="30" width="10" height="10" fill="rgba(210, 180, 162, 1.0)" />
	<rect x="10" y="30" width="10" height="10" fill="rgba(211, 182, 163, 1.0)" />
	<rect x="20" y="30" width="10" height="10" fill="rgba(210, 179, 162, 1.0)" />
	<rect x="30" y="30" width="10" height="10" fill="rgba(210, 175, 160, 1.0)" />
	<rect x="40" y="30" width="10" height="10" fill="rgba(207, 174, 159, 1.0)" />
	<rect x="50" y="30" width="10" height="10" fill="rgba(206, 174, 159, 1.0)" />
	<rect x="60" y="30" width="10" height="10" fill="rgba(207, 175, 160, 1.0)" />
	<rect x="70" y="30" width="10" height="10" fill="rgba(212, 177, 161, 1.0)" />
	<rect x="80" y="30" width="10" height="10" fill="rgba(210, 177, 161, 1.0)" />
	<rect x="90" y="30" width="10" height="10" fill="rgba(209, 177, 161, 1.0)" />
	<rect x="100" y="30" width="10" height="10" fill="rgba(209, 177, 161, 1.0)" />
	<rect x="110" y="30" width="10" height="10" fill="rgba(209, 179, 161, 1.0)" />
	<rect x="120" y="30" width="10" height="10" fill="rgba(210, 177, 161, 1.0)" />
	<rect x="130" y="30" width="10" height="10" fill="rgba(210, 177, 161, 1.0)" />
	<rect x="140" y="30" width="10" height="10" fill="rgba(210, 177, 160, 1.0)" />
	<rect x="150" y="30" width="10" height="10" fill="rgba(209, 177, 159, 1.0)" />
	<rect x="0" y="40" width="10" height="10" fill="rgba(210, 179, 162, 1.0)" />
	<rect x="10" y="40" width="10" height="10" fill="rgba(212, 182, 163, 1.0)" />
	<rect x="20" y="40" width="10" height="10" fill="rgba(212, 182, 163, 1.0)" />
	<rect x="30" y="40" width="10" height="10" fill="rgba(211, 180, 162, 1.0)" />
	<rect x="40" y="40" width="10" height="10" fill="rgba(210, 180, 162, 1.0)" />
	<rect x="50" y="40" width="10" height="10" fill="rgba(206, 173, 159, 1.0)" />
	<rect x="60" y="40" width="10" height="10" fill="rgba(207, 174, 159, 1.0)" />
	<rect x="70" y="40" width="10" height="10" fill="rgba(209, 174, 159, 1.0)" />
	<rect x="80" y="40" width="10" height="10" fill="rgba(209, 175, 161, 1.0)" />
	<rect x="90" y="40" width="10" height="10" fill="rgba(207, 175, 160, 1.0)" />
	<rect x="100" y="40" width="10" height="10" fill="rgba(213, 183, 164, 1.0)" />
	<rect x="110" y="40" width="10" height="10" fill="rgba(213, 183, 164, 1.0)" />
	<rect x="120" y="40" width="10" height="10" fill="rgba(210, 177, 161, 1.0)" />
	<rect x="130" y="40" width="10" height="10" fill="rgba(209, 177, 161, 1.0)" />
	<rect x="140" y="40" width="10" height="10" fill="rgba(210, 179, 162, 1.0)" />
	<rect x="150" y="40" width="10" height="10" fill="rgba(209, 177, 160, 1.0)" />
	<rect x="0" y="50" width="10" height="10" fill="rgba(212, 182, 163, 1.0)" />
	<rect x="10" y="50" width="10" height="10" fill="rgba(210, 179, 162, 1.0)" />
	<rect x="20" y="50" width="10" height="10" fill="rgba(211, 180, 163, 1.0)" />
	<rect x="30" y="50" width="10" height="10" fill="rgba(209, 177, 162, 1.0)" />
	<rect x="40" y="50" width="10" height="10" fill="rgba(209, 175, 160, 1.0)" />
	<rect x="50" y="50" width="10" height="10" fill="rgba(210, 177, 161, 1.0)" />
	<rect x="60" y="50" width="10" height="10" fill="rgba(210, 177, 161, 1.0)" />
	<rect x="70" y="50" width="10" height="10" fill="rgba(210, 177, 161, 1.0)" />
	<rect x="80" y="50" width="10" height="10" fill="rgba(210, 177, 161, 1.0)" />
	<rect x="90" y="50" width="10" height="10" fill="rgba(210, 177, 161, 1.0)" />
	<rect x="100" y="50" width="10" height="10" fill="rgba(210, 179, 162, 1.0)" />
	<rect x="110" y="50" width="10" height="10" fill="rgba(210, 180, 162, 1.0)" />
	<rect x="120" y="50" width="10" height="10" fill="rgba(210, 180, 162, 1.0)" />
	<rect x="130" y="50" width="10" height="10" fill="rgba(210, 179, 162, 1.0)" />
	<rect x="140" y="50" width="10" height="10" fill="rgba(209, 177, 161, 1.0)" />
	<rect x="150" y="50" width="10" height="10" fill="rgba(212, 182, 163, 1.0)" />
	<rect x="0" y="60" width="10" height="10" fill="rgba(211, 180, 162, 1.0)" />
	<rect x="10" y="60" width="10" height="10" fill="rgba(211, 182, 163, 1.0)" />
	<rect x="20" y="60" width="10" height="10" fill="rgba(210, 180, 163, 1.0)" />
	<rect x="30" y="60" width="10" height="10" fill="rgba(209, 177, 162, 1.0)" />
	<rect x="40" y="60" width="10" height="10" fill="rgba(209, 177, 160, 1.0)" />
	<rect x="50" y="60" width="10" height="10" fill="rgba(207, 175, 160, 1.0)" />
	<rect x="60" y="60" width="10" height="10" fill="rgba(210, 177, 161, 1.0)" />
	<rect x="70" y="60" width="10" height="10" fill="rgba(212, 177, 163, 1.0)" />
	<rect x="80" y="60" width="10" height="10" fill="rgba(210, 175, 160, 1.0)" />
	<rect x="90" y="60" width="10" height="10" fill="rgba(207, 175, 160, 1.0)" />
	<rect x="100" y="60" width="10" height="10" fill="rgba(209, 177, 161, 1.0)" />
	<rect x="110" y="60" width="10" height="10" fill="rgba(210, 179, 161, 1.0)" />
	<rect x="120" y="60" width="10" height="10" fill="rgba(211, 182, 163, 1.0)" />
	<rect x="130" y="60" width="10" height="10" fill="rgba(212, 180, 163, 1.0)" />
	<rect x="140" y="60" width="10" height="10" fill="rgba(211, 180, 162, 1.0)" />
	<rect x="150" y="60" width="10" height="10" fill="rgba(209, 175, 160, 1.0)" />
	<rect x="0" y="70" width="10" height="10" fill="rgba(211, 180, 163, 1.0)" />
	<rect x="10" y="70" width="10" height="10" fill="rgba(210, 177, 161, 1.0)" />
	<rect x="20" y="70" width="10" height="10" fill="rgba(209, 177, 160, 1.0)" />
	<rect x="30" y="70" width="10" height="10" fill="rgba(207, 175, 160, 1.0)" />
	<rect x="40" y="70" width="10" height="10" fill="rgba(211, 180, 162, 1.0)" />
	<rect x="50" y="70" width="10" height="10" fill="rgba(211, 180, 162, 1.0)" />
	<rect x="60" y="70" width="10" height="10" fill="rgba(207, 175, 160, 1.0)" />
	<rect x="70" y="70" width="10" height="10" fill="rgba(211, 182, 162, 1.0)" />
	<rect x="80" y="70" width="10" height="10" fill="rgba(212, 182, 163, 1.0)" />
	<rect x="90" y="70" width="10" height="10" fill="rgba(210, 177, 161, 1.0)" />
	<rect x="100" y="70" width="10" height="10" fill="rgba(209, 177, 161, 1.0)" />
	<rect x="110" y="70" width="10" height="10" fill="rgba(210, 177, 161, 1.0)" />
	<rect x="120" y="70" width="10" height="10" fill="rgba(210, 177, 161, 1.0)" />
	<rect x="130" y="70" width="10" height="10" fill="rgba(210, 179, 162, 1.0)" />
	<rect x="140" y="70" width="10" height="10" fill="rgba(211, 180, 163, 1.0)" />
	<rect x="150" y="70" width="10" height="10" fill="rgba(211, 180, 163, 1.0)" />
	<rect x="0" y="80" width="10" height="10" fill="rgba(211, 180, 163, 1.0)" />
	<rect x="10" y="80" width="10" height="10" fill="rgba(211, 180, 163, 1.0)" />
	<rect x="20" y="80" width="10" height="10" fill="rgba(210, 180, 163, 1.0)" />
	<rect x="30" y="80" width="10" height="10" fill="rgba(206, 174, 159, 1.0)" />
	<rect x="40" y="80" width="10" height="10" fill="rgba(209, 177, 161, 1.0)" />
	<rect x="50" y="80" width="10" height="10" fill="rgba(207, 175, 159, 1.0)" />
	<rect x="60" y="80" width="10" height="10" fill="rgba(209, 177, 161, 1.0)" />
	<rect x="70" y="80" width="10" height="10" fill="rgba(209, 177, 161, 1.0)" />
	<rect x="80" y="80" width="10" height="10" fill="rgba(209, 177, 161, 1.0)" />
	<rect x="90" y="80" width="10" height="10" fill="rgba(210, 180, 163, 1.0)" />
	<rect x="100" y="80" width="10" height="10" fill="rgba(212, 182, 163, 1.0)" />
	<rect x="110" y="80" width="10" height="10" fill="rgba(212, 182, 163, 1.0)" />
	<rect x="120" y="80" width="10" height="10" fill="rgba(212, 182, 163, 1.0)" />
	<rect x="130" y="80" width="10" height="10" fill="rgba(212, 182, 164, 1.0)" />
	<rect x="140" y="80" width="10" height="10" fill="rgba(212, 183, 166, 1.0)" />
	<rect x="150" y="80" width="10" height="10" fill="rgba(210, 177, 161, 1.0)" />
	<rect x="0" y="90" width="10" height="10" fill="rgba(211, 180, 163, 1.0)" />
	<rect x="10" y="90" width="10" height="10" fill="rgba(210, 177, 161, 1.0)" />
	<rect x="20" y="90" width="10" height="10" fill="rgba(209, 177, 161, 1.0)" />
	<rect x="30" y="90" width="10" height="10" fill="rgba(207, 175, 159, 1.0)" />
	<rect x="40" y="90" width="10" height="10" fill="rgba(207, 175, 159, 1.0)" />
	<rect x="50" y="90" width="10" height="10" fill="rgba(207, 175, 160, 1.0)" />
	<rect x="60" y="90" width="10" height="10" fill="rgba(209, 177, 161, 1.0)" />
	<rect x="70" y="90" width="10" height="10" fill="rgba(207, 175, 160, 1.0)" />
	<rect x="80" y="90" width="10" height="10" fill="rgba(210, 177, 161, 1.0)" />
	<rect x="90" y="90" width="10" height="10" fill="rgba(209, 177, 160, 1.0)" />
	<rect x="100" y="90" width="10" height="10" fill="rgba(209, 177, 161, 1.0)" />
	<rect x="110" y="90" width="10" height="10" fill="rgba(209, 177, 161, 1.0)" />
	<rect x="120" y="90" width="10" height="10" fill="rgba(210, 180, 162, 1.0)" />
	<rect x="130" y="90" width="10" height="10" fill="rgba(210, 180, 162, 1.0)" />
	<rect x="140" y="90" width="10" height="10" fill="rgba(213, 183, 164, 1.0)" />
	<rect x="150" y="90" width="10" height="10" fill="rgba(212, 182, 164, 1.0)" />
	<rect x="0" y="100" width="10" height="10" fill="rgba(210, 177, 160, 1.0)" />
	<rect x="10" y="100" width="10" height="10" fill="rgba(210, 177, 161, 1.0)" />
	<rect x="20" y="100" width="10" height="10" fill="rgba(209, 177, 162, 1.0)" />
	<rect x="30" y="100" width="10" height="10" fill="rgba(207, 175, 159, 1.0)" />
	<rect x="40" y="100" width="10" height="10" fill="rgba(207, 174, 160, 1.0)" />
	<rect x="50" y="100" width="10" height="10" fill="rgba(213, 183, 164, 1.0)" />
	<rect x="60" y="100" width="10" height="10" fill="rgba(213, 183, 164, 1.0)" />
	<rect x="70" y="100" width="10" height="10" fill="rgba(209, 175, 158, 1.0)" />
	<rect x="80" y="100" width="10" height="10" fill="rgba(210, 179, 162, 1.0)" />
	<rect x="90" y="100" width="10" height="10" fill="rgba(210, 180, 162, 1.0)" />
	<rect x="100" y="100" width="10" height="10" fill="rgba(212, 183, 163, 1.0)" />
	<rect x="110" y="100" width="10" height="10" fill="rgba(212, 182, 164, 1.0)" />
	<rect x="120" y="100" width="10" height="10" fill="rgba(210, 177, 161, 1.0)" />
	<rect x="130" y="100" width="10" height="10" fill="rgba(210, 179, 161, 1.0)" />
	<rect x="140" y="100" width="10" height="10" fill="rgba(210, 177, 161, 1.0)" />
	<rect x="150" y="100" width="10" height="10" fill="rgba(207, 175, 160, 1.0)" />
	<rect x="0" y="110" width="10" height="10" fill="rgba(207, 174, 160, 1.0)" />
	<rect x="10" y="110" width="10" height="10" fill="rgba(210, 177, 161, 1.0)" />
	<rect x="20" y="110" width="10" height="10" fill="rgba(210, 177, 161, 1.0)" />
	<rect x="30" y="110" width="10" height="10" fill="rgba(209, 177, 161, 1.0)" />
	<rect x="40" y="110" width="10" height="10" fill="rgba(207, 175, 160, 1.0)" />
	<rect x="50" y="110" width="10" height="10" fill="rgba(210, 177, 161, 1.0)" />
	<rect x="60" y="110" width="10" height="10" fill="rgba(210, 179, 162, 1.0)" />
	<rect x="70" y="110" width="10" height="10" fill="rgba(209, 177, 162, 1.0)" />
	<rect x="80" y="110" width="10" height="10" fill="rgba(212, 182, 163, 1.0)" />
	<rect x="90" y="110" width="10" height="10" fill="rgba(212, 183, 163, 1.0)" />
	<rect x="100" y="110" width="10" height="10" fill="rgba(211, 180, 163, 1.0)" />
	<rect x="110" y="110" width="10" height="10" fill="rgba(210, 180, 162, 1.0)" />
	<rect x="120" y="110" width="10" height="10" fill="rgba(210, 180, 162, 1.0)" />
	<rect x="130" y="110" width="10" height="10" fill="rgba(212, 182, 163, 1.0)" />
	<rect x="140" y="110" width="10" height="10" fill="rgba(211, 180, 163, 1.0)" />
	<rect x="150" y="110" width="10" height="10" fill="rgba(210, 177, 161, 1.0)" />
	<rect x="0" y="120" width="10" height="10" fill="rgba(209, 175, 161, 1.0)" />
	<rect x="10" y="120" width="10" height="10" fill="rgba(209, 177, 161, 1.0)" />
	<rect x="20" y="120" width="10" height="10" fill="rgba(209, 177, 161, 1.0)" />
	<rect x="30" y="120" width="10" height="10" fill="rgba(210, 177, 161, 1.0)" />
	<rect x="40" y="120" width="10" height="10" fill="rgba(209, 177, 160, 1.0)" />
	<rect x="50" y="120" width="10" height="10" fill="rgba(210, 175, 160, 1.0)" />
	<rect x="60" y="120" width="10" height="10" fill="rgba(207, 175, 160, 1.0)" />
	<rect x="70" y="120" width="10" height="10" fill="rgba(209, 177, 161, 1.0)" />
	<rect x="80" y="120" width="10" height="10" fill="rgba(213, 183, 166, 1.0)" />
	<rect x="90" y="120" width="10" height="10" fill="rgba(214, 180, 162, 1.0)" />
	<rect x="100" y="120" width="10" height="10" fill="rgba(209, 177, 160, 1.0)" />
	<rect x="110" y="120" width="10" height="10" fill="rgba(207, 175, 160, 1.0)" />
	<rect x="120" y="120" width="10" height="10" fill="rgba(209, 175, 160, 1.0)" />
	<rect x="130" y="120" width="10" height="10" fill="rgba(210, 179, 161, 1.0)" />
	<rect x="140" y="120" width="10" height="10" fill="rgba(210, 177, 161, 1.0)" />
	<rect x="150" y="120" width="10" height="10" fill="rgba(210, 179, 162, 1.0)" />
	<rect x="0" y="130" width="10" height="10" fill="rgba(210, 179, 162, 1.0)" />
	<rect x="10" y="130" width="10" height="10" fill="rgba(210, 180, 162, 1.0)" />
	<rect x="20" y="130" width="10" height="10" fill="rgba(210, 180, 162, 1.0)" />
	<rect x="30" y="130" width="10" height="10" fill="rgba(211, 182, 163, 1.0)" />
	<rect x="40" y="130" width="10" height="10" fill="rgba(209, 180, 162, 1.0)" />
	<rect x="50" y="130" width="10" height="10" fill="rgba(211, 183, 164, 1.0)" />
	<rect x="60" y="130" width="10" height="10" fill="rgba(210, 177, 160, 1.0)" />
	<rect x="70" y="130" width="10" height="10" fill="rgba(207, 175, 159, 1.0)" />
	<rect x="80" y="130" width="10" height="10" fill="rgba(209, 177, 160, 1.0)" />
	<rect x="90" y="130" width="10" height="10" fill="rgba(210, 175, 160, 1.0)" />
	<rect x="100" y="130" width="10" height="10" fill="rgba(205, 175, 158, 1.0)" />
	<rect x="110" y="130" width="10" height="10" fill="rgba(207, 175, 160, 1.0)" />
	<rect x="120" y="130" width="10" height="10" fill="rgba(210, 175, 160, 1.0)" />
	<rect x="130" y="130" width="10" height="10" fill="rgba(210, 177, 161, 1.0)" />
	<rect x="140" y="130" width="10" height="10" fill="rgba(212, 185, 163, 1.0)" />
	<rect x="150" y="130" width="10" height="10" fill="rgba(212, 182, 163, 1.0)" />
	<rect x="0" y="140" width="10" height="10" fill="rgba(210, 177, 161, 1.0)" />
	<rect x="10" y="140" width="10" height="10" fill="rgba(209, 180, 162, 1.0)" />
	<rect x="20" y="140" width="10" height="10" fill="rgba(209, 177, 162, 1.0)" />
	<rect x="30" y="140" width="10" height="10" fill="rgba(210, 172, 158, 1.0)" />
	<rect x="40" y="140" width="10" height="10" fill="rgba(207, 174, 159, 1.0)" />
	<rect x="50" y="140" width="10" height="10" fill="rgba(209, 177, 161, 1.0)" />
	<rect x="60" y="140" width="10" height="10" fill="rgba(210, 175, 160, 1.0)" />
	<rect x="70" y="140" width="10" height="10" fill="rgba(207, 175, 160, 1.0)" />
	<rect x="80" y="140" width="10" height="10" fill="rgba(209, 177, 161, 1.0)" />
	<rect x="90" y="140" width="10" height="10" fill="rgba(209, 177, 162, 1.0)" />
	<rect x="100" y="140" width="10" height="10" fill="rgba(210, 180, 162, 1.0)" />
	<rect x="110" y="140" width="10" height="10" fill="rgba(211, 180, 162, 1.0)" />
	<rect x="120" y="140" width="10" height="10" fill="rgba(210, 177, 161, 1.0)" />
	<rect x="130" y="140" width="10" height="10" fill="rgba(207, 177, 159, 1.0)" />
	<rect x="140" y="140" width="10" height="10" fill="rgba(210, 175, 160, 1.0)" />
	<rect x="150" y="140" width="10" height="10" fill="rgba(211, 180, 162, 1.0)" />
	<rect x="0" y="150" width="10" height="10" fill="rgba(209, 177, 162, 1.0)" />
	<rect x="10" y="150" width="10" height="10" fill="rgba(210, 179, 162, 1.0)" />
	<rect x="20" y="150" width="10" height="10" fill="rgba(210, 179, 162, 1.0)" />
	<rect x="30" y="150" width="10" height="10" fill="rgba(209, 180, 162, 1.0)" />
	<rect x="40" y="150" width="10" height="10" fill="rgba(209, 180, 162, 1.0)" />
	<rect x="50" y="150" width="10" height="10" fill="rgba(211, 180, 163, 1.0)" />
	<rect x="60" y="150" width="10" height="10" fill="rgba(212, 182, 163, 1.0)" />
	<rect x="70" y="150" width="10" height="10" fill="rgba(210, 180, 163, 1.0)" />
	<rect x="80" y="150" width="10" height="10" fill="rgba(209, 179, 162, 1.0)" />
	<rect x="90" y="150" width="10" height="10" fill="rgba(210, 180, 163, 1.0)" />
	<rect x="100" y="150" width="10" height="10" fill="rgba(210, 179, 162, 1.0)" />
	<rect x="110" y="150" width="10" height="10" fill="rgba(210, 175, 160, 1.0)" />
	<rect x="120" y="150" width="10" height="10" fill="rgba(209, 174, 159, 1.0)" />
	<rect x="130" y="150" width="10" height="10" fill="rgba(207, 174, 159, 1.0)" />
	<rect x="140" y="150" width="10" height="10" fill="rgba(210, 177, 161, 1.0)" />
	<rect x="150" y="150" width="10" height="10" fill="rgba(210, 179, 162, 1.0)" />
</svg>