<svg xmlns="http://www.w3.org/2000/svg" xmlns:xlink="http://www.w3.org/1999/xlink">
	<rect x="0" y="0" width="10" height="10" fill="rgba(226, 188, 47, 1.0)" />
	<rect x="10" y="0" width="10" height="10" fill="rgba(235, 198, 50, 1.0)" />
	<rect x="20" y="0" width="10" height="10" fill="rgba(238, 216, 78, 1.0)" />
	<rect x="30" y="0" width="10" height="10" fill="rgba(234, 207, 63, 1.0)" />
	<rect x="40" y="0" width="10" height="10" fill="rgba(237, 201, 51, 1.0)" />
	<rect x="50" y="0" width="10" height="10" fill="rgba(231, 195, 50, 1.0)" />
	<rect x="60" y="0" width="10" height="10" fill="rgba(229, 195, 51, 1.0)" />
	<rect x="70" y="0" width="10" height="10" fill="rgba(232, 197, 52, 1.0)" />
	<rect x="80" y="0" width="10" height="10" fill="rgba(235, 202, 54, 1.0)" />
	<rect x="90" y="0" width="10" height="10" fill="rgba(232, 191, 44, 1.0)" />
	<rect x="100" y="0" width="10" height="10" fill="rgba(233, 204, 61, 1.0)" />
	<rect x="110" y="0" width="10" height="10" fill="rgba(234, 200, 54, 1.0)" />
	<rect x="120" y="0" width="10" height="10" fill="rgba(234, 205, 59, 1.0)" />
	<rect x="130" y="0" width="10" height="10" fill="rgba(244, 207, 51, 1.0)" />
	<rect x="140" y="0" width="10" height="10" fill="rgba(224, 181, 40, 1.0)" />
	<rect x="150" y="0" width="10" height="10" fill="rgba(234, 203, 58, 1.0)" />
	<rect x="0" y="10" width="10" height="10" fill="rgba(232, 193, 44, 1.0)" />
	<rect x="10" y="10" width="10" height="10" fill="rgba(231, 195, 50, 1.0)" />
	<rect x="20" y="10" width="10" height="10" fill="rgba(234, 197, 50, 1.0)" />
	<rect x="30" y="10" width="10" height="10" fill="rgba(235, 194, 44, 1.0)" />
	<rect x="40" y="10" width="10" height="10" fill="rgba(221, 182, 43, 1.0)" />
	<rect x="50" y="10" width="10" height="10" fill="rgba(228, 193, 48, 1.0)" />
	<rect x="60" y="10" width="10" height="10" fill="rgba(228, 195, 51, 1.0)" />
	<rect x="70" y="10" width="10" height="10" fill="rgba(230, 198, 55, 1.0)" />
	<rect x="80" y="10" width="10" height="10" fill="rgba(240, 208, 58, 1.0)" />
	<rect x="90" y="10" width="10" height="10" fill="rgba(236, 196, 45, 1.0)" />
	<rect x="100" y="10" width="10" height="10" fill="rgba(248, 220, 63, 1.0)" />
	<rect x="110" y="10" width="10" height="10" fill="rgba(237, 216, 80, 1.0)" />
	<rect x="120" y="10" width="10" height="10" fill="rgba(237, 212, 72, 1.0)" />
	<rect x="130" y="10" width="10" height="10" fill="rgba(234, 207, 65, 1.0)" />
	<rect x="140" y="10" width="10" height="10" fill="rgba(233, 195, 47, 1.0)" />
	<rect x="150" y="10" width="10" height="10" fill="rgba(235, 196, 45, 1.0)" />
	<rect x="0" y="20" width="10" height="10" fill="rgba(236, 205, 58, 1.0)" />
	<rect x="10" y="20" width="10" height="10" fill="rgba(240, 207, 57, 1.0)" />
	<rect x="20" y="20" width="10" height="10" fill="rgba(241, 203, 45, 1.0)" />
	<rect x="30" y="20" width="10" height="10" fill="rgba(228, 187, 41, 1.0)" />
	<rect x="40" y="20" width="10" height="10" fill="rgba(232, 199, 54, 1.0)" />
	<rect x="50" y="20" width="10" height="10" fill="rgba(232, 203, 61, 1.0)" />
	<rect x="60" y="20" width="10" height="10" fill="rgba(232, 196, 50, 1.0)" />
	<rect x="70" y="20" width="10" height="10" fill="rgba(230, 189, 43, 1.0)" />
	<rect x="80" y="20" width="10" height="10" fill="rgba(240, 230, 176, 1.0)" />
	<rect x="90" y="20" width="10" height="10" fill="rgba(236, 205, 58, 1.0)" />
	<rect x="100" y="20" width="10" height="10" fill="rgba(236, 197, 47, 1.0)" />
	<rect x="110" y="20" width="10" height="10" fill="rgba(238, 206, 57, 1.0)" />
	<rect x="120" y="20" width="10" height="10" fill="rgba(236, 213, 77, 1.0)" />
	<rect x="130" y="20" width="10" height="10" fill="rgba(227, 191, 48, 1.0)" />
	<rect x="140" y="20" width="10" height="10" fill="rgba(233, 208, 69, 1.0)" />
	<rect x="150" y="20" width="10" height="10" fill="rgba(244, 214, 61, 1.0)" />
	<rect x="0" y="30" width="10" height="10" fill="rgba(230, 201, 62, 1.0)" />
	<rect x="10" y="30" width="10" height="10" fill="rgba(231, 196, 52, 1.0)" />
	<rect x="20" y="30" width="10" height="10" fill="rgba(230, 189, 44, 1.0)" />
	<rect x="30" y="30" width="10" height="10" fill="rgba(232, 190, 43, 1.0)" />
	<rect x="40" y="30" width="10" height="10" fill="rgba(230, 198, 55, 1.0)" />
	<rect x="50" y="30" width="10" height="10" fill="rgba(233, 195, 47, 1.0)" />
	<rect x="60" y="30" width="10" height="10" fill="rgba(230, 199, 57, 1.0)" />
	<rect x="70" y="30" width="10" height="10" fill="rgba(232, 193, 45, 1.0)" />
	<rect x="80" y="30" width="10" height="10" fill="rgba(214, 180, 45, 1.0)" />
	<rect x="90" y="30" width="10" height="10" fill="rgba(230, 194, 50, 1.0)" />
	<rect x="100" y="30" width="10" height="10" fill="rgba(230, 190, 44, 1.0)" />
	<rect x="110" y="30" width="10" height="10" fill="rgba(237, 208, 62, 1.0)" />
	<rect x="120" y="30" width="10" height="10" fill="rgba(237, 201, 51, 1.0)" />
	<rect x="130" y="30" width="10" height="10" fill="rgba(237, 200, 50, 1.0)" />
	<rect x="140" y="30" width="10" height="10" fill="rgba(231, 192, 47, 1.0)" />
	<rect x="150" y="30" width="10" height="10" fill="rgba(223, 194, 57, 1.0)" />
	<rect x="0" y="40" width="10" height="10" fill="rgba(237, 206, 59, 1.0)" />
	<rect x="10" y="40" width="10" height="10" fill="rgba(232, 204, 62, 1.0)" />
	<rect x="20" y="40" width="10" height="10" fill="rgba(237, 201, 51, 1.0)" />
	<rect x="30" y="40" width="10" height="10" fill="rgba(235, 213, 81, 1.0)" />
	<rect x="40" y="40" width="10" height="10" fill="rgba(238, 206, 57, 1.0)" />
	<rect x="50" y="40" width="10" height="10" fill="rgba(238, 205, 54, 1.0)" />
	<rect x="60" y="40" width="10" height="10" fill="rgba(236, 198, 48, 1.0)" />
	<rect x="70" y="40" width="10" height="10" fill="rgba(237, 201, 51, 1.0)" />
	<rect x="80" y="40" width="10" height="10" fill="rgba(227, 186, 43, 1.0)" />
	<rect x="90" y="40" width="10" height="10" fill="rgba(226, 185, 43, 1.0)" />
	<rect x="100" y="40" width="10" height="10" fill="rgba(230, 201, 58, 1.0)" />
	<rect x="110" y="40" width="10" height="10" fill="rgba(243, 234, 181, 1.0)" />
	<rect x="120" y="40" width="10" height="10" fill="rgba(231, 195, 50, 1.0)" />
	<rect x="130" y="40" width="10" height="10" fill="rgba(223, 191, 52, 1.0)" />
	<rect x="140" y="40" width="10" height="10" fill="rgba(240, 203, 50, 1.0)" />
	<rect x="150" y="40" width="10" height="10" fill="rgba(227, 194, 52, 1.0)" />
	<rect x="0" y="50" width="10" height="10" fill="rgba(228, 196, 54, 1.0)" />
	<rect x="10" y="50" width="10" height="10" fill="rgba(235, 201, 55, 1.0)" />
	<rect x="20" y="50" width="10" height="10" fill="rgba(227, 187, 44, 1.0)" />
	<rect x="30" y="50" width="10" height="10" fill="rgba(248, 213, 51, 1.0)" />
	<rect x="40" y="50" width="10" height="10" fill="rgba(228, 193, 48, 1.0)" />
	<rect x="50" y="50" width="10" height="10" fill="rgba(236, 198, 47, 1.0)" />
	<rect x="60" y="50" width="10" height="10" fill="rgba(238, 217, 82, 1.0)" />
	<rect x="70" y="50" width="10" height="10" fill="rgba(237, 213, 73, 1.0)" />
	<rect x="80" y="50" width="10" height="10" fill="rgba(230, 192, 47, 1.0)" />
	<rect x="90" y="50" width="10" height="10" fill="rgba(238, 200, 47, 1.0)" />
	<rect x="100" y="50" width="10" height="10" fill="rgba(232, 194, 47, 1.0)" />
	<rect x="110" y="50" width="10" height="10" fill="rgba(225, 191, 51, 1.0)" />
	<rect x="120" y="50" width="10" height="10" fill="rgba(230, 200, 59, 1.0)" />
	<rect x="130" y="50" width="10" height="10" fill="rgba(227, 188, 45, 1.0)" />
	<rect x="140" y="50" width="10" height="10" fill="rgba(231, 190, 44, 1.0)" />
	<rect x="150" y="50" width="10" height="10" fill="rgba(224, 194, 55, 1.0)" />
	<rect x="0" y="60" width="10" height="10" fill="rgba(219, 179, 43, 1.0)" />
	<rect x="10" y="60" width="10" height="10" fill="rgba(234, 196, 47, 1.0)" />
	<rect x="20" y="60" width="10" height="10" fill="rgba(227, 190, 47, 1.0)" />
	<rect x="30" y="60" width="10" height="10" fill="rgba(234, 205, 59, 1.0)" />
	<rect x="40" y="60" width="10" height="10" fill="rgba(221, 184, 45, 1.0)" />
	<rect x="50" y="60" width="10" height="10" fill="rgba(233, 192, 45, 1.0)" />
	<rect x="60" y="60" width="10" height="10" fill="rgba(233, 203, 61, 1.0)" />
	<rect x="70" y="60" width="10" height="10" fill="rgba(227, 186, 41, 1.0)" />
	<rect x="80" y="60" width="10" height="10" fill="rgba(228, 186, 41, 1.0)" />
	<rect x="90" y="60" width="10" height="10" fill="rgba(234, 208, 69, 1.0)" />
	<rect x="100" y="60" width="10" height="10" fill="rgba(240, 213, 67, 1.0)" />
	<rect x="110" y="60" width="10" height="10" fill="rgba(246, 216, 61, 1.0)" />
	<rect x="120" y="60" width="10" height="10" fill="rgba(232, 192, 45, 1.0)" />
	<rect x="130" y="60" width="10" height="10" fill="rgba(238, 206, 58, 1.0)" />
	<rect x="140" y="60" width="10" height="10" fill="rgba(233, 198, 52, 1.0)" />
	<rect x="150" y="60" width="10" height="10" fill="rgba(231, 193, 47, 1.0)" />
	<rect x="0" y="70" width="10" height="10" fill="rgba(231, 190, 44, 1.0)" />
	<rect x="10" y="70" width="10" height="10" fill="rgba(231, 196, 52, 1.0)" />
	<rect x="20" y="70" width="10" height="10" fill="rgba(236, 200, 50, 1.0)" />
	<rect x="30" y="70" width="10" height="10" fill="rgba(231, 195, 50, 1.0)" />
	<rect x="40" y="70" width="10" height="10" fill="rgba(234, 205, 61, 1.0)" />
	<rect x="50" y="70" width="10" height="10" fill="rgba(227, 185, 41, 1.0)" />
	<rect x="60" y="70" width="10" height="10" fill="rgba(238, 212, 65, 1.0)" />
	<rect x="70" y="70" width="10" height="10" fill="rgba(243, 212, 58, 1.0)" />
	<rect x="80" y="70" width="10" height="10" fill="rgba(237, 213, 76, 1.0)" />
	<rect x="90" y="70" width="10" height="10" fill="rgba(228, 191, 47, 1.0)" />
	<rect x="100" y="70" width="10" height="10" fill="rgba(231, 197, 52, 1.0)" />
	<rect x="110" y="70" width="10" height="10" fill="rgba(230, 195, 51, 1.0)" />
	<rect x="120" y="70" width="10" height="10" fill="rgba(232, 189, 41, 1.0)" />
	<rect x="130" y="70" width="10" height="10" fill="rgba(234, 194, 45, 1.0)" />
	<rect x="140" y="70" width="10" height="10" fill="rgba(242, 209, 55, 1.0)" />
	<rect x="150" y="70" width="10" height="10" fill="rgba(236, 197, 47, 1.0)" />
	<rect x="0" y="80" width="10" height="10" fill="rgba(233, 193, 44, 1.0)" />
	<rect x="10" y="80" width="10" height="10" fill="rgba(234, 194, 45, 1.0)" />
	<rect x="20" y="80" width="10" height="10" fill="rgba(242, 213, 65, 1.0)" />
	<rect x="30" y="80" width="10" height="10" fill="rgba(238, 207, 61, 1.0)" />
	<rect x="40" y="80" width="10" height="10" fill="rgba(235, 203, 55, 1.0)" />
	<rect x="50" y="80" width="10" height="10" fill="rgba(228, 190, 45, 1.0)" />
	<rect x="60" y="80" width="10" height="10" fill="rgba(237, 198, 48, 1.0)" />
	<rect x="70" y="80" width="10" height="10" fill="rgba(236, 206, 61, 1.0)" />
	<rect x="80" y="80" width="10" height="10" fill="rgba(230, 195, 50, 1.0)" />
	<rect x="90" y="80" width="10" height="10" fill="rgba(247, 218, 62, 1.0)" />
	<rect x="100" y="80" width="10" height="10" fill="rgba(221, 182, 44, 1.0)" />
	<rect x="110" y="80" width="10" height="10" fill="rgba(234, 204, 58, 1.0)" />
	<rect x="120" y="80" width="10" height="10" fill="rgba(230, 192, 47, 1.0)" />
	<rect x="130" y="80" width="10" height="10" fill="rgba(233, 197, 51, 1.0)" />
	<rect x="140" y="80" width="10" height="10" fill="rgba(232, 192, 44, 1.0)" />
	<rect x="150" y="80" width="10" height="10" fill="rgba(234, 207, 63, 1.0)" />
	<rect x="0" y="90" width="10" height="10" fill="rgba(222, 186, 47, 1.0)" />
	<rect x="10" y="90" width="10" height="10" fill="rgba(231, 192, 47, 1.0)" />
	<rect x="20" y="90" width="10" height="10" fill="rgba(237, 200, 51, 1.0)" />
	<rect x="30" y="90" width="10" height="10" fill="rgba(234, 204, 61, 1.0)" />
	<rect x="40" y="90" width="10" height="10" fill="rgba(232, 200, 54, 1.0)" />
	<rect x="50" y="90" width="10" height="10" fill="rgba(233, 193, 44, 1.0)" />
	<rect x="60" y="90" width="10" height="10" fill="rgba(228, 190, 45, 1.0)" />
	<rect x="70" y="90" width="10" height="10" fill="rgba(228, 188, 45, 1.0)" />
	<rect x="80" y="90" width="10" height="10" fill="rgba(230, 189, 41, 1.0)" />
	<rect x="90" y="90" width="10" height="10" fill="rgba(232, 197, 51, 1.0)" />
	<rect x="100" y="90" width="10" height="10" fill="rgba(232, 195, 48, 1.0)" />
	<rect x="110" y="90" width="10" height="10" fill="rgba(238, 200, 48, 1.0)" />
	<rect x="120" y="90" width="10" height="10" fill="rgba(232, 198, 52, 1.0)" />
	<rect x="130" y="90" width="10" height="10" fill="rgba(234, 195, 45, 1.0)" />
	<rect x="140" y="90" width="10" height="10" fill="rgba(230, 191, 45, 1.0)" />
	<rect x="150" y="90" width="10" height="10" fill="rgba(240, 212, 65, 1.0)" />
	<rect x="0" y="100" width="10" height="10" fill="rgba(233, 196, 48, 1.0)" />
	<rect x="10" y="100" width="10" height="10" fill="rgba(237, 210, 67, 1.0)" />
	<rect x="20" y="100" width="10" height="10" fill="rgba(218, 200, 100, 1.0)" />
	<rect x="30" y="100" width="10" height="10" fill="rgba(240, 217, 76, 1.0)" />
	<rect x="40" y="100" width="10" height="10" fill="rgba(224, 183, 43, 1.0)" />
	<rect x="50" y="100" width="10" height="10" fill="rgba(242, 215, 66, 1.0)" />
	<rect x="60" y="100" width="10" height="10" fill="rgba(234, 205, 63, 1.0)" />
	<rect x="70" y="100" width="10" height="10" fill="rgba(232, 194, 47, 1.0)" />
	<rect x="80" y="100" width="10" height="10" fill="rgba(242, 212, 62, 1.0)" />
	<rect x="90" y="100" width="10" height="10" fill="rgba(240, 204, 51, 1.0)" />
	<rect x="100" y="100" width="10" height="10" fill="rgba(238, 211, 65, 1.0)" />
	<rect x="110" y="100" width="10" height="10" fill="rgba(232, 200, 58, 1.0)" />
	<rect x="120" y="100" width="10" height="10" fill="rgba(230, 190, 43, 1.0)" />
	<rect x="130" y="100" width="10" height="10" fill="rgba(248, 220, 61, 1.0)" />
	<rect x="140" y="100" width="10" height="10" fill="rgba(233, 206, 65, 1.0)" />
	<rect x="150" y="100" width="10" height="10" fill="rgba(231, 194, 48, 1.0)" />
	<rect x="0" y="110" width="10" height="10" fill="rgba(229, 199, 59, 1.0)" />
	<rect x="10" y="110" width="10" height="10" fill="rgba(240, 216, 74, 1.0)" />
	<rect x="20" y="110" width="10" height="10" fill="rgba(240, 219, 83, 1.0)" />
	<rect x="30" y="110" width="10" height="10" fill="rgba(226, 193, 51, 1.0)" />
	<rect x="40" y="110" width="10" height="10" fill="rgba(232, 191, 44, 1.0)" />
	<rect x="50" y="110" width="10" height="10" fill="rgba(235, 211, 73, 1.0)" />
	<rect x="60" y="110" width="10" height="10" fill="rgba(232, 193, 45, 1.0)" />
	<rect x="70" y="110" width="10" height="10" fill="rgba(229, 189, 44, 1.0)" />
	<rect x="80" y="110" width="10" height="10" fill="rgba(232, 193, 47, 1.0)" />
	<rect x="90" y="110" width="10" height="10" fill="rgba(235, 209, 66, 1.0)" />
	<rect x="100" y="110" width="10" height="10" fill="rgba(235, 213, 74, 1.0)" />
	<rect x="110" y="110" width="10" height="10" fill="rgba(245, 212, 57, 1.0)" />
	<rect x="120" y="110" width="10" height="10" fill="rgba(230, 198, 55, 1.0)" />
	<rect x="130" y="110" width="10" height="10" fill="rgba(229, 194, 50, 1.0)" />
	<rect x="140" y="110" width="10" height="10" fill="rgba(227, 188, 45, 1.0)" />
	<rect x="150" y="110" width="10" height="10" fill="rgba(221, 190, 54, 1.0)" />
	<rect x="0" y="120" width="10" height="10" fill="rgba(239, 204, 51, 1.0)" />
	<rect x="10" y="120" width="10" height="10" fill="rgba(231, 189, 41, 1.0)" />
	<rect x="20" y="120" width="10" height="10" fill="rgba(227, 188, 43, 1.0)" />
	<rect x="30" y="120" width="10" height="10" fill="rgba(240, 205, 52, 1.0)" />
	<rect x="40" y="120" width="10" height="10" fill="rgba(233, 195, 47, 1.0)" />
	<rect x="50" y="120" width="10" height="10" fill="rgba(229, 194, 50, 1.0)" />
	<rect x="60" y="120" width="10" height="10" fill="rgba(235, 202, 54, 1.0)" />
	<rect x="70" y="120" width="10" height="10" fill="rgba(219, 180, 41, 1.0)" />
	<rect x="80" y="120" width="10" height="10" fill="rgba(226, 189, 50, 1.0)" />
	<rect x="90" y="120" width="10" height="10" fill="rgba(235, 209, 66, 1.0)" />
	<rect x="100" y="120" width="10" height="10" fill="rgba(234, 208, 69, 1.0)" />
	<rect x="110" y="120" width="10" height="10" fill="rgba(227, 189, 45, 1.0)" />
	<rect x="120" y="120" width="10" height="10" fill="rgba(236, 204, 57, 1.0)" />
	<rect x="130" y="120" width="10" height="10" fill="rgba(240, 217, 76, 1.0)" />
	<rect x="140" y="120" width="10" height="10" fill="rgba(227, 190, 47, 1.0)" />
	<rect x="150" y="120" width="10" height="10" fill="rgba(230, 196, 51, 1.0)" />
	<rect x="0" y="130" width="10" height="10" fill="rgba(235, 206, 59, 1.0)" />
	<rect x="10" y="130" width="10" height="10" fill="rgba(236, 198, 48, 1.0)" />
	<rect x="20" y="130" width="10" height="10" fill="rgba(230, 204, 65, 1.0)" />
	<rect x="30" y="130" width="10" height="10" fill="rgba(218, 189, 57, 1.0)" />
	<rect x="40" y="130" width="10" height="10" fill="rgba(228, 192, 50, 1.0)" />
	<rect x="50" y="130" width="10" height="10" fill="rgba(234, 209, 73, 1.0)" />
	<rect x="60" y="130" width="10" height="10" fill="rgba(230, 196, 52, 1.0)" />
	<rect x="70" y="130" width="10" height="10" fill="rgba(243, 215, 63, 1.0)" />
	<rect x="80" y="130" width="10" height="10" fill="rgba(237, 206, 59, 1.0)" />
	<rect x="90" y="130" width="10" height="10" fill="rgba(241, 206, 51, 1.0)" />
	<rect x="100" y="130" width="10" height="10" fill="rgba(239, 213, 66, 1.0)" />
	<rect x="110" y="130" width="10" height="10" fill="rgba(238, 215, 78, 1.0)" />
	<rect x="120" y="130" width="10" height="10" fill="rgba(238, 211, 66, 1.0)" />
	<rect x="130" y="130" width="10" height="10" fill="rgba(231, 196, 52, 1.0)" />
	<rect x="140" y="130" width="10" height="10" fill="rgba(236, 197, 47, 1.0)" />
	<rect x="150" y="130" width="10" height="10" fill="rgba(230, 194, 48, 1.0)" />
	<rect x="0" y="140" width="10" height="10" fill="rgba(236, 201, 54, 1.0)" />
	<rect x="10" y="140" width="10" height="10" fill="rgba(232, 198, 52, 1.0)" />
	<rect x="20" y="140" width="10" height="10" fill="rgba(233, 206, 65, 1.0)" />
	<rect x="30" y="140" width="10" height="10" fill="rgba(227, 191, 48, 1.0)" />
	<rect x="40" y="140" width="10" height="10" fill="rgba(234, 196, 48, 1.0)" />
	<rect x="50" y="140" width="10" height="10" fill="rgba(233, 206, 66, 1.0)" />
	<rect x="60" y="140" width="10" height="10" fill="rgba(233, 198, 52, 1.0)" />
	<rect x="70" y="140" width="10" height="10" fill="rgba(233, 193, 44, 1.0)" />
	<rect x="80" y="140" width="10" height="10" fill="rgba(224, 184, 43, 1.0)" />
	<rect x="90" y="140" width="10" height="10" fill="rgba(233, 193, 44, 1.0)" />
	<rect x="100" y="140" width="10" height="10" fill="rgba(223, 198, 67, 1.0)" />
	<rect x="110" y="140" width="10" height="10" fill="rgba(230, 192, 48, 1.0)" />
	<rect x="120" y="140" width="10" height="10" fill="rgba(237, 199, 50, 1.0)" />
	<rect x="130" y="140" width="10" height="10" fill="rgba(227, 191, 48, 1.0)" />
	<rect x="140" y="140" width="10" height="10" fill="rgba(227, 191, 48, 1.0)" />
	<rect x="150" y="140" width="10" height="10" fill="rgba(234, 196, 47, 1.0)" />
	<rect x="0" y="150" width="10" height="10" fill="rgba(230, 196, 51, 1.0)" />
	<rect x="10" y="150" width="10" height="10" fill="rgba(234, 193, 44, 1.0)" />
	<rect x="20" y="150" width="10" height="10" fill="rgba(228, 189, 43, 1.0)" />
	<rect x="30" y="150" width="10" height="10" fill="rgba(223, 189, 50, 1.0)" />
	<rect x="40" y="150" width="10" height="10" fill="rgba(249, 228, 78, 1.0)" />
	<rect x="50" y="150" width="10" height="10" fill="rgba(235, 206, 62, 1.0)" />
	<rect x="60" y="150" width="10" height="10" fill="rgba(226, 195, 55, 1.0)" />
	<rect x="70" y="150" width="10" height="10" fill="rgba(239, 202, 50, 1.0)" />
	<rect x="80" y="150" width="10" height="10" fill="rgba(234, 206, 63, 1.0)" />
	<rect x="90" y="150" width="10" height="10" fill="rgba(240, 201, 48, 1.0)" />
	<rect x="100" y="150" width="10" height="10" fill="rgba(228, 191, 47, 1.0)" />
	<rect x="110" y="150" width="10" height="10" fill="rgba(233, 194, 47, 1.0)" />
	<rect x="120" y="150" width="10" height="10" fill="rgba(237, 215, 77, 1.0)" />
	<rect x="130" y="150" width="10" height="10" fill="rgba(235, 209, 67, 1.0)" />
	<rect x="140" y="150" width="10" height="10" fill="rgba(228, 187, 41, 1.0)" />
	<rect x="150" y="150" width="10" height="10" fill="rgba(223, 186, 44, 1.0)" />
</svg>