<svg xmlns="http://www.w3.org/2000/svg" xmlns:xlink="http://www.w3.org/1999/xlink">
	<rect x="0" y="0" width="10" height="10" fill="rgba(245, 185, 28, 1.0)" />
	<rect x="10" y="0" width="10" height="10" fill="rgba(246, 189, 31, 1.0)" />
	<rect x="20" y="0" width="10" height="10" fill="rgba(244, 182, 26, 1.0)" />
	<rect x="30" y="0" width="10" height="10" fill="rgba(245, 184, 27, 1.0)" />
	<rect x="40" y="0" width="10" height="10" fill="rgba(248, 196, 36, 1.0)" />
	<rect x="50" y="0" width="10" height="10" fill="rgba(252, 208, 48, 1.0)" />
	<rect x="60" y="0" width="10" height="10" fill="rgba(245, 186, 28, 1.0)" />
	<rect x="70" y="0" width="10" height="10" fill="rgba(246, 187, 30, 1.0)" />
	<rect x="80" y="0" width="10" height="10" fill="rgba(251, 203, 43, 1.0)" />
	<rect x="90" y="0" width="10" height="10" fill="rgba(251, 206, 45, 1.0)" />
	<rect x="100" y="0" width="10" height="10" fill="rgba(243, 179, 23, 1.0)" />
	<rect x="110" y="0" width="10" height="10" fill="rgba(244, 183, 26, 1.0)" />
	<rect x="120" y="0" width="10" height="10" fill="rgba(249, 199, 38, 1.0)" />
	<rect x="130" y="0" width="10" height="10" fill="rgba(249, 199, 38, 1.0)" />
	<rect x="140" y="0" width="10" height="10" fill="rgba(244, 183, 26, 1.0)" />
	<rect x="150" y="0" width="10" height="10" fill="rgba(243, 180, 24, 1.0)" />
	<rect x="0" y="10" width="10" height="10" fill="rgba(249, 197, 37, 1.0)" />
	<rect x="10" y="10" width="10" height="10" fill="rgba(250, 202, 42, 1.0)" />
	<rect x="20" y="10" width="10" height="10" fill="rgba(254, 217, 63, 1.0)" />
	<rect x="30" y="10" width="10" height="10" fill="rgba(254, 217, 63, 1.0)" />
	<rect x="40" y="10" width="10" height="10" fill="rgba(253, 210, 51, 1.0)" />
	<rect x="50" y="10" width="10" height="10" fill="rgba(251, 206, 45, 1.0)" />
	<rect x="60" y="10" width="10" height="10" fill="rgba(247, 193, 33, 1.0)" />
	<rect x="70" y="10" width="10" height="10" fill="rgba(247, 192, 33, 1.0)" />
	<rect x="80" y="10" width="10" height="10" fill="rgba(245, 184, 27, 1.0)" />
	<rect x="90" y="10" width="10" height="10" fill="rgba(243, 180, 24, 1.0)" />
	<rect x="100" y="10" width="10" height="10" fill="rgba(246, 187, 30, 1.0)" />
	<rect x="110" y="10" width="10" height="10" fill="rgba(247, 192, 33, 1.0)" />
	<rect x="120" y="10" width="10" height="10" fill="rgba(242, 176, 21, 1.0)" />
	<rect x="130" y="10" width="10" height="10" fill="rgba(243, 181, 25, 1.0)" />
	<rect x="140" y="10" width="10" height="10" fill="rgba(246, 189, 31, 1.0)" />
	<rect x="150" y="10" width="10" height="10" fill="rgba(248, 194, 34, 1.0)" />
	<rect x="0" y="20" width="10" height="10" fill="rgba(253, 210, 51, 1.0)" />
	<rect x="10" y="20" width="10" height="10" fill="rgba(253, 212, 53, 1.0)" />
	<rect x="20" y="20" width="10" height="10" fill="rgba(247, 192, 33, 1.0)" />
	<rect x="30" y="20" width="10" height="10" fill="rgba(248, 195, 35, 1.0)" />
	<rect x="40" y="20" width="10" height="10" fill="rgba(254, 215, 58, 1.0)" />
	<rect x="50" y="20" width="10" height="10" fill="rgba(253, 212, 53, 1.0)" />
	<rect x="60" y="20" width="10" height="10" fill="rgba(249, 200, 39, 1.0)" />
	<rect x="70" y="20" width="10" height="10" fill="rgba(247, 192, 33, 1.0)" />
	<rect x="80" y="20" width="10" height="10" fill="rgba(251, 206, 45, 1.0)" />
	<rect x="90" y="20" width="10" height="10" fill="rgba(253, 212, 53, 1.0)" />
	<rect x="100" y="20" width="10" height="10" fill="rgba(251, 205, 44, 1.0)" />
	<rect x="110" y="20" width="10" height="10" fill="rgba(251, 205, 44, 1.0)" />
	<rect x="120" y="20" width="10" height="10" fill="rgba(254, 215, 59, 1.0)" />
	<rect x="130" y="20" width="10" height="10" fill="rgba(254, 217, 63, 1.0)" />
	<rect x="140" y="20" width="10" height="10" fill="rgba(251, 206, 45, 1.0)" />
	<rect x="150" y="20" width="10" height="10" fill="rgba(250, 202, 42, 1.0)" />
	<rect x="0" y="30" width="10" height="10" fill="rgba(249, 197, 37, 1.0)" />
	<rect x="10" y="30" width="10" height="10" fill="rgba(246, 189, 31, 1.0)" />
	<rect x="20" y="30" width="10" height="10" fill="rgba(252, 207, 47, 1.0)" />
	<rect x="30" y="30" width="10" height="10" fill="rgba(253, 212, 53, 1.0)" />
	<rect x="40" y="30" width="10" height="10" fill="rgba(247, 192, 33, 1.0)" />
	<rect x="50" y="30" width="10" height="10" fill="rgba(246, 190, 31, 1.0)" />
	<rect x="60" y="30" width="10" height="10" fill="rgba(248, 196, 36, 1.0)" />
	<rect x="70" y="30" width="10" height="10" fill="rgba(253, 212, 53, 1.0)" />
	<rect x="80" y="30" width="10" height="10" fill="rgba(245, 186, 28, 1.0)" />
	<rect x="90" y="30" width="10" height="10" fill="rgba(247, 193, 33, 1.0)" />
	<rect x="100" y="30" width="10" height="10" fill="rgba(253, 212, 53, 1.0)" />
	<rect x="110" y="30" width="10" height="10" fill="rgba(253, 212, 53, 1.0)" />
	<rect x="120" y="30" width="10" height="10" fill="rgba(249, 197, 37, 1.0)" />
	<rect x="130" y="30" width="10" height="10" fill="rgba(246, 189, 31, 1.0)" />
	<rect x="140" y="30" width="10" height="10" fill="rgba(254, 217, 63, 1.0)" />
	<rect x="150" y="30" width="10" height="10" fill="rgba(253, 211, 52, 1.0)" />
	<rect x="0" y="40" width="10" height="10" fill="rgba(250, 202, 42, 1.0)" />
	<rect x="10" y="40" width="10" height="10" fill="rgba(248, 194, 34, 1.0)" />
	<rect x="20" y="40" width="10" height="10" fill="rgba(245, 186, 28, 1.0)" />
	<rect x="30" y="40" width="10" height="10" fill="rgba(249, 197, 37, 1.0)" />
	<rect x="40" y="40" width="10" height="10" fill="rgba(252, 208, 48, 1.0)" />
	<rect x="50" y="40" width="10" height="10" fill="rgba(252, 207, 47, 1.0)" />
	<rect x="60" y="40" width="10" height="10" fill="rgba(243, 179, 23, 1.0)" />
	<rect x="70" y="40" width="10" height="10" fill="rgba(242, 177, 22, 1.0)" />
	<rect x="80" y="40" width="10" height="10" fill="rgba(246, 188, 30, 1.0)" />
	<rect x="90" y="40" width="10" height="10" fill="rgba(249, 199, 38, 1.0)" />
	<rect x="100" y="40" width="10" height="10" fill="rgba(246, 187, 30, 1.0)" />
	<rect x="110" y="40" width="10" height="10" fill="rgba(244, 181, 25, 1.0)" />
	<rect x="120" y="40" width="10" height="10" fill="rgba(252, 208, 48, 1.0)" />
	<rect x="130" y="40" width="10" height="10" fill="rgba(252, 208, 48, 1.0)" />
	<rect x="140" y="40" width="10" height="10" fill="rgba(244, 183, 26, 1.0)" />
	<rect x="150" y="40" width="10" height="10" fill="rgba(243, 179, 23, 1.0)" />
	<rect x="0" y="50" width="10" height="10" fill="rgba(243, 181, 25, 1.0)" />
	<rect x="10" y="50" width="10" height="10" fill="rgba(243, 178, 23, 1.0)" />
	<rect x="20" y="50" width="10" height="10" fill="rgba(245, 186, 29, 1.0)" />
	<rect x="30" y="50" width="10" height="10" fill="rgba(253, 212, 53, 1.0)" />
	<rect x="40" y="50" width="10" height="10" fill="rgba(245, 186, 28, 1.0)" />
	<rect x="50" y="50" width="10" height="10" fill="rgba(242, 177, 22, 1.0)" />
	<rect x="60" y="50" width="10" height="10" fill="rgba(245, 185, 28, 1.0)" />
	<rect x="70" y="50" width="10" height="10" fill="rgba(246, 189, 31, 1.0)" />
	<rect x="80" y="50" width="10" height="10" fill="rgba(245, 186, 28, 1.0)" />
	<rect x="90" y="50" width="10" height="10" fill="rgba(242, 177, 22, 1.0)" />
	<rect x="100" y="50" width="10" height="10" fill="rgba(246, 189, 31, 1.0)" />
	<rect x="110" y="50" width="10" height="10" fill="rgba(247, 192, 33, 1.0)" />
	<rect x="120" y="50" width="10" height="10" fill="rgba(243, 180, 24, 1.0)" />
	<rect x="130" y="50" width="10" height="10" fill="rgba(246, 187, 30, 1.0)" />
	<rect x="140" y="50" width="10" height="10" fill="rgba(245, 184, 27, 1.0)" />
	<rect x="150" y="50" width="10" height="10" fill="rgba(247, 191, 32, 1.0)" />
	<rect x="0" y="60" width="10" height="10" fill="rgba(254, 217, 63, 1.0)" />
	<rect x="10" y="60" width="10" height="10" fill="rgba(254, 217, 63, 1.0)" />
	<rect x="20" y="60" width="10" height="10" fill="rgba(252, 209, 50, 1.0)" />
	<rect x="30" y="60" width="10" height="10" fill="rgba(252, 207, 47, 1.0)" />
	<rect x="40" y="60" width="10" height="10" fill="rgba(248, 196, 36, 1.0)" />
	<rect x="50" y="60" width="10" height="10" fill="rgba(248, 196, 36, 1.0)" />
	<rect x="60" y="60" width="10" height="10" fill="rgba(248, 194, 34, 1.0)" />
	<rect x="70" y="60" width="10" height="10" fill="rgba(249, 199, 38, 1.0)" />
	<rect x="80" y="60" width="10" height="10" fill="rgba(253, 210, 51, 1.0)" />
	<rect x="90" y="60" width="10" height="10" fill="rgba(254, 217, 63, 1.0)" />
	<rect x="100" y="60" width="10" height="10" fill="rgba(251, 203, 43, 1.0)" />
	<rect x="110" y="60" width="10" height="10" fill="rgba(247, 193, 33, 1.0)" />
	<rect x="120" y="60" width="10" height="10" fill="rgba(254, 217, 63, 1.0)" />
	<rect x="130" y="60" width="10" height="10" fill="rgba(254, 217, 63, 1.0)" />
	<rect x="140" y="60" width="10" height="10" fill="rgba(251, 206, 45, 1.0)" />
	<rect x="150" y="60" width="10" height="10" fill="rgba(249, 200, 39, 1.0)" />
	<rect x="0" y="70" width="10" height="10" fill="rgba(246, 189, 31, 1.0)" />
	<rect x="10" y="70" width="10" height="10" fill="rgba(246, 189, 31, 1.0)" />
	<rect x="20" y="70" width="10" height="10" fill="rgba(254, 217, 63, 1.0)" />
	<rect x="30" y="70" width="10" height="10" fill="rgba(254, 217, 63, 1.0)" />
	<rect x="40" y="70" width="10" height="10" fill="rgba(251, 206, 45, 1.0)" />
	<rect x="50" y="70" width="10" height="10" fill="rgba(251, 203, 43, 1.0)" />
	<rect x="60" y="70" width="10" height="10" fill="rgba(253, 212, 53, 1.0)" />
	<rect x="70" y="70" width="10" height="10" fill="rgba(253, 211, 52, 1.0)" />
	<rect x="80" y="70" width="10" height="10" fill="rgba(245, 184, 27, 1.0)" />
	<rect x="90" y="70" width="10" height="10" fill="rgba(246, 187, 30, 1.0)" />
	<rect x="100" y="70" width="10" height="10" fill="rgba(252, 207, 47, 1.0)" />
	<rect x="110" y="70" width="10" height="10" fill="rgba(253, 212, 53, 1.0)" />
	<rect x="120" y="70" width="10" height="10" fill="rgba(251, 203, 43, 1.0)" />
	<rect x="130" y="70" width="10" height="10" fill="rgba(250, 202, 42, 1.0)" />
	<rect x="140" y="70" width="10" height="10" fill="rgba(253, 212, 54, 1.0)" />
	<rect x="150" y="70" width="10" height="10" fill="rgba(253, 211, 52, 1.0)" />
	<rect x="0" y="80" width="10" height="10" fill="rgba(251, 206, 45, 1.0)" />
	<rect x="10" y="80" width="10" height="10" fill="rgba(251, 205, 44, 1.0)" />
	<rect x="20" y="80" width="10" height="10" fill="rgba(243, 181, 25, 1.0)" />
	<rect x="30" y="80" width="10" height="10" fill="rgba(246, 188, 30, 1.0)" />
	<rect x="40" y="80" width="10" height="10" fill="rgba(253, 211, 52, 1.0)" />
	<rect x="50" y="80" width="10" height="10" fill="rgba(251, 203, 43, 1.0)" />
	<rect x="60" y="80" width="10" height="10" fill="rgba(245, 186, 28, 1.0)" />
	<rect x="70" y="80" width="10" height="10" fill="rgba(246, 190, 31, 1.0)" />
	<rect x="80" y="80" width="10" height="10" fill="rgba(246, 188, 30, 1.0)" />
	<rect x="90" y="80" width="10" height="10" fill="rgba(247, 192, 33, 1.0)" />
	<rect x="100" y="80" width="10" height="10" fill="rgba(246, 187, 30, 1.0)" />
	<rect x="110" y="80" width="10" height="10" fill="rgba(243, 180, 24, 1.0)" />
	<rect x="120" y="80" width="10" height="10" fill="rgba(248, 196, 36, 1.0)" />
	<rect x="130" y="80" width="10" height="10" fill="rgba(247, 193, 33, 1.0)" />
	<rect x="140" y="80" width="10" height="10" fill="rgba(244, 182, 26, 1.0)" />
	<rect x="150" y="80" width="10" height="10" fill="rgba(244, 181, 25, 1.0)" />
	<rect x="0" y="90" width="10" height="10" fill="rgba(246, 188, 30, 1.0)" />
	<rect x="10" y="90" width="10" height="10" fill="rgba(247, 193, 33, 1.0)" />
	<rect x="20" y="90" width="10" height="10" fill="rgba(247, 191, 32, 1.0)" />
	<rect x="30" y="90" width="10" height="10" fill="rgba(253, 210, 51, 1.0)" />
	<rect x="40" y="90" width="10" height="10" fill="rgba(242, 177, 22, 1.0)" />
	<rect x="50" y="90" width="10" height="10" fill="rgba(243, 179, 23, 1.0)" />
	<rect x="60" y="90" width="10" height="10" fill="rgba(247, 193, 33, 1.0)" />
	<rect x="70" y="90" width="10" height="10" fill="rgba(250, 202, 41, 1.0)" />
	<rect x="80" y="90" width="10" height="10" fill="rgba(245, 186, 28, 1.0)" />
	<rect x="90" y="90" width="10" height="10" fill="rgba(250, 202, 42, 1.0)" />
	<rect x="100" y="90" width="10" height="10" fill="rgba(254, 217, 63, 1.0)" />
	<rect x="110" y="90" width="10" height="10" fill="rgba(254, 217, 63, 1.0)" />
	<rect x="120" y="90" width="10" height="10" fill="rgba(248, 195, 35, 1.0)" />
	<rect x="130" y="90" width="10" height="10" fill="rgba(251, 205, 44, 1.0)" />
	<rect x="140" y="90" width="10" height="10" fill="rgba(254, 217, 63, 1.0)" />
	<rect x="150" y="90" width="10" height="10" fill="rgba(254, 217, 63, 1.0)" />
	<rect x="0" y="100" width="10" height="10" fill="rgba(253, 211, 52, 1.0)" />
	<rect x="10" y="100" width="10" height="10" fill="rgba(253, 212, 54, 1.0)" />
	<rect x="20" y="100" width="10" height="10" fill="rgba(251, 206, 45, 1.0)" />
	<rect x="30" y="100" width="10" height="10" fill="rgba(251, 206, 45, 1.0)" />
	<rect x="40" y="100" width="10" height="10" fill="rgba(254, 217, 63, 1.0)" />
	<rect x="50" y="100" width="10" height="10" fill="rgba(253, 212, 53, 1.0)" />
	<rect x="60" y="100" width="10" height="10" fill="rgba(251, 206, 45, 1.0)" />
	<rect x="70" y="100" width="10" height="10" fill="rgba(251, 203, 43, 1.0)" />
	<rect x="80" y="100" width="10" height="10" fill="rgba(253, 212, 54, 1.0)" />
	<rect x="90" y="100" width="10" height="10" fill="rgba(253, 210, 51, 1.0)" />
	<rect x="100" y="100" width="10" height="10" fill="rgba(247, 192, 33, 1.0)" />
	<rect x="110" y="100" width="10" height="10" fill="rgba(249, 199, 38, 1.0)" />
	<rect x="120" y="100" width="10" height="10" fill="rgba(250, 202, 42, 1.0)" />
	<rect x="130" y="100" width="10" height="10" fill="rgba(248, 196, 36, 1.0)" />
	<rect x="140" y="100" width="10" height="10" fill="rgba(244, 183, 26, 1.0)" />
	<rect x="150" y="100" width="10" height="10" fill="rgba(249, 197, 37, 1.0)" />
	<rect x="0" y="110" width="10" height="10" fill="rgba(244, 183, 26, 1.0)" />
	<rect x="10" y="110" width="10" height="10" fill="rgba(245, 186, 28, 1.0)" />
	<rect x="20" y="110" width="10" height="10" fill="rgba(250, 202, 41, 1.0)" />
	<rect x="30" y="110" width="10" height="10" fill="rgba(250, 202, 41, 1.0)" />
	<rect x="40" y="110" width="10" height="10" fill="rgba(246, 189, 31, 1.0)" />
	<rect x="50" y="110" width="10" height="10" fill="rgba(246, 190, 31, 1.0)" />
	<rect x="60" y="110" width="10" height="10" fill="rgba(252, 208, 48, 1.0)" />
	<rect x="70" y="110" width="10" height="10" fill="rgba(251, 205, 44, 1.0)" />
	<rect x="80" y="110" width="10" height="10" fill="rgba(245, 184, 27, 1.0)" />
	<rect x="90" y="110" width="10" height="10" fill="rgba(245, 186, 28, 1.0)" />
	<rect x="100" y="110" width="10" height="10" fill="rgba(246, 188, 30, 1.0)" />
	<rect x="110" y="110" width="10" height="10" fill="rgba(250, 202, 42, 1.0)" />
	<rect x="120" y="110" width="10" height="10" fill="rgba(243, 178, 23, 1.0)" />
	<rect x="130" y="110" width="10" height="10" fill="rgba(243, 178, 23, 1.0)" />
	<rect x="140" y="110" width="10" height="10" fill="rgba(247, 191, 32, 1.0)" />
	<rect x="150" y="110" width="10" height="10" fill="rgba(250, 202, 42, 1.0)" />
	<rect x="0" y="120" width="10" height="10" fill="rgba(246, 190, 31, 1.0)" />
	<rect x="10" y="120" width="10" height="10" fill="rgba(246, 189, 31, 1.0)" />
	<rect x="20" y="120" width="10" height="10" fill="rgba(242, 177, 22, 1.0)" />
	<rect x="30" y="120" width="10" height="10" fill="rgba(243, 179, 23, 1.0)" />
	<rect x="40" y="120" width="10" height="10" fill="rgba(253, 211, 52, 1.0)" />
	<rect x="50" y="120" width="10" height="10" fill="rgba(254, 215, 58, 1.0)" />
	<rect x="60" y="120" width="10" height="10" fill="rgba(244, 181, 25, 1.0)" />
	<rect x="70" y="120" width="10" height="10" fill="rgba(242, 177, 22, 1.0)" />
	<rect x="80" y="120" width="10" height="10" fill="rgba(248, 196, 36, 1.0)" />
	<rect x="90" y="120" width="10" height="10" fill="rgba(252, 208, 48, 1.0)" />
	<rect x="100" y="120" width="10" height="10" fill="rgba(249, 199, 38, 1.0)" />
	<rect x="110" y="120" width="10" height="10" fill="rgba(251, 205, 44, 1.0)" />
	<rect x="120" y="120" width="10" height="10" fill="rgba(254, 217, 63, 1.0)" />
	<rect x="130" y="120" width="10" height="10" fill="rgba(254, 217, 63, 1.0)" />
	<rect x="140" y="120" width="10" height="10" fill="rgba(250, 202, 42, 1.0)" />
	<rect x="150" y="120" width="10" height="10" fill="rgba(243, 180, 24, 1.0)" />
	<rect x="0" y="130" width="10" height="10" fill="rgba(251, 205, 44, 1.0)" />
	<rect x="10" y="130" width="10" height="10" fill="rgba(251, 203, 43, 1.0)" />
	<rect x="20" y="130" width="10" height="10" fill="rgba(254, 215, 59, 1.0)" />
	<rect x="30" y="130" width="10" height="10" fill="rgba(254, 217, 63, 1.0)" />
	<rect x="40" y="130" width="10" height="10" fill="rgba(253, 211, 52, 1.0)" />
	<rect x="50" y="130" width="10" height="10" fill="rgba(251, 206, 45, 1.0)" />
	<rect x="60" y="130" width="10" height="10" fill="rgba(249, 199, 38, 1.0)" />
	<rect x="70" y="130" width="10" height="10" fill="rgba(247, 192, 33, 1.0)" />
	<rect x="80" y="130" width="10" height="10" fill="rgba(242, 177, 22, 1.0)" />
	<rect x="90" y="130" width="10" height="10" fill="rgba(248, 195, 35, 1.0)" />
	<rect x="100" y="130" width="10" height="10" fill="rgba(251, 205, 44, 1.0)" />
	<rect x="110" y="130" width="10" height="10" fill="rgba(253, 212, 53, 1.0)" />
	<rect x="120" y="130" width="10" height="10" fill="rgba(248, 194, 34, 1.0)" />
	<rect x="130" y="130" width="10" height="10" fill="rgba(248, 195, 35, 1.0)" />
	<rect x="140" y="130" width="10" height="10" fill="rgba(253, 212, 53, 1.0)" />
	<rect x="150" y="130" width="10" height="10" fill="rgba(254, 217, 63, 1.0)" />
	<rect x="0" y="140" width="10" height="10" fill="rgba(254, 215, 58, 1.0)" />
	<rect x="10" y="140" width="10" height="10" fill="rgba(253, 214, 57, 1.0)" />
	<rect x="20" y="140" width="10" height="10" fill="rgba(249, 197, 37, 1.0)" />
	<rect x="30" y="140" width="10" height="10" fill="rgba(247, 193, 33, 1.0)" />
	<rect x="40" y="140" width="10" height="10" fill="rgba(253, 212, 53, 1.0)" />
	<rect x="50" y="140" width="10" height="10" fill="rgba(249, 199, 38, 1.0)" />
	<rect x="60" y="140" width="10" height="10" fill="rgba(250, 202, 42, 1.0)" />
	<rect x="70" y="140" width="10" height="10" fill="rgba(252, 207, 47, 1.0)" />
	<rect x="80" y="140" width="10" height="10" fill="rgba(254, 217, 63, 1.0)" />
	<rect x="90" y="140" width="10" height="10" fill="rgba(253, 210, 51, 1.0)" />
	<rect x="100" y="140" width="10" height="10" fill="rgba(246, 187, 30, 1.0)" />
	<rect x="110" y="140" width="10" height="10" fill="rgba(246, 188, 30, 1.0)" />
	<rect x="120" y="140" width="10" height="10" fill="rgba(249, 200, 39, 1.0)" />
	<rect x="130" y="140" width="10" height="10" fill="rgba(251, 205, 44, 1.0)" />
	<rect x="140" y="140" width="10" height="10" fill="rgba(246, 190, 31, 1.0)" />
	<rect x="150" y="140" width="10" height="10" fill="rgba(245, 184, 27, 1.0)" />
	<rect x="0" y="150" width="10" height="10" fill="rgba(243, 180, 24, 1.0)" />
	<rect x="10" y="150" width="10" height="10" fill="rgba(245, 186, 28, 1.0)" />
	<rect x="20" y="150" width="10" height="10" fill="rgba(253, 211, 52, 1.0)" />
	<rect x="30" y="150" width="10" height="10" fill="rgba(249, 200, 39, 1.0)" />
	<rect x="40" y="150" width="10" height="10" fill="rgba(245, 184, 27, 1.0)" />
	<rect x="50" y="150" width="10" height="10" fill="rgba(246, 190, 31, 1.0)" />
	<rect x="60" y="150" width="10" height="10" fill="rgba(253, 212, 53, 1.0)" />
	<rect x="70" y="150" width="10" height="10" fill="rgba(254, 215, 59, 1.0)" />
	<rect x="80" y="150" width="10" height="10" fill="rgba(248, 194, 34, 1.0)" />
	<rect x="90" y="150" width="10" height="10" fill="rgba(246, 189, 31, 1.0)" />
	<rect x="100" y="150" width="10" height="10" fill="rgba(251, 203, 43, 1.0)" />
	<rect x="110" y="150" width="10" height="10" fill="rgba(253, 211, 52, 1.0)" />
	<rect x="120" y="150" width="10" height="10" fill="rgba(245, 184, 27, 1.0)" />
	<rect x="130" y="150" width="10" height="10" fill="rgba(245, 186, 28, 1.0)" />
	<rect x="140" y="150" width="10" height="10" fill="rgba(253, 210, 51, 1.0)" />
	<rect x="150" y="150" width="10" height="10" fill="rgba(253, 212, 53, 1.0)" />
</svg>