<svg xmlns="http://www.w3.org/2000/svg" xmlns:xlink="http://www.w3.org/1999/xlink">
	<rect x="0" y="0" width="10" height="10" fill="rgba(185, 132, 35, 1.0)" />
	<rect x="10" y="0" width="10" height="10" fill="rgba(184, 131, 34, 1.0)" />
	<rect x="20" y="0" width="10" height="10" fill="rgba(184, 131, 34, 1.0)" />
	<rect x="30" y="0" width="10" height="10" fill="rgba(184, 131, 34, 1.0)" />
	<rect x="40" y="0" width="10" height="10" fill="rgba(185, 131, 35, 1.0)" />
	<rect x="50" y="0" width="10" height="10" fill="rgba(186, 134, 37, 1.0)" />
	<rect x="60" y="0" width="10" height="10" fill="rgba(190, 138, 38, 1.0)" />
	<rect x="70" y="0" width="10" height="10" fill="rgba(189, 136, 37, 1.0)" />
	<rect x="80" y="0" width="10" height="10" fill="rgba(184, 132, 34, 1.0)" />
	<rect x="90" y="0" width="10" height="10" fill="rgba(190, 137, 37, 1.0)" />
	<rect x="100" y="0" width="10" height="10" fill="rgba(189, 137, 37, 1.0)" />
	<rect x="110" y="0" width="10" height="10" fill="rgba(185, 131, 34, 1.0)" />
	<rect x="120" y="0" width="10" height="10" fill="rgba(183, 129, 32, 1.0)" />
	<rect x="130" y="0" width="10" height="10" fill="rgba(183, 129, 32, 1.0)" />
	<rect x="140" y="0" width="10" height="10" fill="rgba(183, 130, 32, 1.0)" />
	<rect x="150" y="0" width="10" height="10" fill="rgba(185, 131, 34, 1.0)" />
	<rect x="0" y="10" width="10" height="10" fill="rgba(185, 132, 35, 1.0)" />
	<rect x="10" y="10" width="10" height="10" fill="rgba(186, 132, 35, 1.0)" />
	<rect x="20" y="10" width="10" height="10" fill="rgba(190, 137, 38, 1.0)" />
	<rect x="30" y="10" width="10" height="10" fill="rgba(191, 137, 39, 1.0)" />
	<rect x="40" y="10" width="10" height="10" fill="rgba(191, 134, 39, 1.0)" />
	<rect x="50" y="10" width="10" height="10" fill="rgba(186, 134, 40, 1.0)" />
	<rect x="60" y="10" width="10" height="10" fill="rgba(185, 133, 35, 1.0)" />
	<rect x="70" y="10" width="10" height="10" fill="rgba(185, 131, 34, 1.0)" />
	<rect x="80" y="10" width="10" height="10" fill="rgba(185, 133, 34, 1.0)" />
	<rect x="90" y="10" width="10" height="10" fill="rgba(186, 134, 35, 1.0)" />
	<rect x="100" y="10" width="10" height="10" fill="rgba(190, 137, 38, 1.0)" />
	<rect x="110" y="10" width="10" height="10" fill="rgba(188, 136, 37, 1.0)" />
	<rect x="120" y="10" width="10" height="10" fill="rgba(183, 130, 33, 1.0)" />
	<rect x="130" y="10" width="10" height="10" fill="rgba(186, 132, 35, 1.0)" />
	<rect x="140" y="10" width="10" height="10" fill="rgba(186, 132, 35, 1.0)" />
	<rect x="150" y="10" width="10" height="10" fill="rgba(184, 131, 34, 1.0)" />
	<rect x="0" y="20" width="10" height="10" fill="rgba(185, 133, 36, 1.0)" />
	<rect x="10" y="20" width="10" height="10" fill="rgba(180, 131, 35, 1.0)" />
	<rect x="20" y="20" width="10" height="10" fill="rgba(185, 133, 35, 1.0)" />
	<rect x="30" y="20" width="10" height="10" fill="rgba(185, 131, 34, 1.0)" />
	<rect x="40" y="20" width="10" height="10" fill="rgba(184, 130, 33, 1.0)" />
	<rect x="50" y="20" width="10" height="10" fill="rgba(183, 130, 33, 1.0)" />
	<rect x="60" y="20" width="10" height="10" fill="rgba(184, 130, 33, 1.0)" />
	<rect x="70" y="20" width="10" height="10" fill="rgba(185, 131, 34, 1.0)" />
	<rect x="80" y="20" width="10" height="10" fill="rgba(189, 135, 36, 1.0)" />
	<rect x="90" y="20" width="10" height="10" fill="rgba(186, 134, 36, 1.0)" />
	<rect x="100" y="20" width="10" height="10" fill="rgba(186, 135, 36, 1.0)" />
	<rect x="110" y="20" width="10" height="10" fill="rgba(186, 134, 36, 1.0)" />
	<rect x="120" y="20" width="10" height="10" fill="rgba(185, 133, 36, 1.0)" />
	<rect x="130" y="20" width="10" height="10" fill="rgba(187, 138, 36, 1.0)" />
	<rect x="140" y="20" width="10" height="10" fill="rgba(187, 134, 35, 1.0)" />
	<rect x="150" y="20" width="10" height="10" fill="rgba(186, 134, 33, 1.0)" />
	<rect x="0" y="30" width="10" height="10" fill="rgba(187, 134, 36, 1.0)" />
	<rect x="10" y="30" width="10" height="10" fill="rgba(189, 137, 37, 1.0)" />
	<rect x="20" y="30" width="10" height="10" fill="rgba(186, 134, 36, 1.0)" />
	<rect x="30" y="30" width="10" height="10" fill="rgba(186, 131, 33, 1.0)" />
	<rect x="40" y="30" width="10" height="10" fill="rgba(183, 130, 33, 1.0)" />
	<rect x="50" y="30" width="10" height="10" fill="rgba(181, 129, 32, 1.0)" />
	<rect x="60" y="30" width="10" height="10" fill="rgba(184, 131, 34, 1.0)" />
	<rect x="70" y="30" width="10" height="10" fill="rgba(190, 133, 36, 1.0)" />
	<rect x="80" y="30" width="10" height="10" fill="rgba(186, 133, 36, 1.0)" />
	<rect x="90" y="30" width="10" height="10" fill="rgba(185, 132, 35, 1.0)" />
	<rect x="100" y="30" width="10" height="10" fill="rgba(185, 132, 35, 1.0)" />
	<rect x="110" y="30" width="10" height="10" fill="rgba(185, 134, 35, 1.0)" />
	<rect x="120" y="30" width="10" height="10" fill="rgba(186, 133, 36, 1.0)" />
	<rect x="130" y="30" width="10" height="10" fill="rgba(186, 133, 36, 1.0)" />
	<rect x="140" y="30" width="10" height="10" fill="rgba(186, 132, 33, 1.0)" />
	<rect x="150" y="30" width="10" height="10" fill="rgba(185, 131, 33, 1.0)" />
	<rect x="0" y="40" width="10" height="10" fill="rgba(186, 134, 36, 1.0)" />
	<rect x="10" y="40" width="10" height="10" fill="rgba(191, 137, 38, 1.0)" />
	<rect x="20" y="40" width="10" height="10" fill="rgba(190, 136, 38, 1.0)" />
	<rect x="30" y="40" width="10" height="10" fill="rgba(189, 135, 36, 1.0)" />
	<rect x="40" y="40" width="10" height="10" fill="rgba(187, 134, 36, 1.0)" />
	<rect x="50" y="40" width="10" height="10" fill="rgba(181, 128, 32, 1.0)" />
	<rect x="60" y="40" width="10" height="10" fill="rgba(183, 130, 32, 1.0)" />
	<rect x="70" y="40" width="10" height="10" fill="rgba(185, 130, 32, 1.0)" />
	<rect x="80" y="40" width="10" height="10" fill="rgba(185, 130, 35, 1.0)" />
	<rect x="90" y="40" width="10" height="10" fill="rgba(184, 131, 34, 1.0)" />
	<rect x="100" y="40" width="10" height="10" fill="rgba(192, 137, 38, 1.0)" />
	<rect x="110" y="40" width="10" height="10" fill="rgba(192, 137, 38, 1.0)" />
	<rect x="120" y="40" width="10" height="10" fill="rgba(186, 133, 35, 1.0)" />
	<rect x="130" y="40" width="10" height="10" fill="rgba(185, 132, 35, 1.0)" />
	<rect x="140" y="40" width="10" height="10" fill="rgba(186, 134, 36, 1.0)" />
	<rect x="150" y="40" width="10" height="10" fill="rgba(185, 131, 34, 1.0)" />
	<rect x="0" y="50" width="10" height="10" fill="rgba(191, 137, 38, 1.0)" />
	<rect x="10" y="50" width="10" height="10" fill="rgba(186, 134, 36, 1.0)" />
	<rect x="20" y="50" width="10" height="10" fill="rgba(188, 135, 37, 1.0)" />
	<rect x="30" y="50" width="10" height="10" fill="rgba(185, 133, 36, 1.0)" />
	<rect x="40" y="50" width="10" height="10" fill="rgba(185, 131, 33, 1.0)" />
	<rect x="50" y="50" width="10" height="10" fill="rgba(186, 133, 35, 1.0)" />
	<rect x="60" y="50" width="10" height="10" fill="rgba(186, 133, 35, 1.0)" />
	<rect x="70" y="50" width="10" height="10" fill="rgba(186, 133, 36, 1.0)" />
	<rect x="80" y="50" width="10" height="10" fill="rgba(186, 133, 36, 1.0)" />
	<rect x="90" y="50" width="10" height="10" fill="rgba(186, 133, 36, 1.0)" />
	<rect x="100" y="50" width="10" height="10" fill="rgba(186, 134, 36, 1.0)" />
	<rect x="110" y="50" width="10" height="10" fill="rgba(187, 134, 36, 1.0)" />
	<rect x="120" y="50" width="10" height="10" fill="rgba(187, 134, 36, 1.0)" />
	<rect x="130" y="50" width="10" height="10" fill="rgba(186, 134, 36, 1.0)" />
	<rect x="140" y="50" width="10" height="10" fill="rgba(185, 132, 35, 1.0)" />
	<rect x="150" y="50" width="10" height="10" fill="rgba(191, 137, 38, 1.0)" />
	<rect x="0" y="60" width="10" height="10" fill="rgba(189, 135, 36, 1.0)" />
	<rect x="10" y="60" width="10" height="10" fill="rgba(188, 136, 37, 1.0)" />
	<rect x="20" y="60" width="10" height="10" fill="rgba(186, 134, 37, 1.0)" />
	<rect x="30" y="60" width="10" height="10" fill="rgba(185, 133, 36, 1.0)" />
	<rect x="40" y="60" width="10" height="10" fill="rgba(185, 131, 34, 1.0)" />
	<rect x="50" y="60" width="10" height="10" fill="rgba(184, 131, 34, 1.0)" />
	<rect x="60" y="60" width="10" height="10" fill="rgba(186, 131, 36, 1.0)" />
	<rect x="70" y="60" width="10" height="10" fill="rgba(191, 133, 38, 1.0)" />
	<rect x="80" y="60" width="10" height="10" fill="rgba(186, 131, 33, 1.0)" />
	<rect x="90" y="60" width="10" height="10" fill="rgba(184, 131, 34, 1.0)" />
	<rect x="100" y="60" width="10" height="10" fill="rgba(185, 132, 35, 1.0)" />
	<rect x="110" y="60" width="10" height="10" fill="rgba(187, 134, 36, 1.0)" />
	<rect x="120" y="60" width="10" height="10" fill="rgba(189, 137, 37, 1.0)" />
	<rect x="130" y="60" width="10" height="10" fill="rgba(190, 136, 37, 1.0)" />
	<rect x="140" y="60" width="10" height="10" fill="rgba(188, 134, 36, 1.0)" />
	<rect x="150" y="60" width="10" height="10" fill="rgba(185, 131, 33, 1.0)" />
	<rect x="0" y="70" width="10" height="10" fill="rgba(188, 135, 38, 1.0)" />
	<rect x="10" y="70" width="10" height="10" fill="rgba(186, 132, 35, 1.0)" />
	<rect x="20" y="70" width="10" height="10" fill="rgba(185, 131, 34, 1.0)" />
	<rect x="30" y="70" width="10" height="10" fill="rgba(184, 131, 34, 1.0)" />
	<rect x="40" y="70" width="10" height="10" fill="rgba(189, 135, 36, 1.0)" />
	<rect x="50" y="70" width="10" height="10" fill="rgba(189, 135, 36, 1.0)" />
	<rect x="60" y="70" width="10" height="10" fill="rgba(184, 131, 34, 1.0)" />
	<rect x="70" y="70" width="10" height="10" fill="rgba(189, 136, 36, 1.0)" />
	<rect x="80" y="70" width="10" height="10" fill="rgba(190, 136, 37, 1.0)" />
	<rect x="90" y="70" width="10" height="10" fill="rgba(186, 133, 36, 1.0)" />
	<rect x="100" y="70" width="10" height="10" fill="rgba(185, 132, 35, 1.0)" />
	<rect x="110" y="70" width="10" height="10" fill="rgba(186, 133, 36, 1.0)" />
	<rect x="120" y="70" width="10" height="10" fill="rgba(186, 133, 36, 1.0)" />
	<rect x="130" y="70" width="10" height="10" fill="rgba(186, 134, 36, 1.0)" />
	<rect x="140" y="70" width="10" height="10" fill="rgba(188, 135, 37, 1.0)" />
	<rect x="150" y="70" width="10" height="10" fill="rgba(188, 135, 37, 1.0)" />
	<rect x="0" y="80" width="10" height="10" fill="rgba(188, 135, 38, 1.0)" />
	<rect x="10" y="80" width="10" height="10" fill="rgba(189, 136, 37, 1.0)" />
	<rect x="20" y="80" width="10" height="10" fill="rgba(186, 136, 37, 1.0)" />
	<rect x="30" y="80" width="10" height="10" fill="rgba(181, 129, 32, 1.0)" />
	<rect x="40" y="80" width="10" height="10" fill="rgba(185, 131, 35, 1.0)" />
	<rect x="50" y="80" width="10" height="10" fill="rgba(184, 130, 33, 1.0)" />
	<rect x="60" y="80" width="10" height="10" fill="rgba(185, 131, 35, 1.0)" />
	<rect x="70" y="80" width="10" height="10" fill="rgba(185, 131, 35, 1.0)" />
	<rect x="80" y="80" width="10" height="10" fill="rgba(185, 132, 35, 1.0)" />
	<rect x="90" y="80" width="10" height="10" fill="rgba(186, 134, 37, 1.0)" />
	<rect x="100" y="80" width="10" height="10" fill="rgba(190, 136, 37, 1.0)" />
	<rect x="110" y="80" width="10" height="10" fill="rgba(190, 137, 37, 1.0)" />
	<rect x="120" y="80" width="10" height="10" fill="rgba(190, 136, 37, 1.0)" />
	<rect x="130" y="80" width="10" height="10" fill="rgba(190, 137, 38, 1.0)" />
	<rect x="140" y="80" width="10" height="10" fill="rgba(191, 138, 40, 1.0)" />
	<rect x="150" y="80" width="10" height="10" fill="rgba(186, 133, 36, 1.0)" />
	<rect x="0" y="90" width="10" height="10" fill="rgba(188, 135, 37, 1.0)" />
	<rect x="10" y="90" width="10" height="10" fill="rgba(186, 133, 36, 1.0)" />
	<rect x="20" y="90" width="10" height="10" fill="rgba(185, 131, 35, 1.0)" />
	<rect x="30" y="90" width="10" height="10" fill="rgba(184, 130, 33, 1.0)" />
	<rect x="40" y="90" width="10" height="10" fill="rgba(184, 130, 33, 1.0)" />
	<rect x="50" y="90" width="10" height="10" fill="rgba(184, 131, 34, 1.0)" />
	<rect x="60" y="90" width="10" height="10" fill="rgba(185, 131, 35, 1.0)" />
	<rect x="70" y="90" width="10" height="10" fill="rgba(184, 131, 34, 1.0)" />
	<rect x="80" y="90" width="10" height="10" fill="rgba(186, 133, 36, 1.0)" />
	<rect x="90" y="90" width="10" height="10" fill="rgba(185, 133, 34, 1.0)" />
	<rect x="100" y="90" width="10" height="10" fill="rgba(185, 131, 35, 1.0)" />
	<rect x="110" y="90" width="10" height="10" fill="rgba(185, 131, 35, 1.0)" />
	<rect x="120" y="90" width="10" height="10" fill="rgba(186, 135, 36, 1.0)" />
	<rect x="130" y="90" width="10" height="10" fill="rgba(186, 135, 36, 1.0)" />
	<rect x="140" y="90" width="10" height="10" fill="rgba(192, 139, 38, 1.0)" />
	<rect x="150" y="90" width="10" height="10" fill="rgba(190, 137, 39, 1.0)" />
	<rect x="0" y="100" width="10" height="10" fill="rgba(186, 132, 33, 1.0)" />
	<rect x="10" y="100" width="10" height="10" fill="rgba(186, 133, 35, 1.0)" />
	<rect x="20" y="100" width="10" height="10" fill="rgba(185, 133, 36, 1.0)" />
	<rect x="30" y="100" width="10" height="10" fill="rgba(184, 130, 33, 1.0)" />
	<rect x="40" y="100" width="10" height="10" fill="rgba(184, 130, 34, 1.0)" />
	<rect x="50" y="100" width="10" height="10" fill="rgba(192, 137, 38, 1.0)" />
	<rect x="60" y="100" width="10" height="10" fill="rgba(192, 138, 39, 1.0)" />
	<rect x="70" y="100" width="10" height="10" fill="rgba(185, 130, 31, 1.0)" />
	<rect x="80" y="100" width="10" height="10" fill="rgba(186, 134, 36, 1.0)" />
	<rect x="90" y="100" width="10" height="10" fill="rgba(187, 134, 36, 1.0)" />
	<rect x="100" y="100" width="10" height="10" fill="rgba(191, 138, 38, 1.0)" />
	<rect x="110" y="100" width="10" height="10" fill="rgba(190, 137, 38, 1.0)" />
	<rect x="120" y="100" width="10" height="10" fill="rgba(186, 133, 35, 1.0)" />
	<rect x="130" y="100" width="10" height="10" fill="rgba(186, 134, 35, 1.0)" />
	<rect x="140" y="100" width="10" height="10" fill="rgba(186, 132, 35, 1.0)" />
	<rect x="150" y="100" width="10" height="10" fill="rgba(184, 131, 34, 1.0)" />
	<rect x="0" y="110" width="10" height="10" fill="rgba(184, 130, 34, 1.0)" />
	<rect x="10" y="110" width="10" height="10" fill="rgba(186, 132, 35, 1.0)" />
	<rect x="20" y="110" width="10" height="10" fill="rgba(186, 133, 35, 1.0)" />
	<rect x="30" y="110" width="10" height="10" fill="rgba(185, 131, 35, 1.0)" />
	<rect x="40" y="110" width="10" height="10" fill="rgba(184, 131, 34, 1.0)" />
	<rect x="50" y="110" width="10" height="10" fill="rgba(186, 133, 35, 1.0)" />
	<rect x="60" y="110" width="10" height="10" fill="rgba(186, 134, 36, 1.0)" />
	<rect x="70" y="110" width="10" height="10" fill="rgba(185, 132, 36, 1.0)" />
	<rect x="80" y="110" width="10" height="10" fill="rgba(190, 136, 37, 1.0)" />
	<rect x="90" y="110" width="10" height="10" fill="rgba(191, 138, 38, 1.0)" />
	<rect x="100" y="110" width="10" height="10" fill="rgba(188, 135, 37, 1.0)" />
	<rect x="110" y="110" width="10" height="10" fill="rgba(187, 134, 36, 1.0)" />
	<rect x="120" y="110" width="10" height="10" fill="rgba(187, 134, 36, 1.0)" />
	<rect x="130" y="110" width="10" height="10" fill="rgba(190, 137, 37, 1.0)" />
	<rect x="140" y="110" width="10" height="10" fill="rgba(189, 136, 37, 1.0)" />
	<rect x="150" y="110" width="10" height="10" fill="rgba(186, 133, 36, 1.0)" />
	<rect x="0" y="120" width="10" height="10" fill="rgba(185, 130, 35, 1.0)" />
	<rect x="10" y="120" width="10" height="10" fill="rgba(185, 131, 35, 1.0)" />
	<rect x="20" y="120" width="10" height="10" fill="rgba(185, 132, 35, 1.0)" />
	<rect x="30" y="120" width="10" height="10" fill="rgba(186, 132, 35, 1.0)" />
	<rect x="40" y="120" width="10" height="10" fill="rgba(185, 133, 34, 1.0)" />
	<rect x="50" y="120" width="10" height="10" fill="rgba(186, 131, 33, 1.0)" />
	<rect x="60" y="120" width="10" height="10" fill="rgba(184, 131, 34, 1.0)" />
	<rect x="70" y="120" width="10" height="10" fill="rgba(185, 131, 35, 1.0)" />
	<rect x="80" y="120" width="10" height="10" fill="rgba(192, 139, 41, 1.0)" />
	<rect x="90" y="120" width="10" height="10" fill="rgba(193, 135, 36, 1.0)" />
	<rect x="100" y="120" width="10" height="10" fill="rgba(185, 131, 34, 1.0)" />
	<rect x="110" y="120" width="10" height="10" fill="rgba(183, 130, 33, 1.0)" />
	<rect x="120" y="120" width="10" height="10" fill="rgba(185, 131, 33, 1.0)" />
	<rect x="130" y="120" width="10" height="10" fill="rgba(186, 134, 35, 1.0)" />
	<rect x="140" y="120" width="10" height="10" fill="rgba(186, 133, 36, 1.0)" />
	<rect x="150" y="120" width="10" height="10" fill="rgba(186, 134, 36, 1.0)" />
	<rect x="0" y="130" width="10" height="10" fill="rgba(186, 134, 36, 1.0)" />
	<rect x="10" y="130" width="10" height="10" fill="rgba(186, 135, 36, 1.0)" />
	<rect x="20" y="130" width="10" height="10" fill="rgba(186, 135, 36, 1.0)" />
	<rect x="30" y="130" width="10" height="10" fill="rgba(189, 137, 37, 1.0)" />
	<rect x="40" y="130" width="10" height="10" fill="rgba(185, 134, 36, 1.0)" />
	<rect x="50" y="130" width="10" height="10" fill="rgba(188, 139, 39, 1.0)" />
	<rect x="60" y="130" width="10" height="10" fill="rgba(186, 132, 33, 1.0)" />
	<rect x="70" y="130" width="10" height="10" fill="rgba(184, 130, 33, 1.0)" />
	<rect x="80" y="130" width="10" height="10" fill="rgba(185, 131, 34, 1.0)" />
	<rect x="90" y="130" width="10" height="10" fill="rgba(186, 131, 33, 1.0)" />
	<rect x="100" y="130" width="10" height="10" fill="rgba(179, 131, 30, 1.0)" />
	<rect x="110" y="130" width="10" height="10" fill="rgba(184, 131, 34, 1.0)" />
	<rect x="120" y="130" width="10" height="10" fill="rgba(186, 131, 33, 1.0)" />
	<rect x="130" y="130" width="10" height="10" fill="rgba(186, 133, 35, 1.0)" />
	<rect x="140" y="130" width="10" height="10" fill="rgba(190, 139, 37, 1.0)" />
	<rect x="150" y="130" width="10" height="10" fill="rgba(191, 137, 38, 1.0)" />
	<rect x="0" y="140" width="10" height="10" fill="rgba(186, 133, 36, 1.0)" />
	<rect x="10" y="140" width="10" height="10" fill="rgba(185, 134, 36, 1.0)" />
	<rect x="20" y="140" width="10" height="10" fill="rgba(185, 133, 36, 1.0)" />
	<rect x="30" y="140" width="10" height="10" fill="rgba(186, 128, 30, 1.0)" />
	<rect x="40" y="140" width="10" height="10" fill="rgba(183, 129, 32, 1.0)" />
	<rect x="50" y="140" width="10" height="10" fill="rgba(185, 132, 35, 1.0)" />
	<rect x="60" y="140" width="10" height="10" fill="rgba(186, 131, 33, 1.0)" />
	<rect x="70" y="140" width="10" height="10" fill="rgba(184, 131, 34, 1.0)" />
	<rect x="80" y="140" width="10" height="10" fill="rgba(185, 132, 35, 1.0)" />
	<rect x="90" y="140" width="10" height="10" fill="rgba(185, 133, 36, 1.0)" />
	<rect x="100" y="140" width="10" height="10" fill="rgba(187, 134, 36, 1.0)" />
	<rect x="110" y="140" width="10" height="10" fill="rgba(188, 134, 36, 1.0)" />
	<rect x="120" y="140" width="10" height="10" fill="rgba(186, 132, 35, 1.0)" />
	<rect x="130" y="140" width="10" height="10" fill="rgba(184, 131, 33, 1.0)" />
	<rect x="140" y="140" width="10" height="10" fill="rgba(186, 131, 33, 1.0)" />
	<rect x="150" y="140" width="10" height="10" fill="rgba(189, 135, 36, 1.0)" />
	<rect x="0" y="150" width="10" height="10" fill="rgba(185, 133, 36, 1.0)" />
	<rect x="10" y="150" width="10" height="10" fill="rgba(186, 134, 36, 1.0)" />
	<rect x="20" y="150" width="10" height="10" fill="rgba(186, 134, 36, 1.0)" />
	<rect x="30" y="150" width="10" height="10" fill="rgba(185, 134, 36, 1.0)" />
	<rect x="40" y="150" width="10" height="10" fill="rgba(185, 134, 36, 1.0)" />
	<rect x="50" y="150" width="10" height="10" fill="rgba(188, 135, 37, 1.0)" />
	<rect x="60" y="150" width="10" height="10" fill="rgba(191, 137, 38, 1.0)" />
	<rect x="70" y="150" width="10" height="10" fill="rgba(186, 134, 37, 1.0)" />
	<rect x="80" y="150" width="10" height="10" fill="rgba(185, 134, 36, 1.0)" />
	<rect x="90" y="150" width="10" height="10" fill="rgba(186, 134, 37, 1.0)" />
	<rect x="100" y="150" width="10" height="10" fill="rgba(186, 134, 36, 1.0)" />
	<rect x="110" y="150" width="10" height="10" fill="rgba(186, 131, 33, 1.0)" />
	<rect x="120" y="150" width="10" height="10" fill="rgba(185, 130, 32, 1.0)" />
	<rect x="130" y="150" width="10" height="10" fill="rgba(183, 130, 32, 1.0)" />
	<rect x="140" y="150" width="10" height="10" fill="rgba(186, 132, 35, 1.0)" />
	<rect x="150" y="150" width="10" height="10" fill="rgba(186, 134, 36, 1.0)" />
</svg>